<svg width="64" height="20" viewBox="0 0 64 20" fill="none" xmlns="http://www.w3.org/2000/svg">
<path d="M13.2465 1.88272C14.1235 -0.362379 17.4911 -0.537778 18.4032 1.9178C18.4383 1.81256 18.5085 1.77748 18.5085 1.70732C19.2802 0.198895 21.1394 -0.327301 22.6128 0.54969C23.3494 0.970646 23.7353 1.67224 23.7704 2.47907C23.8055 3.14558 23.8055 3.84717 23.8055 4.58385C23.8055 6.51323 23.8055 8.51277 23.8055 10.4772C23.8055 11.0034 23.7704 11.0736 23.2091 11.0736C22.6479 11.0736 22.1217 11.0736 21.6656 11.0736C21.2447 11.0736 21.1394 10.9683 21.1394 10.5474C21.1394 8.54784 21.1394 6.54831 21.1394 4.51369C21.1394 4.26813 21.1394 4.02257 21.1394 3.77701C21.1043 3.14558 20.8588 2.79479 20.3677 2.65447C19.7713 2.51415 19.21 2.68955 18.9645 3.18066C18.754 3.53146 18.6839 3.91733 18.6839 4.30321C18.6488 6.23259 18.6488 8.16197 18.6488 10.0913C18.6488 10.2317 18.6488 10.4421 18.6488 10.5825C18.6488 10.8631 18.5085 11.0034 18.2278 11.0034C17.6315 11.0034 17.0702 11.0034 16.4738 11.0034C16.123 11.0034 15.9827 10.8631 15.9827 10.5123C15.9827 8.72324 15.9827 6.86402 15.9827 5.07496C15.9827 4.58385 15.9827 4.05765 15.8775 3.56654C15.7722 2.9351 15.3864 2.65447 14.8602 2.58431C14.2287 2.54923 13.7376 2.82986 13.5973 3.42622C13.457 3.91733 13.3868 4.44353 13.3868 4.96972C13.3868 6.75878 13.3868 8.58292 13.3868 10.4071C13.3868 10.9333 13.3518 11.0034 12.7905 11.0034C12.2643 11.0034 11.703 11.0034 11.247 11.0034C10.8962 11.0034 10.7559 10.8631 10.7559 10.5123C10.7559 7.2499 10.7559 3.98749 10.7559 0.795248C10.7559 0.444451 10.8962 0.304132 11.247 0.304132C11.7732 0.304132 12.3344 0.304132 12.8606 0.304132C13.2114 0.304132 13.3518 0.444451 13.2816 0.795248C13.2465 1.18112 13.2465 1.567 13.2465 1.88272Z" fill="black"/>
<path d="M31.6988 9.81064C31.1024 10.407 30.5412 10.9332 29.6992 11.0735C29.173 11.1787 28.6118 11.2138 28.1557 11.1787C26.6473 11.0384 25.6651 10.0211 25.63 8.44253C25.5248 6.65347 26.4719 5.32044 28.1557 4.82933C29.0678 4.58377 30.015 4.47854 30.9621 4.33822C31.1024 4.33822 31.2077 4.30313 31.3831 4.30313C31.348 3.88218 31.348 3.39107 31.2427 3.00519C31.1375 2.479 30.6464 2.16328 30.015 2.16328C29.2783 2.1282 28.717 2.51408 28.4715 3.14551C28.2259 3.74186 28.2259 3.74186 27.5945 3.6717C27.1735 3.63662 26.7175 3.56646 26.2264 3.53138C25.9457 3.4963 25.8405 3.32091 25.8756 3.04027C26.1211 1.88264 26.7876 1.04073 27.8751 0.619775C29.2432 0.0234212 30.6464 -0.011659 32.0145 0.479456C33.2774 0.900411 33.9439 1.7774 34.014 3.21567C34.0491 4.58377 34.0491 5.88172 34.014 7.24982C34.014 7.9865 34.2245 8.61793 34.6455 9.1792C34.9963 9.56508 34.9261 9.67032 34.5402 10.0211C34.1544 10.3719 33.7685 10.6876 33.3124 11.0384C33.0669 11.284 32.8213 11.284 32.5758 11.0384C32.3653 10.5473 32.0496 10.2316 31.6988 9.81064ZM31.348 5.88172C30.8218 5.77648 29.9799 5.9168 29.4888 6.12728C28.5767 6.51315 28.1908 7.53046 28.5767 8.47761C28.8222 9.07397 29.3484 9.3546 29.9799 9.14412C30.5061 9.00381 30.8569 8.61793 31.1024 8.12682C31.4532 7.42522 31.348 6.65347 31.348 5.88172Z" fill="black"/>
<path d="M6.0904 9.81077C5.98516 9.91601 5.87992 10.0212 5.7396 10.0914C4.72229 11.0736 3.45942 11.3893 2.1264 11.0736C1.14417 10.8632 0.477655 10.3019 0.197018 9.31965C-0.329176 7.67091 0.126859 5.53105 2.44211 4.86454C3.42434 4.5839 4.37149 4.51374 5.42388 4.37343C5.66944 4.33835 5.80976 4.26819 5.77468 3.98755C5.77468 3.84723 5.77468 3.63675 5.77468 3.49643C5.7396 2.72468 5.3888 2.23357 4.65213 2.12833C3.88038 1.98801 3.14371 2.40896 2.89815 3.0404C2.68767 3.63675 2.68767 3.63675 2.05624 3.56659C1.63528 3.53151 1.17925 3.46135 0.758292 3.42627C0.372417 3.39119 0.267178 3.2158 0.372417 2.82992C0.723213 1.3215 1.7756 0.479587 3.24895 0.16387C4.37149 -0.0816872 5.49404 -0.0816877 6.61659 0.374347C7.77422 0.795303 8.47581 1.63721 8.47581 2.90008C8.51089 4.26818 8.51089 5.67137 8.51089 7.03948C8.51089 7.81123 8.65121 8.51282 9.14232 9.0741C9.42296 9.45997 9.42296 9.56521 9.03709 9.84585C8.65121 10.1966 8.26533 10.5124 7.87946 10.8632C7.59882 11.1087 7.35326 11.1087 7.10771 10.8632C6.72183 10.5474 6.44119 10.2317 6.0904 9.81077ZM5.70452 5.74153C5.07309 5.88185 4.47673 5.95201 3.91546 6.12741C3.35419 6.3028 2.93323 6.75884 2.82799 7.35519C2.61751 8.1971 2.96831 8.96886 3.59974 9.14425C4.26626 9.38981 4.96785 9.00394 5.3888 8.26726C5.80976 7.53059 5.70452 6.72376 5.70452 5.74153Z" fill="black"/>
<path d="M57.6922 2.09315C57.7975 1.88267 57.9027 1.74235 57.9729 1.56695C58.6043 0.444406 59.5865 -0.0467091 60.8845 0.198848C62.007 0.409326 62.7788 1.18108 62.9893 2.37378C63.0945 2.89998 63.1296 3.49633 63.1296 4.02253C63.1296 6.16239 63.1296 8.30224 63.1296 10.4421C63.1296 10.9683 63.0945 11.0385 62.5332 11.0385C62.007 11.0385 61.5159 11.0385 60.9897 11.0385C60.4986 11.0385 60.4635 10.9332 60.4635 10.4421C60.4635 8.51272 60.4635 6.54826 60.4635 4.61888C60.4635 4.23301 60.4284 3.84713 60.3232 3.46126C60.218 3.0403 59.9373 2.6895 59.4462 2.58426C58.9551 2.47903 58.5341 2.6895 58.2886 3.07538C58.043 3.46125 57.8676 3.95237 57.8676 4.37332C57.7624 5.39063 57.8326 6.40794 57.8326 7.42525C57.8326 8.44256 57.8326 9.45987 57.8326 10.4772C57.8326 10.8981 57.7273 11.0034 57.3064 11.0034C56.71 11.0034 56.1838 11.0034 55.5875 11.0034C55.3068 11.0034 55.1665 10.8631 55.1665 10.5824C55.1665 7.32001 55.1665 4.02253 55.1665 0.760122C55.1665 0.479485 55.3068 0.339167 55.5875 0.339167C56.1137 0.339167 56.71 0.339167 57.2362 0.339167C57.5168 0.339167 57.6572 0.479485 57.6572 0.760122C57.6572 1.18108 57.6572 1.60203 57.6572 2.02299C57.6221 2.09315 57.6922 2.09315 57.6922 2.09315Z" fill="black"/>
<path d="M53.6583 5.84672C53.6232 7.2499 53.3075 8.72325 52.2551 9.95103C50.3959 11.9857 47.0984 11.705 45.7303 9.3196C44.4674 7.03942 44.4674 4.65401 45.625 2.30367C46.3617 0.830331 47.6246 0.163818 49.2733 0.163818C50.922 0.163818 52.1498 0.935571 52.9216 2.40891C53.4478 3.39114 53.5881 4.58385 53.6583 5.84672ZM50.8168 5.74148H50.7817C50.7817 5.3556 50.7817 4.89957 50.7467 4.51369C50.7116 4.02258 50.6063 3.49638 50.466 3.00527C50.3257 2.51415 49.9398 2.23352 49.3785 2.16336C48.8524 2.12828 48.3963 2.37383 48.1508 2.82987C48.0104 3.07543 47.9052 3.35606 47.8701 3.60162C47.6246 4.96973 47.6246 6.37291 47.9052 7.74102C47.9403 8.02165 48.1157 8.37245 48.256 8.61801C48.677 9.35468 49.6592 9.38976 50.1854 8.72325C50.3959 8.47769 50.5713 8.12689 50.6063 7.81117C50.7116 7.14466 50.7817 6.47815 50.8168 5.74148Z" fill="black"/>
<path d="M40.2228 2.47912C40.0123 2.47912 39.9421 2.47912 39.8018 2.47912C38.8898 2.47912 37.9075 2.47912 36.9955 2.47912C36.6447 2.47912 36.5043 2.3388 36.5043 2.05817C36.5043 1.67229 36.5043 1.21626 36.5043 0.83038C36.5043 0.479583 36.6447 0.409424 36.9955 0.409424C39.1002 0.409424 41.1349 0.409424 43.2396 0.409424C43.5904 0.409424 43.6606 0.549743 43.7307 0.900539C43.7658 1.77753 43.6255 2.44404 43.0642 3.18072C41.9768 4.5839 40.9595 6.09233 39.9071 7.67091C40.1175 7.67091 40.1877 7.67091 40.328 7.67091C41.4155 7.67091 42.4679 7.88138 43.4501 8.33742C43.8009 8.47774 43.9412 8.7233 43.9412 9.10917C43.9412 9.53013 43.9412 9.98616 43.9412 10.4071C43.9412 10.793 43.7307 10.9333 43.415 10.7579C41.2401 9.74061 38.995 9.74061 36.785 10.7579C36.5043 10.8982 36.2588 10.793 36.2588 10.4773C36.2588 9.84585 36.2588 9.21441 36.2939 8.58298C36.2939 8.33742 36.5043 8.09186 36.6447 7.84631C37.8023 6.19756 38.9248 4.54882 40.0825 2.90008C40.0123 2.72468 40.1175 2.61944 40.2228 2.47912Z" fill="black"/>
<path d="M9.17745 13.7038C9.17745 13.7038 8.68634 12.9321 9.42301 13.1776C9.42301 13.1776 16.6143 17.6678 26.156 17.5977C26.156 17.5977 32.5054 17.5626 38.504 15.107C38.504 15.107 38.9951 14.8615 39.381 15.107C39.381 15.107 39.6967 15.528 38.9601 16.0191C38.9601 16.0191 33.3473 20.2988 24.4371 19.9831C24.3669 20.0182 16.2986 20.0532 9.17745 13.7038Z" fill="#F79910"/>
<path d="M36.7149 13.9153C36.7149 13.9153 36.0483 14.0907 36.2237 13.6697C36.2237 13.6697 37.9076 12.1613 40.7139 12.477C40.7139 12.477 42.047 12.5472 42.2574 12.898C42.2574 12.898 42.7486 13.354 42.2574 15.1782C42.2574 15.1782 41.5558 17.4583 40.1877 18.5107C40.1877 18.5107 39.6615 18.8265 39.7668 18.2301C39.7668 18.2301 40.6438 15.9499 40.7841 15.2483C40.7841 15.2483 40.9946 14.231 40.6087 13.9504C40.2228 13.6347 40.5736 13.9504 40.5736 13.9504C40.5736 13.9504 40.0474 13.5294 36.7149 13.9153Z" fill="#F79910"/>
</svg>
