<svg width="210" height="40" viewBox="0 0 210 40" fill="none" xmlns="http://www.w3.org/2000/svg">
<rect width="210" height="40" rx="3" fill="#475993"/>
<path d="M48.166 24V20.0977H47.041V19.2129H48.166V15.4688H50.5742C51.3164 15.4688 51.9727 15.6328 52.543 15.9609C53.1133 16.2891 53.5527 16.7559 53.8613 17.3613C54.1738 17.9668 54.332 18.6621 54.3359 19.4473V19.9922C54.3359 20.7969 54.1797 21.502 53.8672 22.1074C53.5586 22.7129 53.1152 23.1777 52.5371 23.502C51.9629 23.8262 51.293 23.9922 50.5273 24H48.166ZM50.7676 20.0977H49.291V23.0801H50.4688C51.3359 23.0801 52.0098 22.8125 52.4902 22.2773C52.9746 21.7422 53.2188 20.9883 53.2227 20.0156V19.4707C53.2227 18.502 52.9941 17.75 52.5371 17.2148C52.084 16.6758 51.4395 16.4023 50.6035 16.3945H49.291V19.2129H50.7676V20.0977ZM59.7852 24C59.7227 23.875 59.6719 23.6523 59.6328 23.332C59.1289 23.8555 58.5273 24.1172 57.8281 24.1172C57.2031 24.1172 56.6895 23.9414 56.2871 23.5898C55.8887 23.2344 55.6895 22.7852 55.6895 22.2422C55.6895 21.582 55.9395 21.0703 56.4395 20.707C56.9434 20.3398 57.6504 20.1562 58.5605 20.1562H59.6152V19.6582C59.6152 19.2793 59.502 18.9785 59.2754 18.7559C59.0488 18.5293 58.7148 18.416 58.2734 18.416C57.8867 18.416 57.5625 18.5137 57.3008 18.709C57.0391 18.9043 56.9082 19.1406 56.9082 19.418H55.8184C55.8184 19.1016 55.9297 18.7969 56.1523 18.5039C56.3789 18.207 56.6836 17.9727 57.0664 17.8008C57.4531 17.6289 57.877 17.543 58.3379 17.543C59.0684 17.543 59.6406 17.7266 60.0547 18.0938C60.4688 18.457 60.6836 18.959 60.6992 19.5996V22.5176C60.6992 23.0996 60.7734 23.5625 60.9219 23.9062V24H59.7852ZM57.9863 23.1738C58.3262 23.1738 58.6484 23.0859 58.9531 22.9102C59.2578 22.7344 59.4785 22.5059 59.6152 22.2246V20.9238H58.7656C57.4375 20.9238 56.7734 21.3125 56.7734 22.0898C56.7734 22.4297 56.8867 22.6953 57.1133 22.8867C57.3398 23.0781 57.6309 23.1738 57.9863 23.1738ZM60.2129 15.2344C60.2129 15.707 60.0508 16.0879 59.7266 16.377C59.4062 16.6621 58.9844 16.8047 58.4609 16.8047C57.9375 16.8047 57.5137 16.6602 57.1895 16.3711C56.8652 16.082 56.7031 15.7031 56.7031 15.2344H57.5879C57.5879 15.5078 57.6621 15.7227 57.8105 15.8789C57.959 16.0312 58.1758 16.1074 58.4609 16.1074C58.7344 16.1074 58.9473 16.0312 59.0996 15.8789C59.2559 15.7266 59.334 15.5117 59.334 15.2344H60.2129ZM63.4238 17.6602L63.459 18.457C63.9434 17.8477 64.5762 17.543 65.3574 17.543C66.6973 17.543 67.373 18.2988 67.3848 19.8105V24H66.3008V19.8047C66.2969 19.3477 66.1914 19.0098 65.9844 18.791C65.7812 18.5723 65.4629 18.4629 65.0293 18.4629C64.6777 18.4629 64.3691 18.5566 64.1035 18.7441C63.8379 18.9316 63.6309 19.1777 63.4824 19.4824V24H62.3984V17.6602H63.4238ZM68.7617 20.7773C68.7617 19.7891 68.9902 19.0039 69.4473 18.4219C69.9043 17.8359 70.5098 17.543 71.2637 17.543C72.0371 17.543 72.6406 17.8164 73.0742 18.3633L73.127 17.6602H74.1172V23.8477C74.1172 24.668 73.873 25.3145 73.3848 25.7871C72.9004 26.2598 72.248 26.4961 71.4277 26.4961C70.9707 26.4961 70.5234 26.3984 70.0859 26.2031C69.6484 26.0078 69.3145 25.7402 69.084 25.4004L69.6465 24.75C70.1113 25.3242 70.6797 25.6113 71.3516 25.6113C71.8789 25.6113 72.2891 25.4629 72.582 25.166C72.8789 24.8691 73.0273 24.4512 73.0273 23.9121V23.3672C72.5938 23.8672 72.002 24.1172 71.252 24.1172C70.5098 24.1172 69.9082 23.8184 69.4473 23.2207C68.9902 22.623 68.7617 21.8086 68.7617 20.7773ZM69.8516 20.9004C69.8516 21.6152 69.998 22.1777 70.291 22.5879C70.584 22.9941 70.9941 23.1973 71.5215 23.1973C72.2051 23.1973 72.707 22.8867 73.0273 22.2656V19.3711C72.6953 18.7656 72.1973 18.4629 71.5332 18.4629C71.0059 18.4629 70.5938 18.668 70.2969 19.0781C70 19.4883 69.8516 20.0957 69.8516 20.9004ZM79.7598 17.6602L79.7949 18.457C80.2793 17.8477 80.9121 17.543 81.6934 17.543C83.0332 17.543 83.709 18.2988 83.7207 19.8105V24H82.6367V19.8047C82.6328 19.3477 82.5273 19.0098 82.3203 18.791C82.1172 18.5723 81.7988 18.4629 81.3652 18.4629C81.0137 18.4629 80.7051 18.5566 80.4395 18.7441C80.1738 18.9316 79.9668 19.1777 79.8184 19.4824V24H78.7344V17.6602H79.7598ZM86.4395 18.4277C86.9199 17.8379 87.5449 17.543 88.3145 17.543C89.6543 17.543 90.3301 18.2988 90.3418 19.8105V24H89.2578V19.8047C89.2539 19.3477 89.1484 19.0098 88.9414 18.791C88.7383 18.5723 88.4199 18.4629 87.9863 18.4629C87.6348 18.4629 87.3262 18.5566 87.0605 18.7441C86.7949 18.9316 86.5879 19.1777 86.4395 19.4824V24H85.3555V15H86.4395V18.4277ZM95.8789 24C95.8164 23.875 95.7656 23.6523 95.7266 23.332C95.2227 23.8555 94.6211 24.1172 93.9219 24.1172C93.2969 24.1172 92.7832 23.9414 92.3809 23.5898C91.9824 23.2344 91.7832 22.7852 91.7832 22.2422C91.7832 21.582 92.0332 21.0703 92.5332 20.707C93.0371 20.3398 93.7441 20.1562 94.6543 20.1562H95.709V19.6582C95.709 19.2793 95.5957 18.9785 95.3691 18.7559C95.1426 18.5293 94.8086 18.416 94.3672 18.416C93.9805 18.416 93.6562 18.5137 93.3945 18.709C93.1328 18.9043 93.002 19.1406 93.002 19.418H91.9121C91.9121 19.1016 92.0234 18.7969 92.2461 18.5039C92.4727 18.207 92.7773 17.9727 93.1602 17.8008C93.5469 17.6289 93.9707 17.543 94.4316 17.543C95.1621 17.543 95.7344 17.7266 96.1484 18.0938C96.5625 18.457 96.7773 18.959 96.793 19.5996V22.5176C96.793 23.0996 96.8672 23.5625 97.0156 23.9062V24H95.8789ZM94.0801 23.1738C94.4199 23.1738 94.7422 23.0859 95.0469 22.9102C95.3516 22.7344 95.5723 22.5059 95.709 22.2246V20.9238H94.8594C93.5312 20.9238 92.8672 21.3125 92.8672 22.0898C92.8672 22.4297 92.9805 22.6953 93.207 22.8867C93.4336 23.0781 93.7246 23.1738 94.0801 23.1738ZM96.3242 16.6055V16.6641H95.4277L94.5488 15.668L93.6758 16.6641H92.7793V16.5938L94.2207 15H94.877L96.3242 16.6055ZM93.4062 25.4355C93.4062 25.2598 93.459 25.1113 93.5645 24.9902C93.6738 24.8691 93.834 24.8086 94.0449 24.8086C94.2559 24.8086 94.416 24.8691 94.5254 24.9902C94.6348 25.1113 94.6895 25.2598 94.6895 25.4355C94.6895 25.6113 94.6348 25.7578 94.5254 25.875C94.416 25.9922 94.2559 26.0508 94.0449 26.0508C93.834 26.0508 93.6738 25.9922 93.5645 25.875C93.459 25.7578 93.4062 25.6113 93.4062 25.4355ZM103.848 20.9004C103.848 21.8652 103.627 22.6426 103.186 23.2324C102.744 23.8223 102.146 24.1172 101.393 24.1172C100.623 24.1172 100.018 23.873 99.5762 23.3848V26.4375H98.4922V17.6602H99.4824L99.5352 18.3633C99.9766 17.8164 100.59 17.543 101.375 17.543C102.137 17.543 102.738 17.8301 103.18 18.4043C103.625 18.9785 103.848 19.7773 103.848 20.8008V20.9004ZM102.764 20.7773C102.764 20.0625 102.611 19.498 102.307 19.084C102.002 18.6699 101.584 18.4629 101.053 18.4629C100.396 18.4629 99.9043 18.7539 99.5762 19.3359V22.3652C99.9004 22.9434 100.396 23.2324 101.064 23.2324C101.584 23.2324 101.996 23.0273 102.301 22.6172C102.609 22.2031 102.764 21.5898 102.764 20.7773ZM113.574 20.9004C113.574 21.8691 113.352 22.6484 112.906 23.2383C112.461 23.8242 111.863 24.1172 111.113 24.1172C110.312 24.1172 109.693 23.834 109.256 23.2676L109.203 24H108.207V15H109.291V18.3574C109.729 17.8145 110.332 17.543 111.102 17.543C111.871 17.543 112.475 17.834 112.912 18.416C113.354 18.998 113.574 19.7949 113.574 20.8066V20.9004ZM112.49 20.7773C112.49 20.0391 112.348 19.4688 112.062 19.0664C111.777 18.6641 111.367 18.4629 110.832 18.4629C110.117 18.4629 109.604 18.7949 109.291 19.459V22.2012C109.623 22.8652 110.141 23.1973 110.844 23.1973C111.363 23.1973 111.768 22.9961 112.057 22.5938C112.346 22.1914 112.49 21.5859 112.49 20.7773ZM118.859 24C118.797 23.875 118.746 23.6523 118.707 23.332C118.203 23.8555 117.602 24.1172 116.902 24.1172C116.277 24.1172 115.764 23.9414 115.361 23.5898C114.963 23.2344 114.764 22.7852 114.764 22.2422C114.764 21.582 115.014 21.0703 115.514 20.707C116.018 20.3398 116.725 20.1562 117.635 20.1562H118.689V19.6582C118.689 19.2793 118.576 18.9785 118.35 18.7559C118.123 18.5293 117.789 18.416 117.348 18.416C116.961 18.416 116.637 18.5137 116.375 18.709C116.113 18.9043 115.982 19.1406 115.982 19.418H114.893C114.893 19.1016 115.004 18.7969 115.227 18.5039C115.453 18.207 115.758 17.9727 116.141 17.8008C116.527 17.6289 116.951 17.543 117.412 17.543C118.143 17.543 118.715 17.7266 119.129 18.0938C119.543 18.457 119.758 18.959 119.773 19.5996V22.5176C119.773 23.0996 119.848 23.5625 119.996 23.9062V24H118.859ZM117.061 23.1738C117.4 23.1738 117.723 23.0859 118.027 22.9102C118.332 22.7344 118.553 22.5059 118.689 22.2246V20.9238H117.84C116.512 20.9238 115.848 21.3125 115.848 22.0898C115.848 22.4297 115.961 22.6953 116.188 22.8867C116.414 23.0781 116.705 23.1738 117.061 23.1738ZM119.275 15.5156C119.275 15.8867 119.111 16.1836 118.783 16.4062C118.455 16.6289 118.027 16.7402 117.5 16.7402C116.969 16.7402 116.539 16.6289 116.211 16.4062C115.883 16.1836 115.719 15.8867 115.719 15.5156H116.609C116.609 15.7305 116.686 15.8984 116.838 16.0195C116.994 16.1367 117.215 16.1953 117.5 16.1953C117.777 16.1953 117.992 16.1348 118.145 16.0137C118.301 15.8887 118.379 15.7227 118.379 15.5156H119.275ZM116.352 14.2383H117.254L117.91 15.3984H117.318L116.352 14.2383ZM122.498 17.6602L122.533 18.457C123.018 17.8477 123.65 17.543 124.432 17.543C125.771 17.543 126.447 18.2988 126.459 19.8105V24H125.375V19.8047C125.371 19.3477 125.266 19.0098 125.059 18.791C124.855 18.5723 124.537 18.4629 124.104 18.4629C123.752 18.4629 123.443 18.5566 123.178 18.7441C122.912 18.9316 122.705 19.1777 122.557 19.4824V24H121.473V17.6602H122.498ZM127.836 20.7773C127.836 19.7891 128.064 19.0039 128.521 18.4219C128.979 17.8359 129.584 17.543 130.338 17.543C131.111 17.543 131.715 17.8164 132.148 18.3633L132.201 17.6602H133.191V23.8477C133.191 24.668 132.947 25.3145 132.459 25.7871C131.975 26.2598 131.322 26.4961 130.502 26.4961C130.045 26.4961 129.598 26.3984 129.16 26.2031C128.723 26.0078 128.389 25.7402 128.158 25.4004L128.721 24.75C129.186 25.3242 129.754 25.6113 130.426 25.6113C130.953 25.6113 131.363 25.4629 131.656 25.166C131.953 24.8691 132.102 24.4512 132.102 23.9121V23.3672C131.668 23.8672 131.076 24.1172 130.326 24.1172C129.584 24.1172 128.982 23.8184 128.521 23.2207C128.064 22.623 127.836 21.8086 127.836 20.7773ZM128.926 20.9004C128.926 21.6152 129.072 22.1777 129.365 22.5879C129.658 22.9941 130.068 23.1973 130.596 23.1973C131.279 23.1973 131.781 22.8867 132.102 22.2656V19.3711C131.77 18.7656 131.271 18.4629 130.607 18.4629C130.08 18.4629 129.668 18.668 129.371 19.0781C129.074 19.4883 128.926 20.0957 128.926 20.9004ZM142.684 20.2324H139.104V24H137.979V15.4688H143.264V16.3945H139.104V19.3125H142.684V20.2324ZM148.156 24C148.094 23.875 148.043 23.6523 148.004 23.332C147.5 23.8555 146.898 24.1172 146.199 24.1172C145.574 24.1172 145.061 23.9414 144.658 23.5898C144.26 23.2344 144.061 22.7852 144.061 22.2422C144.061 21.582 144.311 21.0703 144.811 20.707C145.314 20.3398 146.021 20.1562 146.932 20.1562H147.986V19.6582C147.986 19.2793 147.873 18.9785 147.646 18.7559C147.42 18.5293 147.086 18.416 146.645 18.416C146.258 18.416 145.934 18.5137 145.672 18.709C145.41 18.9043 145.279 19.1406 145.279 19.418H144.189C144.189 19.1016 144.301 18.7969 144.523 18.5039C144.75 18.207 145.055 17.9727 145.438 17.8008C145.824 17.6289 146.248 17.543 146.709 17.543C147.439 17.543 148.012 17.7266 148.426 18.0938C148.84 18.457 149.055 18.959 149.07 19.5996V22.5176C149.07 23.0996 149.145 23.5625 149.293 23.9062V24H148.156ZM146.357 23.1738C146.697 23.1738 147.02 23.0859 147.324 22.9102C147.629 22.7344 147.85 22.5059 147.986 22.2246V20.9238H147.137C145.809 20.9238 145.145 21.3125 145.145 22.0898C145.145 22.4297 145.258 22.6953 145.484 22.8867C145.711 23.0781 146.002 23.1738 146.357 23.1738ZM153.312 23.2324C153.699 23.2324 154.037 23.1152 154.326 22.8809C154.615 22.6465 154.775 22.3535 154.807 22.002H155.832C155.812 22.3652 155.688 22.7109 155.457 23.0391C155.227 23.3672 154.918 23.6289 154.531 23.8242C154.148 24.0195 153.742 24.1172 153.312 24.1172C152.449 24.1172 151.762 23.8301 151.25 23.2559C150.742 22.6777 150.488 21.8887 150.488 20.8887V20.707C150.488 20.0898 150.602 19.541 150.828 19.0605C151.055 18.5801 151.379 18.207 151.801 17.9414C152.227 17.6758 152.729 17.543 153.307 17.543C154.018 17.543 154.607 17.7559 155.076 18.1816C155.549 18.6074 155.801 19.1602 155.832 19.8398H154.807C154.775 19.4297 154.619 19.0938 154.338 18.832C154.061 18.5664 153.717 18.4336 153.307 18.4336C152.756 18.4336 152.328 18.6328 152.023 19.0312C151.723 19.4258 151.572 19.998 151.572 20.748V20.9531C151.572 21.6836 151.723 22.2461 152.023 22.6406C152.324 23.0352 152.754 23.2324 153.312 23.2324ZM159.682 24.1172C158.822 24.1172 158.123 23.8359 157.584 23.2734C157.045 22.707 156.775 21.9512 156.775 21.0059V20.8066C156.775 20.1777 156.895 19.6172 157.133 19.125C157.375 18.6289 157.711 18.2422 158.141 17.9648C158.574 17.6836 159.043 17.543 159.547 17.543C160.371 17.543 161.012 17.8145 161.469 18.3574C161.926 18.9004 162.154 19.6777 162.154 20.6895V21.1406H157.859C157.875 21.7656 158.057 22.2715 158.404 22.6582C158.756 23.041 159.201 23.2324 159.74 23.2324C160.123 23.2324 160.447 23.1543 160.713 22.998C160.979 22.8418 161.211 22.6348 161.41 22.377L162.072 22.8926C161.541 23.709 160.744 24.1172 159.682 24.1172ZM159.547 18.4336C159.109 18.4336 158.742 18.5938 158.445 18.9141C158.148 19.2305 157.965 19.6758 157.895 20.25H161.07V20.168C161.039 19.6172 160.891 19.1914 160.625 18.8906C160.359 18.5859 160 18.4336 159.547 18.4336ZM168.781 20.9004C168.781 21.8691 168.559 22.6484 168.113 23.2383C167.668 23.8242 167.07 24.1172 166.32 24.1172C165.52 24.1172 164.9 23.834 164.463 23.2676L164.41 24H163.414V15H164.498V18.3574C164.936 17.8145 165.539 17.543 166.309 17.543C167.078 17.543 167.682 17.834 168.119 18.416C168.561 18.998 168.781 19.7949 168.781 20.8066V20.9004ZM167.697 20.7773C167.697 20.0391 167.555 19.4688 167.27 19.0664C166.984 18.6641 166.574 18.4629 166.039 18.4629C165.324 18.4629 164.811 18.7949 164.498 19.459V22.2012C164.83 22.8652 165.348 23.1973 166.051 23.1973C166.57 23.1973 166.975 22.9961 167.264 22.5938C167.553 22.1914 167.697 21.5859 167.697 20.7773ZM169.865 20.7715C169.865 20.1504 169.986 19.5918 170.229 19.0957C170.475 18.5996 170.814 18.2168 171.248 17.9473C171.686 17.6777 172.184 17.543 172.742 17.543C173.605 17.543 174.303 17.8418 174.834 18.4395C175.369 19.0371 175.637 19.832 175.637 20.8242V20.9004C175.637 21.5176 175.518 22.0723 175.279 22.5645C175.045 23.0527 174.707 23.4336 174.266 23.707C173.828 23.9805 173.324 24.1172 172.754 24.1172C171.895 24.1172 171.197 23.8184 170.662 23.2207C170.131 22.623 169.865 21.832 169.865 20.8477V20.7715ZM170.955 20.9004C170.955 21.6035 171.117 22.168 171.441 22.5938C171.77 23.0195 172.207 23.2324 172.754 23.2324C173.305 23.2324 173.742 23.0176 174.066 22.5879C174.391 22.1543 174.553 21.5488 174.553 20.7715C174.553 20.0762 174.387 19.5137 174.055 19.084C173.727 18.6504 173.289 18.4336 172.742 18.4336C172.207 18.4336 171.775 18.6465 171.447 19.0723C171.119 19.498 170.955 20.1074 170.955 20.9004ZM176.709 20.7715C176.709 20.1504 176.83 19.5918 177.072 19.0957C177.318 18.5996 177.658 18.2168 178.092 17.9473C178.529 17.6777 179.027 17.543 179.586 17.543C180.449 17.543 181.146 17.8418 181.678 18.4395C182.213 19.0371 182.48 19.832 182.48 20.8242V20.9004C182.48 21.5176 182.361 22.0723 182.123 22.5645C181.889 23.0527 181.551 23.4336 181.109 23.707C180.672 23.9805 180.168 24.1172 179.598 24.1172C178.738 24.1172 178.041 23.8184 177.506 23.2207C176.975 22.623 176.709 21.832 176.709 20.8477V20.7715ZM177.799 20.9004C177.799 21.6035 177.961 22.168 178.285 22.5938C178.613 23.0195 179.051 23.2324 179.598 23.2324C180.148 23.2324 180.586 23.0176 180.91 22.5879C181.234 22.1543 181.396 21.5488 181.396 20.7715C181.396 20.0762 181.23 19.5137 180.898 19.084C180.57 18.6504 180.133 18.4336 179.586 18.4336C179.051 18.4336 178.619 18.6465 178.291 19.0723C177.963 19.498 177.799 20.1074 177.799 20.9004ZM185.609 21.0645L184.93 21.7734V24H183.846V15H184.93V20.4434L185.51 19.7461L187.484 17.6602H188.803L186.336 20.3086L189.09 24H187.818L185.609 21.0645Z" fill="white"/>
<path d="M32.2269 6H11.7732C9.68948 6 8.00018 7.68923 8.00018 9.77306V30.2268C8.00018 32.3106 9.68941 33.9999 11.7732 33.9999H21.8609L21.8781 23.9942H19.2786C18.9408 23.9942 18.6666 23.7211 18.6653 23.3832L18.6528 20.158C18.6515 19.8184 18.9265 19.5423 19.2662 19.5423H21.8609V16.4259C21.8609 12.8094 24.0697 10.8401 27.2959 10.8401H29.9432C30.2819 10.8401 30.5566 11.1147 30.5566 11.4535V14.173C30.5566 14.5117 30.2821 14.7862 29.9436 14.7864L28.3189 14.7872C26.5644 14.7872 26.2247 15.6209 26.2247 16.8444V19.5424H30.0799C30.4473 19.5424 30.7323 19.8631 30.689 20.228L30.3067 23.4532C30.2702 23.7618 30.0084 23.9944 29.6977 23.9944H26.2419L26.2247 34H32.227C34.3108 34 36 32.3108 36 30.227V9.77306C35.9999 7.68923 34.3107 6 32.2269 6Z" fill="white"/>
</svg>
