<svg width="210" height="40" viewBox="0 0 210 40" fill="none" xmlns="http://www.w3.org/2000/svg">
<rect width="210" height="40" rx="3" fill="#DC4E41"/>
<path d="M49.166 24V20.0977H48.041V19.2129H49.166V15.4688H51.5742C52.3164 15.4688 52.9727 15.6328 53.543 15.9609C54.1133 16.2891 54.5527 16.7559 54.8613 17.3613C55.1738 17.9668 55.332 18.6621 55.3359 19.4473V19.9922C55.3359 20.7969 55.1797 21.502 54.8672 22.1074C54.5586 22.7129 54.1152 23.1777 53.5371 23.502C52.9629 23.8262 52.293 23.9922 51.5273 24H49.166ZM51.7676 20.0977H50.291V23.0801H51.4688C52.3359 23.0801 53.0098 22.8125 53.4902 22.2773C53.9746 21.7422 54.2188 20.9883 54.2227 20.0156V19.4707C54.2227 18.502 53.9941 17.75 53.5371 17.2148C53.084 16.6758 52.4395 16.4023 51.6035 16.3945H50.291V19.2129H51.7676V20.0977ZM60.7852 24C60.7227 23.875 60.6719 23.6523 60.6328 23.332C60.1289 23.8555 59.5273 24.1172 58.8281 24.1172C58.2031 24.1172 57.6895 23.9414 57.2871 23.5898C56.8887 23.2344 56.6895 22.7852 56.6895 22.2422C56.6895 21.582 56.9395 21.0703 57.4395 20.707C57.9434 20.3398 58.6504 20.1562 59.5605 20.1562H60.6152V19.6582C60.6152 19.2793 60.502 18.9785 60.2754 18.7559C60.0488 18.5293 59.7148 18.416 59.2734 18.416C58.8867 18.416 58.5625 18.5137 58.3008 18.709C58.0391 18.9043 57.9082 19.1406 57.9082 19.418H56.8184C56.8184 19.1016 56.9297 18.7969 57.1523 18.5039C57.3789 18.207 57.6836 17.9727 58.0664 17.8008C58.4531 17.6289 58.877 17.543 59.3379 17.543C60.0684 17.543 60.6406 17.7266 61.0547 18.0938C61.4688 18.457 61.6836 18.959 61.6992 19.5996V22.5176C61.6992 23.0996 61.7734 23.5625 61.9219 23.9062V24H60.7852ZM58.9863 23.1738C59.3262 23.1738 59.6484 23.0859 59.9531 22.9102C60.2578 22.7344 60.4785 22.5059 60.6152 22.2246V20.9238H59.7656C58.4375 20.9238 57.7734 21.3125 57.7734 22.0898C57.7734 22.4297 57.8867 22.6953 58.1133 22.8867C58.3398 23.0781 58.6309 23.1738 58.9863 23.1738ZM61.2129 15.2344C61.2129 15.707 61.0508 16.0879 60.7266 16.377C60.4062 16.6621 59.9844 16.8047 59.4609 16.8047C58.9375 16.8047 58.5137 16.6602 58.1895 16.3711C57.8652 16.082 57.7031 15.7031 57.7031 15.2344H58.5879C58.5879 15.5078 58.6621 15.7227 58.8105 15.8789C58.959 16.0312 59.1758 16.1074 59.4609 16.1074C59.7344 16.1074 59.9473 16.0312 60.0996 15.8789C60.2559 15.7266 60.334 15.5117 60.334 15.2344H61.2129ZM64.4238 17.6602L64.459 18.457C64.9434 17.8477 65.5762 17.543 66.3574 17.543C67.6973 17.543 68.373 18.2988 68.3848 19.8105V24H67.3008V19.8047C67.2969 19.3477 67.1914 19.0098 66.9844 18.791C66.7812 18.5723 66.4629 18.4629 66.0293 18.4629C65.6777 18.4629 65.3691 18.5566 65.1035 18.7441C64.8379 18.9316 64.6309 19.1777 64.4824 19.4824V24H63.3984V17.6602H64.4238ZM69.7617 20.7773C69.7617 19.7891 69.9902 19.0039 70.4473 18.4219C70.9043 17.8359 71.5098 17.543 72.2637 17.543C73.0371 17.543 73.6406 17.8164 74.0742 18.3633L74.127 17.6602H75.1172V23.8477C75.1172 24.668 74.873 25.3145 74.3848 25.7871C73.9004 26.2598 73.248 26.4961 72.4277 26.4961C71.9707 26.4961 71.5234 26.3984 71.0859 26.2031C70.6484 26.0078 70.3145 25.7402 70.084 25.4004L70.6465 24.75C71.1113 25.3242 71.6797 25.6113 72.3516 25.6113C72.8789 25.6113 73.2891 25.4629 73.582 25.166C73.8789 24.8691 74.0273 24.4512 74.0273 23.9121V23.3672C73.5938 23.8672 73.002 24.1172 72.252 24.1172C71.5098 24.1172 70.9082 23.8184 70.4473 23.2207C69.9902 22.623 69.7617 21.8086 69.7617 20.7773ZM70.8516 20.9004C70.8516 21.6152 70.998 22.1777 71.291 22.5879C71.584 22.9941 71.9941 23.1973 72.5215 23.1973C73.2051 23.1973 73.707 22.8867 74.0273 22.2656V19.3711C73.6953 18.7656 73.1973 18.4629 72.5332 18.4629C72.0059 18.4629 71.5938 18.668 71.2969 19.0781C71 19.4883 70.8516 20.0957 70.8516 20.9004ZM80.7598 17.6602L80.7949 18.457C81.2793 17.8477 81.9121 17.543 82.6934 17.543C84.0332 17.543 84.709 18.2988 84.7207 19.8105V24H83.6367V19.8047C83.6328 19.3477 83.5273 19.0098 83.3203 18.791C83.1172 18.5723 82.7988 18.4629 82.3652 18.4629C82.0137 18.4629 81.7051 18.5566 81.4395 18.7441C81.1738 18.9316 80.9668 19.1777 80.8184 19.4824V24H79.7344V17.6602H80.7598ZM87.4395 18.4277C87.9199 17.8379 88.5449 17.543 89.3145 17.543C90.6543 17.543 91.3301 18.2988 91.3418 19.8105V24H90.2578V19.8047C90.2539 19.3477 90.1484 19.0098 89.9414 18.791C89.7383 18.5723 89.4199 18.4629 88.9863 18.4629C88.6348 18.4629 88.3262 18.5566 88.0605 18.7441C87.7949 18.9316 87.5879 19.1777 87.4395 19.4824V24H86.3555V15H87.4395V18.4277ZM96.8789 24C96.8164 23.875 96.7656 23.6523 96.7266 23.332C96.2227 23.8555 95.6211 24.1172 94.9219 24.1172C94.2969 24.1172 93.7832 23.9414 93.3809 23.5898C92.9824 23.2344 92.7832 22.7852 92.7832 22.2422C92.7832 21.582 93.0332 21.0703 93.5332 20.707C94.0371 20.3398 94.7441 20.1562 95.6543 20.1562H96.709V19.6582C96.709 19.2793 96.5957 18.9785 96.3691 18.7559C96.1426 18.5293 95.8086 18.416 95.3672 18.416C94.9805 18.416 94.6562 18.5137 94.3945 18.709C94.1328 18.9043 94.002 19.1406 94.002 19.418H92.9121C92.9121 19.1016 93.0234 18.7969 93.2461 18.5039C93.4727 18.207 93.7773 17.9727 94.1602 17.8008C94.5469 17.6289 94.9707 17.543 95.4316 17.543C96.1621 17.543 96.7344 17.7266 97.1484 18.0938C97.5625 18.457 97.7773 18.959 97.793 19.5996V22.5176C97.793 23.0996 97.8672 23.5625 98.0156 23.9062V24H96.8789ZM95.0801 23.1738C95.4199 23.1738 95.7422 23.0859 96.0469 22.9102C96.3516 22.7344 96.5723 22.5059 96.709 22.2246V20.9238H95.8594C94.5312 20.9238 93.8672 21.3125 93.8672 22.0898C93.8672 22.4297 93.9805 22.6953 94.207 22.8867C94.4336 23.0781 94.7246 23.1738 95.0801 23.1738ZM97.3242 16.6055V16.6641H96.4277L95.5488 15.668L94.6758 16.6641H93.7793V16.5938L95.2207 15H95.877L97.3242 16.6055ZM94.4062 25.4355C94.4062 25.2598 94.459 25.1113 94.5645 24.9902C94.6738 24.8691 94.834 24.8086 95.0449 24.8086C95.2559 24.8086 95.416 24.8691 95.5254 24.9902C95.6348 25.1113 95.6895 25.2598 95.6895 25.4355C95.6895 25.6113 95.6348 25.7578 95.5254 25.875C95.416 25.9922 95.2559 26.0508 95.0449 26.0508C94.834 26.0508 94.6738 25.9922 94.5645 25.875C94.459 25.7578 94.4062 25.6113 94.4062 25.4355ZM104.848 20.9004C104.848 21.8652 104.627 22.6426 104.186 23.2324C103.744 23.8223 103.146 24.1172 102.393 24.1172C101.623 24.1172 101.018 23.873 100.576 23.3848V26.4375H99.4922V17.6602H100.482L100.535 18.3633C100.977 17.8164 101.59 17.543 102.375 17.543C103.137 17.543 103.738 17.8301 104.18 18.4043C104.625 18.9785 104.848 19.7773 104.848 20.8008V20.9004ZM103.764 20.7773C103.764 20.0625 103.611 19.498 103.307 19.084C103.002 18.6699 102.584 18.4629 102.053 18.4629C101.396 18.4629 100.904 18.7539 100.576 19.3359V22.3652C100.9 22.9434 101.396 23.2324 102.064 23.2324C102.584 23.2324 102.996 23.0273 103.301 22.6172C103.609 22.2031 103.764 21.5898 103.764 20.7773ZM114.574 20.9004C114.574 21.8691 114.352 22.6484 113.906 23.2383C113.461 23.8242 112.863 24.1172 112.113 24.1172C111.312 24.1172 110.693 23.834 110.256 23.2676L110.203 24H109.207V15H110.291V18.3574C110.729 17.8145 111.332 17.543 112.102 17.543C112.871 17.543 113.475 17.834 113.912 18.416C114.354 18.998 114.574 19.7949 114.574 20.8066V20.9004ZM113.49 20.7773C113.49 20.0391 113.348 19.4688 113.062 19.0664C112.777 18.6641 112.367 18.4629 111.832 18.4629C111.117 18.4629 110.604 18.7949 110.291 19.459V22.2012C110.623 22.8652 111.141 23.1973 111.844 23.1973C112.363 23.1973 112.768 22.9961 113.057 22.5938C113.346 22.1914 113.49 21.5859 113.49 20.7773ZM119.859 24C119.797 23.875 119.746 23.6523 119.707 23.332C119.203 23.8555 118.602 24.1172 117.902 24.1172C117.277 24.1172 116.764 23.9414 116.361 23.5898C115.963 23.2344 115.764 22.7852 115.764 22.2422C115.764 21.582 116.014 21.0703 116.514 20.707C117.018 20.3398 117.725 20.1562 118.635 20.1562H119.689V19.6582C119.689 19.2793 119.576 18.9785 119.35 18.7559C119.123 18.5293 118.789 18.416 118.348 18.416C117.961 18.416 117.637 18.5137 117.375 18.709C117.113 18.9043 116.982 19.1406 116.982 19.418H115.893C115.893 19.1016 116.004 18.7969 116.227 18.5039C116.453 18.207 116.758 17.9727 117.141 17.8008C117.527 17.6289 117.951 17.543 118.412 17.543C119.143 17.543 119.715 17.7266 120.129 18.0938C120.543 18.457 120.758 18.959 120.773 19.5996V22.5176C120.773 23.0996 120.848 23.5625 120.996 23.9062V24H119.859ZM118.061 23.1738C118.4 23.1738 118.723 23.0859 119.027 22.9102C119.332 22.7344 119.553 22.5059 119.689 22.2246V20.9238H118.84C117.512 20.9238 116.848 21.3125 116.848 22.0898C116.848 22.4297 116.961 22.6953 117.188 22.8867C117.414 23.0781 117.705 23.1738 118.061 23.1738ZM120.275 15.5156C120.275 15.8867 120.111 16.1836 119.783 16.4062C119.455 16.6289 119.027 16.7402 118.5 16.7402C117.969 16.7402 117.539 16.6289 117.211 16.4062C116.883 16.1836 116.719 15.8867 116.719 15.5156H117.609C117.609 15.7305 117.686 15.8984 117.838 16.0195C117.994 16.1367 118.215 16.1953 118.5 16.1953C118.777 16.1953 118.992 16.1348 119.145 16.0137C119.301 15.8887 119.379 15.7227 119.379 15.5156H120.275ZM117.352 14.2383H118.254L118.91 15.3984H118.318L117.352 14.2383ZM123.498 17.6602L123.533 18.457C124.018 17.8477 124.65 17.543 125.432 17.543C126.771 17.543 127.447 18.2988 127.459 19.8105V24H126.375V19.8047C126.371 19.3477 126.266 19.0098 126.059 18.791C125.855 18.5723 125.537 18.4629 125.104 18.4629C124.752 18.4629 124.443 18.5566 124.178 18.7441C123.912 18.9316 123.705 19.1777 123.557 19.4824V24H122.473V17.6602H123.498ZM128.836 20.7773C128.836 19.7891 129.064 19.0039 129.521 18.4219C129.979 17.8359 130.584 17.543 131.338 17.543C132.111 17.543 132.715 17.8164 133.148 18.3633L133.201 17.6602H134.191V23.8477C134.191 24.668 133.947 25.3145 133.459 25.7871C132.975 26.2598 132.322 26.4961 131.502 26.4961C131.045 26.4961 130.598 26.3984 130.16 26.2031C129.723 26.0078 129.389 25.7402 129.158 25.4004L129.721 24.75C130.186 25.3242 130.754 25.6113 131.426 25.6113C131.953 25.6113 132.363 25.4629 132.656 25.166C132.953 24.8691 133.102 24.4512 133.102 23.9121V23.3672C132.668 23.8672 132.076 24.1172 131.326 24.1172C130.584 24.1172 129.982 23.8184 129.521 23.2207C129.064 22.623 128.836 21.8086 128.836 20.7773ZM129.926 20.9004C129.926 21.6152 130.072 22.1777 130.365 22.5879C130.658 22.9941 131.068 23.1973 131.596 23.1973C132.279 23.1973 132.781 22.8867 133.102 22.2656V19.3711C132.77 18.7656 132.271 18.4629 131.607 18.4629C131.08 18.4629 130.668 18.668 130.371 19.0781C130.074 19.4883 129.926 20.0957 129.926 20.9004ZM145.277 22.8809C144.988 23.2949 144.584 23.6055 144.064 23.8125C143.549 24.0156 142.947 24.1172 142.26 24.1172C141.564 24.1172 140.947 23.9551 140.408 23.6309C139.869 23.3027 139.451 22.8379 139.154 22.2363C138.861 21.6348 138.711 20.9375 138.703 20.1445V19.4004C138.703 18.1152 139.002 17.1191 139.6 16.4121C140.201 15.7051 141.045 15.3516 142.131 15.3516C143.021 15.3516 143.738 15.5801 144.281 16.0371C144.824 16.4902 145.156 17.1348 145.277 17.9707H144.152C143.941 16.8418 143.27 16.2773 142.137 16.2773C141.383 16.2773 140.811 16.543 140.42 17.0742C140.033 17.6016 139.838 18.3672 139.834 19.3711V20.0684C139.834 21.0254 140.053 21.7871 140.49 22.3535C140.928 22.916 141.52 23.1973 142.266 23.1973C142.688 23.1973 143.057 23.1504 143.373 23.0566C143.689 22.9629 143.951 22.8047 144.158 22.582V20.666H142.184V19.752H145.277V22.8809ZM146.701 20.7715C146.701 20.1504 146.822 19.5918 147.064 19.0957C147.311 18.5996 147.65 18.2168 148.084 17.9473C148.521 17.6777 149.02 17.543 149.578 17.543C150.441 17.543 151.139 17.8418 151.67 18.4395C152.205 19.0371 152.473 19.832 152.473 20.8242V20.9004C152.473 21.5176 152.354 22.0723 152.115 22.5645C151.881 23.0527 151.543 23.4336 151.102 23.707C150.664 23.9805 150.16 24.1172 149.59 24.1172C148.73 24.1172 148.033 23.8184 147.498 23.2207C146.967 22.623 146.701 21.832 146.701 20.8477V20.7715ZM147.791 20.9004C147.791 21.6035 147.953 22.168 148.277 22.5938C148.605 23.0195 149.043 23.2324 149.59 23.2324C150.141 23.2324 150.578 23.0176 150.902 22.5879C151.227 22.1543 151.389 21.5488 151.389 20.7715C151.389 20.0762 151.223 19.5137 150.891 19.084C150.562 18.6504 150.125 18.4336 149.578 18.4336C149.043 18.4336 148.611 18.6465 148.283 19.0723C147.955 19.498 147.791 20.1074 147.791 20.9004ZM153.545 20.7715C153.545 20.1504 153.666 19.5918 153.908 19.0957C154.154 18.5996 154.494 18.2168 154.928 17.9473C155.365 17.6777 155.863 17.543 156.422 17.543C157.285 17.543 157.982 17.8418 158.514 18.4395C159.049 19.0371 159.316 19.832 159.316 20.8242V20.9004C159.316 21.5176 159.197 22.0723 158.959 22.5645C158.725 23.0527 158.387 23.4336 157.945 23.707C157.508 23.9805 157.004 24.1172 156.434 24.1172C155.574 24.1172 154.877 23.8184 154.342 23.2207C153.811 22.623 153.545 21.832 153.545 20.8477V20.7715ZM154.635 20.9004C154.635 21.6035 154.797 22.168 155.121 22.5938C155.449 23.0195 155.887 23.2324 156.434 23.2324C156.984 23.2324 157.422 23.0176 157.746 22.5879C158.07 22.1543 158.232 21.5488 158.232 20.7715C158.232 20.0762 158.066 19.5137 157.734 19.084C157.406 18.6504 156.969 18.4336 156.422 18.4336C155.887 18.4336 155.455 18.6465 155.127 19.0723C154.799 19.498 154.635 20.1074 154.635 20.9004ZM160.418 20.7773C160.418 19.7891 160.646 19.0039 161.104 18.4219C161.561 17.8359 162.166 17.543 162.92 17.543C163.693 17.543 164.297 17.8164 164.73 18.3633L164.783 17.6602H165.773V23.8477C165.773 24.668 165.529 25.3145 165.041 25.7871C164.557 26.2598 163.904 26.4961 163.084 26.4961C162.627 26.4961 162.18 26.3984 161.742 26.2031C161.305 26.0078 160.971 25.7402 160.74 25.4004L161.303 24.75C161.768 25.3242 162.336 25.6113 163.008 25.6113C163.535 25.6113 163.945 25.4629 164.238 25.166C164.535 24.8691 164.684 24.4512 164.684 23.9121V23.3672C164.25 23.8672 163.658 24.1172 162.908 24.1172C162.166 24.1172 161.564 23.8184 161.104 23.2207C160.646 22.623 160.418 21.8086 160.418 20.7773ZM161.508 20.9004C161.508 21.6152 161.654 22.1777 161.947 22.5879C162.24 22.9941 162.65 23.1973 163.178 23.1973C163.861 23.1973 164.363 22.8867 164.684 22.2656V19.3711C164.352 18.7656 163.854 18.4629 163.189 18.4629C162.662 18.4629 162.25 18.668 161.953 19.0781C161.656 19.4883 161.508 20.0957 161.508 20.9004ZM168.592 24H167.508V15H168.592V24ZM172.963 24.1172C172.104 24.1172 171.404 23.8359 170.865 23.2734C170.326 22.707 170.057 21.9512 170.057 21.0059V20.8066C170.057 20.1777 170.176 19.6172 170.414 19.125C170.656 18.6289 170.992 18.2422 171.422 17.9648C171.855 17.6836 172.324 17.543 172.828 17.543C173.652 17.543 174.293 17.8145 174.75 18.3574C175.207 18.9004 175.436 19.6777 175.436 20.6895V21.1406H171.141C171.156 21.7656 171.338 22.2715 171.686 22.6582C172.037 23.041 172.482 23.2324 173.021 23.2324C173.404 23.2324 173.729 23.1543 173.994 22.998C174.26 22.8418 174.492 22.6348 174.691 22.377L175.354 22.8926C174.822 23.709 174.025 24.1172 172.963 24.1172ZM172.828 18.4336C172.391 18.4336 172.023 18.5938 171.727 18.9141C171.43 19.2305 171.246 19.6758 171.176 20.25H174.352V20.168C174.32 19.6172 174.172 19.1914 173.906 18.8906C173.641 18.5859 173.281 18.4336 172.828 18.4336Z" fill="white"/>
<path d="M8.00546 19.909C7.92893 23.6211 10.4857 27.1636 14.0028 28.3189C17.3157 29.4319 21.3889 28.5993 23.5934 25.7621C25.2029 23.7742 25.5687 21.1239 25.3945 18.6479C22.5573 18.6225 19.7202 18.631 16.8873 18.6352C16.8826 19.646 16.8873 20.6528 16.8915 21.6635C18.5902 21.7104 20.2894 21.6889 21.9881 21.7231C21.5593 23.1927 20.5824 24.5603 19.0998 25.091C16.2373 26.3525 12.5848 24.7045 11.6841 21.7016C10.5969 18.826 12.3767 15.3558 15.3154 14.5193C17.1376 13.8782 19.0148 14.6001 20.574 15.5473C21.3639 14.8082 22.1031 14.0182 22.8292 13.2198C21.0578 11.7376 18.7814 10.8288 16.4411 11.0284C11.8495 11.083 7.83124 15.322 8.00546 19.909Z" fill="#DC4E41"/>
<path d="M30.9161 16.0855C30.9076 16.9309 30.8988 17.7804 30.8945 18.6254C30.045 18.6338 29.2 18.6381 28.3547 18.6423C28.3547 19.4876 28.3547 20.3284 28.3547 21.1737C29.2 21.1779 30.0496 21.1822 30.8945 21.191C30.903 22.0363 30.903 22.8813 30.9114 23.7309C31.7525 23.7309 32.5979 23.7266 33.4428 23.7309C33.4474 22.8813 33.4513 22.0363 33.4601 21.1868C34.3051 21.1825 35.1547 21.1783 36 21.1741C36 20.3287 36 19.488 36 18.6427C35.155 18.6385 34.3055 18.6342 33.4601 18.6258C33.4555 17.7804 33.4474 16.9309 33.4428 16.0859C32.5979 16.0855 31.7568 16.0855 30.9161 16.0855Z" fill="#DC4E41"/>
<path d="M8.00546 19.9084C7.83124 15.3213 11.8491 11.0824 16.4407 11.0274C18.781 10.8278 21.0578 11.7366 22.8288 13.2188C22.1023 14.0176 21.3632 14.8071 20.5736 15.5463C19.0144 14.5991 17.1372 13.8772 15.315 14.5183C12.376 15.3552 10.5961 18.8254 11.6837 21.7006C12.5844 24.7035 16.2369 26.3515 19.0994 25.09C20.5817 24.5593 21.5589 23.1917 21.9877 21.7221C20.289 21.6883 18.5899 21.7094 16.8911 21.6625C16.8869 20.6518 16.8826 19.6449 16.8869 18.6342C19.7198 18.63 22.5569 18.6215 25.3941 18.6469C25.5683 21.1233 25.2029 23.7735 23.593 25.7611C21.3885 28.5983 17.3157 29.4309 14.0024 28.3179C10.4861 27.163 7.92893 23.6205 8.00546 19.9084Z" fill="white"/>
<path d="M30.9161 16.0855C31.7572 16.0855 32.5979 16.0855 33.4428 16.0855C33.4474 16.9309 33.4555 17.7804 33.4601 18.6254C34.3051 18.6338 35.1547 18.6381 36 18.6423C36 19.4876 36 20.3284 36 21.1737C35.155 21.1779 34.3055 21.1822 33.4601 21.1864C33.4517 22.036 33.4474 22.8809 33.4428 23.7305C32.5979 23.7262 31.7522 23.7305 30.9114 23.7305C30.9034 22.8809 30.9034 22.036 30.8945 21.1906C30.0496 21.1818 29.2 21.1779 28.3547 21.1733C28.3547 20.328 28.3547 19.4873 28.3547 18.6419C29.2 18.6377 30.0453 18.6335 30.8945 18.625C30.8988 17.7804 30.9072 16.9309 30.9161 16.0855Z" fill="white"/>
</svg>
