<svg width="72" height="20" viewBox="0 0 72 20" fill="none" xmlns="http://www.w3.org/2000/svg">
<path d="M13.1339 5.28907C12.817 5.09104 12.5002 4.81381 12.1438 4.65539C10.52 3.74448 8.50013 3.9029 7.15357 5.05144C6.5991 5.48709 6.24266 6.04156 6.16345 6.79405C6.12384 7.38812 6.28226 7.86338 6.71791 8.29903C7.19317 8.77429 7.86645 9.05152 8.57934 9.13073C9.9259 9.28915 11.1932 8.85349 12.3814 8.21982C12.5002 8.18021 12.5398 8.101 12.6982 8.0218C12.6586 8.29903 12.5794 8.49705 12.5398 8.65547C12.223 9.96243 11.9457 11.2694 11.6289 12.5763C11.5893 12.7348 11.5101 12.7744 11.3517 12.8536C10.7576 12.9724 10.1635 13.1308 9.56945 13.1704C8.57934 13.21 7.62882 13.3288 6.6387 13.2892C5.05451 13.2496 3.58914 12.8536 2.32179 11.9427C1.17325 11.111 0.42076 10.0416 0.183132 8.61587C0.024713 7.46733 0.222737 6.398 0.737598 5.36828C1.45048 3.78409 2.63863 2.63555 4.104 1.72464C5.45056 0.853339 6.91594 0.378082 8.46052 0.140454C9.45064 -0.0179652 10.4804 -0.0575693 11.4705 0.10085C12.223 0.219664 13.0547 0.378083 13.8072 0.496897C13.9656 0.536502 14.0052 0.615713 13.9656 0.774132C13.7676 2.1999 13.4903 3.58607 13.2527 5.01184C13.1735 5.01184 13.1339 5.17025 13.1339 5.28907Z" fill="#E21937"/>
<path d="M21.055 2.39795C22.4015 2.39795 23.6689 2.59597 24.857 3.26925C26.0452 3.86332 26.8769 4.77423 27.1937 6.1604C27.4709 7.34854 27.1937 8.49708 26.6392 9.60601C25.8867 11.0714 24.6194 12.0615 23.1144 12.6556C21.6094 13.2893 19.946 13.5665 18.2826 13.4873C17.0945 13.4477 15.9064 13.1704 14.7974 12.5764C13.6489 11.9427 12.8568 10.9922 12.6588 9.64561C12.5003 8.49708 12.6984 7.46735 13.2528 6.47724C14.0053 5.05146 15.1539 4.14056 16.5004 3.46728C17.649 2.91281 18.8371 2.59597 20.1045 2.55637C20.4609 2.43755 20.7381 2.43755 21.055 2.39795ZM19.55 10.0813C19.6688 10.0813 19.8272 10.0813 19.946 10.0813C20.0648 10.0813 20.1045 10.0813 20.2233 10.0417C21.1342 9.88324 21.9263 9.40799 22.2827 8.53668C22.758 7.38815 22.2827 6.31882 21.1342 6.04158C20.6589 5.92277 20.1441 5.92277 19.6688 6.04158C18.6787 6.2 17.9262 6.75447 17.5301 7.78419C17.2529 8.6951 17.5698 9.5268 18.4014 9.84364C18.7975 10.0021 19.1539 10.1209 19.55 10.0813Z" fill="#E21937"/>
<path d="M65.0955 2.39795C66.5213 2.39795 67.8678 2.67518 69.1352 3.38807C70.2837 4.02174 71.0362 4.97226 71.3134 6.27921C71.5114 7.42775 71.2738 8.49708 70.759 9.5268C70.0461 10.8734 68.8579 11.8635 67.5114 12.5368C66.3628 13.0912 65.1351 13.3685 63.8677 13.4477C62.442 13.5665 61.0954 13.4477 59.7884 12.8932C58.7587 12.4972 57.8874 11.9031 57.2933 10.8734C56.7389 9.96245 56.6993 8.93273 56.8973 7.8634C57.2933 6.08119 58.3627 4.81384 59.8281 3.82372C61.0954 3.07123 62.442 2.63558 63.8677 2.47716C64.2242 2.43755 64.6598 2.43755 65.0955 2.39795ZM63.5113 10.1209C63.7885 10.0813 63.9865 10.0813 64.2242 10.0813C65.1351 9.92285 65.9272 9.44759 66.3628 8.57629C66.8381 7.42775 66.3628 6.39803 65.2143 6.08119C64.739 5.96237 64.2242 5.96237 63.7489 6.08119C62.7192 6.35842 61.9667 6.91289 61.6103 7.94261C61.333 8.93273 61.7687 9.72482 62.6796 10.0021C62.9568 10.0813 63.2737 10.0813 63.5113 10.1209Z" fill="#E21937"/>
<path d="M25.7676 12.4576C26.4805 11.4279 27.1141 10.4378 27.7874 9.52689C28.2627 9.80412 28.7775 10.0814 29.2528 10.2794C29.9657 10.5962 30.7182 10.715 31.4707 10.4774C31.6291 10.4378 31.8667 10.319 31.9459 10.2002C32.2628 9.92293 32.1439 9.56649 31.7875 9.44768C31.3518 9.32886 30.9558 9.28926 30.5201 9.24965C29.8073 9.13084 29.0944 9.05163 28.5003 8.65558C27.9062 8.33874 27.4706 7.82388 27.3518 7.1506C27.3122 6.59614 27.3914 6.12088 27.629 5.64562C28.0647 4.6159 28.8171 3.94262 29.8073 3.42776C30.837 2.87329 31.9459 2.55645 33.0548 2.43764C34.5202 2.31882 35.946 2.47724 37.2926 3.07131C37.451 3.11092 37.6094 3.22973 37.7678 3.34855C37.1737 4.25946 36.5797 5.13076 35.9856 6.08127C35.7084 5.92285 35.4311 5.80404 35.1539 5.68523C34.5202 5.40799 33.8073 5.24957 33.0945 5.28918C32.8964 5.32878 32.6192 5.40799 32.3816 5.56641C32.0647 5.76444 32.1043 6.16048 32.5004 6.2793C32.9756 6.39811 33.4113 6.47732 33.9262 6.59614C34.5202 6.71495 35.1143 6.87337 35.6688 7.1506C36.4213 7.54665 36.9757 8.06151 37.0153 9.01202C37.0549 9.72491 36.8569 10.319 36.4609 10.9131C35.9064 11.824 35.0351 12.418 34.0846 12.8141C32.6588 13.4081 31.1934 13.5666 29.6884 13.4478C28.3815 13.3289 27.1141 13.1309 25.926 12.6161C25.9656 12.5764 25.8468 12.5368 25.7676 12.4576Z" fill="#E21937"/>
<path d="M56.3824 9.09113C56.1052 10.3981 55.7883 11.6654 55.5111 12.8932C55.4715 13.012 55.3923 13.0516 55.3131 13.0912C54.7586 13.21 54.2437 13.2892 53.6893 13.3684C53.0556 13.408 52.3427 13.4873 51.6694 13.408C50.3229 13.3684 49.0555 13.012 47.9862 12.1407C46.8377 11.2298 46.2832 10.002 46.402 8.61587C46.5208 7.30892 47.0357 6.23959 47.8674 5.24947C49.2139 3.74449 50.9566 2.87319 52.9368 2.51674C54.4022 2.23951 55.8279 2.39793 57.2537 2.71477C57.4121 2.75437 57.4517 2.83358 57.4517 3.03161C57.2537 4.21975 57.0557 5.40789 56.8973 6.63564C56.8973 6.67524 56.8577 6.75445 56.8577 6.83366C56.6596 6.67524 56.4616 6.51682 56.2636 6.39801C54.9566 5.52671 53.3724 5.56631 52.1843 6.51683C51.6298 6.95248 51.2734 7.50694 51.2734 8.25943C51.2734 8.8535 51.5506 9.24955 52.0259 9.56639C52.62 9.96244 53.2932 10.0416 53.9665 10.002C54.8378 9.96244 55.5903 9.60599 56.3428 9.13074C56.2636 9.13074 56.3428 9.09113 56.3824 9.09113Z" fill="#E21937"/>
<path d="M37.5704 13.2889C38.3229 10.8334 39.0358 8.37794 39.7883 5.96205C38.917 6.00166 38.0457 6.00166 37.1348 6.08086C37.5308 4.93233 37.8477 3.78379 38.1645 2.63525C41.4913 2.63525 44.8181 2.63525 48.1845 2.63525C48.0657 3.0313 47.9865 3.38774 47.8676 3.70458C47.6696 4.41747 47.432 5.13035 47.234 5.88284C47.1944 6.00166 47.1152 6.04126 47.0359 6.04126C46.2835 6.00166 45.5706 6.00166 44.8181 5.92245C44.6597 5.92245 44.6201 5.96205 44.5409 6.12047C43.828 8.41755 43.1151 10.7542 42.4022 13.0117C42.3626 13.1701 42.2834 13.2097 42.125 13.2097C40.6992 13.2097 39.313 13.2097 37.8873 13.2097C37.7288 13.2889 37.6496 13.2889 37.5704 13.2889Z" fill="#E21937"/>
<path d="M69.2538 12.1406C69.5706 12.1406 69.8082 12.299 69.8875 12.5367C70.0063 12.7347 69.8875 13.0119 69.6102 13.2496C69.333 13.4476 69.0558 13.5268 68.7389 13.4476C68.3033 13.3288 68.1845 12.8931 68.4221 12.5763C68.6201 12.299 68.9369 12.1406 69.2538 12.1406ZM69.1746 12.2594C69.0161 12.2594 68.7389 12.3783 68.6201 12.6555C68.4617 12.9327 68.5805 13.21 68.8973 13.2892C69.1746 13.3288 69.3726 13.2892 69.531 13.1307C69.6894 12.9723 69.8082 12.7347 69.729 12.5763C69.6894 12.3386 69.4914 12.2594 69.1746 12.2594Z" fill="#E21937"/>
<path d="M69.8059 13.4737L69.2738 13.3491L69.098 14.0999L68.7978 14.0296L69.2322 12.1737L69.9821 12.3493C70.2372 12.4091 70.4221 12.5025 70.5368 12.6298C70.6524 12.7573 70.689 12.9119 70.6464 13.0938C70.6194 13.2093 70.5574 13.3011 70.4606 13.3689C70.3648 13.437 70.244 13.4764 70.0982 13.4871L70.4459 14.3994L70.4423 14.4147L70.1218 14.3396L69.8059 13.4737ZM69.3206 13.149L69.7796 13.2565C69.9279 13.2912 70.053 13.2874 70.1548 13.2449C70.2577 13.2026 70.3215 13.1288 70.3462 13.0235C70.373 12.9087 70.3516 12.811 70.2819 12.7301C70.2132 12.6495 70.1002 12.5903 69.9427 12.5525L69.4853 12.4454L69.3206 13.149Z" fill="#E21937"/>
<path d="M21.6886 14.7943C21.7282 15.1904 21.847 15.5072 21.8866 15.824C21.9262 16.0221 21.9262 16.0221 21.7282 16.0221C14.639 16.0221 7.58932 16.0221 0.460473 16.0221C0.420868 15.8637 0.460473 15.7052 0.460473 15.5468C0.460473 15.2696 0.460473 14.9923 0.460473 14.7151C0.500078 14.6755 0.618892 14.7151 0.658497 14.7151C7.54972 14.7151 14.5202 14.7151 21.451 14.7151C21.5698 14.7943 21.6094 14.7547 21.6886 14.7943Z" fill="#155DA3"/>
<path d="M0.500407 16.616C0.619221 16.616 0.658826 16.616 0.77764 16.616C7.78768 16.616 14.7977 16.616 21.887 16.616C22.085 16.616 22.1642 16.6556 22.2038 16.814C22.2434 17.0912 22.3226 17.4081 22.4018 17.6853C22.4414 17.8041 22.4018 17.8437 22.283 17.8041C22.2434 17.8041 22.1642 17.8041 22.1246 17.8041C14.9957 17.8041 7.9461 17.8041 0.817245 17.8041C0.69843 17.8041 0.658826 17.8041 0.540011 17.8041C0.500407 17.7249 0.500407 17.6853 0.500407 17.6457C0.500407 17.3289 0.500407 17.0516 0.500407 16.7348C0.460802 16.6952 0.460802 16.6556 0.500407 16.616Z" fill="#155DA3"/>
<path d="M22.4806 18.3982C22.5202 18.7943 22.639 19.1111 22.6786 19.4675C22.6786 19.5071 22.6786 19.5864 22.639 19.5864C22.5994 19.5864 22.5202 19.5864 22.4806 19.5864C15.1933 19.5864 7.90606 19.5864 0.658391 19.5864C0.618787 19.5864 0.499972 19.5864 0.460368 19.5864C0.420763 19.1903 0.420763 18.7547 0.460368 18.3982C0.499972 18.3586 0.579182 18.3982 0.658391 18.3982C7.90606 18.3982 15.0745 18.3982 22.3222 18.3982C22.3618 18.3982 22.441 18.3586 22.4806 18.3982Z" fill="#1B5E9F"/>
<path d="M68.9368 18.2794C68.818 18.715 68.7783 19.1507 68.7387 19.5863C68.6991 19.6259 68.6991 19.6259 68.6199 19.6259C67.3526 19.6259 66.1248 19.6259 64.8575 19.6259H64.8179C64.8575 19.1903 64.9763 18.7546 65.0159 18.3586C65.1347 17.7645 65.2139 17.1704 65.3327 16.5763C65.3723 16.1407 65.4912 15.705 65.61 15.2694C65.61 15.1506 65.6496 15.0714 65.6496 14.9922C65.6496 14.8337 65.7684 14.8337 65.8476 14.8337C67.0357 14.8337 68.2239 14.8337 69.3724 14.8337C69.5308 14.8337 69.5704 14.8337 69.5308 14.9922C69.4912 15.309 69.412 15.5862 69.3724 15.9031C69.3724 16.0615 69.3328 16.1011 69.1744 16.1011C68.7387 16.1011 68.3031 16.1011 67.8674 16.1011C67.6694 16.1011 67.5506 16.1011 67.5506 16.3783C67.5506 16.4179 67.511 16.4971 67.5506 16.5367C67.9466 16.5763 68.3031 16.5367 68.6991 16.5367C68.8576 16.5367 68.9764 16.4971 69.1348 16.5763C69.0952 16.9724 68.9764 17.2892 68.9368 17.6457C68.9368 17.7645 68.8179 17.8041 68.7783 17.8041C68.3427 17.8041 67.9466 17.8041 67.511 17.8041C67.3526 17.8041 67.313 17.8437 67.2338 18.0021C67.2338 18.1209 67.1942 18.1605 67.2338 18.2794C67.6694 18.319 68.1447 18.2794 68.6595 18.2794C68.6595 18.2794 68.7783 18.2794 68.9368 18.2794Z" fill="#155DA3"/>
<path d="M0.460449 19.5863C0.500054 19.5863 0.579263 19.5863 0.658473 19.5863C7.94574 19.5863 15.233 19.5863 22.5203 19.5863C22.6391 19.5863 22.7183 19.6259 22.7183 19.4675C22.7579 19.5863 22.7579 19.6259 22.6787 19.6259C22.6391 19.6259 22.5599 19.6259 22.5203 19.6259C15.233 19.6259 7.98535 19.6259 0.698078 19.6259C0.618868 19.6259 0.579263 19.7052 0.460449 19.5863Z" fill="#155DA3"/>
<path d="M22.4807 18.3982C22.4411 18.3586 22.3223 18.3982 22.2827 18.3982C15.035 18.3982 7.86653 18.3982 0.618868 18.3982C0.579263 18.3982 0.500054 18.3982 0.460449 18.3982C0.500054 18.3586 0.579263 18.3586 0.658473 18.3586C7.82693 18.3586 15.0746 18.3586 22.2431 18.3586C22.3619 18.3586 22.4807 18.2794 22.4807 18.3982Z" fill="#FEFEFD"/>
<path d="M58.4023 19.5864C59.5905 19.5864 60.7786 19.5864 61.9272 19.5864C62.7589 19.5864 63.5114 19.5864 64.3035 19.5864C64.2638 19.626 64.1846 19.626 64.1054 19.626C62.244 19.626 60.4222 19.626 58.5608 19.626C58.5608 19.626 58.4419 19.626 58.4023 19.5864Z" fill="#FEFEFD"/>
<path d="M46.2037 19.5469C46.2037 19.5865 46.2433 19.5865 46.3225 19.5865C47.5899 19.5865 48.8968 19.5865 50.1246 19.5865H50.1642C50.1246 19.7053 50.0454 19.6261 50.0058 19.6261C48.8176 19.6261 47.5503 19.6261 46.3621 19.6261C46.2433 19.6261 46.0849 19.7053 46.2037 19.5469Z" fill="#FEFEFD"/>
<path d="M64.7388 19.5864C66.0061 19.5864 67.1943 19.5864 68.422 19.5864C68.5408 19.5864 68.5804 19.5864 68.6992 19.5864C68.6596 19.626 68.5804 19.626 68.5408 19.626C67.2735 19.626 66.0853 19.626 64.8576 19.626C64.818 19.626 64.7388 19.626 64.7388 19.5864Z" fill="#FEFEFD"/>
<path d="M41.9263 19.5864C42.2035 19.5864 42.4807 19.5864 42.758 19.5864C43.7877 19.5864 44.8174 19.5864 45.8075 19.5864C45.7679 19.626 45.6887 19.626 45.6095 19.626C44.461 19.626 43.2728 19.626 42.1243 19.626C42.0055 19.626 41.9659 19.7052 41.9263 19.5864Z" fill="#FEFEFD"/>
<path d="M54.2438 19.5864C54.9963 19.626 55.7488 19.626 56.4617 19.626C56.4221 19.6656 56.3429 19.6656 56.3033 19.6656C55.6696 19.6656 54.9963 19.6656 54.3626 19.6656C54.323 19.626 54.2042 19.7052 54.2438 19.5864Z" fill="#FEFEFD"/>
<path d="M33.4909 19.5469C33.4909 19.5865 33.5305 19.5865 33.6097 19.5865C34.2038 19.5865 34.7978 19.5865 35.4711 19.5865C35.5107 19.5865 35.5899 19.5865 35.5899 19.5469C35.5899 19.5865 35.5503 19.6657 35.4711 19.6657C34.877 19.6657 34.2038 19.6657 33.6097 19.6657C33.4909 19.6261 33.4117 19.6261 33.4909 19.5469Z" fill="#FEFEFD"/>
<path d="M30.1641 19.5864C30.7977 19.5864 31.5106 19.5864 32.1839 19.5864C32.1443 19.626 32.0651 19.626 32.0255 19.626C31.4314 19.626 30.8769 19.626 30.2829 19.626C30.2829 19.626 30.2037 19.626 30.1641 19.5864Z" fill="#FEFEFD"/>
<path d="M64.5805 18.1211C64.5805 18.0023 64.4617 18.0023 64.4221 18.0023C63.9468 18.0023 63.5112 18.0023 62.9963 18.0023C62.9567 18.0023 62.8775 18.0419 62.8379 17.9626C63.3924 17.9626 63.9072 17.9626 64.4221 17.9626C64.5409 18.0023 64.6993 18.0023 64.5805 18.1211Z" fill="#FEFEFD"/>
<path d="M26.4409 19.5864C27.035 19.5864 27.7083 19.5864 28.3023 19.5864C28.2627 19.626 28.1835 19.626 28.1439 19.626C27.6687 19.626 27.1142 19.626 26.6389 19.626C26.5597 19.626 26.4409 19.626 26.4409 19.5864Z" fill="#FEFEFD"/>
<path d="M46.0849 18.1211C46.0453 18.0815 45.9661 18.0815 45.8869 18.0815C45.4512 18.0815 45.0156 18.0815 44.5403 18.0815C44.5007 18.0815 44.3819 18.0815 44.3423 18.0815C44.8968 18.0815 45.4116 18.0815 45.9661 18.0815C46.0057 18.0023 46.0849 17.9627 46.0849 18.1211Z" fill="#FEFEFD"/>
<path d="M50.4018 18.3587C50.283 18.3191 50.2038 18.3587 50.085 18.3587C49.6097 18.3587 49.0949 18.3587 48.6196 18.3587C49.1741 18.3587 49.689 18.3587 50.3226 18.3587C50.283 18.2795 50.3226 18.2399 50.4018 18.3587Z" fill="white"/>
<path d="M68.9371 18.2791C68.3826 18.2395 67.9074 18.2791 67.3529 18.2791C67.2341 18.2791 67.1945 18.2791 67.0757 18.2791C67.6301 18.2791 68.145 18.2791 68.6995 18.2791C68.8183 18.2791 68.8975 18.2395 68.9371 18.2791Z" fill="#FEFEFD"/>
<path d="M23.1938 19.5864C23.7879 19.626 24.382 19.5864 24.9761 19.5864C24.9365 19.626 24.8572 19.626 24.8176 19.626C24.3424 19.626 23.8275 19.626 23.3127 19.626C23.3127 19.626 23.2335 19.626 23.1938 19.5864Z" fill="#FEFEFD"/>
<path d="M50.5207 16.695C50.5207 16.5762 50.4811 16.5762 50.3623 16.5762C49.9266 16.5762 49.5306 16.5762 49.0949 16.5762C49.0553 16.5762 48.9761 16.5762 48.9365 16.5762C49.4118 16.5762 49.9266 16.5762 50.3623 16.5762C50.4415 16.5366 50.5603 16.5366 50.5207 16.695Z" fill="white"/>
<path d="M69.0559 16.6162C68.6202 16.5766 68.2242 16.6162 67.7885 16.6162C67.6697 16.6162 67.5905 16.6559 67.4717 16.6162C67.9469 16.6162 68.3826 16.6162 68.8974 16.6162C68.9371 16.537 69.0163 16.4974 69.0559 16.6162Z" fill="#FEFEFD"/>
<path d="M32.54 17.9626C32.9757 17.923 33.3717 17.923 33.8074 17.9626C33.3717 17.9626 32.9361 17.9626 32.54 17.9626Z" fill="#FEFEFD"/>
<path d="M34.0847 16.3784C33.9263 16.418 33.7678 16.418 33.6094 16.3784C33.3322 16.3784 33.1342 16.418 32.8569 16.3784C33.253 16.3784 33.6886 16.3784 34.0847 16.3784Z" fill="#FEFEFD"/>
<path d="M42.4414 16.6952C42.4414 16.8139 42.4414 16.893 42.4019 17.0117C42.4019 16.8139 42.4019 16.616 42.4019 16.4578C42.4414 16.5369 42.4019 16.6556 42.4414 16.6952Z" fill="#4B8FB9"/>
<path d="M50.4014 18.8733C50.4014 18.9921 50.3619 19.0316 50.2432 19.0712C50.2432 18.9525 50.2432 18.8733 50.2827 18.7546C50.3223 18.8338 50.3223 18.8338 50.4014 18.8733Z" fill="white"/>
<path d="M35.8667 17.8038C35.8667 17.6851 35.9063 17.6456 35.9063 17.5269C35.9063 17.6456 35.9063 17.6851 35.8667 17.8038Z" fill="#96BCD3"/>
<path d="M55.1938 17.9226C55.1938 17.8038 55.1938 17.6456 55.1938 17.5269C55.2334 17.6456 55.1938 17.7247 55.1938 17.9226C55.2334 17.8434 55.2334 17.9226 55.1938 17.9226Z" fill="#FEFEFD"/>
<path d="M53.3726 15.9823C53.4913 15.9427 53.5704 15.9427 53.7683 15.9823C53.61 15.9823 53.4913 15.9823 53.3726 15.9823Z" fill="#FEFEFD"/>
<path d="M26.2824 17.1309C26.3219 17.2496 26.3219 17.3287 26.3219 17.4474C26.2428 17.3683 26.2824 17.2496 26.2824 17.1309Z" fill="#FEFEFD"/>
<path d="M24.5401 17.5665C24.5401 17.6456 24.5005 17.6456 24.5401 17.5665C24.5005 17.5269 24.5005 17.4082 24.5005 17.3687C24.5401 17.4082 24.5005 17.5269 24.5401 17.5665Z" fill="#FEFEFD"/>
<path d="M26.3618 18.438C26.4014 18.5567 26.4014 18.6358 26.4014 18.7545C26.3618 18.6754 26.3618 18.5567 26.3618 18.438Z" fill="#FEFEFD"/>
<path d="M26.4015 19.1111C26.4411 19.2298 26.4411 19.3089 26.4411 19.4276C26.3619 19.3089 26.4015 19.1902 26.4015 19.1111Z" fill="#FEFEFD"/>
<path d="M55.1941 17.9229C55.1941 17.9229 55.1941 17.8437 55.1941 17.9229C55.3128 17.8833 55.3128 17.8833 55.3524 17.8833C55.3128 17.9229 55.3128 18.002 55.2337 18.0812C55.1941 18.0812 55.1941 18.0812 55.1941 18.0416C55.115 17.9624 55.115 17.9624 55.1941 17.9229Z" fill="white"/>
<path d="M24.3819 15.8236C24.3423 15.7049 24.3423 15.6258 24.3423 15.5071C24.461 15.6258 24.3819 15.7445 24.3819 15.8236Z" fill="#FEFEFD"/>
<path d="M24.461 16.4179C24.4214 16.2992 24.4214 16.22 24.4214 16.1409C24.461 16.22 24.461 16.3387 24.461 16.4179Z" fill="#FEFEFD"/>
<path d="M36.1044 16.6155C36.1044 16.5761 36.1044 16.4972 36.1438 16.4578C36.1438 16.4972 36.1438 16.5761 36.1832 16.5761C36.1832 16.6155 36.1438 16.6155 36.1044 16.6155C36.0255 16.6944 36.1044 16.6549 36.1044 16.6155Z" fill="#FEFEFD"/>
<path d="M24.461 17.091C24.4214 16.9722 24.4214 16.8931 24.4214 16.814C24.5005 16.8535 24.461 16.9722 24.461 17.091Z" fill="#FEFEFD"/>
<path d="M26.3618 17.8042C26.4013 17.9229 26.4013 18.002 26.4013 18.0812C26.2826 18.002 26.3618 17.9229 26.3618 17.8042Z" fill="#FEFEFD"/>
<path d="M42.1641 17.8036C42.1641 17.7642 42.2035 17.7642 42.2035 17.6853C42.2429 17.6853 42.2429 17.6853 42.2429 17.7247C42.2429 17.7642 42.2429 17.843 42.2035 17.8825C42.2429 17.843 42.2429 17.843 42.1641 17.8036Z" fill="#FEFEFD"/>
<path d="M27.5892 15.6249C27.5498 15.5855 27.5498 15.4672 27.5498 15.4277C27.5892 15.4672 27.5498 15.5066 27.5892 15.6249Z" fill="#FEFEFD"/>
<path d="M27.5894 16.0614C27.5498 16.0218 27.5498 15.9031 27.5498 15.7844C27.6685 15.9031 27.5894 15.9427 27.5894 16.0614Z" fill="#FEFEFD"/>
<path d="M27.669 16.4967C27.6294 16.4571 27.6294 16.3384 27.6294 16.2197C27.7085 16.3384 27.669 16.4176 27.669 16.4967Z" fill="#FEFEFD"/>
<path d="M50.8767 16.616C50.8767 16.6554 50.8767 16.7737 50.8767 16.8131C50.8373 16.7737 50.8373 16.6554 50.8767 16.616Z" fill="white"/>
<path d="M27.7085 16.9721C27.6689 16.9325 27.6689 16.8138 27.6689 16.6951C27.7085 16.8138 27.7085 16.9325 27.7085 16.9721Z" fill="#FEFEFD"/>
<path d="M27.7084 17.4862C27.6689 17.4468 27.6689 17.3285 27.6689 17.2891C27.7478 17.2891 27.7084 17.3679 27.7084 17.4862Z" fill="#FEFEFD"/>
<path d="M30.9165 15.3486C30.9165 15.3092 30.9559 15.3092 30.9165 15.3486C31.0347 15.3486 30.9559 15.388 30.9559 15.4668C30.9559 15.388 30.9165 15.3486 30.9165 15.3486Z" fill="#FEFEFD"/>
<path d="M52.3021 18.3981C52.2627 18.3981 52.1444 18.3981 52.105 18.3586C52.1444 18.3586 52.2627 18.3586 52.3021 18.3981Z" fill="white"/>
<path d="M54.5205 18.9529C54.6392 18.9529 54.5996 18.9925 54.5205 18.9529C54.5996 18.9925 54.5205 18.9925 54.5205 18.9529Z" fill="#FEFEFD"/>
<path d="M51.6299 19.626C51.6693 19.626 51.7876 19.626 51.827 19.6654C51.827 19.7048 51.7087 19.7048 51.6299 19.626Z" fill="#FEFEFD"/>
<path d="M45.887 18.0814C45.3325 18.0814 44.8573 18.0814 44.3028 18.0814C44.4612 17.0517 44.6988 16.022 44.8969 14.9923C44.9365 14.8338 44.8969 14.8338 44.778 14.8338C44.184 14.8338 43.5899 14.8338 42.9958 14.8338C42.8374 14.8338 42.7978 14.8735 42.7978 15.0319C42.7978 15.1903 42.7582 15.4279 42.679 15.5863C42.6394 15.9824 42.5206 16.418 42.481 16.7745C42.4414 16.8141 42.481 16.9329 42.4414 16.9725C42.4414 16.8141 42.4414 16.6953 42.4414 16.5369C42.3226 15.9032 42.0057 15.5071 41.4512 15.1903C41.0552 14.9923 40.6195 14.8735 40.1839 14.7942C40.0651 14.7546 39.9859 14.7942 39.8671 14.7546C39.7482 14.7546 39.669 14.7546 39.5502 14.7546C39.4314 14.7942 39.3522 14.7546 39.273 14.7942C38.8373 14.8338 38.4017 14.9527 37.966 15.1111C37.2135 15.4279 36.6195 15.8636 36.2234 16.6161C36.1838 16.6161 36.1838 16.6557 36.1838 16.7349V16.6953C36.1838 16.6557 36.1838 16.5765 36.1838 16.5369C36.1838 16.4972 36.1838 16.418 36.1838 16.3784C36.3026 15.9428 36.3422 15.5071 36.4611 15.0715C36.4611 14.9527 36.5007 14.9131 36.3422 14.9131C35.7482 14.9131 35.1541 14.9131 34.56 14.9131C34.5204 14.9131 34.4412 14.9131 34.4412 15.0319C34.3224 15.5071 34.2828 16.0616 34.164 16.5369C33.7283 16.5765 33.3323 16.5765 32.8966 16.5369C33.0154 16.0616 33.055 15.5467 33.1739 15.0715C33.2135 14.9131 33.1739 14.9131 33.055 14.9131C32.8966 14.9131 32.659 14.9131 32.5006 14.9131C31.4312 14.9131 30.3223 14.9131 29.2926 14.9131C29.253 14.9131 29.1342 14.8735 29.0946 14.9527C28.9361 15.3487 28.7777 15.7052 28.6193 16.022C28.4213 16.4576 28.2233 16.8537 28.0648 17.2893C28.0252 17.4478 28.0252 17.6062 27.9064 17.725C27.8668 17.6854 27.8668 17.6062 27.9064 17.5666C27.8668 17.527 27.9064 17.4082 27.8668 17.3686C27.8668 17.3289 27.8668 17.2101 27.8668 17.1705C27.8272 17.1309 27.8668 17.0121 27.8272 16.8933C27.8272 16.8537 27.8272 16.7349 27.8272 16.6953C27.7876 16.6557 27.8272 16.5369 27.7876 16.418C27.7876 16.3784 27.7876 16.2596 27.7876 16.22C27.748 16.1804 27.7876 16.0616 27.748 15.9428C27.748 15.9032 27.748 15.824 27.748 15.7844C27.7084 15.7448 27.748 15.6259 27.7084 15.5863C27.7084 15.5467 27.7084 15.4279 27.7084 15.3883C27.6688 15.3487 27.7084 15.2299 27.6688 15.1903C27.6688 15.0715 27.6292 15.0715 27.5104 15.0715C27.0747 15.0715 26.5995 15.0715 26.1638 15.0715C26.045 15.0715 26.0054 15.1111 26.0054 15.1903C25.6886 15.7844 25.4113 16.4576 25.0945 17.0517C24.9757 17.3289 24.8173 17.6062 24.7777 17.8834C24.6588 17.8438 24.7777 17.725 24.738 17.6854C24.738 17.5666 24.738 17.4874 24.738 17.3686C24.6984 17.2497 24.738 17.1705 24.6984 17.0913C24.6984 16.9725 24.6984 16.8933 24.6984 16.7745C24.6588 16.6557 24.6984 16.5765 24.6588 16.4972C24.6588 16.3784 24.6588 16.2992 24.6588 16.1804C24.6192 16.0616 24.6588 15.9824 24.6192 15.8636C24.6192 15.7448 24.6192 15.6655 24.6192 15.5467C24.5796 15.4279 24.6192 15.3487 24.5796 15.2299C24.5796 15.1903 24.54 15.1111 24.4608 15.1111C23.8271 15.1111 23.1539 15.1111 22.5202 15.1111C22.4014 15.1111 22.4014 15.1507 22.4014 15.2299C22.5202 15.5467 22.5598 15.8636 22.5994 16.2596C22.7578 16.9725 22.9162 17.725 23.0746 18.4379C23.1935 18.9131 23.2727 19.428 23.3915 19.9033C23.4311 19.9429 23.5103 19.9429 23.5499 19.9429C24.0252 19.9429 24.4608 19.9429 24.9757 19.9429C25.0153 19.9429 25.1341 19.9429 25.1737 19.9429C25.5697 19.0716 26.0846 18.2399 26.3618 17.3289C26.4807 17.3686 26.4014 17.4478 26.4014 17.4874C26.4411 17.6062 26.4014 17.6854 26.4411 17.8042C26.4411 17.923 26.4411 18.0022 26.4411 18.121C26.4807 18.2399 26.4411 18.3191 26.4807 18.3983C26.4807 18.5171 26.4807 18.5963 26.4807 18.7151C26.5203 18.8339 26.4807 18.9131 26.5203 19.032C26.5203 19.1508 26.5203 19.23 26.5203 19.3488C26.5599 19.4676 26.5203 19.5468 26.5599 19.6656C26.5599 19.7052 26.5599 19.7844 26.5599 19.824C26.5995 19.8637 26.6787 19.8636 26.7183 19.8636C27.1935 19.8636 27.7084 19.8636 28.1837 19.8636C28.2233 19.8636 28.3025 19.8636 28.3421 19.8636C28.9362 18.8735 29.5302 17.923 30.1243 16.9329C30.4015 16.4972 30.6788 16.022 30.956 15.5863C30.9956 15.5863 30.9956 15.6259 30.9956 15.7052C30.956 15.9824 30.8768 16.1804 30.8372 16.4576C30.7184 17.0517 30.6392 17.6458 30.5203 18.2399C30.4015 18.7943 30.3223 19.3092 30.2035 19.8636C30.8372 19.9033 31.5501 19.9033 32.2233 19.8636C32.2629 19.5468 32.3422 19.23 32.3818 18.8735C32.4214 18.6755 32.4214 18.4379 32.5402 18.2399C32.9758 18.2003 33.3719 18.2003 33.8075 18.2399V18.2795C33.6887 18.7547 33.6491 19.2696 33.5303 19.7844C33.5303 19.9033 33.5699 19.9033 33.6887 19.9033C34.2828 19.9033 34.8373 19.9033 35.4313 19.9033C35.4709 19.9033 35.5897 19.9033 35.5897 19.8636C35.6293 19.2696 35.7878 18.7151 35.9066 18.121C35.9462 18.0814 35.9462 18.0814 35.9462 18.0022C35.9462 18.0418 35.9462 18.0418 35.9858 18.121C35.9858 18.3983 36.0254 18.5963 36.1442 18.8339C36.5799 19.6656 37.4116 19.8637 38.2037 19.9825C38.4809 20.0221 38.7977 19.9825 39.075 19.9825C39.1146 19.9429 39.1938 19.9429 39.273 19.9429C39.9067 19.824 40.5403 19.6656 41.1344 19.3092C41.5701 18.9923 41.9661 18.5963 42.1641 18.121C42.2037 18.121 42.2037 18.0814 42.2037 18.0022C42.2037 18.0022 42.2037 18.0022 42.2037 18.0418C42.2037 18.0814 42.2037 18.1606 42.2037 18.2003C42.0849 18.7547 42.0057 19.3488 41.8869 19.9033C41.9265 19.9429 42.0057 19.9429 42.0453 19.9429C43.2335 19.9429 44.4216 19.9429 45.6493 19.9429C45.689 19.9429 45.7682 19.9429 45.8078 19.9429C45.8474 19.4676 45.9662 18.9527 46.085 18.4775C46.0454 18.0022 45.9266 18.0814 45.887 18.0814ZM36.0254 16.8537C36.0254 16.8537 36.0254 16.8141 36.0254 16.8537L36.065 16.7349L36.0254 16.8537ZM40.2235 17.2497C40.1047 17.725 39.669 18.0814 39.1542 18.121C38.9958 18.121 38.8373 18.121 38.6789 18.121C38.2037 18.0022 37.966 17.5666 38.1244 17.0913C38.2829 16.6161 38.7581 16.2596 39.3918 16.2596C39.5106 16.2596 39.5898 16.2596 39.7878 16.2992C40.1047 16.4972 40.3423 16.8537 40.2235 17.2497ZM42.2829 17.5666C42.2829 17.6062 42.2829 17.6062 42.2433 17.6854C42.2829 17.6458 42.2829 17.5666 42.2829 17.5666C42.2829 17.527 42.3225 17.4478 42.3225 17.4478C42.3622 17.4874 42.3622 17.527 42.2829 17.5666Z" fill="#155DA3"/>
<path d="M39.3119 19.626C39.2725 19.6654 39.1542 19.626 39.1147 19.6654C39.1936 19.7048 39.233 19.7048 39.3119 19.626Z" fill="#155DA3"/>
<path d="M36.1043 16.616C36.1043 16.616 36.1043 16.6554 36.1043 16.616C36.1437 16.7342 36.1437 16.7342 36.1043 16.7735C36.1043 16.7735 36.1043 16.7735 36.0649 16.7735C36.0255 16.7735 36.0255 16.6554 36.1043 16.616Z" fill="#B2CCD7"/>
<path d="M42.2827 17.5658C42.2827 17.5264 42.3221 17.4476 42.3221 17.4082C42.3615 17.487 42.3615 17.5264 42.2827 17.5658Z" fill="#498DB8"/>
<path d="M36.1045 16.814C36.1045 16.8534 36.1045 16.9322 36.1045 16.9715C36.0257 16.8534 36.0257 16.8534 36.1045 16.814Z" fill="#5A98BB"/>
<path d="M42.283 17.5667C42.3224 17.606 42.3224 17.6848 42.283 17.7242C42.283 17.7242 42.283 17.7242 42.2437 17.6848C42.2437 17.6454 42.2437 17.5667 42.283 17.5667Z" fill="#C5D7DA"/>
<path d="M64.5011 18.0814C64.2239 18.0814 63.907 18.0814 63.6298 18.0814C63.4318 18.0814 63.1546 18.0814 62.9169 18.0814C62.9169 18.0418 62.9169 17.9626 62.9169 17.923C63.0753 16.9328 63.313 15.9823 63.4714 14.9922C63.511 14.8338 63.4318 14.8338 63.313 14.8338C62.7189 14.8338 62.1644 14.8338 61.5704 14.8338C61.4119 14.8338 61.3723 14.8734 61.3723 15.0318C61.2535 15.5071 61.2139 15.9427 61.0951 16.4576C60.9763 17.1705 60.8179 17.923 60.6594 18.6358C60.6198 18.7943 60.6595 19.0319 60.5406 19.1903C60.4218 18.7151 60.3426 18.2794 60.2238 17.7645C60.0258 16.8536 59.7881 15.9031 59.5901 14.9922C59.5505 14.8734 59.5505 14.8338 59.3921 14.8338C58.6792 14.8338 58.0455 14.8338 57.3327 14.8338C57.2138 14.8338 57.1742 14.8338 57.1346 14.9526C56.8574 15.3883 56.5802 15.8239 56.3821 16.2596C56.0653 16.814 55.6693 17.3289 55.3524 17.9626C55.3128 18.0022 55.2336 18.0814 55.2336 18.121C55.2336 18.121 55.2336 18.121 55.2336 18.0814C55.2336 18.0814 55.2336 18.0814 55.2336 18.0418C55.2336 18.0418 55.2336 18.0022 55.2336 17.923C55.194 17.8041 55.2336 17.7249 55.2336 17.6061C55.1148 17.2101 54.8376 16.9724 54.4811 16.7744C54.1643 16.6556 53.7682 16.616 53.4118 16.4972C53.293 16.4576 53.1345 16.4576 53.1345 16.2992C53.1345 16.1408 53.293 16.1011 53.4118 16.0219H53.4514C53.5702 15.9823 53.6494 15.9823 53.8474 16.0219C54.1247 16.0615 54.4019 16.1408 54.6791 16.2992C54.798 16.3388 54.8376 16.3388 54.8772 16.2596C55.0752 15.9427 55.2732 15.6259 55.4712 15.3487C55.59 15.1902 55.5108 15.1506 55.3524 15.0714C55.0356 14.913 54.6395 14.8734 54.2831 14.7942C54.2435 14.7546 54.1247 14.7942 54.0059 14.7546C53.887 14.7546 53.7286 14.7546 53.6098 14.7546C53.5702 14.7942 53.4514 14.7546 53.3326 14.7942C52.9365 14.8338 52.5801 14.9526 52.184 15.0714C52.1444 15.111 52.0652 15.0714 52.0256 15.111C51.986 15.111 51.986 15.1506 51.9068 15.1506C51.3523 15.4675 50.9959 15.9031 50.8771 16.5764C50.8771 16.616 50.8771 16.7348 50.8771 16.7744C50.8771 16.9724 50.9959 17.2101 51.1939 17.3685C51.5108 17.5665 51.8276 17.6853 52.2236 17.7645C52.4217 17.7645 52.6593 17.8041 52.8177 17.8834C52.8573 17.8834 52.9365 17.923 52.9365 18.0418C52.9365 18.0814 52.9365 18.1606 52.8177 18.2002C52.6593 18.319 52.4217 18.3586 52.2236 18.319C52.184 18.2794 52.0652 18.319 52.0256 18.2794C51.7088 18.2794 51.3919 18.0814 51.1147 17.8834C50.9959 17.8438 50.9563 17.8438 50.9167 17.923C50.7583 18.2002 50.5206 18.517 50.3226 18.7943C50.283 18.7943 50.283 18.8339 50.283 18.8339C50.283 18.7943 50.2434 18.7151 50.283 18.6755C50.283 18.517 50.283 18.3586 50.3226 18.2398C50.2038 18.2002 50.1642 18.2398 50.0454 18.2002C49.5701 18.2002 49.0157 18.2002 48.5404 18.2002C48.5008 18.1606 48.5404 18.0814 48.5404 18.0418C48.58 17.7645 48.58 17.7645 48.8572 17.7645C49.2533 17.7645 49.6097 17.7645 50.0454 17.7645C50.1642 17.7645 50.2038 17.7645 50.2434 17.6061C50.283 17.2893 50.3622 16.9725 50.4414 16.616C50.481 16.4972 50.4414 16.4576 50.3226 16.4576C50.1642 16.4576 49.9266 16.4576 49.7681 16.4576C49.4909 16.4576 49.1741 16.4576 48.8968 16.4576C48.8968 16.418 48.8968 16.3388 48.8968 16.3388C48.9364 16.0219 48.9364 16.0219 49.2137 16.0219C49.6493 16.0219 50.1246 16.0219 50.5602 16.0219C50.6791 16.0219 50.7187 16.0219 50.7187 15.9031C50.7583 15.5863 50.8375 15.1902 50.9167 14.8734C50.9563 14.715 50.9167 14.715 50.7583 14.715C50.2038 14.715 49.6097 14.715 49.0553 14.715C48.4216 14.715 47.7879 14.715 47.1542 14.715C47.1146 14.715 46.9958 14.6754 46.9958 14.7546C46.9562 15.2298 46.8374 15.7447 46.7186 16.22C46.5998 16.814 46.5206 17.4081 46.4017 18.0022C46.2829 18.4774 46.2433 18.9131 46.1245 19.4279C46.1245 19.5864 46.2433 19.5468 46.2829 19.5468C47.5503 19.5468 48.7384 19.5468 49.9662 19.5468C50.0058 19.5468 50.085 19.5864 50.1246 19.5072C50.1246 19.4675 50.1246 19.3487 50.1246 19.3091C50.1246 19.2695 50.1642 19.1903 50.2434 19.2695C50.6791 19.4279 51.1147 19.5864 51.59 19.5864C51.6296 19.626 51.7484 19.5864 51.788 19.626C52.1048 19.626 52.4217 19.6656 52.6989 19.626C53.3326 19.5072 53.9662 19.3091 54.4415 18.9131C54.4811 18.9131 54.4415 18.9527 54.4415 19.0319C54.3227 19.1903 54.2435 19.3487 54.1247 19.5864C54.1247 19.7052 54.2435 19.626 54.2831 19.626C54.9168 19.626 55.59 19.626 56.2237 19.626C56.2633 19.626 56.3425 19.626 56.3821 19.5864C56.4217 19.4279 56.5406 19.2695 56.5802 19.1111C56.6198 19.0715 56.6198 18.9923 56.7386 18.9923C57.1742 18.9923 57.6495 18.9923 58.0851 18.9923C58.204 18.9923 58.2436 19.0319 58.2436 19.1507C58.2436 19.3091 58.2436 19.4675 58.2832 19.5864C58.3228 19.626 58.402 19.5864 58.4416 19.5864C60.303 19.5864 62.204 19.5864 64.0259 19.5864C64.0655 19.5864 64.1447 19.5864 64.1843 19.5864C64.1843 19.4675 64.1843 19.4279 64.2239 19.3091C64.2635 18.9131 64.3823 18.4774 64.4219 18.121C64.6595 18.0022 64.5407 18.0814 64.5011 18.0814ZM58.1644 17.8438C57.9663 17.8438 57.7287 17.8438 57.5307 17.8438C57.4911 17.8438 57.4119 17.8438 57.4119 17.8042C57.6099 17.3289 57.8475 16.8932 58.0455 16.3784H58.0851C58.0851 16.814 58.1247 17.2893 58.204 17.7249C58.2832 17.8438 58.2832 17.8438 58.1644 17.8438Z" fill="#155DA3"/>
<path d="M55.1146 18.0022C55.1934 18.0022 55.1934 18.0022 55.1146 18.0022C55.154 18.1204 55.1146 18.1204 55.0752 18.1598C55.1146 18.081 55.1146 18.0022 55.1146 18.0022Z" fill="#B8D0D8"/>
</svg>
