<svg width="205" height="205" viewBox="0 0 205 205" fill="none" xmlns="http://www.w3.org/2000/svg">
<path d="M205 102.5C205 159.11 159.11 205 102.5 205C45.8901 205 0 159.11 0 102.5C0 45.8901 45.8901 0 102.5 0C159.11 0 205 45.8901 205 102.5Z" fill="#49B391"/>
<path d="M39.2383 134.131L109.843 204.736C163.025 200.971 205 156.64 205 102.5C205 96.4754 204.476 90.5743 203.478 84.8343L165.762 47.1178L39.2383 134.131Z" fill="#236852"/>
<path d="M39.2383 47.1178V134.131H77.0877L102.5 161.722L127.912 134.131H165.762V47.1178H39.2383Z" fill="#DBA510"/>
<path d="M108.767 92.0476C117.002 89.8204 123.061 82.3006 123.061 73.3622C123.061 62.669 114.393 54.0011 103.701 54.0011C93.0095 54.0011 84.3417 62.669 84.3417 73.3622C84.3417 82.3006 90.4007 89.8204 98.6353 92.0476C84.0195 94.4656 72.8711 107.156 72.8711 122.457H134.531C134.531 107.156 123.383 94.4656 108.767 92.0476Z" fill="white"/>
</svg>
