<svg width="205" height="205" viewBox="0 0 205 205" fill="none" xmlns="http://www.w3.org/2000/svg">
<path d="M102.5 0C45.8906 0 0 45.891 0 102.5C0 148.63 30.4728 187.642 72.3868 200.505L203.78 86.6343C196.154 37.5587 153.713 0 102.5 0Z" fill="#49B391"/>
<path d="M203.777 86.6357L160.435 43.2938L153.793 51.2063L124.101 21.5143L94.9239 18.2717L78.4348 29.8587L44.5652 172.677L72.3899 200.502C81.9113 203.424 92.0214 205 102.5 205C159.109 205 205 159.109 205 102.5C205 97.104 204.58 91.8066 203.777 86.6357Z" fill="#236852"/>
<path d="M102.322 12.4783L97.8652 16.9348L102.322 21.3913C114.399 21.3913 124.224 31.2166 124.224 43.2938V76.2025H133.137V43.2938C133.137 26.3019 119.314 12.4783 102.322 12.4783Z" fill="#DBA510"/>
<path d="M102.322 21.3913C90.2447 21.3913 80.4194 31.2166 80.4194 43.2938V76.2025H71.5063V43.2938C71.5063 26.3019 85.33 12.4783 102.322 12.4783V21.3913Z" fill="#DBA510"/>
<path d="M160 43H45V173H160V43Z" fill="#DBA510"/>
<path d="M151.521 107.986C151.521 135.059 129.574 157.007 102.5 157.007L77.989 107.986L102.5 58.9642C129.574 58.9642 151.521 80.9117 151.521 107.986Z" fill="#940030"/>
<path d="M53.4788 107.986C53.4788 135.059 75.4262 157.007 102.5 157.007V58.9642C75.4262 58.9642 53.4788 80.9117 53.4788 107.986Z" fill="#FF0F27"/>
<path d="M102.5 148.094L98.2778 105.874L142.608 107.986C142.608 130.102 124.616 148.094 102.5 148.094Z" fill="#236852"/>
<path d="M102.5 67.8773C124.616 67.8773 142.608 85.8692 142.608 107.986H98.2778L102.5 67.8773Z" fill="#C2FBFF"/>
<path d="M102.5 107.986V148.094C80.3837 148.094 62.3918 130.102 62.3918 107.986L82.4462 101.653L102.5 107.986Z" fill="#C2FBFF"/>
<path d="M102.5 67.8773V107.986H62.3918C62.3918 85.8687 80.3837 67.8773 102.5 67.8773Z" fill="white"/>
<path d="M106.956 76.7903H98.0435V107.986H106.956V76.7903Z" fill="#FF0F27"/>
<path d="M133.696 103.529H102.5V112.443H133.696V103.529Z" fill="#C2001B"/>
<path d="M102.5 114.67C106.192 114.67 109.185 111.677 109.185 107.986C109.185 104.294 106.192 101.301 102.5 101.301C98.8081 101.301 95.8152 104.294 95.8152 107.986C95.8152 111.677 98.8081 114.67 102.5 114.67Z" fill="#61A2B3"/>
</svg>
