<svg width="76" height="16" viewBox="0 0 76 16" fill="none" xmlns="http://www.w3.org/2000/svg">
<path d="M0 0.237549H1.93406V0.615953C1.93406 2.76024 1.93406 4.94656 1.93406 7.09085C1.93406 7.38516 2.01815 7.46925 2.31246 7.46925C3.1954 7.46925 4.12039 7.46925 5.00333 7.46925C5.29764 7.46925 5.38173 7.38516 5.38173 7.09085C5.38173 4.94656 5.38173 2.71819 5.38173 0.531861V0.237549H7.23171V15.7941H5.38173V8.94082C5.29765 8.94082 5.17151 8.94082 5.08742 8.94082C4.20448 8.94082 3.27949 8.94082 2.31246 8.94082C2.01815 8.94082 2.01815 9.02491 2.01815 9.31922C2.01815 11.4215 2.01815 13.3976 2.01815 15.4998V15.8782H0.0840896L0 0.237549Z" fill="#19358E"/>
<path d="M65.9684 7.81318C66.0525 9.62111 65.8002 11.3029 65.4639 13.0267C65.3798 13.4892 65.1696 13.9097 65.0014 14.2881C64.4128 15.4233 63.1935 16.096 61.9321 15.8437C60.5026 15.7597 59.4094 14.7926 59.1151 13.4472C58.8208 12.312 58.6106 11.2188 58.5265 10.0416C58.3583 8.23363 58.4424 6.46775 58.6106 4.74391C58.6947 3.77688 58.9049 2.80985 59.2833 1.84282C59.7878 0.581475 61.1333 -0.17533 62.5628 0.0348941C63.8241 0.118984 64.9593 1.00192 65.3377 2.17918C65.6321 3.14621 65.8423 4.11324 65.9264 5.16436C65.9684 6.08934 65.9684 7.05638 65.9684 7.81318ZM64.1184 8.56999C64.0344 7.01433 64.0344 5.79503 63.9082 4.70187C63.8241 4.02915 63.698 3.27234 63.4457 2.59963C63.2775 2.09509 62.773 1.71669 62.2685 1.71669C61.7639 1.71669 61.2174 2.011 61.0071 2.51554C60.7128 3.18826 60.6287 3.86097 60.5446 4.53369C60.3765 6.67797 60.3765 8.90635 60.5446 11.0927C60.6287 11.8495 60.7549 12.5222 61.0071 13.237C61.1753 13.7415 61.6798 14.0358 62.1844 14.0358C62.6889 14.1199 63.2355 13.8256 63.4457 13.279C63.6139 12.9847 63.74 12.6063 63.8241 12.2279C63.9923 10.8825 64.0344 9.53702 64.1184 8.56999Z" fill="#19358E"/>
<path d="M49.3186 7.76365C49.3186 6.1239 49.4868 4.48415 49.7811 2.8444C49.8652 2.63418 49.9493 2.33987 49.9913 2.0876C50.664 0.363763 52.5981 -0.435089 54.2378 0.237628C54.4481 0.321717 54.7003 0.447852 54.9106 0.616032C55.4151 0.994435 55.7935 1.58306 56.0458 2.17169C56.4242 3.22281 56.6344 4.27393 56.6344 5.283C56.7185 6.83866 56.7185 8.35227 56.7185 9.82384C56.7185 11.0852 56.5083 12.4306 56.1299 13.6079C55.8355 14.659 54.9946 15.5419 53.9015 15.7522C52.3458 16.2147 50.7061 15.3738 50.1175 13.8181C49.739 12.8511 49.5288 11.884 49.4447 10.8329C49.4027 9.86589 49.4027 8.81477 49.3186 7.76365ZM54.9106 8.60454C54.8265 7.04889 54.8265 5.82959 54.7424 4.73642C54.6583 4.0637 54.5322 3.39099 54.2799 2.80236C54.1117 2.29782 53.6072 1.91942 53.1026 1.91942C52.5981 1.83533 51.9674 2.21373 51.8413 2.71827C51.6311 3.3069 51.4629 3.97962 51.3788 4.65233C51.1686 6.88071 51.1686 9.10908 51.3788 11.3375C51.4629 12.0102 51.589 12.767 51.8413 13.4397C52.0095 13.9442 52.514 14.2385 53.0185 14.2385C53.5231 14.3226 54.0697 14.0283 54.1958 13.4817C54.364 13.1033 54.4901 12.7249 54.5742 12.3465C54.8265 10.917 54.9106 9.48749 54.9106 8.60454Z" fill="#19358E"/>
<path d="M18.5418 0.195557H20.3918V0.573957C20.3918 4.06368 20.3918 7.5534 20.3918 11.0852C20.3918 11.7579 20.4758 12.4306 20.602 13.1874C20.6861 13.6919 21.0645 14.0703 21.569 14.1544C21.9474 14.2385 22.3258 14.2385 22.6201 14.1544C23.1247 14.0703 23.5031 13.6919 23.5031 13.1874C23.5872 12.7249 23.6713 12.3885 23.6713 11.9261C23.6713 8.14202 23.6713 4.40004 23.6713 0.616005V0.237601H25.5212C25.5212 0.32169 25.5212 0.447824 25.5212 0.531913C25.5212 4.31595 25.5212 8.18407 25.5212 12.0101C25.5212 12.6829 25.4371 13.3556 25.311 13.9442C25.1008 14.8271 24.4281 15.584 23.461 15.7942C22.5781 16.0044 21.6531 16.0885 20.8543 15.8783C19.5929 15.668 18.71 14.5328 18.71 13.2715C18.6259 12.5988 18.5418 11.9261 18.5418 11.2533C18.5418 7.67953 18.5418 4.10572 18.5418 0.531913C18.4997 0.489868 18.4997 0.321691 18.5418 0.195557Z" fill="#19358E"/>
<path d="M13.118 0.0273438L17.5747 15.7941C16.9861 15.7941 16.4395 15.7941 15.935 15.7941C15.8509 15.7941 15.7248 15.626 15.7248 15.5839C15.5145 14.7851 15.2623 13.9442 15.052 13.1453C15.052 12.9771 14.8839 12.851 14.6736 12.851H11.4782C11.268 12.851 11.1839 12.9351 11.0998 13.1453C10.8896 13.9442 10.6373 14.701 10.4271 15.5419C10.343 15.7521 10.2589 15.8362 10.0487 15.8362C9.54418 15.8362 9.08169 15.8362 8.57715 15.8362L13.118 0.0273438ZM14.4634 11.2113L13.118 5.91362H13.0339L11.6885 11.2113H14.4634Z" fill="#19358E"/>
<path d="M40.9098 0.195557C40.9098 0.700094 40.9098 1.16258 40.9098 1.62508C40.9098 1.70917 40.6996 1.79326 40.6155 1.79326C39.6485 1.79326 38.7655 1.79326 37.7985 1.79326C37.4201 1.79326 37.4201 1.79326 37.4201 2.17166C37.4201 3.72732 37.4201 5.28298 37.4201 6.92272V7.30113H40.5314V8.94087H37.4621C37.4621 9.10905 37.4621 9.1511 37.4621 9.31928C37.4621 10.8749 37.4621 12.3885 37.4621 13.9442C37.4621 14.2385 37.5462 14.3226 37.8405 14.3226C38.8076 14.3226 39.6905 14.3226 40.6575 14.3226C40.8678 14.3226 40.9519 14.4067 40.9519 14.6169C40.9519 15.0794 40.9519 15.4158 40.9519 15.8783H35.8224C35.6122 15.8783 35.5281 15.7942 35.5281 15.584C35.5281 10.5806 35.5281 5.61934 35.5281 0.616005C35.5281 0.321691 35.6122 0.237601 35.9065 0.237601L40.9098 0.195557Z" fill="#19358E"/>
<path d="M27.1187 0.195557H33.8879C33.8879 0.700094 33.8879 1.16259 33.8879 1.66712C33.8879 1.75121 33.7197 1.8353 33.5936 1.8353H31.8697C31.4913 1.8353 31.4913 1.8353 31.4913 2.2978V15.8362H29.6413V2.2978C29.6413 1.8353 29.6413 1.8353 29.1788 1.8353H27.3709C27.1607 1.8353 27.0766 1.75121 27.1607 1.54099C27.1187 1.16259 27.1187 0.700094 27.1187 0.195557Z" fill="#19358E"/>
<path d="M48.4777 14.2386V15.7942H43.0959C43.0959 15.6261 43.0959 15.584 43.0959 15.4158C43.0959 10.4125 43.0959 5.49326 43.0959 0.531968C43.0959 0.237655 43.18 0.153564 43.4744 0.153564C43.9789 0.153564 44.5255 0.153564 45.03 0.153564V13.8181C45.03 14.1965 45.03 14.1965 45.4084 14.1965H48.0993L48.4777 14.2386Z" fill="#19358E"/>
<path d="M75.6806 0C75.5966 0.168179 75.5966 0.294311 75.5125 0.378401C74.4613 2.69086 73.3682 5.00333 72.3171 7.31579C72.233 7.48397 72.233 7.6942 72.3171 7.82033C73.3682 10.2589 74.4613 12.8237 75.5125 15.2623C75.5966 15.3463 75.5966 15.4725 75.6806 15.6407C75.0079 15.6407 74.3352 15.6407 73.6625 15.6407C73.5784 15.6407 73.4943 15.4725 73.4523 15.4304L71.35 10.4271C70.9716 9.62826 70.5932 8.70327 70.2989 7.82033C70.2148 7.65215 70.2148 7.52602 70.2989 7.35784C71.35 4.96129 72.4012 2.64882 73.4102 0.294312C73.4943 0.126133 73.6204 0 73.8727 0C74.4193 0 75.0079 0 75.6806 0Z" fill="#19358E"/>
<path d="M69.7943 15.5566H67.9443V0H69.7943V15.5566Z" fill="#19358E"/>
</svg>
