<svg width="160" height="33" viewBox="0 0 160 33" fill="none" xmlns="http://www.w3.org/2000/svg">
<path d="M63.7333 18.2222H63.6444H62.6666C62.4889 18.2222 61.9555 18.1333 61.4222 17.6889L53.1555 9.68889L60.9777 9.24445L64.2666 17.4222C64.2666 17.6 64.5333 18.2222 63.7333 18.2222Z" fill="#236852"/>
<path d="M66.1333 1.86667C66.0444 1.95556 66.0444 1.95556 66.1333 1.86667L60.8889 9.24445L53.0667 9.68889L63.4667 1.06667C63.9111 0.711112 64.3555 0.622223 64.5333 0.622223H65.2444H65.3333C66.7555 0.711112 66.3111 1.6 66.1333 1.86667Z" fill="#236852"/>
<path d="M15.3778 16.9778C15.5556 17.3333 15.5556 17.5111 15.2 17.6L11.5556 18.4C11.4667 18.4 11.2889 18.4 11.1111 18.4C10.8444 18.4 10.6667 18.2222 10.4889 17.9555C10.3111 17.6889 10.1333 17.2444 10.0444 16.7111C9.42222 17.3333 8.71111 17.7778 8 18.1333C7.28889 18.4 6.48889 18.5778 5.6 18.5778C4.71111 18.5778 3.82222 18.4889 3.11111 18.2222C2.4 17.9555 1.77778 17.6 1.33333 17.0666C1.06667 16.8 0.8 16.4444 0.622222 16.1778C0.444444 15.9111 0.355556 15.5555 0.266667 15.2C0.177778 14.8444 0.0888889 14.4 0.0888889 13.8666C0 13.1555 0 12.5333 0 11.7333V1.77775C0 1.51109 0 1.33331 0.0888889 1.33331C0.177778 1.24442 0.266667 1.24442 0.533333 1.15553L4.71111 0.533311C4.97778 0.444422 5.15556 0.533311 5.24444 0.533311C5.33333 0.6222 5.33333 0.799976 5.33333 1.06664V12.2666C5.33333 13.1555 5.42222 13.7778 5.68889 14.2222C5.95556 14.5778 6.4 14.8444 7.02222 14.8444C7.91111 14.8444 8.71111 14.4889 9.51111 13.7778V1.86664C9.51111 1.59998 9.51111 1.4222 9.6 1.4222C9.68889 1.33331 9.77778 1.33331 10.0444 1.24442L14.1333 0.622199C14.4889 0.53331 14.6667 0.53331 14.6667 0.622199C14.7556 0.711088 14.7556 0.799978 14.7556 1.15553V13.6C14.7556 14.4889 14.8444 15.2 14.9333 15.6444C15.0222 16 15.1111 16.4444 15.3778 16.9778Z" fill="#4BC999"/>
<path d="M30.9333 12.8889C30.9333 13.7778 30.7555 14.5778 30.4888 15.2889C30.2222 16 29.7777 16.5334 29.1555 17.0667C28.6222 17.5111 27.9111 17.8667 27.2 18.1333C26.4 18.4 25.6 18.4889 24.7111 18.4889C23.3777 18.4889 22.1333 18.3111 20.9777 18.0445C19.8222 17.7778 18.8444 17.3333 18.0444 16.8889C17.7777 16.7111 17.6888 16.6222 17.6888 16.5333C17.6888 16.4445 17.6888 16.2667 17.7777 16L18.6666 13.1556C18.7555 12.9778 18.7555 12.8889 18.9333 12.8889C19.0222 12.8889 19.2 12.8889 19.3777 12.9778C19.7333 13.1556 20.0888 13.3334 20.5333 13.5111C20.9777 13.6889 21.4222 13.8667 21.8666 14.0445C22.3111 14.2222 22.7555 14.3111 23.2 14.4C23.6444 14.4889 24 14.5778 24.3555 14.5778C24.8888 14.5778 25.3333 14.4889 25.6 14.2222C25.8666 14.0445 26.0444 13.6889 26.0444 13.2445C26.0444 12.8 25.8666 12.4445 25.4222 12.2667C24.9777 12.0889 24.3555 11.7333 23.3777 11.3778C22.4 11.0222 21.6 10.6667 21.0666 10.3111C20.4444 10.0445 20 9.6889 19.6444 9.24446C19.2888 8.8889 19.0222 8.44446 18.7555 7.91113C18.4888 7.37779 18.4 6.75557 18.4 5.95557C18.4 5.06668 18.5777 4.35557 18.9333 3.64446C19.2888 2.93335 19.7333 2.40002 20.2666 1.86668C20.8888 1.42224 21.5111 0.977793 22.3111 0.800015C23.1111 0.533348 24 0.444458 24.8888 0.444458C26.0444 0.444458 27.1111 0.533348 28 0.800015C28.8888 1.06668 29.6888 1.33335 30.3111 1.6889C30.4888 1.77779 30.5777 1.86668 30.5777 1.95557C30.5777 2.04446 30.5777 2.22224 30.4888 2.40001L29.4222 5.06668C29.3333 5.24446 29.2444 5.33335 29.1555 5.33335C29.0666 5.33335 28.9777 5.33335 28.8 5.24446C28.1777 4.97779 27.5555 4.80002 26.9333 4.53335C26.3111 4.35557 25.6888 4.17779 25.1555 4.17779C24.6222 4.17779 24.1777 4.26668 23.8222 4.53335C23.4666 4.71113 23.2888 5.06668 23.2888 5.51113C23.2888 5.95557 23.4666 6.31113 23.8222 6.48891C24.1777 6.66668 24.8 6.93335 25.6 7.28891C26.7555 7.73335 27.6444 8.17779 28.2666 8.44446C28.8888 8.80001 29.4222 9.15557 29.9555 9.6889C30.5777 10.4889 30.9333 11.5556 30.9333 12.8889Z" fill="#4BC999"/>
<path d="M48.0889 9.86666C48.0889 10.2222 48 10.4 47.9111 10.4889C47.8223 10.5778 47.6445 10.5778 47.2889 10.5778H37.8667C37.9556 11.9111 38.2222 12.8889 38.7556 13.5111C39.2889 14.1333 40.0889 14.4 41.1556 14.4C42.0445 14.4 42.7556 14.3111 43.3778 14.0444C44 13.8667 44.7111 13.5111 45.3334 13.1556C45.6889 12.9778 45.9556 12.9778 46.1334 13.3333L47.2889 15.6444C47.4667 15.9111 47.3778 16.1778 47.2 16.3556C47.0222 16.5333 46.6667 16.7111 46.3111 16.8889C45.3334 17.4222 44.4445 17.7778 43.4667 17.9556C42.5778 18.1333 41.6889 18.3111 40.8 18.3111C38.1334 18.3111 36.0889 17.5111 34.7556 16C33.6 14.5778 32.8889 12.3556 32.8889 9.51111C32.8889 8.17778 33.0667 6.93333 33.4222 5.77777C33.7778 4.62222 34.3111 3.64444 35.0223 2.84444C35.7334 2.04444 36.5334 1.42222 37.5111 0.977773C38.4889 0.533329 39.5556 0.266663 40.8 0.266663C43.2889 0.266663 45.1556 1.06666 46.3111 2.66666C47.4667 4.35555 48.0889 6.75555 48.0889 9.86666ZM42.3111 4.44444C41.9556 3.99999 41.4222 3.73333 40.6223 3.73333C39.8222 3.73333 39.2 3.99999 38.8445 4.44444C38.4889 4.97777 38.2222 5.77777 38.0445 7.1111H42.9334C42.8445 5.86666 42.6667 4.97777 42.3111 4.44444Z" fill="#236852"/>
<path d="M83.6445 9.06666C83.6445 12.1778 83.1112 14.4889 82.0445 16C80.9778 17.5111 79.2001 18.3111 76.889 18.3111C76.2667 18.3111 75.7334 18.2222 75.289 18.1333C74.8445 18.0444 74.3112 17.7778 73.8667 17.6V23.7333C73.8667 24 73.8667 24.0889 73.7778 24.1778C73.689 24.2667 73.6001 24.2667 73.4223 24.3556L69.0667 24.9778C68.889 25.0667 68.7112 24.9778 68.6223 24.8889C68.5334 24.8 68.5334 24.6222 68.5334 24.3556L68.4445 5.68888C68.4445 4.97777 68.3556 4.35555 68.2667 3.73333C68.089 3.19999 68.0001 2.66666 67.8223 2.13333C67.7334 1.95555 67.7334 1.77777 67.7334 1.77777C67.7334 1.68888 67.8223 1.6 68.0001 1.6L71.5556 0.35555C71.7334 0.266661 71.9112 0.266663 72.0001 0.266663C72.1778 0.266663 72.3556 0.44444 72.5334 0.711107C72.7112 0.977774 72.8001 1.42222 72.9778 1.86666C73.6001 1.24444 74.3112 0.888883 74.9334 0.622216C75.5556 0.355549 76.3556 0.266663 77.1556 0.266663C79.289 0.266663 80.9778 1.06666 82.0445 2.66666C83.1112 4.17777 83.6445 6.31111 83.6445 9.06666ZM78.489 9.24444C78.489 7.37777 78.3112 6.04444 77.8667 5.33333C77.4223 4.53333 76.889 4.17777 76.089 4.17777C75.7334 4.17777 75.289 4.26666 74.9334 4.44444C74.5778 4.62222 74.1334 4.88888 73.689 5.24444V14.4C74.4001 14.7556 75.1112 14.9333 75.7334 14.9333C76.1778 14.9333 76.6223 14.8444 76.9778 14.6667C77.3334 14.4889 77.6001 14.2222 77.7778 13.7778C77.9556 13.3333 78.1334 12.8 78.2223 12.0889C78.489 11.2 78.489 10.3111 78.489 9.24444Z" fill="#236852"/>
<path d="M96.7111 1.06667C96.8 1.15556 96.8889 1.33334 96.8 1.42222C96.7111 1.6 96.7111 1.68889 96.6222 1.77778L95.4666 4.8C95.3778 5.06667 95.2 5.15556 94.9333 5.06667C94.7555 4.97778 94.4889 4.88889 94.2222 4.71111C93.9555 4.62223 93.6889 4.53334 93.3333 4.53334C92.9778 4.53334 92.6222 4.62222 92.2666 4.8C91.9111 4.97778 91.5555 5.33333 91.1111 5.86667V16.9778C91.1111 17.2444 91.1111 17.4222 91.0222 17.4222C90.9333 17.5111 90.8444 17.5111 90.5778 17.5111H86.3111C86.0444 17.5111 85.8666 17.5111 85.8666 17.4222C85.7777 17.3333 85.7778 17.2444 85.7778 16.9778V6.4C85.7778 5.42223 85.6889 4.53333 85.4222 3.73333C85.2444 2.93333 84.9778 2.31111 84.8 1.86667C84.7111 1.68889 84.7111 1.51111 84.6222 1.33333C84.6222 1.15556 84.7111 1.06667 84.9777 0.97778L88.2666 0.0888909C88.4444 2.03318e-06 88.6222 0 88.7111 0C88.9778 0 89.2444 0.177778 89.4222 0.622223C89.6889 1.06667 89.8666 1.6 90.0444 2.4C90.1333 2.31111 90.1333 2.31111 90.2222 2.22222C90.3111 2.13333 90.3111 2.04445 90.4 2.04445C91.0222 1.33334 91.6444 0.888891 92.1777 0.533335C92.7111 0.17778 93.4222 0 94.1333 0C94.5778 0 95.0222 0.0888916 95.4666 0.266669C96.0889 0.533336 96.4444 0.800001 96.7111 1.06667Z" fill="#236852"/>
<path d="M111.822 9.77778C111.822 10.1333 111.733 10.3111 111.644 10.4C111.556 10.4889 111.378 10.4889 111.022 10.4889H101.6C101.689 11.8222 101.956 12.8 102.489 13.4222C103.022 14.0444 103.822 14.3111 104.889 14.3111C105.778 14.3111 106.489 14.2222 107.111 13.9556C107.733 13.7778 108.444 13.4222 109.067 13.0667C109.422 12.8889 109.689 12.8889 109.867 13.2445L111.022 15.5556C111.2 15.8222 111.111 16.0889 110.933 16.2667C110.756 16.4445 110.4 16.6222 110.044 16.8C109.067 17.3333 108.178 17.6889 107.2 17.8667C106.311 18.0445 105.422 18.2222 104.533 18.2222C101.867 18.2222 99.8222 17.4222 98.4889 15.9111C97.1556 14.4 96.4445 12.1778 96.4445 9.33334C96.4445 8.00001 96.6222 6.75557 96.9778 5.60001C97.3333 4.44445 97.8667 3.46667 98.5778 2.66667C99.2889 1.86667 100.089 1.24445 101.067 0.800008C102.044 0.355564 103.111 0.0888977 104.356 0.0888977C106.844 0.0888977 108.711 0.888898 109.867 2.4889C111.2 4.17779 111.733 6.57778 111.822 9.77778ZM105.956 4.35556C105.6 3.91112 105.067 3.64445 104.267 3.64445C103.467 3.64445 102.844 3.91112 102.489 4.35556C102.133 4.8889 101.867 5.6889 101.689 7.02223H106.578C106.578 5.6889 106.311 4.80001 105.956 4.35556Z" fill="#236852"/>
<path d="M126.844 12.7111C126.844 13.6 126.667 14.4 126.4 15.1111C126.133 15.8222 125.689 16.3556 125.067 16.8889C124.533 17.3333 123.822 17.6889 123.111 17.9556C122.311 18.2222 121.511 18.3111 120.622 18.3111C119.289 18.3111 118.044 18.1333 116.889 17.8667C115.733 17.6 114.756 17.1556 113.956 16.7111C113.689 16.5333 113.6 16.4444 113.6 16.3556C113.6 16.2667 113.6 16.0889 113.689 15.8222L114.578 12.9778C114.667 12.8 114.667 12.7111 114.844 12.7111C114.933 12.7111 115.111 12.7111 115.289 12.8C115.644 12.9778 116 13.1556 116.444 13.3333C116.889 13.5111 117.333 13.6889 117.778 13.8667C118.222 14.0444 118.667 14.1333 119.111 14.2222C119.556 14.3111 119.911 14.4 120.267 14.4C120.8 14.4 121.244 14.3111 121.511 14.0444C121.778 13.8667 121.956 13.5111 121.956 13.0667C121.956 12.6222 121.778 12.2667 121.333 12.0889C120.889 11.9111 120.267 11.5555 119.289 11.2C118.311 10.8444 117.511 10.4889 116.978 10.1333C116.356 9.86666 115.911 9.51111 115.556 9.06666C115.2 8.71111 114.844 8.26666 114.667 7.73333C114.4 7.2 114.311 6.57777 114.311 5.77777C114.311 4.88888 114.489 4.17777 114.844 3.46666C115.2 2.75555 115.644 2.22222 116.178 1.68888C116.8 1.24444 117.422 0.799994 118.222 0.622216C119.022 0.355549 119.911 0.266663 120.8 0.266663C121.956 0.266663 123.022 0.355549 123.911 0.622216C124.8 0.888883 125.6 1.15555 126.222 1.51111C126.4 1.59999 126.489 1.68888 126.489 1.77777C126.489 1.86666 126.489 2.04444 126.4 2.22222L125.333 4.88888C125.244 5.06666 125.156 5.15555 125.067 5.15555C124.978 5.15555 124.889 5.15555 124.711 5.06666C124.089 4.79999 123.467 4.62222 122.844 4.35555C122.222 4.17777 121.6 3.99999 121.067 3.99999C120.533 3.99999 120.089 4.08888 119.733 4.35555C119.378 4.53333 119.2 4.88888 119.2 5.33333C119.2 5.77777 119.378 6.13333 119.733 6.3111C120.089 6.48888 120.711 6.75555 121.511 7.1111C122.667 7.55555 123.556 8 124.178 8.26666C124.8 8.62222 125.333 8.97778 125.867 9.51111C126.489 10.2222 126.844 11.3778 126.844 12.7111Z" fill="#236852"/>
<path d="M141.511 12.7111C141.511 13.6 141.333 14.4 141.067 15.1111C140.8 15.8222 140.355 16.3556 139.733 16.8889C139.2 17.3333 138.489 17.6889 137.778 17.9556C136.978 18.2222 136.178 18.3111 135.289 18.3111C133.955 18.3111 132.711 18.1333 131.555 17.8667C130.4 17.6 129.422 17.1556 128.622 16.7111C128.355 16.5333 128.267 16.4444 128.267 16.3556C128.267 16.2667 128.267 16.0889 128.355 15.8222L129.244 12.9778C129.333 12.8 129.333 12.7111 129.511 12.7111C129.6 12.7111 129.778 12.7111 129.955 12.8C130.311 12.9778 130.667 13.1556 131.111 13.3333C131.555 13.5111 132 13.6889 132.444 13.8667C132.889 14.0444 133.333 14.1333 133.778 14.2222C134.222 14.3111 134.578 14.4 134.933 14.4C135.467 14.4 135.911 14.3111 136.178 14.0444C136.444 13.8667 136.622 13.5111 136.622 13.0667C136.622 12.6222 136.444 12.2667 136 12.0889C135.555 11.9111 134.933 11.5555 133.955 11.2C132.978 10.8444 132.178 10.4889 131.644 10.1333C131.022 9.86666 130.578 9.51111 130.222 9.06666C129.867 8.71111 129.511 8.26666 129.333 7.73333C129.067 7.2 128.978 6.57777 128.978 5.77777C128.978 4.88888 129.155 4.17777 129.511 3.46666C129.867 2.75555 130.311 2.22222 130.844 1.68888C131.467 1.24444 132.089 0.799994 132.889 0.622216C133.689 0.355549 134.578 0.266663 135.467 0.266663C136.622 0.266663 137.689 0.355549 138.578 0.622216C139.467 0.888883 140.178 1.15555 140.889 1.51111C141.067 1.59999 141.155 1.68888 141.155 1.77777C141.155 1.86666 141.155 2.04444 141.067 2.22222L140 4.88888C139.911 5.06666 139.822 5.15555 139.822 5.15555C139.733 5.15555 139.644 5.15555 139.467 5.06666C138.844 4.79999 138.222 4.62222 137.6 4.35555C136.978 4.17777 136.355 3.99999 135.822 3.99999C135.289 3.99999 134.844 4.08888 134.489 4.35555C134.133 4.53333 133.955 4.88888 133.955 5.33333C133.955 5.77777 134.133 6.13333 134.489 6.3111C134.844 6.48888 135.467 6.75555 136.267 7.1111C137.422 7.55555 138.311 8 138.933 8.26666C139.555 8.62222 140.089 8.97778 140.622 9.51111C141.155 10.2222 141.511 11.2889 141.511 12.7111Z" fill="#236852"/>
<path d="M52.6222 1.24445C51.9999 0.711112 51.4666 0.622223 51.2888 0.622223H50.311H50.2221C49.4221 0.711112 49.6888 1.33334 49.7777 1.42222L53.1555 9.24445H60.8888L52.6222 1.24445Z" fill="#72E8B2"/>
<path d="M50.4889 17.8667L60.8889 9.24445H53.1556L47.9112 16.8889V16.9778C47.7334 17.2444 47.2889 18.2222 48.6223 18.2222H48.7111H49.4223C49.6 18.3111 50.0445 18.2222 50.4889 17.8667Z" fill="#4BC999"/>
<path d="M143.2 17.0667C143.2 16.8889 143.2 16.8 143.289 16.6222C143.378 16.5333 143.378 16.3555 143.556 16.2667C143.644 16.1778 143.733 16.0889 143.911 16C144.089 15.9111 144.178 15.9111 144.355 15.9111C144.533 15.9111 144.711 15.9111 144.8 16C144.978 16.0889 145.067 16.0889 145.156 16.2667C145.244 16.3555 145.333 16.4444 145.422 16.6222C145.511 16.7111 145.511 16.8889 145.511 17.0667C145.511 17.2444 145.511 17.3333 145.422 17.5111C145.333 17.6 145.333 17.7778 145.156 17.8667C145.067 17.9555 144.978 18.0444 144.8 18.1333C144.622 18.2222 144.533 18.2222 144.355 18.2222C144.178 18.2222 144 18.2222 143.911 18.1333C143.733 18.0444 143.644 18.0444 143.556 17.9555C143.467 17.8667 143.378 17.7778 143.289 17.6C143.289 17.4222 143.2 17.2444 143.2 17.0667Z" fill="#4BC999"/>
<path d="M149.156 15.7333L150.578 10.6667H152.622L150.133 18.1333H148.178L145.689 10.6667H147.733L149.156 15.7333Z" fill="#4BC999"/>
<path d="M155.378 10.6666L155.467 11.5555C155.733 11.2 156 11.0222 156.444 10.8444C156.8 10.6667 157.244 10.5778 157.689 10.5778C158.044 10.5778 158.4 10.6666 158.667 10.7555C158.933 10.8444 159.2 11.0222 159.378 11.2C159.555 11.4666 159.733 11.7333 159.822 12.0889C159.911 12.4444 160 12.8889 160 13.4222V18.2222H157.955V13.4222C157.955 13.1555 157.955 12.9778 157.867 12.8C157.778 12.6222 157.778 12.5333 157.6 12.4444C157.511 12.3555 157.333 12.2666 157.244 12.2666C157.067 12.2666 156.889 12.1778 156.711 12.1778C156.444 12.1778 156.178 12.2666 155.911 12.3555C155.733 12.4444 155.555 12.6222 155.378 12.8889V18.2222H153.333V10.6666H155.378Z" fill="#4BC999"/>
<path d="M91.9111 27.9111C91.9111 29.6889 90.5777 31.0222 88.7111 31.0222H86.2222V28.2667H85.2444V27.6444H86.2222V24.8889H88.7111C90.5777 24.8889 91.9111 26.1333 91.9111 27.9111ZM90.8444 27.9111C90.8444 26.6667 89.8666 25.7778 88.7111 25.7778H87.2888V27.6444H89.0666V28.2667H87.2888V30.1333H88.7999C89.9555 30.0444 90.8444 29.1556 90.8444 27.9111Z" fill="#236852"/>
<path d="M97.3333 28.6222C97.3333 30.0445 96.3555 31.0222 94.9333 31.0222C93.5111 31.0222 92.5333 30.0445 92.5333 28.6222C92.5333 27.2 93.5111 26.2222 94.9333 26.2222C95.2888 26.2222 95.6444 26.3111 95.9111 26.4C96.2666 26.3111 96.5333 25.9556 96.5333 25.6H97.3333C97.3333 26.1333 97.0666 26.5778 96.7111 26.8445C97.0666 27.2889 97.3333 27.9111 97.3333 28.6222ZM96.3555 28.7111C96.3555 27.8222 95.7333 27.2 94.9333 27.2C94.1333 27.2 93.511 27.8222 93.511 28.7111C93.511 29.6 94.1333 30.2222 94.9333 30.2222C95.7333 30.2222 96.3555 29.6 96.3555 28.7111Z" fill="#236852"/>
<path d="M102.933 28.0889V31.0222H101.955V28.3556C101.955 27.6445 101.511 27.2 100.8 27.2C99.9999 27.2 99.5555 27.7333 99.4666 28.4445V30.9333H98.4888V26.2222H99.4666V27.1111C99.8222 26.4889 100.355 26.2222 101.155 26.2222C102.222 26.3111 102.933 27.0222 102.933 28.0889Z" fill="#236852"/>
<path d="M111.111 26.3111V30.5778C111.111 31.9111 110.133 32.8 108.711 32.8C108 32.8 107.378 32.5334 106.755 32.1778L107.2 31.4667C107.644 31.8222 108.089 32 108.622 32C109.511 32 110.044 31.4667 110.044 30.6667V30.0445C109.689 30.5778 109.244 30.8445 108.533 30.8445C107.289 30.8445 106.4 29.9556 106.4 28.6222C106.4 27.2889 107.2 26.4 108.444 26.4C109.155 26.4 109.689 26.6667 110.044 27.2V26.4889H111.111V26.3111ZM110.133 28.5333C110.133 27.7333 109.6 27.1111 108.8 27.1111C108 27.1111 107.467 27.7333 107.467 28.5333C107.467 29.3333 108 29.9556 108.8 29.9556C109.511 29.9556 110.133 29.4222 110.133 28.5333Z" fill="#236852"/>
<path d="M113.6 24.9778C113.6 25.3334 113.333 25.6 112.978 25.6C112.622 25.6 112.355 25.3334 112.355 24.9778C112.355 24.6223 112.622 24.3556 112.978 24.3556C113.333 24.3556 113.6 24.6223 113.6 24.9778ZM113.511 26.3111V31.0223H112.533V26.3111H113.511Z" fill="#236852"/>
<path d="M117.778 31.0222V30.4889C117.422 30.9333 116.889 31.1111 116.267 31.1111C115.289 31.1111 114.667 30.4889 114.667 29.6889C114.667 28.8 115.289 28.2667 116.444 28.2667H117.867V28.0889C117.867 27.4667 117.511 27.1111 116.711 27.1111C116.267 27.1111 115.822 27.2889 115.289 27.5556L114.844 26.8445C115.467 26.4889 116 26.2222 116.889 26.2222C118.133 26.2222 118.755 26.8445 118.755 27.8222V30.8445H117.778V31.0222ZM117.778 29.3333V28.8889H116.533C115.911 28.8889 115.555 29.0667 115.555 29.5111C115.555 29.9556 115.911 30.2222 116.444 30.2222C117.155 30.2222 117.689 29.8667 117.778 29.3333ZM116.355 25.0667L115.911 24.8889C116 24.4445 116.355 24.1778 116.8 24.1778C117.333 24.1778 117.689 24.5333 117.689 24.9778C117.689 25.3333 117.511 25.6 117.155 25.8667L116.711 25.6889C117.067 25.4222 117.244 25.2445 117.244 24.9778C117.244 24.8 117.155 24.6222 116.889 24.6222C116.533 24.7111 116.355 24.8889 116.355 25.0667Z" fill="#236852"/>
<path d="M124.622 28.0889V31.0222H123.555V28.3556C123.555 27.6445 123.111 27.2 122.4 27.2C121.6 27.2 121.155 27.7333 121.067 28.4445V30.9333H120.089V26.2222H121.067V27.1111C121.422 26.4889 121.955 26.2222 122.755 26.2222C124 26.3111 124.622 27.0222 124.622 28.0889Z" fill="#236852"/>
<path d="M136.355 28.0889V31.0222H135.378V28.3556C135.378 27.6445 134.933 27.2 134.311 27.2C133.511 27.2 133.067 27.8222 133.067 28.6222V30.9334H132.089V28.2667C132.089 27.5556 131.644 27.1111 131.022 27.1111C130.222 27.1111 129.689 27.7333 129.689 28.5333V30.8445H128.711V26.1334H129.689V27.0222C130.044 26.4 130.578 26.0445 131.378 26.0445C132.178 26.0445 132.8 26.4889 132.978 27.2C133.244 26.4 133.867 26.0445 134.755 26.0445C135.733 26.3111 136.355 27.0222 136.355 28.0889Z" fill="#236852"/>
<path d="M140.533 31.0223V30.4889C140.178 30.9334 139.644 31.1111 139.022 31.1111C138.044 31.1111 137.422 30.4889 137.422 29.6889C137.422 28.8 138.044 28.2667 139.2 28.2667H140.622V28.0889C140.622 27.4667 140.267 27.1111 139.467 27.1111C139.022 27.1111 138.578 27.2889 138.044 27.5556L137.6 26.8445C138.222 26.4889 138.755 26.2223 139.644 26.2223C140.889 26.2223 141.511 26.8445 141.511 27.8223V30.8445H140.533V31.0223ZM139.2 25.6889L138.133 24.8L139.2 24.3556L140.089 25.6889H139.2ZM140.533 29.3334V28.8889H139.289C138.667 28.8889 138.311 29.0667 138.311 29.5111C138.311 29.9556 138.667 30.2223 139.2 30.2223C139.911 30.2223 140.533 29.8667 140.533 29.3334Z" fill="#236852"/>
</svg>
