<svg xmlns="http://www.w3.org/2000/svg" viewBox="0 0 164.14 25.39"><defs><style>.cls-1{fill:#fff;}.cls-2{fill:#4bc999;}.cls-3{fill:#72e8b2;}</style></defs><title>Asset 1</title><g id="Layer_2" data-name="Layer 2"><g id="Layer_1-2" data-name="Layer 1"><path class="cls-1" d="M65.25,18.47H64.12a2,2,0,0,1-1.29-.57h0l0,0h0l-8.4-8.2,8-.42,3.38,8.4c.08.14.38.77-.47.82"/><path class="cls-1" d="M67.74,1.74h0l0,.06v0h0L62.34,9.25l-8,.42h0L65,.88h0a2,2,0,0,1,1.1-.44H67c1.32.06.89,1,.72,1.29"/><path class="cls-2" d="M15.76,17c.21.35.16.56-.14.63l-3.74.78a2.58,2.58,0,0,1-.42,0,.74.74,0,0,1-.64-.45,7.37,7.37,0,0,1-.49-1.27,6.65,6.65,0,0,1-2.12,1.44,6.75,6.75,0,0,1-2.5.42,7.48,7.48,0,0,1-2.54-.4A4.31,4.31,0,0,1,1.34,17a5.46,5.46,0,0,1-.69-.91,4.16,4.16,0,0,1-.4-1,8.24,8.24,0,0,1-.2-1.4c0-.54,0-1.21,0-2V1.37A1,1,0,0,1,.07.88.75.75,0,0,1,.49.7L4.76.07c.3,0,.49,0,.56,0s.11.23.11.51V12.09a4.18,4.18,0,0,0,.35,2,1.47,1.47,0,0,0,1.38.6,3.8,3.8,0,0,0,2.57-1.13V1.34A1,1,0,0,1,9.8.85a.75.75,0,0,1,.42-.18l4.2-.6c.33,0,.52,0,.58,0s.09.22.09.53V13.4a11,11,0,0,0,.16,2.13,5.54,5.54,0,0,0,.51,1.5"/><path class="cls-2" d="M31.76,12.94a5.79,5.79,0,0,1-.47,2.43A5,5,0,0,1,30,17.15a5.84,5.84,0,0,1-2.05,1.09,8.49,8.49,0,0,1-2.59.37,14.31,14.31,0,0,1-3.79-.47,13.13,13.13,0,0,1-3-1.18c-.26-.14-.38-.27-.38-.39a2.27,2.27,0,0,1,.1-.56l.88-2.9c.05-.18.14-.29.27-.31a.64.64,0,0,1,.44.1,11.43,11.43,0,0,0,1.2.55c.44.18.9.35,1.35.51a11,11,0,0,0,1.34.39,5.86,5.86,0,0,0,1.15.14,2.08,2.08,0,0,0,1.27-.34,1.21,1.21,0,0,0,.46-1,1.12,1.12,0,0,0-.62-1,18.93,18.93,0,0,0-2.1-.89c-1-.4-1.78-.76-2.38-1.06A6,6,0,0,1,20,9.06a4.41,4.41,0,0,1-.91-1.39,5.09,5.09,0,0,1-.36-2,5.22,5.22,0,0,1,1.93-4.12A6.21,6.21,0,0,1,22.81.39,8.81,8.81,0,0,1,25.49,0a11.65,11.65,0,0,1,3.19.39,10.56,10.56,0,0,1,2.34,1c.19.12.29.22.29.32a1.43,1.43,0,0,1-.11.42L30.11,4.79c-.07.19-.15.3-.23.32A.7.7,0,0,1,29.47,5c-.61-.26-1.24-.5-1.9-.72A5.78,5.78,0,0,0,25.77,4a2.75,2.75,0,0,0-1.39.32,1.08,1.08,0,0,0-.55,1,1.05,1.05,0,0,0,.55,1,18,18,0,0,0,1.78.79c1.17.47,2.09.88,2.75,1.22A6.35,6.35,0,0,1,30.6,9.59a4.74,4.74,0,0,1,1.16,3.35"/><path class="cls-1" d="M49.29,9.88c0,.33-.06.53-.17.6a1.25,1.25,0,0,1-.6.11H38.93a4.79,4.79,0,0,0,.93,3,3.11,3.11,0,0,0,2.45.93,7.71,7.71,0,0,0,2.3-.31,11.28,11.28,0,0,0,2-.88.54.54,0,0,1,.85.21l1.19,2.39a.52.52,0,0,1-.09.72,7.48,7.48,0,0,1-.93.58,11.92,11.92,0,0,1-2.89,1.08,12.07,12.07,0,0,1-2.73.32q-4.14,0-6.21-2.37T33.74,9.46a12.48,12.48,0,0,1,.56-3.81,8.63,8.63,0,0,1,1.61-3A7.31,7.31,0,0,1,38.46.74,8,8,0,0,1,41.85.05q3.82,0,5.63,2.49c1.21,1.67,1.81,4.11,1.81,7.34M43.38,4.33a2,2,0,0,0-1.74-.73,2.15,2.15,0,0,0-1.81.75A6.09,6.09,0,0,0,39,7h5a5.25,5.25,0,0,0-.61-2.71"/><path class="cls-1" d="M85.63,9.14q0,4.71-1.68,7.08a6.06,6.06,0,0,1-5.3,2.37A6.32,6.32,0,0,1,77,18.4a7.74,7.74,0,0,1-1.49-.58V24.1a.8.8,0,0,1-.07.44.71.71,0,0,1-.35.16l-4.46.67c-.21,0-.35,0-.42-.06a.81.81,0,0,1-.11-.5V5.63a8.12,8.12,0,0,0-.21-2c-.14-.56-.3-1.11-.49-1.65a.58.58,0,0,1,0-.41c0-.08.13-.14.3-.19L73.27.16a1.77,1.77,0,0,1,.49-.11c.19,0,.37.16.53.48a6.79,6.79,0,0,1,.46,1.17,6.45,6.45,0,0,1,2-1.28A6.48,6.48,0,0,1,79,.05a5.6,5.6,0,0,1,5,2.42,11.82,11.82,0,0,1,1.63,6.67m-5.26.15a9.08,9.08,0,0,0-.65-4,2,2,0,0,0-1.81-1.2,2.94,2.94,0,0,0-1.14.23,4.88,4.88,0,0,0-1.25.83v9.34a4.85,4.85,0,0,0,2.11.52,2.61,2.61,0,0,0,1.24-.26,2.1,2.1,0,0,0,.85-.91A5.94,5.94,0,0,0,80.21,12a20.78,20.78,0,0,0,.16-2.75"/><path class="cls-1" d="M99,1a.35.35,0,0,1,.1.39,2.77,2.77,0,0,1-.14.38L97.77,4.9c-.12.3-.31.39-.57.28a6.54,6.54,0,0,0-.7-.34,2.63,2.63,0,0,0-1-.15,2.07,2.07,0,0,0-1,.28,5.4,5.4,0,0,0-1.23,1.09V17.43c0,.28,0,.45-.09.49a.86.86,0,0,1-.47.07H88.36c-.26,0-.41,0-.46-.07s-.07-.21-.07-.49V6.65a10.86,10.86,0,0,0-.32-2.72c-.21-.81-.41-1.46-.59-1.95a3.05,3.05,0,0,1-.16-.52q-.06-.25.33-.36L90.5.19A1.62,1.62,0,0,1,91,.09c.26,0,.5.21.74.65a9,9,0,0,1,.66,1.77l.18-.21a1,1,0,0,1,.17-.18A9.17,9.17,0,0,1,94.57.56a3.79,3.79,0,0,1,2-.51A3.63,3.63,0,0,1,97.94.3,2.51,2.51,0,0,1,99,1"/><path class="cls-1" d="M114.7,9.87c0,.33-.06.53-.17.6a1.25,1.25,0,0,1-.6.11H104.3a4.79,4.79,0,0,0,.94,3,3.11,3.11,0,0,0,2.45.93,7.72,7.72,0,0,0,2.31-.32,10.68,10.68,0,0,0,2-.88.54.54,0,0,1,.85.21l1.2,2.4q.24.47-.09.72a6.15,6.15,0,0,1-.93.58,11.73,11.73,0,0,1-2.91,1.1,12.79,12.79,0,0,1-2.74.31q-4.16,0-6.24-2.38c-1.38-1.58-2.08-3.84-2.08-6.78a12.31,12.31,0,0,1,.57-3.83,8.69,8.69,0,0,1,1.62-3A7.28,7.28,0,0,1,103.83.69a8,8,0,0,1,3.4-.69q3.84,0,5.66,2.5t1.81,7.37M108.76,4.3A2,2,0,0,0,107,3.56a2.13,2.13,0,0,0-1.82.76,6.05,6.05,0,0,0-.86,2.7h5a5.12,5.12,0,0,0-.62-2.72"/><path class="cls-1" d="M130.18,12.94a5.79,5.79,0,0,1-.48,2.43,4.74,4.74,0,0,1-1.34,1.78,5.71,5.71,0,0,1-2,1.09,8.53,8.53,0,0,1-2.59.37,14.21,14.21,0,0,1-3.79-.47A12.76,12.76,0,0,1,117,17q-.39-.21-.39-.39a2.41,2.41,0,0,1,.11-.56l.88-2.9c0-.18.13-.29.26-.31a.63.63,0,0,1,.44.1,12.45,12.45,0,0,0,1.2.55c.45.18.9.35,1.36.51a10.54,10.54,0,0,0,1.34.39,5.69,5.69,0,0,0,1.14.14,2.06,2.06,0,0,0,1.27-.34,1.19,1.19,0,0,0,.46-1,1.1,1.1,0,0,0-.62-1,19.43,19.43,0,0,0-2.09-.89c-1-.4-1.78-.76-2.38-1.06a6,6,0,0,1-1.5-1.06,4.43,4.43,0,0,1-.92-1.39,5.28,5.28,0,0,1-.35-2,5.17,5.17,0,0,1,1.92-4.12A6.21,6.21,0,0,1,121.22.39,8.9,8.9,0,0,1,123.9,0a11.6,11.6,0,0,1,3.19.39,10.46,10.46,0,0,1,2.35,1c.19.12.28.22.28.32a1.43,1.43,0,0,1-.11.42l-1.09,2.71c-.07.19-.15.3-.23.32a.67.67,0,0,1-.4-.07c-.61-.26-1.25-.5-1.91-.72A5.72,5.72,0,0,0,124.19,4a2.79,2.79,0,0,0-1.4.32,1.09,1.09,0,0,0-.54,1,1.06,1.06,0,0,0,.54,1,19.22,19.22,0,0,0,1.78.79c1.18.47,2.09.88,2.75,1.22A6.56,6.56,0,0,1,129,9.59a4.79,4.79,0,0,1,1.16,3.35"/><path class="cls-1" d="M145.23,12.94a6,6,0,0,1-.47,2.43,5,5,0,0,1-1.34,1.78,5.84,5.84,0,0,1-2,1.09,8.53,8.53,0,0,1-2.59.37,14.26,14.26,0,0,1-3.79-.47A12.94,12.94,0,0,1,132,17q-.39-.21-.39-.39a2.41,2.41,0,0,1,.11-.56l.88-2.9c0-.18.14-.29.27-.31a.65.65,0,0,1,.44.1,11.43,11.43,0,0,0,1.2.55q.66.27,1.35.51a11,11,0,0,0,1.34.39,5.86,5.86,0,0,0,1.15.14,2.08,2.08,0,0,0,1.27-.34,1.21,1.21,0,0,0,.45-1,1.11,1.11,0,0,0-.61-1,18.93,18.93,0,0,0-2.1-.89c-1-.4-1.78-.76-2.38-1.06a6,6,0,0,1-1.5-1.06,4.41,4.41,0,0,1-.91-1.39,5.09,5.09,0,0,1-.36-2,5.1,5.1,0,0,1,.52-2.34,5.18,5.18,0,0,1,1.4-1.78A6.16,6.16,0,0,1,136.28.39,8.81,8.81,0,0,1,139,0a11.65,11.65,0,0,1,3.19.39,10.56,10.56,0,0,1,2.34,1c.19.12.28.22.28.32a1.34,1.34,0,0,1-.1.42l-1.09,2.71c-.08.19-.15.3-.23.32a.69.69,0,0,1-.41-.07c-.61-.26-1.24-.5-1.9-.72a5.78,5.78,0,0,0-1.8-.34,2.72,2.72,0,0,0-1.39.32,1.08,1.08,0,0,0-.55,1,1.05,1.05,0,0,0,.55,1,17,17,0,0,0,1.78.79c1.17.47,2.09.88,2.75,1.22a6.35,6.35,0,0,1,1.69,1.25,4.79,4.79,0,0,1,1.16,3.35"/><path class="cls-3" d="M54,1h0l0,0h0A2,2,0,0,0,52.68.4H51.54c-.85,0-.55.69-.47.82l3.41,8h8Z"/><path class="cls-2" d="M51.76,18.06,62.47,9.24h-8L49.1,17.11h0l0,0,0,.06h0c-.17.29-.6,1.23.72,1.29h.89a2,2,0,0,0,1.11-.44h0"/><path class="cls-2" d="M147,17.5a1.27,1.27,0,0,1,.08-.44.92.92,0,0,1,.24-.35,1.31,1.31,0,0,1,.36-.23,1.21,1.21,0,0,1,.48-.08,1.24,1.24,0,0,1,.48.08,1.23,1.23,0,0,1,.37.23,1.21,1.21,0,0,1,.24.35,1.27,1.27,0,0,1,.08.44,1.18,1.18,0,0,1-.08.43,1.09,1.09,0,0,1-.24.35,1.06,1.06,0,0,1-.37.23,1.46,1.46,0,0,1-.48.08,1.42,1.42,0,0,1-.48-.08,1.11,1.11,0,0,1-.36-.23.85.85,0,0,1-.24-.35,1.18,1.18,0,0,1-.08-.43"/><polygon class="cls-2" points="153.04 16.08 154.47 10.89 156.63 10.89 154.03 18.6 152.06 18.6 149.46 10.89 151.61 10.89 153.04 16.08"/><path class="cls-2" d="M159.43,10.89l.06.89a2.84,2.84,0,0,1,1-.77,2.9,2.9,0,0,1,1.26-.26,3.07,3.07,0,0,1,1,.15,1.81,1.81,0,0,1,.77.5,2.34,2.34,0,0,1,.5.91,4.67,4.67,0,0,1,.17,1.39v4.9h-2.06V13.68a1.77,1.77,0,0,0-.08-.61.86.86,0,0,0-.24-.39.92.92,0,0,0-.38-.2,2.09,2.09,0,0,0-.53-.06,1.42,1.42,0,0,0-1.3.74V18.6h-2.06V10.89Z"/></g></g></svg>