<svg width="79" height="20" viewBox="0 0 79 20" fill="none" xmlns="http://www.w3.org/2000/svg">
<path d="M0 6.26919C1.49058 6.26919 2.89347 6.26919 4.38405 6.26919C5.08549 6.26919 5.7431 6.26919 6.44455 6.26919C6.70759 6.26919 6.75143 6.22535 6.79527 6.00615C7.40904 4.07717 8.02281 2.10434 8.72425 0.175363C8.72425 0.131522 8.76809 0.0438405 8.76809 0C9.03114 0.789128 9.33802 1.6221 9.55722 2.41123C9.90795 3.63876 10.3464 4.82245 10.7409 6.04999C10.7848 6.22535 10.8724 6.31303 11.0478 6.31303C13.0206 6.31303 15.0811 6.31303 17.0539 6.31303C17.1855 6.31303 17.2293 6.31303 17.4047 6.31303C17.2731 6.35687 17.2293 6.44455 17.1416 6.48839C15.5195 7.67208 13.8536 8.85577 12.1877 10.0833C12.0123 10.2148 12.0123 10.3463 12.0561 10.5217C12.6699 12.4507 13.2837 14.3358 13.8974 16.2648C13.8974 16.3087 13.9413 16.4402 13.9413 16.5717C13.8097 16.5279 13.7659 16.4402 13.6782 16.3963C12.0561 15.2126 10.3902 14.0289 8.81193 12.8891C8.63657 12.7576 8.50505 12.7576 8.32969 12.8891C6.70759 14.0728 5.12933 15.2565 3.50724 16.3963C3.4634 16.4402 3.37572 16.4402 3.24419 16.5717C3.37572 16.221 3.41956 15.8702 3.55108 15.5634C4.121 13.8974 4.64709 12.1438 5.21702 10.4779C5.26086 10.3025 5.21702 10.171 5.08549 10.0395C3.4634 8.85577 1.79746 7.67208 0.219202 6.53223C0.175362 6.48839 0.131521 6.40071 0 6.26919Z" fill="#E70000"/>
<path d="M21.0874 7.84745C21.7012 6.97064 22.4903 6.61992 23.4986 6.53224C24.8577 6.4884 25.9537 6.83912 26.8305 7.93513C26.8743 8.06665 27.0059 8.19818 27.1374 8.24202H27.1812C28.4088 6.09383 31.3461 5.96231 33.1874 7.49673C34.108 8.28585 34.5464 9.25035 34.5464 10.4779C34.5464 12.4507 34.5464 14.3797 34.5464 16.3525C34.5464 16.5279 34.5026 16.6155 34.2834 16.6155C33.9765 16.6155 33.7134 16.6155 33.4066 16.6155C33.1435 16.6155 33.1435 16.5717 33.1435 16.3525C33.1435 14.5112 33.1435 12.6261 33.1435 10.7848C33.1435 9.77643 32.8366 8.94346 32.0475 8.3297C30.6446 7.27752 28.3211 8.02281 27.9703 9.68875C27.8388 10.3025 27.8388 10.9163 27.8388 11.5301C27.8388 13.1521 27.8388 14.7304 27.8388 16.3525C27.8388 16.6155 27.795 16.6594 27.5319 16.6594C27.2689 16.6594 26.962 16.6594 26.7428 16.6594C26.4798 16.6594 26.4798 16.6155 26.4798 16.3963C26.4798 14.4235 26.4798 12.4507 26.4798 10.3902C26.4798 9.33803 25.7345 8.28586 24.6823 7.97897C23.6301 7.62825 22.4026 7.93513 21.7888 8.7681C21.3504 9.25035 21.2189 9.86411 21.2189 10.5656C21.2189 12.4945 21.2189 14.4674 21.2189 16.3963C21.2189 16.6594 21.1751 16.7032 20.912 16.7032C20.649 16.7032 20.3421 16.7032 20.1229 16.7032C19.9475 16.7032 19.8599 16.6594 19.8599 16.4402C19.8599 15.8264 19.8599 15.2127 19.8599 14.5989C19.8599 12.1438 19.8599 9.60107 19.8599 7.10216C19.8599 6.83912 19.9037 6.79528 20.1667 6.79528C20.4736 6.79528 20.912 6.66376 21.0874 6.83912C21.2628 7.01448 21.1312 7.45289 21.1312 7.75977C21.0874 7.71593 21.0874 7.75977 21.0874 7.84745Z" fill="black"/>
<path d="M58.5709 13.7222C57.8694 15.5197 55.6774 17.3171 52.6524 16.8349C50.4165 16.4842 48.2683 14.5552 48.3122 11.574C48.356 8.85594 50.548 6.92696 52.6962 6.57623C55.3705 6.22551 57.9132 7.58457 58.5709 9.73275C58.0886 9.73275 57.6502 9.73275 57.168 9.73275C56.9926 9.73275 56.9926 9.60123 56.9049 9.4697C56.0281 8.15449 54.8006 7.67225 53.31 7.80377C51.8194 7.93529 50.7234 8.5929 50.022 9.95195C49.4082 11.311 49.452 12.6701 50.3727 13.8976C51.2933 15.1251 52.5209 15.6512 54.0991 15.5197C55.2828 15.3882 56.2473 14.8182 56.9488 13.8538C56.9926 13.7222 57.1241 13.7222 57.2556 13.7222C57.6502 13.7222 58.0886 13.7222 58.5709 13.7222Z" fill="black"/>
<path d="M58.8779 6.7078C59.3163 6.7078 59.7547 6.7078 60.1931 6.7078C60.3685 6.7078 60.4562 6.83932 60.4562 6.97084C61.4645 9.38207 62.3852 11.7933 63.3497 14.1607C63.3935 14.2922 63.4812 14.4237 63.525 14.5114C63.9634 13.4592 64.4018 12.4509 64.8402 11.3987C65.454 9.90815 66.1554 8.37374 66.7692 6.88316C66.8131 6.7078 66.9007 6.62012 67.1199 6.62012C67.4707 6.62012 67.9091 6.62012 68.3475 6.62012C68.3036 6.79548 68.2159 6.97084 68.0844 7.19004C66.287 11.3987 64.4895 15.5636 62.692 19.7284C62.6482 19.9038 62.5167 20.0353 62.3413 19.9915C61.9906 19.9915 61.596 19.9915 61.1576 19.9915C61.1138 19.8599 61.2015 19.7284 61.2015 19.6846C61.6399 18.6324 62.0783 17.5802 62.5167 16.5281C62.5605 16.3527 62.5605 16.1773 62.5167 15.9143C61.2892 12.8893 60.1055 9.86431 58.9218 6.88316C58.9656 6.927 58.9656 6.83932 58.8779 6.7078Z" fill="black"/>
<path d="M73.1699 13.7221C73.3453 13.7221 73.6083 13.6782 73.7837 13.7221C73.959 13.8536 73.9152 14.0728 73.959 14.292C74.2221 15.0811 74.8359 15.6072 75.7127 15.6072C76.5018 15.6072 77.2032 15.125 77.3786 14.3797C77.554 13.6344 77.2471 12.9768 76.5895 12.5384C76.0195 12.1876 75.4058 12.0561 74.792 11.8369C73.7837 11.4862 73.1699 10.8286 72.9946 9.8641C72.6438 8.19816 73.9152 6.57607 75.6688 6.53223C77.0279 6.53223 78.1239 7.27751 78.5185 8.46121C78.7815 9.2065 78.6938 9.20649 77.9485 9.20649C77.9047 9.20649 77.9047 9.20649 77.817 9.20649C77.6416 9.20649 77.4663 9.25033 77.2471 9.20649C77.0717 9.16265 77.1156 8.89961 77.0717 8.72425C76.8964 8.15432 76.3703 7.84744 75.7565 7.84744C75.1427 7.84744 74.5728 8.15432 74.3974 8.72425C74.2221 9.29418 74.3536 9.82026 74.8359 10.2587C75.1866 10.5655 75.5811 10.6971 76.0195 10.8286C76.4579 10.9601 76.8964 11.1355 77.2471 11.3108C78.8692 12.1 79.3514 13.7659 78.4308 15.388C77.6855 16.6155 76.3264 17.1855 74.8359 16.8786C73.6083 16.6155 72.7315 15.5634 72.6 14.1605C72.5562 13.7221 72.5561 13.7221 72.9507 13.7221C72.9946 13.7221 73.1261 13.7221 73.1699 13.7221Z" fill="black"/>
<path d="M70.4518 2.76196C70.6272 3.24421 70.7587 3.63877 70.8902 3.98949C70.9341 4.16486 71.0217 4.25254 71.1971 4.25254C71.5478 4.25254 71.9862 4.25254 72.5123 4.25254C72.1616 4.55942 71.767 4.82246 71.4602 4.99783C71.3286 5.12935 71.2848 5.17319 71.3286 5.34855C71.4602 5.69927 71.5917 6.09384 71.6794 6.53224C71.241 6.2692 70.9341 6.05 70.6272 5.78696C70.4957 5.65543 70.3641 5.65543 70.2765 5.78696C69.9696 6.05 69.575 6.22536 69.2243 6.53224C69.3558 6.09384 69.4873 5.65543 69.6627 5.30471C69.7065 5.12935 69.7065 5.04167 69.5312 4.99783C69.2243 4.73478 68.8297 4.51558 68.479 4.25254C68.9612 4.25254 69.3558 4.25254 69.7942 4.25254C69.9696 4.25254 70.1011 4.2087 70.1449 3.98949C70.2326 3.63877 70.3641 3.24421 70.4518 2.76196Z" fill="black"/>
<path d="M46.6902 7.01454C46.6902 6.7515 46.6464 6.70766 46.3833 6.70766C46.1203 6.70766 45.9011 6.70766 45.6381 6.70766C45.375 6.70766 45.3312 6.7515 45.3312 6.9707C45.3312 7.45295 45.3312 7.89135 45.3312 8.3736C45.2873 8.3736 45.2873 8.3736 45.2873 8.3736C45.2435 8.32976 45.2435 8.24208 45.1558 8.19824C44.542 7.32143 43.6652 6.83918 42.7007 6.57614C42.087 6.44462 41.3855 6.44462 40.7718 6.5323C37.7468 6.88302 35.6863 9.86418 36.3 12.8453C36.7823 15.125 39.1497 17.1855 42.3062 16.791C43.6214 16.6594 44.5859 15.9142 45.4189 14.8181C45.4189 15.3881 45.4189 15.8703 45.4189 16.3526C45.4189 16.5279 45.4627 16.6156 45.5942 16.6156C45.9011 16.6156 46.1641 16.6156 46.471 16.6156C46.6464 16.6156 46.7341 16.5718 46.7341 16.3526C46.7341 15.7388 46.7341 15.125 46.7341 14.5551C46.6464 12.0562 46.6464 9.51345 46.6902 7.01454ZM41.3855 15.5634C39.2812 15.5634 37.4837 13.8098 37.4837 11.6616C37.4837 9.42577 39.2812 7.75983 41.5609 7.75983C43.6652 7.75983 45.2873 9.51345 45.2873 11.6616C45.3312 13.9413 43.6652 15.5634 41.3855 15.5634Z" fill="black"/>
</svg>
