<svg width="94" height="94" viewBox="0 0 94 94" fill="none" xmlns="http://www.w3.org/2000/svg">
<g clip-path="url(#clip0)">
<path d="M47.8812 0.477359C47.3591 0.0857534 46.6409 0.0857534 46.1187 0.477359L0 35.0664V88.8594C0 90.4009 0.703531 91.7778 1.80711 92.687C2.66358 93.3925 3.76073 93.8164 4.95703 93.8164H89.9609C92.1916 93.8164 94 92.008 94 89.7774V35.0664L47.8812 0.477359Z" fill="#49B391"/>
<path d="M86.6562 36.5352H7.34375C6.53263 36.5352 5.875 37.1928 5.875 38.0039V73.2539C5.875 74.065 6.53263 74.7227 7.34375 74.7227H86.6562C87.4674 74.7227 88.125 74.065 88.125 73.2539V38.0039C88.125 37.1926 87.4674 36.5352 86.6562 36.5352Z" fill="#DBD9E2"/>
<path d="M86.6562 5.69141H7.34375C6.53263 5.69141 5.875 6.34904 5.875 7.16016V42.4102C5.875 43.2213 6.53263 43.8789 7.34375 43.8789H86.6562C87.4674 43.8789 88.125 43.2213 88.125 42.4102V7.16016C88.125 6.34886 87.4674 5.69141 86.6562 5.69141Z" fill="#EDECF1"/>
<path d="M47 64.4414L5.875 93.8164H89.9609C92.1916 93.8164 94 92.008 94 89.7773V35.0664L47 64.4414Z" fill="#BBD492"/>
<path opacity="0.6" d="M37.6 70.3164H37.5998L41.3697 67.9603L37.6 70.3164Z" fill="#8EAD5A"/>
<path d="M94 35.0664L48.9094 63.2481L93.72 91.2547C93.9001 90.797 94 90.2989 94 89.7774V35.0664Z" fill="#236852"/>
<path opacity="0.6" d="M41.3697 67.9603L37.5998 70.3164L5.875 93.8164H89.9609C91.67 93.8164 93.1301 92.7543 93.72 91.2547L48.9094 63.248L41.3697 67.9603Z" fill="#49B391"/>
<path d="M0 35.0664V89.7774C0 91.0333 0.573363 92.1553 1.47242 92.8961L47 64.4414L0 35.0664Z" fill="#236852"/>
<path d="M1.47243 92.8961C2.17027 93.4711 3.06437 93.8164 4.03907 93.8164H89.9609C90.9356 93.8164 91.8298 93.4711 92.5276 92.8961L47 64.4414L1.47243 92.8961Z" fill="#236852"/>
<path d="M76.375 15.9727H64.625C63.8139 15.9727 63.1562 16.6303 63.1562 17.4414V32.1289C63.1562 32.94 63.8139 33.5977 64.625 33.5977H76.375C77.1861 33.5977 77.8438 32.94 77.8438 32.1289V17.4414C77.8438 16.6301 77.1861 15.9727 76.375 15.9727Z" fill="#DBA510"/>
<path d="M58.75 18.9102H17.625C16.8139 18.9102 16.1562 18.2525 16.1562 17.4414C16.1562 16.6303 16.8139 15.9727 17.625 15.9727H58.75C59.5611 15.9727 60.2188 16.6303 60.2188 17.4414C60.2188 18.2525 59.5611 18.9102 58.75 18.9102Z" fill="#B9B8B8"/>
<path d="M39.6562 26.2539H17.625C16.8139 26.2539 16.1562 25.5963 16.1562 24.7852C16.1562 23.974 16.8139 23.3164 17.625 23.3164H39.6562C40.4674 23.3164 41.125 23.974 41.125 24.7852C41.125 25.5963 40.4674 26.2539 39.6562 26.2539Z" fill="#B9B8B8"/>
<path d="M58.75 26.2539H45.5312C44.7201 26.2539 44.0625 25.5963 44.0625 24.7852C44.0625 23.974 44.7201 23.3164 45.5312 23.3164H58.75C59.5611 23.3164 60.2188 23.974 60.2188 24.7852C60.2188 25.5963 59.5611 26.2539 58.75 26.2539Z" fill="#B9B8B8"/>
<path d="M47 33.5977H17.625C16.8139 33.5977 16.1562 32.94 16.1562 32.1289C16.1562 31.3178 16.8139 30.6602 17.625 30.6602H47C47.8111 30.6602 48.4688 31.3178 48.4688 32.1289C48.4688 32.94 47.8111 33.5977 47 33.5977Z" fill="#B9B8B8"/>
<path d="M58.75 33.5977H52.875C52.0639 33.5977 51.4062 32.94 51.4062 32.1289C51.4062 31.3178 52.0639 30.6602 52.875 30.6602H58.75C59.5611 30.6602 60.2188 31.3178 60.2188 32.1289C60.2188 32.94 59.5611 33.5977 58.75 33.5977Z" fill="#B9B8B8"/>
<path d="M61.6875 51.2227H54.3438C53.5326 51.2227 52.875 50.565 52.875 49.7539C52.875 48.9428 53.5326 48.2852 54.3438 48.2852H61.6875C62.4986 48.2852 63.1562 48.9428 63.1562 49.7539C63.1562 50.565 62.4986 51.2227 61.6875 51.2227Z" fill="#B9B8B8"/>
<path d="M48.4688 51.2227H32.3125C31.5014 51.2227 30.8438 50.565 30.8438 49.7539C30.8438 48.9428 31.5014 48.2852 32.3125 48.2852H48.4688C49.2799 48.2852 49.9375 48.9428 49.9375 49.7539C49.9375 50.565 49.2799 51.2227 48.4688 51.2227Z" fill="#B9B8B8"/>
<path d="M44.0625 58.5664H39.6562C38.8451 58.5664 38.1875 57.9088 38.1875 57.0977C38.1875 56.2865 38.8451 55.6289 39.6562 55.6289H44.0625C44.8736 55.6289 45.5312 56.2865 45.5312 57.0977C45.5312 57.9088 44.8736 58.5664 44.0625 58.5664Z" fill="#B9B8B8"/>
<path d="M52.875 58.5664H49.9375C49.1264 58.5664 48.4688 57.9088 48.4688 57.0977C48.4688 56.2865 49.1264 55.6289 49.9375 55.6289H52.875C53.6861 55.6289 54.3438 56.2865 54.3438 57.0977C54.3438 57.9088 53.6861 58.5664 52.875 58.5664Z" fill="#B9B8B8"/>
</g>
<defs>
<clipPath id="clip0">
<rect width="94" height="94" fill="white"/>
</clipPath>
</defs>
</svg>
