<svg width="40" height="40" viewBox="0 0 40 40" fill="none" xmlns="http://www.w3.org/2000/svg">
<path fill-rule="evenodd" clip-rule="evenodd" d="M0 20.0002C0 8.95344 8.95441 0 20.0002 0C31.0456 0 40 8.95344 40 20.0002C40 31.0451 31.0456 39.9995 20.0002 39.9995C8.95441 39.9995 0 31.0451 0 20.0002ZM24.8183 20.3325C25.2394 20.7577 25.5564 21.2282 25.769 21.7437C25.9815 22.2595 26.0878 22.8165 26.0878 23.4146C26.0878 24.1311 25.944 24.824 25.6567 25.4931C25.3693 26.1623 24.9462 26.7587 24.3872 27.2822C23.8281 27.8058 23.1649 28.2151 22.3973 28.5104C21.6297 28.8056 20.7813 28.9532 19.8524 28.9532C18.9076 28.9532 18.0612 28.7838 17.3134 28.4454C16.5653 28.1069 15.9494 27.6837 15.4652 27.1759C14.981 26.668 14.6149 26.1425 14.3669 25.5993C14.1189 25.0561 13.9949 24.6073 13.9949 24.253C13.9949 23.7965 14.1425 23.4284 14.4377 23.1488C14.733 22.8695 15.1009 22.7296 15.5419 22.7296C15.7622 22.7296 15.9747 22.7946 16.1796 22.9245C16.3842 23.0543 16.518 23.2099 16.5811 23.3909C16.9904 24.4853 17.4293 25.2982 17.8978 25.8296C18.3662 26.361 19.0256 26.6268 19.8759 26.6268C20.364 26.6268 20.8343 26.5068 21.2872 26.2666C21.7398 26.0265 22.1138 25.6701 22.4091 25.1978C22.7043 24.7254 22.8519 24.1783 22.8519 23.5563C22.8519 22.6351 22.5999 21.9129 22.0961 21.3892C21.5922 20.8658 20.8916 20.6039 19.994 20.6039C19.8364 20.6039 19.5925 20.6198 19.2618 20.6512C18.9312 20.6828 18.7186 20.6984 18.6241 20.6984C18.1911 20.6984 17.8566 20.5903 17.6204 20.3737C17.3841 20.1572 17.266 19.8561 17.266 19.4702C17.266 19.0923 17.4077 18.7873 17.6911 18.555C17.9746 18.3229 18.3957 18.2066 18.9548 18.2066H19.439C20.1633 18.2066 20.7871 17.994 21.3108 17.5689C21.8343 17.1438 22.0961 16.5338 22.0961 15.7385C22.0961 15.1324 21.8874 14.6107 21.4702 14.1737C21.0528 13.7368 20.49 13.5183 19.7814 13.5183C19.3011 13.5183 18.9054 13.5853 18.5946 13.719C18.2834 13.853 18.0375 14.0301 17.8565 14.2505C17.6753 14.471 17.504 14.7544 17.3428 15.1008C17.1813 15.4473 17.0337 15.7738 16.8999 16.0809C16.8212 16.2463 16.6794 16.3762 16.4748 16.4706C16.2701 16.5651 16.0338 16.6124 15.7663 16.6124C15.4512 16.6124 15.1619 16.4845 14.8982 16.2285C14.6344 15.9728 14.5026 15.6321 14.5026 15.207C14.5026 14.7977 14.6266 14.3667 14.8746 13.9139C15.1227 13.4613 15.4847 13.0302 15.9611 12.6207C16.4373 12.2115 17.0299 11.8827 17.7385 11.6347C18.447 11.3867 19.2382 11.2627 20.1121 11.2627C20.8757 11.2627 21.5725 11.3672 22.2024 11.5757C22.8322 11.7844 23.3793 12.0855 23.8439 12.4791C24.3084 12.8728 24.6588 13.3293 24.895 13.849C25.1312 14.3686 25.2493 14.9277 25.2493 15.5259C25.2493 16.3134 25.0781 16.9885 24.7356 17.5513C24.3931 18.1143 23.903 18.6634 23.2653 19.1987C23.8794 19.5294 24.397 19.9074 24.8183 20.3325Z" fill="white"/>
</svg>
