<svg width="69" height="24" viewBox="0 0 69 24" fill="none" xmlns="http://www.w3.org/2000/svg">
<path d="M26.5033 11.508C26.6177 11.203 26.7321 10.936 26.8465 10.631C27.3041 9.52507 27.7999 8.34291 28.1812 7.19888C28.1812 7.16075 28.2194 7.12261 28.2194 7.04634C28.2956 6.74127 28.2575 6.665 27.9524 6.665C27.9143 6.665 27.7999 6.70313 27.7999 6.58873C27.7999 6.51246 27.9143 6.51246 27.9524 6.51246C28.41 6.51246 28.9058 6.5506 29.3634 6.51246C29.4015 6.51246 29.5159 6.51246 29.4778 6.58873C29.4778 6.665 29.4015 6.665 29.3634 6.62687C29.0583 6.62687 28.8676 6.81754 28.7151 7.08448C28.4482 7.73276 28.2194 8.34291 27.9143 8.95305C27.4567 10.0589 26.9609 11.2411 26.4271 12.3089C26.4271 12.347 26.3889 12.3851 26.3889 12.4233C26.3508 12.4995 26.3508 12.5758 26.2745 12.5758C26.1982 12.5758 26.1601 12.4995 26.122 12.4233C25.9313 11.9657 25.7406 11.4699 25.55 10.9742C25.0542 9.71574 24.5203 8.49544 24.0246 7.19888C23.8721 6.81754 23.6433 6.5506 23.2238 6.62687C23.1856 6.62687 23.1094 6.62687 23.1094 6.5506C23.1094 6.47433 23.1856 6.51246 23.2238 6.51246C23.6051 6.51246 24.0246 6.51246 24.4059 6.51246C24.5966 6.51246 24.8254 6.51246 25.0542 6.51246C25.0924 6.51246 25.1686 6.51246 25.1686 6.5506C25.1686 6.62687 25.0924 6.62687 25.0542 6.62687C25.0161 6.62687 24.978 6.62687 24.978 6.62687C24.7491 6.62687 24.6729 6.74127 24.7491 6.93194C24.9017 7.38955 25.0924 7.88529 25.2449 8.30477C25.7025 9.37253 26.0838 10.4403 26.5033 11.508Z" fill="black"/>
<path d="M32.6812 19.478C32.6812 19.3254 32.6812 19.1347 32.7193 18.9822C32.7193 18.9441 32.7193 18.8678 32.7956 18.8678C32.8718 18.8678 32.8718 18.9441 32.8337 18.9822C32.7956 19.9356 33.8633 20.1644 34.4353 20.0118C35.0836 19.783 35.3124 18.9822 34.8929 18.3339C34.6641 18.0289 34.3972 17.8 34.0921 17.5331C33.787 17.2662 33.4438 17.0374 33.1388 16.656C32.8718 16.3128 32.7193 15.9315 32.7574 15.4739C32.8337 14.7493 33.2913 14.368 34.0158 14.2154C34.5116 14.1392 34.9692 14.2154 35.4649 14.2917C35.5412 14.2917 35.5412 14.3298 35.5412 14.4061C35.5412 14.673 35.5031 14.94 35.5031 15.2069C35.5031 15.2451 35.5031 15.3213 35.4649 15.3213C35.3887 15.3213 35.3887 15.2451 35.3887 15.2069C35.3505 14.7493 35.0836 14.5586 34.6641 14.4824C34.4735 14.4442 34.2828 14.4442 34.0921 14.4824C33.4438 14.6349 33.1388 15.3595 33.5201 15.9315C33.7108 16.1984 33.9396 16.3891 34.2447 16.5798C34.626 16.8848 35.0455 17.1518 35.3505 17.5331C35.9988 18.3339 35.8844 19.478 35.0836 20.0118C34.626 20.3169 34.054 20.355 33.482 20.3169C33.2913 20.3169 33.1006 20.2406 32.91 20.1644C32.7574 20.1262 32.6812 20.0118 32.6812 19.8212C32.6812 19.7068 32.6812 19.5542 32.6812 19.478Z" fill="black"/>
<path d="M45.0363 20.3172C44.3117 20.3172 43.5872 20.2409 42.977 19.8977C41.9474 19.3257 41.4516 18.1435 41.6805 16.9613C41.9093 15.8555 42.7863 15.0165 43.8922 14.864C44.6168 14.7496 45.3032 14.8258 45.9896 14.9402C46.1422 14.9784 46.3328 14.9021 46.4091 15.0165C46.4854 15.1309 46.4091 15.2834 46.4091 15.436C46.4091 15.7029 46.4091 15.9317 46.371 16.2368C46.371 16.2749 46.371 16.3512 46.2947 16.3131C46.2566 16.3131 46.2566 16.2749 46.2566 16.2368C46.2566 15.5885 45.8752 15.2834 45.3032 15.1309C44.7693 14.9784 44.1973 15.0165 43.7016 15.1309C43.0533 15.2834 42.6719 15.6648 42.4431 16.3131C42.1381 17.2664 42.2143 18.2198 42.8245 19.0206C43.549 19.8977 44.5787 20.1265 45.6083 19.8977C45.9896 19.8214 46.1803 19.5545 46.3328 19.1731C46.3328 19.0969 46.371 19.0587 46.371 18.9825C46.371 18.9443 46.4091 18.9062 46.4472 18.9062C46.5235 18.9062 46.5235 18.9825 46.4854 19.0206C46.4472 19.2494 46.4091 19.4782 46.371 19.7451C46.3328 20.0502 46.1803 20.2028 45.8752 20.2409C45.6083 20.279 45.2651 20.279 45.0363 20.3172Z" fill="black"/>
<path d="M36.075 12.6138C35.3505 12.6138 34.7022 12.5375 34.1302 12.1943C32.948 11.546 32.6429 10.2876 32.8717 9.25799C33.1387 7.96143 34.0539 7.19874 35.4649 7.12247C36.1894 7.08434 36.8758 7.23688 37.5623 7.31315C37.6385 7.31315 37.6385 7.38942 37.6385 7.42755C37.6004 7.77076 37.6004 8.1521 37.6004 8.53344C37.6004 8.57158 37.6004 8.64784 37.5241 8.64784C37.4478 8.64784 37.4478 8.57158 37.4478 8.53344C37.4478 8.0377 37.1428 7.73262 36.647 7.58009C35.9987 7.38942 35.3123 7.38942 34.6641 7.58009C34.1683 7.73262 33.787 8.07583 33.6344 8.53344C33.2531 9.63933 33.3294 10.6308 34.092 11.5079C34.8166 12.3087 35.7699 12.4613 36.7614 12.2325C37.1809 12.1562 37.4097 11.8511 37.486 11.4316C37.486 11.3554 37.486 11.2791 37.5623 11.2791C37.6385 11.2791 37.6385 11.3935 37.6004 11.4698C37.5622 11.6986 37.5241 11.9274 37.486 12.1943C37.4478 12.385 37.3334 12.4994 37.1428 12.5375C36.8758 12.5757 36.4945 12.6138 36.075 12.6138Z" fill="black"/>
<path d="M56.1336 19.2871C56.1717 19.3252 56.1717 19.3634 56.1717 19.4396C56.1335 19.6303 56.1335 19.821 56.0954 20.0116C56.0573 20.2023 55.981 20.2786 55.7903 20.2786C55.2946 20.2786 54.7607 20.2404 54.265 20.2404C53.9599 20.2404 53.6167 20.2404 53.3116 20.2404C53.2735 20.2404 53.1972 20.2404 53.1972 20.2023C53.1972 20.126 53.2735 20.126 53.3116 20.126C53.5023 20.126 53.6167 20.0116 53.6167 19.821C53.6548 19.5922 53.6548 19.3634 53.6548 19.0964C53.6548 17.9905 53.6548 16.8465 53.6548 15.7406C53.6548 15.7025 53.6548 15.6643 53.6548 15.6262C53.6167 15.1305 53.6167 15.1305 53.1209 15.0542C53.0828 15.0542 53.0447 15.0542 53.0447 15.0161C53.0447 14.9779 53.0828 14.9779 53.1209 14.9779C53.3116 14.9779 53.5023 14.9779 53.693 14.9779C54.3412 15.0161 55.0658 15.0161 55.7141 14.9779C55.8285 14.9779 55.9047 14.8635 55.981 14.9398C56.0573 15.0161 55.9429 15.1305 55.9429 15.2067C55.9429 15.3593 55.9047 15.5499 55.9047 15.7025C55.9047 15.7406 55.9047 15.8169 55.8285 15.8169C55.7522 15.8169 55.7903 15.7406 55.7903 15.7025C55.7522 15.3593 55.7141 15.3211 55.3709 15.2449C55.0277 15.2067 54.6463 15.2067 54.3412 15.2067C54.265 15.2067 54.2268 15.2449 54.2268 15.3211C54.2268 15.9694 54.2268 16.5796 54.2268 17.1516C54.2268 17.2278 54.265 17.266 54.3412 17.266C54.6845 17.266 55.0658 17.266 55.3709 17.266C55.4853 17.266 55.6378 17.266 55.7141 17.1134C55.7141 17.0753 55.7522 17.0753 55.7903 17.0753C55.8285 17.0753 55.8285 17.1134 55.8285 17.1516C55.7903 17.4185 55.7522 17.7236 55.7522 18.0287C55.7522 18.0668 55.7522 18.1049 55.7141 18.1049C55.6759 18.1049 55.6759 18.0668 55.6759 18.0287C55.5997 17.6473 55.5615 17.6092 55.1802 17.5711C54.9133 17.5711 54.6463 17.5329 54.3794 17.5329C54.3031 17.5329 54.2268 17.5329 54.2268 17.6473C54.2268 18.2956 54.1887 18.9439 54.265 19.554C54.3031 19.821 54.3794 19.9354 54.6463 19.9735C54.9514 20.0116 55.2946 20.0116 55.5234 19.9735C55.7903 19.9354 55.981 19.7828 56.0191 19.5159C56.0573 19.4015 56.0573 19.2871 56.1336 19.2871Z" fill="black"/>
<path d="M40.4603 19.2111C40.4603 19.5162 40.4222 19.8594 40.3459 20.0882C40.3078 20.2026 40.1934 20.2026 40.079 20.2026C39.5833 20.2026 39.0494 20.1644 38.5536 20.1644C38.2486 20.1644 37.9054 20.1644 37.6003 20.1644C37.5621 20.1644 37.4859 20.2026 37.4859 20.1263C37.4859 20.05 37.5621 20.05 37.6003 20.05C37.791 20.05 37.8672 19.9356 37.9054 19.745C37.9435 19.4399 37.9435 19.0967 37.9435 18.7916C37.9435 17.6857 37.9435 16.618 37.9435 15.5121C37.9435 15.0926 37.8672 15.0163 37.4477 14.9782C37.4096 14.9782 37.3333 14.9782 37.3715 14.9019C37.3715 14.8256 37.4477 14.8638 37.4859 14.8638C37.7147 14.8638 37.9816 14.8638 38.2104 14.9019C38.8587 14.9019 39.4689 14.9401 40.079 14.8638C40.3078 14.8638 40.3078 14.8256 40.3078 15.0926C40.2697 15.2833 40.2697 15.4358 40.2697 15.6265C40.2697 15.6646 40.2697 15.7409 40.1934 15.7409C40.1171 15.7409 40.1553 15.6646 40.1553 15.6265C40.079 15.2833 40.0409 15.207 39.6977 15.1689C39.3926 15.1307 39.0494 15.1307 38.7443 15.1307C38.668 15.1307 38.6299 15.1689 38.6299 15.2451C38.6299 15.8934 38.6299 16.4273 38.6299 17.0756C38.6299 17.19 38.668 17.19 38.7443 17.19C39.0875 17.19 39.4689 17.19 39.7739 17.19C39.9646 17.19 40.1171 17.1518 40.1934 16.9993C40.2697 17.0374 40.2697 17.0756 40.2315 17.1137C40.1934 17.3806 40.1553 17.6094 40.1553 17.9145C40.1553 17.9527 40.1553 18.0289 40.1171 18.0289C40.0409 18.0289 40.079 17.9527 40.0409 17.9145C40.0027 17.6094 39.9265 17.5332 39.6214 17.495C39.3163 17.495 39.0494 17.4569 38.7443 17.4569C38.6299 17.4569 38.5918 17.495 38.5918 17.6094C38.5918 18.1815 38.5918 18.7916 38.5918 19.3636C38.5918 19.745 38.7443 19.8975 39.1256 19.8975C39.3926 19.8975 39.6595 19.8975 39.9265 19.8594C40.1934 19.8212 40.3459 19.6687 40.3841 19.4018C40.3078 19.4018 40.3078 19.3255 40.4603 19.2111Z" fill="black"/>
<path d="M41.1088 9.79196C41.1088 10.4402 41.0707 11.1648 41.147 11.8512C41.1851 12.2325 41.2232 12.2707 41.6046 12.3088C41.6427 12.3088 41.6809 12.3088 41.719 12.3088C41.7571 12.3088 41.7953 12.3088 41.7953 12.347C41.7953 12.3851 41.7571 12.3851 41.719 12.3851C41.6046 12.3851 41.452 12.3851 41.3376 12.3851C40.9563 12.347 40.6131 12.3851 40.2318 12.3851C40.1936 12.3851 40.1555 12.3851 40.1173 12.3851C40.0792 12.3851 40.0792 12.347 40.0792 12.347C40.0792 12.3088 40.1173 12.3088 40.1555 12.3088C40.4987 12.1944 40.5368 12.1944 40.575 11.8512C40.6131 11.6605 40.6131 11.4317 40.6131 11.2029C40.6131 10.0208 40.6131 8.80047 40.6131 7.54204C40.6131 7.42764 40.575 7.38951 40.4606 7.38951C40.0792 7.38951 39.6597 7.3895 39.2784 7.42764C39.0496 7.46577 38.8971 7.58018 38.7827 7.80898C38.7827 7.84712 38.7445 7.96152 38.6682 7.92338C38.6301 7.88525 38.6301 7.84712 38.6682 7.77085C38.7064 7.54204 38.7445 7.35137 38.8208 7.12256C38.8208 7.08443 38.8589 6.97003 38.9352 7.00816C39.164 7.12257 39.4309 7.08443 39.736 7.12256C40.6894 7.12256 41.6427 7.12256 42.5961 7.12256C42.7486 7.12256 42.9393 7.08443 43.0918 7.08443C43.1681 7.08443 43.2062 7.08443 43.2062 7.1607C43.2062 7.42764 43.2062 7.65644 43.1681 7.96152C43.1681 7.99965 43.1681 8.03779 43.0918 8.03779C43.0537 8.03779 43.0537 7.99965 43.0537 7.96152C42.9774 7.65644 42.9393 7.58017 42.6342 7.54204C42.2147 7.46577 41.7571 7.50391 41.3376 7.50391C41.2232 7.50391 41.2614 7.58018 41.2614 7.61831C41.1088 8.30473 41.1088 8.99114 41.1088 9.79196Z" fill="black"/>
<path d="M57.0869 15.7027C57.0869 15.3977 57.2013 15.0545 57.2776 14.8257C57.2776 14.7875 57.3539 14.7494 57.392 14.7875C57.6208 14.9019 57.8877 14.8638 58.1165 14.9019C59.1462 14.9019 60.1376 14.9401 61.1291 14.9019C61.2054 14.9019 61.2817 14.9019 61.3579 14.8638C61.6249 14.8257 61.6249 14.8257 61.6249 15.0926C61.6249 15.2833 61.6249 15.4739 61.6249 15.6646C61.6249 15.7027 61.6249 15.779 61.5868 15.779C61.5486 15.779 61.5486 15.7409 61.5486 15.7027C61.4723 15.3595 61.3961 15.2833 61.0147 15.2451C60.6334 15.207 60.2139 15.207 59.9088 15.207C59.7944 15.207 59.7944 15.2451 59.7944 15.3214C59.7944 15.5121 59.7944 15.7409 59.7944 15.9697C59.7944 17.1518 59.7563 18.334 59.7944 19.478C59.7944 19.5543 59.7944 19.5924 59.7944 19.6687C59.8326 20.0119 59.9088 20.05 60.2139 20.0882C60.2902 20.0882 60.4046 20.05 60.4046 20.1644C60.4046 20.2789 60.2902 20.2026 60.2139 20.2026C59.7563 20.2026 59.2606 20.2026 58.7648 20.2026C58.7267 20.2026 58.6123 20.2407 58.6123 20.1644C58.6123 20.0882 58.7267 20.0882 58.7648 20.0882C58.9174 20.0882 58.9936 20.0119 59.0318 19.8594C59.108 19.5543 59.108 19.2111 59.108 18.906C59.108 17.7239 59.108 16.5417 59.108 15.3977C59.108 15.2451 59.0699 15.207 58.9174 15.207C58.5741 15.207 58.1928 15.2451 57.8877 15.2451C57.5827 15.2451 57.3157 15.3595 57.1632 15.6646C57.2013 15.6646 57.2013 15.7027 57.0869 15.7027Z" fill="black"/>
<path d="M68.5272 7.65623C68.5272 7.77063 68.5272 7.88503 68.5272 8.03757C68.5272 8.0757 68.5272 8.11384 68.4891 8.11384C68.4509 8.11384 68.4509 8.0757 68.4509 8.03757C68.4128 7.73249 68.2984 7.50369 67.9933 7.38929C67.6501 7.27489 67.2688 7.23675 66.8874 7.46556C66.5824 7.69436 66.468 8.19011 66.6968 8.57145C66.8112 8.76212 67.0018 8.95279 67.1544 9.06719C67.4976 9.33413 67.8789 9.60107 68.184 9.94428C68.6797 10.4782 68.8323 11.1264 68.5653 11.6985C68.3365 12.2705 67.8408 12.4993 67.2306 12.5755C66.8493 12.6137 66.4298 12.5755 66.1248 12.423C65.9722 12.3849 65.9341 12.2705 65.9341 12.1179C65.9341 11.8891 65.9722 11.6222 65.9722 11.3934C65.9722 11.3552 65.9722 11.279 66.0485 11.279C66.1248 11.279 66.0866 11.3552 66.0866 11.3934C66.1248 11.851 66.3154 12.1179 66.7349 12.2705C67.2306 12.423 67.7645 12.2705 67.9933 11.9654C68.2221 11.6603 68.2603 11.1646 67.9933 10.7832C67.8027 10.4782 67.4976 10.2494 67.1925 9.98241C66.9256 9.75361 66.6205 9.5248 66.3917 9.18159C66.0866 8.72398 66.0104 8.22824 66.2392 7.73249C66.468 7.23675 66.9637 7.08421 67.4213 7.00795C67.7645 6.96981 68.1459 7.04608 68.5272 7.12235C68.6035 7.12235 68.6035 7.16048 68.6035 7.23675C68.5272 7.38929 68.5272 7.54182 68.5272 7.65623Z" fill="black"/>
<path d="M32.0326 12.423C31.9945 12.4993 31.9182 12.4993 31.8801 12.4993C31.3843 12.4993 30.8504 12.4612 30.3547 12.4993C30.3165 12.4993 30.2021 12.5374 30.2021 12.4612C30.2021 12.3849 30.2784 12.423 30.3165 12.423C30.5835 12.3849 30.6216 12.3086 30.6598 12.0798C30.6979 11.851 30.6979 11.6222 30.6979 11.4315C30.6979 10.2494 30.6979 9.02909 30.6979 7.84693C30.6979 7.50372 30.5835 7.38932 30.3165 7.35118C30.2784 7.35118 30.2021 7.35118 30.2021 7.31305C30.2021 7.23678 30.2784 7.27491 30.3165 7.27491C30.6598 7.27491 31.0411 7.27491 31.3462 7.27491C31.4606 7.27491 31.575 7.27491 31.6894 7.27491C31.7275 7.27491 31.7657 7.27491 31.7657 7.35118C31.7657 7.38932 31.7275 7.38932 31.6894 7.38932C31.308 7.50372 31.2699 7.54186 31.2699 7.96133C31.2699 8.60961 31.2699 9.25789 31.2699 9.86804C31.2699 10.5926 31.2318 11.3171 31.308 12.0036C31.3462 12.3849 31.3843 12.423 31.7657 12.4993C31.9182 12.423 31.9945 12.3468 32.0326 12.423Z" fill="black"/>
<path d="M55.981 7.23716C56.0191 7.16089 56.0954 7.16089 56.1335 7.16089C56.553 7.19902 57.0106 7.19902 57.4682 7.16089C57.5063 7.16089 57.6207 7.16089 57.6207 7.19903C57.6207 7.27529 57.5063 7.27529 57.4682 7.27529C57.2394 7.27529 57.1631 7.42783 57.125 7.6185C57.125 7.69477 57.125 7.80917 57.125 7.88544C57.125 9.14387 57.125 10.3642 57.125 11.6226C57.125 11.8133 57.125 12.0421 57.2394 12.2709C57.3538 12.4997 57.6207 12.3471 57.8114 12.4234C57.8114 12.4997 57.7351 12.4997 57.697 12.4997C57.2013 12.4997 56.6674 12.4615 56.1716 12.4997C56.1335 12.4997 56.0572 12.4997 56.0572 12.4615C56.0572 12.3853 56.1335 12.4234 56.1716 12.4234C56.4386 12.3853 56.4767 12.309 56.5148 12.0802C56.553 11.6989 56.553 11.3557 56.553 10.9743C56.553 9.94469 56.553 8.9532 56.553 7.96171C56.553 7.92358 56.553 7.84731 56.553 7.80917C56.5148 7.5041 56.4767 7.42783 56.1716 7.3897C56.0572 7.23716 56.0191 7.31343 55.981 7.23716Z" fill="black"/>
<path d="M63.9507 8.68591C63.9126 8.5715 63.9507 8.49524 64.027 8.4571C64.2558 8.30456 64.4846 8.15203 64.5608 7.80882C64.599 7.54188 64.5227 7.46561 64.2558 7.50375C64.0651 7.54188 63.9126 7.50375 63.8363 7.35121C63.7219 7.19867 63.7219 7.04614 63.8363 6.8936C63.9507 6.70293 64.1414 6.66479 64.332 6.66479C64.7896 6.74106 65.0566 7.19867 64.904 7.69442C64.7515 8.2283 64.4083 8.53337 63.9507 8.68591Z" fill="black"/>
<path d="M48.0871 7.38947C47.4388 7.08439 46.7905 7.00812 46.1423 7.08439C45.0364 7.23693 44.2355 7.96148 43.9305 8.9911C43.5873 10.097 43.8542 11.0885 44.655 11.8893C45.3796 12.6139 46.2567 12.6901 47.21 12.5376C48.5447 12.2706 49.4218 11.1266 49.4218 9.67752C49.4218 8.68603 49.0023 7.88521 48.0871 7.38947ZM48.5066 11.1648C48.0108 12.3469 46.5617 12.6901 45.5321 11.9656C44.8838 11.508 44.5788 10.7834 44.5025 10.0589C44.4262 9.41058 44.5025 8.80043 44.8076 8.30469C45.5321 7.04626 47.4007 7.04626 48.2396 8.26655C48.5447 8.72416 48.7354 9.29618 48.7354 9.94446C48.7354 10.3639 48.6591 10.7834 48.5066 11.1648Z" fill="black"/>
<path d="M55.4851 12.4234C54.9893 12.4234 54.608 12.1946 54.3029 11.8514C53.8453 11.3556 53.4258 10.7455 52.9301 10.2497C52.8538 10.1353 52.892 10.0972 52.9682 10.0209C53.2352 9.75398 53.464 9.4489 53.6165 9.06756C53.9216 8.19047 53.5021 7.46593 52.5869 7.23712C52.1674 7.16085 51.7861 7.19899 51.3284 7.19899C51.1759 7.19899 51.0234 7.19899 50.8708 7.19899C50.6802 7.19899 50.4514 7.19899 50.2226 7.19899C50.1844 7.19899 50.1082 7.19899 50.1082 7.27525C50.1082 7.31339 50.1463 7.31339 50.1844 7.31339C50.6802 7.42779 50.6802 7.42779 50.7183 7.96167C50.7183 7.99981 50.7183 8.03794 50.7183 8.07607C50.7183 9.18196 50.7183 10.2497 50.7183 11.3556C50.7183 11.6226 50.7183 11.8514 50.6802 12.1564C50.642 12.3471 50.5658 12.4615 50.3751 12.4615C50.337 12.4615 50.2226 12.4234 50.2607 12.4996C50.2607 12.5759 50.337 12.5378 50.4132 12.5378C50.8708 12.4996 51.3666 12.5378 51.7861 12.5378C51.8623 12.5378 52.0149 12.5759 52.0149 12.4996C52.0149 12.3852 51.8623 12.4615 51.7861 12.4234C51.481 12.3852 51.4047 12.3471 51.3666 12.042C51.3284 11.5082 51.3284 10.9361 51.3284 10.4404C51.3284 10.3641 51.3666 10.326 51.4429 10.326C51.6717 10.326 51.8623 10.326 52.0911 10.326C52.2437 10.326 52.3199 10.3641 52.4343 10.4785C52.8157 11.0124 53.2352 11.5844 53.6928 12.0802C53.8834 12.309 54.1122 12.4996 54.4173 12.5378C54.7605 12.5759 55.1419 12.5759 55.4469 12.5759C55.4851 12.5759 55.5613 12.5759 55.5232 12.4996C55.5995 12.3471 55.5232 12.4234 55.4851 12.4234ZM52.2437 10.0209C52.053 10.0209 51.8242 10.0209 51.5954 9.98278C51.4428 9.94465 51.3666 9.86838 51.3666 9.71584C51.3666 9.37264 51.3666 9.06756 51.3666 8.68622C51.3666 8.34301 51.3666 7.96167 51.3666 7.6566C51.3666 7.50406 51.4429 7.42779 51.5573 7.42779C51.7479 7.42779 51.9767 7.38966 52.2055 7.42779C52.5869 7.50406 52.8538 7.73287 53.0064 8.15234C53.1589 8.60995 53.197 9.02943 53.0064 9.52517C52.892 9.86838 52.625 10.0209 52.2437 10.0209Z" fill="black"/>
<path d="M52.6251 20.0882C52.1294 20.0882 51.748 19.8212 51.443 19.4399C50.9853 18.9441 50.5659 18.334 50.1083 17.8382C50.032 17.762 50.1083 17.7238 50.1464 17.6476C50.4133 17.3806 50.6421 17.1137 50.7947 16.7705C51.1379 15.8934 50.7184 15.1688 49.8413 14.94C49.6506 14.9019 49.46 14.8638 49.2693 14.8638C48.888 14.8638 48.4685 14.8638 48.0871 14.8638C47.8965 14.8638 47.7058 14.8638 47.5151 14.8638C47.477 14.8638 47.4007 14.8638 47.4389 14.94C47.4389 14.9782 47.477 14.9782 47.5151 14.9782C47.9346 15.0163 48.0109 15.0926 48.0109 15.512C48.0109 16.6942 48.0109 17.8001 48.0109 18.9441C48.0109 19.1729 48.0109 19.4399 47.9727 19.6687C47.9346 19.8975 47.8965 20.0119 47.6295 20.0119C47.5914 20.0119 47.5151 20.0119 47.5151 20.0882C47.5151 20.1644 47.5914 20.1263 47.6295 20.1263C48.1253 20.1263 48.6592 20.1263 49.1168 20.1263C49.1549 20.1263 49.2693 20.1644 49.2693 20.0882C49.2693 20.0119 49.193 20.05 49.1549 20.0119C49.1168 20.0119 49.1168 20.0119 49.0786 20.0119C48.7736 19.9738 48.6973 19.9356 48.6592 19.5924C48.621 19.0585 48.621 18.4865 48.621 17.9908C48.621 17.8764 48.6592 17.8382 48.7354 17.8764C48.9261 17.8764 49.1168 17.9145 49.3074 17.8764C49.4981 17.8764 49.6125 17.9526 49.7269 18.067C50.032 18.4865 50.3752 18.9441 50.6803 19.4017C51.0616 19.9356 51.5574 20.2026 52.2056 20.1263C52.3963 20.0882 52.5488 20.1644 52.7395 20.0882C52.7014 20.0882 52.6251 20.0882 52.6251 20.0882ZM49.5744 17.6857C49.2693 17.762 48.9261 17.7238 48.621 17.6476C48.5066 17.6094 48.4685 17.5713 48.4685 17.4569C48.4685 17.1137 48.4685 16.7323 48.4685 16.4273C48.4685 16.1222 48.4685 15.7027 48.4685 15.3214C48.4685 15.207 48.5066 15.1688 48.621 15.1307C48.8117 15.1307 49.0024 15.0926 49.193 15.1307C49.6506 15.207 49.9939 15.4358 50.1464 15.8553C50.2989 16.351 50.2989 16.8849 50.032 17.3806C49.9176 17.5713 49.765 17.6476 49.5744 17.6857Z" fill="black"/>
<path d="M64.0276 12.4232C63.7225 12.4232 63.4937 12.2325 63.303 11.9656C63.2267 11.8131 63.1505 11.6987 63.1123 11.5461C62.6166 10.2114 62.0827 8.953 61.587 7.6183C61.5488 7.5039 61.4726 7.35137 61.4344 7.23696C61.3963 7.19883 61.3963 7.12256 61.32 7.12256C61.2438 7.12256 61.2438 7.16069 61.2056 7.23696C61.1675 7.2751 61.1675 7.35137 61.1294 7.3895C60.8243 8.26659 60.4811 9.0674 60.176 9.90636C59.9472 10.5546 59.6803 11.2792 59.4515 11.9275C59.3371 12.2325 59.1464 12.4232 58.8032 12.4232C58.765 12.4232 58.6506 12.3851 58.6506 12.4613C58.6506 12.5757 58.7269 12.4995 58.8032 12.4995C59.1464 12.4995 59.4515 12.4995 59.8328 12.4995C59.9472 12.4995 60.0616 12.4995 60.176 12.4995C60.2141 12.4995 60.2523 12.4995 60.2523 12.4232C60.2523 12.3851 60.2141 12.3851 60.176 12.3851C59.8328 12.3851 59.8328 12.1944 59.9091 11.9275C60.0616 11.4699 60.2141 10.9741 60.3667 10.5165C60.4048 10.4021 60.4811 10.4021 60.5573 10.4021C60.9768 10.4021 61.4344 10.4021 61.892 10.4021C62.0064 10.4021 62.0446 10.4402 62.0827 10.5546C62.2734 11.0504 62.4641 11.5843 62.6547 12.08C62.6929 12.1944 62.731 12.3088 62.5785 12.4232C63.0361 12.4613 63.5318 12.4613 63.9894 12.4613C64.0276 12.4613 64.0657 12.4613 64.0657 12.4232C64.1038 12.3469 64.0657 12.4232 64.0276 12.4232ZM60.5192 10.1733C60.748 9.52501 60.9387 8.8386 61.1675 8.15218H61.2056C61.4344 8.80047 61.6632 9.48688 61.9302 10.1733C61.4726 10.1733 61.015 10.1733 60.5192 10.1733Z" fill="black"/>
<path d="M3.77515 17.9909C3.77515 16.8087 3.96582 15.7791 4.4997 14.7876C4.8429 14.1393 5.30051 13.6054 5.83439 13.1097C5.91066 13.0334 5.9488 13.0334 6.02506 13.1478C6.13947 13.4529 6.25387 13.7961 6.36827 14.0249C6.40641 14.1012 6.40641 14.1393 6.33014 14.2156C5.75813 14.8639 5.45305 15.7028 5.37678 16.5418C5.22425 17.9909 5.49119 19.2874 6.25387 20.5459C6.97842 21.8424 8.12245 22.5288 9.53341 22.872C11.0588 23.2534 12.3935 22.7958 13.6519 21.9187C14.3765 21.4229 15.0247 20.8128 15.4823 20.0501C16.1306 19.0968 16.2832 18.1053 16.2069 16.9994C16.0925 15.3977 15.3298 14.1012 14.2621 12.919C13.385 12.0419 12.5079 11.3174 11.402 10.7454C10.6774 10.364 10.0673 9.792 9.49528 9.25812C8.04618 7.88529 7.32163 6.20739 7.16909 4.26254C7.09282 3.15665 7.32163 2.2033 8.04618 1.36434C8.69446 0.639795 9.53341 0.258453 10.4486 0.105917C11.5545 -0.0847545 12.6604 -0.00848695 13.7282 0.258452C13.957 0.296587 14.1476 0.334721 14.3765 0.334721C14.4909 0.334721 14.5671 0.372855 14.5671 0.525392C14.4527 1.40248 14.4527 2.2033 14.4527 3.00412C14.4527 3.11852 14.4527 3.27106 14.3002 3.27106C14.1476 3.27106 14.1476 3.11852 14.1476 3.00412C14.0714 2.05076 13.6138 1.32621 12.6223 1.02114C12.3935 0.944868 12.2028 0.906735 11.974 0.868601C11.402 0.792332 10.7918 0.792333 10.2961 0.944869C9.11393 1.28808 8.42752 2.39397 8.61819 3.61426C8.73259 4.64389 9.1902 5.36844 9.87662 6.13112C10.4486 6.7794 11.135 7.31328 11.8596 7.80903C12.3935 8.19037 13.0418 8.45731 13.6138 8.83865C14.9866 9.71573 16.1306 10.8216 17.0458 12.1945C17.9992 13.7198 18.4949 15.3215 18.4187 17.1138C18.3424 18.5247 17.8848 19.7069 16.9696 20.7747C15.7874 22.1475 14.4527 23.1771 12.6986 23.711C10.1436 24.5118 7.09282 23.5585 5.49119 21.9568C4.6141 21.0035 4.04209 19.8976 3.88955 18.601C3.77515 18.4485 3.77515 18.1815 3.77515 17.9909Z" fill="black"/>
<path d="M11.0208 18.7155C11.8979 16.7707 12.6224 14.8258 13.4232 12.9573C13.7283 13.2242 13.9953 13.5293 14.3003 13.8344C14.3766 13.9106 14.3385 13.9488 14.3003 14.025C13.347 16.3131 12.3936 18.6011 11.3259 20.8129C11.1733 21.1561 10.9826 21.5375 10.8301 21.9188C10.7538 22.0713 10.6776 22.2239 10.4869 22.2239C10.2962 22.2239 10.1818 22.0713 10.1056 21.9188C9.76236 21.1943 9.45728 20.4316 9.15221 19.707C7.39804 15.5123 5.72013 11.3175 4.00409 7.0846C3.66088 6.20751 3.27954 5.33043 2.8982 4.41521C2.44059 3.23304 1.52537 2.81357 0.343208 2.81357C0.228805 2.81357 0 2.8517 0 2.66103C0 2.47036 0.190671 2.5085 0.343208 2.47036C0.915221 2.43223 1.52537 2.47036 2.09738 2.47036C3.20327 2.5085 4.27103 2.5085 5.37692 2.47036C5.7964 2.43223 6.25401 2.43223 6.67349 2.50849C6.74975 2.50849 6.86416 2.5085 6.86416 2.6229C6.86416 2.7373 6.78789 2.81357 6.63535 2.81357C6.36841 2.81357 6.10147 2.81357 5.83453 2.88984C5.37692 3.00424 5.18625 3.23304 5.33879 3.69065C5.45319 4.11013 5.60573 4.56774 5.75826 4.94908C7.51244 9.44892 9.19034 13.9488 10.9445 18.4867C10.9445 18.563 10.9826 18.6393 11.0208 18.7155Z" fill="black"/>
<path d="M15.826 10.1731C15.5209 9.86805 15.1777 9.60111 14.8726 9.29604C14.7964 9.21977 14.8345 9.18164 14.8726 9.10537C15.3303 7.92321 15.826 6.70291 16.2455 5.52075C16.4362 4.94874 16.665 4.33859 16.8175 3.76658C16.8556 3.69031 16.8556 3.57591 16.8556 3.49964C16.8938 3.1183 16.7031 2.85136 16.3217 2.77509C16.0548 2.73696 15.826 2.69882 15.5209 2.73696C15.4447 2.73696 15.4065 2.73696 15.3303 2.73696C15.254 2.73696 15.2159 2.69882 15.2159 2.62256C15.2159 2.54629 15.254 2.47002 15.3303 2.47002C15.4447 2.43188 15.5972 2.43188 15.7116 2.43188C16.5124 2.43188 17.237 2.47002 17.9997 2.50815C18.8005 2.54629 19.525 2.43188 20.364 2.43188C20.4402 2.43188 20.5546 2.43188 20.6309 2.47002C20.7072 2.50815 20.8216 2.50815 20.8216 2.62256C20.8216 2.73696 20.7072 2.77509 20.6309 2.77509C20.4402 2.77509 20.2496 2.77509 20.097 2.81323C19.525 2.8895 19.0674 3.15643 18.7623 3.61404C18.3429 4.26233 18.0378 5.02501 17.7327 5.71143C17.0844 7.19866 16.4743 8.64776 15.8641 10.0969C15.9023 10.0969 15.9023 10.1731 15.826 10.1731Z" fill="black"/>
<path d="M11.2113 15.2072C11.135 14.9784 11.0969 14.7877 11.0206 14.6352C10.7537 14.1013 10.2961 13.6818 9.68592 13.5293C9.57152 13.4912 9.49525 13.4149 9.45712 13.3005C9.30458 12.8429 9.11391 12.3471 8.96137 11.9277C8.92324 11.8133 8.92324 11.7751 9.07577 11.737C9.80032 11.6989 10.4867 11.7751 11.1732 12.0421C11.8977 12.309 12.2028 12.8429 11.974 13.5674C11.8977 13.8725 11.7452 14.2157 11.5926 14.5208C11.4401 14.6733 11.3638 14.9021 11.2113 15.2072Z" fill="black"/>
</svg>
