<svg aria-hidden="true" style="position: absolute; width: 0; height: 0; overflow: hidden;" version="1.1" xmlns="http://www.w3.org/2000/svg" xmlns:xlink="http://www.w3.org/1999/xlink">
<defs>
<symbol id="icon-4" viewBox="0 0 32 32">
<title>4</title>
<path d="M30 32h-28c-1.1 0-2-0.9-2-2v-28c0-1.1 0.9-2 2-2h28c1.1 0 2 0.9 2 2v28c0 1.1-0.9 2-2 2zM2 1c-0.6 0-1 0.4-1 1v28c0 0.6 0.4 1 1 1h28c0.6 0 1-0.4 1-1v-28c0-0.6-0.4-1-1-1h-28z"></path>
</symbol>
<symbol id="icon-account" viewBox="0 0 32 32">
<title>account</title>
<path d="M32 16c0-8.843-7.156-16-16-16s-16 7.156-16 16c0 8.765 7.096 16 16 16 8.867 0 16-7.195 16-16zM16 1.875c7.789 0 14.125 6.336 14.125 14.125 0 2.849-0.847 5.588-2.419 7.907-6.311-6.788-17.090-6.8-23.412 0-1.572-2.32-2.419-5.058-2.419-7.907 0-7.789 6.336-14.125 14.125-14.125zM5.463 25.406c5.611-6.293 15.464-6.292 21.073 0-5.63 6.298-15.441 6.3-21.073 0z"></path>
<path d="M16 16.938c3.102 0 5.625-2.523 5.625-5.625v-1.875c0-3.102-2.523-5.625-5.625-5.625s-5.625 2.523-5.625 5.625v1.875c0 3.102 2.523 5.625 5.625 5.625zM12.25 9.438c0-2.068 1.682-3.75 3.75-3.75s3.75 1.682 3.75 3.75v1.875c0 2.068-1.682 3.75-3.75 3.75s-3.75-1.682-3.75-3.75v-1.875z"></path>
</symbol>
<symbol id="icon-add" viewBox="0 0 32 32">
<title>add</title>
<path d="M29.714 13.714h-11.429v-11.429c0-1.262-1.024-2.286-2.286-2.286s-2.286 1.024-2.286 2.286v11.429h-11.429c-1.262 0-2.286 1.024-2.286 2.286s1.024 2.286 2.286 2.286h11.429v11.429c0 1.262 1.024 2.286 2.286 2.286s2.286-1.024 2.286-2.286v-11.429h11.429c1.262 0 2.286-1.024 2.286-2.286s-1.024-2.286-2.286-2.286z"></path>
</symbol>
<symbol id="icon-address" viewBox="0 0 32 32">
<title>address</title>
<path d="M12.781 28.725v3.241l-0.784-0.633c-0.121-0.098-3.002-2.437-5.924-5.791-4.030-4.627-6.074-8.781-6.074-12.345v-0.353c0-7.048 5.734-12.781 12.781-12.781s12.781 5.734 12.781 12.781v0.353c0 0.299-0.016 0.603-0.045 0.911l-2.5-2.28c-0.512-5.197-4.907-9.271-10.237-9.271-5.672 0-10.287 4.615-10.287 10.287v0.353c0 6.023 7.76 13.314 10.287 15.528v0zM20.45 26.934h3.741v-3.741h-3.741v3.741zM12.781 7.544c2.922 0 5.3 2.377 5.3 5.3s-2.377 5.3-5.3 5.3c-2.922 0-5.3-2.377-5.3-5.3s2.377-5.3 5.3-5.3zM12.781 10.038c-1.547 0-2.806 1.258-2.806 2.806s1.258 2.806 2.806 2.806c1.547 0 2.806-1.259 2.806-2.806s-1.259-2.806-2.806-2.806zM30.319 25.239l-0.701-0.64v4.004c0 1.864-1.517 3.381-3.381 3.381h-7.896c-1.864 0-3.381-1.517-3.381-3.381v-4.004l-0.701 0.64-1.681-1.842 9.711-8.859 9.711 8.859-1.681 1.842zM27.124 22.325l-4.835-4.411-4.835 4.411v6.279c0 0.489 0.398 0.887 0.887 0.887h7.896c0.489 0 0.887-0.398 0.887-0.887v-6.279z"></path>
</symbol>
<symbol id="icon-address1" viewBox="0 0 32 32">
<title>address1</title>
<path d="M12.781 28.725v3.241l-0.784-0.633c-0.121-0.098-3.002-2.437-5.924-5.791-4.030-4.627-6.074-8.781-6.074-12.345v-0.353c0-7.048 5.734-12.781 12.781-12.781s12.781 5.734 12.781 12.781v0.353c0 0.299-0.016 0.603-0.045 0.911l-2.5-2.28c-0.512-5.197-4.907-9.271-10.237-9.271-5.672 0-10.287 4.615-10.287 10.287v0.353c0 6.023 7.76 13.314 10.287 15.528zM20.45 26.934h3.741v-3.741h-3.741zM12.781 7.544c2.922 0 5.3 2.377 5.3 5.3s-2.377 5.3-5.3 5.3-5.3-2.377-5.3-5.3 2.377-5.3 5.3-5.3zM12.781 10.038c-1.547 0-2.806 1.259-2.806 2.806s1.259 2.806 2.806 2.806c1.547 0 2.806-1.259 2.806-2.806s-1.259-2.806-2.806-2.806zM30.319 25.239l-0.701-0.64v4.004c0 1.864-1.517 3.381-3.381 3.381h-7.896c-1.864 0-3.381-1.517-3.381-3.381v-4.004l-0.701 0.64-1.681-1.842 9.711-8.859 9.711 8.859zM27.124 22.325l-4.835-4.411-4.835 4.411v6.279c0 0.489 0.398 0.887 0.887 0.887h7.896c0.489 0 0.887-0.398 0.887-0.887z"></path>
</symbol>
<symbol id="icon-affiliate" viewBox="0 0 32 32">
<title>affiliate</title>
<path d="M31.785 20.386c-0.288-0.694-0.828-1.234-1.522-1.522-0.344-0.142-0.705-0.215-1.075-0.215-0.816 0-1.569 0.348-2.092 0.931l-2.003-0.829c0.264-0.871 0.407-1.795 0.407-2.751s-0.143-1.88-0.407-2.752l2.003-0.83c0.523 0.583 1.277 0.931 2.092 0.931 0.37 0 0.732-0.072 1.075-0.214 1.432-0.594 2.115-2.242 1.522-3.674-0.437-1.055-1.457-1.736-2.599-1.736-0.37 0-0.732 0.072-1.075 0.215-1.129 0.468-1.791 1.59-1.731 2.746l-2.006 0.831c-0.886-1.647-2.243-3.004-3.89-3.89l0.831-2.006c0.049 0.003 0.099 0.004 0.148 0.004 1.142 0 2.162-0.681 2.599-1.736 0.287-0.694 0.287-1.458 0-2.152s-0.828-1.234-1.522-1.522c-0.344-0.142-0.705-0.214-1.075-0.214-1.142 0-2.162 0.681-2.599 1.736-0.287 0.694-0.287 1.458 0 2.152 0.163 0.394 0.408 0.738 0.716 1.015l-0.83 2.003c-0.871-0.264-1.795-0.407-2.752-0.407s-1.88 0.143-2.751 0.407l-0.83-2.005c0.86-0.775 1.185-2.037 0.717-3.166-0.437-1.055-1.457-1.736-2.599-1.736-0.37 0-0.732 0.072-1.075 0.215-1.432 0.593-2.115 2.241-1.522 3.674 0.437 1.055 1.457 1.736 2.598 1.736 0.049 0 0.099-0.002 0.148-0.004l0.831 2.006c-1.647 0.885-3.005 2.243-3.89 3.89l-2.005-0.83c0.022-0.414-0.048-0.831-0.211-1.225-0.287-0.694-0.828-1.234-1.522-1.522-0.344-0.142-0.705-0.215-1.075-0.215-1.142 0-2.162 0.682-2.599 1.736-0.287 0.694-0.287 1.458 0 2.152s0.828 1.234 1.522 1.522c0.344 0.142 0.705 0.214 1.075 0.214 0.816 0 1.569-0.348 2.092-0.931l2.003 0.83c-0.264 0.871-0.407 1.795-0.407 2.752s0.143 1.88 0.407 2.751l-2.003 0.829c-0.523-0.584-1.277-0.931-2.092-0.931-0.37 0-0.732 0.072-1.075 0.215-1.432 0.593-2.115 2.241-1.522 3.674 0.437 1.055 1.457 1.736 2.598 1.736 0.37 0 0.732-0.072 1.075-0.215 1.129-0.468 1.791-1.59 1.731-2.746l2.006-0.831c0.885 1.648 2.243 3.005 3.89 3.89l-0.831 2.005c-0.049-0.003-0.098-0.004-0.148-0.004-1.142 0-2.162 0.681-2.598 1.736-0.287 0.694-0.287 1.458 0 2.152s0.828 1.234 1.522 1.522c0.344 0.142 0.705 0.215 1.075 0.215 1.142 0 2.162-0.681 2.598-1.736 0.287-0.694 0.287-1.458 0-2.152-0.163-0.394-0.408-0.738-0.716-1.015l0.829-2.002c0.871 0.264 1.795 0.407 2.752 0.407s1.88-0.143 2.752-0.407l0.83 2.004c-0.86 0.775-1.185 2.037-0.718 3.166 0.437 1.055 1.457 1.736 2.599 1.736 0.37 0 0.732-0.072 1.075-0.215 1.432-0.593 2.115-2.241 1.522-3.674-0.437-1.055-1.457-1.736-2.599-1.736-0.049 0-0.099 0.002-0.148 0.004l-0.831-2.005c1.647-0.886 3.005-2.243 3.89-3.89l2.004 0.83c-0.022 0.414 0.048 0.831 0.211 1.225 0.288 0.694 0.828 1.234 1.522 1.522 0.344 0.142 0.705 0.215 1.075 0.215 1.142 0 2.162-0.682 2.599-1.736 0.287-0.694 0.287-1.458 0-2.152zM28.828 9.672c0.115-0.048 0.235-0.072 0.358-0.072 0.381 0 0.721 0.227 0.866 0.579 0.198 0.477-0.030 1.026-0.507 1.224-0.115 0.048-0.235 0.072-0.358 0.072-0.381 0-0.721-0.227-0.866-0.579-0.198-0.477 0.030-1.026 0.507-1.224zM20.597 2.454c0.146-0.352 0.486-0.579 0.866-0.579 0.122 0 0.243 0.024 0.358 0.072 0.231 0.096 0.411 0.276 0.507 0.507s0.096 0.486 0 0.717c-0.146 0.352-0.486 0.579-0.866 0.579-0.122 0-0.243-0.024-0.358-0.072-0.231-0.096-0.411-0.276-0.507-0.507s-0.096-0.486 0-0.717zM10.897 3.678c-0.115 0.048-0.235 0.072-0.358 0.072-0.381 0-0.721-0.227-0.866-0.579-0.198-0.477 0.030-1.026 0.507-1.224 0.115-0.048 0.236-0.072 0.358-0.072 0.381 0 0.721 0.227 0.866 0.579 0.198 0.477-0.030 1.026-0.507 1.224zM3.679 10.896c-0.146 0.352-0.486 0.579-0.866 0.579-0.122 0-0.243-0.024-0.358-0.072-0.231-0.096-0.411-0.276-0.507-0.507s-0.096-0.486 0-0.717c0.146-0.352 0.486-0.579 0.866-0.579 0.122 0 0.243 0.024 0.358 0.072 0.231 0.096 0.411 0.276 0.507 0.507s0.096 0.486 0 0.717zM3.172 22.327c-0.115 0.048-0.235 0.072-0.358 0.072-0.381 0-0.721-0.227-0.866-0.579-0.198-0.477 0.030-1.026 0.507-1.224 0.115-0.048 0.236-0.072 0.358-0.072 0.381 0 0.721 0.227 0.866 0.579 0.198 0.477-0.030 1.026-0.507 1.224zM11.403 29.545c-0.146 0.352-0.486 0.579-0.866 0.579-0.122 0-0.243-0.024-0.358-0.072-0.231-0.096-0.411-0.276-0.507-0.507s-0.096-0.486 0-0.717c0.146-0.352 0.486-0.579 0.866-0.579 0.122 0 0.243 0.024 0.358 0.072 0.231 0.096 0.411 0.276 0.507 0.507s0.096 0.486 0 0.717zM21.104 28.321c0.115-0.048 0.235-0.072 0.358-0.072 0.381 0 0.721 0.227 0.866 0.579 0.198 0.477-0.030 1.026-0.507 1.224-0.115 0.048-0.235 0.072-0.358 0.072-0.381 0-0.721-0.227-0.866-0.579-0.198-0.477 0.030-1.026 0.507-1.224zM16 23.625c-1.448 0-2.803-0.406-3.957-1.11 0.23-1.32 1.385-2.328 2.77-2.328h2.375c1.385 0 2.539 1.008 2.77 2.328-1.154 0.704-2.509 1.11-3.957 1.11zM12.906 15.219c0-1.706 1.388-3.094 3.094-3.094s3.094 1.388 3.094 3.094c0 1.706-1.388 3.094-3.094 3.094s-3.094-1.388-3.094-3.094zM21.531 21.242c-0.416-1.024-1.184-1.869-2.153-2.384 0.977-0.908 1.59-2.203 1.59-3.639 0-2.74-2.229-4.968-4.968-4.968s-4.968 2.229-4.968 4.968c0 1.436 0.613 2.731 1.591 3.639-0.969 0.515-1.737 1.36-2.153 2.384-1.297-1.367-2.093-3.213-2.093-5.242 0-4.204 3.42-7.625 7.625-7.625s7.625 3.42 7.625 7.625c0 2.029-0.797 3.875-2.093 5.242zM30.052 21.821c-0.146 0.352-0.486 0.579-0.866 0.579-0.122 0-0.243-0.024-0.358-0.072-0.231-0.096-0.411-0.276-0.507-0.507s-0.096-0.486 0-0.717c0.146-0.352 0.486-0.579 0.866-0.579 0.122 0 0.243 0.024 0.358 0.072 0.231 0.096 0.411 0.276 0.507 0.507s0.096 0.486 0 0.717z"></path>
</symbol>
<symbol id="icon-bao-hiem" viewBox="0 0 29 32">
<title>bao-hiem</title>
<path d="M22.329 15.783c-0.051 4.668-1.746 8.525-4.841 11.793-1.727 1.823-3.735 3.262-6.050 4.253-0.153 0.064-0.384 0.077-0.531 0.006-5.346-2.494-8.979-6.472-10.475-12.253-0.441-1.707-0.512-3.447-0.358-5.206 0.019-0.23 0.096-0.352 0.352-0.333 3.364 0.237 6.101-1.151 8.544-3.3 0.774-0.678 1.452-1.439 1.957-2.347 0.141-0.249 0.313-0.237 0.473 0.006 2.117 3.166 5.039 5.071 8.813 5.621 0.531 0.077 1.087 0.032 1.624 0.013 0.269-0.006 0.396 0.064 0.403 0.345 0.032 0.518 0.070 1.030 0.090 1.401zM20.717 16.627c0-0.141 0-0.275 0-0.416 0.013-0.473-0.051-0.512-0.512-0.576-0.671-0.096-1.356-0.179-2.008-0.358-2.609-0.723-4.803-2.142-6.683-4.074-0.32-0.333-0.371-0.326-0.691-0.013-0.39 0.377-0.767 0.767-1.19 1.119-2.226 1.855-4.713 3.114-7.655 3.345-0.281 0.019-0.384 0.173-0.371 0.448 0.032 1.151 0.153 2.296 0.46 3.409 1.343 4.822 4.387 8.23 8.755 10.539 0.243 0.128 0.448 0.122 0.684-0.006 5.378-2.897 8.627-7.233 9.209-13.417z"></path>
<path d="M17.366 7.124c-0.863 0-1.727 0.006-2.59 0-1.369-0.013-2.488-1.074-2.552-2.411-0.064-1.407 0.915-2.558 2.309-2.686 0.256-0.026 0.358-0.115 0.441-0.352 0.352-1.010 1.311-1.669 2.379-1.676 1.087-0.006 2.053 0.652 2.405 1.676 0.090 0.269 0.23 0.326 0.473 0.352 1.362 0.134 2.328 1.279 2.277 2.692-0.051 1.298-1.157 2.379-2.488 2.405-0.883 0.013-1.771 0-2.654 0zM18.965 2.603c-0.006-0.876-0.748-1.605-1.618-1.586s-1.567 0.735-1.567 1.605c0 0.889 0.716 1.599 1.599 1.599 0.876-0.006 1.592-0.735 1.586-1.618z"></path>
<path d="M23.147 5.73c0.051-0.275 0.090-0.524 0.154-0.767 0.019-0.064 0.122-0.147 0.185-0.147 0.908-0.006 1.81-0.026 2.718 0.006 0.576 0.019 0.902 0.428 0.902 1.030 0 3.082 0 6.159 0 9.241 0 4.975 0 9.951 0 14.933 0 0.831-0.326 1.164-1.158 1.164-3.901 0-7.802 0-11.716-0.032 0.633-0.333 1.081-0.934 1.951-0.915 3.070 0.058 6.139 0.019 9.209 0.019 0.62 0 0.78-0.16 0.78-0.767 0-7.661 0-15.323 0-22.984 0-0.601-0.173-0.774-0.78-0.774-0.748-0.006-1.49-0.006-2.245-0.006z"></path>
<path d="M23.301 3.997c-0.096-0.307-0.192-0.601-0.288-0.914 0.109-0.006 0.198-0.013 0.288-0.013 1.458 0 2.923 0 4.381 0 0.729 0 1.087 0.358 1.087 1.068 0 8.090 0 16.173 0 24.263 0 0.608-0.275 0.934-0.902 1.036-0.006-0.134-0.019-0.269-0.019-0.396 0-8.026 0-16.045 0-24.071 0-0.083 0-0.173 0-0.256-0.006-0.524-0.192-0.716-0.71-0.716-1.164 0-2.321 0-3.485 0-0.115 0-0.23 0-0.352 0z"></path>
<path d="M11.4 4.822c0.064 0.307 0.128 0.595 0.192 0.908-0.767 0-1.528 0-2.283 0-0.582 0-0.755 0.179-0.755 0.767 0 1.138-0.006 2.277 0.006 3.421 0 0.249-0.070 0.422-0.269 0.563-0.211 0.153-0.409 0.326-0.671 0.544 0-0.179 0-0.281 0-0.384 0-1.573 0-3.153 0-4.726 0-0.735 0.358-1.1 1.1-1.106 0.799-0.006 1.599 0 2.398 0 0.096-0.006 0.192 0.006 0.281 0.013z"></path>
<path d="M12.87 9.254c0.134 0 0.237 0 0.339 0 3.594 0 7.182 0 10.776 0 0.096 0 0.217-0.032 0.281 0.013 0.096 0.064 0.211 0.185 0.217 0.288 0.006 0.083-0.122 0.205-0.217 0.256-0.083 0.045-0.211 0.019-0.313 0.019-3.345 0-6.689-0.013-10.040 0.013-0.473 0.006-0.793-0.128-1.042-0.588z"></path>
<path d="M17.347 12.502c0.090 0 0.185 0 0.275 0 2.13 0 4.259 0 6.389 0 0.083 0 0.192-0.026 0.249 0.013 0.096 0.058 0.224 0.173 0.217 0.249-0.006 0.109-0.115 0.224-0.217 0.294-0.064 0.045-0.185 0.013-0.281 0.013-1.535 0-3.070 0-4.598 0-0.755 0.006-1.324-0.141-2.034-0.569z"></path>
<path d="M19.732 26.022c0.166-0.416 0.377-0.614 0.838-0.595 1.113 0.045 2.232 0.013 3.351 0.013 0.096 0 0.217-0.026 0.281 0.026 0.090 0.064 0.198 0.192 0.198 0.281-0.006 0.090-0.128 0.205-0.224 0.256-0.083 0.045-0.211 0.019-0.313 0.019-1.253 0-2.507 0-3.767 0-0.122 0-0.23 0-0.365 0z"></path>
<path d="M11.438 3.984c-0.703 0-1.401 0-2.098 0-0.019-0.512 0.345-0.883 0.883-0.914 0.083-0.006 0.173 0 0.256 0 0.403 0 0.806 0 1.253 0-0.102 0.32-0.198 0.614-0.294 0.914z"></path>
<path d="M21.574 22.799c0.153-0.595 0.153-0.595 0.684-0.595 0.576 0 1.145 0 1.72 0 0.217 0 0.435 0.032 0.422 0.307-0.006 0.249-0.205 0.288-0.416 0.288-0.793 0-1.586 0-2.411 0z"></path>
<path d="M22.617 19.543c0.038-0.205 0.070-0.377 0.102-0.569 0.473 0 0.927-0.019 1.381 0.013 0.109 0.006 0.205 0.185 0.307 0.281-0.102 0.090-0.192 0.256-0.301 0.262-0.48 0.032-0.972 0.013-1.49 0.013z"></path>
<path d="M23 16.308c0-0.192 0-0.358 0-0.569 0.39 0 0.78-0.019 1.164 0.013 0.090 0.006 0.23 0.179 0.23 0.281 0 0.096-0.147 0.262-0.237 0.269-0.384 0.026-0.761 0.006-1.158 0.006z"></path>
<path d="M15.582 18.751c0 1.183 0 2.341 0 3.537-0.883 0-1.752 0-2.654 0 0 0.908 0 1.771 0 2.654-1.183 0-2.334 0-3.517 0 0-0.883 0-1.752 0-2.654-0.908 0-1.771 0-2.66 0 0-1.183 0-2.328 0-3.524 0.87 0 1.752 0 2.654 0 0-0.908 0-1.765 0-2.648 1.177 0 2.321 0 3.517 0 0 0.173 0 0.352 0 0.524 0 0.608 0.006 1.215-0.006 1.823-0.006 0.224 0.070 0.301 0.294 0.294 0.659-0.013 1.324-0.006 1.982-0.006 0.128 0 0.256 0 0.39 0z"></path>
</symbol>
<symbol id="icon-calendar" viewBox="0 0 32 32">
<title>calendar</title>
<path d="M28.25 2.5h-1.5v-2.5h-2.5v2.5h-16.5v-2.5h-2.5v2.5h-1.5c-2.068 0-3.75 1.682-3.75 3.75v22c0 2.068 1.682 3.75 3.75 3.75h24.5c2.068 0 3.75-1.682 3.75-3.75v-22c0-2.068-1.682-3.75-3.75-3.75zM29.5 28.25c0 0.689-0.561 1.25-1.25 1.25h-24.5c-0.689 0-1.25-0.561-1.25-1.25v-16.5h27v16.5zM29.5 9.25h-27v-3c0-0.689 0.561-1.25 1.25-1.25h1.5v2.5h2.5v-2.5h16.5v2.5h2.5v-2.5h1.5c0.689 0 1.25 0.561 1.25 1.25v3z"></path>
<path d="M7.25 14.375h-2.5v2.5h2.5v-2.5z"></path>
<path d="M12.25 14.375h-2.5v2.5h2.5v-2.5z"></path>
<path d="M17.25 14.375h-2.5v2.5h2.5v-2.5z"></path>
<path d="M22.25 14.375h-2.5v2.5h2.5v-2.5z"></path>
<path d="M27.25 14.375h-2.5v2.5h2.5v-2.5z"></path>
<path d="M7.25 19.375h-2.5v2.5h2.5v-2.5z"></path>
<path d="M12.25 19.375h-2.5v2.5h2.5v-2.5z"></path>
<path d="M17.25 19.375h-2.5v2.5h2.5v-2.5z"></path>
<path d="M22.25 19.375h-2.5v2.5h2.5v-2.5z"></path>
<path d="M7.25 24.375h-2.5v2.5h2.5v-2.5z"></path>
<path d="M12.25 24.375h-2.5v2.5h2.5v-2.5z"></path>
<path d="M17.25 24.375h-2.5v2.5h2.5v-2.5z"></path>
<path d="M22.25 24.375h-2.5v2.5h2.5v-2.5z"></path>
<path d="M27.25 19.375h-2.5v2.5h2.5v-2.5z"></path>
</symbol>
<symbol id="icon-call-center" viewBox="0 0 32 32">
<title>call-center</title>
<path d="M13.487 17.572c0 0.907-0.736 1.643-1.643 1.643s-1.643-0.736-1.643-1.643c0-0.907 0.736-1.643 1.643-1.643s1.643 0.736 1.643 1.643zM20.156 15.929c-0.907 0-1.643 0.736-1.643 1.643s0.736 1.643 1.643 1.643 1.643-0.736 1.643-1.643c0-0.907-0.736-1.643-1.643-1.643zM32 16.657v3.122c0 1.568-1.271 2.839-2.839 2.839h-2.060c-2.041 5.667-7.253 9.090-11.102 9.090s-9.061-3.423-11.102-9.090h-2.060c-1.568 0-2.839-1.271-2.839-2.838v-3.123c0-1.079 0.602-2.017 1.488-2.497 0.030-4.433 1.322-7.896 3.846-10.289 2.504-2.374 6.092-3.578 10.666-3.578s8.162 1.204 10.666 3.578c2.524 2.394 3.816 5.856 3.846 10.289 0.886 0.48 1.488 1.418 1.488 2.497zM25.992 17.583c0-0.73-0.037-1.417-0.093-2.082-1.26-1.153-3.547-2.027-6.433-2.352 0.379 0.426 0.706 0.987 0.905 1.725-1.768-1.393-5.238-1.061-7.863-4.178-0.15-0.174-0.281-0.34-0.393-0.492-0.001-0.002-0.003-0.003-0.004-0.005v0c-0.467-0.632-0.626-1.007-0.635-0.591-0.077 3.582-2.616 6.375-5.436 6.769-0.018 0.394-0.032 0.792-0.032 1.207 0 1.514 0.247 2.894 0.668 4.138 1.584 1.91 4.199 2.45 6.514 2.593 0.43-0.684 1.394-1.161 2.517-1.161 1.523 0 2.757 0.876 2.757 1.957s-1.234 1.957-2.757 1.957c-1.171 0-2.169-0.519-2.568-1.25-1.618-0.094-3.397-0.37-4.982-1.118 2.229 3.286 5.685 5.023 7.843 5.023 3.391 0 9.992-4.284 9.992-12.138zM28.803 13.818c-0.181-7.736-4.596-11.823-12.803-11.823s-12.622 4.087-12.803 11.823h1.092c0.399-2.607 1.243-4.752 2.525-6.401 2.042-2.627 5.133-3.96 9.186-3.96s7.144 1.332 9.186 3.96c1.281 1.649 2.125 3.793 2.525 6.401h1.092z"></path>
</symbol>
<symbol id="icon-check-box" viewBox="0 0 32 32">
<title>check-box</title>
<path d="M28.444 0h-24.889c-1.956 0-3.556 1.6-3.556 3.556v24.889c0 1.956 1.6 3.556 3.556 3.556h24.889c1.956 0 3.556-1.6 3.556-3.556v-24.889c0-1.956-1.6-3.556-3.556-3.556zM12.444 24.889l-8.889-8.889 2.489-2.489 6.4 6.4 13.511-13.511 2.489 2.489-16 16z"></path>
</symbol>
<symbol id="icon-checked" viewBox="0 0 32 32">
<title>checked</title>
<path d="M16 0c-8.836 0-16 7.164-16 16s7.164 16 16 16c8.837 0 16-7.163 16-16s-7.163-16-16-16zM13.065 24.219l-7.045-7.045 2.348-2.348 4.697 4.697 10.567-10.567 2.348 2.348-12.915 12.915z"></path>
</symbol>
<symbol id="icon-checked2" viewBox="0 0 32 32">
<title>checked2</title>
<path d="M16 2.7c-7.4 0-13.3 5.9-13.3 13.3s6 13.3 13.3 13.3c7.4 0 13.3-6 13.3-13.3 0-7.4-5.9-13.3-13.3-13.3zM13.6 22.9l-5.9-5.9 2-2 3.9 3.9 8.8-8.8 2 2-10.8 10.8z"></path>
<path d="M16 32c-8.8 0-16-7.2-16-16s7.2-16 16-16 16 7.2 16 16-7.2 16-16 16zM16 1c-8.3 0-15 6.7-15 15s6.7 15 15 15c8.3 0 15-6.7 15-15s-6.7-15-15-15z"></path>
</symbol>
<symbol id="icon-co-hoi" viewBox="0 0 32 32">
<title>co-hoi</title>
<path d="M28.903 22.234v-13.976h-1.264l-4.129 4.645h-3.897v-2.109l3.331-0.302c1.325-0.12 2.324-1.206 2.344-2.532l2.584-2.584 1.828 1.828 1.462-5.848-5.848 1.462 1.828 1.828-1.85 1.85v-4.727c0-0.975-0.793-1.769-1.801-1.769-0.485 0-0.94 0.187-1.282 0.526-0.343 0.341-0.532 0.794-0.531 1.277v4.951l-2.966 0.271c0.559-0.636 0.902-1.468 0.902-2.38 0-1.992-1.621-3.613-3.613-3.613s-3.613 1.621-3.613 3.613c0 1.056 0.459 2.006 1.184 2.667-2.141 0.413-3.765 2.299-3.765 4.559v0.819l-8.623 8.623 0.73 0.73 7.893-7.893v1.335c0 0.525 0.159 1.013 0.43 1.421l-4.676 4.676c-3.172 0.662-5.56 1.702-5.56 3.193v3.097c0 2.711 8.049 4.129 16 4.129s16-1.418 16-4.129v-3.097c0-1.070-1.231-1.907-3.097-2.54zM29.742 2.774l-0.602 2.41-1.808-1.808 2.41-0.602zM10.966 17.635c0.408 0.27 0.896 0.43 1.421 0.43v2.679c-0.682 0.038-1.374 0.089-2.065 0.152v-2.618l0.644-0.643zM12.387 21.781v1.979l-2.461-1.79c0.771-0.077 1.594-0.141 2.461-0.189zM14.452 26.839c0.619 0 1.17-0.28 1.548-0.713 0.379 0.434 0.929 0.713 1.548 0.713 0.959 0 1.761-0.66 1.991-1.548h11.152c-1.239 1.209-6.603 2.581-14.692 2.581-2.010 0-3.852-0.085-5.505-0.231l2.131-1.922c0.344 0.662 1.029 1.12 1.825 1.12zM30.66 24.258h-11.047v-2.477c6.231 0.351 10.006 1.515 11.047 2.477zM27.871 9.551v12.37c-0.643-0.174-1.336-0.33-2.064-0.467v-9.58l2.064-2.323zM23.974 13.935l0.8-0.901v8.242c-0.672-0.106-1.365-0.198-2.064-0.276v-7.065h1.264zM21.677 13.935v6.961c-0.691-0.064-1.382-0.115-2.064-0.152v-6.808h2.064zM14.968 8.258l1.003-0.001c0.010 0 0.019 0.002 0.029 0.002s0.020-0.002 0.030-0.002l0.533-0.001 0.469-0.043v0.045c0 0.569-0.463 1.032-1.032 1.032s-1.032-0.463-1.032-1.033zM13.419 4.645c0-1.423 1.158-2.581 2.581-2.581s2.581 1.158 2.581 2.581c0 1.423-1.158 2.581-2.581 2.581s-2.581-1.158-2.581-2.581zM10.839 11.871c0-1.818 1.351-3.322 3.101-3.572 0.022 1.119 0.936 2.024 2.060 2.024 1.139 0 2.064-0.926 2.064-2.064v-0.138l4.645-0.422v-5.893c0-0.206 0.081-0.4 0.226-0.545 0.147-0.147 0.344-0.227 0.587-0.227 0.406 0 0.736 0.33 0.736 0.737v6.152c0 0.806-0.605 1.469-1.409 1.542l-4.269 0.389v14.923c0 0.569-0.463 1.032-1.032 1.032s-1.032-0.463-1.032-1.032v-9.806h-1.032v9.806c0 0.569-0.463 1.032-1.032 1.032s-1.032-0.463-1.032-1.032v-14.452h-1.032v6.71c-0.854 0-1.548-0.695-1.548-1.548v-3.613zM9.29 19.31v1.691c-0.66 0.074-1.313 0.16-1.949 0.258l1.949-1.949zM8.415 22.148l3.669 2.669-2.974 2.682c-5.121-0.596-8.078-1.793-8.078-2.725 0-0.808 2.55-1.979 7.383-2.626zM1.032 27.871v-1.533c1.457 1.018 4.324 1.741 7.742 2.154v2.062c-4.912-0.608-7.742-1.772-7.742-2.683zM16 30.968c-2.295 0-4.369-0.11-6.194-0.296v-2.066c1.971 0.197 4.085 0.298 6.194 0.298 6.246 0 12.55-0.876 14.968-2.565v1.533c0 1.293-5.694 3.097-14.968 3.097z"></path>
</symbol>
<symbol id="icon-commitment" viewBox="0 0 32 32">
<title>commitment</title>
<path d="M10.58 16.937h11.25c0.518 0 0.938-0.419 0.938-0.937v-11.313c0-0.518-0.419-0.938-0.938-0.938h-2.813v-0.938c0-1.551-1.262-2.813-2.813-2.813s-2.813 1.262-2.813 2.813v0.938h-2.813c-0.518 0-0.937 0.419-0.937 0.938v11.313c0 0.518 0.419 0.937 0.937 0.937zM15.268 2.813c0-0.517 0.421-0.938 0.938-0.938s0.938 0.42 0.938 0.938v0.938h-1.875v-0.938z"></path>
<path d="M29.863 15.515c-0.168-0.28-0.474-0.452-0.802-0.452-1.652 0-3.167 0.917-3.934 2.38l-2.876 5.488c-0.489 0.93-1.443 1.507-2.492 1.507h-6.367c-0.518 0-0.938-0.419-0.938-0.938s0.419-0.938 0.938-0.938h6.367c0.35 0 0.668-0.192 0.831-0.503s0.653-1.246 1.075-2.051c0.133-0.253 0.123-0.558-0.025-0.803s-0.414-0.393-0.7-0.393h-9.745c-1.252 0-2.428 0.488-3.314 1.373l-5.544 5.544c-0.366 0.366-0.366 0.959 0 1.326l4.687 4.669c0.183 0.183 0.423 0.275 0.663 0.275s0.48-0.092 0.663-0.275l3.556-3.538h7.853c2.448 0 4.677-1.348 5.814-3.517l4.318-8.235c0.154-0.29 0.143-0.64-0.027-0.921v0z"></path>
</symbol>
<symbol id="icon-dao-tao" viewBox="0 0 32 32">
<title>dao-tao</title>
<path d="M29.137 25.597l-1.292-0.452c0.723-0.578 1.188-1.47 1.188-2.471v-0.955c0-1.738-1.402-3.151-3.124-3.151s-3.124 1.414-3.124 3.151v0.955c0 1 0.465 1.893 1.189 2.471l-1.292 0.452c-0.668 0.234-1.256 0.623-1.728 1.139-0.464-0.506-1.051-0.902-1.726-1.139l-1.292-0.452c0.723-0.578 1.188-1.47 1.188-2.471v-0.955c0-1.738-1.402-3.151-3.124-3.151s-3.124 1.414-3.124 3.151v0.955c0 1 0.465 1.893 1.188 2.471l-1.292 0.452c-0.675 0.236-1.262 0.633-1.726 1.139-0.472-0.516-1.059-0.905-1.728-1.139l-1.292-0.452c0.723-0.578 1.188-1.47 1.188-2.471v-0.955c0-1.738-1.401-3.151-3.124-3.151s-3.124 1.414-3.124 3.151v0.955c0 1 0.465 1.893 1.188 2.471l-1.292 0.452c-1.712 0.6-2.863 2.231-2.863 4.059v1.867c0 0.264 0.212 0.477 0.473 0.477h15.083c0.261 0 0.473-0.214 0.473-0.477s-0.212-0.477-0.473-0.477h-4.7v-1.389c0-1.422 0.895-2.691 2.227-3.157l1.924-0.674h1.986l1.924 0.674c1.332 0.467 2.227 1.735 2.227 3.157v1.389h-3.377c-0.261 0-0.473 0.214-0.473 0.477s0.212 0.477 0.473 0.477h13.76c0.261 0 0.473-0.214 0.473-0.477v-1.867c0-1.828-1.151-3.46-2.863-4.059zM3.913 21.719c0-1.211 0.977-2.196 2.178-2.196s2.177 0.985 2.177 2.196v0.955c0 1.211-0.977 2.196-2.177 2.196s-2.178-0.985-2.178-2.196v-0.955zM0.947 31.045v-1.389c0-1.422 0.895-2.691 2.227-3.157l1.924-0.674h1.986l1.924 0.674c0.578 0.202 1.079 0.554 1.464 1.025-0.361 0.636-0.563 1.366-0.563 2.132v1.389h-8.962zM13.822 21.719c0-1.211 0.977-2.196 2.178-2.196s2.178 0.985 2.178 2.196v0.955c0 1.211-0.977 2.196-2.178 2.196s-2.178-0.985-2.178-2.196v-0.955zM23.732 21.719c0-1.211 0.977-2.196 2.178-2.196s2.177 0.985 2.177 2.196v0.955c0 1.211-0.977 2.196-2.177 2.196s-2.178-0.985-2.178-2.196v-0.955zM31.053 31.045h-8.962v-1.389c0-0.766-0.203-1.497-0.563-2.132 0.385-0.471 0.886-0.822 1.464-1.025l1.924-0.674h1.986l1.924 0.674c1.332 0.466 2.227 1.735 2.227 3.157v1.389z"></path>
<path d="M0.476 16.593h2.432c0.263 0 0.476-0.217 0.476-0.484s-0.213-0.484-0.476-0.484h-1.956v-1.905c0-1.853 1.468-3.362 3.283-3.389 0.526 0.404 1.18 0.644 1.889 0.644s1.363-0.24 1.889-0.644c1.815 0.027 3.283 1.536 3.283 3.389v1.905h-6.15c-0.263 0-0.476 0.217-0.476 0.484s0.213 0.484 0.476 0.484h6.626c0.263 0 0.476-0.217 0.476-0.484v-2.389c0-2.111-1.483-3.877-3.444-4.275 0.293-0.486 0.462-1.056 0.462-1.667v-1.421c0-1.763-1.409-3.197-3.141-3.197s-3.141 1.434-3.141 3.197v1.421c0 0.61 0.169 1.181 0.462 1.667-1.961 0.398-3.444 2.163-3.444 4.275v2.389c0 0.268 0.213 0.484 0.476 0.484zM3.934 6.357c0-1.229 0.982-2.228 2.189-2.228s2.189 0.999 2.189 2.228v1.421c0 1.228-0.982 2.228-2.189 2.228s-2.189-0.999-2.189-2.228v-1.421z"></path>
<path d="M31.531 0h-13.046c-0.259 0-0.469 0.213-0.469 0.477s0.21 0.477 0.469 0.477h12.577v12.524h-16.692v-12.524h1.938c0.259 0 0.469-0.213 0.469-0.477s-0.21-0.477-0.469-0.477h-2.407c-0.259 0-0.469 0.213-0.469 0.477v15.639c0 0.263 0.21 0.477 0.469 0.477h17.63c0.259 0 0.469-0.213 0.469-0.477v-15.639c0-0.263-0.21-0.477-0.469-0.477v0zM14.37 15.639v-1.208h16.692v1.208h-16.692z"></path>
<path d="M23.008 3.556h6.133c0.27 0 0.489-0.177 0.489-0.395s-0.219-0.395-0.489-0.395h-6.133c-0.27 0-0.489 0.177-0.489 0.395s0.219 0.395 0.489 0.395z"></path>
<path d="M23.008 7.111h6.133c0.27 0 0.489-0.265 0.489-0.593s-0.219-0.593-0.489-0.593h-6.133c-0.27 0-0.489 0.266-0.489 0.593s0.219 0.593 0.489 0.593z"></path>
<path d="M15.802 9.679c0 0.327 0.212 0.593 0.474 0.593h12.88c0.262 0 0.474-0.266 0.474-0.593s-0.212-0.593-0.474-0.593h-12.88c-0.262 0-0.474 0.265-0.474 0.593z"></path>
<path d="M18.37 1.975c-1.634 0-2.963 1.329-2.963 2.963s1.329 2.963 2.963 2.963c1.634 0 2.963-1.329 2.963-2.963s-1.329-2.963-2.963-2.963zM18.37 6.966c-1.118 0-2.027-0.909-2.027-2.027s0.909-2.028 2.027-2.028 2.027 0.909 2.027 2.028c0 1.118-0.909 2.027-2.027 2.027z"></path>
</symbol>
<symbol id="icon-delete" viewBox="0 0 32 32">
<title>delete</title>
<path d="M22.098 11.033l-2.505-0.092-0.543 14.83 2.505 0.092 0.543-14.83z"></path>
<path d="M17.253 10.987h-2.506v14.83h2.506v-14.83z"></path>
<path d="M12.949 25.771l-0.543-14.83-2.505 0.092 0.543 14.83 2.505-0.092z"></path>
<path d="M1.086 4.804v2.506h2.612l2.072 23.546c0.057 0.647 0.599 1.143 1.248 1.143h17.921c0.65 0 1.192-0.497 1.248-1.144l2.072-23.546h2.654v-2.506h-29.828zM23.792 29.493h-15.626l-1.952-22.183h19.53l-1.952 22.183z"></path>
<path d="M20.094 0h-8.188c-1.152 0-2.089 0.937-2.089 2.089v3.969h2.506v-3.551h7.353v3.551h2.506v-3.969c0-1.152-0.937-2.089-2.089-2.089z"></path>
</symbol>
<symbol id="icon-dot" viewBox="0 0 32 32">
<title>dot</title>
<path d="M16 2c7.8 0 14 6.2 14 14s-6.2 14-14 14c-7.8 0-14-6.2-14-14s6.2-14 14-14zM16 0c-8.8 0-16 7.2-16 16s7.2 16 16 16c8.8 0 16-7.2 16-16s-7.2-16-16-16z"></path>
</symbol>
<symbol id="icon-dot-selected" viewBox="0 0 32 32">
<title>dot-selected</title>
<path d="M16 8c-4.4 0-8 3.6-8 8s3.6 8 8 8c4.4 0 8-3.6 8-8s-3.6-8-8-8z"></path>
<path d="M16 2c7.8 0 14 6.2 14 14s-6.2 14-14 14c-7.8 0-14-6.2-14-14s6.2-14 14-14zM16 0c-8.8 0-16 7.2-16 16s7.2 16 16 16c8.8 0 16-7.2 16-16s-7.2-16-16-16z"></path>
</symbol>
<symbol id="icon-down" viewBox="0 0 32 32">
<title>down</title>
<path d="M0.911 9.502l1.822-1.822 13.266 13.263 13.266-13.263 1.822 1.822-15.089 15.086-15.089-15.086z"></path>
<path d="M32 9.502l-16 15.998-16-15.998 2.734-2.733 13.266 13.263 13.266-13.264 2.734 2.733zM16 23.677l14.178-14.176-0.911-0.911-13.266 13.264-13.266-13.263-0.911 0.911 14.178 14.175z"></path>
</symbol>
<symbol id="icon-edit" viewBox="0 0 32 32">
<title>edit</title>
<path d="M31.082 19.478c-0.463 0-0.839 0.375-0.839 0.839v7.447c-0.002 1.389-1.127 2.514-2.516 2.516h-23.534c-1.389-0.002-2.515-1.127-2.516-2.516v-21.856c0.002-1.389 1.127-2.515 2.516-2.516h7.447c0.463 0 0.839-0.375 0.839-0.839s-0.375-0.839-0.839-0.839h-7.447c-2.315 0.003-4.191 1.879-4.194 4.194v21.856c0.003 2.315 1.879 4.191 4.194 4.194h23.534c2.315-0.003 4.191-1.879 4.194-4.194v-7.447c0-0.463-0.375-0.839-0.839-0.839z"></path>
<path d="M13.115 15.064l12.246-12.247 3.95 3.95-12.246 12.247-3.95-3.95z"></path>
<path d="M11.117 21.012l4.365-1.209-3.156-3.156-1.209 4.365z"></path>
<path d="M30.402 0.742c-0.819-0.817-2.146-0.817-2.965 0l-0.889 0.889 3.95 3.95 0.889-0.889c0.818-0.819 0.818-2.146 0-2.965l-0.984-0.984z"></path>
</symbol>
<symbol id="icon-exclamation-mark" viewBox="0 0 32 32">
<title>exclamation-mark</title>
<path d="M16 0c-8.836 0-16 7.164-16 16s7.164 16 16 16c8.837 0 16-7.162 16-16 0-8.836-7.163-16-16-16zM16 29c-7.18 0-13-5.82-13-13s5.82-13 13-13c7.18 0 13 5.82 13 13s-5.82 13-13 13zM16.001 7.017c-1.146 0-2.013 0.598-2.013 1.564v8.86c0 0.967 0.867 1.563 2.013 1.563 1.118 0 2.013-0.621 2.013-1.563v-8.86c0-0.943-0.895-1.564-2.013-1.564zM16.001 21c-1.101 0-1.997 0.896-1.997 1.998 0 1.1 0.896 1.996 1.997 1.996s1.996-0.896 1.996-1.996c0-1.102-0.895-1.998-1.996-1.998z"></path>
</symbol>
<symbol id="icon-fast" viewBox="0 0 32 32">
<title>fast</title>
<path d="M17.44 31.040c4.64-1.76 7.040-6.4 6.080-11.52 4.96-4.96 8.32-11.84 8.48-18.72 0-0.48-0.32-0.8-0.8-0.8-6.88 0.16-13.76 3.52-18.72 8.32-4.96-0.8-9.76 1.44-11.52 6.080 2.080-0.8 4.48-0.96 6.88-0.32-0.48 0.8-0.96 1.6-1.28 2.4-0.16 0.32-0.16 0.64 0.16 0.96l8 8c0.16 0.16 0.48 0.16 0.8 0 0.8-0.32 1.6-0.8 2.24-1.28 0.64 2.4 0.48 4.8-0.32 6.88zM18.56 13.44c-1.28-1.28-1.28-3.2 0-4.48s3.2-1.28 4.48 0c1.28 1.28 1.28 3.2 0 4.48s-3.2 1.28-4.48 0z"></path>
<path d="M8.96 31.52l3.36-3.36c0.64-0.64 0.64-1.6 0-2.24s-1.6-0.64-2.24 0l-3.36 3.36c-0.64 0.64-0.64 1.6 0 2.24s1.6 0.64 2.24 0z"></path>
<path d="M2.72 25.28l3.36-3.36c0.64-0.64 0.64-1.6 0-2.24s-1.6-0.64-2.24 0l-3.36 3.36c-0.64 0.64-0.64 1.6 0 2.24s1.6 0.64 2.24 0z"></path>
<path d="M4.48 29.6l4.64-4.64c0.64-0.64 0.64-1.6 0-2.24s-1.6-0.64-2.24 0l-4.64 4.64c-0.64 0.64-0.64 1.6 0 2.24s1.6 0.64 2.24 0z"></path>
</symbol>
<symbol id="icon-free-delivery" viewBox="0 0 32 32">
<title>free-delivery</title>
<path d="M11.333 12h-0.667v1.333h0.667c0.367 0 0.667-0.299 0.667-0.667s-0.3-0.667-0.667-0.667z"></path>
<path d="M31.805 13.529l-6.667-6.667c-0.125-0.125-0.294-0.195-0.471-0.195h-6v-2c0-0.369-0.298-0.667-0.667-0.667h-15.333c-1.47 0-2.667 1.196-2.667 2.667v16.667c0 1.103 0.897 2 2 2h1.579c0.552 1.549 2.018 2.667 3.754 2.667s3.202-1.118 3.754-2.667h9.825c0.552 1.549 2.018 2.667 3.754 2.667s3.202-1.118 3.754-2.667h0.912c1.47 0 2.667-1.196 2.667-2.667v-8.667c0-0.177-0.070-0.346-0.195-0.471zM4 16.667v-5.333c0-0.368 0.298-0.667 0.667-0.667h2.667c0.369 0 0.667 0.298 0.667 0.667s-0.298 0.667-0.667 0.667h-2v1.333h1.333c0.369 0 0.667 0.298 0.667 0.667s-0.298 0.667-0.667 0.667h-1.333v2c0 0.369-0.298 0.667-0.667 0.667s-0.667-0.298-0.667-0.667zM7.333 26.667c-1.47 0-2.667-1.196-2.667-2.667s1.197-2.667 2.667-2.667c1.47 0 2.667 1.196 2.667 2.667s-1.197 2.667-2.667 2.667zM13.333 15.333v1.333c0 0.369-0.298 0.667-0.667 0.667s-0.667-0.298-0.667-0.667v-1.333c0-0.368-0.3-0.667-0.667-0.667h-0.667v2c0 0.369-0.298 0.667-0.667 0.667s-0.667-0.298-0.667-0.667v-5.333c0-0.368 0.298-0.667 0.667-0.667h1.333c1.103 0 2 0.897 2 2 0 0.512-0.193 0.979-0.51 1.333 0.318 0.354 0.511 0.822 0.511 1.333zM17.333 13.333c0.369 0 0.667 0.298 0.667 0.667s-0.298 0.667-0.667 0.667h-1.333v1.333h2c0.369 0 0.667 0.298 0.667 0.667s-0.298 0.667-0.667 0.667h-2.667c-0.368 0-0.667-0.298-0.667-0.667v-5.333c0-0.368 0.298-0.667 0.667-0.667h2.667c0.369 0 0.667 0.298 0.667 0.667s-0.298 0.667-0.667 0.667h-2v1.333h1.333zM20.667 17.333c-0.369 0-0.667-0.298-0.667-0.667v-5.333c0-0.368 0.298-0.667 0.667-0.667h2.667c0.369 0 0.667 0.298 0.667 0.667s-0.298 0.667-0.667 0.667h-2v1.333h1.333c0.369 0 0.667 0.298 0.667 0.667s-0.298 0.667-0.667 0.667h-1.333v1.333h2c0.369 0 0.667 0.298 0.667 0.667s-0.298 0.667-0.667 0.667h-2.667zM24.667 26.667c-1.47 0-2.667-1.196-2.667-2.667s1.197-2.667 2.667-2.667c1.47 0 2.667 1.196 2.667 2.667s-1.197 2.667-2.667 2.667z"></path>
</symbol>
<symbol id="icon-go" viewBox="0 0 32 32">
<title>go</title>
<path d="M0 16c0-8.822 7.178-16 16-16s16 7.178 16 16c0 8.822-7.178 16-16 16s-16-7.178-16-16zM10.88 21.846c0 0.598 0.487 1.085 1.086 1.085 0.189 0 0.376-0.050 0.541-0.145l9.665-5.58c0.34-0.197 0.543-0.547 0.543-0.94s-0.203-0.744-0.543-0.94l-9.665-5.58c-0.165-0.096-0.353-0.146-0.541-0.146-0.599 0-1.086 0.487-1.086 1.085v11.16z"></path>
</symbol>
<symbol id="icon-home" viewBox="0 0 32 32">
<title>home</title>
<path d="M31.373 14.338l-13.369-13.503c-1.105-1.113-2.902-1.114-4.009 0.001l-13.368 13.501c-0.836 0.844-0.836 2.213 0 3.057s2.191 0.845 3.027 0l1.812-1.831v14.132c0 1.272 1.021 2.303 2.281 2.303h4.873v-6.421c0-0.499 0.4-0.904 0.895-0.904h4.972c0.494 0 0.895 0.405 0.895 0.904v6.421h4.872c1.26 0 2.281-1.031 2.281-2.303v-14.131l1.811 1.829c0.418 0.422 0.966 0.633 1.514 0.633s1.095-0.211 1.514-0.633c0.836-0.844 0.836-2.213 0-3.057z"></path>
</symbol>
<symbol id="icon-iman" viewBox="0 0 28 32">
<title>iman</title>
<path d="M24.332 21.727c-3.42-1.304-5.464-2.64-5.464-2.64l-2.634 8.333-0.36 1.127-1.179-3.341c2.712-3.78-0.203-3.964-0.714-3.964h-0.026c-0.504 0.007-3.42 0.183-0.707 3.964l-1.179 3.341-0.36-1.127-2.634-8.333c0 0-2.044 1.337-5.464 2.64-3.767 1.369-3.531 4.468-3.61 10.272h27.955c-0.092-5.805 0.137-8.903-3.623-10.273z"></path>
<path d="M7.305 14.953c-0.341 0.727-0.917 1.631-1.841 2.083-0.301 0.151-0.236 0.603 0.098 0.655 1.009 0.157 2.457-0.020 3.806-1.042l0.020 0.013c3.426 2.024 7.914 1.559 10.862-1.382 3.498-3.498 3.498-9.165 0-12.657-3.498-3.498-9.159-3.498-12.657 0-3.367 3.367-3.492 8.739-0.38 12.258l0.092 0.072zM14.295 3.423c0.806 0.007 1.448 0.662 1.441 1.481-0.007 0.806-0.662 1.468-1.448 1.461-0.812-0.007-1.467-0.668-1.461-1.481 0.007-0.819 0.662-1.461 1.467-1.461zM11.459 7.341c0.020-0.157 0.118-0.262 0.328-0.301 0.111-0.020 0.223-0.026 0.334-0.026 0.445 0 0.898 0 1.343 0 0.472 0 0.95 0 1.422 0 0.341 0 0.544 0.164 0.55 0.504 0.007 0.282-0.039 0.57-0.092 0.852-0.184 1.042-0.38 2.083-0.57 3.125-0.066 0.347-0.131 0.688-0.177 1.035-0.020 0.164 0.007 0.341 0.046 0.505 0.052 0.216 0.216 0.341 0.439 0.314 0.184-0.020 0.367-0.085 0.544-0.151 0.144-0.052 0.269-0.151 0.413-0.21 0.21-0.085 0.387 0.066 0.334 0.282-0.033 0.124-0.111 0.255-0.203 0.347-0.531 0.537-1.166 0.858-1.926 0.865-0.354 0.007-0.714-0.007-1.061-0.059-0.583-0.085-1.323-0.806-1.219-1.579 0.072-0.524 0.151-1.055 0.242-1.572 0.157-0.911 0.321-1.821 0.478-2.732 0.013-0.059 0.013-0.118 0.013-0.177 0-0.38-0.118-0.518-0.498-0.57-0.164-0.020-0.328-0.033-0.478-0.092-0.197-0.066-0.275-0.216-0.262-0.36z"></path>
</symbol>
<symbol id="icon-information" viewBox="0 0 32 32">
<title>information</title>
<path d="M16 25.219c0.863 0 1.563-0.7 1.563-1.563s-0.7-1.562-1.563-1.562-1.563 0.7-1.563 1.562c0 0.863 0.7 1.563 1.563 1.563z"></path>
<path d="M16 0c-8.843 0-16 7.156-16 16 0 8.843 7.156 16 16 16 8.843 0 16-7.156 16-16 0-8.843-7.156-16-16-16zM16 29.5c-7.461 0-13.5-6.038-13.5-13.5s6.038-13.5 13.5-13.5 13.5 6.038 13.5 13.5c0 7.461-6.038 13.5-13.5 13.5z"></path>
<path d="M16 8.031c-2.757 0-5 2.243-5 5 0 0.69 0.56 1.25 1.25 1.25s1.25-0.56 1.25-1.25c0-1.378 1.121-2.5 2.5-2.5s2.5 1.122 2.5 2.5c0 1.379-1.122 2.5-2.5 2.5-0.69 0-1.25 0.56-1.25 1.25v3.125c0 0.69 0.56 1.25 1.25 1.25s1.25-0.56 1.25-1.25v-2.033c2.154-0.556 3.75-2.516 3.75-4.842 0-2.757-2.243-5-5-5z"></path>
</symbol>
<symbol id="icon-information-button" viewBox="0 0 32 32">
<title>information-button</title>
<path d="M15.999 0c-8.835 0-15.999 7.164-15.999 15.999s7.164 16.001 15.999 16.001c8.835 0 16.001-7.165 16.001-16.001s-7.165-15.999-16.001-15.999zM19.33 24.797c-0.823 0.325-1.479 0.572-1.971 0.742-0.49 0.171-1.061 0.256-1.709 0.256-0.997 0-1.773-0.244-2.326-0.73s-0.828-1.103-0.828-1.852c0-0.291 0.020-0.589 0.061-0.893 0.042-0.303 0.108-0.645 0.199-1.028l1.031-3.641c0.091-0.349 0.169-0.681 0.232-0.99 0.062-0.312 0.092-0.597 0.092-0.857 0-0.463-0.096-0.788-0.287-0.971-0.194-0.183-0.558-0.272-1.101-0.272-0.265 0-0.539 0.039-0.819 0.122-0.278 0.085-0.519 0.162-0.716 0.238l0.272-1.121c0.675-0.275 1.321-0.511 1.937-0.706 0.616-0.198 1.199-0.295 1.747-0.295 0.99 0 1.754 0.241 2.292 0.718 0.535 0.478 0.805 1.1 0.805 1.864 0 0.159-0.019 0.438-0.056 0.836-0.037 0.4-0.106 0.764-0.206 1.099l-1.025 3.63c-0.084 0.291-0.159 0.624-0.226 0.997-0.066 0.372-0.099 0.657-0.099 0.848 0 0.482 0.107 0.811 0.324 0.986 0.214 0.175 0.589 0.263 1.12 0.263 0.251 0 0.531-0.045 0.848-0.131 0.314-0.087 0.542-0.164 0.685-0.23l-0.275 1.12zM19.148 10.063c-0.478 0.444-1.054 0.666-1.727 0.666-0.672 0-1.252-0.222-1.734-0.666-0.479-0.444-0.722-0.985-0.722-1.616 0-0.63 0.244-1.172 0.722-1.62 0.482-0.45 1.062-0.673 1.734-0.673 0.673 0 1.25 0.223 1.727 0.673 0.478 0.448 0.718 0.99 0.718 1.62 0 0.633-0.24 1.172-0.718 1.616z"></path>
</symbol>
<symbol id="icon-left" viewBox="0 0 32 32">
<title>left</title>
<path d="M22.498 0.911l1.822 1.822-13.263 13.266 13.263 13.266-1.822 1.822-15.086-15.089 15.086-15.089z"></path>
<path d="M22.498 32l-15.998-16 15.998-16 2.733 2.734-13.263 13.266 13.264 13.266-2.733 2.734zM8.323 16l14.176 14.178 0.911-0.911-13.264-13.266 13.263-13.266-0.911-0.911-14.175 14.178z"></path>
</symbol>
<symbol id="icon-Line" viewBox="0 0 32 32">
<title>Line</title>
<path stroke-linejoin="miter" stroke-linecap="butt" stroke-miterlimit="4" stroke-width="3.4286" d="M16 0v31.948"></path>
</symbol>
<symbol id="icon-location" viewBox="0 0 32 32">
<title>location</title>
<path d="M16 32c-8.8 0-16-7.2-16-16s7.2-16 16-16 16 7.2 16 16-7.2 16-16 16zM16 1c-8.3 0-15 6.7-15 15s6.7 15 15 15c8.3 0 15-6.7 15-15s-6.7-15-15-15z"></path>
<path d="M16 10.8c-1.4 0-2.5 1.1-2.5 2.5s1.1 2.5 2.5 2.5 2.5-1.1 2.5-2.5c0-1.4-1.1-2.5-2.5-2.5z"></path>
<path d="M16 2.7c-7.4 0-13.3 5.9-13.3 13.3s6 13.3 13.3 13.3 13.3-6 13.3-13.3-5.9-13.3-13.3-13.3zM16 26.5c0 0-7.1-7.9-7.1-13.2 0-4 3.1-7.1 7.1-7.1s7.1 3.1 7.1 7.1c0 5.3-7.1 13.2-7.1 13.2z"></path>
</symbol>
<symbol id="icon-love" viewBox="0 0 32 32">
<title>love</title>
<path d="M15.901 30.629l-2.226-2.226c-8.268-7.314-13.675-12.243-13.675-18.286 0-4.929 3.816-8.745 8.745-8.745 2.703 0 5.406 1.272 7.155 3.339 1.749-2.067 4.452-3.339 7.155-3.339 4.929 0 8.745 3.816 8.745 8.745 0 6.042-5.406 10.971-13.674 18.286l-2.226 2.226z"></path>
</symbol>
<symbol id="icon-luong" viewBox="0 0 21 32">
<title>luong</title>
<path d="M16.785 29.025h-14.408c-0.747 0-1.351 0.611-1.351 1.369s0.603 1.369 1.351 1.369h14.408c0.747 0 1.351-0.611 1.351-1.369s-0.603-1.369-1.351-1.369z"></path>
<path d="M19.568 2.189h-1.431v-0.477c0-0.792-0.639-1.431-1.431-1.431s-1.431 0.639-1.431 1.431v0.477h-1.431c-0.792 0-1.431 0.639-1.431 1.431s0.639 1.431 1.431 1.431h1.431v5.323c-3.644-3.425-9.377-3.253-12.812 0.391s-3.253 9.377 0.391 12.812c3.492 3.282 8.929 3.282 12.411 0v1.030c0 0.792 0.639 1.431 1.431 1.431s1.431-0.639 1.431-1.431v-19.556h1.431c0.792 0 1.431-0.639 1.431-1.431s-0.63-1.431-1.421-1.431zM9.074 23.176c-3.425 0-6.201-2.776-6.201-6.201s2.776-6.201 6.201-6.201c3.425 0 6.201 2.776 6.201 6.201s-2.776 6.201-6.201 6.201z"></path>
</symbol>
<symbol id="icon-menu-button" viewBox="0 0 32 32">
<title>menu-button</title>
<path d="M0 26.667h32v-3.556h-32v3.556zM0 17.778h32v-3.556h-32v3.556zM0 5.333v3.556h32v-3.556h-32z"></path>
</symbol>
<symbol id="icon-minus" viewBox="0 0 32 32">
<title>minus</title>
<path d="M16 32c-4.274 0-8.292-1.664-11.314-4.686s-4.686-7.040-4.686-11.314c0-4.274 1.664-8.292 4.686-11.314s7.040-4.686 11.314-4.686c4.274 0 8.292 1.664 11.314 4.686s4.686 7.040 4.686 11.314c0 4.274-1.664 8.292-4.686 11.314s-7.040 4.686-11.314 4.686zM16 2.5c-7.444 0-13.5 6.056-13.5 13.5s6.056 13.5 13.5 13.5c7.444 0 13.5-6.056 13.5-13.5s-6.056-13.5-13.5-13.5zM22.875 14.749h-13.75v2.5h13.75v-2.5z"></path>
</symbol>
<symbol id="icon-more1" viewBox="0 0 32 32">
<title>more1</title>
<path d="M0.905 3.203l1.809-1.811 13.172 13.183 13.172-13.183 1.809 1.811-14.981 14.995-14.981-14.995z"></path>
<path d="M31.771 3.201l-15.886 15.902-15.886-15.901 2.714-2.717 13.171 13.183 13.172-13.184 2.714 2.717zM15.886 17.291l14.076-14.090-0.905-0.906-13.172 13.184-13.171-13.183-0.905 0.906 14.076 14.089z"></path>
<path d="M0.905 15.615l1.809-1.811 13.172 13.183 13.172-13.183 1.809 1.811-14.981 14.995-14.981-14.995z"></path>
<path d="M31.771 15.614l-15.886 15.902-15.886-15.901 2.714-2.717 13.171 13.183 13.172-13.184 2.714 2.717zM15.886 29.703l14.076-14.090-0.905-0.905-13.172 13.184-13.171-13.183-0.905 0.905 14.076 14.089z"></path>
</symbol>
<symbol id="icon-more2" viewBox="0 0 31 32">
<title>more2</title>
<path d="M2.718 31.095l-1.811-1.809 13.183-13.172-13.183-13.172 1.811-1.809 14.995 14.981-14.995 14.981z"></path>
<path d="M2.717 0.229l15.902 15.886-15.901 15.886-2.717-2.714 13.183-13.172-13.184-13.172 2.717-2.714zM16.806 16.114l-14.090-14.076-0.906 0.905 13.184 13.172-13.183 13.171 0.906 0.905 14.089-14.076z"></path>
<path d="M15.13 31.095l-1.811-1.809 13.183-13.172-13.183-13.172 1.811-1.809 14.995 14.981-14.995 14.981z"></path>
<path d="M15.129 0.229l15.902 15.886-15.901 15.886-2.717-2.714 13.183-13.172-13.184-13.172 2.717-2.714zM29.219 16.114l-14.090-14.076-0.905 0.905 13.184 13.172-13.183 13.171 0.905 0.905 14.089-14.076z"></path>
</symbol>
<symbol id="icon-notice" viewBox="0 0 32 32">
<title>notice</title>
<path d="M27.808 23.141c-2.799-1.624-4.844-4.287-5.691-7.41l-1.38-5.159c-1.019-3.829-4.422-6.54-8.382-6.678l-0.516-1.927c-0.379-1.416-1.834-2.256-3.25-1.876s-2.255 1.834-1.876 3.25l0.516 1.926c-3.354 2.104-4.944 6.149-3.921 9.974l1.38 5.159c0.277 1.032 0.417 2.096 0.417 3.164-0.001 2.14-0.562 4.242-1.629 6.096-0.302 0.507-0.261 1.147 0.102 1.611 0.274 0.36 0.7 0.571 1.152 0.572 0.128 0 0.254-0.017 0.377-0.050l7.63-2.044c0.586 1.362 1.924 2.246 3.407 2.251 1.062 0.002 2.073-0.452 2.778-1.245s1.037-1.851 0.91-2.905l7.631-2.044c0.639-0.172 1.080-0.753 1.073-1.414 0.001-0.518-0.277-0.996-0.728-1.251v0zM7.896 1.858c0.285-0.493 0.811-0.796 1.38-0.796 0.721-0.002 1.354 0.483 1.539 1.18l0.448 1.675c-0.050 0.004-0.1 0.014-0.15 0.020-0.167 0.017-0.333 0.038-0.498 0.064-0.088 0.014-0.175 0.028-0.262 0.045-0.184 0.035-0.365 0.075-0.545 0.12-0.040 0.010-0.080 0.016-0.119 0.026s-0.064 0.021-0.097 0.030c-0.203 0.056-0.402 0.119-0.599 0.188-0.053 0.018-0.103 0.038-0.154 0.057-0.205 0.076-0.406 0.16-0.605 0.251-0.015 0.007-0.032 0.012-0.047 0.019l-0.448-1.672c-0.111-0.407-0.055-0.842 0.157-1.208zM18.794 28.129c0.074 1.257-0.747 2.393-1.963 2.719s-2.495-0.249-3.060-1.375l5.024-1.344zM27.183 24.782l-22.354 5.987c-0.153 0.043-0.317-0.013-0.411-0.141-0.099-0.125-0.11-0.299-0.026-0.435 1.161-2.016 1.773-4.302 1.775-6.629 0-1.161-0.152-2.317-0.454-3.439l-1.38-5.159c-0.939-3.503 0.607-7.198 3.76-8.99l0.009-0.004c0.446-0.245 0.914-0.446 1.398-0.601 0.153-0.051 0.301-0.111 0.457-0.152 0.536-0.142 1.086-0.228 1.64-0.258 0.117-0.006 0.235-0.013 0.352-0.014h0.082c3.601 0.001 6.751 2.422 7.679 5.901l1.38 5.16c0.922 3.394 3.146 6.287 6.188 8.052 0.122 0.065 0.198 0.193 0.196 0.331 0.006 0.182-0.115 0.344-0.291 0.39v0.001z"></path>
</symbol>
<symbol id="icon-order" viewBox="0 0 32 32">
<title>order</title>
<path d="M15.708 12.294c-0.39-0.39-1.024-0.392-1.416-0.002l-3.292 3.294-1.292-1.294c-0.39-0.39-1.024-0.39-1.414 0s-0.39 1.024 0 1.414l2 2c0.194 0.196 0.45 0.294 0.706 0.294s0.512-0.098 0.708-0.292l4-4c0.39-0.39 0.39-1.024 0-1.414z"></path>
<path d="M15.708 20.294c-0.39-0.39-1.024-0.392-1.416-0.002l-3.292 3.294-1.292-1.292c-0.39-0.39-1.024-0.39-1.414 0s-0.39 1.024 0 1.414l2 2c0.194 0.194 0.45 0.292 0.706 0.292s0.512-0.098 0.708-0.292l4-4c0.39-0.39 0.39-1.024 0-1.414z"></path>
<path d="M23 14h-4c-0.552 0-1 0.448-1 1s0.448 1 1 1h4c0.552 0 1-0.448 1-1s-0.448-1-1-1z"></path>
<path d="M23 22h-4c-0.552 0-1 0.448-1 1s0.448 1 1 1h4c0.552 0 1-0.448 1-1s-0.448-1-1-1z"></path>
<path d="M26 4h-4v-1c0-0.552-0.448-1-1-1h-2.17c-0.414-1.164-1.526-2-2.83-2s-2.416 0.836-2.83 2h-2.17c-0.552 0-1 0.448-1 1v1h-4c-1.102 0-2 0.898-2 2v24c0 1.102 0.898 2 2 2h20c1.102 0 2-0.898 2-2v-24c0-1.102-0.898-2-2-2zM12 4h2c0.552 0 1-0.448 1-1s0.448-1 1-1c0.552 0 1 0.448 1 1s0.448 1 1 1h2v2h-8v-2zM26 30h-20v-24h4v1c0 0.552 0.448 1 1 1h10c0.552 0 1-0.448 1-1v-1h4v24z"></path>
</symbol>
<symbol id="icon-password" viewBox="0 0 32 32">
<title>password</title>
<path d="M27.333 12h-2v-2.667c0-5.146-4.187-9.333-9.333-9.333s-9.333 4.187-9.333 9.333v2.667h-2c-0.369 0-0.667 0.298-0.667 0.667v16.667c0 1.471 1.196 2.667 2.667 2.667h18.667c1.471 0 2.667-1.196 2.667-2.667v-16.667c0-0.368-0.298-0.667-0.667-0.667zM17.996 25.926c0.021 0.188-0.040 0.377-0.166 0.518s-0.307 0.222-0.497 0.222h-2.667c-0.189 0-0.37-0.081-0.497-0.222s-0.187-0.33-0.166-0.518l0.421-3.782c-0.683-0.497-1.091-1.283-1.091-2.145 0-1.471 1.196-2.667 2.667-2.667s2.667 1.196 2.667 2.667c0 0.862-0.408 1.648-1.091 2.145l0.421 3.782zM21.333 12h-10.667v-2.667c0-2.941 2.393-5.333 5.333-5.333s5.333 2.393 5.333 5.333v2.667z"></path>
</symbol>
<symbol id="icon-payment" viewBox="0 0 32 32">
<title>payment</title>
<path d="M16 32c-8.8 0-16-7.2-16-16s7.2-16 16-16 16 7.2 16 16-7.2 16-16 16zM16 1c-8.3 0-15 6.7-15 15s6.7 15 15 15c8.3 0 15-6.7 15-15s-6.7-15-15-15z"></path>
<path d="M11.9 16.7c-0.3 0-0.6 0.1-0.8 0.3-0.2-0.2-0.5-0.3-0.8-0.3-0.6 0-1.2 0.5-1.2 1.2 0 0.6 0.5 1.2 1.2 1.2 0.3 0 0.6-0.1 0.8-0.3 0.2 0.2 0.5 0.3 0.8 0.3 0.6 0 1.2-0.5 1.2-1.2s-0.5-1.2-1.2-1.2z"></path>
<path d="M16 2.7c-7.4 0-13.3 5.9-13.3 13.3s6 13.3 13.3 13.3 13.3-6 13.3-13.3-5.9-13.3-13.3-13.3zM8 16.2c0-0.9 0.8-1.6 1.6-1.6h11.3c0.9 0 1.6 0.7 1.6 1.6v4.3h-14.5v-4.3zM22.5 22.4c0 0.9-0.7 1.6-1.6 1.6h-11.3c-0.8 0-1.6-0.7-1.6-1.6v-0.1l14.5 0.1zM24.6 16.7l-1.2 1.3v-1.7l0.5-0.4c0.1-0.1 0.1-0.2 0.1-0.3s0-0.2-0.1-0.3l-8-8c-0.1-0.1-0.2-0.1-0.3-0.1s-0.2 0-0.3 0.1l-2.5 2.5 4.1 4.1h-2.6l-2.7-2.8-0.6 0.6c-0.1 0.1-0.1 0.2-0.1 0.3s0 0.2 0.1 0.3l1.6 1.6h-1.7l-0.7-0.7c-0.6-0.6-0.6-1.7 0-2.3l4.4-4.4c0.1-0.3 0.5-0.5 0.9-0.5s0.8 0.2 1.1 0.5l8 8c0.7 0.6 0.7 1.6 0 2.2z"></path>
</symbol>
<symbol id="icon-percentage" viewBox="0 0 32 32">
<title>percentage</title>
<path d="M13.085 13.282c0 0.739-0.599 1.338-1.338 1.338s-1.338-0.599-1.338-1.338c0-0.739 0.599-1.338 1.338-1.338s1.338 0.599 1.338 1.338z"></path>
<path d="M21.583 18.711c0 0.739-0.599 1.338-1.338 1.338s-1.338-0.599-1.338-1.338c0-0.739 0.599-1.338 1.338-1.338s1.338 0.599 1.338 1.338z"></path>
<path d="M31.275 17.767l-0.485-0.662c-0.525-0.721-0.538-1.698-0.020-2.433l0.472-0.669c0.721-1.023 0.387-2.446-0.721-3.042l-0.721-0.387c-0.787-0.42-1.22-1.298-1.069-2.184l0.138-0.806c0.21-1.233-0.715-2.374-1.967-2.426l-0.82-0.033c-0.892-0.039-1.665-0.643-1.915-1.502l-0.23-0.787c-0.348-1.206-1.672-1.829-2.826-1.331l-0.754 0.321c-0.82 0.354-1.777 0.144-2.374-0.525l-0.544-0.61c-0.833-0.931-2.295-0.925-3.121 0.026l-0.538 0.616c-0.59 0.675-1.541 0.898-2.367 0.557l-0.761-0.315c-1.161-0.479-2.472 0.17-2.806 1.377l-0.216 0.793c-0.236 0.866-0.997 1.482-1.888 1.528l-0.82 0.046c-1.252 0.072-2.157 1.226-1.928 2.459l0.151 0.806c0.164 0.879-0.256 1.764-1.036 2.197l-0.715 0.4c-1.095 0.61-1.41 2.039-0.669 3.049l0.485 0.662c0.525 0.721 0.538 1.698 0.020 2.433l-0.472 0.669c-0.721 1.023-0.387 2.446 0.721 3.042l0.721 0.387c0.787 0.42 1.22 1.298 1.069 2.183l-0.138 0.806c-0.21 1.233 0.715 2.374 1.967 2.426l0.82 0.033c0.892 0.039 1.665 0.643 1.915 1.502l0.229 0.787c0.348 1.206 1.672 1.829 2.826 1.331l0.754-0.321c0.82-0.354 1.777-0.144 2.374 0.525l0.544 0.61c0.839 0.931 2.301 0.925 3.121-0.026l0.538-0.616c0.59-0.675 1.541-0.898 2.367-0.557l0.761 0.315c1.161 0.479 2.472-0.17 2.806-1.377l0.216-0.793c0.236-0.866 0.997-1.482 1.888-1.528l0.82-0.046c1.252-0.072 2.157-1.226 1.928-2.459l-0.151-0.806c-0.164-0.879 0.256-1.764 1.036-2.197l0.715-0.4c1.095-0.603 1.41-2.033 0.669-3.049zM8.515 13.282c0-1.784 1.443-3.226 3.226-3.226s3.226 1.443 3.226 3.226-1.443 3.226-3.226 3.226-3.226-1.449-3.226-3.226zM12.364 21.603c-0.275 0.334-0.774 0.38-1.108 0.105v0c-0.334-0.275-0.38-0.774-0.105-1.108l8.465-10.196c0.275-0.334 0.774-0.38 1.108-0.105s0.38 0.774 0.105 1.108l-8.465 10.196zM20.246 21.937c-1.784 0-3.226-1.443-3.226-3.226s1.443-3.226 3.226-3.226 3.226 1.443 3.226 3.226-1.443 3.226-3.226 3.226z"></path>
</symbol>
<symbol id="icon-phuc-loi" viewBox="0 0 32 32">
<title>phuc-loi</title>
<path d="M15.824 0.108c-0.474 0-0.858 0.384-0.858 0.858s0.384 0.858 0.858 0.858c3.582 0 6.855 1.342 9.346 3.549l-2.026 2.026c-2.037-1.753-4.604-2.709-7.32-2.709-2.791 0-5.348 1.023-7.316 2.713l-2.634-2.634c-0.005-0.005-0.010-0.008-0.014-0.013s-0.008-0.010-0.013-0.014c-0.335-0.335-0.878-0.335-1.213 0-2.989 2.989-4.635 6.963-4.635 11.189 0 8.726 7.099 15.824 15.824 15.824 4.227 0 8.201-1.646 11.189-4.635s4.635-6.963 4.635-11.189c0-8.725-7.099-15.824-15.824-15.824zM22.564 9.201c0.335 0.335 0.878 0.335 1.213 0.001 0.025-0.025 0.047-0.051 0.069-0.078 0.002-0.002 0.004-0.003 0.006-0.005l2.532-2.532c2.030 2.29 3.327 5.243 3.523 8.488h-0.954c-0.474 0-0.858 0.384-0.858 0.858s0.384 0.858 0.858 0.858h0.955c-0.188 3.161-1.416 6.125-3.518 8.493l-2.035-2.035c1.69-1.968 2.713-4.524 2.713-7.316 0-0.474-0.384-0.858-0.858-0.858s-0.858 0.384-0.858 0.858c0 5.253-4.273 9.526-9.526 9.526s-9.526-4.273-9.526-9.526c0-5.253 4.273-9.526 9.526-9.526 2.547 0 4.941 0.993 6.74 2.794zM15.824 28.12c-0.474 0-0.858 0.384-0.858 0.858v1.037c-3.245-0.196-6.198-1.493-8.488-3.523l2.031-2.030c1.968 1.69 4.524 2.713 7.316 2.713s5.348-1.023 7.316-2.713l2.035 2.035c-2.369 2.102-5.332 3.33-8.493 3.518v-1.037c0-0.474-0.384-0.858-0.858-0.858zM1.742 16.79h2.872c0.186 2.456 1.165 4.694 2.681 6.458l-2.031 2.031c-2.030-2.29-3.327-5.243-3.523-8.488zM5.26 6.582l2.035 2.035c-1.515 1.764-2.495 4.002-2.681 6.458h-2.873c0.188-3.161 1.416-6.125 3.518-8.493z"></path>
<path d="M19.788 20.765h-7.928c-0.101 0-0.183 0.082-0.183 0.183v1.088c0 0.101 0.082 0.183 0.183 0.183h7.928c0.101 0 0.183-0.082 0.183-0.183v-1.088c0-0.101-0.082-0.182-0.183-0.182z"></path>
<path d="M19.818 10.413h-0.613v-0.613c0-0.084-0.068-0.152-0.152-0.152h-1.149c-0.084 0-0.152 0.068-0.152 0.152v0.613h-0.613c-0.084 0-0.152 0.068-0.152 0.152v1.149c0 0.084 0.068 0.152 0.152 0.152h0.613v2.064l-0.195-0.116c-0.502-0.3-1.115-0.465-1.725-0.465-1.875 0-3.4 1.527-3.4 3.403s1.524 3.404 3.398 3.404c1.861 0 3.375-1.529 3.375-3.409 0-0.031 0-4.398 0-4.881h0.613c0.084 0 0.152-0.068 0.152-0.152v-1.149c0-0.084-0.068-0.152-0.152-0.152zM17.759 16.629c0 0.015-0.001 0.032-0.003 0.054-0.002 0.025-0.004 0.049-0.004 0.069 0 1.076-0.866 1.95-1.931 1.95-1.070 0-1.941-0.875-1.941-1.95s0.877-1.95 1.955-1.95c1.042 0 1.869 0.786 1.924 1.827z"></path>
</symbol>
<symbol id="icon-plus" viewBox="0 0 32 32">
<title>plus</title>
<path d="M27.314 4.686c-3.022-3.022-7.040-4.686-11.314-4.686s-8.292 1.664-11.314 4.686c-3.022 3.022-4.686 7.040-4.686 11.314s1.664 8.292 4.686 11.314c3.022 3.022 7.040 4.686 11.314 4.686s8.292-1.664 11.314-4.686c3.022-3.022 4.686-7.040 4.686-11.314s-1.664-8.292-4.686-11.314v0zM16 29.5c-7.444 0-13.5-6.056-13.5-13.5s6.056-13.5 13.5-13.5c7.444 0 13.5 6.056 13.5 13.5s-6.056 13.5-13.5 13.5v0zM17.25 14.749h5.625v2.5h-5.625v5.625h-2.5v-5.625h-5.625v-2.5h5.625v-5.625h2.5v5.625z"></path>
</symbol>
<symbol id="icon-Polygon" viewBox="0 0 32 32">
<title>Polygon</title>
<path d="M16 29.714l-15.836-27.429h31.672l-15.836 27.429z"></path>
</symbol>
<symbol id="icon-promotion" viewBox="0 0 32 32">
<title>promotion</title>
<path d="M11.748 14.62c0.739 0 1.338-0.599 1.338-1.338s-0.599-1.338-1.338-1.338-1.338 0.599-1.338 1.338c0 0.739 0.599 1.338 1.338 1.338z"></path>
<path d="M20.246 20.049c0.739 0 1.338-0.599 1.338-1.338s-0.599-1.338-1.338-1.338c-0.739 0-1.338 0.599-1.338 1.338s0.599 1.338 1.338 1.338z"></path>
<path d="M31.275 17.767l-0.485-0.662c-0.524-0.721-0.538-1.698-0.020-2.433l0.472-0.669c0.721-1.023 0.387-2.446-0.721-3.043l-0.721-0.387c-0.787-0.42-1.22-1.298-1.069-2.183l0.138-0.806c0.21-1.233-0.715-2.374-1.967-2.426l-0.82-0.033c-0.892-0.039-1.666-0.643-1.915-1.502l-0.229-0.787c-0.348-1.206-1.672-1.829-2.826-1.331l-0.754 0.321c-0.82 0.354-1.777 0.144-2.374-0.525l-0.544-0.61c-0.833-0.931-2.295-0.925-3.121 0.026l-0.538 0.616c-0.59 0.675-1.541 0.898-2.367 0.557l-0.761-0.315c-1.161-0.479-2.472 0.17-2.806 1.377l-0.216 0.793c-0.236 0.866-0.997 1.482-1.888 1.528l-0.82 0.046c-1.252 0.072-2.157 1.226-1.928 2.459l0.151 0.806c0.164 0.879-0.256 1.764-1.036 2.197l-0.715 0.4c-1.095 0.61-1.41 2.039-0.669 3.049l0.485 0.662c0.525 0.721 0.538 1.698 0.020 2.433l-0.472 0.669c-0.721 1.023-0.387 2.446 0.721 3.042l0.721 0.387c0.787 0.42 1.22 1.298 1.069 2.183l-0.138 0.806c-0.21 1.233 0.715 2.374 1.967 2.426l0.82 0.033c0.892 0.039 1.665 0.643 1.915 1.502l0.23 0.787c0.348 1.206 1.672 1.829 2.826 1.331l0.754-0.321c0.82-0.354 1.777-0.144 2.374 0.524l0.544 0.61c0.839 0.931 2.302 0.925 3.121-0.026l0.538-0.616c0.59-0.675 1.541-0.898 2.367-0.557l0.761 0.315c1.161 0.479 2.472-0.17 2.806-1.377l0.216-0.793c0.236-0.866 0.997-1.482 1.888-1.528l0.82-0.046c1.252-0.072 2.157-1.226 1.928-2.459l-0.151-0.806c-0.164-0.879 0.256-1.764 1.036-2.197l0.715-0.4c1.095-0.603 1.41-2.033 0.669-3.049zM8.515 13.282c0-1.784 1.443-3.226 3.226-3.226s3.226 1.443 3.226 3.226c0 1.784-1.443 3.226-3.226 3.226s-3.226-1.449-3.226-3.226zM12.364 21.603c-0.275 0.334-0.774 0.38-1.108 0.105s-0.38-0.774-0.105-1.108l8.465-10.196c0.275-0.334 0.774-0.38 1.108-0.105s0.38 0.774 0.105 1.108l-8.465 10.196zM20.246 21.937c-1.784 0-3.226-1.443-3.226-3.226s1.442-3.226 3.226-3.226c1.784 0 3.226 1.442 3.226 3.226s-1.442 3.226-3.226 3.226z"></path>
</symbol>
<symbol id="icon-promotion-tag" viewBox="0 0 32 32">
<title>promotion-tag</title>
<path d="M8.631 27.794c0.959 0.959 2.517 0.959 3.476 0l11.9-11.9c0.342-0.342 0.605-0.749 0.775-1.183 1.196 0.335 2.359 0.513 3.384 0.506 2.536-0.013 3.378-1.124 3.654-1.787 0.276-0.657 0.473-2.037-1.308-3.851-0.020-0.020-0.039-0.039-0.059-0.059-1.104-1.104-2.707-2.122-4.527-2.878-0.335-0.138-0.67-0.263-0.999-0.381v-0.020c-0.020-1.459-1.196-2.635-2.655-2.655l-7.13-0.099c-0.946-0.013-1.853 0.355-2.517 1.025l-11.907 11.9c-0.959 0.959-0.959 2.517 0 3.476l7.912 7.905zM17.804 7.745c0.795-0.795 2.083-0.795 2.878 0 0.473 0.473 0.664 1.124 0.572 1.735 0.782 0.552 1.715 1.065 2.714 1.478 0.355 0.145 0.697 0.276 1.025 0.388l-0.039-2.865c0.059 0.026 0.112 0.046 0.171 0.072 1.557 0.651 2.957 1.531 3.857 2.431 0.013 0.013 0.026 0.026 0.040 0.040 0.854 0.874 0.946 1.432 0.874 1.603-0.223 0.532-2.622 1.005-6.262-0.512-1.064-0.447-2.063-0.999-2.872-1.597-0.026 0.033-0.059 0.066-0.085 0.098-0.795 0.795-2.083 0.795-2.878 0-0.789-0.788-0.789-2.076 0.006-2.872z"></path>
</symbol>
<symbol id="icon-Rectangle" viewBox="0 0 32 32">
<title>Rectangle</title>
<path d="M2 0h28c1.105 0 2 0.895 2 2v28c0 1.105-0.895 2-2 2h-28c-1.105 0-2-0.895-2-2v-28c0-1.105 0.895-2 2-2z"></path>
</symbol>
<symbol id="icon-Rectangle-13" viewBox="0 0 32 32">
<title>Rectangle-13</title>
<path stroke-linejoin="miter" stroke-linecap="butt" stroke-miterlimit="4" stroke-width="1" d="M2 0.5h28c0.828 0 1.5 0.672 1.5 1.5v28c0 0.828-0.672 1.5-1.5 1.5h-28c-0.828 0-1.5-0.672-1.5-1.5v-28c0-0.828 0.672-1.5 1.5-1.5z"></path>
</symbol>
<symbol id="icon-right" viewBox="0 0 32 32">
<title>right</title>
<path d="M9.502 31.089l-1.822-1.822 13.263-13.266-13.263-13.266 1.822-1.822 15.086 15.089-15.086 15.089z"></path>
<path d="M9.502 0l15.998 16-15.998 16-2.733-2.734 13.263-13.266-13.264-13.266 2.733-2.734zM23.677 16l-14.176-14.178-0.911 0.911 13.264 13.266-13.263 13.266 0.911 0.911 14.175-14.178z"></path>
</symbol>
<symbol id="icon-round-account-button-with-user-inside" viewBox="0 0 32 32">
<title>round-account-button-with-user-inside</title>
<path d="M16 0c-8.8 0-16 7.2-16 16s7.2 16 16 16 16-7.2 16-16-7.2-16-16-16zM16 4.8c2.72 0 4.8 2.080 4.8 4.8s-2.080 4.8-4.8 4.8c-2.72 0-4.8-2.080-4.8-4.8s2.080-4.8 4.8-4.8zM16 27.52c-4 0-7.52-2.080-9.6-5.12 0-3.2 6.4-4.96 9.6-4.96s9.6 1.76 9.6 4.96c-2.080 3.040-5.6 5.12-9.6 5.12z"></path>
</symbol>
<symbol id="icon-search-grey" viewBox="0 0 32 32">
<title>search-grey</title>
<path d="M31.513 29.147l-7.888-7.921c2.028-2.328 3.14-5.257 3.14-8.306 0-7.124-6.003-12.92-13.382-12.92s-13.382 5.796-13.382 12.92c0 7.124 6.003 12.92 13.382 12.92 2.77 0 5.41-0.807 7.667-2.338l7.948 7.981c0.332 0.333 0.779 0.517 1.258 0.517 0.453 0 0.883-0.167 1.21-0.47 0.694-0.644 0.716-1.713 0.048-2.383zM13.382 3.37c5.454 0 9.891 4.284 9.891 9.55s-4.437 9.55-9.891 9.55c-5.454 0-9.891-4.284-9.891-9.55s4.437-9.55 9.891-9.55z"></path>
</symbol>
<symbol id="icon-selected" viewBox="0 0 32 32">
<title>selected</title>
<path d="M29.333 16c0 7.364-5.97 13.333-13.333 13.333s-13.333-5.97-13.333-13.333c0-7.364 5.97-13.333 13.333-13.333s13.333 5.97 13.333 13.333z"></path>
<path stroke-linejoin="miter" stroke-linecap="butt" stroke-miterlimit="4" stroke-width="1" d="M31.5 16c0 8.56-6.94 15.5-15.5 15.5s-15.5-6.94-15.5-15.5c0-8.56 6.94-15.5 15.5-15.5s15.5 6.94 15.5 15.5z"></path>
<path d="M16 6.222c-3.962 0-7.111 3.149-7.111 7.111 0 5.283 7.111 13.206 7.111 13.206s7.111-7.924 7.111-13.206c0-3.962-3.149-7.111-7.111-7.111zM16 15.873c-1.422 0-2.54-1.117-2.54-2.54s1.117-2.54 2.54-2.54 2.54 1.117 2.54 2.54c0 1.422-1.117 2.54-2.54 2.54z"></path>
</symbol>
<symbol id="icon-shopping-cart" viewBox="0 0 32 32">
<title>shopping-cart</title>
<path d="M0.030 0.771c0.133-0.535 0.676-0.862 1.212-0.727l4.001 0.999c0.39 0.098 0.683 0.418 0.745 0.812l0.507 3.205 24.628 2.954c0.019 0.002 0.034 0.016 0.055 0.020 0.023 0.004 0.044-0.003 0.068 0.003 0.057 0.014 0.1 0.049 0.15 0.071 0.057 0.024 0.11 0.043 0.16 0.076 0.070 0.048 0.127 0.11 0.182 0.173 0.029 0.031 0.065 0.049 0.090 0.083 0.006 0.008 0.006 0.018 0.010 0.026 0.054 0.084 0.085 0.178 0.113 0.274 0.010 0.035 0.030 0.065 0.036 0.101 0.020 0.132 0.020 0.271-0.014 0.409l-3.001 11.989-0.999 3.997c-0.008 0.029-0.025 0.052-0.035 0.079-0.016 0.048-0.037 0.092-0.061 0.137-0.033 0.065-0.074 0.125-0.122 0.182-0.029 0.034-0.060 0.068-0.093 0.101-0.061 0.053-0.125 0.094-0.194 0.131-0.036 0.021-0.068 0.043-0.107 0.059-0.112 0.042-0.232 0.068-0.357 0.068h-21.004c-0.553 0-0.999-0.447-0.999-0.998s0.447-1 0.999-1h20.222l0.5-1.998h-18.723c-0.123 0-0.242-0.021-0.352-0.063-0.045-0.018-0.080-0.047-0.121-0.069-0.062-0.033-0.126-0.062-0.179-0.107-0.039-0.033-0.065-0.078-0.102-0.119-0.042-0.051-0.089-0.095-0.122-0.15-0.027-0.053-0.039-0.113-0.059-0.172-0.021-0.053-0.047-0.103-0.059-0.158l-0.004-0.021v-0.011l-2.887-18.305-3.357-0.838c-0.538-0.134-0.862-0.676-0.727-1.212zM27.221 19.997l2.537-10.132-3.101-0.372-1.504 10.504h2.068zM23.135 19.997l1.536-10.742-3.116-0.374-0.505 11.115h2.085zM16.957 19.997h2.087l0.518-11.355-3.113-0.373 0.509 11.728zM12.884 19.997h2.071l-0.52-11.97-3.099-0.371 1.548 12.34zM8.874 19.997h1.992l-1.575-12.587-2.131-0.255 1.714 12.842zM23.003 27.989c1.103 0 2 0.895 2 1.999s-0.896 1.997-2 1.997c-1.105 0-2-0.894-2-1.997 0-1.102 0.895-1.999 2-1.999zM9.998 27.989c1.104 0 2 0.895 2 1.999s-0.895 1.997-2 1.997c-1.103 0-2-0.894-2-1.997 0.002-1.103 0.897-1.999 2-1.999z"></path>
</symbol>
<symbol id="icon-shopping-list1" viewBox="0 0 32 32">
<title>shopping-list1</title>
<path d="M15.708 12.294c-0.39-0.39-1.024-0.392-1.416-0.002l-3.292 3.294-1.292-1.294c-0.39-0.39-1.024-0.39-1.414 0s-0.39 1.024 0 1.414l2 2c0.194 0.196 0.45 0.294 0.706 0.294s0.512-0.098 0.708-0.292l4-4c0.39-0.39 0.39-1.024 0-1.414z"></path>
<path d="M15.708 20.294c-0.39-0.39-1.024-0.392-1.416-0.002l-3.292 3.294-1.292-1.292c-0.39-0.39-1.024-0.39-1.414 0s-0.39 1.024 0 1.414l2 2c0.194 0.194 0.45 0.292 0.706 0.292s0.512-0.098 0.708-0.292l4-4c0.39-0.39 0.39-1.024 0-1.414z"></path>
<path d="M23 14h-4c-0.552 0-1 0.448-1 1s0.448 1 1 1h4c0.552 0 1-0.448 1-1s-0.448-1-1-1z"></path>
<path d="M23 22h-4c-0.552 0-1 0.448-1 1s0.448 1 1 1h4c0.552 0 1-0.448 1-1s-0.448-1-1-1z"></path>
<path d="M26 4h-4v-1c0-0.552-0.448-1-1-1h-2.17c-0.414-1.164-1.526-2-2.83-2s-2.416 0.836-2.83 2h-2.17c-0.552 0-1 0.448-1 1v1h-4c-1.102 0-2 0.898-2 2v24c0 1.102 0.898 2 2 2h20c1.102 0 2-0.898 2-2v-24c0-1.102-0.898-2-2-2zM12 4h2c0.552 0 1-0.448 1-1s0.448-1 1-1c0.552 0 1 0.448 1 1s0.448 1 1 1h2v2h-8v-2zM26 30h-20v-24h4v1c0 0.552 0.448 1 1 1h10c0.552 0 1-0.448 1-1v-1h4v24z"></path>
</symbol>
<symbol id="icon-star" viewBox="0 0 32 32">
<title>star</title>
<path d="M16 1.5l3.592 11.056h11.625l-9.405 6.833 3.592 11.056-9.405-6.833-9.405 6.833 3.592-11.056-9.405-6.833h11.625l3.592-11.056z"></path>
</symbol>
<symbol id="icon-step1" viewBox="0 0 32 32">
<title>step1</title>
<path d="M16 0c-8.8 0-16 7.2-16 16s7.2 16 16 16c8.8 0 16-7.2 16-16s-7.2-16-16-16zM17 22.3h-2.3v-8.7l-2.7 0.9v-1.8l4.7-1.7h0.3v11.3z"></path>
</symbol>
<symbol id="icon-step2" viewBox="0 0 32 32">
<title>step2</title>
<path d="M16 0c-8.8 0-16 7.2-16 16s7.2 16 16 16c8.8 0 16-7.2 16-16s-7.2-16-16-16zM19.3 22.3h-7.8v-1.5l3.7-3.9c0.5-0.6 0.9-1 1.1-1.4s0.4-0.8 0.4-1.2c0-0.5-0.1-0.9-0.4-1.2s-0.6-0.4-1.1-0.4c-0.5 0-0.9 0.2-1.2 0.5s-0.4 0.8-0.4 1.4h-2.3c0-0.7 0.2-1.3 0.5-1.9s0.8-1 1.4-1.3c0.6-0.3 1.3-0.5 2.1-0.5 1.2 0 2.1 0.3 2.7 0.8 0.7 0.6 1 1.4 1 2.4 0 0.6-0.1 1.1-0.4 1.7s-0.8 1.3-1.5 2l-2.6 2.7h4.9v1.8z"></path>
</symbol>
<symbol id="icon-store" viewBox="0 0 32 32">
<title>store</title>
<path d="M22.735 17.246h-4.348c-1.19 0-2.158 0.968-2.158 2.158v3.335c0 1.19 0.968 2.158 2.158 2.158h4.348c1.19 0 2.158-0.968 2.158-2.158v-3.335c0-1.19-0.968-2.158-2.158-2.158zM23.323 22.738c0 0.327-0.268 0.588-0.588 0.588h-4.348c-0.327 0-0.588-0.268-0.588-0.588v-3.335c0-0.327 0.268-0.588 0.588-0.588h4.348c0.327 0 0.588 0.268 0.588 0.588v3.335z"></path>
<path d="M32 11.184c0-0.137-0.033-0.268-0.105-0.386l-4.76-8.369c-0.137-0.242-0.399-0.399-0.68-0.399h-20.917c-0.281 0-0.543 0.15-0.68 0.399l-4.754 8.369c-0.065 0.118-0.105 0.248-0.105 0.386 0 1.877 1.131 3.485 2.746 4.198v13.803c0 0.432 0.353 0.785 0.785 0.785h4.335c0.007 0 0.013 0 0.020 0h6.081c0.007 0 0.013 0 0.020 0h14.476c0.432 0 0.785-0.353 0.785-0.785v-13.705c0-0.033 0-0.059-0.006-0.085 1.622-0.713 2.759-2.328 2.759-4.211zM5.996 3.606h20.002l3.721 6.545h-27.436l3.714-6.545zM22.774 11.714c-0.248 1.412-1.484 2.485-2.968 2.485s-2.72-1.072-2.969-2.485h5.937zM15.17 11.714c-0.248 1.412-1.484 2.485-2.969 2.485s-2.72-1.072-2.975-2.485h5.944zM1.622 11.714h5.944c-0.248 1.412-1.491 2.485-2.975 2.485-1.484 0.007-2.72-1.072-2.969-2.485zM13.182 28.401h-4.512v-8.468c0-0.615 0.497-1.118 1.118-1.118h2.282c0.615 0 1.118 0.497 1.118 1.118v8.468h-0.007zM27.678 28.401h-12.927v-8.468c0-1.478-1.203-2.687-2.687-2.687h-2.282c-1.478 0-2.687 1.203-2.687 2.687v8.474h-2.779v-12.639c0.092 0.007 0.183 0.007 0.275 0.007 1.582 0 2.982-0.804 3.805-2.027 0.824 1.223 2.223 2.027 3.806 2.027s2.975-0.804 3.805-2.027c0.824 1.223 2.223 2.027 3.799 2.027 1.582 0 2.975-0.804 3.799-2.027 0.824 1.223 2.223 2.027 3.805 2.027 0.091 0 0.177-0.007 0.268-0.007v12.633zM27.41 14.205c-1.484 0-2.72-1.072-2.968-2.485h5.944c-0.255 1.406-1.491 2.485-2.975 2.485z"></path>
</symbol>
<symbol id="icon-superscript2" viewBox="0 0 32 32">
<title>superscript2</title>
<path d="M6.063 26l1.8-6h8.274l1.8 6h3.551l-6-20h-6.976l-6 20h3.551zM10.863 10h2.274l1.8 6h-5.874l1.8-6zM22 26l5-8 5 8h-10z"></path>
<path d="M27 4h-2c-0.551 0-1-0.449-1-1s0.449-1 1-1h4c0.552 0 1-0.448 1-1s-0.448-1-1-1h-4c-1.654 0-3 1.346-3 3 0 0.768 0.29 1.469 0.766 2 0.55 0.613 1.347 1 2.234 1h2c0.551 0 1 0.449 1 1s-0.449 1-1 1h-4c-0.552 0-1 0.448-1 1s0.448 1 1 1h4c1.654 0 3-1.346 3-3 0-0.768-0.29-1.469-0.766-2-0.55-0.613-1.347-1-2.234-1z"></path>
</symbol>
<symbol id="icon-superscript21" viewBox="0 0 32 32">
<title>superscript21</title>
<path d="M6.063 26l1.8-6h8.274l1.8 6h3.551l-6-20h-6.976l-6 20h3.551zM10.863 10h2.274l1.8 6h-5.874l1.8-6zM22 26l5-8 5 8h-10z"></path>
<path d="M27 4h-2c-0.551 0-1-0.449-1-1s0.449-1 1-1h4c0.552 0 1-0.448 1-1s-0.448-1-1-1h-4c-1.654 0-3 1.346-3 3 0 0.768 0.29 1.469 0.766 2 0.55 0.613 1.347 1 2.234 1h2c0.551 0 1 0.449 1 1s-0.449 1-1 1h-4c-0.552 0-1 0.448-1 1s0.448 1 1 1h4c1.654 0 3-1.346 3-3 0-0.768-0.29-1.469-0.766-2-0.55-0.613-1.347-1-2.234-1z"></path>
</symbol>
<symbol id="icon-sure" viewBox="0 0 32 32">
<title>sure</title>
<path d="M15.987 9.904c-3.205 0-5.812 2.735-5.812 6.097s2.607 6.097 5.812 6.097c3.204 0 5.811-2.735 5.811-6.097s-2.607-6.097-5.811-6.097zM19.437 14.852l-4.163 4.368c-0.175 0.183-0.404 0.275-0.633 0.275s-0.458-0.092-0.633-0.275l-1.591-1.669c-0.35-0.366-0.35-0.961 0-1.328s0.916-0.367 1.265 0l0.958 1.005 3.531-3.704c0.349-0.367 0.916-0.367 1.265 0s0.349 0.961 0 1.328z"></path>
<path d="M28.943 8.682l-0.001-0.025c-0.013-0.307-0.022-0.633-0.027-0.994-0.025-1.764-1.362-3.224-3.044-3.322-3.507-0.205-6.22-1.405-8.538-3.775l-0.020-0.020c-0.756-0.727-1.896-0.727-2.653 0l-0.020 0.020c-2.318 2.37-5.031 3.57-8.538 3.776-1.682 0.098-3.019 1.558-3.044 3.322-0.005 0.359-0.014 0.685-0.027 0.994l-0.001 0.058c-0.068 3.752-0.153 8.421 1.336 12.659 0.819 2.331 2.059 4.356 3.685 6.022 1.852 1.896 4.279 3.402 7.211 4.475 0.095 0.035 0.194 0.063 0.296 0.084 0.142 0.030 0.286 0.045 0.429 0.045s0.287-0.015 0.429-0.045c0.101-0.021 0.201-0.050 0.297-0.085 2.929-1.075 5.353-2.581 7.203-4.477 1.626-1.666 2.866-3.692 3.685-6.023 1.494-4.251 1.41-8.929 1.342-12.687zM15.986 23.975c-4.191 0-7.601-3.577-7.601-7.975s3.41-7.975 7.601-7.975c4.191 0 7.601 3.577 7.601 7.975s-3.41 7.975-7.601 7.975z"></path>
</symbol>
<symbol id="icon-team" viewBox="0 0 38 32">
<title>team</title>
<path d="M19.165 11.499c3.175 0 5.749-2.574 5.749-5.749s-2.574-5.749-5.749-5.749c-3.175 0-5.749 2.574-5.749 5.749 0.003 3.174 2.576 5.746 5.749 5.749zM19.165 1.278c2.47 0 4.472 2.002 4.472 4.472s-2.002 4.472-4.472 4.472c-2.47 0-4.472-2.002-4.472-4.472 0.003-2.469 2.003-4.469 4.472-4.472z"></path>
<path d="M5.749 9.582c1.764 0 3.194-1.43 3.194-3.194s-1.43-3.194-3.194-3.194c-1.764 0-3.194 1.43-3.194 3.194 0.002 1.763 1.431 3.192 3.194 3.194zM5.749 4.472c1.058 0 1.916 0.858 1.916 1.916s-0.858 1.916-1.916 1.916c-1.058 0-1.916-0.858-1.916-1.916s0.858-1.916 1.916-1.916z"></path>
<path d="M32.58 9.582c1.764 0 3.194-1.43 3.194-3.194s-1.43-3.194-3.194-3.194c-1.764 0-3.194 1.43-3.194 3.194 0.002 1.763 1.431 3.192 3.194 3.194zM32.58 4.472c1.058 0 1.916 0.858 1.916 1.916s-0.858 1.916-1.916 1.916c-1.058 0-1.916-0.858-1.916-1.916s0.858-1.916 1.916-1.916z"></path>
<path d="M35.136 9.582c-0.138 0-0.273 0.045-0.383 0.128l-2.172 1.629-2.172-1.629c-0.111-0.083-0.245-0.128-0.383-0.128-1.052-0.001-2.035 0.52-2.624 1.392-0.969-0.491-2.039-0.749-3.126-0.753-0.169 0-0.332 0.067-0.452 0.187l-4.659 4.659-4.659-4.659c-0.12-0.12-0.282-0.187-0.452-0.187-1.086 0.004-2.157 0.262-3.126 0.753-0.589-0.871-1.572-1.393-2.624-1.392-0.138 0-0.273 0.045-0.383 0.128l-2.172 1.629-2.172-1.629c-0.111-0.083-0.245-0.128-0.383-0.128-1.763 0.002-3.192 1.431-3.194 3.194v5.679c0 0.661 0.341 1.276 0.901 1.628l3.909 2.444c0.305 0.185 0.655 0.283 1.011 0.282 0.296 0.001 0.588-0.067 0.853-0.199l0.353-0.177v2.927c0 0.758 0.446 1.445 1.14 1.753l9.703 4.311c0.824 0.367 1.766 0.367 2.59 0l9.703-4.312c0.693-0.307 1.14-0.994 1.14-1.752v-3.568l0.423 0.21c0.538 0.268 1.171 0.268 1.709 0l3.833-1.916c0.652-0.322 1.064-0.987 1.062-1.715v-5.596c-0.002-1.763-1.431-3.192-3.194-3.194zM6.103 21.465c-0.198 0.097-0.433 0.087-0.622-0.027l-3.897-2.437c-0.187-0.119-0.303-0.323-0.307-0.544v-5.679c0-0.981 0.741-1.804 1.717-1.906l2.371 1.778c0.227 0.171 0.54 0.171 0.767 0l2.371-1.778c0.532 0.054 1.016 0.33 1.334 0.76-0.043 0.032-0.080 0.070-0.122 0.102-0.099 0.078-0.192 0.16-0.288 0.242-0.123 0.107-0.242 0.215-0.356 0.329-0.088 0.088-0.172 0.178-0.256 0.271-0.107 0.119-0.21 0.242-0.309 0.369-0.075 0.097-0.149 0.192-0.219 0.295-0.093 0.132-0.178 0.268-0.261 0.406-0.064 0.104-0.124 0.207-0.181 0.314-0.077 0.145-0.145 0.294-0.211 0.447-0.047 0.107-0.097 0.213-0.139 0.324-0.064 0.16-0.111 0.324-0.161 0.49-0.032 0.107-0.068 0.211-0.095 0.319-0.046 0.185-0.078 0.375-0.109 0.565-0.015 0.093-0.038 0.185-0.049 0.279-0.036 0.287-0.054 0.577-0.055 0.866v3.757l-0.924 0.459zM30.025 25.362c0 0.254-0.151 0.484-0.383 0.585l-9.703 4.313c-0.493 0.22-1.056 0.22-1.55 0l-9.701-4.313c-0.233-0.102-0.383-0.331-0.383-0.585v-8.113c0-0.491 0.062-0.981 0.185-1.456 0.644-2.435 2.794-4.17 5.309-4.287l4.919 4.919c0.25 0.25 0.654 0.25 0.903 0l4.919-4.919c3.067 0.146 5.48 2.673 5.485 5.744v8.113zM37.052 18.373c0 0.244-0.138 0.467-0.357 0.575l-3.833 1.916c-0.178 0.089-0.387 0.089-0.565 0l-0.995-0.498v-3.117c-0.001-0.291-0.019-0.581-0.055-0.869-0.012-0.095-0.034-0.186-0.049-0.279-0.031-0.192-0.064-0.379-0.109-0.564-0.027-0.109-0.064-0.214-0.096-0.319-0.049-0.164-0.099-0.328-0.16-0.487-0.043-0.111-0.093-0.219-0.141-0.327-0.064-0.149-0.133-0.296-0.21-0.441-0.057-0.108-0.12-0.213-0.182-0.319-0.082-0.137-0.167-0.271-0.255-0.401-0.072-0.102-0.146-0.202-0.223-0.3-0.097-0.128-0.198-0.245-0.304-0.363-0.084-0.094-0.171-0.187-0.26-0.276-0.112-0.113-0.231-0.22-0.351-0.325-0.095-0.083-0.192-0.166-0.291-0.245-0.041-0.033-0.079-0.070-0.121-0.102 0.318-0.43 0.802-0.705 1.333-0.76l2.369 1.778c0.227 0.171 0.54 0.171 0.767 0l2.371-1.778c0.976 0.102 1.717 0.925 1.717 1.906v5.596z"></path>
</symbol>
<symbol id="icon-tick" viewBox="0 0 32 32">
<title>tick</title>
<path d="M11.253 28.19l-11.253-11.253 3.751-3.751 7.502 7.502 16.879-16.879 3.751 3.751-20.63 20.63z"></path>
</symbol>
<symbol id="icon-time-left" viewBox="0 0 32 32">
<title>time-left</title>
<path d="M19.232 29.146c-0.264 0.066-0.533 0.124-0.8 0.173-0.698 0.13-1.16 0.801-1.030 1.5 0.064 0.344 0.259 0.63 0.524 0.817 0.273 0.192 0.621 0.279 0.975 0.213 0.318-0.059 0.639-0.128 0.953-0.207 0.689-0.172 1.109-0.87 0.937-1.559s-0.869-1.109-1.559-0.938z"></path>
<path d="M28.745 11.903c0.090 0.272 0.262 0.493 0.479 0.646 0.322 0.227 0.744 0.303 1.146 0.17 0.674-0.224 1.040-0.951 0.817-1.626-0.102-0.307-0.215-0.616-0.335-0.916-0.264-0.66-1.012-0.981-1.672-0.717s-0.981 1.012-0.717 1.672c0.101 0.252 0.196 0.511 0.281 0.77z"></path>
<path d="M23.413 27.31c-0.227 0.15-0.461 0.295-0.697 0.431-0.616 0.355-0.826 1.142-0.471 1.757 0.096 0.167 0.225 0.304 0.373 0.409 0.397 0.279 0.936 0.321 1.384 0.063 0.28-0.162 0.559-0.334 0.83-0.513 0.593-0.392 0.756-1.19 0.364-1.782s-1.189-0.756-1.782-0.364z"></path>
<path d="M31.988 15.496c-0.028-0.71-0.626-1.263-1.336-1.235s-1.262 0.626-1.235 1.336c0.011 0.271 0.013 0.547 0.007 0.818-0.010 0.445 0.208 0.842 0.546 1.081 0.202 0.142 0.446 0.228 0.712 0.234 0.71 0.016 1.298-0.547 1.314-1.258 0.007-0.324 0.004-0.652-0.008-0.976z"></path>
<path d="M28.535 23.925c-0.569-0.427-1.375-0.311-1.801 0.257-0.163 0.218-0.335 0.433-0.511 0.64-0.46 0.541-0.395 1.353 0.145 1.813 0.031 0.026 0.062 0.050 0.094 0.073 0.538 0.379 1.285 0.292 1.719-0.218 0.21-0.247 0.415-0.504 0.61-0.764 0.427-0.568 0.311-1.374-0.257-1.801z"></path>
<path d="M30.427 19.275c-0.678-0.213-1.4 0.165-1.612 0.843-0.081 0.259-0.171 0.519-0.269 0.774-0.214 0.561-0.009 1.178 0.46 1.509 0.086 0.061 0.181 0.112 0.284 0.151 0.664 0.253 1.407-0.080 1.66-0.744 0.116-0.303 0.223-0.613 0.32-0.921 0.212-0.678-0.165-1.4-0.843-1.612z"></path>
<path d="M13.62 29.331c-1.15-0.206-2.253-0.558-3.3-1.049-0.012-0.006-0.024-0.014-0.037-0.020-0.246-0.116-0.493-0.24-0.731-0.37-0.001-0.001-0.002-0.002-0.004-0.002-0.438-0.241-0.865-0.508-1.28-0.8-6.051-4.263-7.506-12.654-3.243-18.705 0.927-1.315 2.049-2.413 3.299-3.282 0.015-0.011 0.031-0.021 0.046-0.032 4.407-3.037 10.391-3.241 15.071-0.121l-1.005 1.452c-0.279 0.404-0.108 0.699 0.382 0.655l4.366-0.391c0.49-0.044 0.783-0.468 0.651-0.941l-1.172-4.224c-0.131-0.474-0.467-0.53-0.747-0.126l-1.007 1.456c-3.434-2.305-7.553-3.184-11.641-2.475-0.412 0.071-0.818 0.158-1.218 0.26-0.003 0.001-0.006 0.001-0.008 0.001-0.015 0.004-0.031 0.009-0.046 0.013-3.525 0.905-6.601 2.961-8.796 5.895-0.018 0.022-0.038 0.043-0.055 0.067-0.073 0.098-0.145 0.199-0.216 0.299-0.116 0.165-0.23 0.334-0.34 0.503-0.014 0.020-0.024 0.041-0.036 0.062-1.811 2.807-2.685 6.051-2.535 9.355 0 0.011 0 0.022 0 0.033 0.014 0.323 0.040 0.65 0.075 0.972 0.002 0.021 0.006 0.040 0.010 0.061 0.036 0.324 0.081 0.648 0.137 0.973 0.574 3.311 2.136 6.291 4.477 8.61 0.005 0.005 0.011 0.011 0.017 0.017 0.002 0.002 0.004 0.003 0.006 0.005 0.629 0.62 1.313 1.194 2.049 1.713 1.927 1.358 4.074 2.256 6.379 2.669 0.699 0.126 1.367-0.34 1.493-1.039s-0.34-1.368-1.039-1.493z"></path>
<path d="M15.211 5.723c-0.575 0-1.041 0.466-1.041 1.041v10.369l9.484 4.903c0.153 0.079 0.316 0.116 0.477 0.116 0.377 0 0.741-0.205 0.925-0.563 0.264-0.511 0.064-1.138-0.447-1.402l-8.358-4.321v-9.102c0-0.574-0.466-1.041-1.040-1.041z"></path>
</symbol>
<symbol id="icon-tracking" viewBox="0 0 32 32">
<title>tracking</title>
<path d="M29.949 13.855h-1.608c-0.092-0.346-0.289-0.652-0.561-0.871s-0.606-0.339-0.95-0.342h-1.717v-4.383c0.002-0.082-0.017-0.163-0.055-0.235s-0.093-0.132-0.161-0.174l-12.11-7.303c-0.068-0.041-0.146-0.063-0.225-0.063s-0.156 0.022-0.225 0.063l-12.113 7.303c-0.069 0.041-0.125 0.101-0.165 0.173s-0.060 0.153-0.060 0.236v14.605c0 0.083 0.021 0.164 0.061 0.236s0.097 0.131 0.165 0.173l12.114 7.303c0.069 0.041 0.147 0.063 0.226 0.063 0.081 0 0.161-0.022 0.232-0.063l6.375-3.839v2.775c-0.001 0.264 0.049 0.526 0.146 0.77s0.239 0.466 0.419 0.652 0.393 0.334 0.627 0.433c0.234 0.1 0.485 0.15 0.738 0.148h8.846c0.254 0.003 0.505-0.047 0.741-0.147s0.449-0.247 0.63-0.433c0.181-0.186 0.324-0.408 0.422-0.652s0.149-0.506 0.15-0.771v-13.622c0-0.538-0.205-1.055-0.569-1.436s-0.858-0.596-1.373-0.598v0zM26.846 13.586c0.174 0 0.341 0.072 0.464 0.201s0.192 0.303 0.192 0.484v0.046c0 0.182-0.069 0.356-0.192 0.484s-0.29 0.201-0.464 0.201h-2.626c-0.174 0-0.341-0.072-0.464-0.201s-0.192-0.303-0.192-0.484v-0.046c0-0.182 0.069-0.356 0.192-0.484s0.29-0.201 0.464-0.201h2.626zM12.566 1.502l5.034 3.034-11.21 6.757-5.034-3.034 11.21-6.757zM12.137 29.35l-11.233-6.758v-13.517l11.233 6.758v13.517zM12.566 15.016l-5.272-3.178 11.21-6.757 5.273 3.178-11.21 6.757zM19.174 15.89v9.757l-6.133 3.703v-13.517l11.168-6.758v3.567h0.014c-0.344 0.003-0.678 0.124-0.95 0.342s-0.47 0.524-0.561 0.871h-1.608c-0.514 0.003-1.006 0.218-1.368 0.6s-0.564 0.898-0.561 1.434v0zM30.988 29.512c-0.001 0.141-0.028 0.281-0.081 0.41s-0.13 0.248-0.226 0.346c-0.097 0.099-0.211 0.176-0.337 0.228s-0.26 0.077-0.395 0.075h-8.846c-0.134 0.002-0.268-0.023-0.393-0.076s-0.238-0.13-0.334-0.229c-0.096-0.099-0.171-0.216-0.223-0.346s-0.077-0.269-0.077-0.409v-13.622c-0.001-0.142 0.024-0.283 0.075-0.415s0.126-0.252 0.221-0.353c0.095-0.101 0.209-0.182 0.334-0.237s0.26-0.085 0.396-0.086h1.626c0.097 0.334 0.295 0.626 0.564 0.833s0.596 0.316 0.93 0.313h2.606c0.334 0.003 0.66-0.107 0.93-0.313s0.467-0.499 0.564-0.833h1.626c0.276 0.002 0.54 0.118 0.735 0.322s0.304 0.481 0.304 0.769v13.622z"></path>
<path d="M21.624 20.663h0.473c0.12 0 0.235-0.050 0.32-0.138s0.132-0.209 0.132-0.334c0-0.125-0.048-0.245-0.132-0.334s-0.2-0.138-0.32-0.138h-0.018v-1.281h1.246c0.028 0.095 0.086 0.177 0.163 0.235s0.171 0.087 0.266 0.084c0.12 0 0.235-0.049 0.32-0.137s0.133-0.208 0.134-0.333v-0.317c-0.001-0.126-0.050-0.246-0.135-0.335s-0.201-0.139-0.322-0.139h-2.129c-0.059 0-0.118 0.013-0.172 0.037s-0.104 0.059-0.146 0.103-0.075 0.096-0.097 0.154c-0.022 0.057-0.034 0.119-0.033 0.181v2.223c0 0.062 0.011 0.123 0.033 0.18s0.055 0.109 0.097 0.153c0.042 0.044 0.091 0.079 0.146 0.102s0.113 0.036 0.172 0.036z"></path>
<path d="M21.627 24.977h2.13c0.12 0 0.235-0.050 0.32-0.138s0.132-0.209 0.132-0.334v-2.224c0-0.125-0.048-0.245-0.132-0.334s-0.2-0.138-0.32-0.138h-2.13c-0.12 0-0.235 0.050-0.32 0.138s-0.132 0.209-0.132 0.334v2.224c0 0.125 0.048 0.245 0.132 0.334s0.2 0.138 0.32 0.138v0zM22.079 22.753h1.227v1.281h-1.227v-1.281z"></path>
<path d="M22.097 28.347h-0.018v-1.281h1.222c0.002 0.124 0.051 0.242 0.136 0.329s0.199 0.136 0.318 0.136c0.119 0 0.233-0.048 0.318-0.135s0.134-0.205 0.137-0.329v-0.455c0-0.128-0.048-0.25-0.134-0.341s-0.201-0.145-0.323-0.149h-2.129c-0.121 0.004-0.236 0.058-0.32 0.149s-0.13 0.214-0.129 0.34v2.223c0 0.061 0.012 0.121 0.034 0.177s0.056 0.107 0.098 0.149c0.042 0.042 0.091 0.076 0.146 0.098s0.112 0.032 0.171 0.031h0.473c0.12 0 0.235-0.050 0.32-0.138s0.132-0.209 0.132-0.334c0-0.125-0.048-0.245-0.132-0.334s-0.2-0.138-0.32-0.138z"></path>
<path d="M24.793 18.074l-1.323 1.382-0.403-0.42c-0.042-0.044-0.092-0.079-0.147-0.102s-0.114-0.036-0.173-0.036-0.118 0.012-0.173 0.036c-0.055 0.024-0.105 0.058-0.147 0.102s-0.075 0.096-0.098 0.153c-0.023 0.057-0.034 0.119-0.034 0.181s0.012 0.123 0.034 0.181c0.023 0.057 0.056 0.109 0.098 0.153l0.722 0.754c0.042 0.044 0.092 0.079 0.147 0.102s0.114 0.036 0.173 0.036 0.118-0.012 0.173-0.036c0.055-0.024 0.105-0.058 0.147-0.102l1.643-1.716c0.085-0.089 0.132-0.209 0.132-0.334s-0.048-0.245-0.132-0.334c-0.085-0.089-0.2-0.138-0.32-0.138s-0.235 0.050-0.32 0.138v0z"></path>
<path d="M24.793 26.786l-1.323 1.382-0.403-0.42c-0.042-0.044-0.092-0.079-0.147-0.102s-0.114-0.036-0.173-0.036-0.118 0.012-0.173 0.036c-0.055 0.024-0.105 0.058-0.147 0.102s-0.075 0.096-0.098 0.153c-0.023 0.057-0.034 0.119-0.034 0.181s0.012 0.123 0.034 0.181c0.023 0.057 0.056 0.109 0.098 0.153l0.722 0.754c0.042 0.044 0.092 0.079 0.147 0.102s0.114 0.036 0.173 0.036 0.118-0.012 0.173-0.036c0.055-0.024 0.105-0.058 0.147-0.102l1.643-1.716c0.085-0.088 0.132-0.209 0.132-0.334s-0.048-0.245-0.132-0.334c-0.085-0.089-0.2-0.138-0.32-0.138s-0.235 0.050-0.32 0.138v0z"></path>
<path d="M29.429 18.641h-2.838c-0.12 0-0.235 0.050-0.32 0.138s-0.132 0.209-0.132 0.334c0 0.125 0.048 0.245 0.132 0.334s0.2 0.138 0.32 0.138h2.838c0.12 0 0.235-0.050 0.32-0.138s0.132-0.209 0.132-0.334c0-0.125-0.048-0.245-0.132-0.334s-0.2-0.138-0.32-0.138v0z"></path>
<path d="M29.429 22.955h-2.838c-0.12 0-0.235 0.050-0.32 0.138s-0.132 0.209-0.132 0.334c0 0.125 0.048 0.245 0.132 0.334s0.2 0.138 0.32 0.138h2.838c0.12 0 0.235-0.050 0.32-0.138s0.132-0.209 0.132-0.334c0-0.125-0.048-0.245-0.132-0.334s-0.2-0.138-0.32-0.138v0z"></path>
<path d="M29.429 27.269h-2.838c-0.12 0-0.235 0.050-0.32 0.138s-0.132 0.209-0.132 0.334c0 0.125 0.048 0.245 0.132 0.334s0.2 0.138 0.32 0.138h2.838c0.12 0 0.235-0.050 0.32-0.138s0.132-0.209 0.132-0.334c0-0.125-0.048-0.245-0.132-0.334s-0.2-0.138-0.32-0.138v0z"></path>
</symbol>
<symbol id="icon-truck" viewBox="0 0 32 32">
<title>truck</title>
<path d="M11.666 19.568c-1.453 0-2.628 1.179-2.628 2.632 0 1.449 1.174 2.628 2.628 2.628s2.628-1.179 2.628-2.628c0-1.453-1.174-2.632-2.628-2.632zM11.666 23.514c-0.727 0-1.314-0.592-1.314-1.314 0-0.727 0.587-1.314 1.314-1.314s1.314 0.587 1.314 1.314c0 0.722-0.587 1.314-1.314 1.314zM31.485 17.624v2.806c0 0.7-0.567 1.267-1.267 1.267h-1.356c-0.245-1.681-1.694-2.974-3.443-2.974-1.745 0-3.194 1.293-3.439 2.974h-6.874c-0.245-1.681-1.694-2.974-3.439-2.974s-3.194 1.293-3.439 2.974h-1.698c-0.7 0-1.267-0.567-1.267-1.267v-2.806h26.223zM25.422 19.568c-1.453 0-2.632 1.179-2.632 2.632 0 1.449 1.179 2.628 2.632 2.628 1.449 0 2.628-1.179 2.628-2.628 0-1.453-1.179-2.632-2.628-2.632zM25.422 23.514c-0.727 0-1.314-0.592-1.314-1.314 0-0.727 0.587-1.314 1.314-1.314 0.722 0 1.314 0.587 1.314 1.314 0 0.722-0.591 1.314-1.314 1.314zM30.986 14.798l-4.981-4.926c-0.317-0.313-0.744-0.49-1.187-0.49h-2.514v-0.942c0-0.701-0.566-1.267-1.267-1.267h-14.508c-0.697 0-1.267 0.566-1.267 1.267v0.199l-5.143 0.593 9.114 1.187-9.232 0.917 9.199 1.308-9.199 0.798 5.262 0.992v2.49h26.223v-0.925c0-0.452-0.182-0.883-0.498-1.2zM28.814 14.963h-4.82c-0.11 0-0.199-0.089-0.199-0.199v-3.722c0-0.11 0.089-0.199 0.199-0.199h0.917c0.051 0 0.101 0.021 0.139 0.055l3.899 3.722c0.131 0.122 0.042 0.342-0.135 0.342z"></path>
</symbol>
<symbol id="icon-truck-time" viewBox="0 0 32 32">
<title>truck-time</title>
<path d="M19.654 12.816c0.186 0.242 0.303 0.53 0.339 0.833l4.197 3.342c0.112 0.089 0.186 0.216 0.209 0.356s-0.008 0.285-0.085 0.404l-0.007 0.011c-0.077 0.119-0.197 0.206-0.334 0.242s-0.284 0.020-0.41-0.046l-4.762-2.472c-0.413 0.137-0.862 0.112-1.257-0.071s-0.704-0.509-0.866-0.912c-0.162-0.403-0.163-0.853-0.005-1.257s0.466-0.733 0.859-0.919l2.279-7.517c0.041-0.135 0.132-0.249 0.254-0.32s0.266-0.092 0.404-0.061l0.014 0.003c0.137 0.032 0.257 0.114 0.336 0.231s0.11 0.258 0.088 0.397l-1.251 7.756zM17.591 13.382c-0.093 0.139-0.143 0.303-0.143 0.471l-0.001 0.001c0 0.225 0.090 0.44 0.249 0.599s0.375 0.248 0.6 0.248c0.168 0 0.332-0.050 0.471-0.143s0.248-0.225 0.313-0.38c0.064-0.155 0.081-0.325 0.049-0.49s-0.113-0.315-0.232-0.434-0.27-0.199-0.434-0.232c-0.165-0.033-0.335-0.016-0.49 0.048s-0.288 0.173-0.381 0.312zM22.252 26.141c5.197-1.672 8.969-6.547 8.97-12.289l-0.001 0.001c0-7.119-5.798-12.912-12.925-12.912s-12.925 5.792-12.925 12.912c0.001 0.607 0.044 1.214 0.13 1.815h1.757c-0.099-0.6-0.149-1.207-0.15-1.815 0-6.16 5.019-11.174 11.187-11.174s11.187 5.014 11.187 11.176c0 4.772-3.010 8.852-7.231 10.452v1.835zM16.57 19.122l3.979 3.931c0.127 0.125 0.227 0.275 0.296 0.439s0.104 0.341 0.104 0.519v0.738h-20.949v-6.769c0-0.133 0.025-0.265 0.076-0.388s0.125-0.235 0.219-0.329 0.206-0.169 0.329-0.219c0.123-0.051 0.255-0.077 0.388-0.077h11.588c0.133 0 0.265 0.026 0.389 0.076s0.235 0.125 0.33 0.219c0.094 0.094 0.169 0.206 0.22 0.329s0.077 0.255 0.077 0.388v0.751h2.006c0.355 0 0.695 0.14 0.947 0.39zM14.964 23.183l3.853 0.003c0.032 0.001 0.064-0.007 0.091-0.024s0.048-0.043 0.060-0.072c0.012-0.030 0.015-0.063 0.007-0.094s-0.024-0.060-0.048-0.081l-3.116-2.972c-0.032-0.027-0.071-0.042-0.113-0.043h-0.734c-0.021 0-0.041 0.004-0.060 0.012s-0.036 0.019-0.051 0.034c-0.015 0.015-0.026 0.032-0.034 0.051s-0.012 0.039-0.012 0.060v2.972c0 0.021 0.003 0.041 0.011 0.060s0.019 0.037 0.034 0.051c0.015 0.015 0.032 0.026 0.051 0.034s0.040 0.011 0.060 0.011zM20.948 27.548v-2.239h-20.948v2.239c0 0.268 0.107 0.526 0.297 0.715s0.447 0.296 0.716 0.296h1.356c0.096-0.66 0.426-1.263 0.931-1.699s1.149-0.676 1.817-0.676 1.312 0.24 1.817 0.676c0.505 0.436 0.835 1.039 0.931 1.699h5.491c0.096-0.66 0.427-1.263 0.932-1.699s1.15-0.676 1.817-0.676 1.312 0.24 1.817 0.676c0.505 0.436 0.836 1.039 0.932 1.699h1.081c0.269 0 0.526-0.107 0.716-0.296s0.297-0.447 0.297-0.715zM14.936 27.215c0.346-0.23 0.752-0.353 1.168-0.353h0.002c0.556 0.001 1.089 0.222 1.482 0.615s0.614 0.925 0.615 1.48c0 0.415-0.122 0.821-0.353 1.167s-0.559 0.615-0.942 0.774c-0.384 0.159-0.806 0.201-1.214 0.12s-0.782-0.281-1.076-0.574c-0.294-0.294-0.494-0.668-0.575-1.075s-0.039-0.829 0.12-1.213c0.159-0.383 0.429-0.711 0.775-0.941zM15.519 29.834c0.173 0.115 0.377 0.176 0.585 0.175h0.002c0.278-0.001 0.544-0.112 0.74-0.309s0.306-0.463 0.305-0.741c0-0.208-0.062-0.411-0.177-0.584s-0.28-0.308-0.472-0.387c-0.192-0.079-0.404-0.1-0.608-0.059s-0.392 0.141-0.538 0.289c-0.147 0.147-0.247 0.335-0.287 0.539s-0.019 0.415 0.062 0.607c0.080 0.192 0.216 0.356 0.389 0.471zM3.949 27.215c0.346-0.23 0.752-0.353 1.168-0.353 0.556 0.001 1.089 0.222 1.483 0.614s0.614 0.926 0.615 1.481c0 0.415-0.122 0.821-0.353 1.167s-0.559 0.615-0.942 0.774c-0.384 0.159-0.806 0.201-1.214 0.12s-0.782-0.281-1.076-0.574c-0.294-0.294-0.494-0.668-0.575-1.075s-0.039-0.829 0.12-1.213c0.159-0.383 0.429-0.711 0.775-0.941zM4.532 29.832c0.173 0.115 0.376 0.177 0.584 0.177 0.138 0 0.275-0.027 0.402-0.079s0.244-0.13 0.341-0.227c0.098-0.098 0.175-0.213 0.228-0.341s0.080-0.264 0.079-0.402c0-0.208-0.061-0.411-0.177-0.584s-0.28-0.307-0.472-0.387c-0.192-0.080-0.404-0.1-0.608-0.060s-0.391 0.141-0.538 0.287-0.247 0.334-0.288 0.538c-0.041 0.204-0.020 0.415 0.060 0.607s0.214 0.356 0.387 0.471z"></path>
</symbol>
<symbol id="icon-up" viewBox="0 0 32 32">
<title>up</title>
<path d="M31.089 22.498l-1.822 1.822-13.266-13.263-13.266 13.263-1.822-1.822 15.089-15.086 15.089 15.086z"></path>
<path d="M0 22.498l16-15.998 16 15.998-2.734 2.733-13.266-13.263-13.266 13.264-2.734-2.733zM16 8.323l-14.178 14.176 0.911 0.911 13.266-13.264 13.266 13.263 0.911-0.911-14.178-14.175z"></path>
</symbol>
<symbol id="icon-uu-dai" viewBox="0 0 41 32">
<title>uu-dai</title>
<path d="M27.981 18.418c0 0.391-0.396 0.708-0.886 0.708s-0.886-0.317-0.886-0.708c0-0.391 0.396-0.708 0.886-0.708s0.886 0.317 0.886 0.708z"></path>
<path d="M38.679 4.682h-12.642c-0.306-1.942-1.165-3.558-2.323-4.315-0.778-0.507-1.803-0.487-2.611 0.050l-4.012 2.666h-4.329l-4.012-2.666c-0.808-0.537-1.833-0.556-2.612-0.049-1.159 0.757-2.017 2.373-2.323 4.315h-1.407c-1.328 0-2.407 1.076-2.407 2.4v22.396c0 1.323 1.080 2.4 2.407 2.4h36.272c1.328 0 2.407-1.076 2.407-2.4v-22.396c0-1.323-1.080-2.4-2.407-2.4zM1.605 22.279h37.877v3.199h-37.877v-3.199zM21.992 1.748c0.269-0.178 0.608-0.195 0.842-0.042 0.884 0.578 1.548 2.086 1.691 3.843 0.151 1.806-0.328 4.419-1.691 5.31-0.218 0.142-0.527 0.136-0.781-0.007-0.193-0.152-3.908-2.591-3.918-2.598v-1.172h2.407c0.443 0 0.802-0.358 0.802-0.8s-0.359-0.8-0.802-0.8h-2.407v-1.172l3.856-2.563zM8.922 12.033l3.84-2.552h0.896l-3.029 6.476-0.724-1.187c-0.168-0.276-0.487-0.424-0.807-0.375l-1.378 0.21 1.203-2.571zM16.531 7.882c-0.529 0-2.476 0-3.21 0v-3.199h3.21v3.199zM17.090 9.481l3.84 2.552 1.203 2.572-1.378-0.21c-0.321-0.049-0.638 0.099-0.807 0.375l-0.724 1.187-3.030-6.476h0.896zM7.017 1.706c0.235-0.153 0.574-0.137 0.843 0.042l3.857 2.563v1.172h-2.407c-0.443 0-0.803 0.358-0.803 0.8s0.359 0.8 0.803 0.8h2.407v1.172c-0.008 0.005-3.909 2.59-3.917 2.597-0.257 0.143-0.565 0.149-0.781 0.008-1.375-0.9-1.842-3.502-1.691-5.312 0.144-1.756 0.808-3.264 1.691-3.841zM2.407 6.282h1.284c0 2.621 0.96 4.943 2.448 5.915 0.242 0.158 0.509 0.264 0.786 0.32l-1.294 2.767c-0.125 0.267-0.092 0.581 0.085 0.818s0.471 0.356 0.763 0.311l2.332-0.355 1.226 2.008c0.154 0.252 0.434 0.401 0.73 0.383 0.296-0.016 0.558-0.193 0.683-0.461l3.477-7.432 3.477 7.432c0.125 0.267 0.387 0.445 0.683 0.461 0.015 0.001 0.029 0.001 0.044 0.001 0.279 0 0.539-0.145 0.686-0.384l1.226-2.008 2.331 0.355c0.293 0.045 0.586-0.075 0.763-0.311s0.21-0.55 0.085-0.818l-1.294-2.767c0.277-0.056 0.544-0.162 0.787-0.32 1.486-0.972 2.446-3.293 2.446-5.914h12.518c0.443 0 0.803 0.359 0.803 0.8v13.598h-37.877v-13.598c0-0.441 0.36-0.8 0.802-0.8zM38.679 30.278h-36.272c-0.443 0-0.802-0.359-0.802-0.8v-2.4h37.877v2.4c0 0.441-0.36 0.8-0.803 0.8z"></path>
<path d="M30.2 19.126h6.897c0.443 0 0.802-0.317 0.802-0.708s-0.359-0.708-0.802-0.708h-6.897c-0.443 0-0.802 0.317-0.802 0.708s0.359 0.708 0.802 0.708z"></path>
</symbol>
<symbol id="icon-viewed" viewBox="0 0 32 32">
<title>viewed</title>
<path d="M31.302 15.387c-0.281-0.385-6.987-9.427-15.551-9.427s-15.27 9.041-15.551 9.426c-0.267 0.365-0.267 0.861 0 1.226 0.281 0.385 6.987 9.427 15.551 9.427s15.27-9.042 15.551-9.426c0.267-0.365 0.267-0.861 0-1.226zM15.751 23.962c-6.308 0-11.772-6.001-13.39-7.963 1.615-1.964 7.068-7.961 13.39-7.961 6.308 0 11.771 6 13.39 7.963-1.615 1.963-7.068 7.961-13.39 7.961z"></path>
<path d="M15.751 9.769c-3.436 0-6.231 2.795-6.231 6.231s2.795 6.231 6.231 6.231c3.436 0 6.231-2.795 6.231-6.231s-2.795-6.231-6.231-6.231zM15.751 20.154c-2.291 0-4.154-1.864-4.154-4.154s1.863-4.154 4.154-4.154c2.291 0 4.154 1.864 4.154 4.154s-1.863 4.154-4.154 4.154z"></path>
</symbol>
<symbol id="icon-vnd" viewBox="0 0 32 32">
<title>vnd</title>
<path d="M16.012 0c-8.838-0.007-16.005 7.151-16.012 15.988s7.151 16.005 15.988 16.012c8.836-0.008 16-7.164 16.012-16 0-8.832-7.156-15.992-15.988-16zM20.063 24.439c0.249 0 0.487 0.099 0.663 0.274s0.275 0.414 0.275 0.663c0 0.249-0.099 0.487-0.275 0.663s-0.414 0.275-0.663 0.275h-10c-0.249 0-0.487-0.099-0.663-0.275s-0.275-0.414-0.275-0.663c0-0.249 0.099-0.487 0.275-0.663s0.414-0.274 0.663-0.274h10zM21 6.939h0.938c0.249 0 0.487 0.099 0.663 0.275s0.275 0.414 0.275 0.663c0 0.249-0.099 0.487-0.275 0.663s-0.414 0.275-0.663 0.275h-0.938v12.813c0 0.249-0.099 0.487-0.275 0.663s-0.414 0.275-0.663 0.275c-0.249 0-0.487-0.099-0.663-0.275s-0.275-0.414-0.275-0.663v-0.674c-0.844 0.794-1.902 1.323-3.044 1.523s-2.316 0.061-3.38-0.399c-1.063-0.46-1.969-1.221-2.606-2.189s-0.975-2.102-0.975-3.261c0-1.159 0.339-2.292 0.975-3.261s1.542-1.729 2.606-2.189c1.064-0.46 2.239-0.599 3.38-0.399s2.199 0.729 3.044 1.523v-3.487h-0.938c-0.249 0-0.487-0.099-0.663-0.275s-0.275-0.414-0.275-0.663c0-0.249 0.099-0.487 0.275-0.663s0.414-0.275 0.663-0.275h0.938v-0.313c0-0.249 0.099-0.487 0.275-0.663s0.414-0.275 0.663-0.275c0.249 0 0.487 0.099 0.663 0.275s0.275 0.414 0.275 0.663v0.313zM12.806 20.004c0.668 0.446 1.454 0.685 2.257 0.685 1.077-0.001 2.11-0.43 2.871-1.191s1.19-1.794 1.191-2.871c0-0.803-0.238-1.589-0.685-2.257s-1.081-1.189-1.823-1.496c-0.742-0.307-1.559-0.388-2.347-0.231s-1.512 0.544-2.080 1.112c-0.568 0.568-0.955 1.292-1.112 2.080s-0.076 1.605 0.231 2.347c0.307 0.742 0.828 1.377 1.496 1.823z"></path>
</symbol>
<symbol id="icon-xu" viewBox="0 0 32 32">
<title>xu</title>
<path d="M32 16c0 8.837-7.163 16-16 16s-16-7.163-16-16c0-8.837 7.163-16 16-16s16 7.163 16 16z"></path>
</symbol>
</defs>
</svg>
