<svg xmlns="http://www.w3.org/2000/svg" viewBox="0 0 14 14"><defs><style>.cls-1{fill:#236852;}</style></defs><title>Asset 5</title><g id="Layer_2" data-name="Layer 2"><g id="Layer_1-2" data-name="Layer 1"><path class="cls-1" d="M7,0a7,7,0,1,0,7,7A7,7,0,0,0,7,0Zm3.7,10.21-.56.56a1.1,1.1,0,0,1-.41.17A6.62,6.62,0,0,1,3.06,4.25a1,1,0,0,1,.17-.38l.56-.56a.92.92,0,0,1,.87-.21l.12,0a1.09,1.09,0,0,1,.64.67l.28,1a1,1,0,0,1-.23.89l-.37.37a4,4,0,0,0,2.79,2.8l.38-.38a1,1,0,0,1,.88-.23l1,.28a1.12,1.12,0,0,1,.67.64l0,.12A.94.94,0,0,1,10.7,10.21Z"/></g></g></svg>