<svg id="Capa_1" data-name="Capa 1" xmlns="http://www.w3.org/2000/svg" viewBox="0 0 512 512"><defs><style>.cls-1{fill:#dba510;}.cls-2{fill:#72e8b2;}.cls-3{fill:#4bc999;}</style></defs><title>clicking</title><path class="cls-1" d="M390,195a195.63,195.63,0,0,1-18.6,83.4,15.39,15.39,0,0,1-20.1,7.2,15.12,15.12,0,0,1-7.2-20.1A163.66,163.66,0,0,0,360,195c0-90.9-74.1-165-165-165A164.91,164.91,0,0,0,30,195c0,90.9,74.1,165,165,165a160.1,160.1,0,0,0,71.7-16.5,15,15,0,0,1,19.8,7.2,14.66,14.66,0,0,1-6.9,19.8A191.24,191.24,0,0,1,195,390C87.6,390,0,302.4,0,195A195.64,195.64,0,0,1,195,0C302.4,0,390,87.6,390,195Z" transform="translate(0 0)"/><path class="cls-1" d="M300,195a102.65,102.65,0,0,1-11.1,47.1,15.15,15.15,0,0,1-20.1,6.6,14.72,14.72,0,0,1-6.6-20.1A76.68,76.68,0,0,0,270,195a75,75,0,1,0-75,75,73.52,73.52,0,0,0,42.9-13.5c6.6-4.8,15.9-3,20.7,3.9a14.87,14.87,0,0,1-3.6,20.7A105,105,0,1,1,300,195Z" transform="translate(0 0)"/><path class="cls-2" d="M502.93,301.1,184.64,165.2a14.73,14.73,0,0,0-19.5,19.5L301,503a15.16,15.16,0,0,0,13.8,9h1.5a15.32,15.32,0,0,0,13.21-11.7L361,361.1l139.19-31.5a15.31,15.31,0,0,0,11.7-13.2A15.11,15.11,0,0,0,502.93,301.1Z" transform="translate(0 0)"/><path class="cls-3" d="M361,361.1l-31.5,139.2a15.31,15.31,0,0,1-13.2,11.7h-1.5a15.16,15.16,0,0,1-13.8-9L165.13,184.7a15.25,15.25,0,0,1,3-16.5Z" transform="translate(0 0)"/></svg>