<svg width="20" height="20" viewBox="0 0 20 20" fill="none" xmlns="http://www.w3.org/2000/svg">
<path d="M18.782 8.71124H17.7736C17.7161 8.49413 17.5925 8.30244 17.4215 8.16517C17.2504 8.0279 17.0412 7.9525 16.8255 7.95038H15.749V5.20179C15.7502 5.15037 15.7383 5.09954 15.7145 5.05451C15.6907 5.00948 15.6558 4.97188 15.6135 4.94555L8.01931 0.36589C7.97651 0.339915 7.92789 0.326233 7.87838 0.326233C7.82888 0.326233 7.78025 0.339915 7.73745 0.36589L0.140892 4.94555C0.0979089 4.97156 0.0622529 5.00894 0.0375178 5.05393C0.0127827 5.09892 -0.000157474 5.14992 1.44633e-06 5.20179V14.3611C2.71008e-06 14.4131 0.0130982 14.4641 0.0379717 14.5091C0.0628453 14.5541 0.0986205 14.5914 0.141702 14.6174L7.73903 19.197C7.78211 19.223 7.83098 19.2367 7.88073 19.2367C7.93176 19.2367 7.98195 19.2231 8.02648 19.197L12.0243 16.7894V18.5299C12.0239 18.6956 12.055 18.8597 12.1157 19.0128C12.1765 19.1659 12.2657 19.3049 12.3783 19.4217C12.4908 19.5385 12.6244 19.6309 12.7714 19.6934C12.9184 19.756 13.0758 19.7875 13.2345 19.7861H18.782C18.9411 19.7876 19.099 19.7563 19.2464 19.6939C19.3939 19.6315 19.5281 19.5393 19.6413 19.4225C19.7545 19.3058 19.8445 19.1668 19.906 19.0136C19.9676 18.8604 19.9995 18.696 20 18.5299V9.98705C19.9998 9.64946 19.8716 9.3257 19.6433 9.0866C19.415 8.8475 19.1054 8.71254 18.782 8.71124ZM16.8356 8.54216C16.9447 8.54216 17.0493 8.58741 17.1265 8.66796C17.2036 8.74851 17.247 8.85776 17.247 8.97167V9.00033C17.247 9.11424 17.2036 9.22349 17.1265 9.30404C17.0493 9.38459 16.9447 9.42984 16.8356 9.42984H15.1887C15.0796 9.42984 14.975 9.38459 14.8978 9.30404C14.8207 9.22349 14.7773 9.11424 14.7773 9.00033V8.97167C14.7773 8.85776 14.8207 8.74851 14.8978 8.66796C14.975 8.58741 15.0796 8.54216 15.1887 8.54216H16.8356ZM7.88073 0.963804L11.0376 2.86673L4.00753 7.10442L0.85073 5.20149L7.88073 0.963804ZM7.61134 18.4283L0.566803 14.1903V5.71364L7.61134 9.95162V18.4283ZM7.88073 9.43914L4.57433 7.44605L11.6044 3.2084L14.9109 5.20149L7.88073 9.43914ZM12.0243 9.98705V16.1061L8.17814 18.4283V9.95162L15.1822 5.71364V7.95038H15.191C14.9752 7.95249 14.766 8.02789 14.595 8.16516C14.4239 8.30244 14.3004 8.49412 14.2429 8.71124H13.2345C12.9119 8.71288 12.6033 8.84821 12.3763 9.08747C12.1494 9.32673 12.0227 9.65032 12.0243 9.98705ZM19.4332 18.5299C19.4328 18.6183 19.4156 18.7058 19.3825 18.7873C19.3495 18.8687 19.3013 18.9425 19.2407 19.0043C19.1801 19.0661 19.1084 19.1147 19.0296 19.1473C18.9509 19.18 18.8667 19.1959 18.782 19.1943H13.2345C13.1502 19.1958 13.0664 19.1797 12.9882 19.1469C12.91 19.1141 12.8388 19.0653 12.7789 19.0035C12.7189 18.9416 12.6714 18.8678 12.6392 18.7865C12.6069 18.7051 12.5906 18.6179 12.5911 18.5299V9.98705C12.5902 9.89801 12.6062 9.80966 12.6381 9.72707C12.67 9.64448 12.7172 9.56927 12.7769 9.50573C12.8367 9.4422 12.9078 9.39159 12.9863 9.35681C13.0649 9.32203 13.1492 9.30375 13.2345 9.30303H14.254C14.3147 9.51247 14.4389 9.69571 14.6078 9.82526C14.7768 9.95482 14.9814 10.0237 15.191 10.0216H16.8255C17.0351 10.0237 17.2397 9.95482 17.4086 9.82527C17.5776 9.69571 17.7017 9.51247 17.7625 9.30303H18.782C18.9551 9.30417 19.1207 9.37673 19.2427 9.50488C19.3647 9.63303 19.4332 9.80636 19.4332 9.98705V18.5299Z" fill="#DBA510"/>
<path d="M13.5607 12.9806H13.8573C13.9325 12.9806 14.0046 12.9494 14.0577 12.8939C14.1109 12.8384 14.1407 12.7632 14.1407 12.6847C14.1407 12.6062 14.1109 12.531 14.0577 12.4755C14.0046 12.42 13.9325 12.3888 13.8573 12.3888H13.8462V11.5856H14.6278C14.6456 11.6451 14.6816 11.6969 14.7303 11.733C14.7789 11.7691 14.8376 11.7875 14.8973 11.7855C14.9725 11.7857 15.0448 11.7547 15.0982 11.6994C15.1516 11.644 15.1818 11.5688 15.1822 11.4902V11.2911C15.1816 11.2122 15.1511 11.1367 15.0975 11.081C15.0438 11.0253 14.9713 10.994 14.8957 10.9938H13.5607C13.5235 10.994 13.4867 11.0019 13.4525 11.0169C13.4182 11.032 13.3871 11.054 13.361 11.0816C13.3349 11.1092 13.3142 11.1419 13.3002 11.1779C13.2862 11.2138 13.2791 11.2523 13.2794 11.2911V12.685C13.2791 12.7238 13.2863 12.7621 13.3003 12.798C13.3143 12.8338 13.335 12.8664 13.3612 12.8939C13.3873 12.9214 13.4184 12.9432 13.4526 12.958C13.4869 12.9729 13.5236 12.9806 13.5607 12.9806Z" fill="#DBA510"/>
<path d="M13.5628 15.6859H14.8988C14.974 15.6859 15.046 15.6547 15.0992 15.5992C15.1523 15.5437 15.1822 15.4684 15.1822 15.39V13.995C15.1822 13.9165 15.1523 13.8413 15.0992 13.7858C15.046 13.7303 14.974 13.6991 14.8988 13.6991H13.5628C13.4876 13.6991 13.4155 13.7303 13.3624 13.7858C13.3092 13.8413 13.2794 13.9165 13.2794 13.995V15.39C13.2794 15.4684 13.3092 15.5437 13.3624 15.5992C13.4155 15.6547 13.4876 15.6859 13.5628 15.6859ZM13.8462 14.2909H14.6154V15.0941H13.8462V14.2909Z" fill="#DBA510"/>
<path d="M13.8574 17.7994H13.8462V16.9963H14.6125C14.614 17.0741 14.6446 17.1482 14.6978 17.2027C14.751 17.2572 14.8226 17.2878 14.8971 17.2879C14.9716 17.288 15.0432 17.2575 15.0965 17.2031C15.1498 17.1487 15.1806 17.0747 15.1822 16.9969V16.7117C15.1819 16.6317 15.1519 16.555 15.0984 16.4977C15.045 16.4403 14.9723 16.4069 14.8957 16.4045H13.5607C13.4847 16.4071 13.4126 16.4408 13.36 16.4982C13.3075 16.5557 13.2785 16.6323 13.2794 16.7117V18.1056C13.2793 18.1438 13.2866 18.1816 13.3009 18.2168C13.3151 18.252 13.3359 18.2839 13.3622 18.3105C13.3884 18.3372 13.4195 18.358 13.4536 18.3719C13.4877 18.3857 13.5241 18.3923 13.5607 18.3912H13.8574C13.9326 18.3912 14.0046 18.36 14.0578 18.3045C14.1109 18.249 14.1408 18.1738 14.1408 18.0953C14.1408 18.0168 14.1109 17.9415 14.0578 17.8861C14.0046 17.8306 13.9326 17.7994 13.8574 17.7994Z" fill="#DBA510"/>
<path d="M15.5482 11.357L14.7183 12.2236L14.4658 11.9599C14.4395 11.9325 14.4083 11.9107 14.3739 11.8958C14.3395 11.8809 14.3026 11.8733 14.2654 11.8733C14.2282 11.8733 14.1913 11.8809 14.157 11.8958C14.1226 11.9107 14.0913 11.9325 14.065 11.9599C14.0387 11.9874 14.0178 12.02 14.0036 12.0559C13.9893 12.0918 13.982 12.1303 13.982 12.1692C13.982 12.2081 13.9893 12.2465 14.0036 12.2824C14.0178 12.3183 14.0387 12.351 14.065 12.3784L14.5179 12.8513C14.5442 12.8788 14.5755 12.9006 14.6099 12.9155C14.6443 12.9303 14.6811 12.938 14.7183 12.938C14.7555 12.938 14.7924 12.9303 14.8268 12.9155C14.8612 12.9006 14.8924 12.8788 14.9187 12.8513L15.9492 11.7754C16.0023 11.7199 16.0322 11.6446 16.0322 11.5661C16.0322 11.4876 16.0023 11.4124 15.9492 11.3569C15.896 11.3014 15.8239 11.2702 15.7488 11.2702C15.6736 11.2702 15.6015 11.3014 15.5484 11.3569L15.5482 11.357Z" fill="#DBA510"/>
<path d="M15.5482 16.8204L14.7183 17.687L14.4658 17.4233C14.4395 17.3959 14.4083 17.3741 14.3739 17.3592C14.3395 17.3443 14.3026 17.3367 14.2654 17.3367C14.2282 17.3367 14.1913 17.3443 14.157 17.3592C14.1226 17.3741 14.0913 17.3959 14.065 17.4233C14.0387 17.4508 14.0178 17.4834 14.0036 17.5193C13.9893 17.5552 13.982 17.5937 13.982 17.6326C13.982 17.6714 13.9893 17.7099 14.0036 17.7458C14.0178 17.7817 14.0387 17.8143 14.065 17.8418L14.5179 18.3146C14.5442 18.3421 14.5755 18.3639 14.6099 18.3788C14.6443 18.3937 14.6811 18.4013 14.7183 18.4013C14.7555 18.4013 14.7924 18.3937 14.8268 18.3788C14.8612 18.3639 14.8924 18.3421 14.9187 18.3146L15.9492 17.2388C16.0023 17.1833 16.0322 17.108 16.0322 17.0295C16.0322 16.9511 16.0023 16.8758 15.9492 16.8203C15.896 16.7648 15.8239 16.7336 15.7488 16.7336C15.6736 16.7336 15.6015 16.7648 15.5484 16.8203L15.5482 16.8204Z" fill="#DBA510"/>
<path d="M18.4557 11.7125H16.6757C16.6006 11.7125 16.5285 11.7436 16.4753 11.7991C16.4222 11.8546 16.3923 11.9299 16.3923 12.0083C16.3923 12.0868 16.4222 12.1621 16.4753 12.2175C16.5285 12.273 16.6006 12.3042 16.6757 12.3042H18.4557C18.5309 12.3042 18.603 12.273 18.6561 12.2175C18.7093 12.1621 18.7391 12.0868 18.7391 12.0083C18.7391 11.9299 18.7093 11.8546 18.6561 11.7991C18.603 11.7436 18.5309 11.7125 18.4557 11.7125Z" fill="#DBA510"/>
<path d="M18.4557 14.4177H16.6757C16.6006 14.4177 16.5285 14.4489 16.4753 14.5044C16.4222 14.5599 16.3923 14.6352 16.3923 14.7137C16.3923 14.7921 16.4222 14.8674 16.4753 14.9229C16.5285 14.9784 16.6006 15.0096 16.6757 15.0096H18.4557C18.5309 15.0096 18.603 14.9784 18.6561 14.9229C18.7093 14.8674 18.7391 14.7921 18.7391 14.7137C18.7391 14.6352 18.7093 14.5599 18.6561 14.5044C18.603 14.4489 18.5309 14.4177 18.4557 14.4177Z" fill="#DBA510"/>
<path d="M18.4557 17.123H16.6757C16.6006 17.123 16.5285 17.1542 16.4753 17.2097C16.4222 17.2652 16.3923 17.3404 16.3923 17.4189C16.3923 17.4974 16.4222 17.5726 16.4753 17.6281C16.5285 17.6836 16.6006 17.7148 16.6757 17.7148H18.4557C18.5309 17.7148 18.603 17.6836 18.6561 17.6281C18.7093 17.5726 18.7391 17.4974 18.7391 17.4189C18.7391 17.3404 18.7093 17.2652 18.6561 17.2097C18.603 17.1542 18.5309 17.123 18.4557 17.123Z" fill="#DBA510"/>
</svg>
