<svg xmlns="http://www.w3.org/2000/svg" viewBox="0 0 26.39 22.72"><defs><style>.cls-1{fill:#fff;}</style></defs><title>Asset 7</title><g id="Layer_2" data-name="Layer 2"><g id="Layer_1-2" data-name="Layer 1"><path class="cls-1" d="M9.53,17.59a2.57,2.57,0,1,0,2.56,2.57A2.57,2.57,0,0,0,9.53,17.59Zm0,3.67a1.1,1.1,0,1,1,1.1-1.1A1.1,1.1,0,0,1,9.53,21.26Z"/><path class="cls-1" d="M21.26,17.59a2.57,2.57,0,1,0,2.56,2.57A2.57,2.57,0,0,0,21.26,17.59Zm0,3.67a1.1,1.1,0,1,1,1.09-1.1A1.1,1.1,0,0,1,21.26,21.26Z"/><path class="cls-1" d="M21.26,19.06H9.53a.75.75,0,0,1-.7-.5L3.14,1.47H.73A.74.74,0,0,1,.73,0H3.66a.73.73,0,0,1,.7.5l5.7,17.09h11.2a.74.74,0,0,1,0,1.47Z"/><path class="cls-1" d="M22.72,14.66H8.06a.74.74,0,0,1,0-1.47H22.19l2.45-7.33H5.13a.73.73,0,0,1,0-1.46H25.65a.74.74,0,0,1,.6.3.77.77,0,0,1,.1.66l-2.93,8.8A.73.73,0,0,1,22.72,14.66Z"/><path class="cls-1" d="M24.19,10.26H6.6a.73.73,0,1,1,0-1.46H24.19a.73.73,0,1,1,0,1.46Z"/><path class="cls-1" d="M12.64,14.66a.72.72,0,0,1-.72-.64l-1.1-8.8a.73.73,0,0,1,.63-.82.74.74,0,0,1,.82.64l1.1,8.79a.73.73,0,0,1-.64.82Z"/><path class="cls-1" d="M18.14,14.66h-.09a.73.73,0,0,1-.64-.82L18.51,5A.74.74,0,0,1,20,5.22L18.87,14A.73.73,0,0,1,18.14,14.66Z"/></g></g></svg>