<svg id="Layer_1" data-name="Layer 1" xmlns="http://www.w3.org/2000/svg" viewBox="0 0 904.93 522.4"><defs><style>.cls-1{fill:#226852;}.cls-2{fill:#70c6a5;}.cls-3{fill:#49b391;}</style></defs><title>logo US dương bản</title><path class="cls-1" d="M613.94,508.59h-2l0,0H597c-2.73,0-11.15-.86-19.42-8.46l-.05,0-.55-.53-.06,0h0L451.15,376.89l119.26-6.38L621,496.27c1.12,2.06,5.58,11.57-7,12.32" transform="translate(-48.29 -238.8)"/><path class="cls-1" d="M651.18,258.13a.21.21,0,0,1,0,.06l-.62.92-.25.38h0l-79.92,111L451.2,376.86l-.17,0,159.6-131.5.13,0a30.34,30.34,0,0,1,16.46-6.51.09.09,0,0,1,0-.05h13.16l0,.07c19.68.83,13.27,14.82,10.73,19.24" transform="translate(-48.29 -238.8)"/><path class="cls-2" d="M444.61,247.85h0l-.07,0-.54-.53-.05,0c-8.27-7.6-16.69-8.42-19.42-8.45H409.68l0,0h-2c-12.63.76-8.17,10.26-7.05,12.32l50.87,119.23,119,.15Z" transform="translate(-48.29 -238.8)"/><path class="cls-3" d="M410.94,502.06,570.53,370.55h-.16l-118.92-.19-.09.18L371.23,487.91h0l-.25.37-.62.92,0,.06c-2.55,4.42-8.95,18.41,10.72,19.24l.05.07v0h13.16s0,0,0,0A30.46,30.46,0,0,0,410.81,502l.13,0" transform="translate(-48.29 -238.8)"/><path class="cls-1" d="M408.74,722.89h-6.26a11.08,11.08,0,0,1-7.18-3.13v0l-.21-.2,0,0h0l-46.52-45.36,44.1-2.36,18.71,46.51c.41.76,2.06,4.28-2.61,4.56" transform="translate(-48.29 -238.8)"/><path class="cls-1" d="M422.51,630.27s0,0,0,0l-.23.34-.09.14h0l-29.56,41.05-44.08,2.35h-.07l59-48.63h.05a11.19,11.19,0,0,1,6.09-2.41v0h4.87v0c7.28.31,4.91,5.48,4,7.12" transform="translate(-48.29 -238.8)"/><path class="cls-3" d="M135.17,714.8c1.17,2,.9,3.11-.78,3.5l-20.6,4.28a13,13,0,0,1-2.33.19c-1.43,0-2.6-.85-3.5-2.53a38.53,38.53,0,0,1-2.72-7,36.9,36.9,0,0,1-11.66,8,37.19,37.19,0,0,1-13.8,2.33,41.2,41.2,0,0,1-14-2.24,23.71,23.71,0,0,1-10.1-6.7,28.82,28.82,0,0,1-3.8-5.06,21.59,21.59,0,0,1-2.23-5.73,45.09,45.09,0,0,1-1.07-7.68q-.28-4.47-.29-11.08V628.51a5.9,5.9,0,0,1,.39-2.73c.26-.39,1-.71,2.33-1l23.52-3.49c1.68-.26,2.72-.23,3.11.09s.58,1.26.58,2.82v63.36q0,7.57,1.94,10.89t7.59,3.3q7.38,0,14.18-6.22V628.31a5.88,5.88,0,0,1,.39-2.72c.26-.39,1-.71,2.34-1l23.12-3.3q2.73-.39,3.21,0c.32.26.49,1.23.49,2.91v70.55a62.93,62.93,0,0,0,.87,11.76,32.5,32.5,0,0,0,2.82,8.26" transform="translate(-48.29 -238.8)"/><path class="cls-3" d="M223.41,692.25a32.4,32.4,0,0,1-2.63,13.42,27.15,27.15,0,0,1-7.38,9.81,32.5,32.5,0,0,1-11.28,6,47.56,47.56,0,0,1-14.28,2A79.09,79.09,0,0,1,167,720.92a69.8,69.8,0,0,1-16.43-6.51c-1.43-.77-2.14-1.49-2.14-2.14a13.63,13.63,0,0,1,.59-3.11l4.86-15.93c.25-1,.74-1.62,1.45-1.75a3.61,3.61,0,0,1,2.43.58,63.85,63.85,0,0,0,6.61,3c2.46,1,5,1.92,7.48,2.82a58.33,58.33,0,0,0,7.39,2.14,30.28,30.28,0,0,0,6.32.78,11.65,11.65,0,0,0,7-1.85,6.63,6.63,0,0,0,2.53-5.73,6.13,6.13,0,0,0-3.4-5.74,106.26,106.26,0,0,0-11.57-5q-8.16-3.3-13.11-5.83a32.62,32.62,0,0,1-8.27-5.83,24.08,24.08,0,0,1-5.05-7.68A28.46,28.46,0,0,1,151.69,652a29,29,0,0,1,2.81-12.92,29.47,29.47,0,0,1,7.78-9.82A34.59,34.59,0,0,1,174,623.06a49.18,49.18,0,0,1,14.77-2.13,64.62,64.62,0,0,1,17.59,2.13,59,59,0,0,1,12.93,5.25c1,.65,1.55,1.23,1.55,1.75a7.33,7.33,0,0,1-.58,2.33l-6,15c-.39,1-.81,1.62-1.26,1.75a4.06,4.06,0,0,1-2.24-.39c-3.37-1.43-6.87-2.75-10.49-4a31.46,31.46,0,0,0-9.91-1.84,15.08,15.08,0,0,0-7.68,1.75,6,6,0,0,0-3,5.63,5.8,5.8,0,0,0,3,5.54,98.25,98.25,0,0,0,9.81,4.38q9.72,3.88,15.16,6.7a34.92,34.92,0,0,1,9.33,6.9q6.42,7,6.42,18.46" transform="translate(-48.29 -238.8)"/><path class="cls-1" d="M320.39,675.35c0,1.81-.32,2.91-1,3.3a6.81,6.81,0,0,1-3.3.58H263.05q.6,11.28,5.16,16.43t13.5,5.15a42.24,42.24,0,0,0,12.74-1.75,62.14,62.14,0,0,0,11.17-4.86c2.07-1.17,3.62-.78,4.67,1.17l6.6,13.21q1.37,2.53-.48,4a35.1,35.1,0,0,1-5.15,3.2,65,65,0,0,1-16,6,69.17,69.17,0,0,1-15.06,1.75q-22.93,0-34.4-13.12T234.29,673a68.32,68.32,0,0,1,3.11-21.09,48.24,48.24,0,0,1,8.94-16.53,40.28,40.28,0,0,1,14.09-10.69,44.61,44.61,0,0,1,18.76-3.78q21.18,0,31.19,13.79t10,40.63m-32.75-30.71c-2-2.73-5.21-4.08-9.62-4.08s-7.87,1.39-10,4.18-3.72,7.74-4.76,14.86h27.8q-.41-10.87-3.41-15" transform="translate(-48.29 -238.8)"/><path class="cls-1" d="M521.56,671.26q0,26.06-9.34,39.17t-29.35,13.12a35,35,0,0,1-9-1.07,43.93,43.93,0,0,1-8.26-3.21v34.79a4.6,4.6,0,0,1-.39,2.43,3.91,3.91,0,0,1-1.95.88l-24.68,3.69c-1.16.26-1.94.16-2.33-.29a4.68,4.68,0,0,1-.58-2.82V651.83a45.08,45.08,0,0,0-1.17-10.89q-1.17-4.66-2.72-9.13a3.28,3.28,0,0,1-.29-2.24c.19-.45.74-.8,1.65-1.06l20-7a9.2,9.2,0,0,1,2.72-.58c1,0,2,.87,2.91,2.62a38.06,38.06,0,0,1,2.53,6.51A34.93,34.93,0,0,1,472.57,623a36.13,36.13,0,0,1,12.45-2q18.45,0,27.49,13.41t9,36.92M492.4,672q0-15.74-3.6-22.35t-10-6.61a16.16,16.16,0,0,0-6.31,1.26,28.16,28.16,0,0,0-6.9,4.57v51.7a26.6,26.6,0,0,0,11.66,2.92,14.91,14.91,0,0,0,6.9-1.46A11.1,11.1,0,0,0,488.8,697a31.33,31.33,0,0,0,2.72-9.72A111.18,111.18,0,0,0,492.4,672" transform="translate(-48.29 -238.8)"/><path class="cls-1" d="M595.33,626.17a2,2,0,0,1,.58,2.14c-.27.78-.52,1.49-.78,2.14l-6.41,17.3q-1,2.52-3.11,1.55a40.53,40.53,0,0,0-3.89-1.85,14,14,0,0,0-5.25-.87,11.53,11.53,0,0,0-5.83,1.56,31.4,31.4,0,0,0-6.8,6v63c0,1.56-.17,2.47-.49,2.73a5.22,5.22,0,0,1-2.62.38H536.62c-1.42,0-2.26-.12-2.52-.38s-.39-1.17-.39-2.73V657.46A59.55,59.55,0,0,0,532,642.4a109,109,0,0,0-3.3-10.79,20.93,20.93,0,0,1-.88-2.91c-.19-.9.42-1.56,1.85-2l18.85-5a9.32,9.32,0,0,1,2.72-.58q2.14,0,4.08,3.59a49.19,49.19,0,0,1,3.7,9.82,13,13,0,0,0,1-1.17,3.45,3.45,0,0,1,1-1A49.39,49.39,0,0,1,571,623.74a21.09,21.09,0,0,1,11.08-2.81,20.67,20.67,0,0,1,7.58,1.36,13.75,13.75,0,0,1,5.64,3.88" transform="translate(-48.29 -238.8)"/><path class="cls-1" d="M680.65,675.35c0,1.81-.33,2.91-1,3.3a6.81,6.81,0,0,1-3.3.58H623.32q.57,11.28,5.14,16.43T642,700.81a42.17,42.17,0,0,0,12.73-1.75,61.92,61.92,0,0,0,11.18-4.86c2.07-1.17,3.63-.78,4.66,1.17l6.61,13.21q1.36,2.53-.49,4a34.39,34.39,0,0,1-5.14,3.2,65,65,0,0,1-16,6,69.23,69.23,0,0,1-15.06,1.75q-22.93,0-34.4-13.12T594.55,673a68,68,0,0,1,3.11-21.09,48.24,48.24,0,0,1,8.94-16.53,40.28,40.28,0,0,1,14.09-10.69,44.61,44.61,0,0,1,18.76-3.78q21.18,0,31.19,13.79t10,40.63M647.9,644.64c-2-2.73-5.22-4.08-9.62-4.08s-7.87,1.39-10,4.18-3.73,7.74-4.76,14.86H651.3q-.39-10.87-3.4-15" transform="translate(-48.29 -238.8)"/><path class="cls-1" d="M766,692.25a32.4,32.4,0,0,1-2.62,13.42,27.07,27.07,0,0,1-7.39,9.81,32.46,32.46,0,0,1-11.27,6,47.56,47.56,0,0,1-14.28,2,79.22,79.22,0,0,1-20.9-2.63,69.71,69.71,0,0,1-16.42-6.51c-1.43-.77-2.14-1.49-2.14-2.14a14,14,0,0,1,.58-3.11l4.86-15.93c.26-1,.74-1.62,1.46-1.75a3.63,3.63,0,0,1,2.43.58,62,62,0,0,0,6.61,3c2.46,1,5,1.92,7.48,2.82a58.33,58.33,0,0,0,7.39,2.14,30.2,30.2,0,0,0,6.31.78,11.69,11.69,0,0,0,7-1.85,6.63,6.63,0,0,0,2.53-5.73,6.12,6.12,0,0,0-3.41-5.74,105.87,105.87,0,0,0-11.56-5q-8.16-3.3-13.12-5.83a32.55,32.55,0,0,1-8.26-5.83,24.08,24.08,0,0,1-5-7.68,28.45,28.45,0,0,1-2-11.18,28.88,28.88,0,0,1,2.82-12.92,29.34,29.34,0,0,1,7.78-9.82,34.64,34.64,0,0,1,11.75-6.22,49.25,49.25,0,0,1,14.78-2.13A64.67,64.67,0,0,1,749,623.06a58.91,58.91,0,0,1,12.92,5.25c1,.65,1.56,1.23,1.56,1.75a7.61,7.61,0,0,1-.58,2.33l-6,15c-.39,1-.81,1.62-1.26,1.75a4.06,4.06,0,0,1-2.24-.39c-3.37-1.43-6.87-2.75-10.5-4a31.41,31.41,0,0,0-9.91-1.84,15.1,15.1,0,0,0-7.68,1.75,6,6,0,0,0-3,5.63,5.81,5.81,0,0,0,3,5.54,97.61,97.61,0,0,0,9.82,4.38q9.72,3.88,15.16,6.7a35.08,35.08,0,0,1,9.33,6.9q6.42,7,6.41,18.46" transform="translate(-48.29 -238.8)"/><path class="cls-1" d="M849,692.25a32.4,32.4,0,0,1-2.63,13.42,27.15,27.15,0,0,1-7.38,9.81,32.5,32.5,0,0,1-11.28,6,47.56,47.56,0,0,1-14.28,2,79.09,79.09,0,0,1-20.89-2.63,69.63,69.63,0,0,1-16.43-6.51c-1.43-.77-2.14-1.49-2.14-2.14a14,14,0,0,1,.58-3.11l4.86-15.93c.26-1,.75-1.62,1.46-1.75a3.63,3.63,0,0,1,2.43.58,63.85,63.85,0,0,0,6.61,3c2.46,1,5,1.92,7.48,2.82a58.33,58.33,0,0,0,7.39,2.14,30.28,30.28,0,0,0,6.32.78,11.65,11.65,0,0,0,7-1.85,6.63,6.63,0,0,0,2.53-5.73,6.11,6.11,0,0,0-3.4-5.74,106.26,106.26,0,0,0-11.57-5q-8.16-3.3-13.11-5.83a32.2,32.2,0,0,1-8.26-5.83,23.94,23.94,0,0,1-5.06-7.68,32,32,0,0,1,.88-24.1,29.31,29.31,0,0,1,7.77-9.82,34.69,34.69,0,0,1,11.76-6.22,49.14,49.14,0,0,1,14.77-2.13A64.62,64.62,0,0,1,832,623.06a59,59,0,0,1,12.93,5.25c1,.65,1.55,1.23,1.55,1.75a7.61,7.61,0,0,1-.58,2.33l-6,15c-.39,1-.81,1.62-1.26,1.75a4.06,4.06,0,0,1-2.24-.39c-3.37-1.43-6.87-2.75-10.49-4a31.46,31.46,0,0,0-9.92-1.84,15,15,0,0,0-7.67,1.75,6,6,0,0,0-3,5.63,5.8,5.8,0,0,0,3,5.54,96.14,96.14,0,0,0,9.81,4.38q9.72,3.88,15.16,6.7a34.92,34.92,0,0,1,9.33,6.9q6.42,7,6.42,18.46" transform="translate(-48.29 -238.8)"/><path class="cls-2" d="M346.12,626.47h0l0,0-.2-.2h0a11.09,11.09,0,0,0-7.18-3.12h-6.25c-4.68.28-3,3.79-2.61,4.56l18.81,44.09,44,.05Z" transform="translate(-48.29 -238.8)"/><path class="cls-3" d="M333.67,720.47l59-48.63h-.06l-44-.07,0,.06L319,715.24h0l-.09.14-.23.34v0c-.94,1.63-3.3,6.81,4,7.11l0,0h4.86v0a11.24,11.24,0,0,0,6.09-2.41h.05" transform="translate(-48.29 -238.8)"/><path class="cls-3" d="M858.48,717.41a6.43,6.43,0,0,1,.45-2.42,5.23,5.23,0,0,1,1.3-1.92,6.06,6.06,0,0,1,2-1.28,7.08,7.08,0,0,1,2.63-.47,7.26,7.26,0,0,1,2.65.47,6.2,6.2,0,0,1,2.05,1.28,5.33,5.33,0,0,1,1.29,1.92,6.43,6.43,0,0,1,.45,2.42,6.24,6.24,0,0,1-.45,2.39,5.47,5.47,0,0,1-1.29,1.91,6.16,6.16,0,0,1-2.05,1.26,7.71,7.71,0,0,1-2.65.45,7.51,7.51,0,0,1-2.63-.45,6,6,0,0,1-2-1.26,5.36,5.36,0,0,1-1.3-1.91,6.24,6.24,0,0,1-.45-2.39" transform="translate(-48.29 -238.8)"/><polygon class="cls-3" points="843.74 470.79 851.63 442.15 863.49 442.15 849.16 484.65 838.32 484.65 823.99 442.15 835.85 442.15 843.74 470.79"/><path class="cls-3" d="M927.22,681l.36,4.91a14.84,14.84,0,0,1,5.3-4.22,15.9,15.9,0,0,1,6.91-1.47,17,17,0,0,1,5.5.84,10.11,10.11,0,0,1,4.24,2.77,12.94,12.94,0,0,1,2.73,5,26.09,26.09,0,0,1,1,7.62v27H941.87v-27.1a10.76,10.76,0,0,0-.45-3.38,4.69,4.69,0,0,0-3.44-3.24,11.46,11.46,0,0,0-2.9-.33,8.06,8.06,0,0,0-4.3,1.1,8.43,8.43,0,0,0-2.89,3v30H916.54V681Z" transform="translate(-48.29 -238.8)"/></svg>