<?xml version="1.0" encoding="utf-8"?>
<!-- Generator: Adobe Illustrator 21.0.0, SVG Export Plug-In . SVG Version: 6.00 Build 0)  -->
<svg version="1.1" id="Layer_1" xmlns="http://www.w3.org/2000/svg" xmlns:xlink="http://www.w3.org/1999/xlink" x="0px" y="0px"
	 viewBox="0 0 280 44" style="enable-background:new 0 0 280 44;" xml:space="preserve">
<style type="text/css">
	.st0{fill:#236852;}
	.st1{fill:#72E8B2;}
	.st2{fill:#4BC999;}
	.st3{fill:#E8E8E8;}
	.st4{fill:#BABABA;}
	.st5{fill:#5EBD93;}
	.st6{fill-rule:evenodd;clip-rule:evenodd;fill:#5EBD93;}
	.st7{fill:#FFFFFF;}
</style>
<g>
	<path class="st7" d="M112.7,31.4h-0.2l0,0h-1.6h0h0c0,0,0,0,0,0c-0.3,0-1.2-0.1-2.1-0.9c0,0,0,0,0,0l-0.1-0.1c0,0,0,0,0,0l0,0
		L94.9,17l13.1-0.7l5.5,13.8C113.6,30.3,114.1,31.4,112.7,31.4"/>
	<path class="st7" d="M116.8,4C116.8,4,116.8,4,116.8,4l-0.1,0.1c0,0,0,0,0,0l0,0l-8.8,12.2L94.9,17l0,0l17.5-14.4c0,0,0,0,0,0
		c0.8-0.6,1.5-0.7,1.8-0.7c0,0,0,0,0,0h1.3l0,0c0,0,0,0,0,0h0.2c0,0,0,0,0,0c0,0,0,0,0,0C117.8,2,117.1,3.5,116.8,4"/>
	<path class="st2" d="M31.6,29c0.3,0.6,0.3,0.9-0.2,1l-6.1,1.3c-0.2,0-0.4,0.1-0.7,0.1c-0.4,0-0.8-0.2-1-0.7
		c-0.3-0.5-0.5-1.2-0.8-2.1c-1.2,1.1-2.3,1.9-3.5,2.4c-1.2,0.5-2.5,0.7-4.1,0.7c-1.5,0-2.9-0.2-4.1-0.7c-1.2-0.4-2.2-1.1-3-2
		c-0.5-0.5-0.8-1-1.1-1.5c-0.3-0.5-0.5-1.1-0.7-1.7C6.1,25.1,6,24.4,6,23.5c-0.1-0.9-0.1-2-0.1-3.3V3.5c0-0.4,0-0.7,0.1-0.8
		c0.1-0.1,0.3-0.2,0.7-0.3l7-1c0.5-0.1,0.8-0.1,0.9,0c0.1,0.1,0.2,0.4,0.2,0.8V21c0,1.5,0.2,2.6,0.6,3.2c0.4,0.7,1.1,1,2.2,1
		c1.5,0,2.9-0.6,4.2-1.8V3.4c0-0.4,0-0.7,0.1-0.8c0.1-0.1,0.3-0.2,0.7-0.3l6.9-1c0.5-0.1,0.9-0.1,1,0c0.1,0.1,0.1,0.4,0.1,0.9v20.9
		c0,1.5,0.1,2.6,0.3,3.5C31,27.5,31.2,28.3,31.6,29"/>
	<path class="st2" d="M57.8,22.4c0,1.5-0.3,2.8-0.8,4c-0.5,1.2-1.2,2.1-2.2,2.9c-0.9,0.8-2.1,1.4-3.3,1.8c-1.3,0.4-2.7,0.6-4.2,0.6
		c-2.2,0-4.3-0.3-6.2-0.8c-1.9-0.5-3.5-1.2-4.9-1.9c-0.4-0.2-0.6-0.4-0.6-0.6c0-0.2,0.1-0.5,0.2-0.9l1.4-4.7
		c0.1-0.3,0.2-0.5,0.4-0.5c0.2,0,0.5,0,0.7,0.2c0.6,0.3,1.2,0.6,2,0.9c0.7,0.3,1.5,0.6,2.2,0.8c0.7,0.3,1.5,0.5,2.2,0.6
		c0.7,0.2,1.3,0.2,1.9,0.2c0.9,0,1.6-0.2,2.1-0.5c0.5-0.4,0.7-0.9,0.7-1.7c0-0.8-0.3-1.3-1-1.7c-0.7-0.4-1.8-0.9-3.4-1.5
		c-1.6-0.7-2.9-1.2-3.9-1.7c-1-0.5-1.8-1.1-2.4-1.7c-0.6-0.6-1.1-1.4-1.5-2.3c-0.4-0.9-0.6-2-0.6-3.3c0-1.4,0.3-2.7,0.8-3.8
		c0.6-1.1,1.3-2.1,2.3-2.9c1-0.8,2.1-1.4,3.5-1.8c1.3-0.4,2.8-0.6,4.4-0.6c2,0,3.7,0.2,5.2,0.6c1.5,0.4,2.8,0.9,3.8,1.6
		C56.9,3.6,57,3.8,57,3.9c0,0.2-0.1,0.4-0.2,0.7L55.1,9c-0.1,0.3-0.2,0.5-0.4,0.5c-0.1,0-0.4,0-0.7-0.1c-1-0.4-2-0.8-3.1-1.2
		c-1.1-0.4-2.1-0.5-2.9-0.5c-0.9,0-1.7,0.2-2.3,0.5c-0.6,0.3-0.9,0.9-0.9,1.7c0,0.8,0.3,1.3,0.9,1.6c0.6,0.3,1.6,0.8,2.9,1.3
		c1.9,0.8,3.4,1.4,4.5,2c1.1,0.6,2,1.2,2.8,2C57.1,18.3,57.8,20.1,57.8,22.4"/>
	<path class="st7" d="M86.5,17.3c0,0.5-0.1,0.9-0.3,1c-0.2,0.1-0.5,0.2-1,0.2H69.5c0.1,2.2,0.6,3.9,1.5,4.9c0.9,1,2.2,1.5,4,1.5
		c1.4,0,2.7-0.2,3.8-0.5c1.1-0.3,2.2-0.8,3.3-1.4c0.6-0.3,1.1-0.2,1.4,0.3l2,3.9c0.3,0.5,0.2,0.9-0.1,1.2c-0.4,0.3-0.9,0.6-1.5,1
		c-1.6,0.8-3.2,1.4-4.8,1.8c-1.6,0.3-3,0.5-4.5,0.5c-4.5,0-7.9-1.3-10.2-3.9c-2.3-2.6-3.4-6.3-3.4-11.1c0-2.3,0.3-4.4,0.9-6.3
		c0.6-1.9,1.5-3.5,2.7-4.9c1.2-1.4,2.5-2.4,4.2-3.2c1.6-0.7,3.5-1.1,5.6-1.1c4.2,0,7.3,1.4,9.2,4.1C85.5,8,86.5,12,86.5,17.3
		 M76.8,8.2C76.2,7.4,75.3,7,74,7c-1.3,0-2.3,0.4-3,1.2c-0.6,0.8-1.1,2.3-1.4,4.4h8.2C77.8,10.5,77.4,9,76.8,8.2"/>
	<path class="st7" d="M146.2,16.1c0,5.1-0.9,9-2.8,11.6c-1.8,2.6-4.7,3.9-8.7,3.9c-1,0-1.9-0.1-2.7-0.3c-0.8-0.2-1.6-0.5-2.4-1v10.3
		c0,0.4,0,0.6-0.1,0.7c-0.1,0.1-0.3,0.2-0.6,0.3l-7.3,1.1c-0.3,0.1-0.6,0-0.7-0.1c-0.1-0.1-0.2-0.4-0.2-0.8V10.4
		c0-1.2-0.1-2.3-0.3-3.2c-0.2-0.9-0.5-1.8-0.8-2.7c-0.1-0.3-0.1-0.5-0.1-0.7c0.1-0.1,0.2-0.2,0.5-0.3l5.9-2.1
		c0.3-0.1,0.6-0.2,0.8-0.2c0.3,0,0.6,0.3,0.9,0.8c0.3,0.5,0.5,1.2,0.7,1.9c1.1-1,2.2-1.7,3.3-2.1c1.1-0.4,2.3-0.6,3.7-0.6
		c3.6,0,6.4,1.3,8.2,4C145.3,7.8,146.2,11.5,146.2,16.1 M137.5,16.4c0-3.1-0.4-5.3-1.1-6.6c-0.7-1.3-1.7-2-3-2
		c-0.7,0-1.3,0.1-1.9,0.4c-0.6,0.2-1.3,0.7-2,1.4v15.3c1.2,0.6,2.3,0.9,3.5,0.9c0.8,0,1.5-0.1,2-0.4c0.6-0.3,1-0.8,1.4-1.5
		c0.4-0.7,0.6-1.7,0.8-2.9C137.4,19.7,137.5,18.2,137.5,16.4"/>
	<path class="st7" d="M168,2.8c0.2,0.2,0.2,0.4,0.2,0.6c-0.1,0.2-0.2,0.4-0.2,0.6l-1.9,5.1c-0.2,0.5-0.5,0.7-0.9,0.5
		c-0.3-0.2-0.7-0.4-1.2-0.5c-0.4-0.2-0.9-0.3-1.6-0.3c-0.6,0-1.2,0.2-1.7,0.5c-0.5,0.3-1.2,0.9-2,1.8v18.7c0,0.5,0,0.7-0.1,0.8
		c-0.1,0.1-0.4,0.1-0.8,0.1h-7.1c-0.4,0-0.7,0-0.7-0.1c-0.1-0.1-0.1-0.3-0.1-0.8V12c0-1.7-0.2-3.1-0.5-4.5c-0.3-1.3-0.7-2.4-1-3.2
		c-0.1-0.3-0.2-0.6-0.3-0.9c-0.1-0.3,0.1-0.5,0.5-0.6l5.6-1.5c0.3-0.1,0.6-0.2,0.8-0.2c0.4,0,0.8,0.4,1.2,1.1
		c0.4,0.7,0.7,1.7,1.1,2.9c0.1-0.1,0.2-0.2,0.3-0.3c0.1-0.2,0.2-0.2,0.3-0.3c1.1-1.2,2.1-2,3-2.6c0.9-0.6,2-0.8,3.3-0.8
		c0.8,0,1.6,0.1,2.2,0.4C167.1,1.9,167.6,2.3,168,2.8"/>
	<path class="st7" d="M193.3,17.3c0,0.5-0.1,0.9-0.3,1c-0.2,0.1-0.5,0.2-1,0.2h-15.7c0.1,2.2,0.6,3.9,1.5,4.9c0.9,1,2.2,1.5,4,1.5
		c1.4,0,2.7-0.2,3.8-0.5c1.1-0.3,2.2-0.8,3.3-1.4c0.6-0.3,1.1-0.2,1.4,0.3l2,3.9c0.3,0.5,0.2,0.9-0.1,1.2c-0.4,0.3-0.9,0.6-1.5,1
		c-1.6,0.8-3.2,1.4-4.8,1.8c-1.6,0.3-3,0.5-4.5,0.5c-4.5,0-7.9-1.3-10.2-3.9c-2.3-2.6-3.4-6.3-3.4-11.1c0-2.3,0.3-4.4,0.9-6.3
		c0.6-1.9,1.5-3.5,2.7-4.9c1.2-1.4,2.5-2.4,4.2-3.2c1.6-0.7,3.5-1.1,5.6-1.1c4.2,0,7.3,1.4,9.2,4.1C192.3,8,193.3,12,193.3,17.3
		 M183.6,8.2C183,7.4,182.1,7,180.8,7c-1.3,0-2.3,0.4-3,1.2c-0.6,0.8-1.1,2.3-1.4,4.4h8.2C184.6,10.5,184.2,9,183.6,8.2"/>
	<path class="st7" d="M218.6,22.4c0,1.5-0.3,2.8-0.8,4c-0.5,1.2-1.2,2.1-2.2,2.9c-0.9,0.8-2.1,1.4-3.3,1.8c-1.3,0.4-2.7,0.6-4.2,0.6
		c-2.2,0-4.3-0.3-6.2-0.8c-1.9-0.5-3.5-1.2-4.9-1.9c-0.4-0.2-0.6-0.4-0.6-0.6c0-0.2,0.1-0.5,0.2-0.9l1.4-4.7
		c0.1-0.3,0.2-0.5,0.4-0.5c0.2,0,0.5,0,0.7,0.2c0.6,0.3,1.2,0.6,2,0.9c0.7,0.3,1.5,0.6,2.2,0.8c0.7,0.3,1.5,0.5,2.2,0.6
		c0.7,0.2,1.3,0.2,1.9,0.2c0.9,0,1.6-0.2,2.1-0.5c0.5-0.4,0.7-0.9,0.7-1.7c0-0.8-0.3-1.3-1-1.7c-0.7-0.4-1.8-0.9-3.4-1.5
		c-1.6-0.7-2.9-1.2-3.9-1.7c-1-0.5-1.8-1.1-2.4-1.7c-0.6-0.6-1.1-1.4-1.5-2.3c-0.4-0.9-0.6-2-0.6-3.3c0-1.4,0.3-2.7,0.8-3.8
		c0.6-1.1,1.3-2.1,2.3-2.9c1-0.8,2.1-1.4,3.5-1.8c1.3-0.4,2.8-0.6,4.4-0.6c2,0,3.7,0.2,5.2,0.6c1.5,0.4,2.8,0.9,3.8,1.6
		c0.3,0.2,0.5,0.4,0.5,0.5c0,0.2-0.1,0.4-0.2,0.7L215.9,9c-0.1,0.3-0.2,0.5-0.4,0.5c-0.1,0-0.4,0-0.7-0.1c-1-0.4-2-0.8-3.1-1.2
		c-1.1-0.4-2.1-0.5-2.9-0.5c-0.9,0-1.7,0.2-2.3,0.5c-0.6,0.3-0.9,0.9-0.9,1.7c0,0.8,0.3,1.3,0.9,1.6c0.6,0.3,1.6,0.8,2.9,1.3
		c1.9,0.8,3.4,1.4,4.5,2c1.1,0.6,2,1.2,2.8,2C218,18.3,218.6,20.1,218.6,22.4"/>
	<path class="st7" d="M243.2,22.4c0,1.5-0.3,2.8-0.8,4c-0.5,1.2-1.2,2.1-2.2,2.9c-0.9,0.8-2.1,1.4-3.3,1.8c-1.3,0.4-2.7,0.6-4.2,0.6
		c-2.2,0-4.3-0.3-6.2-0.8c-1.9-0.5-3.5-1.2-4.9-1.9c-0.4-0.2-0.6-0.4-0.6-0.6c0-0.2,0.1-0.5,0.2-0.9l1.4-4.7
		c0.1-0.3,0.2-0.5,0.4-0.5c0.2,0,0.5,0,0.7,0.2c0.6,0.3,1.2,0.6,2,0.9c0.7,0.3,1.5,0.6,2.2,0.8c0.7,0.3,1.5,0.5,2.2,0.6
		c0.7,0.2,1.3,0.2,1.9,0.2c0.9,0,1.6-0.2,2.1-0.5c0.5-0.4,0.7-0.9,0.7-1.7c0-0.8-0.3-1.3-1-1.7c-0.7-0.4-1.8-0.9-3.4-1.5
		c-1.6-0.7-2.9-1.2-3.9-1.7c-1-0.5-1.8-1.1-2.4-1.7c-0.6-0.6-1.1-1.4-1.5-2.3c-0.4-0.9-0.6-2-0.6-3.3c0-1.4,0.3-2.7,0.8-3.8
		c0.6-1.1,1.3-2.1,2.3-2.9c1-0.8,2.1-1.4,3.5-1.8c1.3-0.4,2.8-0.6,4.4-0.6c2,0,3.7,0.2,5.2,0.6c1.5,0.4,2.8,0.9,3.8,1.6
		c0.3,0.2,0.5,0.4,0.5,0.5c0,0.2-0.1,0.4-0.2,0.7L240.5,9c-0.1,0.3-0.2,0.5-0.4,0.5c-0.1,0-0.4,0-0.7-0.1c-1-0.4-2-0.8-3.1-1.2
		c-1.1-0.4-2.1-0.5-2.9-0.5c-0.9,0-1.7,0.2-2.3,0.5c-0.6,0.3-0.9,0.9-0.9,1.7c0,0.8,0.3,1.3,0.9,1.6c0.6,0.3,1.6,0.8,2.9,1.3
		c1.9,0.8,3.4,1.4,4.5,2c1.1,0.6,2,1.2,2.8,2C242.6,18.3,243.2,20.1,243.2,22.4"/>
	<path class="st1" d="M94.2,2.9L94.2,2.9C94.2,2.8,94.2,2.8,94.2,2.9L94.2,2.9C94.1,2.8,94.1,2.8,94.2,2.9c-1-0.9-1.9-1-2.2-1
		c0,0,0,0,0,0h0h0h-1.6l0,0h-0.2c-1.4,0.1-0.9,1.1-0.8,1.4l5.6,13.1l13,0L94.2,2.9z"/>
	<path class="st2" d="M90.5,30.7L108,16.3l0,0l-13,0l0,0l-8.8,12.9l0,0c0,0,0,0,0,0L86,29.3c0,0,0,0,0,0c-0.3,0.5-1,2,1.2,2.1
		c0,0,0,0,0,0c0,0,0,0,0,0h0.2c0,0,0,0,0,0l0,0h1.3c0,0,0,0,0,0C89,31.4,89.7,31.3,90.5,30.7C90.5,30.7,90.5,30.7,90.5,30.7"/>
	<path class="st2" d="M246,29.8c0-0.3,0-0.5,0.1-0.7c0.1-0.2,0.2-0.4,0.4-0.6c0.2-0.2,0.4-0.3,0.6-0.4c0.2-0.1,0.5-0.1,0.8-0.1
		c0.3,0,0.5,0,0.8,0.1c0.2,0.1,0.4,0.2,0.6,0.4c0.2,0.2,0.3,0.3,0.4,0.6c0.1,0.2,0.1,0.5,0.1,0.7c0,0.3,0,0.5-0.1,0.7
		c-0.1,0.2-0.2,0.4-0.4,0.6c-0.2,0.2-0.4,0.3-0.6,0.4c-0.2,0.1-0.5,0.1-0.8,0.1c-0.3,0-0.5,0-0.8-0.1c-0.2-0.1-0.4-0.2-0.6-0.4
		c-0.2-0.2-0.3-0.3-0.4-0.6C246.1,30.3,246,30.1,246,29.8"/>
	<polygon class="st2" points="256,27.5 258.3,19 261.9,19 257.6,31.6 254.4,31.6 250.1,19 253.7,19 	"/>
	<path class="st2" d="M266.4,19l0.1,1.5c0.4-0.5,1-1,1.6-1.3c0.6-0.3,1.3-0.4,2-0.4c0.6,0,1.1,0.1,1.6,0.3c0.5,0.2,0.9,0.4,1.3,0.8
		c0.4,0.4,0.6,0.9,0.8,1.5c0.2,0.6,0.3,1.4,0.3,2.3v8h-3.4v-8c0-0.4,0-0.7-0.1-1c-0.1-0.3-0.2-0.5-0.4-0.6c-0.2-0.2-0.4-0.3-0.6-0.3
		c-0.2-0.1-0.5-0.1-0.9-0.1c-0.5,0-0.9,0.1-1.3,0.3c-0.4,0.2-0.6,0.5-0.9,0.9v8.9h-3.4V19H266.4z"/>
</g>
</svg>
