<svg width="20" height="20" viewBox="0 0 20 20" fill="none" xmlns="http://www.w3.org/2000/svg">
<g clip-path="url(#clip0)">
<path d="M0.0187284 0.48208C0.101781 0.147997 0.441483 -0.0568237 0.77619 0.0274776L3.2765 0.651931C3.52004 0.713128 3.70363 0.912953 3.74234 1.15961L4.05894 3.16286L19.4517 5.00937C19.4636 5.01062 19.473 5.01936 19.4861 5.02186C19.5004 5.02435 19.5135 5.01998 19.5285 5.02373C19.5641 5.03247 19.591 5.05433 19.6222 5.06807C19.6578 5.08305 19.6909 5.09492 19.7221 5.11553C19.7658 5.1455 19.8014 5.18422 19.8358 5.22356C19.8539 5.24291 19.8764 5.25415 19.892 5.27539C19.8957 5.28038 19.8957 5.28663 19.8982 5.29162C19.9319 5.34408 19.9513 5.40277 19.9688 5.46272C19.975 5.48458 19.9875 5.50331 19.9913 5.52579C20.0037 5.60822 20.0037 5.69502 19.9825 5.78119L18.1067 13.2746L17.4822 15.7725C17.4772 15.7906 17.4666 15.8049 17.4603 15.8218C17.4503 15.8518 17.4372 15.8792 17.4222 15.9073C17.4016 15.9479 17.376 15.9854 17.3461 16.021C17.328 16.0422 17.3086 16.0634 17.288 16.0841C17.2499 16.1171 17.2099 16.1428 17.1668 16.1659C17.1444 16.179 17.1244 16.1927 17.1 16.2027C17.0301 16.2289 16.9552 16.2452 16.8771 16.2452H3.74984C3.40451 16.2452 3.12538 15.966 3.12538 15.6213C3.12538 15.276 3.40451 14.9963 3.74984 14.9963H16.3888L16.701 13.7473H4.99937C4.92256 13.7473 4.84825 13.7342 4.77956 13.708C4.75146 13.6968 4.72961 13.6787 4.704 13.6649C4.66529 13.6443 4.62532 13.6262 4.59223 13.5981C4.56787 13.5775 4.55164 13.5494 4.52853 13.5238C4.50231 13.4919 4.47295 13.4645 4.45235 13.4301C4.43549 13.397 4.42799 13.3596 4.41551 13.3227C4.40239 13.2896 4.38616 13.2584 4.37866 13.2241L4.37616 13.2109V13.2041L2.57149 1.76346L0.47333 1.23954C0.137374 1.15587 -0.0655729 0.816787 0.0187284 0.48208ZM17.0132 12.4978L18.5987 6.16523L16.6604 5.93294L15.7206 12.4978H17.0132ZM14.4592 12.4978L15.419 5.78431L13.4713 5.55077L13.156 12.4978H14.4592ZM10.5982 12.4978H11.9027L12.2262 5.4009L10.2804 5.16798L10.5982 12.4978ZM8.05232 12.4978H9.34682L9.0221 5.01686L7.08505 4.78519L8.05232 12.4978ZM5.54639 12.4978H6.79155L5.80741 4.63095L4.47545 4.47171L5.54639 12.4978ZM14.3768 17.4934C15.0662 17.4934 15.6269 18.053 15.6269 18.743C15.6269 19.433 15.0668 19.9913 14.3768 19.9913C13.6861 19.9913 13.1266 19.4324 13.1266 18.743C13.1266 18.0542 13.6861 17.4934 14.3768 17.4934ZM6.2489 17.4934C6.93892 17.4934 7.49906 18.053 7.49906 18.743C7.49906 19.433 6.93955 19.9913 6.2489 19.9913C5.5595 19.9913 4.99874 19.4324 4.99874 18.743C4.99999 18.0536 5.5595 17.4934 6.2489 17.4934Z" fill="#333333"/>
</g>
<defs>
<clipPath id="clip0">
<rect width="20" height="20" fill="white" transform="matrix(-1 0 0 1 20 0)"/>
</clipPath>
</defs>
</svg>
