<svg width="32" height="32" viewBox="0 0 32 32" fill="none" xmlns="http://www.w3.org/2000/svg">
<path d="M19.2324 29.1463C18.9685 29.2121 18.6995 29.2705 18.4325 29.3197C17.7344 29.4495 17.2729 30.1208 17.402 30.8195C17.4658 31.1633 17.661 31.4496 17.926 31.6364C18.1992 31.8287 18.5469 31.9155 18.9011 31.8496C19.2191 31.7906 19.5396 31.7212 19.8541 31.6427C20.5434 31.4712 20.9634 30.7728 20.7914 30.0838C20.6198 29.3942 19.9221 28.9746 19.2324 29.1463Z" fill="white"/>
<path d="M28.7455 11.9035C28.8356 12.1751 29.0076 12.3968 29.2249 12.55C29.5471 12.7769 29.9687 12.8533 30.3711 12.7202C31.0456 12.4963 31.4111 11.7689 31.1879 11.0947C31.0863 10.7874 30.9734 10.4791 30.8533 10.1789C30.5894 9.51921 29.8411 9.19804 29.1811 9.46191C28.5218 9.72564 28.2005 10.4741 28.4645 11.134C28.5655 11.3863 28.6601 11.6453 28.7455 11.9035Z" fill="white"/>
<path d="M23.4126 27.3096C23.1857 27.4594 22.9514 27.6044 22.7155 27.7403C22.0999 28.0954 21.8891 28.8822 22.244 29.4975C22.3404 29.6649 22.4688 29.8017 22.6166 29.9063C23.0134 30.1855 23.5524 30.2273 24.0011 29.9688C24.2816 29.807 24.5605 29.6349 24.8308 29.4562C25.4233 29.0647 25.5864 28.2666 25.1947 27.6738C24.8031 27.0808 24.0053 26.9179 23.4126 27.3096Z" fill="white"/>
<path d="M31.9878 15.4964C31.9598 14.7864 31.3617 14.2338 30.6515 14.2615C29.9422 14.2895 29.3891 14.8877 29.417 15.5975C29.4277 15.8689 29.4304 16.1443 29.4241 16.4154C29.4142 16.8606 29.632 17.2575 29.9704 17.4961C30.172 17.6381 30.4167 17.724 30.682 17.73C31.392 17.7458 31.9804 17.1826 31.9962 16.4723C32.0032 16.1483 32.0006 15.8202 31.9878 15.4964Z" fill="white"/>
<path d="M28.5355 23.9255C27.9662 23.4983 27.1607 23.6143 26.7343 24.1826C26.571 24.4002 26.399 24.6152 26.2229 24.8222C25.7627 25.3629 25.8277 26.175 26.3684 26.6355C26.3992 26.6616 26.4304 26.6856 26.4627 26.7082C27.0002 27.0872 27.7472 27.0001 28.1818 26.4901C28.3921 26.2431 28.5971 25.9864 28.7922 25.7264C29.2187 25.1581 29.1033 24.352 28.5355 23.9255Z" fill="white"/>
<path d="M30.4265 19.2752C29.7486 19.0627 29.0267 19.44 28.8142 20.1179C28.7329 20.3769 28.6428 20.6371 28.5456 20.892C28.332 21.453 28.5366 22.0703 29.0058 22.4011C29.0918 22.4616 29.1866 22.5128 29.2896 22.5518C29.9533 22.805 30.6966 22.472 30.9496 21.808C31.0651 21.505 31.1722 21.1954 31.2691 20.8875C31.4814 20.2095 31.1043 19.4878 30.4265 19.2752Z" fill="white"/>
<path d="M13.6199 29.3312C12.4698 29.1247 11.3665 28.7731 10.3203 28.2826C10.3079 28.2761 10.2968 28.2688 10.2838 28.2629C10.0373 28.1468 9.79117 28.0225 9.55262 27.8927C9.55179 27.8917 9.55028 27.8911 9.54897 27.8905C9.11127 27.6495 8.6841 27.3828 8.26911 27.0907C2.21772 22.8279 0.762722 14.4366 5.02577 8.38531C5.95275 7.06995 7.07454 5.97258 8.32517 5.10283C8.34058 5.0921 8.35599 5.08144 8.37126 5.07064C12.7783 2.03408 18.7623 1.82944 23.4419 4.94978L22.4368 6.40196C22.1574 6.80615 22.3293 7.1007 22.8185 7.05668L27.1842 6.66582C27.674 6.6218 27.9669 6.19814 27.8351 5.72515L26.6628 1.50118C26.5315 1.02765 26.1955 0.970967 25.9158 1.37509L24.9084 2.83071C21.4743 0.525429 17.3553 -0.353608 13.2671 0.355317C12.8553 0.426581 12.4493 0.513804 12.0489 0.615334C12.0458 0.615885 12.0434 0.616229 12.0409 0.616779C12.0254 0.620562 12.0097 0.625584 11.9946 0.62978C8.46928 1.53509 5.39344 3.59122 3.19863 6.52488C3.18013 6.54682 3.16107 6.56828 3.1436 6.59215C3.07062 6.69045 2.99818 6.79102 2.92726 6.89159C2.81129 7.0564 2.69696 7.22534 2.58759 7.39429C2.5739 7.41465 2.56345 7.43535 2.55148 7.45592C0.740297 10.2625 -0.133306 13.5072 0.0165135 16.8106C0.0168574 16.8214 0.0162383 16.8324 0.0165135 16.8435C0.0310277 17.1662 0.0566167 17.4933 0.0913545 17.8154C0.0932117 17.8362 0.0978205 17.8559 0.101329 17.8766C0.137236 18.2005 0.182292 18.5251 0.238766 18.8496C0.812731 22.1609 2.37476 25.1406 4.7154 27.4591C4.72083 27.4645 4.72647 27.4704 4.73198 27.4761C4.7339 27.4782 4.73604 27.4793 4.73789 27.4813C5.36675 28.1016 6.05077 28.6753 6.78728 29.194C8.71471 30.5521 10.861 31.4499 13.1659 31.8635C13.8653 31.9892 14.5333 31.5236 14.6588 30.8246C14.7842 30.1251 14.3191 29.4565 13.6199 29.3312Z" fill="white"/>
<path d="M15.2106 5.72302C14.6353 5.72302 14.1694 6.1894 14.1694 6.76385V17.1334L23.6531 22.0359C23.8058 22.115 23.9692 22.1522 24.13 22.1522C24.5067 22.1522 24.8705 21.9471 25.0555 21.5892C25.3193 21.0783 25.1197 20.4508 24.6089 20.187L16.2507 15.8659V6.76385C16.2506 6.1894 15.7852 5.72302 15.2106 5.72302Z" fill="white"/>
</svg>
