<svg id="Capa_1" data-name="Capa 1" xmlns="http://www.w3.org/2000/svg" viewBox="0 0 612 590.97"><defs><style>.cls-1{fill:#226852;}.cls-2{fill:#dba510;}.cls-3{font-size:57.89px;fill:#fff;font-family:Montserrat-ExtraBold, Montserrat;font-weight:800;}</style></defs><title>logistics-delivery-truck-and-clock</title><path class="cls-1" d="M391.9,259.86a33.19,33.19,0,0,0-6.64-16.34l24.53-152.2A10.91,10.91,0,0,0,401.48,79l-.27-.06a10.91,10.91,0,0,0-12.89,7.46L343.65,233.91a33.46,33.46,0,0,0,24.86,62l93.34,48.5a11.22,11.22,0,0,0,14.6-3.85l.14-.22a11.22,11.22,0,0,0-2.42-14.91Zm-49.88,4a16.63,16.63,0,1,1,16.62,16.63A16.64,16.64,0,0,1,342,263.87Zm270,0C612,376.53,538.07,472.2,436.19,505V469c82.75-31.39,141.75-111.46,141.75-205.09,0-120.92-98.38-219.3-219.3-219.3S139.34,143,139.34,263.87a220.16,220.16,0,0,0,2.94,35.62H107.84a255.27,255.27,0,0,1-2.55-35.62c0-139.7,113.65-253.36,253.35-253.36S612,124.17,612,263.87Z" transform="translate(0 -10.51)"/><path class="cls-2" d="M402.81,444.4l-78-77.14a26.28,26.28,0,0,0-18.56-7.66H266.92V344.87A19.87,19.87,0,0,0,247,325H19.84A19.8,19.8,0,0,0,0,344.87V477.69H410.64V463.21A26.42,26.42,0,0,0,402.81,444.4Zm-34,2.55H293.32a3,3,0,0,1-3.07-3.06V385.57a3.05,3.05,0,0,1,3.07-3.07h14.39a3.6,3.6,0,0,1,2.21.85L371,441.67A3.05,3.05,0,0,1,368.84,447Zm41.81,41.71V532.6a19.85,19.85,0,0,1-19.85,19.85H369.57a54.46,54.46,0,0,0-107.78,0H154.15a54.42,54.42,0,0,0-107.71,0H19.85A19.85,19.85,0,0,1,0,532.6V488.66Zm-94.94,30.49a41.17,41.17,0,1,0,41.12,41.12A41.17,41.17,0,0,0,315.71,519.15Zm0,61.73a20.61,20.61,0,1,1,20.52-20.6A20.56,20.56,0,0,1,315.71,580.88ZM100.3,519.15a41.17,41.17,0,1,0,41.12,41.12A41.17,41.17,0,0,0,100.3,519.15Zm0,61.73a20.61,20.61,0,1,1,20.6-20.6A20.56,20.56,0,0,1,100.3,580.88Z" transform="translate(0 -10.51)"/><text class="cls-3" transform="translate(52.65 410.83)">FREE</text></svg>