<svg id="Layer_1" data-name="Layer 1" xmlns="http://www.w3.org/2000/svg" viewBox="0 0 146 146"><defs><style>.cls-1{fill:#4294b2;}.cls-2{fill:#fefefe;}.cls-3{fill:#fdfefd;}.cls-4{fill:#fdfefe;}.cls-5{fill:#fdfdfd;}.cls-6{fill:#fcfdfd;}.cls-7{fill:#4496b3;}.cls-8{fill:#4295b2;}</style></defs><title>NR</title><circle class="cls-1" cx="73" cy="73" r="73"/><path class="cls-2" d="M123,137.25c0,1.32,0,2.58,0,3.83,0,.37-.15.51-.49.58a9.27,9.27,0,0,1-4.93-.11,4,4,0,0,1-2.61-3.35,2,2,0,0,0-.27-1l-1.12,1.36a11.82,11.82,0,0,1-7.92,4.21,17.9,17.9,0,0,1-6.6-.37,9.32,9.32,0,0,1-7.34-9.95c.2-4.48,2.3-7.26,6.56-8.71a43.11,43.11,0,0,1,9.28-1.71,39.37,39.37,0,0,0,4.59-.68,2.56,2.56,0,0,0,2.19-2.3c.29-2.35.13-4.57-1.93-6.19a6,6,0,0,0-2.47-1.08,15.2,15.2,0,0,0-6-.15c-3.71.69-5.67,2.87-5.93,6.62,0,.65-.21.85-.85.82-1.11,0-2.23,0-3.33,0-.66,0-.77-.22-.72-.81.47-5.8,3.67-9.49,9.37-10.7a21,21,0,0,1,9.3.12c4.76,1.14,7.5,4.68,7.56,9.85,0,4.56,0,9.12,0,13.68V135c0,2.44.91,3.08,3.26,2.32A2.4,2.4,0,0,1,123,137.25Z" transform="translate(-57.5 -45)"/><path class="cls-2" d="M163.1,123.34c1.57-1.39,3.12-2.74,4.67-4.1q6.06-5.33,12.11-10.65a2,2,0,0,1,1.49-.54c1.83,0,3.66,0,5.57.21l-3.51,3.08c-3.37,2.94-6.72,5.89-10.11,8.8-.58.49-.61.79-.17,1.39q7.07,9.75,14.09,19.54c.16.23.52.44.37.73s-.53.12-.81.12c-1.46,0-2.92,0-4.38,0a1.15,1.15,0,0,1-1.08-.56q-5.88-8.19-11.79-16.34c-.66-.91-.65-.91-1.53-.16-1.47,1.25-2.94,2.49-4.44,3.7a1.54,1.54,0,0,0-.64,1.33c0,3.71,0,7.42,0,11.13,0,.67-.15.94-.87.9a27.59,27.59,0,0,0-3.15,0c-.77.05-.91-.25-.9-.95,0-2.51,0-5,0-7.53q0-19.59,0-39.19c0-.79.18-1.08,1-1a22.8,22.8,0,0,0,3,0c.72,0,.95.17.95.91,0,3.92,0,7.83,0,11.75v16.39A1.78,1.78,0,0,0,163.1,123.34Z" transform="translate(-57.5 -45)"/><path class="cls-2" d="M151.32,119.25a5.34,5.34,0,0,1-2.16-.06c-.64-.3-.52-1.28-.75-2-2-5.83-7.38-6.72-11.75-5.34-3.41,1.07-5.48,3.63-6.62,6.88a17,17,0,0,0,1.2,14.86,9.73,9.73,0,0,0,13.38,3.63,9.62,9.62,0,0,0,4.46-7.38c.08-.58.27-.72.81-.71,1.2,0,2.39,0,3.59,0,.4,0,.6.1.53.55-.8,5-2.84,9.3-7.62,11.69a15.3,15.3,0,0,1-18.92-4.81c-4.7-6.54-4.56-17.39.36-23.73,3.54-4.56,8.33-6.17,13.94-5.71a13,13,0,0,1,8.08,3.4,12.72,12.72,0,0,1,3.87,8.12c.06.5-.11.62-.56.61-.61,0-1.23,0-1.84,0Z" transform="translate(-57.5 -45)"/><path class="cls-2" d="M77.94,114a22.9,22.9,0,0,1,3.16-3.55,12.77,12.77,0,0,1,8.78-2.89c.54,0,.62.26.61.7,0,1.17,0,2.34,0,3.51,0,.58-.18.74-.76.71A10.55,10.55,0,0,0,83,114.35a10.9,10.9,0,0,0-4.73,9.3c-.06,5.75,0,11.51,0,17.27,0,.78-.16,1.08-1,1a27.58,27.58,0,0,0-3.15,0c-.63,0-.79-.21-.78-.81,0-1.92,0-3.85,0-5.78,0-8.77,0-17.53,0-26.29,0-.82.22-1.07,1-1a27.86,27.86,0,0,0,2.89,0c.54,0,.69.19.68.71C77.93,110.51,77.94,112.27,77.94,114Z" transform="translate(-57.5 -45)"/><path class="cls-3" d="M148.34,102.76l-2.86-6.36h-.19c0,.72-.13,1.44-.16,2.17,0,1.14-.07,2.27-.1,3.41,0,.32-.05.57-.48.56s-.4-.3-.38-.6q.22-4,.46-8c0-.29-.1-.68.4-.74s.55.22.68.53l2.53,5.58.43.87c.73-1.74,1.39-3.33,2.05-4.92.23-.56.47-1.13.69-1.7a.54.54,0,0,1,.62-.36c.33,0,.32.3.33.53.15,2.74.29,5.48.46,8.21,0,.53-.25.56-.64.55s-.74,0-.75-.56a47.82,47.82,0,0,0-.18-5.08,1,1,0,0,0-.19-.54C150.18,98.44,149.29,100.51,148.34,102.76Z" transform="translate(-57.5 -45)"/><path class="cls-4" d="M101.21,97.93c0-1.34,0-2.68,0-4,0-.42.06-.68.55-.66,1.14,0,2.28,0,3.41.07a3.42,3.42,0,0,1,3.35,3.12,6.6,6.6,0,0,1-.15,3.21,4,4,0,0,1-3.59,2.86c-1,.06-2,0-3,0-.55,0-.61-.24-.6-.69,0-1.32,0-2.63,0-3.94Z" transform="translate(-57.5 -45)"/><path class="cls-5" d="M137.55,102.71c-2.57,0-4.35-2-4.35-4.79s1.76-4.8,4.33-4.81,4.35,2,4.35,4.79S140.12,102.7,137.55,102.71Z" transform="translate(-57.5 -45)"/><path class="cls-5" d="M82.27,97.4a4.22,4.22,0,0,1,2.27-3.79,4.28,4.28,0,0,1,4.49.23c1.66,1.06,2.32,3.63,1.57,5.93a4.2,4.2,0,0,1-6.67,2C82.67,100.81,82.26,99.41,82.27,97.4Z" transform="translate(-57.5 -45)"/><path class="cls-3" d="M79,100.07c0-2.18,0-4.1,0-6,0-.34-.24-.8.44-.79s.43.44.43.75c0,2.63-.07,5.25-.12,7.88,0,.23.14.56-.24.65s-.52-.14-.7-.4c-1.29-1.87-2.6-3.73-3.91-5.59-.13-.19-.28-.37-.49-.64a3.73,3.73,0,0,0-.11,1.42c0,1.52,0,3,0,4.55,0,.37.08.7-.48.69s-.45-.35-.44-.66c.07-2.68.17-5.36.11-8.05,0-.22-.08-.5.25-.57s.53.15.7.4l2.74,3.95C77.72,98.38,78.27,99.13,79,100.07Z" transform="translate(-57.5 -45)"/><path class="cls-5" d="M98.87,102.45a1.37,1.37,0,0,1-1.92-.83c-.63-1.4-1.42-2.73-2.17-4.15.35,0,.61,0,.86-.07,1.06-.16,1.51-.76,1.45-1.92a1.57,1.57,0,0,0-1.66-1.65c-.64,0-1,.13-.94.86.05,2.34,0,4.68.07,7,0,.52,0,.89-.68.87s-.62-.41-.6-.86c.1-2.57.15-5.14,0-7.71,0-.59.12-.79.71-.76s1.46,0,2.19,0a2,2,0,0,1,2.12,1.61,2.25,2.25,0,0,1-1.2,2.65c-.69.32-.66.6-.33,1.15C97.49,99.92,98.16,101.17,98.87,102.45Z" transform="translate(-57.5 -45)"/><path class="cls-4" d="M127.37,101.91c0,.65-.37.64-.84.65-.64,0-.51-.43-.5-.79a75.16,75.16,0,0,0,0-7.8c0-.51.09-.76.65-.72.73,0,1.47,0,2.19,0a2.11,2.11,0,0,1,2.18,1.56,2.23,2.23,0,0,1-1.23,2.72c-.72.33-.6.63-.3,1.15.71,1.22,1.39,2.47,2.1,3.74a1.37,1.37,0,0,1-1.93-.83,30.86,30.86,0,0,0-2.16-4c-.1-.58.38-.54.71-.65a1.38,1.38,0,0,0,1-1.89.91.91,0,0,0-1-.62c-.42,0-.58.35-.61.73a39,39,0,0,0-.39,6.39A3.38,3.38,0,0,0,127.37,101.91Z" transform="translate(-57.5 -45)"/><path class="cls-5" d="M115.3,94.39a2.91,2.91,0,0,0-2.18-.66,1.43,1.43,0,0,0-1.29,1,1.25,1.25,0,0,0,.56,1.45c.69.49,1.43.9,2.11,1.4a2.66,2.66,0,0,1,1.14,3.2,2.84,2.84,0,0,1-2.84,1.9c-.38,0-.76,0-1.13,0-.69-.06-1-.37-.72-1.09a13.76,13.76,0,0,0,1.3.49,1.82,1.82,0,0,0,2.27-.81,1.91,1.91,0,0,0-.74-2.38c-.61-.45-1.31-.78-1.91-1.23a2.4,2.4,0,0,1,.3-4.26A4.39,4.39,0,0,1,115,93.3C115.6,93.44,115.36,93.91,115.3,94.39Z" transform="translate(-57.5 -45)"/><path class="cls-6" d="M121.43,98.29c0,1.14,0,2.28,0,3.42,0,.52,0,.87-.7.87s-.75-.27-.73-.84c.06-2.22.09-4.43.1-6.65,0-1.26,0-1.26-1.3-1.12-.17,0-.34.07-.51.08s-.54.17-.57-.28.13-.52.5-.52c1.35,0,2.69,0,4,0h1c.39,0,.41.24.4.52s-.27.3-.5.28c-1.82-.12-1.83-.12-1.84,1.69,0,.85,0,1.7,0,2.54Z" transform="translate(-57.5 -45)"/><path class="cls-7" d="M127.37,101.91a21.24,21.24,0,0,1-.13-3.74c0-1.23,0-2.45,0-3.68,0-.3,0-.55.41-.64a1.82,1.82,0,1,1,.77,3.56c-.3.06-.65-.12-.89.2A29.4,29.4,0,0,0,127.37,101.91Z" transform="translate(-57.5 -45)"/><path class="cls-1" d="M114.44,124.51c-.13,2.7.41,5.4-.69,7.93-1.62,3.71-4.67,5.44-8.52,6a8,8,0,0,1-6.88-1.77c-2.27-2-3-7,1.42-8.92A27.85,27.85,0,0,1,106.9,126,34.79,34.79,0,0,0,114.44,124.51Z" transform="translate(-57.5 -45)"/><path class="cls-8" d="M102.53,97.82c0-1.08,0-2.16,0-3.24,0-.53.2-.68.71-.72,3.56-.28,4.36,2.31,3.91,5.15-.34,2.14-1.65,3.08-3.82,3-.55,0-.79-.19-.78-.76,0-1.14,0-2.28,0-3.41Z" transform="translate(-57.5 -45)"/><path class="cls-1" d="M140.42,97.86a6,6,0,0,1-.64,3,2.48,2.48,0,0,1-2.35,1.25,2.33,2.33,0,0,1-2.18-1.37,6.55,6.55,0,0,1,0-5.67,2.34,2.34,0,0,1,2.24-1.41,2.5,2.5,0,0,1,2.37,1.36A5.74,5.74,0,0,1,140.42,97.86Z" transform="translate(-57.5 -45)"/><path class="cls-1" d="M83.7,98.09a6.17,6.17,0,0,1,.53-2.93,2.49,2.49,0,0,1,2.4-1.46,2.39,2.39,0,0,1,2.3,1.47,6.59,6.59,0,0,1,0,5.59,2.35,2.35,0,0,1-2.26,1.39,2.48,2.48,0,0,1-2.36-1.38A5.46,5.46,0,0,1,83.7,98.09Z" transform="translate(-57.5 -45)"/></svg>