<svg width="32" height="32" viewBox="0 0 32 32" fill="none" xmlns="http://www.w3.org/2000/svg">
<path d="M13.487 17.5724C13.487 18.4799 12.7514 19.2155 11.8439 19.2155C10.9365 19.2155 10.2009 18.4799 10.2009 17.5724C10.2009 16.665 10.9365 15.9294 11.8439 15.9294C12.7514 15.9295 13.487 16.6651 13.487 17.5724ZM20.1561 15.9295C19.2487 15.9295 18.513 16.665 18.513 17.5725C18.513 18.4799 19.2487 19.2155 20.1561 19.2155C21.0635 19.2155 21.7992 18.4799 21.7992 17.5725C21.7991 16.6651 21.0635 15.9295 20.1561 15.9295ZM32 16.6566V19.7792C32 21.3469 30.7291 22.6177 29.1614 22.6177H27.1016C25.0605 28.2848 19.8486 31.7078 16 31.7078C12.1514 31.7078 6.93945 28.2848 4.89841 22.6177H2.83859C1.27085 22.6177 0 21.3469 0 19.7791V16.6566C0 15.5778 0.601882 14.6397 1.4881 14.1594C1.51786 9.72622 2.80993 6.26389 5.33401 3.87033C7.83765 1.49616 11.4262 0.292236 16 0.292236C20.5738 0.292236 24.1624 1.49616 26.666 3.87027C29.19 6.26384 30.482 9.72622 30.5119 14.1594C31.3981 14.6397 32 15.5778 32 16.6566ZM25.9921 17.5828C25.9921 16.8524 25.9547 16.1662 25.8995 15.5012C24.6397 14.3486 22.3527 13.474 19.4664 13.1491C19.8454 13.5752 20.1728 14.1358 20.3713 14.8737C18.6033 13.4809 15.1331 13.8124 12.5082 10.6956C12.3577 10.5216 12.2276 10.3552 12.115 10.2032C12.1137 10.2014 12.1123 10.2 12.111 10.1982L12.1113 10.1983C11.6443 9.56679 11.4851 9.19116 11.4762 9.60695C11.3992 13.1893 8.86003 15.9821 6.04047 16.3761C6.02264 16.7701 6.00805 17.1679 6.00805 17.5829C6.00805 19.0971 6.25532 20.4771 6.67571 21.7208C8.2595 23.6312 10.875 24.1707 13.19 24.3137C13.6198 23.63 14.584 23.1527 15.7069 23.1527C17.2294 23.1527 18.4635 24.0287 18.4635 25.1095C18.4635 26.1902 17.2293 27.0662 15.7069 27.0662C14.5358 27.0662 13.5379 26.547 13.1385 25.8159C11.5205 25.7218 9.74191 25.446 8.15671 24.6974C10.3859 27.9833 13.8418 29.7208 16 29.7208C19.3913 29.7208 25.9921 25.4366 25.9921 17.5828ZM28.8029 13.818C28.6222 6.08204 24.2066 1.99545 16 1.99545C7.79341 1.99545 3.37783 6.08204 3.19712 13.818H4.28925C4.68858 11.2106 5.53255 9.06624 6.81396 7.41741C8.85595 4.79006 11.9466 3.45783 16 3.45783C20.0534 3.45783 23.1441 4.79006 25.1861 7.41741C26.4675 9.06619 27.3115 11.2106 27.7108 13.818H28.8029Z" fill="#F3FFFB"/>
</svg>
