<svg width="16" height="16" viewBox="0 0 16 16" fill="none" xmlns="http://www.w3.org/2000/svg">
<path d="M8 16C12.4183 16 16 12.4183 16 8C16 3.58172 12.4183 0 8 0C3.58172 0 0 3.58172 0 8C0 12.4183 3.58172 16 8 16Z" fill="#4294B2"/>
<path d="M7.17815 10.1096C7.17815 10.2543 7.17815 10.3924 7.17815 10.5294C7.17815 10.5699 7.16171 10.5852 7.12445 10.5929C6.94657 10.6377 6.75987 10.6336 6.58417 10.5809C6.50684 10.5527 6.439 10.5033 6.38842 10.4384C6.33783 10.3735 6.30655 10.2956 6.29815 10.2137C6.29808 10.1752 6.28787 10.1374 6.26856 10.1041L6.14582 10.2532C5.92836 10.515 5.61657 10.6808 5.27787 10.7146C5.03635 10.7461 4.79107 10.7323 4.55458 10.674C4.31041 10.622 4.09375 10.4823 3.94554 10.2814C3.79733 10.0805 3.72784 9.83225 3.7502 9.5836C3.77212 9.09264 4.00225 8.78798 4.4691 8.62908C4.80022 8.52959 5.14126 8.46674 5.48609 8.44168C5.65508 8.42675 5.82305 8.40187 5.98911 8.36716C6.05164 8.3583 6.10936 8.32859 6.15291 8.28285C6.19647 8.2371 6.22332 8.178 6.2291 8.1151C6.26089 7.85757 6.24335 7.61428 6.0176 7.43675C5.93752 7.37727 5.84495 7.3368 5.74691 7.31839C5.53101 7.26926 5.30747 7.26367 5.08938 7.30195C4.6828 7.37757 4.46801 7.61647 4.43952 8.02743C4.43952 8.09867 4.4165 8.12058 4.34637 8.1173C4.22472 8.1173 4.10198 8.1173 3.98143 8.1173C3.9091 8.1173 3.89705 8.09319 3.90253 8.02853C3.95404 7.39291 4.30472 6.98853 4.92938 6.85592C5.26582 6.78408 5.61408 6.78857 5.94856 6.86908C6.4702 6.99401 6.77048 7.38195 6.77705 7.94853C6.77705 8.44826 6.77705 8.94798 6.77705 9.44771V9.86305C6.77705 10.1304 6.87678 10.2006 7.13431 10.1173C7.14868 10.1135 7.16334 10.1109 7.17815 10.1096Z" fill="#FEFEFE"/>
<path d="M11.5726 8.58519C11.7446 8.43286 11.9145 8.28492 12.0844 8.13588C12.5271 7.74647 12.9695 7.35743 13.4115 6.96875C13.4332 6.94829 13.4589 6.93248 13.487 6.9223C13.5151 6.91213 13.545 6.9078 13.5748 6.90958C13.7753 6.90958 13.9759 6.90958 14.1852 6.93259L13.8005 7.27012C13.4312 7.59232 13.0641 7.9156 12.6926 8.23451C12.629 8.28821 12.6257 8.32108 12.6739 8.38684C13.1905 9.09917 13.7052 9.81296 14.2181 10.5282C14.2356 10.5534 14.275 10.5764 14.2586 10.6082C14.2422 10.64 14.2005 10.6214 14.1698 10.6214C14.0098 10.6214 13.8498 10.6214 13.6898 10.6214C13.6663 10.6232 13.6428 10.6185 13.6219 10.6076C13.601 10.5968 13.5835 10.5803 13.5715 10.56C13.1419 9.96163 12.7112 9.36474 12.2794 8.7693C12.2071 8.66958 12.2082 8.66958 12.1118 8.75177C11.9507 8.88876 11.7896 9.02465 11.6252 9.15725C11.6022 9.17373 11.5838 9.19571 11.5715 9.22117C11.5593 9.24664 11.5536 9.27478 11.555 9.303C11.555 9.70958 11.555 10.1162 11.555 10.5227C11.555 10.5962 11.5386 10.6257 11.4597 10.6214C11.3447 10.6148 11.2295 10.6148 11.1145 10.6214C11.0301 10.6268 11.0148 10.594 11.0159 10.5172C11.0159 10.2422 11.0159 9.9693 11.0159 9.69204C11.0159 8.26081 11.0159 6.82921 11.0159 5.39725C11.0159 5.31067 11.0356 5.27889 11.1255 5.28766C11.2349 5.29488 11.3447 5.29488 11.4542 5.28766C11.5331 5.28766 11.5583 5.30629 11.5583 5.38739C11.5583 5.81697 11.5583 6.24547 11.5583 6.67506V8.47122C11.5515 8.50978 11.5565 8.54949 11.5726 8.58519Z" fill="#FEFEFE"/>
<path d="M10.2816 8.13691C10.2031 8.15087 10.1226 8.14863 10.0449 8.13033C9.97479 8.09745 9.98794 7.99006 9.96273 7.91115C9.74355 7.27225 9.15396 7.17471 8.67506 7.32595C8.30136 7.44321 8.07451 7.72375 7.94958 8.07992C7.84633 8.34351 7.80451 8.62717 7.8273 8.90935C7.85008 9.19153 7.93688 9.4648 8.08109 9.70841C8.15047 9.8316 8.24365 9.93976 8.35522 10.0266C8.46679 10.1134 8.59452 10.1772 8.73097 10.2142C8.86742 10.2513 9.00987 10.2608 9.15003 10.2422C9.29019 10.2237 9.42526 10.1775 9.54739 10.1062C9.68617 10.0187 9.80261 9.90007 9.88746 9.75967C9.97232 9.61926 10.0232 9.46099 10.0362 9.29745C10.0449 9.23389 10.0657 9.21855 10.1249 9.21965C10.2564 9.21965 10.3868 9.21965 10.5183 9.21965C10.5622 9.21965 10.5841 9.2306 10.5764 9.27992C10.4888 9.82786 10.2652 10.2991 9.74136 10.561C9.38846 10.7284 8.9882 10.7673 8.60966 10.6711C8.23111 10.5749 7.89804 10.3495 7.66794 10.0339C7.15287 9.31718 7.16821 8.12814 7.70739 7.43334C8.09533 6.93362 8.62027 6.75718 9.23506 6.80759C9.56446 6.82553 9.87742 6.95722 10.1205 7.18019C10.3656 7.41526 10.5164 7.73168 10.5446 8.07006C10.5512 8.12485 10.5326 8.138 10.4833 8.13691C10.4164 8.13691 10.3485 8.13691 10.2816 8.13691Z" fill="#FEFEFE"/>
<path d="M2.23994 7.56167C2.34156 7.42033 2.45762 7.28995 2.58624 7.17263C2.85617 6.95062 3.1994 6.83764 3.54843 6.85592C3.60761 6.85592 3.61637 6.88442 3.61528 6.93263C3.61528 7.06085 3.61528 7.18907 3.61528 7.31729C3.61528 7.38085 3.59555 7.39839 3.53199 7.3951C3.27001 7.37768 3.0099 7.44996 2.79446 7.60003C2.62973 7.71302 2.49597 7.86552 2.40541 8.04357C2.31485 8.22162 2.27039 8.41953 2.2761 8.61921C2.26953 9.24934 2.2761 9.88058 2.2761 10.5118C2.2761 10.5973 2.25857 10.6302 2.16651 10.6214C2.05154 10.6148 1.93628 10.6148 1.82131 10.6214C1.75227 10.6214 1.73473 10.5984 1.73583 10.5326C1.73583 10.3222 1.73583 10.1107 1.73583 9.89921C1.73583 8.93811 1.73583 7.97811 1.73583 7.01811C1.73583 6.92825 1.75994 6.90085 1.84542 6.90852C1.95092 6.914 2.05663 6.914 2.16213 6.90852C2.22131 6.90852 2.23774 6.92935 2.23665 6.98633C2.23884 7.17921 2.23994 7.37209 2.23994 7.56167Z" fill="#FEFEFE"/>
<path d="M9.95505 6.32986L9.64163 5.63287H9.62081C9.62081 5.71177 9.60656 5.79068 9.60327 5.87068C9.60327 5.99561 9.5956 6.11945 9.59231 6.24438C9.59231 6.27945 9.58684 6.30684 9.53971 6.30575C9.49259 6.30465 9.49588 6.27287 9.49807 6.23999C9.51414 5.94776 9.53095 5.65552 9.54848 5.36328C9.54848 5.3315 9.53752 5.28876 9.59231 5.28218C9.64711 5.27561 9.65259 5.30629 9.66684 5.34027L9.94409 5.95177L9.99122 6.04712C10.0712 5.85643 10.1435 5.68218 10.2159 5.50794C10.2411 5.44657 10.2674 5.3841 10.2915 5.32164C10.296 5.30789 10.3054 5.29628 10.318 5.28901C10.3305 5.28174 10.3452 5.27931 10.3594 5.28218C10.3956 5.28218 10.3945 5.31506 10.3956 5.34027C10.412 5.64054 10.4274 5.94081 10.446 6.23999C10.446 6.29808 10.4186 6.30136 10.3759 6.30027C10.3331 6.29917 10.2948 6.30027 10.2937 6.2389C10.297 6.05311 10.2904 5.86727 10.274 5.68218C10.2729 5.66085 10.2657 5.64028 10.2531 5.62301C10.1567 5.85643 10.0592 6.08328 9.95505 6.32986Z" fill="#FDFEFD"/>
<path d="M4.79014 5.8006C4.79014 5.65375 4.79014 5.5069 4.79014 5.36224C4.79014 5.31621 4.79671 5.28772 4.85041 5.28991C4.97534 5.28991 5.10027 5.28991 5.22411 5.29758C5.31674 5.29912 5.40552 5.33492 5.47332 5.39806C5.54111 5.4612 5.58312 5.54721 5.59123 5.6395C5.61482 5.75633 5.60917 5.87717 5.5748 5.99128C5.54932 6.07759 5.4979 6.15397 5.42751 6.21004C5.35713 6.26611 5.27119 6.29916 5.18137 6.30471C5.07178 6.31128 4.96219 6.30471 4.8526 6.30471C4.79233 6.30471 4.78575 6.27841 4.78685 6.22909C4.78685 6.08443 4.78685 5.94087 4.78685 5.79731L4.79014 5.8006Z" fill="#FDFEFE"/>
<path d="M8.77261 6.3244C8.49097 6.3244 8.2959 6.10522 8.2959 5.79947C8.2959 5.49371 8.48878 5.27344 8.77042 5.27234C9.05206 5.27125 9.24713 5.49152 9.24713 5.79727C9.24713 6.10303 9.05426 6.3233 8.77261 6.3244Z" fill="#FDFDFD"/>
<path d="M2.71451 5.74245C2.71355 5.657 2.73629 5.57295 2.7802 5.49963C2.82411 5.42631 2.88748 5.3666 2.96327 5.32711C3.03956 5.28526 3.12598 5.26545 3.21288 5.2699C3.29977 5.27435 3.38372 5.30289 3.45533 5.35232C3.63725 5.46848 3.70958 5.75012 3.62738 6.00218C3.60496 6.07411 3.56522 6.13944 3.51166 6.19242C3.45809 6.24541 3.39234 6.28443 3.32017 6.30607C3.248 6.32771 3.17162 6.33131 3.09774 6.31653C3.02385 6.30176 2.95473 6.26908 2.89642 6.22136C2.75834 6.11615 2.71341 5.96273 2.71451 5.74245Z" fill="#FDFDFD"/>
<path d="M2.35621 6.03514C2.35621 5.79624 2.35621 5.58583 2.35621 5.37761C2.35621 5.34035 2.3299 5.28994 2.40442 5.29103C2.47895 5.29213 2.45155 5.33925 2.45155 5.37322C2.45155 5.66144 2.44388 5.94857 2.4384 6.23679C2.4384 6.26199 2.45374 6.29816 2.4121 6.30802C2.37045 6.31788 2.35511 6.29268 2.33538 6.26418C2.19401 6.05925 2.05045 5.85542 1.90689 5.65158C1.89264 5.63076 1.87621 5.61103 1.85319 5.58144C1.83922 5.63206 1.83512 5.6849 1.84114 5.73706C1.84114 5.90364 1.84114 6.06583 1.84114 6.23569C1.84114 6.27624 1.8499 6.3124 1.78853 6.31131C1.72716 6.31021 1.73922 6.27295 1.74031 6.23898C1.74799 5.94528 1.75894 5.65158 1.75237 5.35679C1.75237 5.33268 1.7436 5.30199 1.77977 5.29432C1.81593 5.28665 1.83785 5.31076 1.85648 5.33816L2.15675 5.77103C2.21593 5.84994 2.27621 5.93213 2.35621 6.03514Z" fill="#FDFEFD"/>
<path d="M4.5337 6.29588C4.51415 6.30558 4.49273 6.3109 4.47091 6.31147C4.4491 6.31204 4.42743 6.30785 4.4074 6.29919C4.38737 6.29054 4.36947 6.27762 4.35494 6.26134C4.34042 6.24505 4.32961 6.2258 4.32329 6.20492C4.25424 6.0515 4.16767 5.90574 4.08548 5.75013C4.12383 5.75013 4.15233 5.75013 4.17972 5.74245C4.29589 5.72492 4.3452 5.65917 4.33863 5.53204C4.3399 5.50787 4.33606 5.4837 4.32736 5.46111C4.31865 5.43852 4.30528 5.41802 4.28811 5.40095C4.27094 5.38388 4.25036 5.37063 4.22772 5.36206C4.20507 5.35349 4.18088 5.3498 4.15671 5.35122C4.08657 5.35122 4.04712 5.36547 4.0537 5.44547C4.05918 5.70191 4.0537 5.95834 4.06137 6.21259C4.06137 6.26958 4.06137 6.31012 3.98685 6.30793C3.91233 6.30574 3.9189 6.263 3.92109 6.21369C3.93205 5.93204 3.93753 5.6504 3.92109 5.36876C3.92109 5.3041 3.93425 5.28218 3.9989 5.28547C4.06356 5.28876 4.1589 5.28547 4.2389 5.28547C4.29253 5.28124 4.34584 5.29688 4.38869 5.32942C4.43153 5.36196 4.46091 5.40911 4.47123 5.46191C4.48724 5.51805 4.4828 5.57804 4.45872 5.63122C4.43464 5.6844 4.39247 5.72731 4.33972 5.75232C4.26411 5.78739 4.2674 5.81807 4.30356 5.87834C4.38246 6.01862 4.45589 6.1556 4.5337 6.29588Z" fill="#FDFDFD"/>
<path d="M7.657 6.23667C7.657 6.30791 7.61645 6.30681 7.56494 6.30791C7.4948 6.30791 7.50905 6.26078 7.51015 6.22133C7.52494 5.93659 7.52494 5.65128 7.51015 5.36654C7.51015 5.31065 7.52001 5.28325 7.58138 5.28763C7.66138 5.28763 7.74247 5.28763 7.82138 5.28763C7.87484 5.28403 7.92789 5.29912 7.97147 5.3303C8.01504 5.36148 8.04644 5.40683 8.06028 5.45859C8.07863 5.51615 8.07501 5.57847 8.05012 5.63351C8.02523 5.68856 7.98083 5.73244 7.92549 5.75667C7.84658 5.79284 7.85974 5.82571 7.89261 5.8827C7.97042 6.0164 8.04494 6.15339 8.12275 6.29256C8.10315 6.30246 8.08163 6.30794 8.05969 6.30861C8.03775 6.30929 8.01592 6.30514 7.99576 6.29647C7.97559 6.2878 7.95757 6.27481 7.94297 6.25842C7.92837 6.24203 7.91754 6.22263 7.91124 6.2016C7.84322 6.04986 7.7641 5.90335 7.67453 5.76325C7.66357 5.69969 7.71617 5.70407 7.75234 5.69202C7.77433 5.68761 7.79507 5.67836 7.81305 5.66495C7.83103 5.65153 7.84579 5.63429 7.85629 5.61446C7.86678 5.59463 7.87272 5.57272 7.8737 5.55031C7.87468 5.5279 7.87065 5.50556 7.86193 5.48489C7.85466 5.46243 7.83966 5.44327 7.81959 5.43082C7.79952 5.41838 7.77569 5.41347 7.75234 5.41695C7.70631 5.41695 7.68878 5.4553 7.68549 5.49695C7.65207 5.72881 7.63778 5.96302 7.64275 6.19722C7.64675 6.21063 7.6515 6.2238 7.657 6.23667Z" fill="#FDFEFE"/>
<path d="M6.33423 5.41267C6.30131 5.38517 6.26319 5.36459 6.22214 5.35216C6.18109 5.33973 6.13796 5.33571 6.09532 5.34034C6.06339 5.34201 6.03274 5.3534 6.00747 5.37299C5.9822 5.39257 5.96352 5.41942 5.95395 5.44993C5.94474 5.47946 5.94579 5.51123 5.95693 5.54008C5.96808 5.56893 5.98866 5.59317 6.01532 5.60883C6.09094 5.66253 6.17203 5.70746 6.24655 5.76226C6.305 5.79697 6.34948 5.85103 6.37229 5.91506C6.3951 5.9791 6.39482 6.04909 6.37148 6.11294C6.34923 6.17672 6.30683 6.23153 6.25069 6.2691C6.19454 6.30666 6.1277 6.32493 6.06025 6.32116C6.01861 6.32116 5.97697 6.32116 5.93642 6.32116C5.8608 6.31459 5.82683 6.28061 5.85751 6.20171C5.90407 6.222 5.95162 6.23992 5.99998 6.25541C6.04514 6.27349 6.09535 6.27445 6.14116 6.25811C6.18698 6.24176 6.22524 6.20923 6.24875 6.16664C6.2687 6.12066 6.27148 6.06904 6.2566 6.02118C6.24172 5.97332 6.21016 5.93238 6.16765 5.90582C6.1008 5.85651 6.02409 5.82034 5.95834 5.77103C5.91695 5.74597 5.88328 5.70999 5.86103 5.66703C5.83877 5.62408 5.82879 5.57582 5.83219 5.52756C5.83559 5.4793 5.85223 5.43292 5.88029 5.39351C5.90834 5.3541 5.94673 5.32319 5.99121 5.30418C6.09054 5.26637 6.1996 5.26251 6.30135 5.29322C6.3671 5.30856 6.3408 5.36007 6.33423 5.41267Z" fill="#FDFDFD"/>
<path d="M7.00608 5.84005C7.00608 5.96498 7.00608 6.08991 7.00608 6.21484C7.00608 6.27183 7.00608 6.31019 6.92937 6.31019C6.85266 6.31019 6.84718 6.2806 6.84937 6.21813C6.85595 5.97484 6.85923 5.73265 6.86033 5.48936C6.86033 5.35128 6.86033 5.35128 6.71787 5.36662C6.69924 5.36662 6.6806 5.3743 6.66197 5.37539C6.64334 5.37649 6.6028 5.39402 6.59951 5.34471C6.59622 5.29539 6.61376 5.28772 6.6543 5.28772C6.80225 5.28772 6.9491 5.28772 7.09266 5.28772H7.20225C7.24499 5.28772 7.24718 5.31402 7.24608 5.34471C7.24499 5.37539 7.21649 5.37758 7.19129 5.37539C6.99184 5.36224 6.99074 5.36224 6.98964 5.5606C6.98964 5.65375 6.98964 5.7469 6.98964 5.83895L7.00608 5.84005Z" fill="#FCFDFD"/>
<path d="M7.65704 6.23668C7.64024 6.10074 7.63547 5.96359 7.64279 5.82681C7.64279 5.69202 7.64279 5.55832 7.64279 5.42352C7.64279 5.39065 7.64279 5.36325 7.68772 5.35339C7.71334 5.34785 7.7398 5.34741 7.76558 5.35209C7.79137 5.35677 7.81598 5.36649 7.83801 5.38069C7.86004 5.39488 7.87906 5.41328 7.89399 5.43483C7.90891 5.45637 7.91944 5.48065 7.92498 5.50627C7.93052 5.53188 7.93096 5.55834 7.92628 5.58413C7.9216 5.60991 7.91188 5.63453 7.89768 5.65656C7.88349 5.67859 7.86509 5.69761 7.84354 5.71253C7.822 5.72745 7.79772 5.73799 7.77211 5.74353C7.73923 5.7501 7.70087 5.73037 7.67457 5.76544C7.65722 5.92188 7.65136 6.07938 7.65704 6.23668Z" fill="#4496B3"/>
<path d="M6.23996 8.71338C6.22571 9.00927 6.28489 9.30516 6.16434 9.58242C5.98681 9.989 5.65256 10.1786 5.23064 10.24C5.09852 10.2679 4.96173 10.2649 4.83094 10.2312C4.70016 10.1976 4.57892 10.1342 4.47667 10.046C4.2279 9.8268 4.1479 9.27886 4.63229 9.06845C4.88314 8.97032 5.14588 8.90583 5.41366 8.87667C5.69428 8.85292 5.9714 8.79816 6.23996 8.71338Z" fill="#4294B2"/>
<path d="M4.93475 5.78843C4.93475 5.67007 4.93475 5.55171 4.93475 5.43336C4.93475 5.37527 4.95667 5.35884 5.01256 5.35445C5.4027 5.32377 5.49037 5.6076 5.44105 5.91884C5.40379 6.15336 5.26023 6.25637 5.02242 6.2476C4.96215 6.2476 4.93585 6.22678 4.93695 6.16432C4.93695 6.03938 4.93695 5.91445 4.93695 5.79062L4.93475 5.78843Z" fill="#4295B2"/>
<path d="M9.08712 5.79287C9.09263 5.90669 9.06846 6.01998 9.01699 6.12164C8.99152 6.16659 8.95377 6.20335 8.90816 6.22761C8.86254 6.25187 8.81096 6.26263 8.75945 6.25862C8.70928 6.25984 8.65987 6.24625 8.61738 6.21955C8.57489 6.19285 8.54121 6.15422 8.52055 6.10849C8.474 6.01153 8.44983 5.90536 8.44983 5.7978C8.44983 5.69025 8.474 5.58408 8.52055 5.48712C8.54109 5.4396 8.57553 5.3994 8.61934 5.37182C8.66316 5.34424 8.7143 5.33057 8.76603 5.3326C8.81911 5.32956 8.87194 5.34203 8.91805 5.3685C8.96417 5.39496 9.00159 5.43427 9.02575 5.48164C9.07246 5.57844 9.09359 5.68559 9.08712 5.79287Z" fill="#4294B2"/>
<path d="M2.87129 5.81802C2.86415 5.70786 2.88409 5.59761 2.92937 5.49693C2.95202 5.44689 2.98924 5.40484 3.03616 5.3763C3.08309 5.34775 3.13754 5.33403 3.19239 5.33693C3.24582 5.33484 3.29861 5.34915 3.34367 5.37795C3.38873 5.40675 3.4239 5.44865 3.44444 5.49802C3.48934 5.59389 3.51261 5.69846 3.51261 5.80433C3.51261 5.91019 3.48934 6.01476 3.44444 6.11063C3.42331 6.15801 3.38835 6.19791 3.34416 6.22509C3.29996 6.25227 3.24859 6.26547 3.19677 6.26296C3.14358 6.26587 3.09072 6.25308 3.04473 6.2262C2.99875 6.19931 2.96169 6.1595 2.93814 6.11172C2.89118 6.02113 2.86816 5.92002 2.87129 5.81802Z" fill="#4294B2"/>
</svg>
