<svg width="24" height="24" viewBox="0 0 24 24" fill="none" xmlns="http://www.w3.org/2000/svg">
<path d="M11.9999 23.5556C5.61811 23.5556 0.444336 18.3818 0.444336 12C0.444336 5.61824 5.61811 0.444458 11.9999 0.444458C18.3817 0.444458 23.5554 5.61824 23.5554 12C23.5554 18.3818 18.3817 23.5556 11.9999 23.5556Z" fill="#49B391"/>
<path d="M12 24C5.38311 24 0 18.6169 0 12C0 5.38311 5.38311 0 12 0C18.6169 0 24 5.38311 24 12C24 18.6169 18.6169 24 12 24ZM12 0.888889C5.87333 0.888889 0.888889 5.87333 0.888889 12C0.888889 18.1267 5.87333 23.1111 12 23.1111C18.1267 23.1111 23.1111 18.1267 23.1111 12C23.1111 5.87333 18.1267 0.888889 12 0.888889Z" fill="#49B391"/>
<path d="M16.064 12.452L9.35247 16.3271C9.14625 16.4462 8.88892 16.2973 8.88892 16.0595V8.3093C8.88892 8.07152 9.14625 7.92263 9.35247 8.04174L16.064 11.9169C16.2702 12.036 16.2702 12.3333 16.064 12.452Z" fill="white"/>
<path d="M9.19856 16.8133C8.78256 16.8133 8.44434 16.4751 8.44434 16.0595V8.30932C8.44434 7.89376 8.78256 7.55554 9.19856 7.55554C9.32967 7.55554 9.45989 7.59021 9.57456 7.65688L16.2861 11.532C16.5221 11.6684 16.663 11.912 16.663 12.1849C16.663 12.4578 16.5221 12.7013 16.2861 12.8378L9.57456 16.7129C9.45989 16.7787 9.32967 16.8133 9.19856 16.8133ZM9.33322 8.54399V15.8253L15.6386 12.1849L9.33322 8.54399Z" fill="white"/>
</svg>
