<svg width="32" height="32" viewBox="0 0 32 32" fill="none" xmlns="http://www.w3.org/2000/svg">
<path d="M16 0.625C24.2705 0.625 31.375 7.72949 31.375 16C31.375 24.2705 24.2705 31.375 16 31.375C7.72949 31.375 0.625 24.2705 0.625 16C0.625 7.72949 7.72949 0.625 16 0.625Z" fill="#FFD89B"/>
<path d="M16 27.3125C9.97363 27.3125 4.6875 22.0264 4.6875 16C4.6875 9.97363 9.97363 4.6875 16 4.6875C22.0264 4.6875 27.3125 9.97363 27.3125 16C27.3125 22.0264 22.0264 27.3125 16 27.3125Z" fill="#FEBE52"/>
<path d="M5.375 16C5.375 15.655 5.09497 15.375 4.75 15.375C4.40503 15.375 4.125 15.655 4.125 16C4.125 16.345 4.40503 16.625 4.75 16.625C5.09497 16.625 5.375 16.345 5.375 16Z" fill="black"/>
<path d="M16 4.125C10.3667 4.125 5.61573 8.07959 4.41675 13.377C4.34034 13.7136 4.55152 14.0483 4.88819 14.1245C5.22486 14.2004 5.55958 13.9897 5.63575 13.6531C6.72169 8.85645 11.0803 5.375 16 5.375C21.8586 5.375 26.625 10.1414 26.625 16C26.625 21.8586 21.8586 26.625 16 26.625C11.0803 26.625 6.72169 23.1436 5.63575 18.3469C5.55958 18.0103 5.2251 17.7993 4.88819 17.8755C4.55152 17.9517 4.34034 18.2864 4.41675 18.623C5.61671 23.9241 10.3709 27.875 16 27.875C22.5479 27.875 27.875 22.5479 27.875 16C27.875 9.45215 22.5479 4.125 16 4.125Z" fill="black"/>
<path d="M16 0C7.40503 0 0 7.35767 0 16C0 24.6182 7.38232 32 16 32C24.595 32 32 24.6423 32 16C32 7.38647 24.6199 0 16 0ZM16 30.75C8.14258 30.75 1.25 23.8574 1.25 16C1.25 8.14258 8.14258 1.25 16 1.25C23.8574 1.25 30.75 8.14258 30.75 16C30.75 23.8574 23.8574 30.75 16 30.75Z" fill="black"/>
<path d="M23.6975 10.407C23.3701 10.2979 23.0164 10.4749 22.907 10.8025L21.5913 14.75H17.9087L16.593 10.8025C16.5078 10.5471 16.269 10.375 16 10.375C15.731 10.375 15.4922 10.5471 15.407 10.8025L14.0913 14.75H10.4087L9.09302 10.8025C8.98364 10.4749 8.62988 10.2979 8.30249 10.407C7.97485 10.5164 7.79785 10.8701 7.90698 11.1975L9.09131 14.75H8.5C8.15479 14.75 7.875 15.0298 7.875 15.375C7.875 15.7202 8.15479 16 8.5 16H9.50781L9.92456 17.25H8.5C8.15479 17.25 7.875 17.5298 7.875 17.875C7.875 18.2202 8.15479 18.5 8.5 18.5H10.3413L11.657 22.4475C11.7422 22.7029 11.981 22.875 12.25 22.875C12.519 22.875 12.7578 22.7029 12.843 22.4475L14.1587 18.5H17.8413L19.157 22.4475C19.2422 22.7029 19.481 22.875 19.75 22.875C20.019 22.875 20.2578 22.7029 20.343 22.4475L21.6587 18.5H23.5C23.8452 18.5 24.125 18.2202 24.125 17.875C24.125 17.5298 23.8452 17.25 23.5 17.25H22.0754L22.4922 16H23.5C23.8452 16 24.125 15.7202 24.125 15.375C24.125 15.0298 23.8452 14.75 23.5 14.75H22.9087L24.093 11.1975C24.2021 10.8701 24.0251 10.5164 23.6975 10.407ZM16 12.9763L16.5913 14.75H15.4087L16 12.9763ZM10.8254 16H13.6746L13.2578 17.25H11.2422L10.8254 16ZM12.25 20.2737L11.6587 18.5H12.8413L12.25 20.2737ZM14.5754 17.25L14.9922 16H17.0078L17.4246 17.25H14.5754ZM19.75 20.2737L19.1587 18.5H20.3413L19.75 20.2737ZM20.7578 17.25H18.7422L18.3254 16H21.1746L20.7578 17.25Z" fill="black"/>
</svg>
