<svg id="Capa_1" data-name="Capa 1" xmlns="http://www.w3.org/2000/svg" viewBox="0 0 512 512"><defs><style>.cls-1{fill:#226852;}.cls-2{fill:#dba510;}</style></defs><title>dong</title><path class="cls-1" d="M256.2,0C114.8-.12.12,114.41,0,255.8S114.41,511.88,255.8,512c141.38-.12,256-114.63,256.2-256C512,114.68,397.51.12,256.2,0Zm-.4,469.4C138,469.4,42.4,373.86,42.4,256S138,42.6,255.8,42.6,469.08,138.18,469.2,256,373.66,469.4,255.8,469.4Z" transform="translate(0 0)"/><path class="cls-2" d="M321,391H161a15,15,0,0,0,0,30H321a15,15,0,0,0,0-30Z" transform="translate(0 0)"/><path class="cls-2" d="M351,111H336v-5a15,15,0,1,0-30,0v5H291a15,15,0,1,0,0,30h15v55.79a95,95,0,1,0,0,138.43V346a15,15,0,0,0,30,0V141h15a15,15,0,0,0,0-30ZM241,331a65,65,0,1,1,65-65A65.08,65.08,0,0,1,241,331Z" transform="translate(0 0)"/></svg>