<svg width="20" height="20" viewBox="0 0 20 20" fill="none" xmlns="http://www.w3.org/2000/svg">
<path d="M19.6079 8.87238L11.2526 0.516674C10.562 -0.171892 9.43907 -0.172869 8.74709 0.51761L0.39179 8.87238C-0.130597 9.39469 -0.130597 10.2419 0.39179 10.7642C0.914503 11.2869 1.76119 11.2869 2.28382 10.7642L3.41642 9.63148V18.3768C3.41642 19.1641 4.05469 19.8023 4.84203 19.8023H7.88746V15.8291C7.88746 15.5205 8.13761 15.2699 8.4468 15.2699H11.5543C11.8633 15.2699 12.1135 15.5205 12.1135 15.8291V19.8023H15.1584C15.9458 19.8023 16.584 19.1641 16.584 18.3769V9.63221L17.716 10.7643C17.9775 11.0256 18.3197 11.1562 18.662 11.1562C19.0042 11.1562 19.3465 11.0256 19.6079 10.7643C20.1307 10.2419 20.1307 9.39473 19.6079 8.87238Z" fill="#DBA510"/>
</svg>
