<svg width="24" height="24" viewBox="0 0 24 24" fill="none" xmlns="http://www.w3.org/2000/svg">
<path d="M0.02248 0.578502C0.122143 0.177603 0.529785 -0.0681823 0.931433 0.0329792L3.93181 0.782323C4.22405 0.855759 4.44436 1.09555 4.49082 1.39154L4.87074 3.79544L23.3421 6.01125C23.3563 6.01275 23.3676 6.02324 23.3833 6.02623C23.4005 6.02923 23.4163 6.02399 23.4342 6.02848C23.477 6.03897 23.5092 6.0652 23.5466 6.08169C23.5894 6.09967 23.6291 6.11391 23.6665 6.13864C23.719 6.1746 23.7617 6.22106 23.8029 6.26827C23.8247 6.2915 23.8516 6.30499 23.8704 6.33047C23.8749 6.33646 23.8749 6.34396 23.8779 6.34995C23.9183 6.4129 23.9416 6.48333 23.9625 6.55527C23.97 6.5815 23.985 6.60398 23.9895 6.63096C24.0045 6.72987 24.0045 6.83403 23.979 6.93744L21.728 15.9296L20.9786 18.9269C20.9726 18.9487 20.9599 18.9659 20.9524 18.9861C20.9404 19.0221 20.9247 19.0551 20.9067 19.0888C20.882 19.1375 20.8513 19.1825 20.8153 19.2252C20.7936 19.2507 20.7703 19.2761 20.7456 19.3009C20.6999 19.3406 20.6519 19.3713 20.6002 19.399C20.5732 19.4148 20.5493 19.4313 20.52 19.4432C20.4361 19.4747 20.3462 19.4942 20.2525 19.4942H4.49981C4.08542 19.4942 3.75047 19.1592 3.75047 18.7456C3.75047 18.3312 4.08542 17.9955 4.49981 17.9955H19.6665L20.0412 16.4968H5.99925C5.90708 16.4968 5.81791 16.4811 5.73548 16.4496C5.70176 16.4361 5.67553 16.4144 5.64481 16.3979C5.59835 16.3732 5.55039 16.3514 5.51068 16.3177C5.48145 16.293 5.46197 16.2593 5.43424 16.2286C5.40277 16.1903 5.36755 16.1574 5.34282 16.1162C5.32259 16.0764 5.3136 16.0315 5.29861 15.9873C5.28288 15.9476 5.26339 15.9101 5.2544 15.8689L5.2514 15.8531V15.8449L3.0858 2.11616L0.568001 1.48746C0.164854 1.38704 -0.0786819 0.98015 0.02248 0.578502ZM20.4159 14.9974L22.3185 7.39828L19.9925 7.11953L18.8647 14.9974H20.4159ZM17.3511 14.9974L18.5028 6.94118L16.1656 6.66093L15.7872 14.9974H17.3511ZM12.7179 14.9974H14.2833L14.6714 6.48109L12.3365 6.20158L12.7179 14.9974ZM9.66279 14.9974H11.2162L10.8265 6.02024L8.50206 5.74223L9.66279 14.9974ZM6.65568 14.9974H8.14987L6.9689 5.55715L5.37055 5.36606L6.65568 14.9974ZM17.2522 20.9921C18.0794 20.9921 18.7523 21.6636 18.7523 22.4916C18.7523 23.3196 18.0802 23.9895 17.2522 23.9895C16.4234 23.9895 15.752 23.3189 15.752 22.4916C15.752 21.6651 16.4234 20.9921 17.2522 20.9921ZM7.49869 20.9921C8.32671 20.9921 8.99888 21.6636 8.99888 22.4916C8.99888 23.3196 8.32746 23.9895 7.49869 23.9895C6.67141 23.9895 5.9985 23.3189 5.9985 22.4916C6 21.6643 6.67141 20.9921 7.49869 20.9921Z" fill="white"/>
</svg>
