<svg id="Layer_1" data-name="Layer 1" xmlns="http://www.w3.org/2000/svg" viewBox="0 0 340.71 320.4"><defs><style>.cls-1{fill:#226852;}.cls-2{fill:#70c6a5;}.cls-3{fill:#49b391;}</style></defs><title>logo nguyên dương bản</title><path class="cls-1" d="M543.45,457.84h-2.4l0,0H523.37v0c-3.23,0-13.23-1-23.06-10,0,0,0,0-.06,0l-.64-.63-.08-.06h0L350.13,301.43l141.63-7.58,60.06,149.36c1.33,2.44,6.63,13.73-8.37,14.63" transform="translate(-250.59 -137.44)"/><path class="cls-1" d="M587.68,160.4l0,.07-.74,1.09-.29.45h0L491.76,293.85l-141.58,7.54-.19,0L539.52,145.2l.16,0a36,36,0,0,1,19.54-7.73s0,0,0-.06h15.62a.47.47,0,0,0,.06.09c23.36,1,15.76,17.6,12.74,22.85" transform="translate(-250.59 -137.44)"/><path class="cls-2" d="M342.36,148.19h0a.24.24,0,0,0-.08-.06l-.64-.63-.06,0c-9.83-9-19.83-10-23.06-10v0H300.88l0,0h-2.41c-15,.9-9.7,12.19-8.37,14.63l60.41,141.6,141.28.18Z" transform="translate(-250.59 -137.44)"/><path class="cls-3" d="M302.37,450.08,491.9,293.9l-.19,0-141.23-.21-.11.21L255.21,433.27h0l-.29.45-.74,1.09.05.07c-3,5.24-10.63,21.86,12.73,22.85a.24.24,0,0,1,.06.08v0h15.62s0,0,0-.06A36,36,0,0,0,302.22,450l.15.05" transform="translate(-250.59 -137.44)"/></svg>