<svg width="20" height="17" viewBox="0 0 20 17" fill="none" xmlns="http://www.w3.org/2000/svg">
<path d="M14.842 8.95812C14.8509 8.9448 14.8587 8.93093 14.8668 8.91726C14.8743 8.90468 14.8822 8.89249 14.8891 8.87956C14.8966 8.86542 14.903 8.85101 14.9098 8.83664C14.9161 8.82328 14.9228 8.81015 14.9284 8.79644C14.9343 8.78238 14.9389 8.768 14.944 8.75375C14.9493 8.73917 14.9549 8.7248 14.9594 8.70988C14.9638 8.69542 14.967 8.68082 14.9707 8.66621C14.9745 8.65113 14.9787 8.63628 14.9817 8.62089C14.9851 8.60382 14.9871 8.58671 14.9896 8.56953C14.9914 8.5564 14.9939 8.54351 14.9952 8.53023C15.0014 8.46859 15.0014 8.40656 14.9952 8.34492C14.9939 8.3316 14.9914 8.31867 14.9895 8.30546C14.9871 8.28839 14.9851 8.27121 14.9817 8.25429C14.9787 8.23886 14.9745 8.22398 14.9706 8.20878C14.967 8.19429 14.9638 8.17972 14.9594 8.16535C14.9549 8.15035 14.9492 8.13585 14.944 8.12117C14.9389 8.10703 14.9343 8.09281 14.9285 8.07886C14.9227 8.06499 14.916 8.05175 14.9096 8.03824C14.9029 8.02406 14.8966 8.00972 14.8892 7.99581C14.8822 7.98269 14.8741 7.97019 14.8666 7.95746C14.8585 7.94402 14.8509 7.93035 14.8421 7.91722C14.8325 7.90285 14.8218 7.88929 14.8114 7.87554C14.8034 7.86492 14.796 7.85398 14.7875 7.84359C14.7678 7.8196 14.747 7.79648 14.725 7.77453L11.9128 4.96222C11.5468 4.59609 10.9532 4.59609 10.587 4.96222C10.2208 5.32835 10.2208 5.92191 10.587 6.28804L11.7991 7.50023H0.9375C0.419766 7.50023 0 7.91992 0 8.43773C0 8.95546 0.419766 9.37523 0.9375 9.37523H11.799L10.5869 10.5873C10.2208 10.9534 10.2208 11.547 10.5869 11.9131C10.77 12.0962 11.0099 12.1877 11.2498 12.1877C11.4897 12.1877 11.7297 12.0962 11.9127 11.9131L14.7251 9.10081C14.747 9.07894 14.7677 9.05589 14.7873 9.03187C14.7962 9.02125 14.8037 9.00999 14.8119 8.99914C14.8221 8.98542 14.8326 8.97218 14.842 8.95812Z" fill="#49B391"/>
<path d="M19.0625 16.875H7.1875C6.66977 16.875 6.25 16.4552 6.25 15.9375V12.1874C6.25 11.6696 6.66977 11.2499 7.1875 11.2499C7.70523 11.2499 8.125 11.6696 8.125 12.1874V15H18.125V1.875H8.125V4.6875C8.125 5.20523 7.70523 5.625 7.1875 5.625C6.66977 5.625 6.25 5.20523 6.25 4.6875V0.9375C6.25 0.419688 6.66977 0 7.1875 0H19.0625C19.5802 0 20 0.419688 20 0.9375V15.9375C20 16.4553 19.5802 16.875 19.0625 16.875Z" fill="#B9B8B8"/>
</svg>
