<svg width="20" height="20" viewBox="0 0 20 20" fill="none" xmlns="http://www.w3.org/2000/svg">
<path d="M12.0202 18.2164C11.8553 18.2575 11.6872 18.294 11.5203 18.3248C11.084 18.4059 10.7956 18.8255 10.8763 19.2622C10.9161 19.477 11.0381 19.656 11.2038 19.7728C11.3745 19.8929 11.5918 19.9472 11.8132 19.906C12.0119 19.8691 12.2122 19.8257 12.4088 19.7767C12.8396 19.6695 13.1021 19.233 12.9946 18.8024C12.8874 18.3714 12.4513 18.1091 12.0202 18.2164Z" fill="#DBA510"/>
<path d="M17.9659 7.43969C18.0222 7.60942 18.1298 7.74798 18.2656 7.84373C18.467 7.98556 18.7305 8.03328 18.9819 7.95013C19.4035 7.81015 19.6319 7.35555 19.4925 6.93418C19.4289 6.7421 19.3584 6.54941 19.2833 6.36179C19.1184 5.94949 18.6507 5.74876 18.2382 5.91368C17.8261 6.07851 17.6253 6.54631 17.7903 6.95873C17.8535 7.11643 17.9126 7.27829 17.9659 7.43969Z" fill="#DBA510"/>
<path d="M14.6329 17.0685C14.491 17.1621 14.3446 17.2528 14.1972 17.3377C13.8124 17.5596 13.6807 18.0514 13.9025 18.436C13.9627 18.5406 14.043 18.6261 14.1354 18.6914C14.3834 18.8659 14.7202 18.8921 15.0007 18.7305C15.176 18.6294 15.3503 18.5218 15.5192 18.4101C15.8896 18.1655 15.9915 17.6666 15.7467 17.2961C15.502 16.9255 15.0033 16.8237 14.6329 17.0685Z" fill="#DBA510"/>
<path d="M19.9923 9.68526C19.9748 9.24149 19.6011 8.89609 19.1572 8.91342C18.7139 8.93092 18.3682 9.30482 18.3856 9.74842C18.3923 9.91802 18.394 10.0902 18.3901 10.2596C18.3838 10.5379 18.52 10.7859 18.7315 10.935C18.8575 11.0238 19.0104 11.0775 19.1762 11.0813C19.62 11.0911 19.9877 10.7391 19.9976 10.2951C20.002 10.0927 20.0003 9.88758 19.9923 9.68526Z" fill="#DBA510"/>
<path d="M17.8347 14.9534C17.4788 14.6864 16.9754 14.7589 16.7089 15.1141C16.6068 15.2501 16.4994 15.3845 16.3893 15.5138C16.1017 15.8518 16.1423 16.3593 16.4802 16.6472C16.4995 16.6635 16.519 16.6785 16.5392 16.6926C16.8751 16.9294 17.342 16.875 17.6136 16.5563C17.7451 16.4019 17.8732 16.2414 17.9951 16.079C18.2617 15.7238 18.1896 15.22 17.8347 14.9534Z" fill="#DBA510"/>
<path d="M19.0166 12.047C18.5929 11.9142 18.1417 12.15 18.0089 12.5737C17.9581 12.7356 17.9018 12.8982 17.841 13.0575C17.7075 13.4081 17.8354 13.7939 18.1286 14.0007C18.1824 14.0385 18.2416 14.0705 18.306 14.0948C18.7208 14.2531 19.1854 14.045 19.3435 13.63C19.4157 13.4406 19.4826 13.2471 19.5432 13.0547C19.6759 12.6309 19.4402 12.1798 19.0166 12.047Z" fill="#DBA510"/>
<path d="M8.51243 18.332C7.7936 18.2029 7.10405 17.9832 6.45018 17.6766C6.44244 17.6726 6.43552 17.668 6.42739 17.6643C6.27331 17.5918 6.11948 17.5141 5.97038 17.4329C5.96987 17.4323 5.96892 17.4319 5.9681 17.4316C5.69454 17.2809 5.42756 17.1142 5.16819 16.9316C1.38607 14.2674 0.476697 9.02288 3.1411 5.24081C3.72047 4.41871 4.42158 3.73285 5.20323 3.18926C5.21286 3.18255 5.22249 3.17589 5.23203 3.16914C7.98642 1.27129 11.7264 1.14339 14.6512 3.0936L14.023 4.00121C13.8484 4.25383 13.9558 4.43793 14.2615 4.41041L16.9901 4.16613C17.2962 4.13861 17.4793 3.87382 17.397 3.57821L16.6642 0.938227C16.5822 0.642268 16.3722 0.606843 16.1974 0.859422L15.5678 1.76918C13.4214 0.328382 10.8471 -0.221016 8.29192 0.222062C8.03457 0.266602 7.78083 0.321116 7.53057 0.384573C7.52864 0.384917 7.52709 0.385131 7.52554 0.385475C7.51587 0.38784 7.50607 0.390978 7.49665 0.393601C5.2933 0.959422 3.3709 2.2445 1.99914 4.07804C1.98758 4.09175 1.97567 4.10517 1.96475 4.12008C1.91913 4.18152 1.87386 4.24437 1.82954 4.30723C1.75705 4.41024 1.6856 4.51583 1.61724 4.62142C1.60868 4.63414 1.60215 4.64708 1.59467 4.65994C0.462682 6.41407 -0.0833201 8.44201 0.0103171 10.5066C0.0105321 10.5134 0.0101451 10.5202 0.0103171 10.5272C0.0193885 10.7289 0.0353816 10.9333 0.0570927 11.1346C0.0582535 11.1476 0.061134 11.1599 0.0633266 11.1729C0.0857686 11.3753 0.113929 11.5782 0.149225 11.781C0.507953 13.8506 1.48422 15.7129 2.94712 17.1619C2.95052 17.1653 2.95404 17.169 2.95748 17.1725C2.95869 17.1739 2.96002 17.1746 2.96118 17.1758C3.35421 17.5635 3.78173 17.922 4.24205 18.2462C5.44669 19.0951 6.7881 19.6562 8.22868 19.9147C8.66578 19.9932 9.08332 19.7022 9.16174 19.2654C9.24012 18.8282 8.9494 18.4103 8.51243 18.332Z" fill="#DBA510"/>
<path d="M9.50663 3.57687C9.14708 3.57687 8.85585 3.86835 8.85585 4.22738V10.7083L14.7832 13.7724C14.8786 13.8218 14.9808 13.8451 15.0813 13.8451C15.3167 13.8451 15.5441 13.7169 15.6597 13.4932C15.8246 13.1739 15.6998 12.7817 15.3805 12.6168L10.1567 9.91616V4.22738C10.1566 3.86835 9.86574 3.57687 9.50663 3.57687Z" fill="#DBA510"/>
</svg>
