<svg width="16" height="16" viewBox="0 0 16 16" fill="none" xmlns="http://www.w3.org/2000/svg">
<path d="M9.61619 14.5731C9.48426 14.606 9.34975 14.6352 9.21623 14.6598C8.8672 14.7247 8.63646 15.0604 8.70101 15.4097C8.7329 15.5816 8.83051 15.7248 8.96302 15.8182C9.0996 15.9143 9.27343 15.9577 9.45055 15.9248C9.60956 15.8953 9.7698 15.8606 9.92704 15.8213C10.2717 15.7356 10.4817 15.3864 10.3957 15.0419C10.3099 14.6971 9.96106 14.4873 9.61619 14.5731Z" fill="#666666"/>
<path d="M14.3727 5.95174C14.4178 6.08753 14.5038 6.19838 14.6124 6.27497C14.7735 6.38844 14.9843 6.42662 15.1855 6.3601C15.5228 6.24811 15.7055 5.88443 15.5939 5.54734C15.5431 5.39367 15.4867 5.23952 15.4266 5.08942C15.2947 4.75959 14.9205 4.599 14.5905 4.73094C14.2609 4.8628 14.1002 5.23704 14.2322 5.56698C14.2827 5.69314 14.33 5.82263 14.3727 5.95174Z" fill="#666666"/>
<path d="M11.7063 13.6548C11.5928 13.7297 11.4757 13.8022 11.3577 13.8701C11.0499 14.0477 10.9445 14.4411 11.122 14.7488C11.1702 14.8324 11.2344 14.9008 11.3083 14.9531C11.5067 15.0927 11.7762 15.1136 12.0005 14.9844C12.1408 14.9035 12.2802 14.8174 12.4154 14.7281C12.7116 14.5324 12.7932 14.1333 12.5974 13.8369C12.4015 13.5404 12.0027 13.4589 11.7063 13.6548Z" fill="#666666"/>
<path d="M15.9938 7.74821C15.9798 7.39319 15.6808 7.11687 15.3257 7.13073C14.971 7.14473 14.6945 7.44385 14.7085 7.79873C14.7138 7.93441 14.7152 8.07213 14.712 8.20767C14.707 8.4303 14.8159 8.62876 14.9851 8.74803C15.086 8.81902 15.2083 8.86198 15.3409 8.86501C15.696 8.87288 15.9902 8.5913 15.998 8.23612C16.0016 8.07416 16.0002 7.91006 15.9938 7.74821Z" fill="#666666"/>
<path d="M14.2677 11.9627C13.9831 11.7491 13.5803 11.8071 13.3671 12.0913C13.2855 12.2001 13.1995 12.3076 13.1114 12.4111C12.8813 12.6814 12.9138 13.0875 13.1842 13.3177C13.1996 13.3308 13.2152 13.3428 13.2313 13.3541C13.5001 13.5436 13.8736 13.5 14.0909 13.245C14.196 13.1216 14.2985 12.9932 14.3961 12.8632C14.6093 12.579 14.5516 12.176 14.2677 11.9627Z" fill="#666666"/>
<path d="M15.2132 9.6376C14.8743 9.53132 14.5133 9.72 14.4071 10.059C14.3664 10.1884 14.3214 10.3186 14.2728 10.446C14.166 10.7265 14.2683 11.0351 14.5028 11.2005C14.5459 11.2308 14.5933 11.2564 14.6448 11.2759C14.9766 11.4025 15.3482 11.236 15.4747 10.904C15.5325 10.7525 15.5861 10.5977 15.6345 10.4437C15.7406 10.1047 15.5521 9.74387 15.2132 9.6376Z" fill="#666666"/>
<path d="M6.80993 14.6656C6.23487 14.5623 5.68322 14.3865 5.16013 14.1413C5.15394 14.1381 5.1484 14.1344 5.1419 14.1314C5.01863 14.0734 4.89557 14.0112 4.77629 13.9463C4.77588 13.9458 4.77512 13.9455 4.77447 13.9452C4.55562 13.8247 4.34204 13.6914 4.13454 13.5453C1.10884 11.4139 0.381346 7.2183 2.51287 4.19264C2.97636 3.53496 3.53726 2.98628 4.16257 2.5514C4.17027 2.54604 4.17798 2.5407 4.18561 2.5353C6.38912 1.01702 9.38115 0.914703 11.7209 2.47487L11.2184 3.20096C11.0787 3.40306 11.1646 3.55033 11.4092 3.52832L13.5921 3.3329C13.837 3.31089 13.9834 3.09905 13.9176 2.86256L13.3314 0.750575C13.2658 0.513808 13.0977 0.485468 12.9579 0.687532L12.4542 1.41534C10.7371 0.262699 8.67765 -0.176819 6.63353 0.177643C6.42764 0.213275 6.22465 0.256887 6.02445 0.307652C6.0229 0.307927 6.02166 0.308099 6.02042 0.308374C6.01268 0.310266 6.00484 0.312777 5.99731 0.314875C4.23462 0.767532 2.6967 1.7956 1.5993 3.26242C1.59005 3.2734 1.58052 3.28413 1.57179 3.29606C1.53529 3.34521 1.49908 3.39549 1.46362 3.44578C1.40563 3.52819 1.34847 3.61266 1.29378 3.69713C1.28694 3.70731 1.28171 3.71766 1.27572 3.72794C0.370133 5.13125 -0.0666683 6.7536 0.00824148 8.40526C0.00841345 8.4107 0.0081039 8.41616 0.00824148 8.42174C0.0154986 8.58308 0.0282931 8.74665 0.045662 8.90769C0.0465906 8.91807 0.048895 8.92791 0.0506491 8.9383C0.0686027 9.10022 0.0911306 9.26253 0.119368 9.4248C0.40635 11.0804 1.18737 12.5703 2.35768 13.7295C2.3604 13.7322 2.36322 13.7352 2.36597 13.738C2.36694 13.7391 2.368 13.7396 2.36893 13.7406C2.68336 14.0508 3.02537 14.3376 3.39363 14.597C4.35734 15.276 5.43046 15.7249 6.58293 15.9317C6.93261 15.9946 7.26665 15.7618 7.32938 15.4123C7.39208 15.0625 7.15951 14.7282 6.80993 14.6656Z" fill="#666666"/>
<path d="M7.60528 2.8615C7.31764 2.8615 7.08466 3.09469 7.08466 3.38191V8.56667L11.8265 11.018C11.9029 11.0575 11.9846 11.0761 12.065 11.0761C12.2533 11.0761 12.4352 10.9735 12.5277 10.7946C12.6596 10.5392 12.5598 10.2254 12.3044 10.0935L8.12531 7.93293V3.38191C8.12528 3.09469 7.89257 2.8615 7.60528 2.8615Z" fill="#666666"/>
</svg>
