<svg width="20" height="20" viewBox="0 0 20 20" fill="none" xmlns="http://www.w3.org/2000/svg">
<g clip-path="url(#clip0)">
<path d="M5.39444 17.3711C5.99405 17.9707 6.96739 17.9707 7.567 17.3711L15.0046 9.93341C15.2182 9.71985 15.3825 9.46522 15.4893 9.19417C16.2367 9.40362 16.9636 9.51451 17.6043 9.5104C19.1896 9.50219 19.7153 8.80812 19.8878 8.39332C20.0603 7.98262 20.1835 7.12017 19.0705 5.98666C19.0582 5.97434 19.0459 5.96201 19.0335 5.94969C18.3436 5.25973 17.3415 4.62316 16.2039 4.15086C15.9944 4.06461 15.785 3.98658 15.5796 3.91266V3.90034C15.5673 2.9886 14.8321 2.25346 13.9204 2.24114L9.4644 2.17953C8.873 2.17132 8.30625 2.40131 7.89145 2.82021L0.449708 10.2579C-0.149903 10.8575 -0.149903 11.8308 0.449708 12.4304L5.39444 17.3711ZM11.1277 4.84082C11.6246 4.34389 12.4296 4.34389 12.9265 4.84082C13.2222 5.13652 13.3413 5.54311 13.2838 5.92505C13.7726 6.27003 14.3557 6.59037 14.98 6.84911C15.2018 6.93946 15.4153 7.0216 15.6207 7.09142L15.596 5.3008C15.633 5.31723 15.6659 5.32955 15.7028 5.34598C16.6762 5.75256 17.5509 6.30289 18.1136 6.86554C18.1218 6.87375 18.13 6.88197 18.1382 6.89018C18.6721 7.4364 18.7296 7.78549 18.6844 7.89227C18.5448 8.22493 17.0458 8.52063 14.7705 7.57193C14.1052 7.29266 13.481 6.94768 12.9758 6.57395C12.9594 6.59448 12.9389 6.61502 12.9224 6.63555C12.4255 7.13249 11.6205 7.13249 11.1236 6.63555C10.6308 6.14272 10.6308 5.33776 11.1277 4.84082Z" fill="#DBA510"/>
</g>
<defs>
<clipPath id="clip0">
<rect width="20" height="20" fill="white"/>
</clipPath>
</defs>
</svg>
