<svg width="20" height="20" viewBox="0 0 20 20" fill="none" xmlns="http://www.w3.org/2000/svg">
<g clip-path="url(#clip0)">
<path d="M15.2344 7.61719C15.2352 8.7434 14.9871 9.85587 14.5078 10.875C14.4387 11.0143 14.3183 11.1215 14.1719 11.1739C14.0255 11.2264 13.8645 11.22 13.7227 11.1562C13.5814 11.0892 13.4725 10.969 13.4198 10.8218C13.367 10.6746 13.3748 10.5125 13.4414 10.3711C13.8511 9.51088 14.0633 8.56997 14.0625 7.61719C14.0625 4.06641 11.168 1.17188 7.61719 1.17188C6.77065 1.17141 5.93232 1.33781 5.15013 1.66155C4.36794 1.9853 3.65723 2.46004 3.05863 3.05863C2.46004 3.65723 1.9853 4.36794 1.66155 5.15013C1.33781 5.93232 1.17141 6.77065 1.17188 7.61719C1.17188 11.168 4.06641 14.0625 7.61719 14.0625C8.58816 14.068 9.54707 13.8473 10.418 13.418C10.558 13.3538 10.7176 13.3473 10.8624 13.3999C11.0071 13.4526 11.1253 13.5601 11.1914 13.6992C11.2254 13.7675 11.2454 13.842 11.2502 13.9181C11.255 13.9943 11.2445 14.0706 11.2194 14.1427C11.1943 14.2147 11.1551 14.281 11.104 14.3377C11.0529 14.3944 10.991 14.4402 10.9219 14.4727C9.89328 14.9766 8.76258 15.2372 7.61719 15.2344C3.42188 15.2344 0 11.8125 0 7.61719C0.00659136 5.59901 0.811231 3.66538 2.2383 2.2383C3.66538 0.811231 5.59901 0.00659136 7.61719 0C11.8125 0 15.2344 3.42188 15.2344 7.61719Z" fill="#DBA510"/>
<path d="M11.7188 7.61718C11.7229 8.25625 11.5742 8.88706 11.2852 9.45702C11.2138 9.59392 11.0917 9.69751 10.945 9.74567C10.7983 9.79384 10.6386 9.78277 10.5 9.71484C10.4306 9.68118 10.3688 9.63392 10.318 9.57586C10.2673 9.51781 10.2288 9.45014 10.2047 9.37689C10.1807 9.30364 10.1716 9.22631 10.178 9.14948C10.1845 9.07265 10.2063 8.9979 10.2422 8.92968C10.4421 8.521 10.5463 8.07214 10.5469 7.61718C10.5469 7.03774 10.3751 6.47132 10.0531 5.98953C9.73122 5.50775 9.27367 5.13224 8.73834 4.9105C8.203 4.68876 7.61394 4.63074 7.04564 4.74378C6.47733 4.85683 5.95531 5.13585 5.54559 5.54558C5.13587 5.9553 4.85684 6.47732 4.7438 7.04563C4.63075 7.61393 4.68877 8.20299 4.91051 8.73832C5.13225 9.27365 5.50776 9.73121 5.98954 10.0531C6.47133 10.375 7.03775 10.5469 7.61719 10.5469C8.21716 10.5504 8.80318 10.366 9.29297 10.0195C9.55079 9.83202 9.91407 9.90233 10.1016 10.1719C10.19 10.2978 10.2249 10.4537 10.1985 10.6053C10.1721 10.7569 10.0867 10.8918 9.96094 10.9805C9.20769 11.505 8.30027 11.7616 7.38388 11.7094C6.46749 11.6572 5.5951 11.2991 4.90629 10.6925C4.21748 10.0858 3.75208 9.26562 3.58454 8.36316C3.417 7.46071 3.55701 6.52814 3.98217 5.71466C4.40733 4.90119 5.09306 4.25384 5.92964 3.87619C6.76623 3.49854 7.70531 3.41242 8.59663 3.6316C9.48795 3.85079 10.28 4.36261 10.846 5.08518C11.4121 5.80775 11.7194 6.6993 11.7188 7.61718Z" fill="#DBA510"/>
<path d="M19.6457 11.7617L7.21254 6.45314C7.10594 6.40478 6.98712 6.39008 6.87195 6.411C6.75677 6.43193 6.65072 6.48749 6.56794 6.57026C6.48517 6.65304 6.42961 6.75909 6.40868 6.87427C6.38776 6.98944 6.40246 7.10826 6.45083 7.21486L11.7579 19.6485C11.8043 19.7528 11.8798 19.8415 11.9755 19.9039C12.0711 19.9662 12.1827 19.9996 12.2969 20H12.3555C12.4781 19.9864 12.5936 19.9351 12.6859 19.8533C12.7783 19.7715 12.8431 19.6631 12.8715 19.543L14.1016 14.1055L19.5387 12.875C19.6588 12.8467 19.7671 12.782 19.849 12.6896C19.9308 12.5973 19.982 12.482 19.9957 12.3594C20.0078 12.2356 19.9805 12.1112 19.9176 12.0038C19.8548 11.8965 19.7596 11.8118 19.6457 11.7617Z" fill="#72E8B2"/>
<path d="M14.1016 14.1055L12.8711 19.543C12.8428 19.663 12.778 19.7714 12.6857 19.8532C12.5934 19.935 12.4781 19.9863 12.3555 20H12.2969C12.1827 19.9996 12.0711 19.9662 11.9754 19.9038C11.8798 19.8414 11.8042 19.7528 11.7578 19.6484L6.4504 7.21484C6.40481 7.10771 6.39161 6.98957 6.41244 6.87502C6.43327 6.76047 6.48721 6.65454 6.56759 6.57031L14.1016 14.1055Z" fill="#4BC999"/>
</g>
<defs>
<clipPath id="clip0">
<rect width="20" height="20" fill="white"/>
</clipPath>
</defs>
</svg>
