<svg width="20" height="20" viewBox="0 0 20 20" fill="none" xmlns="http://www.w3.org/2000/svg">
<g clip-path="url(#clip0)">
<path d="M12.8072 8.14869C12.7844 7.95438 12.7094 7.76987 12.5902 7.61471L13.3919 2.64085C13.4059 2.55185 13.3856 2.46085 13.3352 2.38616C13.2849 2.31146 13.2081 2.25862 13.1203 2.23823L13.1115 2.23627C13.0235 2.21598 12.931 2.22986 12.8528 2.27511C12.7746 2.32037 12.7165 2.39362 12.6902 2.48007L11.2304 7.30065C10.9786 7.41973 10.7817 7.63046 10.6799 7.88981C10.5782 8.14915 10.5792 8.43756 10.6829 8.69615C10.7866 8.95473 10.9851 9.16399 11.2378 9.28119C11.4906 9.3984 11.7785 9.41471 12.0429 9.3268L15.0932 10.9118C15.1741 10.9539 15.2678 10.9644 15.3561 10.9411C15.4443 10.9179 15.5207 10.8625 15.5703 10.7859L15.5749 10.7788C15.6247 10.7023 15.6442 10.6099 15.6296 10.5198C15.615 10.4297 15.5673 10.3483 15.4958 10.2915L12.8072 8.14869ZM11.1772 8.27941C11.1772 8.17191 11.2091 8.06682 11.2688 7.97745C11.3285 7.88807 11.4134 7.81841 11.5127 7.77729C11.6121 7.73616 11.7214 7.72542 11.8268 7.74641C11.9322 7.76741 12.0291 7.8192 12.105 7.89524C12.181 7.97128 12.2328 8.06814 12.2537 8.17359C12.2746 8.27903 12.2638 8.38831 12.2226 8.48761C12.1815 8.58691 12.1117 8.67177 12.0223 8.73144C11.9329 8.79112 11.8278 8.82294 11.7203 8.82288C11.5762 8.82288 11.438 8.76567 11.336 8.66383C11.2341 8.56199 11.1767 8.42385 11.1765 8.27974L11.1772 8.27941ZM20.0007 8.27941C20 11.9614 17.584 15.0879 14.2546 16.1598V14.9833C16.9589 13.9575 18.887 11.3408 18.887 8.28105C18.887 4.32941 15.6719 1.11438 11.7203 1.11438C7.76869 1.11438 4.55366 4.32974 4.55366 8.27974C4.55409 8.66972 4.58622 9.05902 4.64974 9.44379H3.52425C3.46933 9.05819 3.44149 8.66922 3.44092 8.27974C3.44092 3.71438 7.15496 0 11.7203 0C16.2857 0 20 3.71438 20 8.27974L20.0007 8.27941Z" fill="#226852"/>
<path d="M13.1637 14.1794L10.6147 11.6585C10.4536 11.4981 10.2355 11.4081 10.0082 11.4082H8.72288V10.9268C8.72288 10.8414 8.70603 10.7568 8.6733 10.6779C8.64056 10.5991 8.59258 10.5274 8.53211 10.4671C8.47164 10.4068 8.39987 10.359 8.3209 10.3264C8.24192 10.2939 8.15731 10.2773 8.0719 10.2775H0.64837C0.563094 10.2773 0.478625 10.294 0.39982 10.3266C0.321015 10.3591 0.249427 10.407 0.189174 10.4673C0.12892 10.5277 0.0811888 10.5993 0.0487243 10.6782C0.0162598 10.757 -0.000297607 10.8415 4.04878e-06 10.9268V15.2673H13.4196V14.7941C13.4198 14.6798 13.3972 14.5666 13.3533 14.4611C13.3094 14.3556 13.2449 14.2599 13.1637 14.1794ZM12.0526 14.2628H9.58562C9.57239 14.2631 9.55923 14.2607 9.54694 14.2558C9.53465 14.2509 9.52348 14.2435 9.51411 14.2342C9.50473 14.2248 9.49734 14.2137 9.49239 14.2014C9.48744 14.1891 9.48503 14.176 9.4853 14.1628V12.2569C9.48521 12.2437 9.48775 12.2306 9.49276 12.2184C9.49777 12.2062 9.50516 12.1951 9.51449 12.1857C9.52382 12.1764 9.53492 12.169 9.54713 12.164C9.55934 12.159 9.57242 12.1565 9.58562 12.1566H10.0559C10.0824 12.1574 10.1079 12.1672 10.1281 12.1843L12.1242 14.0902C12.1396 14.1039 12.1504 14.122 12.1551 14.1421C12.1598 14.1621 12.1582 14.1832 12.1505 14.2023C12.1427 14.2214 12.1293 14.2376 12.1119 14.2487C12.0946 14.2598 12.0742 14.2653 12.0536 14.2644L12.0526 14.2628ZM13.419 15.6258V17.0618C13.419 17.2338 13.3506 17.3988 13.229 17.5205C13.1073 17.6421 12.9423 17.7105 12.7703 17.7105H12.0775C12.0158 17.2874 11.8039 16.9007 11.4805 16.6211C11.1571 16.3414 10.7439 16.1876 10.3163 16.1876C9.88882 16.1876 9.47559 16.3414 9.15221 16.6211C8.82884 16.9007 8.61692 17.2874 8.55523 17.7105H5.03759C4.97616 17.2875 4.76448 16.9008 4.44129 16.6212C4.11809 16.3416 3.705 16.1876 3.27762 16.1876C2.85023 16.1876 2.43714 16.3416 2.11395 16.6212C1.79076 16.9008 1.57908 17.2875 1.51765 17.7105H0.648697C0.476653 17.7105 0.311655 17.6421 0.190002 17.5205C0.0683483 17.3988 4.04878e-06 17.2338 4.04878e-06 17.0618V15.6258H13.419ZM10.3163 16.6222C10.0501 16.6219 9.78975 16.7006 9.56825 16.8483C9.34675 16.996 9.17405 17.2061 9.07201 17.452C8.96998 17.6979 8.9432 17.9686 8.99506 18.2297C9.04692 18.4909 9.17509 18.7308 9.36335 18.919C9.55161 19.1073 9.79149 19.2355 10.0526 19.2873C10.3138 19.3392 10.5844 19.3124 10.8303 19.2104C11.0762 19.1083 11.2864 18.9356 11.4341 18.7141C11.5818 18.4926 11.6605 18.2323 11.6601 17.966C11.6597 17.6099 11.5181 17.2685 11.2664 17.0166C11.0147 16.7648 10.6734 16.6229 10.3173 16.6222H10.3163ZM10.3163 18.6396C10.183 18.6401 10.0525 18.6011 9.94132 18.5275C9.83016 18.4538 9.74338 18.3488 9.69196 18.2257C9.64054 18.1027 9.6268 17.9672 9.65248 17.8363C9.67816 17.7055 9.74211 17.5852 9.83622 17.4907C9.93033 17.3962 10.0504 17.3318 10.1811 17.3056C10.3119 17.2794 10.4475 17.2926 10.5707 17.3436C10.6939 17.3945 10.7993 17.4809 10.8734 17.5918C10.9475 17.7026 10.987 17.833 10.9869 17.9664C10.9873 18.1444 10.917 18.3153 10.7914 18.4415C10.6659 18.5677 10.4954 18.639 10.3173 18.6396H10.3163ZM3.27778 16.6222C3.01154 16.6219 2.75119 16.7006 2.52969 16.8483C2.30819 16.996 2.13549 17.2061 2.03345 17.452C1.93142 17.6979 1.90463 17.9686 1.9565 18.2297C2.00836 18.4909 2.13653 18.7308 2.32479 18.919C2.51305 19.1073 2.75293 19.2355 3.01407 19.2873C3.27521 19.3392 3.54586 19.3124 3.79177 19.2104C4.03769 19.1083 4.2478 18.9356 4.39551 18.7141C4.54322 18.4926 4.6219 18.2323 4.62157 17.966C4.62114 17.6098 4.47942 17.2682 4.22751 17.0163C3.97559 16.7644 3.63404 16.6227 3.27778 16.6222ZM3.27778 18.6396C3.14454 18.6396 3.01428 18.6002 2.90347 18.5262C2.79265 18.4522 2.70628 18.347 2.65526 18.2239C2.60424 18.1008 2.59087 17.9654 2.61685 17.8347C2.64283 17.704 2.70698 17.584 2.8012 17.4898C2.89541 17.3956 3.01545 17.3314 3.14614 17.3054C3.27682 17.2794 3.41227 17.2928 3.53535 17.3438C3.65844 17.3949 3.76363 17.4812 3.83761 17.592C3.91159 17.7029 3.95105 17.8331 3.95098 17.9664C3.95116 18.0548 3.93386 18.1424 3.90009 18.2242C3.86632 18.3059 3.81674 18.3802 3.75419 18.4428C3.69164 18.5053 3.61736 18.5549 3.53561 18.5887C3.45385 18.6224 3.36624 18.6397 3.27778 18.6396Z" fill="#DBA510"/>
</g>
<defs>
<clipPath id="clip0">
<rect width="20" height="19.3127" fill="white"/>
</clipPath>
</defs>
</svg>
