<svg width="38" height="28" viewBox="0 0 38 28" fill="none" xmlns="http://www.w3.org/2000/svg">
<path d="M9.42308 2L2.86538 7.51923L2 16.7885L7.42308 23.5385L33.9231 26L35.9231 4.48077L9.42308 2Z" fill="#F5EB1A" stroke="black" stroke-width="2" stroke-miterlimit="10"/>
<path d="M7.03809 19.3269C7.24962 17.3076 7.44193 15.2884 7.65347 13.2307C7.90347 13.2499 8.1727 13.2884 8.4227 13.3076C9.55732 13.4038 10.6535 13.5384 11.7689 13.6346C12.4612 13.7115 13.1342 13.8653 13.6919 14.1923C14.9419 14.9615 14.865 16.0576 13.5189 16.6153C13.4612 16.6346 13.4227 16.673 13.3458 16.6923C13.6342 16.8269 13.8842 16.9423 14.115 17.0769C15.2112 17.7499 15.115 19.0384 13.9612 19.5576C13.4227 19.7884 12.8073 19.8846 12.1919 19.8461C10.4612 19.7115 8.74962 19.4999 7.03809 19.3269ZM9.82655 18.2307C10.3073 18.2884 10.8073 18.3653 11.2689 18.3653C11.6535 18.3846 11.9612 18.1538 11.9804 17.8846C11.9996 17.6346 11.7496 17.3461 11.3842 17.2692C10.9035 17.1923 10.4419 17.173 9.9227 17.1153C9.90347 17.4807 9.88424 17.8461 9.82655 18.2307ZM10.0765 15.8461C10.4035 15.8653 10.6727 15.9038 10.9419 15.923C11.0189 15.923 11.0765 15.9423 11.1535 15.9423C11.4804 15.9423 11.7496 15.8461 11.7881 15.5769C11.8458 15.3269 11.6535 15.0961 11.3073 15.0384C10.9419 14.9615 10.5573 14.9615 10.1727 14.9038C10.1342 15.2307 10.115 15.5192 10.0765 15.8461Z" fill="black"/>
<path d="M20.1158 14.5191C21.0196 14.6153 21.8465 14.6922 22.7311 14.7691C22.7311 14.8653 22.7311 14.9806 22.7311 15.0768C22.635 16.1537 22.5196 17.2499 22.4042 18.3268C22.2504 19.8076 20.5388 20.8076 18.5196 20.596C16.4234 20.3845 14.9427 19.1153 15.0581 17.596C15.1542 16.4422 15.2888 15.3268 15.4234 14.1729C15.4234 14.1537 15.4427 14.096 15.4427 14.0383C16.3081 14.1153 17.1734 14.2114 18.0773 14.2883C18.0773 14.3845 18.0581 14.4999 18.0581 14.6153C17.9619 15.7114 17.8273 16.8076 17.7311 17.9229C17.7119 18.2883 17.9811 18.6153 18.4234 18.7114C18.9042 18.846 19.4234 18.7306 19.635 18.4037C19.7311 18.2691 19.7696 18.1153 19.7696 17.9614C19.8658 16.9037 19.9811 15.8653 20.0965 14.8076C20.0965 14.7499 20.0965 14.6345 20.1158 14.5191Z" fill="black"/>
<path d="M22.9614 14.7883C23.8268 14.8653 24.596 14.9422 25.3845 15.0383C25.5191 15.0576 25.673 15.1729 25.7499 15.2691C26.1537 15.8653 26.5768 16.4422 26.9614 17.0383C27.0191 17.1153 27.096 17.2114 27.1922 17.346C27.673 16.8653 28.1922 16.4422 28.596 15.9614C28.9807 15.5191 29.423 15.3653 30.1345 15.4999C30.673 15.596 31.2307 15.6345 31.846 15.6729C31.4614 16.0576 31.1345 16.4422 30.7691 16.8076C30.0191 17.5768 29.2499 18.3653 28.5191 19.1345C28.423 19.2691 28.346 19.4229 28.3076 19.5383C28.2307 20.1729 28.173 20.8268 28.096 21.4806C27.1922 21.3845 26.3268 21.3076 25.4422 21.1922C25.5191 20.5576 25.596 19.9422 25.6153 19.3076C25.6153 19.1345 25.596 18.9229 25.4807 18.7691C24.7114 17.5383 23.923 16.3076 23.1537 15.0768C23.0768 14.9999 23.0383 14.9229 22.9614 14.7883Z" fill="black"/>
<path d="M6.13501 12.077C6.34655 10.0577 6.53886 8.07696 6.75039 6.09619C6.84655 6.09619 6.96193 6.09619 7.05809 6.09619C8.28886 6.23081 9.51963 6.34619 10.7696 6.48081C11.4619 6.55773 12.0965 6.71158 12.6542 7.07696C13.8081 7.7885 13.7312 8.88465 12.5004 9.40388C12.4235 9.42311 12.3465 9.46158 12.2696 9.50004C12.5004 9.59619 12.7119 9.67311 12.885 9.7885C14.1927 10.5 14.0965 11.9616 12.635 12.3654C12.0965 12.5193 11.4812 12.5193 10.9042 12.5385C10.6735 12.5577 10.4235 12.5193 10.1927 12.4808C8.82732 12.3654 7.50039 12.2116 6.13501 12.077ZM8.98116 9.84619C8.92347 10.2308 8.90424 10.5962 8.88501 10.9423C9.34655 11 9.75039 11.0385 10.1735 11.077C10.635 11.0962 10.9427 10.9039 10.9619 10.5962C10.9812 10.3077 10.7312 10.0577 10.2696 9.98081C9.84655 9.92311 9.4427 9.90388 8.98116 9.84619ZM9.1927 7.73081C9.17347 8.01927 9.13501 8.25004 9.11578 8.50004C9.11578 8.55773 9.1927 8.63465 9.25039 8.65388C9.61578 8.71158 9.96193 8.73081 10.3273 8.73081C10.6158 8.73081 10.8081 8.57696 10.8081 8.34619C10.8081 8.11542 10.6542 7.94235 10.3273 7.88465C9.96193 7.80773 9.57732 7.7885 9.1927 7.73081Z" fill="black"/>
<path d="M16.7889 9.36548C17.8466 9.46163 18.8659 9.57702 19.9428 9.67317C19.8851 10.1347 19.8659 10.5386 19.8082 11.0001C18.7505 10.9039 17.7312 10.7886 16.6543 10.6924C16.6351 11.0193 16.5774 11.327 16.5582 11.6732C17.8466 11.8078 19.1159 11.9232 20.4235 12.0578C20.3659 12.5386 20.3274 13.0001 20.2697 13.5001C18.1543 13.2886 16.0005 13.0578 13.8274 12.827C14.0389 10.827 14.2312 8.86548 14.4428 6.86548C16.5966 7.09625 18.712 7.30779 20.8851 7.53856C20.8274 8.00009 20.7889 8.46163 20.7312 8.9424C19.4428 8.80779 18.1735 8.6924 16.8659 8.55779C16.8466 8.82702 16.8082 9.09625 16.7889 9.36548Z" fill="black"/>
<path d="M20.5007 12.7118C21.0584 12.4041 21.5777 12.0964 22.0777 11.8079C22.4046 11.981 22.6738 12.1925 23.0007 12.2695C23.3277 12.3656 23.7123 12.3656 24.0777 12.3656C24.2123 12.3656 24.3853 12.1541 24.4046 12.0387C24.4238 11.9425 24.2507 11.7887 24.1161 11.7118C23.8084 11.5579 23.443 11.4618 23.1161 11.3271C22.7315 11.1541 22.3277 11.0002 21.9623 10.7695C20.9623 10.1541 20.8277 9.03868 21.6738 8.36561C22.52 7.65407 23.6353 7.57715 24.8661 7.73099C25.8084 7.86561 26.6738 8.19253 27.4046 8.78868C26.8661 9.09638 26.3277 9.40407 25.8661 9.65407C25.4238 9.51945 25.0777 9.40407 24.693 9.32715C24.4046 9.26945 24.1546 9.34638 24.0584 9.55792C23.9623 9.78868 24.2123 9.9233 24.443 10.0002C25.0392 10.231 25.6161 10.4425 26.2123 10.6925C27.6738 11.3656 27.5969 12.7695 26.693 13.4233C26.0777 13.8848 25.3084 14.0964 24.4238 14.0579C22.8853 14.0579 21.5969 13.6156 20.5007 12.7118Z" fill="black"/>
<path d="M32.1733 10.1156C32.0195 11.6733 31.8656 13.154 31.7118 14.6733C30.8656 14.5963 30.0579 14.5002 29.1541 14.4233C29.3079 12.904 29.4618 11.4233 29.6156 9.8848C28.8656 9.80788 28.2118 9.73096 27.5002 9.67326C27.5579 9.1925 27.5964 8.73096 27.6541 8.23096C29.9233 8.46173 32.1926 8.6925 34.4618 8.92326C34.4041 9.3848 34.3656 9.84634 34.3079 10.3656C33.5964 10.2694 32.9041 10.1925 32.1733 10.1156Z" fill="black"/>
<path d="M32.3649 16.8645C32.6302 16.8645 32.8452 16.6494 32.8452 16.3842C32.8452 16.1189 32.6302 15.9038 32.3649 15.9038C32.0996 15.9038 31.8845 16.1189 31.8845 16.3842C31.8845 16.6494 32.0996 16.8645 32.3649 16.8645Z" stroke="black" stroke-width="0.5" stroke-miterlimit="10"/>
<path d="M33.6168 18.7528L32.8624 18.7267L32.8225 19.8799L32.3968 19.8652L32.4954 17.0145L33.5586 17.0513C33.9203 17.0638 34.1957 17.1465 34.3847 17.2994C34.5752 17.4523 34.6657 17.6685 34.656 17.9478C34.6499 18.1253 34.5901 18.2781 34.4767 18.4062C34.3648 18.5343 34.2115 18.6276 34.0166 18.6862L34.7291 19.9223L34.7282 19.9458L34.2739 19.9301L33.6168 18.7528ZM32.8731 18.4193L33.5237 18.4418C33.734 18.4491 33.9026 18.4066 34.0294 18.3142C34.1578 18.222 34.2247 18.0949 34.2303 17.9331C34.2364 17.7569 34.1815 17.6197 34.0657 17.5216C33.9513 17.4236 33.7824 17.37 33.5589 17.361L32.9104 17.3386L32.8731 18.4193Z" fill="black"/>
<path d="M4.55769 13.673C5.14184 13.673 5.61538 13.1995 5.61538 12.6153C5.61538 12.0312 5.14184 11.5576 4.55769 11.5576C3.97354 11.5576 3.5 12.0312 3.5 12.6153C3.5 13.1995 3.97354 13.673 4.55769 13.673Z" fill="white" stroke="black" stroke-width="2" stroke-miterlimit="10"/>
</svg>
