<svg width="160" height="40" viewBox="0 0 160 40" fill="none" xmlns="http://www.w3.org/2000/svg">
<rect width="160" height="40" rx="3" fill="#DC4E41"/>
<path d="M67.2891 22.8809C67 23.2949 66.5957 23.6055 66.0762 23.8125C65.5605 24.0156 64.959 24.1172 64.2715 24.1172C63.5762 24.1172 62.959 23.9551 62.4199 23.6309C61.8809 23.3027 61.4629 22.8379 61.166 22.2363C60.873 21.6348 60.7227 20.9375 60.7148 20.1445V19.4004C60.7148 18.1152 61.0137 17.1191 61.6113 16.4121C62.2129 15.7051 63.0566 15.3516 64.1426 15.3516C65.0332 15.3516 65.75 15.5801 66.293 16.0371C66.8359 16.4902 67.168 17.1348 67.2891 17.9707H66.1641C65.9531 16.8418 65.2812 16.2773 64.1484 16.2773C63.3945 16.2773 62.8223 16.543 62.4316 17.0742C62.0449 17.6016 61.8496 18.3672 61.8457 19.3711V20.0684C61.8457 21.0254 62.0645 21.7871 62.502 22.3535C62.9395 22.916 63.5312 23.1973 64.2773 23.1973C64.6992 23.1973 65.0684 23.1504 65.3848 23.0566C65.7012 22.9629 65.9629 22.8047 66.1699 22.582V20.666H64.1953V19.752H67.2891V22.8809ZM68.7129 20.7715C68.7129 20.1504 68.834 19.5918 69.0762 19.0957C69.3223 18.5996 69.6621 18.2168 70.0957 17.9473C70.5332 17.6777 71.0312 17.543 71.5898 17.543C72.4531 17.543 73.1504 17.8418 73.6816 18.4395C74.2168 19.0371 74.4844 19.832 74.4844 20.8242V20.9004C74.4844 21.5176 74.3652 22.0723 74.127 22.5645C73.8926 23.0527 73.5547 23.4336 73.1133 23.707C72.6758 23.9805 72.1719 24.1172 71.6016 24.1172C70.7422 24.1172 70.0449 23.8184 69.5098 23.2207C68.9785 22.623 68.7129 21.832 68.7129 20.8477V20.7715ZM69.8027 20.9004C69.8027 21.6035 69.9648 22.168 70.2891 22.5938C70.6172 23.0195 71.0547 23.2324 71.6016 23.2324C72.1523 23.2324 72.5898 23.0176 72.9141 22.5879C73.2383 22.1543 73.4004 21.5488 73.4004 20.7715C73.4004 20.0762 73.2344 19.5137 72.9023 19.084C72.5742 18.6504 72.1367 18.4336 71.5898 18.4336C71.0547 18.4336 70.623 18.6465 70.2949 19.0723C69.9668 19.498 69.8027 20.1074 69.8027 20.9004ZM75.5566 20.7715C75.5566 20.1504 75.6777 19.5918 75.9199 19.0957C76.166 18.5996 76.5059 18.2168 76.9395 17.9473C77.377 17.6777 77.875 17.543 78.4336 17.543C79.2969 17.543 79.9941 17.8418 80.5254 18.4395C81.0605 19.0371 81.3281 19.832 81.3281 20.8242V20.9004C81.3281 21.5176 81.209 22.0723 80.9707 22.5645C80.7363 23.0527 80.3984 23.4336 79.957 23.707C79.5195 23.9805 79.0156 24.1172 78.4453 24.1172C77.5859 24.1172 76.8887 23.8184 76.3535 23.2207C75.8223 22.623 75.5566 21.832 75.5566 20.8477V20.7715ZM76.6465 20.9004C76.6465 21.6035 76.8086 22.168 77.1328 22.5938C77.4609 23.0195 77.8984 23.2324 78.4453 23.2324C78.9961 23.2324 79.4336 23.0176 79.7578 22.5879C80.082 22.1543 80.2441 21.5488 80.2441 20.7715C80.2441 20.0762 80.0781 19.5137 79.7461 19.084C79.418 18.6504 78.9805 18.4336 78.4336 18.4336C77.8984 18.4336 77.4668 18.6465 77.1387 19.0723C76.8105 19.498 76.6465 20.1074 76.6465 20.9004ZM82.4297 20.7773C82.4297 19.7891 82.6582 19.0039 83.1152 18.4219C83.5723 17.8359 84.1777 17.543 84.9316 17.543C85.7051 17.543 86.3086 17.8164 86.7422 18.3633L86.7949 17.6602H87.7852V23.8477C87.7852 24.668 87.541 25.3145 87.0527 25.7871C86.5684 26.2598 85.916 26.4961 85.0957 26.4961C84.6387 26.4961 84.1914 26.3984 83.7539 26.2031C83.3164 26.0078 82.9824 25.7402 82.752 25.4004L83.3145 24.75C83.7793 25.3242 84.3477 25.6113 85.0195 25.6113C85.5469 25.6113 85.957 25.4629 86.25 25.166C86.5469 24.8691 86.6953 24.4512 86.6953 23.9121V23.3672C86.2617 23.8672 85.6699 24.1172 84.9199 24.1172C84.1777 24.1172 83.5762 23.8184 83.1152 23.2207C82.6582 22.623 82.4297 21.8086 82.4297 20.7773ZM83.5195 20.9004C83.5195 21.6152 83.666 22.1777 83.959 22.5879C84.252 22.9941 84.6621 23.1973 85.1895 23.1973C85.873 23.1973 86.375 22.8867 86.6953 22.2656V19.3711C86.3633 18.7656 85.8652 18.4629 85.2012 18.4629C84.6738 18.4629 84.2617 18.668 83.9648 19.0781C83.668 19.4883 83.5195 20.0957 83.5195 20.9004ZM90.6035 24H89.5195V15H90.6035V24ZM94.9746 24.1172C94.1152 24.1172 93.416 23.8359 92.877 23.2734C92.3379 22.707 92.0684 21.9512 92.0684 21.0059V20.8066C92.0684 20.1777 92.1875 19.6172 92.4258 19.125C92.668 18.6289 93.0039 18.2422 93.4336 17.9648C93.8672 17.6836 94.3359 17.543 94.8398 17.543C95.6641 17.543 96.3047 17.8145 96.7617 18.3574C97.2188 18.9004 97.4473 19.6777 97.4473 20.6895V21.1406H93.1523C93.168 21.7656 93.3496 22.2715 93.6973 22.6582C94.0488 23.041 94.4941 23.2324 95.0332 23.2324C95.416 23.2324 95.7402 23.1543 96.0059 22.998C96.2715 22.8418 96.5039 22.6348 96.7031 22.377L97.3652 22.8926C96.834 23.709 96.0371 24.1172 94.9746 24.1172ZM94.8398 18.4336C94.4023 18.4336 94.0352 18.5938 93.7383 18.9141C93.4414 19.2305 93.2578 19.6758 93.1875 20.25H96.3633V20.168C96.332 19.6172 96.1836 19.1914 95.918 18.8906C95.6523 18.5859 95.293 18.4336 94.8398 18.4336Z" fill="white"/>
<path d="M20.0055 19.909C19.9289 23.6211 22.4857 27.1636 26.0028 28.3189C29.3157 29.4319 33.3889 28.5993 35.5934 25.7621C37.2029 23.7742 37.5687 21.1239 37.3945 18.6479C34.5573 18.6225 31.7202 18.631 28.8873 18.6352C28.8826 19.6459 28.8873 20.6528 28.8915 21.6635C30.5902 21.7104 32.2894 21.6889 33.9881 21.7231C33.5593 23.1927 32.5824 24.5603 31.0998 25.091C28.2373 26.3525 24.5848 24.7045 23.6841 21.7016C22.5969 18.826 24.3767 15.3558 27.3154 14.5193C29.1376 13.8782 31.0148 14.6001 32.574 15.5473C33.3639 14.8081 34.1031 14.0182 34.8292 13.2198C33.0578 11.7376 30.7814 10.8288 28.4411 11.0284C23.8495 11.083 19.8312 15.322 20.0055 19.909Z" fill="#DC4E41"/>
<path d="M42.9161 16.0855C42.9076 16.9309 42.8988 17.7804 42.8945 18.6254C42.045 18.6338 41.2 18.6381 40.3547 18.6423C40.3547 19.4876 40.3547 20.3284 40.3547 21.1737C41.2 21.1779 42.0496 21.1822 42.8945 21.191C42.903 22.0363 42.903 22.8813 42.9114 23.7308C43.7526 23.7308 44.5979 23.7266 45.4428 23.7308C45.4475 22.8813 45.4513 22.0363 45.4602 21.1868C46.3051 21.1825 47.1547 21.1783 48 21.1741C48 20.3287 48 19.488 48 18.6427C47.1551 18.6385 46.3055 18.6342 45.4602 18.6258C45.4555 17.7804 45.4475 16.9309 45.4428 16.0859C44.5979 16.0855 43.7568 16.0855 42.9161 16.0855Z" fill="#DC4E41"/>
<path d="M20.0055 19.9084C19.8312 15.3213 23.8491 11.0824 28.4407 11.0274C30.781 10.8278 33.0578 11.7366 34.8288 13.2188C34.1023 14.0176 33.3632 14.8071 32.5736 15.5463C31.0144 14.5991 29.1372 13.8772 27.315 14.5183C24.376 15.3552 22.5961 18.8254 23.6837 21.7006C24.5844 24.7035 28.2369 26.3515 31.0994 25.09C32.5817 24.5593 33.5589 23.1917 33.9877 21.7221C32.289 21.6883 30.5899 21.7094 28.8911 21.6625C28.8869 20.6518 28.8826 19.6449 28.8869 18.6342C31.7198 18.63 34.5569 18.6215 37.3941 18.6469C37.5683 21.1233 37.2029 23.7735 35.593 25.7611C33.3885 28.5983 29.3157 29.4309 26.0024 28.3179C22.4861 27.163 19.9289 23.6205 20.0055 19.9084Z" fill="white"/>
<path d="M42.9161 16.0855C43.7572 16.0855 44.5979 16.0855 45.4428 16.0855C45.4475 16.9309 45.4555 17.7804 45.4602 18.6254C46.3051 18.6338 47.1547 18.6381 48 18.6423C48 19.4876 48 20.3284 48 21.1737C47.1551 21.1779 46.3055 21.1822 45.4602 21.1864C45.4517 22.0359 45.4475 22.8809 45.4428 23.7305C44.5979 23.7262 43.7522 23.7305 42.9114 23.7305C42.9034 22.8809 42.9034 22.0359 42.8945 21.1906C42.0496 21.1818 41.2 21.1779 40.3547 21.1733C40.3547 20.328 40.3547 19.4872 40.3547 18.6419C41.2 18.6377 42.0453 18.6335 42.8945 18.625C42.8988 17.7804 42.9072 16.9309 42.9161 16.0855Z" fill="white"/>
</svg>
