<svg width="160" height="40" viewBox="0 0 160 40" fill="none" xmlns="http://www.w3.org/2000/svg">
<rect width="160" height="40" rx="3" fill="#475993"/>
<path d="M64.6953 20.2324H61.1152V24H59.9902V15.4688H65.2754V16.3945H61.1152V19.3125H64.6953V20.2324ZM70.168 24C70.1055 23.875 70.0547 23.6523 70.0156 23.332C69.5117 23.8555 68.9102 24.1172 68.2109 24.1172C67.5859 24.1172 67.0723 23.9414 66.6699 23.5898C66.2715 23.2344 66.0723 22.7852 66.0723 22.2422C66.0723 21.582 66.3223 21.0703 66.8223 20.707C67.3262 20.3398 68.0332 20.1562 68.9434 20.1562H69.998V19.6582C69.998 19.2793 69.8848 18.9785 69.6582 18.7559C69.4316 18.5293 69.0977 18.416 68.6562 18.416C68.2695 18.416 67.9453 18.5137 67.6836 18.709C67.4219 18.9043 67.291 19.1406 67.291 19.418H66.2012C66.2012 19.1016 66.3125 18.7969 66.5352 18.5039C66.7617 18.207 67.0664 17.9727 67.4492 17.8008C67.8359 17.6289 68.2598 17.543 68.7207 17.543C69.4512 17.543 70.0234 17.7266 70.4375 18.0938C70.8516 18.457 71.0664 18.959 71.082 19.5996V22.5176C71.082 23.0996 71.1562 23.5625 71.3047 23.9062V24H70.168ZM68.3691 23.1738C68.709 23.1738 69.0312 23.0859 69.3359 22.9102C69.6406 22.7344 69.8613 22.5059 69.998 22.2246V20.9238H69.1484C67.8203 20.9238 67.1562 21.3125 67.1562 22.0898C67.1562 22.4297 67.2695 22.6953 67.4961 22.8867C67.7227 23.0781 68.0137 23.1738 68.3691 23.1738ZM75.3242 23.2324C75.7109 23.2324 76.0488 23.1152 76.3379 22.8809C76.627 22.6465 76.7871 22.3535 76.8184 22.002H77.8438C77.8242 22.3652 77.6992 22.7109 77.4688 23.0391C77.2383 23.3672 76.9297 23.6289 76.543 23.8242C76.1602 24.0195 75.7539 24.1172 75.3242 24.1172C74.4609 24.1172 73.7734 23.8301 73.2617 23.2559C72.7539 22.6777 72.5 21.8887 72.5 20.8887V20.707C72.5 20.0898 72.6133 19.541 72.8398 19.0605C73.0664 18.5801 73.3906 18.207 73.8125 17.9414C74.2383 17.6758 74.7402 17.543 75.3184 17.543C76.0293 17.543 76.6191 17.7559 77.0879 18.1816C77.5605 18.6074 77.8125 19.1602 77.8438 19.8398H76.8184C76.7871 19.4297 76.6309 19.0938 76.3496 18.832C76.0723 18.5664 75.7285 18.4336 75.3184 18.4336C74.7676 18.4336 74.3398 18.6328 74.0352 19.0312C73.7344 19.4258 73.584 19.998 73.584 20.748V20.9531C73.584 21.6836 73.7344 22.2461 74.0352 22.6406C74.3359 23.0352 74.7656 23.2324 75.3242 23.2324ZM81.6934 24.1172C80.834 24.1172 80.1348 23.8359 79.5957 23.2734C79.0566 22.707 78.7871 21.9512 78.7871 21.0059V20.8066C78.7871 20.1777 78.9062 19.6172 79.1445 19.125C79.3867 18.6289 79.7227 18.2422 80.1523 17.9648C80.5859 17.6836 81.0547 17.543 81.5586 17.543C82.3828 17.543 83.0234 17.8145 83.4805 18.3574C83.9375 18.9004 84.166 19.6777 84.166 20.6895V21.1406H79.8711C79.8867 21.7656 80.0684 22.2715 80.416 22.6582C80.7676 23.041 81.2129 23.2324 81.752 23.2324C82.1348 23.2324 82.459 23.1543 82.7246 22.998C82.9902 22.8418 83.2227 22.6348 83.4219 22.377L84.084 22.8926C83.5527 23.709 82.7559 24.1172 81.6934 24.1172ZM81.5586 18.4336C81.1211 18.4336 80.7539 18.5938 80.457 18.9141C80.1602 19.2305 79.9766 19.6758 79.9062 20.25H83.082V20.168C83.0508 19.6172 82.9023 19.1914 82.6367 18.8906C82.3711 18.5859 82.0117 18.4336 81.5586 18.4336ZM90.793 20.9004C90.793 21.8691 90.5703 22.6484 90.125 23.2383C89.6797 23.8242 89.082 24.1172 88.332 24.1172C87.5312 24.1172 86.9121 23.834 86.4746 23.2676L86.4219 24H85.4258V15H86.5098V18.3574C86.9473 17.8145 87.5508 17.543 88.3203 17.543C89.0898 17.543 89.6934 17.834 90.1309 18.416C90.5723 18.998 90.793 19.7949 90.793 20.8066V20.9004ZM89.709 20.7773C89.709 20.0391 89.5664 19.4688 89.2812 19.0664C88.9961 18.6641 88.5859 18.4629 88.0508 18.4629C87.3359 18.4629 86.8223 18.7949 86.5098 19.459V22.2012C86.8418 22.8652 87.3594 23.1973 88.0625 23.1973C88.582 23.1973 88.9863 22.9961 89.2754 22.5938C89.5645 22.1914 89.709 21.5859 89.709 20.7773ZM91.877 20.7715C91.877 20.1504 91.998 19.5918 92.2402 19.0957C92.4863 18.5996 92.8262 18.2168 93.2598 17.9473C93.6973 17.6777 94.1953 17.543 94.7539 17.543C95.6172 17.543 96.3145 17.8418 96.8457 18.4395C97.3809 19.0371 97.6484 19.832 97.6484 20.8242V20.9004C97.6484 21.5176 97.5293 22.0723 97.291 22.5645C97.0566 23.0527 96.7188 23.4336 96.2773 23.707C95.8398 23.9805 95.3359 24.1172 94.7656 24.1172C93.9062 24.1172 93.209 23.8184 92.6738 23.2207C92.1426 22.623 91.877 21.832 91.877 20.8477V20.7715ZM92.9668 20.9004C92.9668 21.6035 93.1289 22.168 93.4531 22.5938C93.7812 23.0195 94.2188 23.2324 94.7656 23.2324C95.3164 23.2324 95.7539 23.0176 96.0781 22.5879C96.4023 22.1543 96.5645 21.5488 96.5645 20.7715C96.5645 20.0762 96.3984 19.5137 96.0664 19.084C95.7383 18.6504 95.3008 18.4336 94.7539 18.4336C94.2188 18.4336 93.7871 18.6465 93.459 19.0723C93.1309 19.498 92.9668 20.1074 92.9668 20.9004ZM98.7207 20.7715C98.7207 20.1504 98.8418 19.5918 99.084 19.0957C99.3301 18.5996 99.6699 18.2168 100.104 17.9473C100.541 17.6777 101.039 17.543 101.598 17.543C102.461 17.543 103.158 17.8418 103.689 18.4395C104.225 19.0371 104.492 19.832 104.492 20.8242V20.9004C104.492 21.5176 104.373 22.0723 104.135 22.5645C103.9 23.0527 103.562 23.4336 103.121 23.707C102.684 23.9805 102.18 24.1172 101.609 24.1172C100.75 24.1172 100.053 23.8184 99.5176 23.2207C98.9863 22.623 98.7207 21.832 98.7207 20.8477V20.7715ZM99.8105 20.9004C99.8105 21.6035 99.9727 22.168 100.297 22.5938C100.625 23.0195 101.062 23.2324 101.609 23.2324C102.16 23.2324 102.598 23.0176 102.922 22.5879C103.246 22.1543 103.408 21.5488 103.408 20.7715C103.408 20.0762 103.242 19.5137 102.91 19.084C102.582 18.6504 102.145 18.4336 101.598 18.4336C101.062 18.4336 100.631 18.6465 100.303 19.0723C99.9746 19.498 99.8105 20.1074 99.8105 20.9004ZM107.621 21.0645L106.941 21.7734V24H105.857V15H106.941V20.4434L107.521 19.7461L109.496 17.6602H110.814L108.348 20.3086L111.102 24H109.83L107.621 21.0645Z" fill="white"/>
<g clip-path="url(#clip0)">
<path d="M40.7659 8H23.2342C21.4482 8 20.0002 9.44791 20.0002 11.234V28.7658C20.0002 30.552 21.4481 31.9999 23.2342 31.9999H31.8808L31.8955 23.4236H29.6674C29.3778 23.4236 29.1428 23.1895 29.1417 22.8999L29.131 20.1354C29.1299 19.8443 29.3656 19.6077 29.6568 19.6077H31.8808V16.9365C31.8808 13.8366 33.7741 12.1487 36.5394 12.1487H38.8085C39.0988 12.1487 39.3343 12.3841 39.3343 12.6744V15.0055C39.3343 15.2957 39.099 15.531 38.8088 15.5312L37.4163 15.5319C35.9124 15.5319 35.6212 16.2465 35.6212 17.2952V19.6078H38.9257C39.2406 19.6078 39.4848 19.8827 39.4477 20.1954L39.1201 22.9599C39.0887 23.2244 38.8644 23.4237 38.598 23.4237H35.6359L35.6212 32H40.766C42.5521 32 44 30.5521 44 28.766V11.234C44 9.44791 42.552 8 40.7659 8Z" fill="white"/>
</g>
<defs>
<clipPath id="clip0">
<rect width="24" height="24" fill="white" transform="translate(20 8)"/>
</clipPath>
</defs>
</svg>
