<svg width="129" height="129" viewBox="0 0 129 129" fill="none" xmlns="http://www.w3.org/2000/svg">
<path d="M64.5 0C28.8775 0 0 28.8778 0 64.5C0 93.5281 19.1756 118.077 45.5507 126.172L128.232 54.5162C123.433 23.6345 96.7267 0 64.5 0Z" fill="#49B391"/>
<path d="M128.23 54.5171L100.957 27.2434L96.7772 32.2225L78.093 13.5382L59.7326 11.4978L49.3566 18.7891L28.0435 108.66L45.5527 126.17C51.5442 128.008 57.9062 129 64.5 129C100.123 129 129 100.122 129 64.5C129 61.1045 128.736 57.7709 128.23 54.5171Z" fill="#236852"/>
<path d="M64.3878 7.85217L61.5835 10.6565L64.3878 13.4609C71.9876 13.4609 78.1704 19.6436 78.1704 27.2434V47.9518H83.7791V27.2434C83.7791 16.551 75.0803 7.85217 64.3878 7.85217Z" fill="#DBA510"/>
<path d="M64.3878 13.4609C56.788 13.4609 50.6053 19.6436 50.6053 27.2434V47.9518H44.9966V27.2434C44.9966 16.551 53.6954 7.85217 64.3878 7.85217V13.4609Z" fill="#DBA510"/>
<path d="M100.683 27.0585H28.3171V108.863H100.683V27.0585Z" fill="#DBA510"/>
<path d="M95.3476 67.9518C95.3476 84.9885 81.5367 98.7994 64.5 98.7994L49.0761 67.9518L64.5 37.1043C81.5367 37.1043 95.3476 50.9152 95.3476 67.9518Z" fill="#940030"/>
<path d="M33.6525 67.9518C33.6525 84.9885 47.4633 98.7994 64.5 98.7994V37.1043C47.4633 37.1043 33.6525 50.9152 33.6525 67.9518Z" fill="#FF0F27"/>
<path d="M64.5 93.1907L61.8432 66.6235L89.7389 67.9519C89.7389 81.869 78.4172 93.1907 64.5 93.1907Z" fill="#236852"/>
<path d="M64.5 42.713C78.4172 42.713 89.7389 54.0347 89.7389 67.9519H61.8432L64.5 42.713Z" fill="#C2FBFF"/>
<path d="M64.5 67.9519V93.1907C50.5829 93.1907 39.2612 81.869 39.2612 67.9519L51.8807 63.9669L64.5 67.9519Z" fill="#C2FBFF"/>
<path d="M64.5 42.713V67.9519H39.2612C39.2612 54.0344 50.5829 42.713 64.5 42.713Z" fill="white"/>
<path d="M67.3044 48.3217H61.6957V67.9522H67.3044V48.3217Z" fill="#FF0F27"/>
<path d="M84.1304 65.1478H64.5V70.7565H84.1304V65.1478Z" fill="#C2001B"/>
<path d="M64.5 72.1584C66.8232 72.1584 68.7066 70.2751 68.7066 67.9519C68.7066 65.6287 66.8232 63.7454 64.5 63.7454C62.1768 63.7454 60.2935 65.6287 60.2935 67.9519C60.2935 70.2751 62.1768 72.1584 64.5 72.1584Z" fill="#61A2B3"/>
</svg>
