<svg width="136" height="16" viewBox="0 0 136 16" fill="none" xmlns="http://www.w3.org/2000/svg">
<path d="M46.7972 3.6247L42.6438 13.0642C42.3418 13.7439 42.0397 14.4235 41.7376 15.1032C41.6621 15.3297 41.5866 15.7073 41.209 15.7073C40.8314 15.7073 40.8314 15.3297 40.6804 15.1032L37.2822 7.24948C36.7536 5.9657 36.1494 4.75744 35.4698 3.47367V8.53325C35.4698 10.6477 35.4698 12.7622 35.4698 14.8766C35.4698 15.4052 35.3943 15.6318 34.7902 15.6318C34.2615 15.6318 34.1105 15.4052 34.1105 14.8766C34.1105 10.7232 34.1105 6.56983 34.1105 2.49195C34.1105 2.11437 33.7329 1.35921 34.4881 1.35921C35.1677 1.35921 35.9984 0.981636 36.4515 2.18989C37.6598 5.21054 39.0191 8.23118 40.3783 11.1763C40.6049 11.7804 40.907 12.3846 41.2845 13.1397L44.2297 6.26776C44.8338 4.83296 45.5134 3.47367 46.0421 1.96334C46.4196 0.906117 47.3258 1.35921 47.93 1.35921C48.6096 1.35921 48.3075 2.03886 48.3075 2.34092C48.3075 6.49431 48.3075 10.6477 48.3075 14.7256C48.3075 15.2542 48.4586 15.7073 47.6279 15.7073C46.7972 15.7073 46.9483 15.1787 46.9483 14.7256V3.6247H46.7972Z" fill="black"/>
<path d="M86.3677 8.53333C86.3677 6.49439 86.3677 4.45546 86.3677 2.41652C86.3677 1.96342 86.2166 1.43481 87.0473 1.43481C87.878 1.43481 87.727 1.96342 87.727 2.41652C87.727 4.00236 87.727 5.51269 87.727 7.09853C87.727 7.70266 87.878 7.85369 88.4821 7.85369C91.1252 7.85369 93.8438 7.85369 96.5624 7.85369C97.1665 7.85369 97.3175 7.70266 97.3175 7.09853C97.3175 5.51269 97.3175 3.85133 97.3175 2.26549C97.3175 1.73688 97.3175 1.51033 97.9972 1.43481C98.6013 1.43481 98.6768 1.73688 98.6768 2.26549C98.6768 6.56991 98.6768 10.7988 98.6768 15.1032C98.6768 15.6319 98.6768 15.8584 97.9972 15.8584C97.393 15.8584 97.3175 15.7074 97.3175 15.1788C97.3175 13.3664 97.3175 11.6295 97.3175 9.81711C97.3175 9.28849 97.1665 9.06195 96.5624 9.06195C93.9193 9.06195 91.2007 9.06195 88.4821 9.06195C87.878 9.06195 87.6514 9.13746 87.727 9.81711C87.727 11.554 87.727 13.2153 87.727 14.9522C87.727 15.4053 87.878 15.8584 87.0473 15.9339C86.2166 15.9339 86.3677 15.4053 86.3677 14.9522C86.3677 12.6867 86.3677 10.6478 86.3677 8.53333Z" fill="black"/>
<path d="M76.551 15.9339C74.6631 15.9339 72.8507 15.4052 71.4914 14.1215C71.1138 13.8194 70.9628 13.5929 71.4159 13.1398C71.869 12.6867 71.9445 12.7622 72.3976 13.1398C73.9835 14.6501 76.3245 15.1787 78.4389 14.4991C79.6472 14.2725 80.5534 13.2153 80.5534 12.007C80.5534 10.7988 79.8737 10.0436 78.741 9.5905C77.6082 9.06189 76.3244 8.91086 75.1917 8.45776C74.5876 8.30673 73.9834 8.08018 73.3793 7.77811C70.9628 6.56986 70.8118 3.54921 73.0017 2.03889C75.2672 0.528565 79.1941 0.830633 81.082 2.5675C81.3085 2.79405 81.7616 3.0206 81.233 3.4737C80.8554 3.85128 80.7044 4.00231 80.1758 3.54921C78.6654 2.26544 76.8531 1.96337 74.9652 2.41647C74.5121 2.49198 74.1345 2.71854 73.7569 3.0206C72.4731 4.07783 72.6242 5.66366 74.059 6.49434C75.1162 7.09847 76.3244 7.32502 77.4572 7.62708C78.4389 7.77812 79.3451 8.1557 80.1003 8.68431C81.9126 9.66602 82.4413 11.9315 81.384 13.6684C81.082 14.197 80.6289 14.6501 80.1003 14.9522C79.043 15.7828 77.7593 16.0094 76.551 15.9339Z" fill="black"/>
<path d="M8.35965 7.09844C8.35965 8.68428 8.35965 10.1946 8.35965 11.7804C8.35965 13.9704 7.15139 15.4052 4.96143 15.8583C3.37559 16.2359 1.63872 15.8583 0.35494 14.7256C-0.0226406 14.348 -0.173673 14.1214 0.279424 13.5928C0.732521 13.0642 0.95907 13.4418 1.26113 13.6683C2.77146 15.1031 5.03694 15.1031 6.32072 13.6683C7.00036 12.9132 7.1514 11.9315 7.1514 10.9498C7.1514 8.00463 7.1514 5.0595 7.1514 2.11437C7.1514 1.73679 7.00036 1.28369 7.68001 1.28369C8.20862 1.28369 8.43517 1.35921 8.43517 1.96334C8.28414 3.77573 8.35965 5.43708 8.35965 7.09844Z" fill="black"/>
<path d="M112.194 0C107.739 0 104.114 3.47374 104.114 7.9292C104.114 12.3091 107.588 15.9339 111.968 15.9339C116.348 15.9339 119.973 12.4602 120.048 8.08023C120.124 3.70029 116.574 0.0755162 112.194 0ZM112.194 14.4236C108.645 14.4236 105.7 11.4785 105.7 7.9292C105.7 4.37994 108.645 1.51032 112.194 1.51032C115.744 1.51032 118.613 4.37994 118.613 7.9292C118.613 11.4785 115.744 14.4236 112.194 14.4236Z" fill="black"/>
<path d="M21.2728 1.20825C16.8928 1.20825 13.7967 4.30442 13.8722 8.60884C13.8722 12.9888 16.9684 15.9339 21.2728 15.9339C25.5772 15.9339 28.6734 12.8377 28.6734 8.60884C28.6734 4.2289 25.6527 1.20825 21.2728 1.20825ZM21.2728 14.8767C17.799 14.8767 15.2315 12.2336 15.2315 8.53332C15.2315 4.90854 17.648 2.34099 21.2728 2.34099C24.8976 2.34099 27.3141 4.83303 27.3141 8.60884C27.2386 12.3091 24.671 14.8767 21.2728 14.8767Z" fill="black"/>
<path d="M60.9187 1.88783C60.6922 1.28371 60.0881 1.66129 59.635 1.51025C59.2574 1.51025 58.9553 1.58577 58.8043 2.03886C58.2757 3.32264 57.7471 4.5309 57.2185 5.81467C55.8592 8.91083 54.4999 12.007 53.1406 15.1032C53.0651 15.3297 52.612 15.7828 53.1406 15.8583C53.6692 15.9338 54.3488 16.0849 54.5754 15.2542C54.7264 14.5745 55.104 13.9704 55.4061 13.2908C55.4816 12.6866 56.0857 12.3091 56.6898 12.3846C58.2757 12.5356 59.786 12.5356 61.3718 12.3846C63.3353 12.158 64.3925 12.7622 64.7701 14.6501C64.9966 15.6318 65.6007 16.2359 66.8845 15.7828C64.9211 11.0253 62.8822 6.4188 60.9187 1.88783ZM56.7654 11.1763C56.1612 11.1763 56.6143 10.6477 56.6898 10.4967C57.5205 8.53326 58.3512 6.56983 59.1819 4.60642C59.4084 4.0778 59.635 3.54919 59.937 2.86954L63.1842 10.4967C63.1842 10.6477 63.2597 10.7987 63.3353 11.1008C61.0698 11.1763 58.8798 11.1763 56.7654 11.1763Z" fill="black"/>
<path d="M131.451 1.35938C129.789 1.35938 128.053 1.35938 126.391 1.35938C125.787 1.35938 125.561 1.51041 125.561 2.19006C125.561 4.38003 125.561 6.49448 125.561 8.60893C125.561 10.7234 125.561 12.9134 125.561 15.0278C125.561 15.5564 125.712 15.7074 126.24 15.7074C126.769 15.7074 126.995 15.7074 126.995 15.0278C126.995 13.5175 126.995 12.0072 126.995 10.4968C126.995 9.96822 127.146 9.81719 127.675 9.81719C129.034 9.81719 130.469 9.81719 131.828 9.81719C134.471 9.66615 135.982 7.77825 135.906 5.43725C135.831 3.09625 134.018 1.35938 131.451 1.35938ZM131.602 8.53341C130.243 8.60893 128.883 8.53341 127.524 8.60893C127.071 8.60893 126.844 8.4579 126.92 8.0048C126.92 7.24964 126.92 6.41896 126.92 5.58828C126.92 4.75761 126.92 4.00244 126.92 3.17176C126.92 2.64315 127.071 2.49212 127.599 2.49212C128.883 2.49212 130.092 2.49212 131.375 2.49212C133.188 2.49212 134.471 3.77589 134.471 5.36173C134.622 7.0986 133.414 8.45789 131.602 8.53341Z" fill="black"/>
<path d="M112.723 9.51516C110.91 9.51516 110.91 9.51516 110.91 7.70278C110.91 6.94761 110.91 6.11694 110.91 5.36178C110.91 4.98419 111.061 4.68213 111.515 4.68213C111.968 4.68213 112.119 4.98419 112.119 5.36178C112.119 6.11694 112.119 6.79658 112.119 7.62726C112.119 8.23139 112.27 8.45794 112.949 8.38242C113.251 8.38242 113.629 8.38242 113.931 8.38242C114.309 8.38242 114.611 8.53346 114.611 8.98655C114.611 9.43965 114.309 9.51516 113.931 9.51516H112.723Z" fill="black"/>
</svg>
