<svg width="51" height="24" viewBox="0 0 51 24" fill="none" xmlns="http://www.w3.org/2000/svg">
<path d="M21.435 13.8426C21.4734 13.996 21.5117 14.1494 21.5884 14.3028C21.6267 14.4178 21.7418 14.5712 21.8185 14.5712C21.9335 14.5712 22.0485 14.4945 22.1252 14.3795C22.3936 14.0344 22.3936 14.0344 22.7004 14.3028C22.8538 14.4562 22.9688 14.4178 23.0455 14.2261C23.0839 14.1878 23.0839 14.1494 23.0839 14.0727C23.1989 13.766 23.3139 13.7276 23.544 13.9577C23.7741 14.2261 24.0425 14.0344 24.0808 13.8043C24.1192 13.4975 24.2342 13.4592 24.5026 13.6509C24.6944 13.766 24.8477 13.6893 24.8861 13.4975C24.9244 13.2675 24.8861 13.0374 24.7327 12.884C24.5026 12.6923 24.2342 12.5006 23.9658 12.3855C23.7357 12.2705 23.429 12.2321 23.1989 12.1555C23.0455 12.1171 22.8921 12.0788 22.9305 11.8487C23.0072 11.8487 23.1222 11.8487 23.1989 11.887C24.3876 12.0788 25.5763 12.1555 26.8033 12.0021C27.9921 11.887 29.1041 11.6186 30.2161 11.1585C30.2928 11.1201 30.3695 11.1201 30.4461 11.1201C32.21 11.4269 33.9739 11.4652 35.7378 11.3885C36.1596 11.3502 36.6197 11.3119 37.0415 11.2352C37.31 11.1968 37.5784 11.0818 37.7701 10.8517C37.9618 10.6216 37.9235 10.4683 37.6934 10.3149C37.6167 10.2765 37.5017 10.2382 37.4633 10.1615C37.3866 10.0465 37.2716 10.0465 37.1566 10.1232C37.0415 10.1998 36.8882 10.1998 36.8498 10.0465C36.7731 9.85474 36.6964 9.81639 36.5047 9.93143C36.3897 10.0081 36.2746 10.0081 36.2363 9.85474C36.1596 9.66301 36.0446 9.62467 35.8912 9.7397C35.7761 9.81639 35.6995 9.81639 35.6228 9.66301C35.5461 9.47128 35.431 9.43294 35.2777 9.54797C35.1626 9.62467 35.0476 9.62467 35.0092 9.47128C34.9325 9.27956 34.8175 9.27956 34.6641 9.35625C34.5107 9.43294 34.4341 9.3946 34.3574 9.24121C34.319 9.08783 34.204 9.08783 34.0506 9.12618C33.8972 9.16452 33.7438 9.16452 33.6288 9.16452C33.207 9.12618 32.8619 8.89611 32.5168 8.66603C32.3634 8.551 32.2484 8.47431 32.21 8.28258C32.3251 8.24424 32.4401 8.24424 32.5168 8.20589C32.6702 8.1292 32.7852 8.16754 32.9002 8.24423C33.092 8.39762 33.1687 8.35927 33.207 8.1292C33.2837 7.86078 33.3604 7.82244 33.5905 7.97582C33.7822 8.1292 33.8589 8.09085 33.9356 7.86078C34.0123 7.59236 34.0889 7.55402 34.319 7.74575C34.5107 7.86078 34.5874 7.86078 34.6258 7.63071C34.7025 7.32395 34.7408 7.32395 35.0092 7.51568C35.1626 7.63071 35.2393 7.59237 35.316 7.40064C35.3927 7.09388 35.431 7.05553 35.6995 7.24726C35.8528 7.36229 35.9295 7.32395 36.0062 7.13222C36.0829 6.82546 36.1213 6.78712 36.3897 6.97884C36.5814 7.09388 36.6197 7.05553 36.6964 6.8638C36.7731 6.55704 36.8115 6.5187 37.1182 6.71042C37.2716 6.82546 37.3483 6.78712 37.425 6.59539C37.4633 6.48035 37.54 6.40366 37.6167 6.32697C37.8468 6.17359 37.9235 6.02021 37.7701 5.75179C37.6551 5.56006 37.4633 5.44503 37.2333 5.44503C37.0415 5.44503 36.8882 5.48337 36.6964 5.52172C35.5844 5.75179 34.5107 6.02021 33.3987 6.28863C33.2837 6.32697 33.207 6.28863 33.1303 6.17359C32.9002 5.82848 32.7085 5.79014 32.2867 5.86683C32.0183 5.90517 31.7115 5.90517 31.4815 5.86683C31.1364 5.79014 30.8296 5.79014 30.5228 5.90517C30.2928 6.02021 30.101 6.13524 29.871 6.25028C29.6792 6.36532 29.4875 6.36532 29.2958 6.32697C29.0274 6.28862 28.7206 6.28863 28.4522 6.36532C28.0304 6.55704 27.6086 6.5187 27.1868 6.36532C25.0395 5.6751 22.8154 5.48337 20.5914 5.94352C19.9779 6.05855 19.4027 6.25028 18.7892 6.40366C18.3674 6.5187 17.9456 6.59539 17.4854 6.48035C17.3321 6.44201 17.1403 6.32697 17.102 6.17359C16.987 5.98186 17.1403 5.82848 17.2937 5.71345C17.5621 5.52172 17.8306 5.32999 18.1373 5.17661C18.9809 4.79316 19.8629 4.56309 20.7448 4.33302C22.1252 3.98791 23.5057 3.6428 24.8094 3.02928C25.6913 2.60748 26.5349 2.10899 27.1868 1.38043C27.4552 1.07367 27.6853 0.72856 27.762 0.306762C27.8003 0.191726 27.762 0.115036 27.762 0C27.7236 0 27.7236 0 27.6853 0C27.6086 0.115036 27.5319 0.230071 27.4552 0.306762C27.3785 0.383453 27.2251 0.498488 27.1101 0.498488C26.8417 0.421798 26.7267 0.536833 26.5733 0.728559C26.4966 0.80525 26.3049 0.881942 26.2282 0.843597C25.9598 0.65187 25.8064 0.80525 25.653 0.996977C25.538 1.15036 25.3846 1.15036 25.2312 1.07367C25.0395 0.958632 24.8861 0.996977 24.7327 1.15036C24.6944 1.1887 24.6177 1.22705 24.5793 1.26539C24.4259 1.45712 24.2726 1.45712 24.0808 1.34208C23.9658 1.22705 23.8124 1.26539 23.6974 1.34208C23.5823 1.45712 23.429 1.53381 23.2756 1.6105C23.1222 1.68719 23.0072 1.68719 22.8921 1.57216C22.8154 1.45712 22.7004 1.45712 22.5854 1.57216C22.432 1.68719 22.3169 1.80223 22.2019 1.91726C21.9718 2.10899 21.8568 2.10899 21.7034 1.80223C21.6267 1.6105 21.5117 1.6105 21.3583 1.72554C21.2049 1.84057 21.0516 1.99395 20.8982 2.10899C20.7064 2.26237 20.5531 2.22403 20.438 2.0323C20.2846 1.80223 20.2463 1.80223 20.0162 1.95561C19.8629 2.07064 19.7095 2.18568 19.5561 2.30072C19.4411 2.37741 19.326 2.37741 19.2493 2.22403C19.1343 2.0323 19.0576 1.99396 18.8275 2.14734C18.6741 2.22403 18.5591 2.37741 18.4441 2.4541C18.329 2.53079 18.214 2.56913 18.099 2.4541C18.0223 2.33906 17.9072 2.33906 17.7922 2.41575C17.6388 2.53079 17.5238 2.64582 17.3704 2.76086C17.2554 2.91424 17.102 2.95259 16.9486 2.79921C16.7952 2.64582 16.6418 2.68417 16.5268 2.83755C16.3351 3.02928 16.1817 3.221 15.99 3.41273C15.9516 3.45107 15.8366 3.48942 15.7983 3.45107C15.6065 3.25935 15.4915 3.37439 15.3765 3.52777C15.1847 3.75784 15.0313 3.98791 14.878 4.17964C14.8396 4.21798 14.6862 4.25633 14.6479 4.25633C14.5329 4.17964 14.4178 4.21798 14.3411 4.29467C14.1877 4.40971 14.0727 4.56309 13.9577 4.71647C13.4208 5.40668 13.0374 6.17359 12.8073 7.01719C12.3472 8.47431 12.3855 9.93143 12.9607 11.3885C13.0374 11.5803 13.1524 11.5803 13.2675 11.5036C13.3442 11.4652 13.3825 11.3885 13.4592 11.3119C13.5359 11.1968 13.5742 11.0434 13.6509 10.9284C13.7276 10.8134 13.8426 10.6983 13.996 10.775C13.9577 10.8517 13.9577 10.9284 13.9193 10.9668C13.766 11.4652 13.5742 11.9637 13.4208 12.4622C13.3825 12.6156 13.3442 12.8073 13.3825 12.9224C13.5359 13.3825 13.766 13.766 14.1494 14.0727C14.3028 14.1878 14.3795 14.1494 14.4178 13.9577C14.4945 13.6509 14.5329 13.6126 14.8396 13.766C14.878 13.8043 14.9547 13.8043 14.993 13.8426C15.2998 13.996 15.3765 13.9577 15.4531 13.6509C15.5298 13.3058 15.6832 13.2291 15.99 13.4208C16.1434 13.4975 16.22 13.4592 16.2967 13.3442C16.4501 13.1141 16.4885 12.8457 16.4885 12.5389C16.4885 12.0788 16.2584 11.8487 15.7599 11.8487C15.6065 11.8487 15.4148 11.8487 15.2231 11.8103C15.2614 11.6953 15.2614 11.6186 15.2998 11.5419C15.3765 11.2735 15.4915 11.0051 15.5298 10.7367C15.6832 10.0081 15.2998 9.50963 14.5712 9.47128C14.4562 9.47128 14.3028 9.43294 14.3028 9.27956C14.3411 9.27956 14.4178 9.24121 14.4562 9.24121C15.108 9.20287 15.7599 9.39459 15.9133 10.1232C15.9516 10.3916 15.9133 10.66 15.9133 10.9284C15.9133 11.1201 15.8366 11.2735 15.7983 11.4652C15.9133 11.4652 15.99 11.5036 16.0667 11.5036C16.4501 11.5036 16.7185 11.657 16.8336 12.0404C16.8336 12.0788 16.9103 12.1555 16.9486 12.1555C17.7155 12.3472 18.4824 12.4622 19.2877 12.4239C19.6328 12.3855 19.9012 12.2705 20.0546 11.9254C20.438 11.1968 21.0899 10.775 21.8568 10.5833C22.0485 10.545 22.2019 10.545 22.3936 10.5066C22.3936 10.545 22.432 10.5833 22.432 10.5833C22.3553 10.66 22.2786 10.7367 22.1636 10.775C22.0485 10.8517 21.8952 10.8517 21.7418 10.8901C21.0516 11.0818 20.5914 11.5036 20.438 12.2705C20.3613 12.6156 20.5147 12.9991 20.8215 13.1524C21.1666 13.3058 21.3583 13.5359 21.435 13.8426ZM32.3251 6.25028C32.4018 6.13524 32.4784 6.02021 32.5935 6.02021C32.6702 6.02021 32.7852 6.17359 32.8619 6.25028C32.8619 6.28863 32.8236 6.28862 32.8236 6.32697C32.7085 6.36532 32.5935 6.40366 32.4784 6.40366C32.3251 6.44201 32.2867 6.36532 32.3251 6.25028ZM31.098 6.21194C31.3281 6.17359 31.5582 6.32697 31.7115 6.59539C31.4431 6.63373 31.1747 6.71042 30.9063 6.71042C30.8679 6.71042 30.7913 6.63373 30.7913 6.55704C30.7146 6.40366 30.9063 6.21194 31.098 6.21194ZM27.7236 8.20589C27.8003 8.16754 27.8003 8.24424 27.8387 8.28258C28.1838 8.62769 28.4138 8.66603 28.8356 8.39762C29.1808 8.20589 29.5259 7.93747 29.9477 7.86078C30.4845 7.78409 31.0213 7.82244 31.5198 8.05251C31.7115 8.1292 31.9033 8.20589 32.095 8.24423C32.1333 8.35927 32.21 8.47431 32.2484 8.551C32.21 8.93445 32.5168 9.3179 32.9769 9.47128C33.8205 9.7397 34.7025 9.96977 35.5844 10.2382C35.8912 10.3149 36.1596 10.3916 36.428 10.5066C36.543 10.545 36.6964 10.5833 36.6581 10.7367C36.5814 10.8901 36.428 10.8134 36.313 10.775C36.2746 10.775 36.2746 10.775 36.2363 10.7367C36.0446 10.545 35.8528 10.545 35.6611 10.775C35.5844 10.8517 35.5077 10.8134 35.431 10.7367C35.3927 10.6983 35.3543 10.6216 35.3543 10.545C35.2393 10.3532 35.1626 10.3532 35.0092 10.4683C34.7792 10.66 34.7408 10.66 34.5874 10.3916C34.4724 10.1615 34.3957 10.1615 34.204 10.3149C34.0123 10.4683 33.9356 10.4683 33.8589 10.2382C33.7055 9.93143 33.6672 9.93143 33.4371 10.1615C33.2837 10.3149 33.207 10.2765 33.092 10.0848C32.9386 9.77805 32.9386 9.77805 32.6318 9.93143C32.4018 10.0465 32.21 10.0081 31.98 9.93143C31.6349 9.81639 31.3664 9.58632 31.098 9.3179C30.8296 9.04949 30.5612 8.78107 30.2928 8.551C29.871 8.24424 29.6409 8.24424 29.1808 8.51265C28.9123 8.70438 28.6439 8.81941 28.2988 8.78107C28.1071 8.74272 27.9154 8.66603 27.762 8.51265C27.6853 8.43596 27.6469 8.35927 27.6469 8.24423C27.6469 8.28258 27.6469 8.24424 27.7236 8.20589ZM26.2665 7.32395C26.4966 7.24726 26.5733 7.32395 26.5349 7.55402C26.5349 7.66906 26.4966 7.74575 26.4582 7.86078C26.2282 7.74575 26.0364 7.63071 25.8064 7.51568C25.9981 7.43899 26.1515 7.3623 26.2665 7.32395ZM25.4229 6.17359C25.6146 6.0969 25.6913 6.17359 25.653 6.36532C25.653 6.48035 25.6146 6.55704 25.5763 6.71042C25.3462 6.59539 25.1545 6.48035 24.9244 6.36532C25.1162 6.28863 25.2695 6.21194 25.4229 6.17359ZM25.2695 7.09388C25.3079 7.09388 25.4229 7.17057 25.4229 7.20891C25.4229 7.32395 25.3846 7.47733 25.3846 7.63071C25.1545 7.51567 24.9628 7.40064 24.771 7.32395C24.771 7.2856 24.771 7.2856 24.771 7.24726C24.9244 7.20891 25.1162 7.13222 25.2695 7.09388ZM25.0778 8.01416C25.1928 7.97582 25.2695 8.05251 25.2312 8.16755C25.2312 8.28258 25.1928 8.43596 25.1545 8.58934C24.9244 8.47431 24.7327 8.35927 24.541 8.28258C24.541 8.24424 24.541 8.24424 24.541 8.20589C24.7327 8.1292 24.8861 8.09085 25.0778 8.01416ZM24.2726 5.94352C24.4259 5.90517 24.5026 5.98186 24.5026 6.13524C24.5026 6.21193 24.5026 6.28862 24.4643 6.32697C24.4259 6.44201 24.3876 6.48035 24.2726 6.40366C24.1192 6.32697 23.9658 6.25028 23.7741 6.13524C23.9658 6.05855 24.1192 6.02021 24.2726 5.94352ZM23.8508 7.01719C23.9658 6.97884 24.1192 6.97884 24.2342 6.97884C24.2342 7.13222 24.2342 7.2856 24.2342 7.43898C24.1959 7.43898 24.1575 7.43898 24.1575 7.43898C23.9658 7.32395 23.7741 7.24726 23.544 7.13222C23.6974 7.09388 23.7741 7.01719 23.8508 7.01719ZM23.8891 7.89913C24.0425 7.86078 24.1192 7.89913 24.1192 8.05251C24.1192 8.16754 24.0808 8.28258 24.0425 8.43596C23.8124 8.32092 23.6207 8.20589 23.3906 8.09086C23.5823 8.01416 23.7357 7.93747 23.8891 7.89913ZM23.0455 5.86683C23.2372 5.79014 23.3139 5.86683 23.2756 6.05855C23.2756 6.17359 23.2372 6.25028 23.1989 6.40366C22.9688 6.28863 22.7771 6.17359 22.547 6.05855C22.7771 5.98186 22.8921 5.90517 23.0455 5.86683ZM22.8538 6.8638C23.0072 6.82546 23.0839 6.86381 23.0839 7.01719C23.0839 7.13222 23.0455 7.24726 23.0072 7.40064C22.7771 7.2856 22.5854 7.17057 22.3553 7.05553C22.547 7.01719 22.7004 6.9405 22.8538 6.8638ZM18.214 3.10597C18.4057 3.06762 18.4824 3.10597 18.4441 3.2977C18.4441 3.41273 18.4057 3.48942 18.3674 3.6428C18.1373 3.52776 17.9456 3.41273 17.7155 3.2977C17.9456 3.221 18.099 3.14431 18.214 3.10597ZM17.3704 3.41273C17.4088 3.41273 17.5238 3.48942 17.5238 3.52777C17.5238 3.68115 17.5238 3.79618 17.4854 3.98791C17.217 3.87287 17.0636 3.75784 16.7952 3.6428C17.0253 3.52776 17.217 3.45107 17.3704 3.41273ZM17.0636 4.37136C17.102 4.37136 17.217 4.44805 17.217 4.52474C17.217 4.63978 17.1787 4.79316 17.1787 4.94654C16.9486 4.8315 16.7569 4.71647 16.5652 4.63978C16.5652 4.60143 16.5652 4.60143 16.5652 4.56309C16.7185 4.4864 16.8719 4.40971 17.0636 4.37136ZM15.99 5.36834C16.2201 5.29165 16.3734 5.21496 16.5268 5.13827C16.6418 5.09992 16.7185 5.17661 16.7185 5.29165C16.7185 5.40668 16.6802 5.56007 16.6802 5.71345C16.4501 5.59841 16.2584 5.52172 15.99 5.36834ZM16.6418 6.36532C16.6418 6.48035 16.6035 6.55704 16.5652 6.71042C16.3351 6.59539 16.1434 6.48035 15.9133 6.36532C16.105 6.28863 16.2584 6.21194 16.4118 6.17359C16.5652 6.0969 16.6418 6.17359 16.6418 6.36532ZM16.2967 3.75784C16.4885 3.68115 16.5652 3.75784 16.5652 3.94956C16.5652 4.0646 16.5268 4.14129 16.4885 4.29467C16.2584 4.17964 16.0667 4.0646 15.8366 3.94956C15.99 3.87287 16.1434 3.79618 16.2967 3.75784ZM15.7983 4.52474C16.0283 4.44805 16.0667 4.52474 16.0667 4.71647C16.0667 4.83151 16.0283 4.9082 15.99 5.06158C15.7599 4.94654 15.5682 4.83151 15.3381 4.71647C15.4915 4.63978 15.6449 4.56309 15.7983 4.52474ZM15.6449 5.59841C15.6449 5.71345 15.6065 5.86683 15.6065 6.05855C15.3765 5.94352 15.1847 5.82848 14.993 5.75179C14.993 5.71345 14.993 5.71345 14.993 5.6751C15.1847 5.59841 15.3381 5.56007 15.5298 5.48338C15.5682 5.48338 15.6449 5.56007 15.6449 5.59841ZM14.8396 4.86985C14.993 4.83151 15.0697 4.9082 15.0697 5.06158C15.0697 5.17661 15.0313 5.29165 14.993 5.44503C14.7629 5.32999 14.5712 5.21496 14.3411 5.09992C14.5329 4.98489 14.6862 4.9082 14.8396 4.86985ZM14.3795 5.86683C14.4178 5.86683 14.5329 5.94352 14.5329 5.98186C14.5329 6.0969 14.4945 6.25028 14.4945 6.44201C14.2644 6.32697 14.0727 6.21194 13.8043 6.0969C14.0344 5.98186 14.1878 5.90517 14.3795 5.86683ZM13.6893 7.05553C13.9193 6.97884 14.0727 6.90215 14.2261 6.8638C14.3795 6.82546 14.4562 6.90215 14.4178 7.01719C14.4178 7.13222 14.3795 7.24726 14.3411 7.40064C14.1111 7.2856 13.9577 7.17057 13.6893 7.05553ZM14.8013 8.24423C14.5712 8.1292 14.3795 8.01416 14.1111 7.89913C14.3411 7.82244 14.4945 7.74575 14.6862 7.7074C14.7246 7.7074 14.8396 7.78409 14.8396 7.82244C14.878 7.89913 14.8396 8.05251 14.8013 8.24423ZM14.8396 6.59539C15.0313 6.5187 15.1847 6.44201 15.3765 6.40366C15.4148 6.40366 15.4915 6.48035 15.4915 6.55704C15.4915 6.67208 15.4531 6.82546 15.4531 6.97884C15.2231 6.86381 15.0313 6.74877 14.8396 6.67208C14.878 6.67208 14.878 6.63373 14.8396 6.59539ZM15.6449 8.89611C15.4148 8.78107 15.2231 8.66603 14.9547 8.551C15.1847 8.47431 15.3381 8.39762 15.5298 8.35927C15.5682 8.35927 15.6832 8.43596 15.6832 8.47431C15.7216 8.58934 15.6832 8.70438 15.6449 8.89611ZM15.9516 7.47733C15.9516 7.59236 15.9133 7.7074 15.8749 7.86078C15.6449 7.74575 15.4531 7.63071 15.2231 7.51568C15.4148 7.43899 15.5682 7.3623 15.7216 7.32395C15.8749 7.24726 15.99 7.2856 15.9516 7.47733ZM16.7185 9.01114C16.7185 9.12618 16.6802 9.20287 16.6418 9.35625C16.4118 9.24121 16.2201 9.12618 15.99 9.01114C16.1817 8.93445 16.2967 8.85776 16.4501 8.81941C16.6802 8.74272 16.7569 8.78107 16.7185 9.01114ZM16.9103 8.35927C16.7185 8.24424 16.5268 8.16754 16.2967 8.01416C16.4501 7.93747 16.5268 7.89913 16.6418 7.86078C16.7569 7.82244 16.8719 7.82244 16.987 7.82244C16.987 7.93747 16.987 8.05251 16.987 8.16755C16.987 8.24424 16.9486 8.28258 16.9103 8.35927ZM17.1787 7.09388C17.1787 7.20891 17.1403 7.32395 17.102 7.47733C16.8719 7.36229 16.6802 7.24726 16.4501 7.13222C16.6418 7.05553 16.7952 6.97884 16.9486 6.9405C17.1403 6.86381 17.217 6.9405 17.1787 7.09388ZM17.9839 8.85776C17.9839 8.9728 17.9456 9.04949 17.9072 9.20287C17.6772 9.08783 17.4854 8.9728 17.2554 8.85776C17.4471 8.78107 17.6005 8.70438 17.7155 8.66603C17.9456 8.62769 18.0223 8.66603 17.9839 8.85776ZM18.1757 8.28258C17.9456 8.16755 17.7539 8.05251 17.4854 7.93747C17.7155 7.86078 17.8689 7.78409 18.0606 7.74575C18.099 7.74575 18.214 7.82244 18.214 7.86078C18.2523 7.97582 18.214 8.09086 18.1757 8.28258ZM18.4057 7.24726C18.1757 7.13222 17.9839 7.01719 17.7155 6.90215C17.9456 6.82546 18.099 6.74877 18.2524 6.71042C18.3674 6.67208 18.4441 6.74877 18.4441 6.8638C18.4441 6.9405 18.4057 7.09388 18.4057 7.24726ZM19.2493 8.70438C19.2493 8.81942 19.211 8.89611 19.1726 9.04949C18.9426 8.93445 18.7508 8.81942 18.5208 8.70438C18.7125 8.62769 18.8659 8.551 19.0193 8.51265C19.211 8.43596 19.2877 8.47431 19.2493 8.70438ZM19.4027 8.01416C19.1726 7.89913 18.9809 7.78409 18.7508 7.66905C18.9426 7.59236 19.0959 7.51567 19.2493 7.47733C19.4027 7.43898 19.4794 7.47733 19.4794 7.63071C19.4411 7.74575 19.4027 7.86078 19.4027 8.01416ZM19.5944 6.97884C19.3644 6.86381 19.1726 6.74877 18.9426 6.63373C19.1343 6.55704 19.2877 6.48035 19.4411 6.44201C19.5944 6.36532 19.6711 6.48035 19.6711 6.63373C19.6711 6.71042 19.6328 6.82546 19.5944 6.97884ZM20.4764 8.62769C20.3997 8.58934 20.323 8.58934 20.2846 8.551C20.1313 8.47431 19.9779 8.39762 19.7862 8.28258C19.9779 8.20589 20.1313 8.1292 20.323 8.09086C20.438 8.05251 20.5531 8.09085 20.5147 8.24423C20.5147 8.35927 20.4764 8.47431 20.4764 8.62769ZM20.6681 7.2856C20.6681 7.40064 20.6298 7.47733 20.5914 7.63071C20.3613 7.51567 20.1696 7.40064 19.9395 7.2856C20.1313 7.20891 20.2846 7.13222 20.438 7.09388C20.6298 7.01719 20.7064 7.09388 20.6681 7.2856ZM20.7831 6.63373C20.5914 6.5187 20.3997 6.44201 20.1696 6.28863C20.2847 6.21194 20.3613 6.17359 20.438 6.17359C20.5531 6.13525 20.7831 6.05855 20.8215 6.13524C20.9365 6.25028 20.8982 6.44201 20.7831 6.63373ZM21.7034 8.43596C21.4734 8.32092 21.2816 8.20589 21.0516 8.09086C21.2816 8.01416 21.3967 7.93747 21.5884 7.89913C21.7418 7.86078 21.8185 7.89913 21.8185 8.05251C21.7418 8.1292 21.7034 8.28258 21.7034 8.43596ZM21.8952 7.17057C21.8952 7.24726 21.8568 7.36229 21.8185 7.47733C21.5884 7.36229 21.3967 7.24726 21.1666 7.13222C21.3583 7.05553 21.4734 6.97884 21.6267 6.9405C21.8568 6.86381 21.9335 6.9405 21.8952 7.17057ZM22.1252 6.13524C22.1252 6.25028 22.0869 6.32697 22.0485 6.48035C21.8185 6.36532 21.6267 6.25028 21.3967 6.13524C21.5884 6.05855 21.7418 5.98186 21.8952 5.94352C22.0485 5.86683 22.1252 5.94352 22.1252 6.13524ZM22.1636 8.09086C22.3936 8.01416 22.5854 7.93747 22.7387 7.89913C22.7771 7.89913 22.8921 7.97582 22.8921 8.01416C22.8921 8.1292 22.8538 8.28258 22.8538 8.47431C22.5854 8.32093 22.432 8.20589 22.1636 8.09086Z" fill="#004526"/>
<path d="M24.8477 16.0284C22.6237 16.0284 21.0132 17.7156 21.0132 20.0164C21.0132 22.2787 22.662 23.9659 24.8861 23.9659C27.0717 23.9659 28.7973 22.2404 28.7973 20.0164C28.7973 17.754 27.0717 15.9901 24.8477 16.0284ZM26.4966 21.3584C25.8063 22.4321 24.3109 22.5471 23.4673 21.5885C22.8154 20.8216 22.7004 19.6329 23.2372 18.7893C23.659 18.0607 24.4643 17.7156 25.3079 17.869C26.0364 17.9841 26.6883 18.5976 26.8417 19.4028C26.88 19.5946 26.88 19.7863 26.9184 19.978C26.9184 20.4765 26.8033 20.9366 26.4966 21.3584Z" fill="black"/>
<path d="M11.3887 16.7569C11.2353 16.22 11.0436 16.105 10.5068 16.105C9.96992 16.105 9.39474 16.105 8.85791 16.105C8.66618 16.105 8.58949 16.1433 8.55114 16.3351C7.70755 18.7125 6.82561 21.0515 5.94366 23.4289C5.90532 23.5823 5.82863 23.7357 5.79028 23.8891C5.82863 23.8891 5.82863 23.9274 5.82863 23.9274C6.21208 23.9274 6.63388 23.9274 7.01733 23.9274C7.55417 23.9658 7.74589 23.6973 7.89927 23.3139C8.01431 23.0071 8.12935 22.7004 8.24438 22.3553C8.28273 22.2019 8.35942 22.1635 8.5128 22.1635C9.3564 22.1635 10.1616 22.1635 11.0052 22.1635C11.1586 22.1635 11.2353 22.2019 11.2737 22.3553C11.427 22.8154 11.5804 23.3139 11.7338 23.774C11.7721 23.8507 11.8105 23.9274 11.8872 23.9274C12.4624 23.9274 13.0759 23.9274 13.6511 23.9274C13.6127 23.8507 13.6127 23.774 13.6127 23.7357C12.8458 21.3583 12.1173 19.0576 11.3887 16.7569ZM8.78121 20.5147C9.08798 19.6711 9.39474 18.8275 9.73985 17.9072C10.085 18.7892 10.3917 19.6327 10.7368 20.5147C10.085 20.5147 9.47143 20.5147 8.78121 20.5147Z" fill="black"/>
<path d="M49.9638 22.0868C48.8134 22.0868 47.7014 22.0868 46.5511 22.0868C46.5511 21.6267 46.5511 21.2432 46.5511 20.7831C46.6277 20.7831 46.7044 20.7831 46.7811 20.7831C47.5864 20.7831 48.3916 20.7831 49.1969 20.7831C49.3119 20.7831 49.3886 20.7831 49.3886 20.6297C49.3886 20.0929 49.3886 19.5561 49.3886 18.9809C48.43 18.9809 47.5097 18.9809 46.5894 18.9809C46.5894 18.5974 46.5894 18.214 46.5894 17.8689C47.0879 17.8689 47.548 17.8689 48.0082 17.8689C48.4683 17.8689 48.8901 17.8689 49.3503 17.8689C49.6954 17.8689 49.9254 17.7155 49.9638 17.4471C50.0021 16.9869 49.9638 16.5651 49.9638 16.105C48.1999 16.105 46.3977 16.105 44.6338 16.105C44.6338 18.7125 44.6338 21.2816 44.6338 23.8891C44.7488 23.8891 44.8255 23.8891 44.9022 23.8891C46.0142 23.8891 47.1262 23.8891 48.2382 23.8891C48.5834 23.8891 48.8901 23.8891 49.2352 23.8891C49.6187 23.8891 49.9638 23.659 50.0021 23.3139C50.0021 22.8921 49.9638 22.5086 49.9638 22.0868Z" fill="black"/>
<path d="M35.0475 19.8244C34.549 19.556 33.9739 19.4026 33.437 19.1725C33.0152 19.0192 32.6318 18.8658 32.21 18.7124C32.0183 18.6357 31.9032 18.4823 31.9032 18.2906C31.9032 18.0605 32.0566 17.9072 32.2867 17.8688C32.6318 17.7921 32.9769 17.7154 33.322 17.7154C33.7438 17.7538 34.2039 17.8688 34.6257 17.9838C35.0092 18.0989 35.2776 18.0222 35.431 17.6771C35.5077 17.4854 35.5844 17.2936 35.6611 17.1019C35.7761 16.7568 35.7761 16.7568 35.4693 16.6034L35.431 16.5651C34.434 16.0666 33.3987 15.9899 32.2867 16.1433C31.6348 16.22 31.0596 16.45 30.5611 16.9102C29.6792 17.7154 29.3341 19.2492 30.8679 20.1312C31.1747 20.3229 31.5198 20.4379 31.9032 20.5913C32.4017 20.783 32.9385 20.8981 33.4754 21.0898C33.6671 21.1665 33.8588 21.2815 33.9739 21.4349C34.2423 21.7417 34.1272 22.0484 33.7821 22.1635C33.5904 22.2402 33.3987 22.2785 33.2453 22.2785C32.5167 22.3169 31.8265 22.1251 31.1747 21.7417C30.7529 21.5116 30.4845 21.55 30.1777 21.9334C29.986 22.2018 29.8326 22.4702 29.6792 22.7387C30.5228 23.5056 31.4814 23.889 32.5934 23.9274C33.3987 23.9657 34.1656 23.889 34.8942 23.5056C35.5844 23.1221 36.0829 22.5469 36.1212 21.7417C36.1979 20.8597 35.8144 20.2079 35.0475 19.8244Z" fill="black"/>
<path d="M17.9838 17.7539C18.4823 17.6772 18.9808 17.7539 19.441 17.8689C19.8628 17.9839 20.0928 17.8689 20.2462 17.4471C20.3229 17.217 20.3613 16.9486 20.4379 16.6802C20.5146 16.4885 20.3996 16.4118 20.2462 16.3734C19.556 16.1434 18.8658 15.99 18.2139 15.99C16.4117 15.99 14.1877 17.0637 13.9959 19.6328C13.8809 20.9749 14.3027 22.1252 15.338 23.0072C16.8718 24.2342 18.5974 24.1959 20.3229 23.5824C20.3613 23.5824 20.4379 23.429 20.4379 23.3906C20.3996 23.1606 20.3229 22.8921 20.2462 22.6621C20.0928 22.1636 19.8628 22.0485 19.3643 22.1636C19.0192 22.2403 18.6741 22.2786 18.329 22.2786C16.9485 22.2786 16.0666 21.3967 16.0666 20.0162C16.0666 19.096 16.5267 17.9456 17.9838 17.7539Z" fill="black"/>
<path d="M43.1768 16.105C41.2979 16.105 39.4573 16.105 37.5784 16.105C37.3867 16.105 37.195 16.1433 37.0416 16.22C36.9265 16.2967 36.7348 16.4117 36.7348 16.5268C36.6965 16.9869 36.7348 17.4471 36.7348 17.9072C37.5017 17.9072 38.307 17.9072 39.1122 17.9072C39.1122 19.9012 39.1122 21.8951 39.1122 23.8891C39.7641 23.8891 40.416 23.8891 41.0678 23.8891C41.0678 21.8951 41.0678 19.9012 41.0678 17.9072C41.1445 17.9072 41.2212 17.9072 41.2979 17.9072C41.758 17.9072 42.2565 17.9072 42.7167 17.9072C43.1001 17.9072 43.3685 17.7155 43.3685 17.4087C43.4069 16.9869 43.3685 16.5651 43.3685 16.1433C43.3302 16.105 43.2535 16.105 43.1768 16.105Z" fill="black"/>
<path d="M4.29467 22.1251C3.91122 22.1251 3.52777 22.1251 3.14431 22.1251C2.76086 22.1251 2.37741 22.1251 1.95561 22.1251C1.95561 22.0101 1.95561 21.9334 1.95561 21.8567C1.95561 20.2079 1.95561 18.5207 1.95561 16.8718C1.95561 16.45 1.76388 16.1816 1.38043 16.1433C0.920286 16.1049 0.460143 16.1433 0 16.1433C0 18.7507 0 21.3199 0 23.889C1.6105 23.889 3.221 23.889 4.8315 23.889C4.8315 23.8507 4.8315 23.8123 4.8315 23.774C4.8315 23.4289 4.8315 23.0838 4.8315 22.7387C4.8315 22.3169 4.67812 22.1251 4.29467 22.1251Z" fill="black"/>
</svg>
