<svg width="104" height="16" viewBox="0 0 104 16" fill="none" xmlns="http://www.w3.org/2000/svg">
<path d="M41.1872 11.6342H40.472C40.1641 11.6188 39.8724 11.492 39.6516 11.2775L39.6276 11.2547L34.3123 6.08562L39.3511 5.81668L41.4889 11.1168C41.5357 11.2034 41.7243 11.6045 41.1907 11.6364" fill="#226852"/>
<path d="M42.7606 1.07948L42.7344 1.11822L42.7241 1.13418L39.3466 5.81209L34.3101 6.07989H34.3021L41.0433 0.538189H41.049C41.2483 0.379478 41.4907 0.283832 41.7449 0.26355H42.3013C43.1331 0.298876 42.8623 0.88803 42.7584 1.07492" fill="#226852"/>
<path d="M9.92972 10.7123C10.0634 10.9402 10.0326 11.0667 9.8406 11.1111L7.48688 11.5989C7.39897 11.614 7.30987 11.6213 7.22066 11.6205C7.05727 11.6205 6.92359 11.5236 6.82076 11.3322C6.69137 11.077 6.58728 10.8099 6.50998 10.5345C6.12897 10.9212 5.67658 11.2308 5.17773 11.4462C4.67372 11.6334 4.13866 11.7235 3.60096 11.7117C3.05698 11.7194 2.51576 11.633 2.00135 11.4564C1.55685 11.3059 1.15919 11.0428 0.847343 10.6929C0.681834 10.5172 0.536229 10.3238 0.413162 10.1163C0.297431 9.91186 0.211629 9.69198 0.158367 9.46331C0.0924927 9.17562 0.0515895 8.88281 0.0361105 8.58812C0.0147823 8.24853 0.00373726 7.82765 0.00297554 7.32548V0.878958C-0.00702007 0.773203 0.00825053 0.666592 0.0475361 0.567859C0.0772433 0.523416 0.161794 0.486949 0.313757 0.453902L3.00111 0.0561876C3.19306 0.0265589 3.31189 0.0299806 3.35645 0.0664468C3.40101 0.102913 3.42272 0.210033 3.42272 0.387805V7.60809C3.42272 8.1832 3.49661 8.59686 3.64438 8.84908C3.79216 9.10131 4.08123 9.22666 4.5116 9.22514C5.07375 9.22514 5.61381 8.98887 6.13178 8.51633V0.856165C6.12188 0.750785 6.13715 0.644567 6.17634 0.546207C6.20605 0.501763 6.2906 0.465297 6.44371 0.43225L9.08535 0.0561876C9.2933 0.0265589 9.41556 0.0265589 9.45212 0.0561876C9.48869 0.0858163 9.50811 0.196358 9.50811 0.387805V8.42744C9.49911 8.87627 9.5324 9.32495 9.60751 9.76757C9.67199 10.0944 9.78037 10.411 9.92972 10.7089" fill="#49B391"/>
<path d="M20.0117 8.14254C20.0218 8.66782 19.9193 9.18919 19.7112 9.67183C19.5194 10.1038 19.231 10.4862 18.868 10.7897C18.488 11.1005 18.0499 11.3329 17.5792 11.4735C17.0501 11.6317 16.4999 11.7086 15.9476 11.7014C15.1444 11.7101 14.3436 11.612 13.5664 11.4097C12.9117 11.2427 12.2809 10.9934 11.6892 10.6678C11.5258 10.5801 11.4446 10.498 11.4446 10.4239C11.4532 10.3036 11.4759 10.1847 11.5121 10.0695L12.0673 8.25421C12.0959 8.14025 12.1519 8.0696 12.233 8.05479C12.3305 8.04316 12.429 8.0666 12.5107 8.12088C12.7557 8.24903 13.0079 8.36317 13.2659 8.46275C13.547 8.57671 13.8372 8.68155 14.1206 8.78411C14.3963 8.88384 14.6784 8.96531 14.9649 9.02798C15.2018 9.08284 15.4439 9.11263 15.687 9.11686C15.9693 9.1331 16.2495 9.05926 16.4869 8.90605C16.5853 8.8294 16.6631 8.72967 16.7136 8.61575C16.764 8.50183 16.7854 8.37724 16.7759 8.25307C16.7814 8.11827 16.7477 7.98477 16.6787 7.8687C16.6098 7.75262 16.5086 7.65893 16.3874 7.59896C15.9585 7.38311 15.5171 7.19285 15.0655 7.02918C14.4439 6.77848 13.9446 6.55703 13.5676 6.36482C13.2199 6.19373 12.9011 5.96958 12.6226 5.70045C12.3758 5.44838 12.1798 5.15124 12.0456 4.82527C11.885 4.42164 11.8073 3.98994 11.8171 3.55579C11.809 3.04691 11.9189 2.54304 12.1382 2.08348C12.3507 1.65123 12.6538 1.26959 13.0271 0.964425C13.4236 0.644996 13.8784 0.405078 14.3662 0.257894C14.9131 0.091841 15.4822 0.00998931 16.0538 0.0151664C16.7317 0.00365341 17.408 0.0853306 18.0636 0.257894C18.5781 0.398325 19.074 0.599153 19.541 0.856165C19.6552 0.930237 19.7181 0.996331 19.7181 1.05559C19.7108 1.14713 19.6884 1.23684 19.6518 1.32111L18.9663 3.03045C18.9217 3.14441 18.8737 3.21506 18.8223 3.22988C18.7345 3.23968 18.6457 3.22426 18.5664 3.18543C18.1813 3.02248 17.7814 2.87205 17.3678 2.72961C17.0041 2.59947 16.6218 2.52867 16.2355 2.51993C15.9304 2.50769 15.6276 2.57651 15.358 2.71935C15.2461 2.78332 15.1546 2.87746 15.094 2.99094C15.0334 3.10443 15.0061 3.23266 15.0152 3.36092C15.0053 3.48791 15.0323 3.61505 15.0932 3.72705C15.154 3.83905 15.2459 3.93114 15.358 3.99225C15.7222 4.17889 16.0964 4.34551 16.4789 4.49138C17.2192 4.78614 17.7966 5.04064 18.211 5.25488C18.6078 5.45585 18.9682 5.72162 19.277 6.04118C19.7661 6.57298 20.0106 7.27419 20.0106 8.14482" fill="#49B391"/>
<path d="M31.0926 6.21662C31.0926 6.42288 31.0561 6.54824 30.9784 6.59268C30.8602 6.64569 30.7305 6.6684 30.6013 6.65877H24.5411C24.5868 7.51572 24.7833 8.13982 25.1306 8.53107C25.478 8.92232 25.9921 9.11795 26.6731 9.11795C27.1657 9.12596 27.6566 9.05871 28.1288 8.91853C28.5713 8.77605 28.9988 8.59055 29.405 8.3647C29.6415 8.23137 29.8186 8.27581 29.9386 8.49803L30.6927 10.0034C30.7971 10.1956 30.7788 10.3475 30.6379 10.4592C30.4526 10.5975 30.2558 10.7195 30.0494 10.8239C29.4729 11.131 28.8582 11.3609 28.2213 11.5076C27.6568 11.6368 27.0798 11.7036 26.5006 11.707C24.754 11.707 23.4438 11.2087 22.5701 10.2119C21.6964 9.21519 21.258 7.79416 21.255 5.94883C21.2466 5.13411 21.3665 4.32312 21.6103 3.54549C21.8237 2.85688 22.1708 2.21684 22.6318 1.6618C23.0713 1.1418 23.6212 0.725704 24.2417 0.443607C24.9165 0.147065 25.6479 9.52324e-05 26.3852 0.0128494C27.9985 0.0128494 29.1864 0.536672 29.9489 1.58431C30.7114 2.63195 31.0922 4.17529 31.0915 6.21435L31.0926 6.21662ZM27.3495 2.71475C27.121 2.40365 26.7542 2.24981 26.2504 2.24981C25.7465 2.24981 25.3511 2.40821 25.1078 2.72615C24.8644 3.04408 24.6827 3.60817 24.5639 4.41954H27.7403C27.709 3.59374 27.5792 3.02396 27.3507 2.7102" fill="#226852"/>
<path d="M54.0779 5.75058C54.0779 7.73039 53.7221 9.21828 53.0107 10.2143C52.2992 11.2102 51.1814 11.7086 49.6572 11.7094C49.3106 11.7134 48.9649 11.6724 48.6289 11.5874C48.3027 11.4975 47.9865 11.375 47.6851 11.2216V15.1862C47.6957 15.2808 47.6803 15.3766 47.6405 15.4631C47.577 15.5165 47.4999 15.5513 47.4177 15.5634L44.5978 15.9839C44.4653 16.0135 44.3761 16.0021 44.3316 15.9508C44.2762 15.8533 44.253 15.7409 44.2653 15.6295V3.5364C44.2715 3.11886 44.2266 2.70212 44.1316 2.29541C44.0425 1.94139 43.9389 1.59458 43.8208 1.25499C43.7798 1.17649 43.7681 1.08604 43.7877 0.999724C43.8094 0.948444 43.8723 0.908559 43.9762 0.87893L46.2614 0.0812336C46.361 0.0436221 46.4658 0.0213339 46.5722 0.0151367C46.6865 0.0151367 46.8007 0.114278 46.9047 0.313703C47.0236 0.55163 47.1204 0.799962 47.1938 1.05556C47.567 0.707736 48.0038 0.434615 48.4803 0.251028C48.9374 0.0924799 49.4189 0.0153341 49.9028 0.0231145C51.3082 0.0231145 52.3552 0.532498 53.0438 1.55127C53.7324 2.57004 54.0752 3.97248 54.0722 5.75856L54.0779 5.75058ZM50.7461 5.83491C50.7461 4.63912 50.609 3.79015 50.3347 3.28798C50.0605 2.78581 49.6797 2.53472 49.1922 2.53472C48.9446 2.53389 48.6994 2.58272 48.4712 2.6783C48.1841 2.81223 47.9184 2.98772 47.6828 3.19909V9.09065C48.0956 9.3015 48.5513 9.41532 49.015 9.4234C49.2874 9.43162 49.5578 9.37457 49.8034 9.25703C50.0367 9.12661 50.2227 8.92598 50.3347 8.68382C50.4977 8.33378 50.6026 7.95971 50.6455 7.57617C50.7191 6.99874 50.7527 6.41694 50.7461 5.83491Z" fill="#226852"/>
<path d="M62.5067 0.61229C62.5407 0.641888 62.5651 0.680836 62.5769 0.724229C62.5887 0.767622 62.5873 0.813523 62.573 0.856158C62.5422 0.945044 62.5136 1.02595 62.4839 1.10003L61.7515 3.07147C61.6753 3.26292 61.5569 3.32179 61.3961 3.2481C61.2518 3.17002 61.1034 3.09965 60.9516 3.03729C60.7599 2.96629 60.5563 2.93264 60.3518 2.93814C60.1178 2.93736 59.8879 2.99872 59.6856 3.11592C59.3948 3.30513 59.1331 3.53545 58.9087 3.79965V10.9789C58.9087 11.1567 58.8892 11.2604 58.8527 11.29C58.7583 11.3299 58.6552 11.3448 58.5533 11.3333H55.7985C55.6362 11.3333 55.5402 11.3196 55.5105 11.29C55.4808 11.2604 55.466 11.1567 55.466 10.9789V4.17799C55.4744 3.59996 55.4088 3.02323 55.2706 2.46181C55.1663 2.04573 55.0404 1.63531 54.8935 1.23221C54.852 1.12425 54.8184 1.01343 54.793 0.900603C54.7713 0.798042 54.841 0.722831 55.0044 0.67269L57.1582 0.102908C57.2579 0.0654979 57.3626 0.0432164 57.469 0.0368114C57.632 0.0368114 57.7874 0.173182 57.9352 0.445918C58.1157 0.802834 58.2574 1.17799 58.3579 1.56497C58.3986 1.52282 58.4368 1.47829 58.4722 1.43164C58.502 1.38619 58.5409 1.34739 58.5865 1.31768C58.9208 0.94088 59.3043 0.610502 59.7268 0.335377C60.1112 0.11444 60.5493 0.0036305 60.9928 0.0151594C61.2887 0.0122528 61.5825 0.0648236 61.8589 0.170138C62.1076 0.260981 62.3293 0.413079 62.5033 0.61229" fill="#226852"/>
<path d="M72.255 6.21662C72.255 6.42288 72.2173 6.54824 72.1408 6.59268C72.0226 6.64569 71.8929 6.6684 71.7637 6.65877H65.7047C65.7481 7.51572 65.9439 8.13982 66.292 8.53107C66.6401 8.92232 67.1557 9.11795 67.839 9.11795C68.3312 9.12597 68.8217 9.05871 69.2935 8.91853C69.7365 8.77627 70.1644 8.59077 70.5709 8.3647C70.8074 8.23137 70.9856 8.27581 71.1033 8.49803L71.8585 10.0034C71.9621 10.1956 71.9435 10.3475 71.8026 10.4592C71.6179 10.5978 71.4214 10.7198 71.2153 10.8239C70.6387 11.131 70.024 11.3609 69.3872 11.5076C68.8226 11.6367 68.2456 11.7036 67.6665 11.707C65.9199 11.707 64.6097 11.2087 63.736 10.2119C62.8624 9.21519 62.4229 7.79416 62.4175 5.94883C62.4085 5.13407 62.5285 4.32299 62.7729 3.54549C62.9862 2.85688 63.3333 2.21684 63.7943 1.6618C64.2338 1.1418 64.7837 0.725704 65.4042 0.443607C66.079 0.147065 66.8103 9.52324e-05 67.5476 0.0128494C69.1609 0.0128494 70.3488 0.536672 71.1113 1.58431C71.8738 2.63195 72.2546 4.17529 72.2539 6.21435L72.255 6.21662ZM68.5131 2.71703C68.2846 2.40593 67.9167 2.25209 67.414 2.25209C66.9112 2.25209 66.5148 2.41049 66.2714 2.72843C66.028 3.04636 65.8452 3.61045 65.7275 4.42181H68.9016C68.8719 3.59601 68.7424 3.02623 68.5131 2.71247" fill="#226852"/>
<path d="M82.0072 8.14255C82.0176 8.66775 81.9155 9.18912 81.7078 9.67184C81.516 10.1041 81.2271 10.4866 80.8634 10.7898C80.4838 11.1004 80.0461 11.3329 79.5757 11.4735C79.0467 11.6317 78.4965 11.7086 77.9441 11.7014C77.1383 11.708 76.3352 11.6072 75.5561 11.4017C74.9017 11.2348 74.2713 10.9855 73.68 10.6599C73.5166 10.5721 73.4355 10.4901 73.4355 10.416C73.4441 10.2957 73.4663 10.1768 73.5018 10.0616L74.0571 8.24625C74.0868 8.13229 74.1416 8.06164 74.2239 8.04682C74.3213 8.0354 74.4197 8.05882 74.5015 8.11292C74.7464 8.24149 74.9985 8.35564 75.2568 8.45479C75.5378 8.56875 75.8281 8.67359 76.1114 8.77615C76.3872 8.87588 76.6693 8.95735 76.9558 9.02002C77.1923 9.07486 77.434 9.10465 77.6768 9.1089C77.959 9.12481 78.2391 9.051 78.4766 8.89808C78.575 8.82143 78.6529 8.72171 78.7033 8.60779C78.7537 8.49387 78.7752 8.36928 78.7657 8.24511C78.7712 8.11016 78.7373 7.97651 78.6682 7.8604C78.599 7.74428 78.4975 7.65069 78.376 7.591C77.9475 7.37509 77.5064 7.18483 77.0552 7.02121C76.4336 6.77051 75.9339 6.54906 75.5561 6.35685C75.2088 6.18577 74.8903 5.96161 74.6124 5.69248C74.3675 5.43992 74.1736 5.14281 74.0411 4.8173C73.8798 4.41225 73.8021 3.97894 73.8125 3.54326C73.8043 3.03424 73.9146 2.53025 74.1347 2.07094C74.3468 1.63844 74.65 1.25673 75.0237 0.951893C75.4211 0.631386 75.877 0.39068 76.3662 0.24308C76.9135 0.0770333 77.483 -0.00481705 78.055 0.000351532C78.7336 -0.00625943 79.4099 0.0804037 80.0648 0.257895C80.5789 0.398319 81.0744 0.59915 81.541 0.856166C81.6553 0.930238 81.7192 0.996333 81.7192 1.05559C81.7114 1.14704 81.689 1.23666 81.653 1.32111L80.9674 3.03046C80.9229 3.14442 80.8749 3.21507 80.8235 3.22988C80.7356 3.23968 80.6468 3.22426 80.5675 3.18544C80.1825 3.02248 79.7826 2.87206 79.3678 2.72961C79.0041 2.59938 78.6218 2.52857 78.2355 2.51993C77.9305 2.5078 77.6276 2.57662 77.358 2.71935C77.2461 2.78333 77.1547 2.87746 77.094 2.99095C77.0334 3.10443 77.0061 3.23266 77.0152 3.36093C77.0054 3.48789 77.0326 3.61498 77.0934 3.72696C77.1542 3.83893 77.246 3.93104 77.358 3.99225C77.7225 4.17906 78.0971 4.3457 78.48 4.49138C79.2204 4.78615 79.7978 5.04065 80.2122 5.25489C80.6088 5.45615 80.9691 5.72188 81.2782 6.04119C81.7672 6.57299 82.0114 7.2742 82.0106 8.14483" fill="#226852"/>
<path d="M91.4905 8.14251C91.5006 8.66779 91.3981 9.18916 91.19 9.67179C90.9982 10.1037 90.7097 10.4862 90.3468 10.7897C89.9668 11.1004 89.5287 11.3328 89.058 11.4734C88.5289 11.6317 87.9787 11.7085 87.4263 11.7013C86.6209 11.708 85.8182 11.6072 85.0395 11.4016C84.3847 11.2349 83.7539 10.9856 83.1622 10.6598C82.9988 10.572 82.9177 10.49 82.9177 10.4159C82.9263 10.2957 82.9486 10.1768 82.984 10.0615L83.5393 8.2462C83.569 8.13225 83.625 8.0616 83.7061 8.04678C83.8036 8.03536 83.902 8.05878 83.9838 8.11288C84.2288 8.24102 84.481 8.35517 84.739 8.45475C85.0201 8.5687 85.3103 8.67354 85.5937 8.7761C85.8694 8.87583 86.1515 8.9573 86.438 9.01997C86.6749 9.07483 86.917 9.10462 87.1601 9.10885C87.4424 9.12508 87.7225 9.05125 87.9599 8.89804C88.0583 8.82139 88.1362 8.72167 88.1867 8.60775C88.2371 8.49383 88.2585 8.36924 88.249 8.24507C88.2548 8.11022 88.2211 7.9766 88.1522 7.86047C88.0832 7.74434 87.9819 7.6507 87.8605 7.59096C87.4316 7.37511 86.9901 7.18485 86.5386 7.02118C85.917 6.77048 85.4177 6.54903 85.0406 6.35682C84.6929 6.18631 84.3744 5.96209 84.0969 5.69246C83.8493 5.44074 83.6529 5.14353 83.5187 4.81728C83.1919 3.92378 83.2279 2.93827 83.6193 2.07094C83.8309 1.63849 84.1338 1.25677 84.5071 0.951895C84.9049 0.631381 85.3612 0.390683 85.8507 0.243086C86.3976 0.0769634 86.9667 -0.00488938 87.5383 0.000359004C88.2169 -0.00632446 88.8932 0.0803394 89.5481 0.2579C90.0626 0.398331 90.5585 0.599158 91.0255 0.856169C91.1397 0.93024 91.2026 0.996334 91.2026 1.05559C91.1947 1.14704 91.1724 1.23666 91.1363 1.32111L90.4508 3.03045C90.4062 3.1444 90.3582 3.21506 90.3068 3.22987C90.219 3.23967 90.1302 3.22425 90.0509 3.18543C89.6658 3.02247 89.2659 2.87205 88.8523 2.7296C88.4882 2.59935 88.1055 2.52854 87.7189 2.51992C87.4141 2.50745 87.1116 2.57629 86.8425 2.71934C86.7306 2.78332 86.6392 2.87745 86.5785 2.99094C86.5179 3.10442 86.4906 3.23265 86.4997 3.36092C86.4898 3.4879 86.5169 3.61504 86.5777 3.72704C86.6385 3.83904 86.7304 3.93113 86.8425 3.99224C87.2065 4.17932 87.5807 4.34595 87.9634 4.49136C88.7038 4.78613 89.2811 5.04063 89.6955 5.25486C90.0923 5.45583 90.4527 5.7216 90.7615 6.04116C91.2506 6.57296 91.4951 7.27417 91.4951 8.14479" fill="#226852"/>
<path d="M34.0324 0.646456L34.0096 0.623671C33.7885 0.409632 33.4969 0.283237 33.1892 0.268127H32.4751C31.9403 0.300035 32.1323 0.700022 32.1769 0.787768L34.3261 5.8121L39.3534 5.8178L34.0324 0.646456Z" fill="#70C6A5"/>
<path d="M32.6099 11.3584L39.3511 5.81669H39.3442L34.3169 5.80872V5.81555L30.9337 10.7624L30.9234 10.7783L30.8971 10.8171C30.7897 11.0028 30.5201 11.5931 31.3542 11.6273H31.9095C32.1636 11.6067 32.4058 11.5111 32.6053 11.3527H32.611" fill="#49B391"/>
<path d="M92.5737 11.0097C92.5729 10.9154 92.5903 10.8217 92.6251 10.7339C92.6576 10.6508 92.7084 10.5761 92.7737 10.5151C92.8394 10.452 92.9171 10.4024 93.0022 10.3693C93.098 10.3326 93.2 10.3144 93.3027 10.3157C93.4061 10.3146 93.5088 10.3327 93.6055 10.3693C93.6924 10.4021 93.772 10.4517 93.8397 10.5151C93.9043 10.5764 93.9546 10.6511 93.9871 10.7339C94.0219 10.8217 94.0394 10.9154 94.0385 11.0097C94.0395 11.103 94.022 11.1956 93.9871 11.2821C93.954 11.3643 93.9038 11.4385 93.8397 11.4998C93.7719 11.5625 93.6923 11.6113 93.6055 11.6434C93.5083 11.678 93.4059 11.6954 93.3027 11.6946C93.2003 11.6956 93.0985 11.6782 93.0022 11.6434C92.9172 11.6111 92.8395 11.5623 92.7737 11.4998C92.7089 11.4389 92.6582 11.3646 92.6251 11.2821C92.5902 11.1956 92.5728 11.103 92.5737 11.0097Z" fill="#49B391"/>
<path d="M96.4071 10.1185L97.3085 6.8548H98.6636L97.0263 11.6979H95.7878L94.1505 6.8548H95.5056L96.4071 10.1185Z" fill="#49B391"/>
<path d="M100.428 6.86053L100.469 7.42006C100.631 7.21533 100.838 7.05075 101.074 6.93916C101.322 6.82498 101.591 6.76772 101.864 6.77164C102.077 6.76891 102.29 6.80126 102.492 6.86737C102.678 6.92989 102.845 7.03852 102.977 7.18303C103.122 7.34749 103.228 7.54213 103.289 7.75281C103.37 8.03505 103.408 8.32768 103.403 8.62116V11.698H102.102V8.60976C102.105 8.47946 102.088 8.34944 102.05 8.22459C102.023 8.13386 101.973 8.05187 101.904 7.987C101.835 7.92213 101.75 7.87671 101.657 7.85537C101.549 7.8288 101.437 7.81617 101.326 7.81777C101.153 7.81287 100.983 7.8563 100.835 7.94312C100.697 8.02773 100.584 8.14528 100.504 8.28499V11.7037H99.2075V6.86053H100.428Z" fill="#49B391"/>
</svg>
