<svg width="129" height="129" viewBox="0 0 129 129" fill="none" xmlns="http://www.w3.org/2000/svg">
<path d="M129 64.5C129 100.123 100.123 129 64.5 129C28.8772 129 0 100.123 0 64.5C0 28.8772 28.8772 0 64.5 0C100.123 0 129 28.8772 129 64.5Z" fill="#49B391"/>
<path d="M24.6914 84.4043L69.1208 128.834C102.586 126.465 129 98.5688 129 64.5C129 60.7089 128.67 56.9956 128.042 53.3836L104.309 29.6498L24.6914 84.4043Z" fill="#236852"/>
<path d="M24.6914 29.6498V84.4043H48.5089L64.5 101.766L80.4911 84.4043H104.309V29.6498H24.6914Z" fill="#DBA510"/>
<path d="M68.4437 57.9227C73.6254 56.5212 77.4382 51.7892 77.4382 46.1645C77.4382 39.4356 71.9838 33.9812 65.2559 33.9812C58.5279 33.9812 53.0735 39.4356 53.0735 46.1645C53.0735 51.7892 56.8863 56.5212 62.0681 57.9227C52.8708 59.4442 45.8555 67.4299 45.8555 77.0583H84.6562C84.6562 67.4299 77.6409 59.4442 68.4437 57.9227Z" fill="white"/>
</svg>
