<svg width="40" height="40" viewBox="0 0 40 40" fill="none" xmlns="http://www.w3.org/2000/svg">
<path fill-rule="evenodd" clip-rule="evenodd" d="M0 20.0002C0 8.95344 8.95441 0 20.0002 0C31.0456 0 40 8.95344 40 20.0002C40 31.0451 31.0456 39.9995 20.0002 39.9995C8.95441 39.9995 0 31.0451 0 20.0002ZM21.4703 11.2392C21.8875 11.2392 22.222 11.4006 22.4741 11.7234C22.726 12.0463 22.852 12.491 22.8519 13.0579V26.5798C22.8519 28.1623 22.3126 28.9535 21.234 28.9535C20.7537 28.9535 20.368 28.792 20.0768 28.4693C19.7854 28.1466 19.6398 27.6703 19.6398 27.0403V16.2937C17.6399 17.8289 16.2936 18.5965 15.6009 18.5965C15.2703 18.5965 14.9768 18.4648 14.7211 18.2009C14.4652 17.9372 14.3373 17.6321 14.3373 17.2856C14.3373 16.8841 14.4632 16.5889 14.7152 16.3999C14.9671 16.211 15.412 15.967 16.0497 15.6678C17.0022 15.219 17.7639 14.7466 18.3349 14.2506C18.9056 13.7547 19.4114 13.1996 19.8524 12.5855C20.2931 11.9714 20.5805 11.5935 20.7145 11.4518C20.8482 11.31 21.1001 11.2392 21.4703 11.2392Z" fill="white"/>
</svg>
