<svg width="40" height="40" viewBox="0 0 40 40" fill="none" xmlns="http://www.w3.org/2000/svg">
<path fill-rule="evenodd" clip-rule="evenodd" d="M0 20.0002C0 8.95344 8.95441 0 20.0002 0C31.0456 0 40 8.95344 40 20.0002C40 31.0451 31.0456 39.9995 20.0002 39.9995C8.95441 39.9995 0 31.0451 0 20.0002ZM24.3754 25.8711C24.9895 25.8711 25.4579 25.9972 25.7807 26.2491C26.1035 26.5012 26.2649 26.8436 26.265 27.2765C26.265 27.6623 26.1369 27.9891 25.8812 28.2567C25.6252 28.5244 25.2375 28.6581 24.7179 28.6581H16.0261C15.4356 28.6581 14.9751 28.4949 14.6444 28.1681C14.3137 27.8415 14.1484 27.4576 14.1484 27.0166C14.1484 26.7333 14.2547 26.3574 14.4672 25.8889C14.6798 25.4205 14.912 25.0524 15.164 24.7847C16.211 23.6982 17.1557 22.7673 17.9983 21.9917C18.8406 21.2163 19.4429 20.7065 19.8051 20.4624C20.4506 20.0059 20.9879 19.5472 21.4171 19.0866C21.8461 18.626 22.1729 18.1536 22.3973 17.6695C22.6217 17.1853 22.7339 16.7111 22.7339 16.2464C22.7339 15.7427 22.6138 15.292 22.3737 14.8943C22.1334 14.4968 21.8068 14.1877 21.3935 13.9672C20.9803 13.7469 20.5294 13.6365 20.0414 13.6365C19.0098 13.6365 18.199 14.0894 17.6086 14.9947C17.5298 15.1128 17.3978 15.4357 17.213 15.9631C17.0279 16.4906 16.8192 16.896 16.5871 17.1795C16.3547 17.4628 16.0143 17.6046 15.5655 17.6046C15.1718 17.6046 14.8452 17.4747 14.5854 17.2148C14.3255 16.955 14.1956 16.6007 14.1956 16.152C14.1956 15.6087 14.3176 15.0418 14.5617 14.4514C14.8057 13.8609 15.1699 13.3256 15.6541 12.8453C16.1383 12.3651 16.7525 11.9772 17.4964 11.682C18.2404 11.3868 19.1123 11.2392 20.1122 11.2392C21.3168 11.2392 22.3442 11.4281 23.1945 11.806C23.7455 12.0581 24.2297 12.4044 24.6471 12.8453C25.0643 13.2863 25.389 13.7959 25.6214 14.3746C25.8535 14.9533 25.9697 15.5538 25.9697 16.1756C25.9697 17.1519 25.7276 18.0396 25.2434 18.8386C24.7592 19.6378 24.2651 20.2637 23.7613 20.7163C23.2574 21.1691 22.4129 21.8795 21.2282 22.8479C20.0431 23.8163 19.2303 24.5682 18.7895 25.1035C18.6005 25.3161 18.4075 25.572 18.2108 25.8711H24.3754Z" fill="white"/>
</svg>
