<svg width="40" height="40" viewBox="0 0 40 40" fill="none" xmlns="http://www.w3.org/2000/svg">
<path fill-rule="evenodd" clip-rule="evenodd" d="M0 20.0002C0 8.95344 8.95441 0 20.0002 0C31.0456 0 40 8.95344 40 20.0002C40 31.0451 31.0456 39.9995 20.0002 39.9995C8.95441 39.9995 0 31.0451 0 20.0002ZM24.7415 22.3165C25.3477 22.3165 25.8339 22.3992 26.2 22.5645C26.5661 22.7299 26.7491 23.0921 26.7491 23.6511C26.7491 24.1078 26.5994 24.4405 26.3003 24.649C26.0011 24.8577 25.5523 24.962 24.9541 24.962H24.2337V27.1585C24.2337 27.7649 24.0997 28.2155 23.8322 28.5107C23.5644 28.8059 23.2062 28.9535 22.7575 28.9535C22.3165 28.9535 21.9603 28.8018 21.6887 28.4988C21.4171 28.1959 21.2813 27.7489 21.2813 27.1584V24.9619H15.3529C14.6049 24.9619 14.0439 24.7927 13.6701 24.4541C13.296 24.1156 13.1091 23.6551 13.1091 23.0723C13.1091 22.9229 13.1365 22.7711 13.1918 22.6176C13.2467 22.4641 13.3294 22.3028 13.4398 22.1334C13.5499 21.9642 13.6641 21.801 13.7822 21.6434C13.9003 21.486 14.0459 21.2931 14.2192 21.0647L20.4782 12.6918C20.8875 12.1408 21.224 11.7411 21.4879 11.4931C21.7516 11.2451 22.0685 11.1211 22.4386 11.1211C23.6352 11.1211 24.2337 11.8061 24.2337 13.176V22.3165H24.7415ZM16.2033 22.3165H21.2814V15.4552L16.2033 22.3165Z" fill="white"/>
</svg>
