<svg width="56" height="24" viewBox="0 0 56 24" fill="none" xmlns="http://www.w3.org/2000/svg">
<path d="M43.2136 14.6527C44.4456 13.5526 45.6337 12.4966 46.8217 11.4845C48.3618 10.1645 49.8579 8.80039 51.3979 7.48033C51.4859 7.39233 51.5739 7.26032 51.75 7.26032C52.718 7.26032 53.73 7.26033 54.7421 7.34833C54.3021 7.70035 53.906 8.09636 53.466 8.44838C51.7059 9.98845 49.9459 11.5285 48.1858 13.0246C47.9218 13.2446 47.8778 13.4206 48.0978 13.6846C50.3859 16.8088 52.63 19.9329 54.8741 23.101C54.9621 23.189 55.1381 23.321 55.0501 23.4531C54.9621 23.5851 54.7861 23.4971 54.6541 23.4971C53.9501 23.4971 53.29 23.4971 52.586 23.4971C52.322 23.4971 52.19 23.4531 52.014 23.233C50.1219 20.5929 48.2298 17.9968 46.3377 15.3567C46.0297 14.9167 46.0297 14.9167 45.6337 15.2687C44.9296 15.8407 44.2256 16.4567 43.5216 17.0288C43.2576 17.2488 43.1696 17.4688 43.1696 17.8208C43.1696 19.5369 43.1696 21.297 43.1696 23.013C43.1696 23.4531 43.0376 23.5411 42.6415 23.4971C42.1575 23.4531 41.6735 23.4531 41.1895 23.4971C40.8375 23.4971 40.7935 23.365 40.7935 23.057C40.7935 20.1969 40.7935 17.3368 40.7935 14.4326C40.7935 9.81244 40.7935 5.19223 40.7935 0.528024C40.7935 0.132006 40.8815 0 41.3215 0C41.8495 0.044002 42.3775 0 42.8616 0C43.0816 0 43.1696 0.0880043 43.1696 0.308014C43.1696 0.572026 43.1696 0.836037 43.1696 1.10005C43.1696 5.41224 43.1696 9.76844 43.1696 14.0806C43.2136 14.3446 43.2136 14.4766 43.2136 14.6527Z" fill="#53534C"/>
<path d="M37.6252 12.6727C37.2731 12.6727 36.8331 12.8047 36.5251 12.6287C36.2171 12.4967 36.2611 12.0127 36.1731 11.6607C35.205 8.88854 32.6089 8.44853 30.4968 9.10856C28.8688 9.63658 27.8567 10.8686 27.3287 12.4087C26.4927 14.8288 26.5807 17.2489 27.9007 19.537C29.2648 21.8691 32.1689 22.6612 34.369 21.2971C35.6451 20.5051 36.3051 19.273 36.4811 17.8209C36.5251 17.4689 36.6571 17.3809 36.9651 17.4249C37.4932 17.4689 38.0212 17.4249 38.5492 17.4249C38.7252 17.4249 38.8572 17.4249 38.8132 17.6449C38.4612 20.065 37.3171 22.4412 34.677 23.4972C31.6409 24.7293 27.9447 23.6292 26.0086 20.9451C23.7645 17.7769 23.8085 12.5847 26.2286 9.50457C27.9007 7.34847 30.2328 6.60044 32.8729 6.77645C34.369 6.90846 35.6891 7.39248 36.7891 8.40452C37.9332 9.46057 38.4612 10.8246 38.6372 12.3207C38.6812 12.5407 38.5932 12.5847 38.4172 12.5847C38.1972 12.6727 37.9332 12.6727 37.6252 12.6727Z" fill="#53534C"/>
<path d="M2.29162 10.2522C2.86365 9.28417 3.52368 8.53613 4.40372 7.96411C5.50377 7.26008 6.73582 6.99607 8.01188 7.04007C8.27589 7.04007 8.3199 7.17208 8.3199 7.39208C8.3199 7.96411 8.3199 8.53613 8.3199 9.06416C8.3199 9.32817 8.23189 9.41617 7.96788 9.41617C7.08784 9.37217 6.2078 9.50418 5.41577 9.9002C3.43568 10.8682 2.46763 12.5843 2.46763 14.7404C2.42363 17.5125 2.46763 20.3287 2.46763 23.1008C2.46763 23.4528 2.37963 23.6288 1.98361 23.5848C1.49959 23.5408 1.01557 23.5408 0.531544 23.5848C0.135526 23.6288 0.047522 23.4528 0.047522 23.1008C0.047522 18.2166 0.047522 13.3323 0.047522 8.40413C0.047522 8.05211 -0.0844838 7.56809 0.0915242 7.34808C0.311534 7.08407 0.795556 7.26008 1.19157 7.26008C2.24762 7.26008 2.24762 7.26008 2.24762 8.31613C2.24762 8.88815 2.24762 9.46018 2.24762 10.0322C2.29162 10.0762 2.29162 10.1202 2.29162 10.2522Z" fill="#53534C"/>
<path d="M37.4933 1.54033C37.0093 2.64038 36.6133 3.65243 36.1292 4.70848C35.6452 3.65243 35.2052 2.64038 34.6772 1.54033C34.5452 2.42037 34.5452 3.16841 34.5452 3.96044C34.5452 4.09245 34.5452 4.22445 34.5452 4.35646C34.5452 4.53247 34.5012 4.66447 34.2812 4.66447C34.0612 4.66447 34.1052 4.48847 34.1052 4.35646C34.1492 3.74043 34.1932 3.16841 34.2372 2.55238C34.2812 1.89235 34.2812 1.23232 34.3252 0.572288C34.3252 0.440282 34.2812 0.264272 34.5012 0.22027C34.7212 0.176268 34.8092 0.352277 34.8532 0.484283C35.2492 1.40833 35.6892 2.28837 36.0852 3.21241C36.1292 3.30041 36.1292 3.43242 36.3053 3.52042C36.6573 2.64038 37.0533 1.71634 37.4053 0.836299C37.4493 0.748295 37.4493 0.660291 37.4933 0.616289C37.5813 0.440281 37.5813 0.176269 37.8453 0.264273C38.1093 0.308275 38.0213 0.572286 38.0213 0.704292C38.1093 1.89235 38.1533 3.0804 38.1973 4.26846C38.1973 4.48847 38.2853 4.70848 37.8893 4.70848C37.5813 4.70848 37.5373 4.53247 37.5373 4.31246C37.6253 3.34442 37.6693 2.50838 37.4933 1.54033Z" fill="#53534C"/>
<path d="M2.7314 3.38798C2.7314 2.33193 2.7314 1.40789 2.7314 0.439848C2.7314 0.307842 2.6434 0.131836 2.90741 0.131836C3.17142 0.131836 3.17142 0.307843 3.12742 0.483851C3.12742 1.75991 3.08342 3.03597 3.08342 4.31202C3.08342 4.40003 3.12742 4.53203 2.99542 4.62003C2.81941 4.66404 2.7314 4.57603 2.6434 4.44403C2.02737 3.56399 1.41134 2.68395 0.795316 1.80391C0.707312 1.7159 0.663309 1.5399 0.487301 1.4959C0.487301 2.41994 0.487301 3.34398 0.487301 4.22402C0.487301 4.40002 0.619307 4.66404 0.267291 4.66404C-0.0407226 4.66404 0.0472814 4.44403 0.0472814 4.26802C0.0472814 3.03597 0.0912836 1.75991 0.0912836 0.527853C0.0912836 0.395847 0.0472813 0.26384 0.223289 0.219839C0.399297 0.175837 0.487302 0.307842 0.575306 0.439848C1.19133 1.31989 1.76336 2.15593 2.37939 3.03596C2.51139 3.07997 2.5994 3.21197 2.7314 3.38798Z" fill="#53534C"/>
<path d="M10.3877 2.15592C10.5637 2.15592 10.6517 2.15592 10.7837 2.11192C11.3117 2.02392 11.5757 1.7159 11.4877 1.14388C11.4437 0.659857 11.1357 0.395847 10.6517 0.395847C10.3877 0.395847 10.2557 0.483851 10.2557 0.791865C10.2557 1.93591 10.2557 3.07997 10.2997 4.26802C10.2997 4.57603 10.1677 4.66403 9.90366 4.62003C9.72765 4.62003 9.63965 4.53203 9.63965 4.35602C9.68365 3.03596 9.72765 1.6719 9.63965 0.351846C9.63965 0.175838 9.72765 0.131836 9.85966 0.131836C10.2557 0.131836 10.6517 0.131836 11.0477 0.131836C11.6197 0.175838 11.9718 0.439847 12.0598 0.923869C12.1918 1.45189 11.9718 1.97992 11.4877 2.19993C11.1357 2.37593 11.1797 2.50794 11.3117 2.77195C11.6637 3.34398 11.9718 3.96 12.3238 4.57603C11.8838 4.70804 11.5757 4.62003 11.3997 4.18001C11.0917 3.47598 10.7397 2.85995 10.3877 2.15592Z" fill="#53534C"/>
<path d="M26.0528 4.31215C26.0528 4.62017 25.9208 4.66417 25.6568 4.66417C25.3488 4.66417 25.3928 4.48816 25.3928 4.31215C25.4368 3.0361 25.4808 1.80404 25.3928 0.527985C25.3928 0.307975 25.4808 0.219971 25.7008 0.219971C26.0528 0.219971 26.4048 0.219971 26.7569 0.219971C27.3289 0.263973 27.7249 0.527986 27.8129 0.968006C27.9449 1.54003 27.7689 2.02405 27.2409 2.28806C26.9329 2.42007 26.9329 2.55207 27.0649 2.81609C27.4169 3.38811 27.7249 4.00414 28.0769 4.62017C27.6369 4.75217 27.3729 4.70817 27.1529 4.26815C26.8449 3.60812 26.4928 2.94809 26.0968 2.28806C26.0968 2.02405 26.3168 2.06805 26.4928 1.98005C26.8889 1.84804 27.1089 1.49603 26.9769 1.10001C26.8889 0.791996 26.7129 0.65999 26.4048 0.703992C26.0968 0.703992 26.1408 0.968006 26.0968 1.18802C26.0528 2.11206 25.8768 3.0361 25.9648 3.96014C26.0528 4.00414 26.0088 4.18015 26.0528 4.31215Z" fill="#53534C"/>
<path d="M18.1324 4.13638C18.3964 4.22438 18.6165 4.31238 18.8365 4.40039C19.2765 4.48839 19.6725 4.35639 19.8485 4.00437C20.0245 3.65235 19.9365 3.21233 19.5845 2.90432C19.3205 2.68431 19.0125 2.55231 18.7485 2.3323C18.4845 2.15629 18.2644 1.98028 18.1324 1.71627C17.8244 1.05624 18.2204 0.308206 18.9685 0.132198C19.3205 0.0441944 19.7165 0.0881957 20.0685 0.1762C20.3765 0.220202 20.3325 0.44021 20.2885 0.704222C19.9805 0.484212 19.6285 0.352208 19.2765 0.39621C18.9685 0.440212 18.7485 0.572217 18.6165 0.880231C18.5285 1.18824 18.6165 1.45226 18.8805 1.62827C19.2325 1.84828 19.5845 2.06829 19.8925 2.2883C20.4645 2.72832 20.6406 3.21234 20.4205 3.82836C20.2445 4.40039 19.7165 4.75241 19.0565 4.75241C18.8805 4.75241 18.7045 4.75241 18.5285 4.7084C18.0884 4.6204 18.0884 4.5764 18.1324 4.13638Z" fill="#53534C"/>
<path d="M23.1927 2.59594C23.1927 3.16797 23.1927 3.74 23.1927 4.31202C23.1927 4.62004 23.0167 4.62003 22.8407 4.62003C22.6207 4.62003 22.5327 4.57603 22.5327 4.31202C22.5767 3.21197 22.5767 2.11192 22.5767 1.01187C22.5767 0.395848 22.5327 0.395847 21.9606 0.483851C21.8726 0.483851 21.7846 0.527853 21.6526 0.527853C21.5206 0.527853 21.4326 0.527854 21.4326 0.351846C21.4326 0.21984 21.4326 0.131836 21.6086 0.131836C22.4447 0.131836 23.2807 0.131836 24.1167 0.131836C24.2487 0.131836 24.2928 0.21984 24.2928 0.351846C24.2928 0.527854 24.2047 0.527853 24.0727 0.527853C23.8087 0.483851 23.4567 0.351845 23.2807 0.527853C23.0607 0.747862 23.1927 1.09988 23.1927 1.40789C23.1487 1.80391 23.1927 2.19993 23.1927 2.59594Z" fill="#53534C"/>
<path d="M23.9408 21.6048C23.9408 21.3848 23.8968 21.2968 23.6328 21.3848C22.5767 21.6928 22.1807 21.3848 22.1367 20.2847C22.1367 19.6687 22.1367 19.0087 22.1367 18.3927C22.1367 16.1926 22.1367 13.9925 22.1367 11.7924C22.0927 9.19625 20.7286 7.52417 18.2205 6.99615C16.8124 6.68813 15.3604 6.68813 13.9523 6.99615C11.2682 7.56817 9.68413 9.41625 9.50812 12.1444C9.50812 12.4084 9.55212 12.5404 9.86013 12.4964C10.3882 12.4964 10.9162 12.4524 11.4002 12.4964C11.7522 12.4964 11.8402 12.4524 11.8842 12.0564C12.0162 10.2523 12.9843 9.24025 14.7444 8.88823C15.7124 8.71223 16.6804 8.75623 17.6485 8.97624C18.0885 9.06424 18.5285 9.24025 18.8805 9.50426C19.8486 10.2523 19.8926 11.3083 19.8046 12.4084C19.7166 13.0684 19.3206 13.4204 18.7045 13.5524C17.9565 13.7284 17.2525 13.7724 16.5044 13.8605C15.0524 14.0365 13.5563 14.1685 12.1482 14.6525C10.0361 15.3565 9.0241 16.6766 8.89209 18.8767C8.76008 21.2088 10.1241 23.0569 12.3682 23.6729C13.4683 23.9369 14.5243 23.9809 15.6244 23.8489C17.1205 23.6729 18.3965 23.0129 19.3646 21.8688C19.5406 21.6488 19.7166 21.4288 19.9366 21.1648C20.0686 21.3408 20.0246 21.5168 20.0686 21.6928C20.2446 22.5728 20.6846 23.1449 21.5647 23.3649C22.2687 23.5409 22.9727 23.4969 23.6768 23.3649C23.8968 23.3209 23.9408 23.2329 23.9408 23.0129C23.9408 22.6168 23.9408 22.0888 23.9408 21.6048ZM19.8046 17.9086C19.4966 20.0647 17.7805 21.6048 15.4484 21.8688C14.2163 22.0448 13.1163 21.8688 12.1482 21.0328C11.0482 20.0647 10.6962 17.6446 12.8083 16.7206C13.9523 16.2366 15.1404 16.0606 16.3284 15.8845C17.4725 15.7085 18.6605 15.6205 19.8486 15.1805C19.8046 16.1486 19.8926 17.0286 19.8046 17.9086Z" fill="#53534C"/>
<path d="M16.944 1.5404C16.768 0.748365 16.284 0.308346 15.4919 0.17634C14.9199 0.0883361 14.3479 0.132339 13.7758 0.132339C13.4678 0.132339 13.4238 0.264344 13.4238 0.528356C13.4238 1.14438 13.4238 1.80441 13.4238 2.42044C13.4238 3.03647 13.4238 3.6965 13.4238 4.31253C13.4238 4.53254 13.5118 4.62054 13.7318 4.62054C14.1279 4.62054 14.5239 4.62054 14.9199 4.62054C16.0639 4.57654 16.812 3.96051 16.988 2.86046C17.076 2.42044 17.076 1.98042 16.944 1.5404ZM16.24 3.30048C15.9759 4.04851 15.1399 4.53254 14.3479 4.31253C14.1719 4.26853 14.1279 4.13652 14.1279 4.00451C14.1279 2.90446 14.1279 1.80441 14.1279 0.704363C14.1279 0.440351 14.2599 0.39635 14.4799 0.39635C15.7999 0.308346 16.416 0.924374 16.416 2.37644C16.372 2.68445 16.328 2.99247 16.24 3.30048Z" fill="#53534C"/>
<path d="M30.9367 0.087867C29.7047 0.087867 28.8687 1.05591 28.8687 2.41997C28.8687 3.78403 29.7487 4.70807 30.9808 4.70807C32.2128 4.70807 33.0488 3.78403 33.0488 2.37597C33.0488 1.01191 32.1688 0.0438651 30.9367 0.087867ZM32.0368 3.82803C31.7728 4.26805 31.3768 4.44406 30.8927 4.44406C30.4087 4.44406 30.0567 4.22405 29.8367 3.78403C29.3967 2.85999 29.4407 1.97995 29.8367 1.05591C30.0567 0.615891 30.4087 0.395881 30.9367 0.395881C31.4648 0.395881 31.8168 0.615891 32.0808 1.05591C32.3448 1.49593 32.3448 1.97995 32.3448 2.37597C32.3448 2.90399 32.3008 3.38801 32.0368 3.82803Z" fill="#53534C"/>
<path d="M7.57201 0.396035C6.86797 -0.0439852 6.11994 -0.0439845 5.41591 0.352034C4.62388 0.792054 4.40387 1.54009 4.35986 2.11211C4.35986 3.52018 4.88789 4.35621 5.81193 4.62023C6.82397 4.92824 7.83602 4.48822 8.27604 3.56418C8.80406 2.37612 8.45204 0.924059 7.57201 0.396035ZM7.484 3.82819C7.04398 4.66423 5.81193 4.66423 5.32791 3.82819C5.1079 3.47618 5.01989 3.03615 5.01989 2.42013C5.01989 1.9361 5.06389 1.45208 5.32791 1.01206C5.81193 0.176026 7.04398 0.176026 7.484 1.01206C7.96802 1.8921 7.96802 2.90415 7.484 3.82819Z" fill="#53534C"/>
</svg>
