<svg width="121" height="16" viewBox="0 0 121 16" fill="none" xmlns="http://www.w3.org/2000/svg">
<path d="M7.50998 3.15964L8.24947 1.00838C8.24947 1.00838 5.49317 -0.605065 2.73687 0.403338C2.73687 0.403338 -0.422796 1.41174 0.0477923 5.24368C0.0477923 5.24368 0.182246 6.78989 1.66124 7.7983C1.66124 7.7983 2.80409 8.5378 4.35031 9.21006C4.35031 9.21006 6.36712 10.2185 6.63603 11.0252C6.63603 11.0252 7.24107 12.5714 5.62762 13.3781C5.62762 13.3781 4.41754 14.1849 2.26628 13.2437L1.0562 12.7059L0.0477923 14.7227C0.0477923 14.7227 1.99737 16.0672 5.15704 15.6638C5.15704 15.6638 8.65283 15.3277 9.0562 11.7647C9.0562 11.7647 9.45956 9.21006 6.77048 7.59662C6.77048 7.59662 4.95536 6.45376 3.40914 5.64704C3.40914 5.64704 1.99737 4.84031 2.60241 3.2941C2.60241 3.2941 3.00578 1.94956 4.95535 2.08401C4.88813 2.15124 5.89653 2.15124 7.50998 3.15964Z" fill="black"/>
<path d="M16.0479 0.403564H25.5268V2.42037H18.468V6.45398H23.3756V8.40357H18.468V13.5128H25.5268V15.4624H16.0479V0.403564Z" fill="black"/>
<path d="M43.1401 2.35293C41.5939 0.0672151 38.0309 0.403349 38.0309 0.403349H33.6611V15.5294H36.0141V9.81511H38.7031C42.4679 9.47898 43.2074 7.66385 43.2074 7.66385C44.6863 4.50419 43.1401 2.35293 43.1401 2.35293ZM41.3922 6.25209C40.7872 7.79831 38.2326 7.79831 38.2326 7.79831L36.0813 7.93276V2.42015C38.0981 2.2857 38.9721 2.55461 38.9721 2.55461C40.9216 2.89075 41.4595 3.96638 41.4595 3.96638C41.9973 4.97478 41.3922 6.25209 41.3922 6.25209Z" fill="black"/>
<path d="M50.3335 0.403564H52.7537V6.45398H60.3503V0.403564H62.7032V15.4624H60.3503V8.47079H52.7537V15.4624H50.3335V0.403564Z" fill="black"/>
<path d="M77.2241 0C72.8544 0 69.2241 3.56303 69.2241 8C69.2241 12.3697 72.7871 16 77.2241 16C81.6611 16 85.2241 12.437 85.2241 8C85.2241 3.56303 81.6611 0 77.2241 0ZM77.2241 13.7143C74.1317 13.7143 71.7115 11.1597 71.7115 7.86555C71.7115 4.70588 74.1989 2.01681 77.2241 2.01681C80.2493 2.01681 82.7367 4.57143 82.7367 7.86555C82.7367 11.1597 80.3166 13.7143 77.2241 13.7143Z" fill="black"/>
<path d="M99.3419 9.2773C101.09 8.67226 101.695 7.26049 101.695 7.26049C102.905 4.30251 101.359 2.35293 101.359 2.35293C99.7453 0.067215 96.115 0.403349 96.115 0.403349H91.8125V15.5294H94.2999V9.88234H96.8545L100.821 15.5966H103.712L99.3419 9.2773ZM95.6444 7.86554H94.2999V2.35293H96.0478C99.0058 2.48738 99.5436 3.69747 99.5436 3.69747C100.35 5.51259 99.3419 6.65545 99.3419 6.65545C98.3335 7.99999 95.6444 7.86554 95.6444 7.86554Z" fill="black"/>
<path d="M115.544 0.268799H112.855L107.745 15.3948H110.3L111.443 11.8991H117.09L118.233 15.3948H120.787L115.544 0.268799ZM111.913 9.94947L114.065 2.89065L116.35 9.94947H111.913Z" fill="black"/>
</svg>
