<svg width="40" height="40" viewBox="0 0 40 40" fill="none" xmlns="http://www.w3.org/2000/svg">
<g clip-path="url(#clip0)">
<path d="M19.9997 12.3795C15.7972 12.3795 12.3783 15.7983 12.3783 20.0006C12.3783 24.2032 15.7972 27.6221 19.9997 27.6221C24.202 27.6221 27.6209 24.2032 27.6209 20.0006C27.6209 15.7983 24.202 12.3795 19.9997 12.3795ZM24.5246 18.5654L19.0647 24.0253C18.8355 24.2545 18.5349 24.3692 18.2346 24.3692C17.9343 24.3692 17.634 24.2548 17.4048 24.0253L15.3184 21.9388C14.86 21.4807 14.86 20.7376 15.3184 20.2792C15.7764 19.8209 16.5195 19.8209 16.9779 20.2792L18.2346 21.5359L22.865 16.9058C23.3231 16.4474 24.0662 16.4474 24.5246 16.9058C24.983 17.3639 24.983 18.107 24.5246 18.5654Z" fill="#226852"/>
<path d="M36.9912 10.853L36.99 10.8218C36.9726 10.4376 36.961 10.0311 36.954 9.57885C36.9213 7.37335 35.1681 5.54901 32.9623 5.42572C28.3633 5.16907 24.8056 3.66944 21.7657 0.706495L21.7398 0.681776C20.7483 -0.22734 19.2526 -0.22734 18.2608 0.681776L18.2349 0.706495C15.195 3.66944 11.6373 5.16907 7.0383 5.42603C4.83281 5.54901 3.07927 7.37335 3.04662 9.57915C3.0399 10.0284 3.028 10.4349 3.01061 10.8218L3.00877 10.8941C2.91936 15.5838 2.80827 21.4202 4.76078 26.7178C5.83439 29.631 7.46036 32.1633 9.59323 34.2449C12.0224 36.6155 15.2042 38.4975 19.05 39.8385C19.1751 39.8821 19.3051 39.9175 19.4376 39.9441C19.6243 39.9813 19.8123 39.9999 20.0003 39.9999C20.1883 39.9999 20.3766 39.9813 20.563 39.9441C20.6955 39.9175 20.8264 39.8818 20.9521 39.8379C24.7934 38.4945 27.9718 36.6115 30.3988 34.2413C32.5308 32.159 34.1568 29.6261 35.2313 26.7123C37.1911 21.3989 37.0803 15.5514 36.9912 10.853ZM19.9997 29.9691C14.5029 29.9691 10.0312 25.4974 10.0312 20.0006C10.0312 14.5038 14.5029 10.032 19.9997 10.032C25.4962 10.032 29.9682 14.5038 29.9682 20.0006C29.9682 25.4974 25.4962 29.9691 19.9997 29.9691Z" fill="#226852"/>
</g>
<defs>
<clipPath id="clip0">
<rect width="40" height="40" fill="white"/>
</clipPath>
</defs>
</svg>
