<svg width="32" height="32" viewBox="0 0 32 32" fill="none" xmlns="http://www.w3.org/2000/svg">
<circle cx="16" cy="16" r="13.3333" fill="#49B391"/>
<circle cx="16" cy="16" r="15.5" stroke="#49B391"/>
<path d="M16 6.22217C12.0381 6.22217 8.88889 9.37137 8.88889 13.3333C8.88889 18.6158 16 26.5396 16 26.5396C16 26.5396 23.1111 18.6158 23.1111 13.3333C23.1111 9.37137 19.9619 6.22217 16 6.22217ZM16 15.873C14.5778 15.873 13.4603 14.7555 13.4603 13.3333C13.4603 11.9111 14.5778 10.7936 16 10.7936C17.4222 10.7936 18.5397 11.9111 18.5397 13.3333C18.5397 14.7555 17.4222 15.873 16 15.873Z" fill="white"/>
</svg>
