<svg width="32" height="32" viewBox="0 0 32 32" fill="none" xmlns="http://www.w3.org/2000/svg">
<circle cx="16" cy="16" r="15.5" stroke="#49B391"/>
<circle cx="16.0001" cy="16" r="13.3333" fill="#49B391"/>
<path d="M24.6531 14.4389L16.6861 6.47105C16.3722 6.15715 15.9609 6 15.5497 6C15.1384 6 14.7267 6.15715 14.4132 6.47105L10.0502 10.8333C9.4224 11.4611 9.4224 12.4985 10.0502 13.1263L10.7733 13.8692H12.4414L10.8844 12.2921C10.7753 12.1826 10.7592 12.0457 10.7592 11.9794C10.7592 11.9131 10.7753 11.781 10.8844 11.672L11.4605 11.1137L14.1983 13.8692H16.8246L12.7735 9.79787L15.2471 7.31457C15.3561 7.20549 15.4834 7.18489 15.5497 7.18489C15.6159 7.18489 15.7432 7.19863 15.8522 7.3073L23.8197 15.2739C23.9291 15.3834 23.9457 15.5094 23.9457 15.5761C23.9457 15.6423 23.9174 15.7692 23.8079 15.8787L23.3563 16.3194V17.9875L24.6426 16.7129C25.27 16.0839 25.2813 15.0667 24.6531 14.4389Z" fill="white"/>
<path d="M20.915 14.6162H9.64665C8.75909 14.6162 8 15.3313 8 16.2188V20.4809H22.5023V16.2188C22.5023 15.3313 21.8026 14.6162 20.915 14.6162ZM11.9381 19.0298C11.6234 19.0298 11.3385 18.9045 11.1285 18.7025C10.9184 18.9045 10.6332 19.0298 10.3193 19.0298C9.67371 19.0298 9.14974 18.5066 9.14974 17.8598C9.14974 17.2138 9.67331 16.6903 10.3193 16.6903C10.6336 16.6903 10.9188 16.8151 11.1285 17.0171C11.3385 16.8151 11.6234 16.6903 11.9381 16.6903C12.584 16.6903 13.1076 17.2138 13.1076 17.8598C13.1076 18.5066 12.584 19.0298 11.9381 19.0298Z" fill="white"/>
<path d="M8 22.3881C8 23.2757 8.75869 24 9.64665 24H20.915C21.8026 24 22.5027 23.2757 22.5027 22.3881V22.2936H8V22.3881Z" fill="white"/>
</svg>
