<svg width="26" height="33" viewBox="0 0 26 33" fill="none" xmlns="http://www.w3.org/2000/svg">
<path d="M12.9866 10.0038C9.78198 10.0038 7.17499 12.739 7.17499 16.1008C7.17499 19.4628 9.78198 22.1979 12.9866 22.1979C16.1909 22.1979 18.7979 19.4628 18.7979 16.1008C18.7979 12.739 16.1909 10.0038 12.9866 10.0038ZM16.4369 14.9526L12.2736 19.3205C12.0988 19.5039 11.8696 19.5956 11.6406 19.5956C11.4116 19.5956 11.1826 19.5041 11.0079 19.3205L9.41687 17.6513C9.06735 17.2849 9.06735 16.6904 9.41687 16.3237C9.76616 15.957 10.3328 15.957 10.6823 16.3237L11.6406 17.329L15.1714 13.6249C15.5207 13.2582 16.0874 13.2582 16.4369 13.6249C16.7864 13.9914 16.7864 14.5859 16.4369 14.9526Z" fill="#226852"/>
<path d="M25.9431 8.78264L25.9421 8.75774C25.9289 8.45036 25.92 8.12517 25.9147 7.76335C25.8898 5.99895 24.5529 4.53948 22.8709 4.44085C19.364 4.23553 16.6512 3.03582 14.3332 0.665465L14.3134 0.64569C13.5574 -0.0816037 12.4169 -0.0816037 11.6606 0.64569L11.6408 0.665465C9.32283 3.03582 6.60996 4.23553 3.1031 4.44109C1.42135 4.53948 0.0842282 5.99895 0.0593288 7.7636C0.0542093 8.12297 0.0451338 8.44816 0.0318697 8.75774L0.0304735 8.8156C-0.037709 12.5673 -0.122413 17.2365 1.36643 21.4745C2.18508 23.8051 3.42493 25.8309 5.05131 27.4962C6.90363 29.3927 9.32981 30.8983 12.2624 31.9711C12.3578 32.006 12.4569 32.0343 12.5579 32.0555C12.7003 32.0853 12.8436 32.1002 12.987 32.1002C13.1303 32.1002 13.2739 32.0853 13.4161 32.0555C13.5171 32.0343 13.6169 32.0057 13.7128 31.9706C16.6419 30.8959 19.0655 29.3895 20.9162 27.4933C22.5418 25.8275 23.7817 23.8012 24.601 21.4701C26.0955 17.2194 26.011 12.5414 25.9431 8.78264ZM12.9865 24.0756C8.79506 24.0756 5.38524 20.4982 5.38524 16.1007C5.38524 11.7033 8.79506 8.1259 12.9865 8.1259C17.1778 8.1259 20.5878 11.7033 20.5878 16.1007C20.5878 20.4982 17.1778 24.0756 12.9865 24.0756Z" fill="#226852"/>
</svg>
