<svg xmlns="http://www.w3.org/2000/svg" viewBox="0 0 53.07 22.57"><defs><style>.cls-1{fill:#353534;}.cls-2{fill:#555;}.cls-3{fill:#a0a0a0;}.cls-4{fill:#d6d6d6;}.cls-5{fill:#717171;}.cls-6{fill:#b9d13b;}.cls-7{fill:#fcfcfc;}.cls-8{fill:#e2e2e1;}.cls-9{fill:#f6f6f6;}.cls-10{fill:#f2f1f2;}.cls-11{fill:#e9e9e9;}.cls-12{fill:#b2ca33;}.cls-13{fill:#b5cd36;}.cls-14{fill:#f7d704;}.cls-15{fill:#0c0c0d;}.cls-16{fill:#e0a900;}</style></defs><title>Asset 9</title><g id="Layer_2" data-name="Layer 2"><g id="Layer_1-2" data-name="Layer 1"><path class="cls-1" d="M52.93,3.42l0,.42c-.16.13-.07.18.08.21v.31l-.55.12c-.31.08-.52.22-.41.58a2.69,2.69,0,0,0,0,1v.44a30.08,30.08,0,0,0,0,3.29,3.43,3.43,0,0,0,0,1.06v.31a3.83,3.83,0,0,0,0,1.17,12.18,12.18,0,0,0,0,1.91l0,4.31a4.5,4.5,0,0,1-.79,1.93l-1.15.85a5.89,5.89,0,0,1-1.77.22H5.64a5.67,5.67,0,0,1-3-.42c-.05,0-.14,0-.21,0a1.54,1.54,0,0,0-.55-.61,4.53,4.53,0,0,1-.67-1.29c0-.09,0-.22-.19-.16.18-.23.05-.46,0-.7,0-1.09.05-2.18,0-3.27A16.51,16.51,0,0,0,1,13c.05-1.38,0-2.75,0-4.13a11.36,11.36,0,0,0,0-2,.34.34,0,0,0,0-.31.61.61,0,0,0,0-.4.64.64,0,0,0,0-.43l0-.43c0-.39-.11-.58-.52-.56a1.78,1.78,0,0,1-.5-.1V4.16c.3,0,.11-.57.48-.52.69.09.73-.43.87-.86a3.87,3.87,0,0,1,2-1.62,3.41,3.41,0,0,1,1.1-.11H48.27a4.34,4.34,0,0,1,2.24.48,5.56,5.56,0,0,1,1.17,1.25c.08.41.31.62.72.53A1,1,0,0,1,52.93,3.42ZM14.31,21.16l.58,0q9.34,0,18.68,0l.84,0,.05,0h0l.64,0H48.29a3,3,0,0,0,3.29-2.4.2.2,0,0,0,.05-.22,3.88,3.88,0,0,0,0-.48V4.51a3.89,3.89,0,0,0,0-.47l-.05-.14a2.91,2.91,0,0,0-2.32-2.4.54.54,0,0,0-.43-.07H43.64l-2.74,0-6.39,0-.53,0H18.64l-4.54,0a1.52,1.52,0,0,0-.21,0c-3.2,0-6.39,0-9.58,0a2.89,2.89,0,0,0-2.91,3q0,6.86,0,13.71a2.91,2.91,0,0,0,3.07,3.06H8.59C10.5,21.19,12.4,21.17,14.31,21.16Z"/><path class="cls-2" d="M2.39,21.09c.07,0,.16,0,.21,0a5.67,5.67,0,0,0,3,.42H48.32a5.89,5.89,0,0,0,1.77-.22.35.35,0,0,0,.48.17.54.54,0,0,1,.7.27,3.73,3.73,0,0,1-1,.42c-.2-.22-.47-.12-.7-.12H2.75a2.15,2.15,0,0,0,.86.31c.18.06.44-.11.53.19a3.89,3.89,0,0,1-3-1.35Z"/><path class="cls-3" d="M50.51,1.52A4.34,4.34,0,0,0,48.27,1H4.49a3.41,3.41,0,0,0-1.1.11C3.34,1,3.14,1,3,1c-.29-.13-.68.14-.9-.23.1-.34.38-.32.65-.34.11.21.3.14.47.14H49.83c.16,0,.36.08.46-.14.08,0,.21,0,.23.14l0,0,0,0a1.47,1.47,0,0,1,.92.51c0,.16.09.31-.2.29A1,1,0,0,0,50.51,1.52Z"/><path class="cls-1" d="M4.14,22.55c-.09-.3-.35-.13-.53-.19a2.15,2.15,0,0,1-.86-.31H49.61c.23,0,.5-.1.7.12-.26.09-.45.32-.75.3s-.33-.18-.43.08l-.58,0H4.62Z"/><path class="cls-4" d="M50.29.41c-.1.22-.3.14-.46.14H3.24c-.17,0-.36.07-.47-.14A2,2,0,0,1,3.69.13H49.26A1.94,1.94,0,0,1,50.29.41Z"/><path class="cls-2" d="M49.26.13H3.69C4-.08,4.26,0,4.55,0H48.46C48.72,0,49-.08,49.26.13Z"/><path class="cls-5" d="M2.12.75c.22.37.61.1.9.23.12.06.32,0,.37.18a3.87,3.87,0,0,0-2,1.62C1,2.79.57,2.7.23,3A3.17,3.17,0,0,1,2.12.75Z"/><path class="cls-2" d="M52.07,5.06c-.11-.36.1-.5.41-.58L53,4.36a.9.9,0,0,1,0,.16q0,7,0,14c0,.13.07.29-.1.37l0-.54V9c.07-1,0-2,0-2.94S53,5,52.07,5.06Z"/><path class="cls-3" d="M52.93,18.33l0,.54v.21c-.16.12-.11.28-.1.43h0c-.25.1-.23.32-.21.53h0c-.31,0-.22.25-.22.43H51.24A4.5,4.5,0,0,0,52,18.53,2.56,2.56,0,0,1,52.93,18.33Z"/><path class="cls-2" d="M0,4.57a1.78,1.78,0,0,0,.5.1c.41,0,.56.17.52.56l-.51,0c-.34,0-.48.1-.42.44v9.1c0,1.15,0,2.29,0,3.43v.16c-.07.21.05.44-.07.65l0,0c0-1.14,0-2.29,0-3.43V5.15C0,5,0,4.77,0,4.57Z"/><path class="cls-5" d="M50.51,1.52a1,1,0,0,1,.73-.17c.29,0,.21-.13.2-.29A3.18,3.18,0,0,1,52.83,3c-.32-.37-.75-.19-1.15-.22A5.56,5.56,0,0,0,50.51,1.52Z"/><path class="cls-5" d="M51.24,20.46h1.19a2.77,2.77,0,0,1-1.16,1.28.54.54,0,0,0-.7-.27.35.35,0,0,1-.48-.17Z"/><path class="cls-3" d="M0,19l.05,0L1,19c.15-.06.17.07.19.16a4.53,4.53,0,0,0,.67,1.29H.64c0-.1,0-.19-.11-.22h0c0-.1,0-.18-.11-.21h0c0-.09,0-.18-.11-.21h0c0-.16,0-.32-.11-.44C.26,19.2,0,19.15,0,19Z"/><path class="cls-2" d="M.23,3c.34-.29.76-.2,1.15-.21-.14.43-.18,1-.87.86-.37-.05-.18.47-.48.52A2.16,2.16,0,0,1,.23,3Z"/><path class="cls-5" d="M.64,20.47h1.2a1.54,1.54,0,0,1,.55.61l-1.23.11A1.47,1.47,0,0,1,.64,20.47Z"/><path class="cls-2" d="M51.68,2.77c.4,0,.83-.15,1.15.22a.51.51,0,0,1,.1.43,1,1,0,0,0-.53-.12C52,3.39,51.76,3.18,51.68,2.77Z"/><path class="cls-2" d="M49.13,22.55c.1-.26.26-.23.43-.08C49.44,22.61,49.28,22.57,49.13,22.55Z"/><path class="cls-5" d="M52.64,20c0-.21,0-.43.21-.53A.62.62,0,0,1,52.64,20Z"/><path class="cls-5" d="M52.42,20.47c0-.18-.09-.4.22-.43A.45.45,0,0,1,52.42,20.47Z"/><path class="cls-5" d="M.21,19.39c.16.12.13.28.11.44A.36.36,0,0,1,.21,19.39Z"/><path class="cls-2" d="M53,4.05c-.15,0-.24-.08-.08-.21C53.07,3.88,53.05,4,53,4.05Z"/><path class="cls-5" d="M52.85,19.51c0-.15-.06-.31.1-.43C53,19.24,53,19.4,52.85,19.51Z"/><path class="cls-5" d="M.42,20c.12,0,.13.11.11.21S.41,20.13.42,20Z"/><path class="cls-5" d="M.53,20.25c.12,0,.13.12.11.22S.52,20.35.53,20.25Z"/><path class="cls-5" d="M.32,19.83c.12,0,.12.12.11.21S.32,19.92.32,19.83Z"/><path class="cls-6" d="M49.26,1.5a2.91,2.91,0,0,1,2.32,2.4l.05.14a3.89,3.89,0,0,1,0,.47V18.09a3.88,3.88,0,0,1,0,.48l-.05.22a3,3,0,0,1-3.29,2.4H35.15l-.64,0V16.54c0-2.78,0-5.57,0-8.35,0-1.25,0-2.5,0-3.75l0-.15V3.82a4.77,4.77,0,0,0,0-1.36v-1l6.39,0,2.74,0c.06.09.13.09.19,0h1.93a2.05,2.05,0,0,0,1.25,0h1.82C49,1.55,49.11,1.5,49.26,1.5ZM39.11,11H39c-.4-.07-.46.14-.46.49,0,2.13,0,4.26,0,6.39-.25,0-.55-.05-.66.22-.2.5-.65.77-1,1.16-.12.14-.39.24-.3.45s.35.19.56.18c1.14-.07,2.26.17,3.4.13s2.28.18,3.45.15c1,0,2,0,3,0a5.18,5.18,0,0,1,1.57-.1A1.94,1.94,0,0,0,50.71,18c.06-2.14,0-4.28,0-6.42,0-2.36.05-4.72,0-7.08a1.9,1.9,0,0,0-2.1-2c-.38,0-.77,0-1.16,0-.51-.25-1,0-1.54,0-1.81,0-3.61.07-5.42.12a7,7,0,0,0-1.58.1c-.16,0-.37,0-.43.21a.48.48,0,0,0,.19.47,15.81,15.81,0,0,0,1.89,1.86.31.31,0,0,1,.12.23l-.34.32a3.92,3.92,0,0,0-1.24,2.51A19.56,19.56,0,0,0,39.11,11Z"/><path class="cls-7" d="M34.51,1.72v.74h-.4c-.16-.17-.36-.1-.55-.1H10.81a.25.25,0,0,0-.42,0H9.75a.33.33,0,0,0-.28-.1H6a.3.3,0,0,0-.28.11H4.46c-.22-.15-.41-.22-.54.09l-.41,0c-.14,0-.21.06-.22.2h-.1a.46.46,0,0,0-.43.53h-.1c-.35.06-.08.37-.22.52a.2.2,0,0,0-.09.21V18.55a1.59,1.59,0,0,0,1.27,1.59h.1c0,.14,0,.27.22.11,2.15.15,4.3-.07,6.45,0,.18.18.41.1.61.1,2.9,0,5.81-.05,8.71-.08,4.93-.07,9.87,0,14.8,0v.64c-.1.07-.09.17-.1.27l-.84,0q-9.34,0-18.68,0l-.58,0c0-.41-.35-.27-.56-.27-3.17,0-6.35,0-9.52,0A2.67,2.67,0,0,1,1.7,18.47c0-4.74,0-9.48,0-14.22A2.53,2.53,0,0,1,4.23,1.73c.44,0,.88,0,1.32,0h8c.21,0,.5.11.51-.27l4.54,0H34l.53,0v.17s0,0,0,0Z"/><path class="cls-8" d="M14.1,1.44c0,.38-.3.27-.51.27h-8c-.44,0-.88,0-1.32,0A2.53,2.53,0,0,0,1.71,4.25c0,4.74,0,9.48,0,14.22a2.67,2.67,0,0,0,2.53,2.42c3.17,0,6.35,0,9.52,0,.21,0,.53-.14.56.27-1.91,0-3.81,0-5.72,0H4.47A2.91,2.91,0,0,1,1.4,18.13q0-6.85,0-13.71a2.89,2.89,0,0,1,2.91-3c3.19,0,6.38,0,9.58,0A1.52,1.52,0,0,1,14.1,1.44Z"/><path class="cls-9" d="M52.93,18.33a2.56,2.56,0,0,0-.9.2l0-4.31.86-.11Z"/><path class="cls-8" d="M.14,12.63V8.71c.3,0,.54.36.86.11.05,1.38.06,2.75,0,4.13A1,1,0,0,0,.14,12.63Z"/><path class="cls-9" d="M.15,18.17V14.74c.35-.06.5.43.87.32.05,1.09,0,2.18,0,3.27l-.16-.09C.65,17.84.39,18.08.15,18.17Z"/><path class="cls-4" d="M52.92,6.08c0,1,.06,2,0,2.94-.49,0-.67.39-.85.75a30.08,30.08,0,0,1,0-3.29c.1,0,.09-.07,0-.11V6Z"/><path class="cls-8" d="M52.06,9.77c.18-.36.36-.74.85-.75,0,1.06,0,2.12,0,3.18-.29,0-.54.32-.86.11a3.83,3.83,0,0,1,0-1.17c.2-.1.19-.2,0-.31A3.43,3.43,0,0,1,52.06,9.77Z"/><path class="cls-4" d="M1,8.82c-.32.25-.56-.13-.86-.11,0-.81,0-1.62,0-2.43.29,0,.62.06.86-.19a.61.61,0,0,1,0,.4C.8,6.59.8,6.7,1,6.8A11.36,11.36,0,0,1,1,8.82Z"/><path class="cls-10" d="M1,15.06c-.37.11-.52-.38-.87-.32V12.63A1,1,0,0,1,1,13,16.51,16.51,0,0,1,1,15.06Z"/><path class="cls-11" d="M52.06,12.31c.32.21.57-.15.86-.11v1.91l-.86.11A12.18,12.18,0,0,1,52.06,12.31Z"/><path class="cls-3" d="M52.92,6.08l-.85,0a2.69,2.69,0,0,1,0-1C53,5,53,5,52.92,6.08Z"/><path class="cls-4" d="M.85,18.24l.16.09c0,.24.15.47,0,.7L.08,19c.12-.21,0-.44.07-.65A1.52,1.52,0,0,0,.85,18.24Z"/><path class="cls-3" d="M1,6.09c-.24.25-.57.15-.86.19V5.64l.9,0A.64.64,0,0,1,1,6.09Z"/><path class="cls-5" d="M1,5.66l-.9,0C.06,5.3.2,5.17.54,5.2l.51,0Z"/><path class="cls-12" d="M47,1.43a2.05,2.05,0,0,1-1.25,0Z"/><path class="cls-8" d="M1,6.8C.8,6.7.8,6.59,1,6.49A.34.34,0,0,1,1,6.8Z"/><path class="cls-9" d="M52.07,10.83c.19.11.2.21,0,.31Z"/><path class="cls-12" d="M49.26,1.5c-.15,0-.3.05-.43-.07A.54.54,0,0,1,49.26,1.5Z"/><path class="cls-8" d="M34.41,21.16c0-.1,0-.2.1-.27v.28h0Z"/><path class="cls-12" d="M43.83,1.43c-.06.09-.13.09-.19,0Z"/><path class="cls-12" d="M51.58,18.79l.05-.22A.2.2,0,0,1,51.58,18.79Z"/><path class="cls-8" d="M52.08,6.37c.08,0,.09.08,0,.11Z"/><path class="cls-12" d="M51.63,4l-.05-.14Z"/><path class="cls-4" d="M50.52.55l0,0,0,0Z"/><path class="cls-11" d="M.85,18.24a1.52,1.52,0,0,1-.7.09v-.16C.39,18.08.65,17.84.85,18.24Z"/><path class="cls-10" d="M22.77,2.36H33.55c.19,0,.39-.07.55.1l-1.42.38c0,.05,0,.07,0,.08l.11.11c.48.43,1.21.59,1.37,1.36,0,.12.21.07.33.05,0,1.25,0,2.5,0,3.75,0,2.78,0,5.57,0,8.35-.32-.05-.46.14-.6.39a1.58,1.58,0,0,1-2.18.78V17l.1,0-.11-.07c-.27-.68-.71-1-1.36-.79a1.87,1.87,0,0,1-.88,0,.39.39,0,0,1,.32-.5,4.29,4.29,0,0,0,2.33-2.08,4.72,4.72,0,0,0,.53-2.44,4.37,4.37,0,0,0-2-3.59,6.48,6.48,0,0,0-3.86-1.34,7,7,0,0,0-3.49.71,7,7,0,0,0-1.86,1.45,3.36,3.36,0,0,0-.93,2.18c0,.37.42.53.32.91a2.69,2.69,0,0,0-.32-.27,1.44,1.44,0,0,0-2.19,1.23c.14,1.19.89,1.58,2.1,1.24.14,0,.33-.08.22-.32s-.16-.28-.42-.18c-.56.2-.86.07-1.05-.38l.08-.18,1.68,0a.21.21,0,0,1,0,.1,3.18,3.18,0,0,0,2,2.61c.12.05.12.16.15.26-.08.41-.58.66-.44,1.16,0,.18.08.25.24.24l0,1.29-.08.05.1,0,.2.39c-.28.17-.56.53-.83,0,0-.35-.15-.58-.58-.36a.78.78,0,0,1-.69-.07c0-.18-.06-.27-.25-.26a1,1,0,0,1,.13-1.13.67.67,0,0,1,.87-.15c.3.16.37,0,.44-.22s-.15-.26-.3-.31a1.51,1.51,0,0,0-1.77.66l-.54,0a1.44,1.44,0,0,0-1-.74c0-.14,0-.29-.16-.35-.58-.2-.76-.74-1-1.21a9.33,9.33,0,0,0-.43-.83c0-.4,0-.8,0-1.2s-.08-.6.2-.82c.25.25.41.09.55-.13.35,0,.29-.31.43-.54H17l-.19,0a4.62,4.62,0,0,1,.88-3.41,7.83,7.83,0,0,1,2.8-2.86,12.76,12.76,0,0,1,2.69-1.28A11.09,11.09,0,0,0,25,2.86a13,13,0,0,0-1.86-.19C23,2.69,22.75,2.67,22.77,2.36Z"/><path class="cls-12" d="M47.44,2.46c.39,0,.78,0,1.16,0a1.9,1.9,0,0,1,2.1,2.05c.07,2.36,0,4.72,0,7.08,0,2.14.05,4.28,0,6.42a1.94,1.94,0,0,1-2.12,2.14,5.18,5.18,0,0,0-1.57.1c0-.19-.15-.22-.31-.21a22.08,22.08,0,0,1-3-.21c-.4,0-.6-.13-.32-.54.11-.16.06-.35.07-.52H44.7q0,.09.09,0l.51,0,.15-.17.22.33c0,.11,0,.28.17.26a.23.23,0,0,0,.22-.29h0c.18,0,.25,0,.21-.22h0c.18,0,.28,0,.21-.21h0c.07.07.15,0,.22,0a.63.63,0,0,0,.44.1c.73.17.73.17.73-.63,0-.21,0-.42,0-.63v-.22h0c.09,0,.13,0,.11-.11h0c.1,0,.13,0,.11-.11h0c.09,0,.13,0,.11-.11h0c.1,0,.14,0,.11-.11h0c.1,0,.13,0,.11-.11h0c.09,0,.13,0,.1-.11h0c.1,0,.13,0,.11-.11h0c.09,0,.13,0,.11-.11h0c.1,0,.14,0,.11-.11h0c.1,0,.13,0,.11-.11h0c.1,0,.14,0,.11-.11h0c.1,0,.13,0,.11-.11h0c.1,0,.13,0,.1-.11h0c.1,0,.14,0,.11-.11h0c.1,0,.13,0,.11-.11h0c.1,0,.14,0,.11-.11h0c.1,0,.13,0,.11-.11h0c.09,0,.13,0,.1-.11h0c.1,0,.13,0,.11-.11h0c.1,0,.13,0,.11-.1h0c.1,0,.2,0,.2-.1,0-1,0-1.93,0-3-.19.16-.36.22-.3.43h0c-.1,0-.14,0-.11.11h0c-.1,0-.13,0-.11.11h0c-.09,0-.13,0-.11.1h0c-.1,0-.13,0-.11.11h0c-.09,0-.13,0-.11.11h0c-.1,0-.14,0-.11.11h0c-.1,0-.13,0-.11.11h0c-.09,0-.13,0-.1.11h0c-.1,0-.13,0-.11.11h0c-.09,0-.13,0-.11.11h0c-.1,0-.14,0-.11.11h0c-.1,0-.13,0-.11.11h0c-.1,0-.14,0-.11.11h0c-.1,0-.13,0-.11.11h0c-.09,0-.13,0-.11.11h0c-.1,0-.14,0-.11.11H48c-.15-.14-.09-.32-.09-.49,0-.69,0-1.37,0-2,0-.19,0-.42-.26-.42h-.25l.07-.09a4.45,4.45,0,0,0,.11-1.7c0-.28.12-.6-.11-.86l-.09-.07-.11-.15A2.63,2.63,0,0,0,47,7.34c.1-.09,0-.18,0-.28a3.84,3.84,0,0,0-.95-1.31c0-.33.21-.66,0-1a12.3,12.3,0,0,1-.78-1.48c-.22-.5-.25-.49.31-.5A4.56,4.56,0,0,0,47.44,2.46Z"/><path class="cls-11" d="M19.64,16.76l.54,0a1.42,1.42,0,0,0,1.86,2c.1,0,.19-.08.29-.12.27.54.55.18.83,0a1.3,1.3,0,0,0,1,.19c.24,0,.25-.17.25-.37s-.16-.18-.31-.16c-.33.06-.5-.09-.51-.42v-.58c0-.69,0-.69.69-.68.17,0,.25.41.5.15H25c0,.53,0,1,0,1.58,0,.2-.1.45.3.45s.33-.24.34-.48c0-.52,0-1,0-1.57a1.2,1.2,0,0,1,.59.15c-.16.94.06,1.57.64,1.83a1.41,1.41,0,0,0,1.73-.49c.23,0,.37.28.63.22,0,.32.16.35.43.34s.22-.21.22-.36c0-.42,0-.85,0-1.27s.21-.57.56-.58.53.22.53.57,0,.7,0,1.05-.19.6.33.59.25-.35.29-.56a3,3,0,0,0,0-.52,1.58,1.58,0,0,0,2.18-.78c.14-.25.28-.44.6-.39v3.71c-4.93,0-9.87-.05-14.8,0-2.9,0-5.81.08-8.71.08-.2,0-.43.08-.61-.1l.08-.07c1.35-.11,2.7,0,4-.06.61,0,1.21-.09,1.81-.15.17,0,.52,0,.47-.22s.3-.75-.18-1a.12.12,0,0,1,0-.1c.09,0,.24,0,.25-.08s-.16-.1-.25-.13v-.53H17c.61.86,1.16,1.1,2,.84.15-.05.42,0,.32-.35s-.23-.25-.47-.17a.73.73,0,0,1-1.06-.43,6.59,6.59,0,0,0,.77,0c.27,0,.59.16.8-.15C20,17.51,19.63,17.08,19.64,16.76Z"/><path class="cls-13" d="M47.44,2.46a4.56,4.56,0,0,1-1.83.32c-.56,0-.53,0-.31.5a12.3,12.3,0,0,0,.78,1.48c.19.33,0,.66,0,1a4.54,4.54,0,0,0-1.83-1,3.36,3.36,0,0,0-3,.42c-.22,0-.31.25-.52.23a.31.31,0,0,0-.12-.23,15.81,15.81,0,0,1-1.89-1.86.48.48,0,0,1-.19-.47c.06-.22.27-.17.43-.21a7,7,0,0,1,1.58-.1c1.81,0,3.61-.14,5.42-.12C46.42,2.46,46.93,2.21,47.44,2.46Z"/><path class="cls-14" d="M38.54,17.92c0-2.13,0-4.26,0-6.39,0-.35.06-.56.46-.49.26.32.64.15,1,.24s.7,0,1,.11c-.29.08-.34.27-.34.55,0,2,0,3.89,0,5.84,0,.21.06.43-.1.61a2.46,2.46,0,0,1-.81.08l-.12,0a.75.75,0,0,1-.44.08.5.5,0,0,0-.42.15l-.21,0,0-.2Z"/><path class="cls-13" d="M38.54,17.92c0,.21,0,.42,0,.64-.34,0-.36.21-.39.47,0,.11-.14.21,0,.28s.15.06.19,0a.3.3,0,0,0,.14-.31c0-.1-.25-.24.05-.28l.21,0v0c0,.08.07.08.1,0l.35,0h0c.11.19.22.15.32,0h.17l3.74,0c0,.17,0,.36-.07.52-.28.41-.08.51.32.54a22.08,22.08,0,0,0,3,.21c.16,0,.29,0,.31.21-1-.05-2-.07-3,0-1.17,0-2.31-.18-3.45-.15s-2.26-.2-3.4-.13c-.21,0-.48,0-.56-.18s.18-.31.3-.45c.32-.39.77-.66,1-1.16C38,17.87,38.29,17.92,38.54,17.92Z"/><path class="cls-8" d="M34.49,4.44c-.12,0-.31.07-.33-.05C34,3.62,33.27,3.46,32.79,3l-.11-.11s0,0,0-.08l1.42-.38h.21c0,.07.07.07.11,0h.08a4.77,4.77,0,0,1,0,1.36c-.48.15-.22.31,0,.47Z"/><path class="cls-5" d="M40.67,5.44c.21,0,.3-.26.52-.23h.22c-.31.38-.86.5-1.08,1a3.74,3.74,0,0,0-1.12,2.08h-.12a3.92,3.92,0,0,1,1.24-2.51Z"/><path class="cls-2" d="M39.09,8.27h.12c0,.92,0,1.83,0,2.74h-.06A19.56,19.56,0,0,1,39.09,8.27Z"/><path class="cls-4" d="M39.11,11h.71c0,.1.22.1.14.25-.32-.09-.7.08-1-.24Z"/><path class="cls-10" d="M34.46,4.29c-.21-.16-.47-.32,0-.47C34.46,4,34.46,4.14,34.46,4.29Z"/><path class="cls-8" d="M34.51,1.72l0-.07s0,0,0,0Z"/><path class="cls-8" d="M16.61,18.76c.48.24.1.66.18,1s-.3.2-.47.22c-.6.06-1.2.13-1.81.15-1.35,0-2.7-.05-4,.06l-.08.07c-2.15-.07-4.3.15-6.45,0v-.11c.36-.22.75-.07,1.13-.1a12,12,0,0,0,2.46-.14c.5-.15.41-.45.38-.8s-.36-.14-.52-.24c.21-.3.66-.59.06-.93a2,2,0,0,1-.61-.62,6.36,6.36,0,0,1-.58-1.52.85.85,0,0,1,.94-.08c.28.14.32,0,.42-.19s0-.3-.2-.37A3,3,0,0,0,6.47,15c0-.11.13-.22,0-.33s-.16,0-.23,0-.2.2-.12.36a.17.17,0,0,1-.22.06l0-.36c.11-.76.11-.76-.24-1.08a3,3,0,0,0,.42,0,1.06,1.06,0,0,0,1-1.37c-.08-.48-.56-.56-.85-.83a.31.31,0,0,0-.14-.31c-.3-.18-.36-.34,0-.47a.22.22,0,0,0,.13-.21c.2-.09.37.29.55,0s.21-.38,0-.56c0-.12,0-.24-.17-.28s-.13.08-.15.16H5.94a2,2,0,0,1-.21-1,1.79,1.79,0,0,0,1.47,0,1.51,1.51,0,0,0,1-1.08,1.44,1.44,0,0,0-.53-1.46l-.51-.41c0-.19,0-.39-.23-.46a.22.22,0,0,1-.16-.33c.08-.14.13-.35.35-.34s.24.06.34,0c.52,0,.36-.52.52-.8-.11-.49.09-1.13-.67-1.29,0,0,0-.09-.05-.14.34,0,.67,0,1,0a3.69,3.69,0,0,0,1.44-.11h.64a.26.26,0,0,0,.42,0h2.33c0,.07,0,.18.13.15s.05-.1.08-.15h.42c.09.34.37.18.57.2s.68,0,.82.24-.24.4-.37.61a3.37,3.37,0,0,1-.28.38,1,1,0,0,1-.83.37c.06-.49-.22-.5-.6-.51s-.34.3-.34.53c0,1.41,0,2.81,0,4.21a.56.56,0,0,0-.8.39c-.07.18-.1.37-.16.54-.2.53,0,1.07-.09,1.59-.53,0-1.07.63-1.12,1.29h-.15c-.17-.11-.16-.29-.22-.46a1.11,1.11,0,0,0-1-.82,1.33,1.33,0,0,0-1.45.72A1.57,1.57,0,0,0,8,13.36a1.72,1.72,0,0,0,1.69.2c.18-.09.22-.18.13-.36s-.15-.23-.36-.14a.79.79,0,0,1-1-.14l0-.4,1.66,0c.3.07.23.5.55.55l.32.39c-.67.09-.68.16-.54.8s.52,1.23.67,1.88c0,.06-.11.12-.11.17,0,.74,0,1.47,0,2.21a.24.24,0,0,0,.19.27c.51.12.71-.06.64-.59,0-.33,0-.67,0-1s.06-.55.46-.53.63.05.63.49,0,.92,0,1.38c0,.27.14.26.33.27s.34,0,.32-.28a2.57,2.57,0,0,1,0-.48c.16,0,.33-.05.25-.26-.15-.41.11-.38.36-.38a4,4,0,0,1,0,.77c-.07.54.12.74.65.6a.71.71,0,0,0,0-1,1.3,1.3,0,0,1,0-.62c.22-.09.14-.28.15-.44.57-.3.8-.19.91.43A.57.57,0,0,0,16,18v.33c-.23.1-.23.2,0,.31S16.38,18.75,16.61,18.76ZM11.41,4.68c.36-.86.3-1-.56-1.06a3,3,0,0,0-.85,0,1.37,1.37,0,0,0-1,2,1.77,1.77,0,0,0,.85.77,3.81,3.81,0,0,1,1,.62.67.67,0,0,1,.19.73.61.61,0,0,1-.6.35,1.41,1.41,0,0,1-.92-.2C9.23,7.71,9.15,7.78,9,8c-.24.44-.09.64.34.75a2.93,2.93,0,0,0,.88.13,1.53,1.53,0,0,0,1.63-1.2A1.49,1.49,0,0,0,10.93,6a4.3,4.3,0,0,1-.9-.54.57.57,0,0,1-.22-.7.6.6,0,0,1,.64-.36A2,2,0,0,1,11.41,4.68ZM10.7,17.46A1.25,1.25,0,0,0,9.43,16a1.29,1.29,0,0,0-1.32,1.4,1.3,1.3,0,1,0,2.59,0Z"/><path class="cls-11" d="M11.14,16.12c-.15-.65-.52-1.22-.67-1.88s-.13-.71.54-.8a1.81,1.81,0,0,0,1.57.14c.18-.07.3-.14.18-.39s-.18-.19-.38-.12c-.72.27-1.2-.1-1.16-.85a.75.75,0,0,1,1.1-.72c.32.11.4-.06.45-.24s-.19-.27-.33-.3a6.66,6.66,0,0,0-.78-.05c.12-.52-.11-1.06.09-1.59.06-.17.09-.36.16-.54a.56.56,0,0,1,.8-.39c0,.27,0,.45.4.43.85,0,1.7,0,2.54,0,.33,0,.34-.16.33-.39S16,8,15.65,8C15.11,8,14.56,8,14,8c-.26,0-.36,0-.36-.34,0-1.17,0-2.33,0-3.49a1,1,0,0,0,.83-.37,3.37,3.37,0,0,0,.28-.38c.13-.21.55-.33.37-.61s-.52-.2-.82-.24-.48.14-.57-.2H21.5c0,.11.06.19.19.2a.21.21,0,0,0,.24-.2h.84c0,.31.19.33.41.31A13,13,0,0,1,25,2.86a11.09,11.09,0,0,1-1.83.51,12.76,12.76,0,0,0-2.69,1.28,7.83,7.83,0,0,0-2.8,2.86,4.62,4.62,0,0,0-.88,3.41c-.35,0-.47.12-.44.48a9.86,9.86,0,0,1,0,1.63c0,.52.12.72.63.6a9.33,9.33,0,0,1,.43.83c.26.47.44,1,1,1.21.16.06.17.21.16.35-.92.06-1.49.52-1.57,1.27h-.44c-.12-1-.57-1.38-1.31-1.21-.27.06-.49.25-.8,0s-.3.05-.3.28,0,.67,0,1c-.25,0-.51,0-.36.38.08.21-.09.25-.25.26,0-.22,0-.45,0-.68,0-1.1-.5-1.48-1.58-1.22-.11,0-.21-.18-.33,0h-.52Zm4.62-4a7.86,7.86,0,0,1,0-.84c0-.27-.11-.32-.34-.32s-.31.09-.3.31c0,.46,0,.92,0,1.37s-.3.53-.64.54-.45-.23-.46-.53,0-.88,0-1.32c0-.25,0-.38-.34-.37s-.31.12-.31.35c0,.48,0,1,0,1.43a.91.91,0,0,0,1.29.92c.2-.05.36-.15.6,0s.53.07.48-.36a4.46,4.46,0,0,1,0-.73C15.94,12.38,15.94,12.23,15.76,12.09Z"/><path class="cls-4" d="M7.38,18.86c.16.1.48-.17.52.24s.12.65-.38.8A12,12,0,0,1,5.06,20c-.38,0-.77-.12-1.13.1H3.61a.29.29,0,0,0-.18-.29,1.51,1.51,0,0,1-.86-1.06c0-.12-.07-.23-.23-.24V4.16c.08,0,.18,0,.16-.13S2.4,4,2.35,3.94a.2.2,0,0,1,.09-.21c.34-.06.17-.34.22-.52h.1a.75.75,0,0,0,.43-.53h.1a.19.19,0,0,0,.22-.2l.41,0c.18,0,.38.08.54-.09H5.73c.51.23,1.06,0,1.58.1,0,0,0,.14.05.14.76.16.56.8.67,1.29l-.29-.17c0-.15-.07-.25-.22-.08a9.2,9.2,0,0,0-1,0A1.36,1.36,0,0,0,5.19,4.81a1.37,1.37,0,0,0,1,1.58,2.14,2.14,0,0,1,1,.6.7.7,0,0,1,.17.74c-.1.27-.35.32-.6.34a1.54,1.54,0,0,1-.92-.19c-.53-.32-.46.21-.6.43s.14.31.29.4l.24.11a2,2,0,0,0,.21,1c-.85.29-1,.5-.91,1.28.06.54.56.63.92.85s.79.4.58.86-.67.3-1,.12-.33.08-.42.25,0,.32.19.36.3.08.45.12c.35.32.35.32.24,1.08l0,.36c-.31.32-.7.57-.84,1A1.87,1.87,0,0,0,7,18.85Z"/><path class="cls-11" d="M7.31,2.46c-.52-.06-1.07.13-1.58-.1A.3.3,0,0,1,6,2.25H9.47a.33.33,0,0,1,.28.1,3.69,3.69,0,0,1-1.44.11C8,2.48,7.65,2.46,7.31,2.46Z"/><path class="cls-8" d="M2.34,18.55c.16,0,.19.12.23.24a1.51,1.51,0,0,0,.86,1.06.29.29,0,0,1,.18.29A1.59,1.59,0,0,1,2.34,18.55Z"/><path class="cls-11" d="M3.19,2.67a.75.75,0,0,1-.43.53A.46.46,0,0,1,3.19,2.67Z"/><path class="cls-11" d="M4.46,2.36c-.16.17-.36.08-.54.09C4.05,2.14,4.24,2.21,4.46,2.36Z"/><path class="cls-8" d="M2.66,3.21c-.05.18.12.46-.22.52C2.58,3.58,2.31,3.27,2.66,3.21Z"/><path class="cls-11" d="M10.81,2.36a.26.26,0,0,1-.42,0A.25.25,0,0,1,10.81,2.36Z"/><path class="cls-10" d="M21.93,2.36a.21.21,0,0,1-.24.2c-.13,0-.17-.09-.19-.2Z"/><path class="cls-8" d="M2.35,3.94S2.49,4,2.5,4s-.08.11-.16.13Z"/><path class="cls-11" d="M3.51,2.47a.19.19,0,0,1-.22.2C3.3,2.53,3.37,2.46,3.51,2.47Z"/><path class="cls-11" d="M13.35,2.36c0,.05,0,.15-.08.15s-.12-.08-.13-.15Z"/><path class="cls-11" d="M3.71,20.14h.22v.11C3.76,20.41,3.74,20.28,3.71,20.14Z"/><path class="cls-10" d="M34.42,2.46c0,.07-.07.07-.11,0Z"/><path class="cls-9" d="M24.78,16.76c-.25.26-.33-.13-.5-.15a.56.56,0,0,0,0-.52c-.1-.36-.44-.48-.66-.7s-.32.06-.48.07,0-.21-.15-.26a3.18,3.18,0,0,1-2-2.61.21.21,0,0,0,0-.1c.23-.39,0-.75-.1-1.11.1-.38-.35-.54-.32-.91a3.36,3.36,0,0,1,.93-2.18,7,7,0,0,1,1.86-1.45,7,7,0,0,1,3.49-.71,6.48,6.48,0,0,1,3.86,1.34,4.37,4.37,0,0,1,2,3.59,4.72,4.72,0,0,1-.53,2.44,4.29,4.29,0,0,1-2.33,2.08.39.39,0,0,0-.32.5h0c-.39-.11-.74-.12-.85.4a1.34,1.34,0,0,0-2.26.42,1.2,1.2,0,0,0-.59-.15.75.75,0,0,0,0-.21c0-.14.09-.38-.11-.41a1.88,1.88,0,0,0-.82,0c-.13.05-.13.33,0,.5ZM26.57,14a2.86,2.86,0,0,0,3.16-2.25,2.83,2.83,0,0,0-1.51-2.88,4.27,4.27,0,0,0-3.62.19,2.53,2.53,0,0,0-1.08,3.24A3,3,0,0,0,26.57,14ZM25.4,15.05c-.24,0-.38.15-.37.37a.36.36,0,0,0,.71,0A.36.36,0,0,0,25.4,15.05Z"/><path class="cls-15" d="M20.86,11.38c.14.36.33.72.1,1.11l-1.68,0c-.07,0-.14,0-.15.07s.05.08.07.11c.19.45.49.58,1.05.38.26-.1.33,0,.42.18s-.08.28-.22.32c-1.21.34-2-.05-2.1-1.24a1.44,1.44,0,0,1,2.19-1.23A2.69,2.69,0,0,1,20.86,11.38ZM19.15,12h1c.27,0,.24-.13.15-.29a.57.57,0,0,0-.58-.28A.58.58,0,0,0,19.15,12Z"/><path class="cls-15" d="M17.07,17.29c.08-.75.65-1.21,1.57-1.27a1.44,1.44,0,0,1,1,.74c0,.32.37.75-.26.9l-1.36,0c-.11,0-.27,0-.21.17a.73.73,0,0,0,1.06.43c.24-.08.38-.1.47.17s-.17.3-.32.35c-.82.26-1.37,0-2-.84A1.23,1.23,0,0,0,17.07,17.29Zm1.34-.73-.17,0c-.24.07-.44.24-.41.47s.29.07.45.09a1.85,1.85,0,0,0,.47,0c.11,0,.26.08.31-.09s-.06-.23-.14-.32A.73.73,0,0,0,18.41,16.56Z"/><path class="cls-15" d="M29.43,16.07h0a1.87,1.87,0,0,0,.88,0c.65-.2,1.09.11,1.36.79v.85a3,3,0,0,1,0,.52c0,.21.2.56-.29.56s-.31-.36-.33-.59,0-.7,0-1.05-.16-.59-.53-.57-.59.16-.56.58,0,.85,0,1.27c0,.15.08.35-.22.36s-.45,0-.43-.34,0-.53,0-.79A5.3,5.3,0,0,1,29.43,16.07Z"/><path class="cls-15" d="M22.33,18.62c-.1,0-.19.09-.29.12a1.42,1.42,0,0,1-1.86-2A1.51,1.51,0,0,1,22,16.12c.15.05.4.05.3.31s-.14.38-.44.22a.67.67,0,0,0-.87.15,1,1,0,0,0-.13,1.13.38.38,0,0,0,.25.26.78.78,0,0,0,.69.07C22.18,18,22.28,18.27,22.33,18.62Z"/><path class="cls-15" d="M24.26,16.09a.56.56,0,0,1,0,.52c-.69,0-.7,0-.69.68v.58c0,.33.18.48.51.42.15,0,.31-.12.31.16s0,.34-.25.37a1.3,1.3,0,0,1-1-.19l-.2-.39s0-.07,0-.09l0-1.29v-.11c0-.06,0-.09-.05-.09l-.2,0c-.14-.5.36-.75.44-1.16.16,0,.3-.14.48-.07C23.58,16.23,23.51,16.1,24.26,16.09Z"/><path class="cls-15" d="M17,13.63c-.51.12-.68-.08-.63-.6a9.86,9.86,0,0,0,0-1.63c0-.36.09-.51.44-.48l.19,0c0,.15.1.12.15,0h1.05c-.14.23-.08.54-.43.54a.41.41,0,0,0-.55.13c-.28.22-.19.54-.2.82S17,13.23,17,13.63Z"/><path class="cls-11" d="M17.25,11.61a.41.41,0,0,1,.55-.13C17.66,11.7,17.5,11.86,17.25,11.61Z"/><path class="cls-7" d="M22.93,16.75v.11c-.16,0-.26-.06-.24-.24l.2,0Z"/><path class="cls-11" d="M21.06,18.19a.38.38,0,0,1-.25-.26C21,17.92,21.08,18,21.06,18.19Z"/><path class="cls-7" d="M31.71,17v-.11l.11.07Z"/><path class="cls-11" d="M17.18,10.94c-.05.12-.1.15-.15,0Z"/><path class="cls-7" d="M22.94,18.15s0,.05,0,.09l-.1,0Z"/><path class="cls-7" d="M19.2,12.7s-.07-.07-.07-.11.08-.08.15-.07Z"/><path class="cls-9" d="M45.67,18.89l-.22-.33c-.17-.14-.25-.38-.5-.42l-1.23-1.26a15.43,15.43,0,0,1-.1-2.64l.41.19,1.07,1.08.18.18.38.35c.15.37.19.37.41.09h0a.1.1,0,0,0,.11-.11h0a.1.1,0,0,0,.11-.11h0a.25.25,0,0,0,.22-.22h0c.08,0,.11,0,.11-.1h0c.08,0,.11,0,.11-.11h0c.07,0,.11,0,.1-.11h0a.1.1,0,0,0,.11-.11h0a.1.1,0,0,0,.11-.11h0c.08,0,.11,0,.11-.1h0a.1.1,0,0,0,.11-.11h0a.23.23,0,0,0,.21-.21h0a.1.1,0,0,0,.11-.11h0a.1.1,0,0,0,.11-.11h0a.23.23,0,0,0,.21-.21h0a.1.1,0,0,0,.11-.11h0a.23.23,0,0,0,.21-.21h0a.1.1,0,0,0,.11-.11h0a.1.1,0,0,0,.11-.11h0a.1.1,0,0,0,.11-.11h0a.1.1,0,0,0,.11-.11h0a.1.1,0,0,0,.11-.11h0a.1.1,0,0,0,.11-.11h0a.1.1,0,0,0,.11-.11h0a.1.1,0,0,0,.11-.11h0c.07,0,.11,0,.1-.11h0a.1.1,0,0,0,.11-.11h0a.1.1,0,0,0,.11-.11h0a.1.1,0,0,0,.11-.11h0a.1.1,0,0,0,.11-.11h0c.08,0,.12,0,.11-.1h0a.1.1,0,0,0,.11-.11h0c.07,0,.11,0,.11-.11h0c.07,0,.16,0,.16.11A16.33,16.33,0,0,1,50,15h0c-.08,0-.12,0-.11.1h0c-.08,0-.11,0-.11.11h0c-.07,0-.11,0-.1.11h0a.1.1,0,0,0-.11.11h0a.1.1,0,0,0-.11.11h0a.1.1,0,0,0-.11.11h0c-.08,0-.11,0-.11.11h0c-.07,0-.11,0-.1.11h0a.1.1,0,0,0-.11.11h0a.1.1,0,0,0-.11.11h0a.1.1,0,0,0-.11.11h0a.1.1,0,0,0-.11.11h0c-.08,0-.12,0-.11.11h0a.1.1,0,0,0-.11.11h0c-.07,0-.11,0-.1.11h0a.1.1,0,0,0-.11.11h0a.1.1,0,0,0-.11.11h0c-.08,0-.11,0-.11.11h0A.1.1,0,0,0,48,17h0c-.08,0-.12,0-.11.11h0a.24.24,0,0,0-.21.22h0c-.08,0-.12,0-.11.1h0a.1.1,0,0,0-.11.11h0c-.08,0-.11,0-.11.11h0a.1.1,0,0,0-.11.11h0a.86.86,0,0,0-.42.42h0a.1.1,0,0,0-.11.11h0a.23.23,0,0,0-.21.21h0a.23.23,0,0,0-.21.21h0a.24.24,0,0,0-.21.22h0A.49.49,0,0,1,45.67,18.89Z"/><path class="cls-14" d="M45.66,16l-.38-.35,0-.09c.29,0,.22-.27.22-.46V11.4l.63-.08h.31A2,2,0,0,0,47.61,11c.3,0,.26.23.26.42,0,.68,0,1.36,0,2,0,.17-.06.35.09.49s-.1.16,0,.22h0l-.09,0,0,.13h0q-.3-.09-.21.21h-.13l0,.1h0l-.1,0v.13h0c-.19-.05-.27,0-.21.21h0c-.12-.05-.16,0-.11.11h0c-.12-.05-.15,0-.11.1h0c-.12-.05-.16,0-.11.11h0c-.12,0-.16,0-.11.11h0c-.12,0-.15,0-.1.11h0l-.09,0,0,.13h0c-.12,0-.15,0-.11.1h0c-.2,0-.28,0-.22.22h0c-.13-.05-.17,0-.11.11h0c-.13-.06-.16,0-.11.11h0Z"/><path class="cls-3" d="M47,7.34a2.63,2.63,0,0,1,.22.82s-.09.09-.08.13A24.82,24.82,0,0,1,47.24,11h-.55c0-.37,0-.73,0-1.1a4.38,4.38,0,0,0-.1-1.53l0-.3c-.11-.45-.14-.93-.61-1.18h0c0-.09,0-.18-.13-.21l0-.15.37-.07h0l.17.11C46.74,6.68,46.63,7.23,47,7.34Z"/><path class="cls-1" d="M45,18.14c.25,0,.33.28.5.42l-.15.17a2.25,2.25,0,0,0-.36-.06H40a.47.47,0,0,0-.35.08h-.47c0-.06,0-.12,0-.17a.75.75,0,0,0,.44-.08c0,.06.08,0,.12,0a2.46,2.46,0,0,0,.81-.08c.46.12.89-.2,1.33-.12.82.13,1.65,0,2.47.09C44.59,18.39,44.82,18.4,45,18.14Z"/><path class="cls-5" d="M47,7.34c-.38-.11-.27-.66-.67-.75,0-.07-.08-.13-.17-.11h0c-.09-.59-.59-.79-1-1.06s-.93-.23-1.32-.55c.11-.12.25-.08.39-.08a4.54,4.54,0,0,1,1.83,1A3.84,3.84,0,0,1,47,7.06C47.05,7.16,47.11,7.25,47,7.34Z"/><path class="cls-14" d="M47.86,17.28c0,.21,0,.42,0,.63,0,.8,0,.8-.73.63.1-.18,0-.35,0-.53h0l.1-.1c0-.07.13-.13,0-.21h0c.12.05.16,0,.11-.11h0c.12,0,.15,0,.11-.11h.12l0-.1h0c.13.06.16,0,.11-.1h0C47.72,17.39,47.79,17.28,47.86,17.28Z"/><path class="cls-16" d="M39.68,18.74a.47.47,0,0,1,.35-.08h4.91a2.25,2.25,0,0,1,.36.06l-.51,0H43.42Z"/><path class="cls-1" d="M50,15A16.33,16.33,0,0,0,50,12.43c0-.09-.09-.09-.16-.11-.06-.21.11-.27.3-.43,0,1,0,2,0,3C50.17,14.94,50.07,15,50,15Z"/><path class="cls-2" d="M47.24,11a24.82,24.82,0,0,0-.09-2.73s.05-.09.08-.13l.11.15c0,.9,0,1.8,0,2.7A.14.14,0,0,1,47.24,11Z"/><path class="cls-4" d="M47.24,11a.14.14,0,0,0,.09,0l0,0h.25a2,2,0,0,1-1.14.28l0,0,0,0h-.24c0-.16.16-.19.24-.28l.29,0Z"/><path class="cls-5" d="M47.36,11l0,0c0-.9,0-1.8,0-2.7l.09.07v2.56Z"/><path class="cls-13" d="M47.43,10.94V8.38c.23.26.12.58.11.86A4.45,4.45,0,0,1,47.43,10.94Z"/><path class="cls-6" d="M47.11,18c0,.18.13.35,0,.53a.63.63,0,0,1-.44-.1v-.21h0c.1,0,.14,0,.11-.11h0C47,18.22,47,18,47.11,18Z"/><path class="cls-1" d="M45.67,18.89a.49.49,0,0,0,.39,0,.23.23,0,0,1-.22.29C45.65,19.17,45.69,19,45.67,18.89Z"/><path class="cls-1" d="M47.86,17.28c-.07,0-.14.11-.21,0a.24.24,0,0,1,.21-.22Z"/><path class="cls-1" d="M46.06,18.87a.24.24,0,0,1,.21-.22C46.31,18.84,46.24,18.91,46.06,18.87Z"/><path class="cls-1" d="M46.69,18.23v.21c-.07,0-.15.07-.22,0A.23.23,0,0,1,46.69,18.23Z"/><path class="cls-1" d="M46.27,18.65a.23.23,0,0,1,.21-.21C46.55,18.65,46.45,18.69,46.27,18.65Z"/><path class="cls-1" d="M48,14.22c-.12-.06,0-.14,0-.22h.23A.23.23,0,0,1,48,14.22Z"/><path class="cls-1" d="M48.81,16.11a.1.1,0,0,1,.11-.11C48.94,16.1,48.91,16.14,48.81,16.11Z"/><path class="cls-1" d="M48.7,16.22a.1.1,0,0,1,.11-.11C48.84,16.21,48.8,16.25,48.7,16.22Z"/><path class="cls-1" d="M48.6,16.33c0-.08,0-.12.11-.11S48.69,16.35,48.6,16.33Z"/><path class="cls-1" d="M48.39,16.54c0-.08,0-.11.1-.11S48.48,16.56,48.39,16.54Z"/><path class="cls-1" d="M48.28,16.64a.1.1,0,0,1,.11-.11C48.41,16.63,48.38,16.67,48.28,16.64Z"/><path class="cls-1" d="M48.17,16.75a.1.1,0,0,1,.11-.11C48.31,16.74,48.27,16.77,48.17,16.75Z"/><path class="cls-1" d="M48.07,16.86c0-.08,0-.12.11-.11S48.16,16.88,48.07,16.86Z"/><path class="cls-1" d="M48,17a.1.1,0,0,1,.11-.11C48.09,17,48.06,17,48,17Z"/><path class="cls-1" d="M47.86,17.07c0-.08,0-.11.11-.11S48,17.09,47.86,17.07Z"/><path class="cls-1" d="M48.93,13.27a.1.1,0,0,1-.11.11C48.8,13.28,48.84,13.24,48.93,13.27Z"/><path class="cls-1" d="M49,13.16a.1.1,0,0,1-.11.11C48.91,13.17,48.94,13.14,49,13.16Z"/><path class="cls-1" d="M49.87,15.05c0-.07,0-.11.11-.1S50,15.08,49.87,15.05Z"/><path class="cls-1" d="M49.14,13.05c0,.08,0,.12-.1.11S49.05,13,49.14,13.05Z"/><path class="cls-1" d="M49.76,15.16c0-.08,0-.11.11-.11S49.86,15.18,49.76,15.16Z"/><path class="cls-1" d="M49.66,15.27c0-.08,0-.12.1-.11S49.75,15.29,49.66,15.27Z"/><path class="cls-1" d="M49.55,15.37a.1.1,0,0,1,.11-.11C49.68,15.36,49.65,15.4,49.55,15.37Z"/><path class="cls-1" d="M48.62,13.58a.1.1,0,0,1-.11.11C48.48,13.6,48.52,13.56,48.62,13.58Z"/><path class="cls-1" d="M49.25,13a.1.1,0,0,1-.11.11C49.12,13,49.15,12.93,49.25,13Z"/><path class="cls-1" d="M49.36,12.84a.1.1,0,0,1-.11.11C49.22,12.86,49.26,12.82,49.36,12.84Z"/><path class="cls-1" d="M49.44,15.48a.1.1,0,0,1,.11-.11C49.58,15.47,49.54,15.5,49.44,15.48Z"/><path class="cls-1" d="M49.34,15.58a.1.1,0,0,1,.11-.11C49.47,15.57,49.44,15.61,49.34,15.58Z"/><path class="cls-1" d="M49.23,15.69c0-.08,0-.11.11-.11S49.33,15.72,49.23,15.69Z"/><path class="cls-6" d="M44.7,18.77h.09Q44.75,18.86,44.7,18.77Z"/><path class="cls-1" d="M49.13,15.8c0-.08,0-.12.1-.11S49.23,15.82,49.13,15.8Z"/><path class="cls-1" d="M49.46,12.74a.1.1,0,0,1-.11.11C49.33,12.75,49.37,12.71,49.46,12.74Z"/><path class="cls-1" d="M49,15.9a.1.1,0,0,1,.11-.11C49.15,15.89,49.12,15.93,49,15.9Z"/><path class="cls-1" d="M48.49,16.43a.1.1,0,0,1,.11-.11C48.62,16.42,48.59,16.46,48.49,16.43Z"/><path class="cls-1" d="M49.57,12.63a.1.1,0,0,1-.11.11C49.44,12.64,49.47,12.61,49.57,12.63Z"/><path class="cls-1" d="M48.91,16A.1.1,0,0,1,49,15.9C49.05,16,49,16,48.91,16Z"/><path class="cls-1" d="M49.67,12.53c0,.07,0,.11-.11.1S49.58,12.5,49.67,12.53Z"/><path class="cls-1" d="M49.78,12.42a.1.1,0,0,1-.11.11C49.65,12.43,49.68,12.4,49.78,12.42Z"/><path class="cls-1" d="M48.51,13.69a.1.1,0,0,1-.11.11C48.38,13.7,48.41,13.67,48.51,13.69Z"/><path class="cls-1" d="M48.4,13.8a.1.1,0,0,1-.11.11C48.27,13.81,48.31,13.77,48.4,13.8Z"/><path class="cls-1" d="M48.3,13.9a.1.1,0,0,1-.11.11C48.16,13.91,48.2,13.88,48.3,13.9Z"/><path class="cls-1" d="M49.89,12.31c0,.08,0,.12-.11.11S49.79,12.29,49.89,12.31Z"/><path class="cls-1" d="M48.72,13.48a.1.1,0,0,1-.11.11C48.59,13.49,48.62,13.45,48.72,13.48Z"/><path class="cls-1" d="M48.83,13.37a.1.1,0,0,1-.11.11C48.69,13.38,48.73,13.35,48.83,13.37Z"/><path class="cls-15" d="M26.32,16.89a1.34,1.34,0,0,1,2.26-.42,1.61,1.61,0,0,1,.11,1.76,1.41,1.41,0,0,1-1.73.49C26.38,18.46,26.16,17.83,26.32,16.89Zm1.86.56c0-.57-.2-.88-.6-.89s-.66.31-.67.85.22.92.64.92S28.17,18,28.18,17.45Z"/><path class="cls-15" d="M14.2,17.39c0-.33,0-.66,0-1s.13-.39.3-.28.53,0,.8,0c.74-.17,1.19.25,1.31,1.21v1.38a.12.12,0,0,0,0,.1c-.23,0-.47.13-.66-.1v-1.5c-.11-.62-.34-.73-.91-.43-.22.09-.19.26-.15.44a1.3,1.3,0,0,0,0,.62c0,.33,0,.65,0,1-.53.14-.72-.06-.65-.6A4,4,0,0,0,14.2,17.39Z"/><path class="cls-15" d="M24.78,16.65c-.13-.17-.13-.45,0-.5a1.88,1.88,0,0,1,.82,0c.2,0,.08.27.11.41a.75.75,0,0,1,0,.21c0,.52,0,1.05,0,1.57,0,.24.08.49-.34.48s-.29-.25-.3-.45c0-.53,0-1.05,0-1.58C25,16.57,24.89,16.63,24.78,16.65Z"/><path class="cls-10" d="M28.69,18.23a1.61,1.61,0,0,0-.11-1.76c.11-.52.46-.51.85-.4a5.3,5.3,0,0,0-.09,1.59c0,.26,0,.53,0,.79C29.06,18.51,28.92,18.23,28.69,18.23Z"/><path class="cls-7" d="M17.81,17.81c-.06-.21.1-.18.21-.17l1.36,0c-.21.31-.53.11-.8.15A6.59,6.59,0,0,1,17.81,17.81Z"/><path class="cls-8" d="M16.63,17.92v-.64h.44a1.23,1.23,0,0,1,0,.63Z"/><path class="cls-8" d="M16.63,18.66v-.21c.09,0,.27-.05.25.13S16.72,18.65,16.63,18.66Z"/><path class="cls-7" d="M24.78,16.65c.11,0,.24-.08.25.11h-.25Z"/><path class="cls-2" d="M44.23,4.79c-.14,0-.28,0-.39.08H42.57c-.15-.14-.26-.11-.33.07L42.05,5l-.12.08-.52.13h-.22A3.36,3.36,0,0,1,44.23,4.79Z"/><path class="cls-16" d="M45,18.14c-.13.26-.36.25-.59.22-.82-.08-1.65,0-2.47-.09-.44-.08-.87.24-1.33.12.16-.18.1-.4.1-.61,0-2,0-3.89,0-5.84,0-.28.05-.47.34-.55s.59.07.89.07c1.21,0,2.43.06,3.64-.06v3.74c0,.19.07.41-.22.46l-.21-.09L44,14.43c0-.33-.33-.45-.6-.74V16.6c0,.2.1.29.29.28Z"/><path class="cls-6" d="M45.53,11.4c-1.21.12-2.43,0-3.64.06-.3,0-.6-.05-.89-.07s-.71.06-1-.11c.08-.15-.12-.15-.14-.25H46.4c-.08.09-.23.12-.24.28Z"/><path class="cls-6" d="M38.56,18.76c-.3,0-.07.18-.05.28a.3.3,0,0,1-.14.31s-.13,0-.19,0,0-.17,0-.28c0-.26,0-.49.39-.47Z"/><path class="cls-16" d="M39.19,18.57c0,.05,0,.11,0,.17l-.35,0h-.1v0A.5.5,0,0,1,39.19,18.57Z"/><path class="cls-16" d="M39.75,18.47s-.07.08-.12,0Z"/><path class="cls-6" d="M39.19,18.74h.32C39.41,18.89,39.3,18.93,39.19,18.74Z"/><path class="cls-6" d="M38.76,18.76h.1C38.83,18.84,38.8,18.84,38.76,18.76Z"/><path class="cls-3" d="M39.72,11h-.55c0-.91,0-1.82,0-2.74A3.74,3.74,0,0,1,40.33,6.2l.55,0c-.31.44-.81.77-.83,1.38l0,.29c-.17,0-.16.2-.19.34A16.83,16.83,0,0,0,39.72,11Z"/><path class="cls-4" d="M40.88,6.17l-.55,0c.22-.48.77-.6,1.08-1l.52-.13A.09.09,0,0,0,42.05,5L42.24,5a.27.27,0,0,0,.33-.07h1.27c.39.32.91.29,1.32.55s.93.47,1,1.06l-.37.07v0c.06-.19,0-.26-.19-.19l0,0c.08-.27-.11-.24-.27-.24l-.51-.37a2.9,2.9,0,0,0-3-.16A4,4,0,0,0,40.88,6.17Z"/><path class="cls-5" d="M39.72,11a16.83,16.83,0,0,1,.09-2.84c0-.14,0-.29.19-.34,0,.81,0,1.63,0,2.45,0,.22-.08.46.1.65a.14.14,0,0,1,0,.09h-.41Z"/><path class="cls-15" d="M5.73,8.82l-.24-.11c-.15-.09-.52-.05-.29-.4s.07-.75.6-.43a1.54,1.54,0,0,0,.92.19c.25,0,.5-.07.6-.34A.7.7,0,0,0,7.15,7a2.14,2.14,0,0,0-1-.6,1.37,1.37,0,0,1-1-1.58A1.36,1.36,0,0,1,6.47,3.62a9.2,9.2,0,0,1,1,0l.22.08L8,3.89c-.16.28,0,.76-.52.8-.23-.4-.62-.35-1-.29a.53.53,0,0,0-.29.9,1.53,1.53,0,0,0,1,.56l.51.41a1.44,1.44,0,0,1,.53,1.46,1.51,1.51,0,0,1-1,1.08A1.79,1.79,0,0,1,5.73,8.82Z"/><path class="cls-15" d="M11.41,4.68a2,2,0,0,0-1-.31.6.6,0,0,0-.64.36.57.57,0,0,0,.22.7,4.3,4.3,0,0,0,.9.54,1.49,1.49,0,0,1,.94,1.73,1.53,1.53,0,0,1-1.63,1.2,2.93,2.93,0,0,1-.88-.13C8.93,8.66,8.78,8.46,9,8c.13-.24.21-.31.45-.15a1.41,1.41,0,0,0,.92.2.61.61,0,0,0,.6-.35A.67.67,0,0,0,10.8,7a3.81,3.81,0,0,0-1-.62A1.77,1.77,0,0,1,9,5.6a1.37,1.37,0,0,1,1-2,3,3,0,0,1,.85,0C11.71,3.7,11.77,3.82,11.41,4.68Z"/><path class="cls-15" d="M13.68,4.16c0,1.16,0,2.32,0,3.49,0,.29.1.35.36.34.55,0,1.1,0,1.64,0,.39,0,.31.22.33.45s0,.39-.33.39c-.84,0-1.69,0-2.54,0-.36,0-.4-.16-.4-.43,0-1.4,0-2.8,0-4.21,0-.23-.12-.53.34-.53S13.74,3.67,13.68,4.16Z"/><path class="cls-15" d="M7.38,18.86H7A1.87,1.87,0,0,1,5.1,16.18c.14-.46.53-.71.84-1a.17.17,0,0,0,.22-.06L6.47,15a3,3,0,0,1,.94.12c.18.07.33.13.2.37s-.14.33-.42.19a.85.85,0,0,0-.94.08,1.44,1.44,0,0,0-.51,1.6.89.89,0,0,0,.65.82.9.9,0,0,0,1.05-.28C8,18.27,7.59,18.56,7.38,18.86Z"/><path class="cls-15" d="M8.46,12.92a.79.79,0,0,0,1,.14c.21-.09.28,0,.36.14s0,.27-.13.36A1.72,1.72,0,0,1,8,13.36a1.57,1.57,0,0,1-.26-1.72,1.33,1.33,0,0,1,1.45-.72,1.11,1.11,0,0,1,1,.82c.06.17.05.35.22.46-.22,0-.19.19-.25.3l-1.66,0C8,12.63,8.4,12.78,8.46,12.92ZM9,12c.17-.15.55.17.57-.2s-.3-.39-.58-.4-.6.13-.58.41S8.77,11.89,9,12Z"/><path class="cls-15" d="M5.73,13.71c-.15,0-.3-.09-.45-.12s-.31-.15-.19-.36.09-.42.42-.25.82.31,1-.12S6.28,12.21,6,12s-.86-.31-.92-.85c-.09-.78.06-1,.91-1.28h.63c.11,0,.18.16.32.12.23.18.14.39,0,.56s-.35-.13-.55,0c-.28-.11-.53-.08-.65.23s.11.46.31.6a2,2,0,0,0,.33.16c.29.27.77.35.85.83a1.06,1.06,0,0,1-1,1.37A3,3,0,0,1,5.73,13.71Z"/><path class="cls-15" d="M10.7,17.46a1.3,1.3,0,1,1-2.59,0A1.29,1.29,0,0,1,9.43,16,1.25,1.25,0,0,1,10.7,17.46Zm-1.92,0c0,.57.21.88.61.89s.67-.36.66-.92-.24-.87-.65-.85S8.78,16.88,8.78,17.44Z"/><path class="cls-15" d="M11.21,16.11h.45c.09.23.21.19.33,0,1.08-.26,1.57.12,1.58,1.22,0,.23,0,.46,0,.68a2.57,2.57,0,0,0,0,.48c0,.25-.11.29-.32.28s-.34,0-.33-.27c0-.46,0-.92,0-1.38s-.29-.47-.63-.49-.47.2-.46.53,0,.67,0,1c.07.53-.13.71-.64.59Z"/><path class="cls-15" d="M11.66,10.91a6.66,6.66,0,0,1,.78.05c.14,0,.41,0,.33.3s-.13.35-.45.24a.75.75,0,0,0-1.1.72c0,.75.44,1.12,1.16.85.2-.07.28-.1.38.12s0,.32-.18.39A1.81,1.81,0,0,1,11,13.44l-.32-.39-.15-.85C10.59,11.54,11.13,10.87,11.66,10.91Z"/><path class="cls-4" d="M7.44,17.93a.9.9,0,0,1-1.05.28.89.89,0,0,1-.65-.82,1.44,1.44,0,0,1,.51-1.6,6.36,6.36,0,0,0,.58,1.52A2,2,0,0,0,7.44,17.93Z"/><path class="cls-4" d="M7.21,5.86a1.53,1.53,0,0,1-1-.56.53.53,0,0,1,.29-.9c.35-.06.74-.11,1,.29-.1.1-.22,0-.34,0s-.27.2-.35.34A.22.22,0,0,0,7,5.4C7.25,5.47,7.2,5.67,7.21,5.86Z"/><path class="cls-10" d="M11.21,16.11v2.66A.24.24,0,0,1,11,18.5c0-.74,0-1.47,0-2.21,0-.05.07-.11.11-.17Z"/><path class="cls-4" d="M6.35,11.49A2,2,0,0,1,6,11.33c-.2-.14-.42-.3-.31-.6s.37-.34.65-.23a.22.22,0,0,1-.13.21c-.38.13-.32.29,0,.47A.31.31,0,0,1,6.35,11.49Z"/><path class="cls-4" d="M10.54,12.2l.15.85c-.32-.05-.25-.48-.55-.55.06-.11,0-.3.25-.3Z"/><path class="cls-9" d="M16,17.16V18A.57.57,0,0,1,16,17.16Z"/><path class="cls-4" d="M6.47,15l-.31.06c-.08-.16-.08-.29.12-.36s.16-.11.23,0S6.45,14.92,6.47,15Z"/><path class="cls-9" d="M14.87,18.76c0-.32,0-.64,0-1A.71.71,0,0,1,14.87,18.76Z"/><path class="cls-4" d="M6.89,10c-.14,0-.21-.08-.32-.12s0-.18.15-.16S6.88,9.86,6.89,10Z"/><path class="cls-9" d="M16,18.35v.31C15.72,18.55,15.72,18.45,16,18.35Z"/><path class="cls-11" d="M8.46,12.92c-.06-.14-.42-.29,0-.4Z"/><path class="cls-9" d="M14.89,17.17c0-.18-.07-.35.15-.44C15,16.89,15.11,17.08,14.89,17.17Z"/><path class="cls-15" d="M15.76,12.53a4.46,4.46,0,0,0,0,.73c0,.43-.26.49-.48.36s-.4,0-.6,0a.91.91,0,0,1-1.29-.92c0-.48,0-1,0-1.43,0-.23,0-.35.31-.35s.34.12.34.37c0,.44,0,.88,0,1.32s.11.54.46.53.63-.12.64-.54,0-.91,0-1.37c0-.22.05-.31.3-.31s.35.05.34.32a7.86,7.86,0,0,0,0,.84A.66.66,0,0,0,15.76,12.53Z"/><path class="cls-8" d="M12,16.13c-.12.17-.24.21-.33,0C11.78,16,11.88,16.1,12,16.13Z"/><path class="cls-7" d="M15.76,12.53a.66.66,0,0,1,0-.44C15.94,12.23,15.94,12.38,15.76,12.53Z"/><path class="cls-8" d="M7.74,3.72l-.22-.08C7.67,3.47,7.71,3.57,7.74,3.72Z"/><path class="cls-7" d="M26.57,14a3,3,0,0,1-3.05-1.7A2.53,2.53,0,0,1,24.6,9.06a4.27,4.27,0,0,1,3.62-.19,2.83,2.83,0,0,1,1.51,2.88A2.86,2.86,0,0,1,26.57,14Z"/><path class="cls-15" d="M25.4,15.05a.36.36,0,0,1,.34.39.36.36,0,0,1-.71,0C25,15.2,25.16,15.07,25.4,15.05Z"/><path class="cls-10" d="M24.26,16.09c-.75,0-.68.14-.66-.7C23.82,15.61,24.16,15.73,24.26,16.09Z"/><path class="cls-11" d="M19.15,12a.58.58,0,0,1,.6-.57.57.57,0,0,1,.58.28c.09.16.12.3-.15.29Z"/><path class="cls-8" d="M18.41,16.56a.73.73,0,0,1,.51.19c.08.09.17.19.14.32s-.2.08-.31.09a1.85,1.85,0,0,1-.47,0c-.16,0-.41.12-.45-.09s.17-.4.41-.47Z"/><path class="cls-10" d="M22.93,16.75l-.05-.09C23,16.66,23,16.69,22.93,16.75Z"/><path class="cls-2" d="M43.72,16.88c-.19,0-.29-.08-.29-.28V13.69c.27.29.56.41.6.74l-.41-.19A15.43,15.43,0,0,0,43.72,16.88Z"/><path class="cls-1" d="M45.66,16l.41.09C45.85,16.41,45.81,16.41,45.66,16Z"/><path class="cls-1" d="M47.11,18c-.12,0-.16.21-.31.11a.86.86,0,0,1,.42-.42c.12.08,0,.14,0,.21l-.1.1Z"/><path class="cls-1" d="M46.28,15.92c-.06-.21,0-.27.22-.22A.25.25,0,0,1,46.28,15.92Z"/><path class="cls-1" d="M47.24,15c-.06-.2,0-.26.21-.21A.23.23,0,0,1,47.24,15Z"/><path class="cls-1" d="M47.66,14.54q-.09-.3.21-.21A.23.23,0,0,1,47.66,14.54Z"/><path class="cls-2" d="M45.1,15.51l.21.09,0,.09Z"/><path class="cls-1" d="M46.81,15.39c-.05-.12,0-.16.11-.11A.1.1,0,0,1,46.81,15.39Z"/><path class="cls-1" d="M47.87,14.33l0-.13.09,0A.1.1,0,0,1,47.87,14.33Z"/><path class="cls-1" d="M47.55,14.65l0-.1h.13A.1.1,0,0,1,47.55,14.65Z"/><path class="cls-1" d="M47.65,17.28c.05.12,0,.16-.11.1S47.57,17.27,47.65,17.28Z"/><path class="cls-1" d="M47.54,17.38l0,.1h-.13A.1.1,0,0,1,47.54,17.38Z"/><path class="cls-1" d="M47.44,17.49c0,.12,0,.15-.11.11S47.36,17.49,47.44,17.49Z"/><path class="cls-1" d="M47.33,17.59c.05.12,0,.16-.11.11A.1.1,0,0,1,47.33,17.59Z"/><path class="cls-1" d="M47.45,14.75v-.13l.1,0A.1.1,0,0,1,47.45,14.75Z"/><path class="cls-1" d="M47.13,15.07c-.05-.12,0-.16.11-.11A.1.1,0,0,1,47.13,15.07Z"/><path class="cls-1" d="M47,15.17c0-.12,0-.15.11-.1S47.1,15.18,47,15.17Z"/><path class="cls-1" d="M46.8,18.12c0,.1,0,.14-.11.11A.1.1,0,0,1,46.8,18.12Z"/><path class="cls-1" d="M46.92,15.28c-.05-.12,0-.16.11-.11A.1.1,0,0,1,46.92,15.28Z"/><path class="cls-1" d="M46.71,15.49c-.05-.12,0-.15.1-.11S46.78,15.49,46.71,15.49Z"/><path class="cls-1" d="M46.6,15.6l0-.13.09,0C46.71,15.57,46.68,15.6,46.6,15.6Z"/><path class="cls-1" d="M46.49,15.7c0-.12,0-.15.11-.1S46.57,15.71,46.49,15.7Z"/><path class="cls-1" d="M46.18,16c-.06-.13,0-.16.11-.11A.1.1,0,0,1,46.18,16Z"/><path class="cls-1" d="M46.07,16.13c0-.13,0-.17.11-.11A.1.1,0,0,1,46.07,16.13Z"/><polygon class="cls-6" points="46.4 11.32 46.44 11.29 46.47 11.32 46.44 11.33 46.4 11.32"/><path class="cls-2" d="M46.57,8.09l0,.3c-.17.14-.1.33-.11.5v1.63c0,.17,0,.37-.21.42,0-.3,0-.59,0-.89A5,5,0,0,0,45.68,7l.07-.07H46A4.14,4.14,0,0,0,46.57,8.09Z"/><path class="cls-5" d="M46.28,10.94c.26,0,.21-.25.21-.42V8.89c0-.17-.06-.36.11-.5a4.38,4.38,0,0,1,.1,1.53c0,.37,0,.73,0,1.1l-.29,0h-.12A.14.14,0,0,1,46.28,10.94Z"/><path class="cls-2" d="M45.81,6.55l0,.15-.08.2L45.68,7,45,6.28c.14-.06.28.17.43,0l.16,0,0,0a.21.21,0,0,0,.19.19Z"/><path class="cls-5" d="M46.57,8.09A4.14,4.14,0,0,1,46,6.91C46.43,7.16,46.46,7.64,46.57,8.09Z"/><path class="cls-5" d="M45.75,6.9l.08-.2c.11,0,.12.12.13.21Z"/><path class="cls-4" d="M46.17,6.48c.09,0,.13,0,.17.11Z"/><path class="cls-6" d="M47.11,18l.1-.1Z"/><path class="cls-11" d="M28.18,17.45c0,.55-.24.87-.63.88s-.65-.34-.64-.92.27-.87.67-.85S28.19,16.88,28.18,17.45Z"/><path class="cls-5" d="M42.57,4.88a.27.27,0,0,1-.33.07C42.31,4.77,42.42,4.74,42.57,4.88Z"/><path class="cls-5" d="M42.05,5a.09.09,0,0,1-.12.08Z"/><path class="cls-13" d="M45,6.28l.68.69a5,5,0,0,1,.59,3.08c0,.3,0,.59,0,.89a.14.14,0,0,0,0,.09H40.13a.14.14,0,0,0,0-.09c0-.69,0-1.37,0-2.06a3,3,0,0,1,1-2.29l.29-.31h0A.82.82,0,0,0,41.94,6h0l.73-.15a2.88,2.88,0,0,1,1.17,0l.63.14h0a.42.42,0,0,0,.43.21h0a.12.12,0,0,0,.12.11Z"/><path class="cls-2" d="M41.42,6.28l-.29.31a3,3,0,0,0-1,2.29c0,.69,0,1.37,0,2.06-.18-.19-.09-.43-.1-.65,0-.82,0-1.64,0-2.45a2.93,2.93,0,0,1,0-.29c.25,0,.25-.31.37-.46C40.69,6.74,40.89,6.3,41.42,6.28Z"/><path class="cls-5" d="M41.42,6.28c-.53,0-.73.46-1,.81-.12.15-.12.41-.37.46,0-.61.52-.94.83-1.38a4,4,0,0,1,.95-.63l.32.2L41.94,6h0c-.23,0-.47,0-.53.32Z"/><path class="cls-3" d="M42.15,5.74l-.32-.2a2.9,2.9,0,0,1,3,.16l-.32.14-.64-.14a2.21,2.21,0,0,0-1.3,0Z"/><path class="cls-5" d="M44.49,5.84l.32-.14.51.37.11.22c-.15.16-.29-.07-.43,0h0l-.12-.11h0C44.82,6,44.66,6,44.47,6h0Z"/><path class="cls-3" d="M45.43,6.29l-.11-.22c.16,0,.35,0,.27.24Z"/><path class="cls-3" d="M45.8,6.52a.21.21,0,0,1-.19-.19C45.8,6.26,45.86,6.33,45.8,6.52Z"/><path class="cls-8" d="M9,12c-.19-.14-.56.16-.59-.19s.29-.41.58-.41.6.1.58.4S9.13,11.88,9,12Z"/><path class="cls-4" d="M8.78,17.44c0-.56.22-.87.62-.88s.65.3.65.85-.26.92-.66.92S8.78,18,8.78,17.44Z"/><path class="cls-5" d="M42.55,5.71a2.21,2.21,0,0,1,1.3,0v.12a2.88,2.88,0,0,0-1.17,0Z"/><path class="cls-2" d="M42.55,5.71l.12.1L41.94,6l.21-.22Z"/><path class="cls-2" d="M41.41,6.28c.06-.31.3-.31.53-.32A.82.82,0,0,1,41.41,6.28Z"/><path class="cls-2" d="M43.84,5.82V5.7l.64.14,0,.12Z"/><path class="cls-2" d="M44.47,6c.19,0,.35,0,.43.21A.42.42,0,0,1,44.47,6Z"/><path class="cls-2" d="M44.89,6.17l.12.11A.12.12,0,0,1,44.89,6.17Z"/></g></g></svg>