<svg xmlns="http://www.w3.org/2000/svg" viewBox="0 0 61.67 23.66"><defs><style>.cls-1{fill:#dba510;}.cls-2{fill:#fff;}.cls-3{fill:#026b71;}.cls-4{fill:#036c72;}.cls-5{fill:#2bb44c;}.cls-6{fill:#026b72;}.cls-7{fill:#046c73;}.cls-8{fill:#0a6f76;}.cls-9{fill:#056d74;}.cls-10{fill:#096f76;}.cls-11{fill:#076e75;}.cls-12{fill:#0a7076;}</style></defs><title>Asset 8</title><g id="Layer_2" data-name="Layer 2"><g id="Layer_1-2" data-name="Layer 1"><path class="cls-1" d="M14,13.21a.93.93,0,1,0,.93.93.93.93,0,0,0-.93-.93Z"/><path class="cls-2" d="M14.17,14.5h-.09v-.61l-.19.07v-.08l.27-.1h0Z"/><path class="cls-3" d="M29.21,0l1.2,2.73,2.73,6a.28.28,0,0,1,0,.36A46.53,46.53,0,0,0,30.19,13l-.06,0c-.08-.1,0-.22,0-.32,0-1.72,0-3.43,0-5.15,0-.24-.06-.32-.31-.32-1,0-2,0-3,0-.27,0-.32.09-.32.34q0,3.8,0,7.59v.33c-.14,0-.19-.07-.25-.12a5.48,5.48,0,0,0-1.15-.88.17.17,0,0,1-.09-.2c0-.25-.09-.21-.26-.15a6.11,6.11,0,0,1-3.08.37,2.54,2.54,0,0,1-2.23-3.17,2.42,2.42,0,0,1,2.26-1.94,5.24,5.24,0,0,1,2.78.51c.31.15.31.15.31-.2,0-.63,0-1.26,0-1.89a.33.33,0,0,0-.27-.37,8.84,8.84,0,0,0-3.69-.3,6.55,6.55,0,0,0-3,1,4.4,4.4,0,0,0-2.21,4.25,4.33,4.33,0,0,0,2.83,3.86,8.7,8.7,0,0,0,3.71.63c.25,0,.37,0,.43.32a2.94,2.94,0,0,0,.73,1.12c.36.47.37.46-.19.64q-7.38,2.32-14.77,4.65c-.24.07-.3,0-.38-.21-.8-2.23-1.62-4.46-2.44-6.69Q2.8,9.34.05,2c-.11-.28,0-.33.23-.34L14,.85,27.29.1c.1,0,.25.06.31-.1ZM5.54,12c0,1.48,0,3,0,4.44,0,.21,0,.29.27.28q1.55,0,3.09,0c.2,0,.26-.06.26-.26,0-.77,0-1.54,0-2.31,0-.22.06-.28.28-.27a9.92,9.92,0,0,0,1.72-.09,5.46,5.46,0,0,0,2.62-1A2.9,2.9,0,0,0,13.35,8a6.82,6.82,0,0,0-2.61-.68c-1.63-.1-3.26,0-4.9,0-.24,0-.31.06-.31.3C5.54,9.07,5.54,10.55,5.54,12ZM28,2.27a1.91,1.91,0,0,0-1.7,1.17,2,2,0,0,0,.3,2.22,2.44,2.44,0,0,0,3.43,0,1.74,1.74,0,0,0,.44-.9C30.69,3.33,29.79,2.28,28,2.27Z"/><path class="cls-4" d="M61.67,9.2s-.05,0-.06.06a2.56,2.56,0,0,1-2.39,1.83,5.92,5.92,0,0,1-2.44-.18,2.5,2.5,0,0,1-1.63-2.14c0-.12,0-.16.15-.17l1.79-.1c.18,0,.19.09.22.22a1.19,1.19,0,0,0,1.48,1,.82.82,0,0,0,.71-.62c0-.31-.15-.58-.53-.75A8.72,8.72,0,0,0,57.76,8a4.92,4.92,0,0,1-1.43-.57,1.87,1.87,0,0,1,0-3.21,2.62,2.62,0,0,1,1.27-.44,5.66,5.66,0,0,1,2.35.13,2.06,2.06,0,0,1,1.49,1.71c0,.18,0,.27-.19.27-.56,0-1.11,0-1.66.1-.18,0-.23,0-.28-.2a1.06,1.06,0,0,0-1.44-.65.52.52,0,0,0-.35.46c0,.23.15.35.34.43A7.2,7.2,0,0,0,59,6.29a9.24,9.24,0,0,1,1.46.48,2.17,2.17,0,0,1,1.25,1.5Z"/><path class="cls-5" d="M28,21.44a2.23,2.23,0,0,1-1.93-.87c-.85-1.08-1.71-2.16-2.57-3.23a.72.72,0,0,1-.07-1,3.15,3.15,0,0,1,1-1c.21-.14.38,0,.54.1l2.65,2.31c.33.29.41.27.62-.12a54.29,54.29,0,0,1,7.63-10.5A2.19,2.19,0,0,1,37,6.59a6.58,6.58,0,0,1,1.92-.25c.14,0,.3,0,.36.18a.32.32,0,0,1-.14.38,25.1,25.1,0,0,0-5,6.16c-1.51,2.38-3,4.79-4.28,7.28A1.86,1.86,0,0,1,28,21.44Z"/><path class="cls-6" d="M40.49,7.38c0-1.09,0-2.19,0-3.29,0-.22.06-.28.28-.28h3.08a3,3,0,0,1,3.26,3A6.25,6.25,0,0,1,47,8.61a2.87,2.87,0,0,1-3,2.38c-1.12,0-2.24,0-3.36,0-.21,0-.23-.09-.22-.26Zm2.23,0c0,.57,0,1.15,0,1.73,0,.18,0,.26.24.24s.55,0,.83,0a1,1,0,0,0,1-.87,4,4,0,0,0,.1-1.19c0-1.41-.52-1.88-1.93-1.83-.18,0-.23.06-.22.23Z"/><path class="cls-7" d="M49,8.55l.28,0a1.73,1.73,0,0,1,.64,0c.2.07.14.35.23.53a1.26,1.26,0,0,0,1.75.49.64.64,0,0,0,0-1.14A3.09,3.09,0,0,0,51,8.09a7.16,7.16,0,0,1-1.69-.57,1.84,1.84,0,0,1-1.12-1.77A1.85,1.85,0,0,1,49.35,4,4.73,4.73,0,0,1,53,4a2,2,0,0,1,1.17,1.62c0,.14,0,.21-.15.22-.59,0-1.17.06-1.76.09-.13,0-.17,0-.21-.15a1,1,0,0,0-1.27-.74c-.27.05-.49.17-.53.47s.2.44.44.51c.43.12.86.21,1.29.32a7.62,7.62,0,0,1,1.14.38,2.17,2.17,0,0,1,.37,3.8,3.07,3.07,0,0,1-1.4.53,6,6,0,0,1-2.5-.15A2.44,2.44,0,0,1,47.9,8.8c0-.15.05-.19.19-.2l.92,0Z"/><path class="cls-8" d="M46.13,13.09c0,.4,0,.8,0,1.2,0,.23-.11.24-.28.23s-.33.07-.33-.22c0-.62,0-1.25,0-1.88,0-.16,0-.21.2-.21.74,0,.74,0,.93.68a2,2,0,0,0,.2.57c.08-.34.18-.67.25-1,0-.18.12-.24.31-.24.71,0,.71,0,.71.7,0,.47,0,.93,0,1.39,0,.25-.14.22-.3.22s-.31.05-.3-.21a5.41,5.41,0,0,0-.07-1.2c-.1.4-.21.79-.29,1.18,0,.21-.15.24-.32.23s-.31,0-.36-.22c-.08-.41-.2-.81-.3-1.22Z"/><path class="cls-9" d="M58.33,13.34c0-.3,0-.6,0-.89s.06-.26.25-.24h.27c.14,0,.18,0,.18.18,0,.65,0,1.3,0,1.94,0,.13,0,.18-.17.19a.69.69,0,0,1-.79-.36,2.66,2.66,0,0,0-.58-.75c0,.29,0,.58,0,.87s-.07.28-.25.23-.42.16-.44-.14c0-.67,0-1.34,0-2,0,0,0-.1.05-.13a.89.89,0,0,1,.74.14l.69,1Z"/><path class="cls-10" d="M44,14.56a1.08,1.08,0,0,1-1.19-1.21,1.2,1.2,0,0,1,2.4,0A1.08,1.08,0,0,1,44,14.56Zm.48-1.13c0-.32,0-.59-.35-.68a.41.41,0,0,0-.49.17,1,1,0,0,0,0,.94.44.44,0,0,0,.53.12C44.43,13.88,44.44,13.63,44.45,13.43Z"/><path class="cls-11" d="M56.58,14.52H56c-.1,0-.17,0-.18-.13-.07-.41-.4-.19-.62-.24a.23.23,0,0,0-.31.23.16.16,0,0,1-.17.14h-.62c.28-.76.56-1.48.82-2.19a.18.18,0,0,1,.2-.12h.49a.17.17,0,0,1,.19.12C56,13.05,56.3,13.76,56.58,14.52Zm-1.5-.92c.49.08.5.08.36-.35,0-.1,0-.23-.15-.33Z"/><path class="cls-12" d="M41.47,14.56a1,1,0,0,1-1.1-.67,1.41,1.41,0,0,1,.25-1.44A1.39,1.39,0,0,1,42,12.29a.62.62,0,0,1,.22.17c.11.13.28.25.19.44s-.54.1-.67,0a.42.42,0,0,0-.72.18,1.26,1.26,0,0,0,0,.64.38.38,0,0,0,.33.32.4.4,0,0,0,.44-.21c0-.08,0-.23.15-.2a1.87,1.87,0,0,1,.52.17c.08,0,0,.13,0,.2A.94.94,0,0,1,41.47,14.56Z"/><path class="cls-11" d="M48.57,13.37c0-.31,0-.62,0-.93,0-.16,0-.24.22-.23.37,0,.74,0,1.11,0a.64.64,0,0,1,.65.68.69.69,0,0,1-.59.74l-.16,0c-.49,0-.52,0-.48.54s-.19.3-.4.31-.38,0-.35-.32A7.66,7.66,0,0,0,48.57,13.37ZM49.3,13c0,.14,0,.26.2.24s.32,0,.33-.24-.16-.25-.34-.26S49.28,12.81,49.3,13Z"/><path class="cls-11" d="M35.08,13.1l.75,1.67c0,.09.12.18,0,.23-.74.23-1.48.47-2.27.64Z"/><path class="cls-8" d="M60,13.66v-.28c0-.54,0-.55-.55-.58-.25,0-.17-.17-.17-.3s-.07-.3.18-.29h1.79c.27,0,.19.18.2.32s0,.27-.21.27c-.51,0-.51,0-.51.56,0,.3,0,.61,0,.92s-.06.26-.24.24H60.3c-.22,0-.29-.06-.27-.27S60,13.85,60,13.66Z"/><path class="cls-12" d="M50.89,13.36c0-.3,0-.61,0-.92s0-.25.23-.23h.27c.18,0,.23,0,.23.22,0,.43,0,.87,0,1.3,0,.18.06.23.23.22s.46,0,.68,0,.21.16.21.3,0,.29-.2.28H51.12c-.19,0-.23-.06-.23-.23S50.89,13.67,50.89,13.36Z"/><path class="cls-3" d="M53.79,13.37c0,.31,0,.62,0,.93s0,.23-.23.22c-.63,0-.49.07-.5-.5s0-1,0-1.54c0-.22.07-.3.28-.27h.24c.16,0,.22,0,.22.21C53.79,12.74,53.79,13.05,53.79,13.37Z"/><path class="cls-9" d="M9.1,10.61c0-.36,0-.72,0-1.08,0-.13,0-.21.19-.21a4.79,4.79,0,0,1,1.25.13,1.06,1.06,0,0,1,.85,1.09,1.09,1.09,0,0,1-.82,1.19,3.8,3.8,0,0,1-1.3.15c-.15,0-.17-.07-.17-.19C9.1,11.33,9.1,11,9.1,10.61Z"/></g></g></svg>