<svg xmlns="http://www.w3.org/2000/svg" viewBox="0 0 68.28 20.79"><defs><style>.cls-1{fill:#0184ca;}.cls-2{fill:#fefefe;}.cls-3{fill:#fdfdfe;}.cls-4{fill:#fafcfd;}.cls-5{fill:#fbfcfd;}.cls-6{fill:#fafbfd;}.cls-7{fill:#f3f7fb;}.cls-8{fill:#f5f8fb;}.cls-9{fill:#f1f6fa;}.cls-10{fill:#f3f8fb;}.cls-11{fill:#eaf2f9;}.cls-12{fill:#0284ca;}.cls-13{fill:#0385cb;}.cls-14{fill:#0585cb;}</style></defs><title>Asset 7</title><g id="Layer_2" data-name="Layer 2"><g id="Layer_1-2" data-name="Layer 1"><path class="cls-1" d="M21,18.47a13.39,13.39,0,0,0,.12-16.15.53.53,0,0,1,.3,0H65.75a2.51,2.51,0,0,1,2.53,2.54V16a2.52,2.52,0,0,1-2.51,2.51H21.26A.42.42,0,0,1,21,18.47Zm25.12-6.91H27.37c-.18,0-.29,0-.26.24s.2.11.3.11H64.93c.17,0,.21-.05.21-.21s-.17-.14-.27-.14Zm2.34-3.71h0l-.78-2.42c-.18-.57-.18-.57-.76-.57a2.8,2.8,0,0,1-.41,0c-.22,0-.26.06-.26.26,0,1.46,0,2.93,0,4.39,0,.63,0,.62.62.63.23,0,.28-.06.27-.28,0-1.12,0-2.24,0-3.38a.53.53,0,0,1,.13.26l.85,2.68c.08.23.09.54.25.67s.49,0,.74.05.27-.05.27-.26c0-1.45,0-2.91,0-4.36,0-.21.07-.49,0-.61s-.41,0-.63,0-.22,0-.21.22ZM30.1,7.52h0V6.28a1.24,1.24,0,0,0-1.42-1.41c-.44,0-.89,0-1.34,0-.21,0-.29,0-.28.27,0,.63,0,1.25,0,1.88,0,.12,0,.22-.17.19s-.17,0-.16.18v.35c0,.1,0,.15.13.13s.2.1.2.24c0,.62,0,1.24,0,1.85,0,.11,0,.2.14.2.57,0,1.13,0,1.7,0a1.16,1.16,0,0,0,1.18-1.24C30.11,8.43,30.1,8,30.1,7.52Zm27.15-.2a1,1,0,0,0,.51-.53A2.31,2.31,0,0,0,57.84,6a1,1,0,0,0-.91-1.09,13.68,13.68,0,0,0-1.92,0c-.16,0-.11.12-.11.2V10c0,.11,0,.2.14.2.57,0,1.13,0,1.7,0a1.15,1.15,0,0,0,1.17-.93,3.38,3.38,0,0,0,0-.78A1.08,1.08,0,0,0,57.25,7.32ZM42,7.53V5.66c0-.26.11-.6-.06-.75s-.48,0-.73,0-.23,0-.23.22c0,.61,0,1.23,0,1.85,0,.15,0,.23-.2.21s-.46,0-.69,0-.21,0-.21-.21c0-.62,0-1.25,0-1.87,0-.15,0-.21-.2-.2h-.61c-.15,0-.2,0-.2.19,0,1.63,0,3.26,0,4.89,0,.15,0,.21.19.2a3.74,3.74,0,0,1,.58,0c.17,0,.23,0,.23-.22,0-.6,0-1.2,0-1.8,0-.16,0-.23.21-.22a3.86,3.86,0,0,0,.68,0c.18,0,.21.06.21.22,0,.6,0,1.2,0,1.8,0,.18,0,.23.23.22h.58c.17,0,.21-.05.21-.21C42,9.14,42,8.33,42,7.53Zm3.6,0h0c0-.52,0-1,0-1.57a1.08,1.08,0,0,0-.78-1,2.22,2.22,0,0,0-1.17-.06,1.17,1.17,0,0,0-1,1.22c0,1,0,1.9,0,2.84a1.18,1.18,0,0,0,1,1.24,2.44,2.44,0,0,0,.66,0,1.22,1.22,0,0,0,1.29-1.31C45.59,8.42,45.58,8,45.58,7.51Zm19.47,0h0c0-.52,0-1,0-1.57a1.12,1.12,0,0,0-.88-1.07,2.24,2.24,0,0,0-1.06,0,1.17,1.17,0,0,0-1,1.23c0,1,0,1.89,0,2.84a1.17,1.17,0,0,0,1,1.22,2.44,2.44,0,0,0,.66,0,1.22,1.22,0,0,0,1.31-1.32C65.06,8.42,65.05,8,65.05,7.53Zm-14.11,0V6.11c0-.35.16-.51.48-.52s.5.14.53.5c0,.1,0,.2,0,.3s.06.29.29.29c.68,0,.68,0,.63-.7a1.14,1.14,0,0,0-.95-1.11,2.43,2.43,0,0,0-.71,0,1.22,1.22,0,0,0-1.27,1.31V8.89a1.2,1.2,0,0,0,1.13,1.29,3.49,3.49,0,0,0,.46,0,1.22,1.22,0,0,0,1.35-1.34c0-.47,0-.93,0-1.4,0-.22-.07-.27-.27-.25H52c-.51,0-.5,0-.51.51,0,.23.06.29.26.26s.2,0,.19.18,0,.54,0,.81a.45.45,0,0,1-.53.47c-.31,0-.46-.17-.47-.51Zm-17,2.61c-.33-1.73-.65-3.43-1-5.14,0-.12-.09-.13-.2-.13H31.62c-.14,0-.18,0-.2.18-.07.38-.15.76-.22,1.14L30.48,10c0,.13,0,.18.14.18s.41,0,.61,0a.13.13,0,0,0,.16-.13c0-.21.09-.42.12-.62s0-.16.17-.16h.89c.13,0,.17,0,.19.17s.07.4.11.6,0,.15.15.15ZM60,4.88h-.53c-.14,0-.2,0-.22.18-.31,1.64-.62,3.28-.94,4.92,0,.12,0,.19.14.18H59c.13,0,.18,0,.2-.16s.09-.42.11-.62a.14.14,0,0,1,.17-.14h.91c.12,0,.15.06.17.16s0,.6.18.71.5,0,.76.05.2-.05.17-.21c-.29-1.47-.56-2.95-.84-4.42,0-.22,0-.52-.18-.62S60.23,4.88,60,4.88Zm-23.53,3c0,.53,0,1.06,0,1.59,0,.23-.1.53.05.66s.42,0,.63,0,.32-.05.32-.31c0-1.33,0-2.65,0-4,0-.2,0-.25.24-.24s.44,0,.66,0,.16-.08.13-.18.13-.43-.1-.59h-2.8c-.06,0-.14,0-.14.07s0,.42,0,.63.1.06.17.06a4.42,4.42,0,0,0,.63,0c.18,0,.22.06.22.23C36.46,6.53,36.47,7.19,36.47,7.86Zm25.18,8.23a.15.15,0,0,1-.12-.11c-.47-.72-.94-1.43-1.39-2.15-.12-.2-.29-.14-.45-.12s-.07.16-.07.25c0,.91,0,1.83,0,2.74,0,.18,0,.25.23.24s.23-.05.23-.22c0-.72,0-1.43,0-2.14a2.41,2.41,0,0,1,.4.52c.38.57.75,1.14,1.12,1.72.11.18.28.1.43.11s.08-.1.08-.17c0-1,0-1.93,0-2.89,0-.19-.1-.18-.23-.18s-.23,0-.22.18c0,.4,0,.81,0,1.21Zm-19.41,0c-.1,0-.11-.09-.14-.13-.46-.71-.92-1.42-1.37-2.13-.13-.2-.3-.14-.45-.12s-.08.16-.08.25c0,.92,0,1.84,0,2.76,0,.19.06.22.23.22s.23,0,.22-.22c0-.66,0-1.32,0-2,0-.05,0-.13.05-.18l.2.3c.41.64.84,1.28,1.24,1.94.13.19.29.13.45.13s.08-.1.08-.17c0-1,0-1.92,0-2.89,0-.18-.09-.18-.22-.18s-.23,0-.22.18,0,.67,0,1Zm-13.39-.85c.4-.3.5-.54.4-.94a.79.79,0,0,0-.79-.59c-.38,0-.76,0-1.14,0-.11,0-.15.05-.15.15v2.94c0,.1,0,.16.14.16.4,0,.81,0,1.21,0a.86.86,0,0,0,.83-.69A.84.84,0,0,0,28.85,15.24Zm27.52.19a3.88,3.88,0,0,0,.06.46A1.24,1.24,0,0,0,57.6,17a1.19,1.19,0,0,0,1.3-1,2.63,2.63,0,0,0-.08-1.52c0-.11,0-.16.08-.21a.72.72,0,0,0,.41-.59c0-.24-.06-.25-.24-.24s-.11.14-.14.22c-.09.36-.27.44-.56.24a1.25,1.25,0,0,0-1.85.58A2.68,2.68,0,0,0,56.37,15.43Zm-1.15-.49h0c0,.35,0,.71,0,1.06a.58.58,0,0,1-.46.59.71.71,0,0,1-1-.75c0-.64,0-1.28,0-1.93,0-.18-.06-.22-.23-.22s-.21.05-.21.22c0,.66,0,1.33,0,2A1,1,0,0,0,54.49,17a1.05,1.05,0,0,0,1.16-1.09c0-.4,0-.81,0-1.21,0-.14,0-.19.17-.22a.71.71,0,0,0,.63-.71c0-.09.08-.22-.09-.23s-.27,0-.26.17a.65.65,0,0,1,0,.19c-.06.16-.17.29-.34.26s-.06-.18-.06-.27-.11-.17-.23-.18-.22,0-.22.18C55.23,14.23,55.22,14.58,55.22,14.94Zm-5,.38c0,.48,0,1,0,1.44,0,.18.09.18.22.18s.25,0,.24-.18c0-.37,0-.73,0-1.09,0-.18.06-.23.23-.22q.57,0,1.14,0c.17,0,.24,0,.23.22,0,.35,0,.71,0,1.06,0,.18.06.22.22.21s.23,0,.23-.19c0-1,0-1.91,0-2.87,0-.19-.1-.18-.24-.19s-.22,0-.21.19c0,.34,0,.67,0,1,0,.16,0,.2-.21.2H50.83c-.15,0-.2,0-.2-.2,0-.33,0-.66,0-1s-.08-.22-.24-.22-.22,0-.22.21C50.2,14.37,50.19,14.84,50.19,15.32ZM45.77,16a3.09,3.09,0,0,1,0-.43c0-.18-.06-.21-.22-.21a4.45,4.45,0,0,1-.73,0c-.22,0-.24.08-.23.25s.18.12.27.13c.48,0,.48,0,.48.48,0,.13,0,.25-.13.33A.94.94,0,0,1,43.84,16a2.35,2.35,0,0,1,0-1.46.71.71,0,0,1,.76-.54.67.67,0,0,1,.72.51c.08.22.27.11.39.1s0-.15,0-.22a1.08,1.08,0,0,0-1.07-.77,1.18,1.18,0,0,0-1.21.74,2.58,2.58,0,0,0-.11,1.4A1.28,1.28,0,0,0,44.83,17c.69,0,.94-.31.94-1Zm19.47,0c0-.15,0-.3,0-.45s0-.2-.18-.2a5.47,5.47,0,0,1-.81,0c-.14,0-.17,0-.18.19s.13.19.25.19c.5,0,.5,0,.49.5a.32.32,0,0,1-.12.31,1,1,0,0,1-1.38-.43,2.56,2.56,0,0,1-.05-1.4.75.75,0,0,1,.86-.64.66.66,0,0,1,.66.5c.07.24.27.13.4.11s0-.16,0-.23a1.07,1.07,0,0,0-1.08-.76,1.19,1.19,0,0,0-1.19.73,2.68,2.68,0,0,0-.12,1.4A1.3,1.3,0,0,0,64.31,17c.68-.05.93-.31.93-1Zm-32.81-.62a2,2,0,0,0-.12-.87,1.23,1.23,0,0,0-2.3-.05,2.37,2.37,0,0,0,0,1.83,1.14,1.14,0,0,0,1.16.73,1.15,1.15,0,0,0,1.11-.74A2,2,0,0,0,32.43,15.34Zm4.57,0a2,2,0,0,0,.16.93,1.17,1.17,0,0,0,1.12.73,1.1,1.1,0,0,0,1.14-.72,2.42,2.42,0,0,0,0-1.87,1.13,1.13,0,0,0-1.12-.73,1.14,1.14,0,0,0-1.11.69A1.9,1.9,0,0,0,37,15.32Zm-2.5.08a1.73,1.73,0,0,1,.19-1,.78.78,0,0,1,.84-.34.63.63,0,0,1,.53.5.5.5,0,0,0,0,.13c.1.17.26.07.38.07s.05-.12,0-.18a1.08,1.08,0,0,0-.95-.89,1.18,1.18,0,0,0-1.27.59,2.28,2.28,0,0,0,0,2.18,1.12,1.12,0,0,0,1.25.53,1,1,0,0,0,.91-.79c0-.08.15-.24,0-.27s-.35-.12-.39.16a.59.59,0,0,1-.44.51A.79.79,0,0,1,34.58,16,2.06,2.06,0,0,1,34.5,15.4Zm13.76.1c0,.4,0,.8,0,1.19,0,.17,0,.26.22.25s.23-.07.23-.24c0-.81,0-1.61,0-2.41,0-.18,0-.24.23-.23s.41,0,.61,0,.2,0,.19-.18,0-.2-.19-.2h-2.1c-.16,0-.2.05-.2.2s0,.19.19.18.42,0,.63,0,.21,0,.2.2C48.25,14.68,48.26,15.09,48.26,15.5ZM31.78,3.86a.75.75,0,0,0-.76.42c0,.06-.08.13,0,.17s.33.35.58.07c.07-.08.22-.07.34,0l.41.12a.84.84,0,0,0,.94-.34c0-.07.15-.17,0-.23s-.26-.31-.47-.15a.55.55,0,0,1-.49.1A1.77,1.77,0,0,0,31.78,3.86Zm13.49.76,0-.07A1.8,1.8,0,0,1,45,4.3a1.16,1.16,0,0,0-1.22-.5c-.07,0-.15,0-.22.05l-.75.77c.46,0,.9.13,1.17-.33.06-.11.12,0,.17,0s.19.29.39.3Zm14.21,0c.26,0,.52.08.66,0a7.85,7.85,0,0,0,.93-.78h-.86a.21.21,0,0,0-.19.09Zm-29,8.84a.42.42,0,0,0,.53-.17c.11-.19.21-.15.32,0a.37.37,0,0,0,.5.15c-.17-.19-.31-.38-.48-.54a.24.24,0,0,0-.36,0C30.81,13.05,30.66,13.24,30.47,13.45Zm8.51,0-.48-.55a.24.24,0,0,0-.35,0c-.18.17-.34.37-.52.57a.41.41,0,0,0,.54-.19c.09-.14.17-.14.26,0A.43.43,0,0,0,39,13.45Zm-7.85,3.79a.21.21,0,0,0-.23.23.21.21,0,0,0,.23.24c.17,0,.26-.08.25-.24S31.29,17.24,31.13,17.24Z"/><path class="cls-1" d="M20.67,8.93a8.29,8.29,0,0,1,.1,2,10.23,10.23,0,0,1-4.32,7.86,10.39,10.39,0,1,1,3-13.51c.1.17.14.28-.09.37a.73.73,0,0,0-.26.21q-4.68,4.65-9.35,9.31c-.17.17-.25.16-.41,0L4.59,10.47a1,1,0,0,0-1.55,0l-.75.75a1,1,0,0,0,0,1.53l5.37,5.34L8.8,19.24a1,1,0,0,0,1.5,0L20.45,9.14A2.28,2.28,0,0,1,20.67,8.93ZM6.16,4.6c-.24-.1-.47-.19-.7-.3s-.23.07-.32.14,0,.15.06.21c.22.3.45.59.66.89.09.13.15.1.26,0s.12-.15,0-.26a2.11,2.11,0,0,1-.36-.54l.76.34c.16.07.24-.06.33-.13s0-.15,0-.21c-.22-.3-.45-.59-.66-.89-.08-.11-.14-.13-.26,0s-.15.14,0,.26.21.3.32.45Zm9.16,0,.06,0c0,.25,0,.51-.08.77s.12.23.22.29.13-.07.18-.13c.22-.29.43-.58.66-.87.08-.1.09-.16,0-.25s-.19-.09-.28,0-.24.32-.36.48a4.29,4.29,0,0,1,.06-.81c0-.18-.11-.23-.22-.3s-.15.07-.19.13l-.68.88c-.09.13,0,.18.06.24s.15.13.24,0S15.2,4.72,15.32,4.56Zm-11.81,3a4.4,4.4,0,0,1,.86-.06c.19,0,.2-.16.25-.27s-.08-.12-.15-.15c-.32-.18-.66-.34-1-.53-.12-.06-.18,0-.23.08s-.12.17.05.25a1.6,1.6,0,0,1,.53.34,3.33,3.33,0,0,1-.77,0c-.19,0-.22.15-.26.26s.09.14.16.18c.32.18.65.34,1,.52.13.08.17,0,.22-.1s.1-.16,0-.23ZM9.27,2.49a.61.61,0,0,0-.63.33,1,1,0,0,0,0,.78.57.57,0,0,0,.48.4.85.85,0,0,0,.74-.26.18.18,0,0,0,0-.11c0-.43-.13-.57-.55-.47-.07,0-.16,0-.14.13s0,.17.15.14.13,0,.15.08,0,.15-.1.18a.28.28,0,0,1-.38-.14A.87.87,0,0,1,9,3.16c0-.14,0-.28.13-.35a.25.25,0,0,1,.33.08.21.21,0,0,0,.32,0c.08-.06,0-.16-.07-.22A.42.42,0,0,0,9.27,2.49ZM3.89,8.88a.8.8,0,0,0-.84-.71.64.64,0,0,0-.69.64.79.79,0,0,0,.84.71A.64.64,0,0,0,3.89,8.88Zm7.57-5.73c0-.47-.22-.77-.62-.78s-.66.25-.69.74a.7.7,0,0,0,.64.79C11.19,3.91,11.44,3.64,11.46,3.15ZM7.37,3.06h0l-.77.38c-.08,0,0,.1,0,.15.19.37.37.74.55,1.11,0,.11.1.1.19.06l.66-.33c.09,0,.13-.08.08-.19s-.11-.12-.22-.07-.2.09-.29.15-.18,0-.25-.09,0-.17.11-.22l.2-.1c.09,0,.14-.08.08-.19s-.09-.12-.19-.06l-.25.12c-.08,0-.15.06-.19,0s-.08-.16,0-.22.26-.12.39-.18a.09.09,0,0,0,0-.14C7.45,3.15,7.45,3.07,7.37,3.06Zm7.81.52c-.41-.26-.41-.26-.65,0l-.42.47a4.61,4.61,0,0,1,.09-.85C14.25,3,14,3,13.93,3s-.08.1-.09.17c-.06.39-.1.78-.16,1.18,0,.17.09.2.2.26s.17,0,.26,0C14.47,4.22,14.81,3.92,15.18,3.58Zm-2.87-.11h-.05c0-.29,0-.57-.06-.85s-.2-.19-.32-.2-.07.14-.06.21c0,.38.1.76.13,1.15a.22.22,0,0,0,.22.22c.12,0,.22,0,.29-.11.18-.34.39-.67.57-1,0-.07.18-.17,0-.22s-.28-.17-.38.06S12.43,3.22,12.31,3.47ZM4.83,7a.39.39,0,0,1,.06-.11c.14-.19.29-.38.44-.56s.07-.13,0-.2-.15-.07-.22,0-.13.15-.18.24-.14.1-.24,0S4.21,6.05,4,5.86s-.18-.06-.26,0-.09.17,0,.25l.9.7ZM4.76,4.82A.46.46,0,0,0,4.55,5c-.08.08,0,.12.06.16.27.28.56.55.83.84.11.12.16,0,.24,0s.12-.14,0-.24L4.85,4.9ZM8.54,4.1a.17.17,0,0,0-.17-.17.19.19,0,0,0-.21.17.16.16,0,0,0,.18.19A.2.2,0,0,0,8.54,4.1Zm4.62,0A.2.2,0,0,0,13,3.87a.18.18,0,1,0,0,.35C13.06,4.24,13.13,4.17,13.16,4.05Z"/><path class="cls-2" d="M46.12,11.56H64.87c.1,0,.27-.1.27.14s0,.24-.21.21H27.41c-.1,0-.26.11-.3-.11s.08-.24.26-.24H46.12Z"/><path class="cls-3" d="M48.46,7.85V5.09c0-.17,0-.24.21-.22s.51-.09.63,0,0,.4,0,.61c0,1.45,0,2.91,0,4.36,0,.21-.06.28-.27.26s-.57.1-.74-.05-.17-.44-.25-.67l-.85-2.68a.53.53,0,0,0-.13-.26c0,1.14,0,2.26,0,3.38,0,.22,0,.29-.27.28-.62,0-.62,0-.62-.63,0-1.46,0-2.93,0-4.39,0-.2,0-.29.26-.26a2.8,2.8,0,0,0,.41,0c.58,0,.58,0,.76.57l.78,2.42Z"/><path class="cls-4" d="M30.1,7.52c0,.46,0,.91,0,1.37a1.16,1.16,0,0,1-1.18,1.24c-.57,0-1.13,0-1.7,0-.16,0-.14-.09-.14-.2,0-.61,0-1.23,0-1.85,0-.14,0-.27-.2-.24s-.14,0-.13-.13V7.38c0-.13,0-.2.16-.18s.17-.07.17-.19c0-.63,0-1.25,0-1.88,0-.23.07-.27.28-.27.45,0,.9,0,1.34,0A1.24,1.24,0,0,1,30.1,6.28V7.52Zm-1,0V6.44c0-.75-.08-.82-.83-.81h-.05c-.13,0-.16,0-.16.17,0,.32,0,.64,0,1s0,.43.43.44c.08,0,.16,0,.18.11.08.44,0,.55-.42.55-.16,0-.19.06-.19.21s0,.54,0,.81c0,.54,0,.54.55.5.34,0,.48-.17.48-.51S29.1,8,29.1,7.5Z"/><path class="cls-5" d="M57.25,7.32a1.08,1.08,0,0,1,.69,1.1,3.38,3.38,0,0,1,0,.78,1.15,1.15,0,0,1-1.17.93c-.57,0-1.13,0-1.7,0-.16,0-.14-.09-.14-.2V5.07c0-.08,0-.21.11-.2a13.68,13.68,0,0,1,1.92,0A1,1,0,0,1,57.84,6a2.31,2.31,0,0,1-.08.78A1,1,0,0,1,57.25,7.32ZM55.89,8.55c0,.2,0,.4,0,.6s0,.24.24.24c.75,0,.81-.06.81-.8s-.15-.87-.88-.83h0c-.11,0-.14,0-.14.15S55.89,8.33,55.89,8.55Zm0-2.23c0,.18,0,.36,0,.53S55.9,7,56,7c.58.08.83-.12.83-.7V6.1c0-.39-.19-.49-.76-.47-.36,0-.12.29-.18.44A.69.69,0,0,0,55.89,6.32Z"/><path class="cls-4" d="M42,7.53c0,.8,0,1.61,0,2.41,0,.16,0,.22-.21.21h-.58c-.18,0-.23,0-.23-.22,0-.6,0-1.2,0-1.8,0-.16,0-.23-.21-.22a3.86,3.86,0,0,1-.68,0c-.18,0-.21.06-.21.22,0,.6,0,1.2,0,1.8,0,.18-.06.23-.23.22a3.74,3.74,0,0,0-.58,0c-.17,0-.2-.05-.19-.2,0-1.63,0-3.26,0-4.89,0-.16.05-.2.2-.19h.61c.16,0,.2,0,.2.2,0,.62,0,1.25,0,1.87,0,.17,0,.22.21.21s.46,0,.69,0,.2-.06.2-.21c0-.62,0-1.24,0-1.85,0-.18,0-.24.23-.22s.59-.09.73,0,0,.49.06.75Z"/><path class="cls-5" d="M45.58,7.51c0,.46,0,.91,0,1.37a1.22,1.22,0,0,1-1.29,1.31,2.44,2.44,0,0,1-.66,0,1.18,1.18,0,0,1-1-1.24c0-.94,0-1.89,0-2.84a1.17,1.17,0,0,1,1-1.22,2.22,2.22,0,0,1,1.17.06,1.08,1.08,0,0,1,.78,1c0,.52,0,1,0,1.57Zm-2,0V8.91c0,.34.16.51.48.52a.45.45,0,0,0,.52-.51c0-.94,0-1.89,0-2.83a.45.45,0,0,0-.52-.51c-.32,0-.48.18-.48.52Z"/><path class="cls-5" d="M65.05,7.53c0,.45,0,.89,0,1.34a1.22,1.22,0,0,1-1.31,1.32,2.44,2.44,0,0,1-.66,0,1.17,1.17,0,0,1-1-1.22c0-.95,0-1.89,0-2.84a1.17,1.17,0,0,1,1-1.23,2.24,2.24,0,0,1,1.06,0A1.12,1.12,0,0,1,65,6c0,.52,0,1,0,1.57Zm-1,0c0-.46,0-.93,0-1.39,0-.22,0-.42-.3-.5a.49.49,0,0,0-.7.51V8.87c0,.38.15.55.49.56s.51-.17.51-.55S64.06,8,64.06,7.51Z"/><path class="cls-4" d="M50.94,7.53V8.92c0,.34.16.49.47.51A.45.45,0,0,0,51.94,9c0-.27,0-.54,0-.81s-.05-.21-.19-.18-.27,0-.26-.26c0-.51,0-.51.51-.51h.61c.2,0,.28,0,.27.25,0,.47,0,.93,0,1.4a1.22,1.22,0,0,1-1.35,1.34,3.49,3.49,0,0,1-.46,0,1.2,1.2,0,0,1-1.13-1.29V6.13a1.22,1.22,0,0,1,1.27-1.31,2.43,2.43,0,0,1,.71,0A1.14,1.14,0,0,1,52.87,6c.05.69.05.68-.63.7-.23,0-.33,0-.29-.29s0-.2,0-.3c0-.36-.2-.52-.53-.5s-.48.17-.48.52Z"/><path class="cls-5" d="M33.9,10.14H33c-.11,0-.14-.07-.15-.15s-.09-.4-.11-.6-.06-.17-.19-.17h-.89c-.12,0-.15,0-.17.16s-.08.41-.12.62a.13.13,0,0,1-.16.13c-.2,0-.41,0-.61,0s-.17-.05-.14-.18l.72-3.78c.07-.38.15-.76.22-1.14,0-.13.06-.19.2-.18h1.11c.11,0,.18,0,.2.13C33.25,6.71,33.57,8.41,33.9,10.14ZM32.15,6h0L31.69,8.3c0,.14,0,.18.15.17h.58c.16,0,.17,0,.14-.18-.09-.44-.15-.89-.23-1.33Z"/><path class="cls-5" d="M60,4.88c.23,0,.5-.08.68,0s.13.4.18.62c.28,1.47.55,3,.84,4.42,0,.16,0,.22-.17.21s-.58.07-.76-.05-.12-.46-.18-.71-.05-.16-.17-.16h-.91a.14.14,0,0,0-.17.14c0,.2-.08.41-.11.62s-.07.16-.2.16h-.58c-.15,0-.16-.06-.14-.18.32-1.64.63-3.28.94-4.92,0-.15.08-.19.22-.18H60ZM60,6h0c-.13.76-.27,1.52-.41,2.28,0,.16,0,.21.17.2h.58c.12,0,.16,0,.13-.15-.07-.36-.13-.72-.19-1.07S60.06,6.41,60,6Z"/><path class="cls-6" d="M36.47,7.86c0-.67,0-1.33,0-2,0-.17,0-.24-.22-.23a4.42,4.42,0,0,1-.63,0c-.07,0-.16,0-.17-.06s0-.42,0-.63.08-.07.14-.07h2.8c.23.16.06.4.1.59s0,.18-.13.18-.44,0-.66,0-.24,0-.24.24c0,1.32,0,2.64,0,4,0,.26-.06.34-.32.31s-.5.07-.63,0-.05-.43-.05-.66C36.46,8.92,36.47,8.39,36.47,7.86Z"/><path class="cls-7" d="M61.65,16.09v-1c0-.4,0-.81,0-1.21,0-.19.1-.18.22-.18s.23,0,.23.18c0,1,0,1.93,0,2.89,0,.07,0,.18-.08.17s-.32.07-.43-.11c-.37-.58-.74-1.15-1.12-1.72a2.41,2.41,0,0,0-.4-.52c0,.71,0,1.42,0,2.14,0,.17,0,.22-.23.22s-.23-.06-.23-.24c0-.91,0-1.83,0-2.74,0-.09-.07-.24.07-.25s.33-.08.45.12c.45.72.92,1.43,1.39,2.15A.15.15,0,0,0,61.65,16.09Z"/><path class="cls-7" d="M42.24,16.09V14.88c0-.34,0-.68,0-1s.1-.17.22-.18.22,0,.22.18c0,1,0,1.93,0,2.89,0,.07,0,.18-.08.17s-.32.06-.45-.13c-.4-.66-.83-1.3-1.24-1.94l-.2-.3c-.09,0-.05.13-.05.18,0,.66,0,1.32,0,2,0,.18,0,.22-.22.22s-.24,0-.23-.22c0-.92,0-1.84,0-2.76,0-.09-.06-.24.08-.25s.32-.08.45.12c.45.71.91,1.42,1.37,2.13C42.13,16,42.14,16.07,42.24,16.09Z"/><path class="cls-8" d="M28.85,15.24a.84.84,0,0,1,.5,1,.86.86,0,0,1-.83.69c-.4,0-.81,0-1.21,0-.12,0-.14-.06-.14-.16V13.84c0-.1,0-.15.15-.15.38,0,.76,0,1.14,0a.79.79,0,0,1,.79.59C29.35,14.7,29.25,14.94,28.85,15.24ZM27.62,16c0,.13,0,.27,0,.4s0,.19.16.18h.61a.54.54,0,0,0,.51-.38.55.55,0,0,0-.53-.77C27.62,15.37,27.62,15.37,27.62,16Zm0-1.45v.38c0,.08,0,.14.11.13a4.45,4.45,0,0,0,.73,0,.49.49,0,0,0,.39-.52c0-.26-.14-.4-.43-.45l-.3,0C27.62,14.06,27.62,14.06,27.62,14.56Z"/><path class="cls-8" d="M56.37,15.43a2.68,2.68,0,0,1,.15-1,1.25,1.25,0,0,1,1.85-.58c.29.2.47.12.56-.24,0-.08,0-.22.14-.22s.29,0,.24.24a.72.72,0,0,1-.41.59c-.12,0-.12.1-.08.21A2.63,2.63,0,0,1,58.9,16a1.19,1.19,0,0,1-1.3,1,1.24,1.24,0,0,1-1.17-1.09A3.88,3.88,0,0,1,56.37,15.43Zm2.16-.09a1.86,1.86,0,0,0-.12-.81.75.75,0,0,0-.68-.49.72.72,0,0,0-.75.41,2.12,2.12,0,0,0,0,1.76.71.71,0,0,0,.73.4.74.74,0,0,0,.68-.45A1.91,1.91,0,0,0,58.53,15.34Z"/><path class="cls-8" d="M55.22,14.94c0-.36,0-.71,0-1.07,0-.18.09-.18.22-.18s.24,0,.23.18-.09.25.06.27.28-.1.34-.26a.65.65,0,0,0,0-.19c0-.21.13-.18.26-.17s.1.14.09.23a.71.71,0,0,1-.63.71c-.13,0-.17.08-.17.22,0,.4,0,.81,0,1.21A1.05,1.05,0,0,1,54.49,17a1,1,0,0,1-1.16-1.07c0-.67,0-1.34,0-2,0-.17,0-.22.21-.22s.23,0,.23.22c0,.65,0,1.29,0,1.93a.71.71,0,0,0,1,.75A.58.58,0,0,0,55.2,16c0-.35,0-.71,0-1.06Z"/><path class="cls-9" d="M50.19,15.32c0-.48,0-1,0-1.42,0-.18.06-.21.22-.21s.25,0,.24.22,0,.65,0,1c0,.16,0,.2.2.2H52c.16,0,.21,0,.21-.2,0-.34,0-.67,0-1,0-.18.08-.19.21-.19s.24,0,.24.19c0,1,0,1.91,0,2.87,0,.19-.09.18-.23.19s-.23,0-.22-.21c0-.35,0-.71,0-1.06,0-.18-.06-.23-.23-.22q-.57,0-1.14,0c-.17,0-.24,0-.23.22,0,.36,0,.72,0,1.09,0,.21-.12.17-.24.18s-.22,0-.22-.18C50.2,16.28,50.19,15.8,50.19,15.32Z"/><path class="cls-8" d="M45.77,16V16c0,.67-.25.94-.94,1a1.28,1.28,0,0,1-1.5-1.19,2.58,2.58,0,0,1,.11-1.4,1.18,1.18,0,0,1,1.21-.74,1.08,1.08,0,0,1,1.07.77c0,.07.12.2,0,.22s-.31.12-.39-.1a.67.67,0,0,0-.72-.51.71.71,0,0,0-.76.54,2.35,2.35,0,0,0,0,1.46.94.94,0,0,0,1.38.47c.13-.08.13-.2.13-.33,0-.48,0-.47-.48-.48-.09,0-.25.09-.27-.13s0-.27.23-.25a4.45,4.45,0,0,0,.73,0c.16,0,.23,0,.22.21A3.09,3.09,0,0,0,45.77,16Z"/><path class="cls-8" d="M65.24,16V16c0,.66-.25.92-.93,1a1.3,1.3,0,0,1-1.52-1.2,2.68,2.68,0,0,1,.12-1.4,1.19,1.19,0,0,1,1.19-.73,1.07,1.07,0,0,1,1.08.76c0,.07.13.21,0,.23s-.33.13-.4-.11a.66.66,0,0,0-.66-.5.75.75,0,0,0-.86.64,2.56,2.56,0,0,0,.05,1.4,1,1,0,0,0,1.38.43.32.32,0,0,0,.12-.31c0-.5,0-.5-.49-.5-.12,0-.27,0-.25-.19s0-.19.18-.19a5.47,5.47,0,0,0,.81,0c.15,0,.19.06.18.2S65.24,15.81,65.24,16Z"/><path class="cls-10" d="M32.43,15.34a2,2,0,0,1-.14.9,1.15,1.15,0,0,1-1.11.74A1.14,1.14,0,0,1,30,16.25a2.37,2.37,0,0,1,0-1.83,1.23,1.23,0,0,1,2.3.05A2,2,0,0,1,32.43,15.34Zm-.42,0,0-.5a1.09,1.09,0,0,0-.07-.24.76.76,0,0,0-.74-.55.74.74,0,0,0-.77.53,2.24,2.24,0,0,0,0,1.51.73.73,0,0,0,.77.53.76.76,0,0,0,.74-.58A2.32,2.32,0,0,0,32,15.33Z"/><path class="cls-10" d="M37,15.32a1.9,1.9,0,0,1,.19-1,1.14,1.14,0,0,1,1.11-.69,1.13,1.13,0,0,1,1.12.73,2.42,2.42,0,0,1,0,1.87,1.1,1.1,0,0,1-1.14.72,1.17,1.17,0,0,1-1.12-.73A2,2,0,0,1,37,15.32Zm2.14,0a1.78,1.78,0,0,0-.08-.72.76.76,0,0,0-.75-.56.73.73,0,0,0-.76.54,2.24,2.24,0,0,0,0,1.49.76.76,0,0,0,.79.54.77.77,0,0,0,.73-.59A1.82,1.82,0,0,0,39.14,15.32Z"/><path class="cls-7" d="M34.5,15.4a2.06,2.06,0,0,0,.08.63.79.79,0,0,0,1.05.55.59.59,0,0,0,.44-.51c0-.28.25-.18.39-.16s0,.19,0,.27a1,1,0,0,1-.91.79,1.12,1.12,0,0,1-1.25-.53,2.28,2.28,0,0,1,0-2.18,1.18,1.18,0,0,1,1.27-.59,1.08,1.08,0,0,1,.95.89c0,.06.08.17,0,.18s-.28.1-.38-.07a.5.5,0,0,1,0-.13.63.63,0,0,0-.53-.5.78.78,0,0,0-.84.34A1.73,1.73,0,0,0,34.5,15.4Z"/><path class="cls-8" d="M48.26,15.5c0-.41,0-.82,0-1.24,0-.16,0-.2-.2-.2s-.42,0-.63,0-.19,0-.19-.18,0-.2.2-.2h2.1c.16,0,.19.05.19.2s-.06.18-.19.18-.41,0-.61,0-.23,0-.23.23c0,.8,0,1.6,0,2.41,0,.17,0,.24-.23.24s-.23-.08-.22-.25C48.27,16.3,48.26,15.9,48.26,15.5Z"/><path class="cls-6" d="M31.78,3.86a1.77,1.77,0,0,1,.58.12.55.55,0,0,0,.49-.1c.21-.16.32.09.47.15s0,.16,0,.23a.84.84,0,0,1-.94.34L32,4.48c-.12,0-.27,0-.34,0-.25.28-.39,0-.58-.07s0-.11,0-.17A.75.75,0,0,1,31.78,3.86Z"/><path class="cls-4" d="M45.27,4.62h-.7c-.2,0-.26-.2-.39-.3s-.11-.14-.17,0c-.27.46-.71.31-1.17.33l.75-.77c.07-.07.15,0,.22-.05A1.16,1.16,0,0,1,45,4.3a1.8,1.8,0,0,0,.29.25Z"/><path class="cls-6" d="M59.48,4.61,60,3.89a.21.21,0,0,1,.19-.09h.86a7.85,7.85,0,0,1-.93.78C60,4.69,59.74,4.61,59.48,4.61Z"/><path class="cls-11" d="M30.47,13.45c.19-.21.34-.4.51-.56a.24.24,0,0,1,.36,0c.17.16.31.35.48.54a.37.37,0,0,1-.5-.15c-.11-.16-.21-.2-.32,0A.42.42,0,0,1,30.47,13.45Z"/><path class="cls-11" d="M39,13.45a.43.43,0,0,1-.55-.2c-.09-.14-.17-.14-.26,0a.41.41,0,0,1-.54.19c.18-.2.34-.4.52-.57a.24.24,0,0,1,.35,0Z"/><path class="cls-8" d="M31.13,17.24c.16,0,.25.08.25.23s-.08.25-.25.24a.21.21,0,0,1-.23-.24A.21.21,0,0,1,31.13,17.24Z"/><path class="cls-7" d="M15.32,4.56c-.12.16-.25.31-.36.48s-.15.07-.24,0-.15-.11-.06-.24l.68-.88c0-.06.06-.21.19-.13s.25.12.22.3a4.29,4.29,0,0,0-.06.81c.12-.16.25-.32.36-.48s.15-.14.28,0,.11.15,0,.25c-.23.29-.44.58-.66.87,0,.06-.07.2-.18.13s-.26-.1-.22-.29,0-.52.08-.77Z"/><path class="cls-7" d="M6.2,4.55c-.11-.15-.2-.31-.32-.45s0-.17,0-.26.18-.07.26,0c.21.3.44.59.66.89,0,.06.16.12,0,.21s-.17.2-.33.13L5.8,4.77a2.11,2.11,0,0,0,.36.54c.08.11.07.17,0,.26s-.17.1-.26,0c-.21-.3-.44-.59-.66-.89,0-.06-.17-.13-.06-.21s.16-.21.32-.14.46.2.7.3h.06Z"/><path class="cls-8" d="M3.51,7.56l.61.32c.15.07.09.14,0,.23s-.09.18-.22.1c-.33-.18-.66-.34-1-.52-.07,0-.22,0-.16-.18s.07-.26.26-.26a3.33,3.33,0,0,0,.77,0,1.6,1.6,0,0,0-.53-.34c-.17-.08-.09-.15-.05-.25s.11-.14.23-.08c.32.19.66.35,1,.53.07,0,.2,0,.15.15s-.06.27-.25.27A4.4,4.4,0,0,0,3.51,7.56Z"/><path class="cls-9" d="M9.27,2.49a.42.42,0,0,1,.39.16c.05.06.15.16.07.22a.21.21,0,0,1-.32,0,.25.25,0,0,0-.33-.08c-.14.07-.14.21-.13.35a.87.87,0,0,0,.1.39.28.28,0,0,0,.38.14c.09,0,.11-.09.1-.18s-.07-.11-.15-.08-.14,0-.15-.14.07-.11.14-.13c.42-.1.58,0,.55.47a.18.18,0,0,1,0,.11A.85.85,0,0,1,9.14,4a.57.57,0,0,1-.48-.4,1,1,0,0,1,0-.78A.61.61,0,0,1,9.27,2.49Z"/><path class="cls-9" d="M3.89,8.88a.64.64,0,0,1-.69.64.79.79,0,0,1-.84-.71.64.64,0,0,1,.69-.64A.8.8,0,0,1,3.89,8.88Zm-.6.28c.13,0,.24,0,.29-.18a.26.26,0,0,0-.13-.3,1,1,0,0,0-.53-.14.21.21,0,0,0-.24.18A.24.24,0,0,0,2.79,9,1.33,1.33,0,0,0,3.29,9.16Z"/><path class="cls-10" d="M11.46,3.15c0,.49-.27.76-.67.75a.7.7,0,0,1-.64-.79c0-.49.29-.76.69-.74S11.48,2.68,11.46,3.15Zm-.92,0a.75.75,0,0,0,0,.15c0,.15.07.29.25.3s.25-.11.28-.27l0-.14c0-.31-.08-.52-.27-.53S10.53,2.81,10.54,3.15Z"/><path class="cls-9" d="M7.37,3.06c.08,0,.08.09.12.14a.09.09,0,0,1,0,.14c-.13.06-.26.13-.39.18S7,3.65,7,3.74s.11.1.19,0l.25-.12c.1-.06.14,0,.19.06s0,.15-.08.19l-.2.1c-.1.05-.19.08-.11.22s.12.18.25.09.2-.1.29-.15.16,0,.22.07,0,.15-.08.19l-.66.33c-.09,0-.14.05-.19-.06C6.9,4.34,6.72,4,6.53,3.6c0-.05-.06-.1,0-.15l.77-.38Z"/><path class="cls-9" d="M15.18,3.58c-.37.34-.71.64-1,1-.09.08-.16.11-.26,0s-.23-.09-.2-.26c.06-.4.1-.79.16-1.18,0-.07,0-.22.09-.17s.32,0,.27.25a4.61,4.61,0,0,0-.09.85l.42-.47C14.77,3.32,14.77,3.32,15.18,3.58Z"/><path class="cls-9" d="M12.31,3.47c.12-.25.26-.49.37-.75s.27-.1.38-.06,0,.15,0,.22c-.18.34-.39.67-.57,1-.07.14-.17.13-.29.11A.22.22,0,0,1,12,3.78c0-.39-.09-.77-.13-1.15,0-.07-.11-.22.06-.21s.31,0,.32.2,0,.56.06.85Z"/><path class="cls-9" d="M4.83,7l-.16-.12-.9-.7c-.12-.08-.11-.15,0-.25s.14-.15.26,0,.45.35.67.54.16.09.24,0,.13-.16.18-.24.13-.11.22,0,.08.12,0,.2-.3.37-.44.56A.39.39,0,0,0,4.83,7Z"/><path class="cls-8" d="M4.76,4.82l.09.08.84.83c.11.1.07.16,0,.24s-.13.15-.24,0c-.27-.29-.56-.56-.83-.84,0,0-.14-.08-.06-.16A.46.46,0,0,1,4.76,4.82Z"/><path class="cls-11" d="M8.54,4.1a.2.2,0,0,1-.2.19.16.16,0,0,1-.18-.19.19.19,0,0,1,.21-.17A.17.17,0,0,1,8.54,4.1Z"/><path class="cls-11" d="M13.16,4.05c0,.12-.1.19-.22.17a.18.18,0,1,1,0-.35A.2.2,0,0,1,13.16,4.05Z"/><path class="cls-1" d="M29.1,7.5c0,.46,0,.91,0,1.37s-.14.48-.48.51c-.55,0-.55,0-.55-.5,0-.27,0-.54,0-.81s0-.21.19-.21c.43,0,.5-.11.42-.55,0-.14-.1-.1-.18-.11-.43,0-.43,0-.43-.44s0-.64,0-1c0-.12,0-.18.16-.17h.05c.75,0,.83.06.83.81Z"/><path class="cls-12" d="M55.89,8.55c0-.22,0-.43,0-.64s0-.16.14-.15h0c.73,0,.88.1.88.83s-.06.79-.81.8c-.19,0-.26,0-.24-.24S55.89,8.75,55.89,8.55Z"/><path class="cls-13" d="M55.89,6.32a.69.69,0,0,1,0-.25c.06-.15-.18-.42.18-.44.57,0,.73.08.76.47v.2c0,.58-.25.78-.83.7-.11,0-.12-.06-.12-.15S55.89,6.5,55.89,6.32Z"/><path class="cls-14" d="M43.59,7.49V6.1c0-.34.16-.51.48-.52a.45.45,0,0,1,.52.51c0,.94,0,1.89,0,2.83a.45.45,0,0,1-.52.51c-.32,0-.48-.18-.48-.52Z"/><path class="cls-14" d="M64.06,7.51c0,.46,0,.92,0,1.37s-.17.55-.51.55-.49-.18-.49-.56V6.13a.49.49,0,0,1,.7-.51c.26.08.3.28.3.5C64.07,6.58,64.06,7.05,64.06,7.51Z"/><path class="cls-14" d="M32.15,6l.18,1c.08.44.14.89.23,1.33,0,.14,0,.19-.14.18h-.58c-.14,0-.18,0-.15-.17L32.11,6Z"/><path class="cls-14" d="M60,6c.08.42.16.84.23,1.26s.12.71.19,1.07c0,.13,0,.16-.13.15h-.58c-.16,0-.2,0-.17-.2.14-.76.28-1.52.41-2.28Z"/><path class="cls-14" d="M27.62,16c0-.64,0-.64.75-.58a.55.55,0,0,1,.53.77.54.54,0,0,1-.51.38h-.61c-.14,0-.17-.06-.16-.18S27.62,16.14,27.62,16Z"/><path class="cls-14" d="M27.62,14.56c0-.5,0-.5.5-.5l.3,0c.29.05.42.19.43.45a.49.49,0,0,1-.39.52,4.45,4.45,0,0,1-.73,0c-.1,0-.11-.05-.11-.13Z"/><path class="cls-13" d="M58.53,15.34a1.91,1.91,0,0,1-.13.82.74.74,0,0,1-.68.45.71.71,0,0,1-.73-.4,2.12,2.12,0,0,1,0-1.76.72.72,0,0,1,.75-.41.75.75,0,0,1,.68.49A1.86,1.86,0,0,1,58.53,15.34Z"/><path class="cls-12" d="M32,15.33a2.32,2.32,0,0,1-.09.7.76.76,0,0,1-.74.58.73.73,0,0,1-.77-.53,2.24,2.24,0,0,1,0-1.51.74.74,0,0,1,.77-.53.76.76,0,0,1,.74.55,1.09,1.09,0,0,1,.07.24Z"/><path class="cls-12" d="M39.15,15.32a2,2,0,0,1-.08.7.77.77,0,0,1-.73.59.76.76,0,0,1-.79-.54,2.24,2.24,0,0,1,0-1.49.73.73,0,0,1,.76-.54.76.76,0,0,1,.75.56A2,2,0,0,1,39.15,15.32Z"/><path class="cls-1" d="M6.2,4.55l0,.06H6.16Z"/><path class="cls-14" d="M3.29,9.16A1.33,1.33,0,0,1,2.79,9a.24.24,0,0,1-.11-.28.21.21,0,0,1,.24-.18,1,1,0,0,1,.53.14.26.26,0,0,1,.13.3C3.53,9.12,3.42,9.15,3.29,9.16Z"/></g></g></svg>