<svg xmlns="http://www.w3.org/2000/svg" viewBox="0 0 14 14"><defs><style>.cls-1{fill:#236852;}.cls-2{fill:#fff;}</style></defs><title>Asset 3</title><g id="Layer_2" data-name="Layer 2"><g id="Layer_1-2" data-name="Layer 1"><path class="cls-1" d="M7,0a7,7,0,1,0,7,7A7,7,0,0,0,7,0Z"/><g id="_Group_" data-name="&lt;Group&gt;"><path id="_Path_" data-name="&lt;Path&gt;" class="cls-2" d="M8.72,10.57H4.49a.39.39,0,0,0-.4.39.4.4,0,0,0,.4.4H8.72a.39.39,0,0,0,.39-.4A.38.38,0,0,0,8.72,10.57Z"/><path id="_Compound_Path_" data-name="&lt;Compound Path&gt;" class="cls-2" d="M9.51,3.17h-.4V3a.39.39,0,0,0-.39-.4.4.4,0,0,0-.4.4v.13h-.4a.4.4,0,0,0-.39.4A.39.39,0,0,0,7.92,4h.4V5.44A2.46,2.46,0,0,0,6.6,4.76,2.51,2.51,0,1,0,8.32,9.09v.29a.39.39,0,0,0,.4.39.38.38,0,0,0,.39-.39V4h.4a.39.39,0,0,0,.4-.39A.4.4,0,0,0,9.51,3.17ZM6.6,9A1.72,1.72,0,1,1,8.32,7.26,1.72,1.72,0,0,1,6.6,9Z"/></g></g></g></svg>