<svg xmlns="http://www.w3.org/2000/svg" viewBox="0 0 11.46 11.46"><defs><style>.cls-1{fill:#0fb55a;}</style></defs><title>Asset 2</title><g id="Layer_2" data-name="Layer 2"><g id="Layer_1-2" data-name="Layer 1"><path class="cls-1" d="M5.73,0a5.73,5.73,0,1,0,5.73,5.73A5.74,5.74,0,0,0,5.73,0Zm0,11A5.29,5.29,0,1,1,11,5.73,5.29,5.29,0,0,1,5.73,11Z"/><path class="cls-1" d="M8.49,5.51H6V3.09a.22.22,0,0,0-.44,0V5.51H3A.22.22,0,0,0,3,6H5.51V8.6A.22.22,0,1,0,6,8.6V6H8.49a.22.22,0,1,0,0-.44Z"/></g></g></svg>