<svg xmlns="http://www.w3.org/2000/svg" viewBox="0 0 12 12"><defs><style>.cls-1{fill:#dba510;}</style></defs><title>Asset 4</title><g id="Layer_2" data-name="Layer 2"><g id="Layer_1-2" data-name="Layer 1"><path class="cls-1" d="M6,0a6,6,0,1,0,6,6A6,6,0,0,0,6,0ZM8.85,4.32l-.57.57L7.12,3.73l-.44.44L7.84,5.33,5,8.17,3.84,7l-.44.44L4.56,8.61l-.29.29h0a.21.21,0,0,1-.15.1L3,9.24H3a.21.21,0,0,1-.16-.07A.24.24,0,0,1,2.77,9L3,7.89a.21.21,0,0,1,.1-.15h0L7.69,3.16a.18.18,0,0,1,.25,0l.91.91A.18.18,0,0,1,8.85,4.32Z"/></g></g></svg>