<svg xmlns="http://www.w3.org/2000/svg" viewBox="0 0 12 12"><defs><style>.cls-1{fill:#666;}</style></defs><title>Asset 3</title><g id="Layer_2" data-name="Layer 2"><g id="Layer_1-2" data-name="Layer 1"><path class="cls-1" d="M10.24,1.76a6,6,0,0,0-8.48,0,6,6,0,0,0,0,8.48,6,6,0,0,0,8.48,0,6,6,0,0,0,0-8.48Zm-.48,8a5.31,5.31,0,0,1-7.52,0,5.33,5.33,0,0,1,0-7.52,5.31,5.31,0,0,1,7.52,0A5.33,5.33,0,0,1,9.76,9.76Z"/><path class="cls-1" d="M8.64,3.36a.33.33,0,0,0-.48,0L6,5.52,3.84,3.36a.34.34,0,1,0-.48.48L5.52,6,3.36,8.16a.33.33,0,0,0,0,.48.31.31,0,0,0,.24.1.34.34,0,0,0,.24-.1L6,6.48,8.16,8.64a.31.31,0,0,0,.24.1.33.33,0,0,0,.24-.1.34.34,0,0,0,0-.48L6.48,6,8.64,3.84A.33.33,0,0,0,8.64,3.36Z"/></g></g></svg>