<svg xmlns="http://www.w3.org/2000/svg" viewBox="0 0 15 15"><defs><style>.cls-1{fill:#236852;}</style></defs><title>Asset 1</title><g id="Layer_2" data-name="Layer 2"><g id="Layer_1-2" data-name="Layer 1"><polygon class="cls-1" points="5.05 6.86 4.79 6.61 4.43 6.99 5.06 7.59 5.97 6.67 5.6 6.3 5.05 6.86"/><rect class="cls-1" x="6.63" y="10.19" width="3.62" height="0.78"/><polygon class="cls-1" points="5.05 10.59 4.79 10.34 4.43 10.71 5.06 11.31 5.97 10.39 5.6 10.03 5.05 10.59"/><polygon class="cls-1" points="5.05 8.73 4.79 8.48 4.43 8.85 5.06 9.46 5.97 8.53 5.6 8.17 5.05 8.73"/><rect class="cls-1" x="6.63" y="6.47" width="3.62" height="0.78"/><rect class="cls-1" x="6.63" y="8.33" width="3.62" height="0.78"/><path class="cls-1" d="M7.5,0A7.5,7.5,0,1,0,15,7.5,7.5,7.5,0,0,0,7.5,0ZM9.4,2.74l1.81,2H9.4v-2Zm2.15,8.85h0a1.1,1.1,0,0,1-1.1,1.1h-6a1.11,1.11,0,0,1-1.11-1.1V3.41a1.11,1.11,0,0,1,1.11-1.1H8.62V5.54h2.93v6.05Z"/></g></g></svg>