<svg width="12" height="13" viewBox="0 0 12 13" fill="none" xmlns="http://www.w3.org/2000/svg">
<path d="M11.7797 0.220349C11.7109 0.150561 11.629 0.0951399 11.5387 0.0573107C11.4483 0.0194815 11.3513 0 11.2534 0C11.1554 0 11.0585 0.0194815 10.9681 0.0573107C10.8778 0.0951399 10.7959 0.150561 10.7271 0.220349L6 4.94748L1.27287 0.220349C1.20415 0.150561 1.12222 0.0951399 1.03188 0.0573107C0.941529 0.0194815 0.844559 0 0.746611 0C0.648663 0 0.551694 0.0194815 0.461346 0.0573107C0.370998 0.0951399 0.289076 0.150561 0.220349 0.220349C0.150561 0.289076 0.0951399 0.370998 0.0573107 0.461346C0.0194815 0.551694 0 0.648663 0 0.746611C0 0.844559 0.0194815 0.941529 0.0573107 1.03188C0.0951399 1.12222 0.150561 1.20415 0.220349 1.27287L4.94748 6L0.220349 10.7271C0.150561 10.7959 0.0951399 10.8778 0.0573107 10.9681C0.0194815 11.0585 0 11.1554 0 11.2534C0 11.3513 0.0194815 11.4483 0.0573107 11.5387C0.0951399 11.629 0.150561 11.7109 0.220349 11.7797C0.288282 11.8492 0.369422 11.9044 0.459004 11.9421C0.548585 11.9798 0.6448 11.9992 0.741995 11.9992C0.83919 11.9992 0.935405 11.9798 1.02499 11.9421C1.11457 11.9044 1.19571 11.8492 1.26364 11.7797L5.99077 7.05252L10.7179 11.7797C10.8571 11.9202 11.0463 11.9999 11.2442 12.0012C11.3913 12.0002 11.5349 11.9558 11.657 11.8736C11.779 11.7914 11.8741 11.6749 11.9303 11.5389C11.9865 11.4029 12.0013 11.2533 11.9728 11.1089C11.9444 10.9645 11.874 10.8317 11.7704 10.7271L7.05252 6L11.7797 1.27287C11.8494 1.20415 11.9049 1.12222 11.9427 1.03188C11.9805 0.941529 12 0.844559 12 0.746611C12 0.648663 11.9805 0.551694 11.9427 0.461346C11.9049 0.370998 11.8494 0.289076 11.7797 0.220349Z" fill="#666666"/>
</svg>
