<svg width="28" height="28" viewBox="0 0 28 28" fill="none" xmlns="http://www.w3.org/2000/svg">
<path d="M14 28C21.732 28 28 21.732 28 14C28 6.26801 21.732 0 14 0C6.26801 0 0 6.26801 0 14C0 21.732 6.26801 28 14 28Z" fill="#232F3E"/>
<path d="M18.3833 11.7282C18.3833 12.2282 18.4083 12.7482 18.3833 13.2548C18.3233 14.2332 18.4783 15.1315 19.1666 15.8865C19.405 16.1482 19.3616 16.3948 19.0716 16.6248C18.5866 17.0082 18.1183 17.4115 17.6533 17.8165C17.35 18.0798 17.085 18.0598 16.7916 17.7932C16.4721 17.5236 16.1951 17.2072 15.97 16.8548C15.8033 16.5732 15.6816 16.5882 15.46 16.8115C14.5383 17.7365 13.41 18.1265 12.1066 18.1015C10.03 18.0615 8.72664 16.6732 8.85164 14.5898C8.96998 12.6165 10.2 11.3415 12.45 10.9232C13.2683 10.7682 14.1 10.6782 14.93 10.5898C15.2333 10.5615 15.32 10.4698 15.3266 10.1682C15.3516 8.98651 15.0583 8.43317 14.2516 8.22151C13.8127 8.09285 13.3409 8.14028 12.9364 8.35374C12.5319 8.56721 12.2265 8.92989 12.085 9.36484C11.9633 9.72317 11.7816 9.86484 11.41 9.81484C10.8333 9.73817 10.255 9.68151 9.67664 9.62651C9.25664 9.58651 9.17664 9.34817 9.26164 8.98151C9.54164 7.88151 10.165 7.03484 11.19 6.54817C11.9982 6.14756 12.8821 5.92262 13.7836 5.88815C14.685 5.85368 15.5835 6.01046 16.42 6.34817C17.7533 6.86651 18.3516 7.93151 18.3833 9.32984C18.4016 10.1282 18.3833 10.9282 18.3833 11.7265V11.7282Z" fill="#FEFEFD"/>
<path d="M13.8833 22.1664C10.825 22.1097 8.38334 20.8114 6.36334 18.6081C6.25667 18.4914 6.06501 18.3464 6.19667 18.1981C6.37334 17.9997 6.51501 18.2547 6.64167 18.3414C9.05334 19.9947 11.7033 20.8414 14.6417 20.7181C16.37 20.6276 18.0607 20.1793 19.6067 19.4014C19.81 19.3031 20.0633 19.0064 20.2733 19.3181C20.4833 19.6297 20.1283 19.8014 19.94 19.9597C18.2389 21.3769 16.0973 22.1571 13.8833 22.1664Z" fill="#EB902D"/>
<path d="M18.6318 18.7472C18.9118 18.3639 19.2368 18.2956 19.5385 18.2272C19.8744 18.1504 20.2173 18.1091 20.5618 18.1039C21.7135 18.0873 21.9218 18.3889 21.5085 19.4772C21.3085 20.0039 21.0485 20.4989 20.4718 20.8105C20.4318 20.3522 20.6952 20.0289 20.8052 19.6656C21.0468 18.8322 20.9302 18.6656 20.0568 18.6656C19.8218 18.6656 19.5868 18.7006 19.3518 18.7156C19.1435 18.7272 18.9385 18.7339 18.6318 18.7472Z" fill="#E98F2D"/>
<path d="M15.3117 13.1383C15.2967 13.78 15.2317 14.4967 14.7967 15.1217C14.4634 15.61 14.0217 15.925 13.4067 15.9383C12.7917 15.9517 12.3484 15.6533 12.1417 15.0433C11.965 14.5707 11.9809 14.0476 12.186 13.5866C12.3911 13.1256 12.769 12.7635 13.2384 12.5783C13.7284 12.3717 14.2501 12.3283 14.7734 12.2717C15.1917 12.2267 15.3934 12.3283 15.3134 12.78C15.3049 12.8993 15.3043 13.019 15.3117 13.1383Z" fill="#232F3E"/>
</svg>
