<svg width="12" height="12" viewBox="0 0 12 12" fill="none" xmlns="http://www.w3.org/2000/svg">
<g clip-path="url(#clip0)">
<path d="M11.6558 7.30413C11.4821 7.30413 11.3413 7.44493 11.3413 7.61865V10.4114C11.3406 10.9322 10.9186 11.3543 10.3977 11.3549H1.5726C1.05168 11.3543 0.629654 10.9322 0.629039 10.4114V2.2153C0.629654 1.69438 1.05168 1.27235 1.5726 1.27174H4.36519C4.53891 1.27174 4.67971 1.13094 4.67971 0.95722C4.67971 0.783497 4.53891 0.6427 4.36519 0.6427H1.5726C0.704475 0.643683 0.000982874 1.34718 0 2.2153V10.4114C0.000982874 11.2795 0.704475 11.983 1.5726 11.984H10.3977C11.2658 11.983 11.9693 11.2795 11.9703 10.4114V7.61877C11.9703 7.44505 11.8295 7.30413 11.6558 7.30413Z" fill="#666666"/>
<path d="M4.91809 5.64912L9.51045 1.05664L10.9915 2.53771L6.39916 7.13019L4.91809 5.64912Z" fill="#666666"/>
<path d="M4.1687 7.87941L5.80544 7.42606L4.62205 6.24268L4.1687 7.87941Z" fill="#666666"/>
<path d="M11.4009 0.27824C11.0937 -0.0282936 10.5962 -0.0282936 10.2889 0.27824L9.95538 0.611803L11.4364 2.09287L11.77 1.75931C12.0767 1.45204 12.0767 0.95458 11.77 0.647309L11.4009 0.27824Z" fill="#666666"/>
</g>
<defs>
<clipPath id="clip0">
<rect width="12" height="12" fill="white"/>
</clipPath>
</defs>
</svg>
