<svg width="20" height="20" viewBox="0 0 20 20" fill="none" xmlns="http://www.w3.org/2000/svg">
<g clip-path="url(#clip0)">
<path d="M9.99982 6.18982C7.89853 6.18982 6.18909 7.89926 6.18909 10.0004C6.18909 12.1017 7.89853 13.8111 9.99982 13.8111C12.101 13.8111 13.8104 12.1017 13.8104 10.0004C13.8104 7.89926 12.101 6.18982 9.99982 6.18982ZM12.2622 9.28278L9.53229 12.0127C9.41769 12.1273 9.2674 12.1847 9.11725 12.1847C8.9671 12.1847 8.81696 12.1275 8.70236 12.0127L7.65912 10.9695C7.42993 10.7404 7.42993 10.3689 7.65912 10.1397C7.88815 9.91052 8.2597 9.91052 8.48889 10.1397L9.11725 10.7681L11.4325 8.453C11.6615 8.22382 12.0331 8.22382 12.2622 8.453C12.4914 8.68204 12.4914 9.05359 12.2622 9.28278Z" fill="#226852"/>
<path d="M18.4956 5.42651L18.495 5.41094C18.4863 5.21883 18.4805 5.01559 18.477 4.78945C18.4606 3.6867 17.584 2.77454 16.4811 2.71289C14.1816 2.58456 12.4028 1.83475 10.8828 0.353278L10.8699 0.340919C10.3741 -0.11364 9.62628 -0.11364 9.13037 0.340919L9.1174 0.353278C7.59748 1.83475 5.81861 2.58456 3.51912 2.71304C2.41637 2.77454 1.5396 3.6867 1.52328 4.78961C1.51992 5.01421 1.51397 5.21746 1.50527 5.41094L1.50436 5.44711C1.45965 7.79192 1.40411 10.7102 2.38036 13.3589C2.91716 14.8155 3.73015 16.0817 4.79658 17.1225C6.01118 18.3078 7.60206 19.2488 9.52496 19.9193C9.58752 19.9411 9.65253 19.9588 9.71875 19.9721C9.81213 19.9907 9.90613 20 10.0001 20C10.0941 20 10.1883 19.9907 10.2815 19.9721C10.3477 19.9588 10.4132 19.9409 10.476 19.919C12.3967 19.2473 13.9859 18.3058 15.1994 17.1207C16.2654 16.0796 17.0783 14.8131 17.6156 13.3562C18.5955 10.6995 18.5401 7.77574 18.4956 5.42651ZM9.99982 14.9846C7.25141 14.9846 5.01555 12.7487 5.01555 10.0003C5.01555 7.25191 7.25141 5.01605 9.99982 5.01605C12.7481 5.01605 14.9841 7.25191 14.9841 10.0003C14.9841 12.7487 12.7481 14.9846 9.99982 14.9846Z" fill="#226852"/>
</g>
<defs>
<clipPath id="clip0">
<rect width="20" height="20" fill="white"/>
</clipPath>
</defs>
</svg>
