<svg xmlns="http://www.w3.org/2000/svg" viewBox="0 0 19.55 19.55"><defs><style>.cls-1{fill:#4bc999;}</style></defs><title>Asset 9</title><g id="Layer_2" data-name="Layer 2"><g id="Layer_1-2" data-name="Layer 1"><path class="cls-1" d="M9.64,0a9.78,9.78,0,1,0,9.91,9.64A9.78,9.78,0,0,0,9.64,0Zm0,15.72H9.56a1.37,1.37,0,0,1-1.39-1.45,1.38,1.38,0,0,1,1.42-1.39h.05a1.42,1.42,0,1,1,0,2.84Zm3.49-6.93a6.25,6.25,0,0,1-1.17,1l-.59.41a1.64,1.64,0,0,0-.6.73,1.43,1.43,0,0,0-.09.61v.1H8.38v-.19a2.51,2.51,0,0,1,.38-1.65,9.81,9.81,0,0,1,1.7-1.36,2,2,0,0,0,.4-.42,1.46,1.46,0,0,0,.35-.84,1.63,1.63,0,0,0-.32-1,1.28,1.28,0,0,0-1.12-.43,1.23,1.23,0,0,0-1.14.53,2.14,2.14,0,0,0-.35,1.14v.09H5.94v-.1A3.57,3.57,0,0,1,7.47,4.4a4,4,0,0,1,2.21-.58,4.71,4.71,0,0,1,2.84.83A2.82,2.82,0,0,1,13.68,7.1a2.82,2.82,0,0,1-.57,1.69Z"/></g></g></svg>