<svg width="20" height="17" viewBox="0 0 20 17" fill="none" xmlns="http://www.w3.org/2000/svg">
<path d="M14.842 8.95811C14.8509 8.94479 14.8587 8.93093 14.8668 8.91725C14.8743 8.90468 14.8822 8.89249 14.8891 8.87956C14.8966 8.86542 14.903 8.851 14.9098 8.83663C14.9161 8.82327 14.9228 8.81014 14.9284 8.79643C14.9343 8.78237 14.9389 8.768 14.944 8.75374C14.9493 8.73917 14.9549 8.72479 14.9594 8.70987C14.9638 8.69542 14.967 8.68081 14.9707 8.6662C14.9745 8.65112 14.9787 8.63628 14.9817 8.62089C14.9851 8.60382 14.9871 8.58671 14.9896 8.56952C14.9914 8.55639 14.9939 8.5435 14.9952 8.53022C15.0014 8.46858 15.0014 8.40655 14.9952 8.34491C14.9939 8.33159 14.9914 8.31866 14.9895 8.30546C14.9871 8.28839 14.9851 8.2712 14.9817 8.25428C14.9787 8.23885 14.9745 8.22397 14.9706 8.20878C14.967 8.19428 14.9638 8.17971 14.9594 8.16534C14.9549 8.15034 14.9492 8.13585 14.944 8.12116C14.9389 8.10702 14.9343 8.0928 14.9285 8.07885C14.9227 8.06499 14.916 8.05175 14.9096 8.03823C14.9029 8.02405 14.8966 8.00971 14.8892 7.99581C14.8822 7.98268 14.8741 7.97018 14.8666 7.95745C14.8585 7.94401 14.8509 7.93034 14.8421 7.91721C14.8325 7.90284 14.8218 7.88928 14.8114 7.87553C14.8034 7.86491 14.796 7.85397 14.7875 7.84358C14.7678 7.8196 14.747 7.79647 14.725 7.77452L11.9128 4.96221C11.5468 4.59608 10.9532 4.59608 10.587 4.96221C10.2208 5.32835 10.2208 5.9219 10.587 6.28803L11.7991 7.50022H0.9375C0.419766 7.50022 0 7.91991 0 8.43772C0 8.95546 0.419766 9.37522 0.9375 9.37522H11.799L10.5869 10.5873C10.2208 10.9534 10.2208 11.547 10.5869 11.9131C10.77 12.0962 11.0099 12.1877 11.2498 12.1877C11.4897 12.1877 11.7297 12.0962 11.9127 11.9131L14.7251 9.10081C14.747 9.07893 14.7677 9.05589 14.7873 9.03186C14.7962 9.02124 14.8037 9.00999 14.8119 8.99913C14.8221 8.98542 14.8326 8.97217 14.842 8.95811Z" fill="#49B391"/>
<path d="M19.0625 16.875H7.1875C6.66977 16.875 6.25 16.4552 6.25 15.9375V12.1874C6.25 11.6696 6.66977 11.2499 7.1875 11.2499C7.70523 11.2499 8.125 11.6696 8.125 12.1874V15H18.125V1.875H8.125V4.6875C8.125 5.20523 7.70523 5.625 7.1875 5.625C6.66977 5.625 6.25 5.20523 6.25 4.6875V0.9375C6.25 0.419688 6.66977 0 7.1875 0H19.0625C19.5802 0 20 0.419688 20 0.9375V15.9375C20 16.4553 19.5802 16.875 19.0625 16.875Z" fill="#B9B8B8"/>
</svg>
