<svg width="20" height="20" viewBox="0 0 20 20" fill="none" xmlns="http://www.w3.org/2000/svg">
<path d="M9.99999 19.6296C4.68184 19.6296 0.370361 15.3181 0.370361 9.99999C0.370361 4.68184 4.68184 0.370361 9.99999 0.370361C15.3181 0.370361 19.6296 4.68184 19.6296 9.99999C19.6296 15.3181 15.3181 19.6296 9.99999 19.6296Z" fill="#49B391"/>
<path d="M10 20C4.48593 20 0 15.5141 0 10C0 4.48593 4.48593 0 10 0C15.5141 0 20 4.48593 20 10C20 15.5141 15.5141 20 10 20ZM10 0.740741C4.89444 0.740741 0.740741 4.89444 0.740741 10C0.740741 15.1056 4.89444 19.2593 10 19.2593C15.1056 19.2593 19.2593 15.1056 19.2593 10C19.2593 4.89444 15.1056 0.740741 10 0.740741Z" fill="#49B391"/>
<path d="M13.3868 10.3766L7.79379 13.6059C7.62194 13.7051 7.40749 13.5811 7.40749 13.3829V6.92441C7.40749 6.72626 7.62194 6.60218 7.79379 6.70144L13.3868 9.9307C13.5586 10.03 13.5586 10.2777 13.3868 10.3766Z" fill="white"/>
<path d="M7.66555 14.0111C7.31889 14.0111 7.03703 13.7292 7.03703 13.3829V6.92441C7.03703 6.57812 7.31889 6.29626 7.66555 6.29626C7.77481 6.29626 7.88333 6.32515 7.97888 6.38071L13.5718 9.60997C13.7685 9.72367 13.8859 9.92664 13.8859 10.154C13.8859 10.3814 13.7685 10.5844 13.5718 10.6981L7.97888 13.9274C7.88333 13.9822 7.77481 14.0111 7.66555 14.0111ZM7.77777 7.11997V13.1877L13.0322 10.154L7.77777 7.11997Z" fill="white"/>
</svg>
