<svg id="Capa_1" data-name="Capa 1" xmlns="http://www.w3.org/2000/svg" viewBox="0 0 201.51 201.51"><defs><style>.cls-1{fill:#236852;}.cls-2{fill:#dba510;}</style></defs><title>web</title><path class="cls-1" d="M100.75,0A100.76,100.76,0,1,0,201.51,100.75,100.87,100.87,0,0,0,100.75,0Zm0,194.56a93.81,93.81,0,1,1,93.81-93.81A93.91,93.91,0,0,1,100.75,194.56Z" transform="translate(0 0)"/><path class="cls-1" d="M201.17,93.69a99.4,99.4,0,0,0-12.72-42.4l-1-1.74H74.32A26.5,26.5,0,0,0,47.85,76V97.34H201.43ZM54.67,90.51V76A19.67,19.67,0,0,1,74.32,56.38H183.46A92.59,92.59,0,0,1,194,90.51Z" transform="translate(0 0)"/><path class="cls-1" d="M73.45,63.21A11.95,11.95,0,1,0,85.39,75.15,12,12,0,0,0,73.45,63.21Zm0,17.06a5.12,5.12,0,1,1,5.12-5.12A5.12,5.12,0,0,1,73.45,80.27Z" transform="translate(0 0)"/><path class="cls-1" d="M100.75,63.21a11.95,11.95,0,1,0,12,11.94A12,12,0,0,0,100.75,63.21Zm0,17.06a5.12,5.12,0,1,1,5.12-5.12A5.12,5.12,0,0,1,100.75,80.27Z" transform="translate(0 0)"/><path class="cls-1" d="M128.06,63.15a12,12,0,1,0,12,12A12,12,0,0,0,128.06,63.15Zm0,17.06a5.06,5.06,0,1,1,5.06-5.06A5.07,5.07,0,0,1,128.06,80.21Z" transform="translate(0 0)"/><path class="cls-1" d="M201.17,93.69,201,90.51H47.85v95.93l1.67,1a100.68,100.68,0,0,0,151.93-86.68C201.45,98.62,201.36,96.37,201.17,93.69ZM100.75,194.62a93.83,93.83,0,0,1-46.08-12.09V97.34H194.54c.05,1.21.08,2.33.08,3.41A94,94,0,0,1,100.75,194.62Z" transform="translate(0 0)"/><path class="cls-2" d="M99.05,111a23.9,23.9,0,1,0,23.89,23.9A23.93,23.93,0,0,0,99.05,111Zm0,41a17.07,17.07,0,1,1,17.06-17.06A17.08,17.08,0,0,1,99.05,152Z" transform="translate(0 0)"/><path class="cls-2" d="M139,170l-22.19-22.19a3.42,3.42,0,0,0-4.83,4.83l22.19,22.19A3.42,3.42,0,0,0,139,170Z" transform="translate(0 0)"/></svg>