<!-- Generated by IcoMoon.io -->
<svg version="1.1" xmlns="http://www.w3.org/2000/svg" width="32" height="32" viewBox="0 0 32 32">
<title>account</title>
<path d="M32 16c0-8.843-7.156-16-16-16s-16 7.156-16 16c0 8.765 7.096 16 16 16 8.867 0 16-7.195 16-16zM16 1.875c7.789 0 14.125 6.336 14.125 14.125 0 2.849-0.847 5.588-2.419 7.907-6.311-6.788-17.090-6.8-23.412 0-1.572-2.32-2.419-5.058-2.419-7.907 0-7.789 6.336-14.125 14.125-14.125zM5.463 25.406c5.611-6.293 15.464-6.292 21.073 0-5.63 6.298-15.441 6.3-21.073 0z"></path>
<path d="M16 16.938c3.102 0 5.625-2.523 5.625-5.625v-1.875c0-3.102-2.523-5.625-5.625-5.625s-5.625 2.523-5.625 5.625v1.875c0 3.102 2.523 5.625 5.625 5.625zM12.25 9.438c0-2.068 1.682-3.75 3.75-3.75s3.75 1.682 3.75 3.75v1.875c0 2.068-1.682 3.75-3.75 3.75s-3.75-1.682-3.75-3.75v-1.875z"></path>
</svg>
