<!-- Generated by IcoMoon.io -->
<svg version="1.1" xmlns="http://www.w3.org/2000/svg" width="32" height="32" viewBox="0 0 32 32">
<title>address1</title>
<path d="M12.781 28.725v3.241l-0.784-0.633c-0.121-0.098-3.002-2.437-5.924-5.791-4.030-4.627-6.074-8.781-6.074-12.345v-0.353c0-7.048 5.734-12.781 12.781-12.781s12.781 5.734 12.781 12.781v0.353c0 0.299-0.016 0.603-0.045 0.911l-2.5-2.28c-0.512-5.197-4.907-9.271-10.237-9.271-5.672 0-10.287 4.615-10.287 10.287v0.353c0 6.023 7.76 13.314 10.287 15.528zM20.45 26.934h3.741v-3.741h-3.741zM12.781 7.544c2.922 0 5.3 2.377 5.3 5.3s-2.377 5.3-5.3 5.3-5.3-2.377-5.3-5.3 2.377-5.3 5.3-5.3zM12.781 10.038c-1.547 0-2.806 1.259-2.806 2.806s1.259 2.806 2.806 2.806c1.547 0 2.806-1.259 2.806-2.806s-1.259-2.806-2.806-2.806zM30.319 25.239l-0.701-0.64v4.004c0 1.864-1.517 3.381-3.381 3.381h-7.896c-1.864 0-3.381-1.517-3.381-3.381v-4.004l-0.701 0.64-1.681-1.842 9.711-8.859 9.711 8.859zM27.124 22.325l-4.835-4.411-4.835 4.411v6.279c0 0.489 0.398 0.887 0.887 0.887h7.896c0.489 0 0.887-0.398 0.887-0.887z"></path>
</svg>
