<!-- Generated by IcoMoon.io -->
<svg version="1.1" xmlns="http://www.w3.org/2000/svg" width="29" height="32" viewBox="0 0 29 32">
<title>bao-hiem</title>
<path d="M22.329 15.783c-0.051 4.668-1.746 8.525-4.841 11.793-1.727 1.823-3.735 3.262-6.050 4.253-0.153 0.064-0.384 0.077-0.531 0.006-5.346-2.494-8.979-6.472-10.475-12.253-0.441-1.707-0.512-3.447-0.358-5.206 0.019-0.23 0.096-0.352 0.352-0.333 3.364 0.237 6.101-1.151 8.544-3.3 0.774-0.678 1.452-1.439 1.957-2.347 0.141-0.249 0.313-0.237 0.473 0.006 2.117 3.166 5.039 5.071 8.813 5.621 0.531 0.077 1.087 0.032 1.624 0.013 0.269-0.006 0.396 0.064 0.403 0.345 0.032 0.518 0.070 1.030 0.090 1.401zM20.717 16.627c0-0.141 0-0.275 0-0.416 0.013-0.473-0.051-0.512-0.512-0.576-0.671-0.096-1.356-0.179-2.008-0.358-2.609-0.723-4.803-2.142-6.683-4.074-0.32-0.333-0.371-0.326-0.691-0.013-0.39 0.377-0.767 0.767-1.19 1.119-2.226 1.855-4.713 3.114-7.655 3.345-0.281 0.019-0.384 0.173-0.371 0.448 0.032 1.151 0.153 2.296 0.46 3.409 1.343 4.822 4.387 8.23 8.755 10.539 0.243 0.128 0.448 0.122 0.684-0.006 5.378-2.897 8.627-7.233 9.209-13.417z"></path>
<path d="M17.366 7.124c-0.863 0-1.727 0.006-2.59 0-1.369-0.013-2.488-1.074-2.552-2.411-0.064-1.407 0.915-2.558 2.309-2.686 0.256-0.026 0.358-0.115 0.441-0.352 0.352-1.010 1.311-1.669 2.379-1.676 1.087-0.006 2.053 0.652 2.405 1.676 0.090 0.269 0.23 0.326 0.473 0.352 1.362 0.134 2.328 1.279 2.277 2.692-0.051 1.298-1.157 2.379-2.488 2.405-0.883 0.013-1.771 0-2.654 0zM18.965 2.603c-0.006-0.876-0.748-1.605-1.618-1.586s-1.567 0.735-1.567 1.605c0 0.889 0.716 1.599 1.599 1.599 0.876-0.006 1.592-0.735 1.586-1.618z"></path>
<path d="M23.147 5.73c0.051-0.275 0.090-0.524 0.154-0.767 0.019-0.064 0.122-0.147 0.185-0.147 0.908-0.006 1.81-0.026 2.718 0.006 0.576 0.019 0.902 0.428 0.902 1.030 0 3.082 0 6.159 0 9.241 0 4.975 0 9.951 0 14.933 0 0.831-0.326 1.164-1.158 1.164-3.901 0-7.802 0-11.716-0.032 0.633-0.333 1.081-0.934 1.951-0.915 3.070 0.058 6.139 0.019 9.209 0.019 0.62 0 0.78-0.16 0.78-0.767 0-7.661 0-15.323 0-22.984 0-0.601-0.173-0.774-0.78-0.774-0.748-0.006-1.49-0.006-2.245-0.006z"></path>
<path d="M23.301 3.997c-0.096-0.307-0.192-0.601-0.288-0.914 0.109-0.006 0.198-0.013 0.288-0.013 1.458 0 2.923 0 4.381 0 0.729 0 1.087 0.358 1.087 1.068 0 8.090 0 16.173 0 24.263 0 0.608-0.275 0.934-0.902 1.036-0.006-0.134-0.019-0.269-0.019-0.396 0-8.026 0-16.045 0-24.071 0-0.083 0-0.173 0-0.256-0.006-0.524-0.192-0.716-0.71-0.716-1.164 0-2.321 0-3.485 0-0.115 0-0.23 0-0.352 0z"></path>
<path d="M11.4 4.822c0.064 0.307 0.128 0.595 0.192 0.908-0.767 0-1.528 0-2.283 0-0.582 0-0.755 0.179-0.755 0.767 0 1.138-0.006 2.277 0.006 3.421 0 0.249-0.070 0.422-0.269 0.563-0.211 0.153-0.409 0.326-0.671 0.544 0-0.179 0-0.281 0-0.384 0-1.573 0-3.153 0-4.726 0-0.735 0.358-1.1 1.1-1.106 0.799-0.006 1.599 0 2.398 0 0.096-0.006 0.192 0.006 0.281 0.013z"></path>
<path d="M12.87 9.254c0.134 0 0.237 0 0.339 0 3.594 0 7.182 0 10.776 0 0.096 0 0.217-0.032 0.281 0.013 0.096 0.064 0.211 0.185 0.217 0.288 0.006 0.083-0.122 0.205-0.217 0.256-0.083 0.045-0.211 0.019-0.313 0.019-3.345 0-6.689-0.013-10.040 0.013-0.473 0.006-0.793-0.128-1.042-0.588z"></path>
<path d="M17.347 12.502c0.090 0 0.185 0 0.275 0 2.13 0 4.259 0 6.389 0 0.083 0 0.192-0.026 0.249 0.013 0.096 0.058 0.224 0.173 0.217 0.249-0.006 0.109-0.115 0.224-0.217 0.294-0.064 0.045-0.185 0.013-0.281 0.013-1.535 0-3.070 0-4.598 0-0.755 0.006-1.324-0.141-2.034-0.569z"></path>
<path d="M19.732 26.022c0.166-0.416 0.377-0.614 0.838-0.595 1.113 0.045 2.232 0.013 3.351 0.013 0.096 0 0.217-0.026 0.281 0.026 0.090 0.064 0.198 0.192 0.198 0.281-0.006 0.090-0.128 0.205-0.224 0.256-0.083 0.045-0.211 0.019-0.313 0.019-1.253 0-2.507 0-3.767 0-0.122 0-0.23 0-0.365 0z"></path>
<path d="M11.438 3.984c-0.703 0-1.401 0-2.098 0-0.019-0.512 0.345-0.883 0.883-0.914 0.083-0.006 0.173 0 0.256 0 0.403 0 0.806 0 1.253 0-0.102 0.32-0.198 0.614-0.294 0.914z"></path>
<path d="M21.574 22.799c0.153-0.595 0.153-0.595 0.684-0.595 0.576 0 1.145 0 1.72 0 0.217 0 0.435 0.032 0.422 0.307-0.006 0.249-0.205 0.288-0.416 0.288-0.793 0-1.586 0-2.411 0z"></path>
<path d="M22.617 19.543c0.038-0.205 0.070-0.377 0.102-0.569 0.473 0 0.927-0.019 1.381 0.013 0.109 0.006 0.205 0.185 0.307 0.281-0.102 0.090-0.192 0.256-0.301 0.262-0.48 0.032-0.972 0.013-1.49 0.013z"></path>
<path d="M23 16.308c0-0.192 0-0.358 0-0.569 0.39 0 0.78-0.019 1.164 0.013 0.090 0.006 0.23 0.179 0.23 0.281 0 0.096-0.147 0.262-0.237 0.269-0.384 0.026-0.761 0.006-1.158 0.006z"></path>
<path d="M15.582 18.751c0 1.183 0 2.341 0 3.537-0.883 0-1.752 0-2.654 0 0 0.908 0 1.771 0 2.654-1.183 0-2.334 0-3.517 0 0-0.883 0-1.752 0-2.654-0.908 0-1.771 0-2.66 0 0-1.183 0-2.328 0-3.524 0.87 0 1.752 0 2.654 0 0-0.908 0-1.765 0-2.648 1.177 0 2.321 0 3.517 0 0 0.173 0 0.352 0 0.524 0 0.608 0.006 1.215-0.006 1.823-0.006 0.224 0.070 0.301 0.294 0.294 0.659-0.013 1.324-0.006 1.982-0.006 0.128 0 0.256 0 0.39 0z"></path>
</svg>
