<!-- Generated by IcoMoon.io -->
<svg version="1.1" xmlns="http://www.w3.org/2000/svg" width="32" height="32" viewBox="0 0 32 32">
<title>buy</title>
<path d="M27.692 23.692c-0.912 0-1.765-0.449-2.282-1.2l-1.355-1.971c-1.596 2.862-4.631 4.71-8.055 4.71-4.778 0-8.72-3.65-9.185-8.308h0.877c0.343 0 0.657-0.19 0.817-0.493s0.138-0.67-0.056-0.953l-3.385-4.923c-0.172-0.25-0.457-0.4-0.761-0.4-0.038 0-0.076 0.002-0.113 0.007s-0.074 0.011-0.11 0.020c-0.090 0.022-0.176 0.058-0.255 0.106-0.111 0.067-0.207 0.157-0.283 0.267l-3.385 4.923c-0.194 0.282-0.216 0.649-0.056 0.953s0.474 0.493 0.817 0.493h0.953c0.22 3.433 1.662 6.631 4.116 9.085 2.673 2.673 6.228 4.145 10.008 4.145s7.335-1.472 10.008-4.145c0.711-0.711 1.34-1.49 1.88-2.324-0.065 0.004-0.131 0.007-0.196 0.007z"></path>
<path d="M16.703 15.077h-1.407c-0.267 0-0.483-0.217-0.483-0.483v-0.703c0-0.267 0.217-0.483 0.483-0.483h1.407c0.267 0 0.483 0.217 0.483 0.483 0 0.51 0.413 0.923 0.923 0.923s0.923-0.413 0.923-0.923c0-1.21-0.928-2.208-2.11-2.319v-0.494c0-0.51-0.413-0.923-0.923-0.923s-0.923 0.413-0.923 0.923v0.494c-1.182 0.111-2.11 1.109-2.11 2.319v0.703c0 1.285 1.045 2.33 2.33 2.33h1.407c0.267 0 0.483 0.217 0.483 0.483v0.703c0 0.267-0.217 0.483-0.483 0.483h-1.407c-0.267 0-0.483-0.217-0.483-0.483 0-0.51-0.413-0.923-0.923-0.923s-0.923 0.413-0.923 0.923c0 1.21 0.928 2.208 2.11 2.319v0.494c0 0.51 0.413 0.923 0.923 0.923s0.923-0.413 0.923-0.923v-0.494c1.182-0.111 2.11-1.109 2.11-2.319v-0.703c-0-1.285-1.045-2.33-2.33-2.33z"></path>
<path d="M31.894 15.57c-0.16-0.303-0.474-0.493-0.817-0.493h-0.953c-0.22-3.433-1.662-6.631-4.116-9.085-2.673-2.673-6.228-4.146-10.008-4.146s-7.335 1.472-10.008 4.146c-0.711 0.711-1.34 1.49-1.88 2.324 0.065-0.005 0.13-0.008 0.196-0.008 0.912 0 1.765 0.449 2.282 1.2l1.355 1.971c1.596-2.862 4.631-4.71 8.055-4.71 4.778 0 8.72 3.65 9.185 8.308h-0.877c-0.343 0-0.657 0.19-0.817 0.493s-0.138 0.67 0.056 0.953l3.385 4.923c0.043 0.063 0.093 0.119 0.149 0.168 0.167 0.148 0.384 0.232 0.612 0.232 0.304 0 0.589-0.15 0.761-0.4l3.385-4.923c0.194-0.283 0.216-0.649 0.056-0.953z"></path>
</svg>
