<!-- Generated by IcoMoon.io -->
<svg version="1.1" xmlns="http://www.w3.org/2000/svg" width="32" height="32" viewBox="0 0 32 32">
<title>co-hoi</title>
<path d="M28.903 22.234v-13.976h-1.264l-4.129 4.645h-3.897v-2.109l3.331-0.302c1.325-0.12 2.324-1.206 2.344-2.532l2.584-2.584 1.828 1.828 1.462-5.848-5.848 1.462 1.828 1.828-1.85 1.85v-4.727c0-0.975-0.793-1.769-1.801-1.769-0.485 0-0.94 0.187-1.282 0.526-0.343 0.341-0.532 0.794-0.531 1.277v4.951l-2.966 0.271c0.559-0.636 0.902-1.468 0.902-2.38 0-1.992-1.621-3.613-3.613-3.613s-3.613 1.621-3.613 3.613c0 1.056 0.459 2.006 1.184 2.667-2.141 0.413-3.765 2.299-3.765 4.559v0.819l-8.623 8.623 0.73 0.73 7.893-7.893v1.335c0 0.525 0.159 1.013 0.43 1.421l-4.676 4.676c-3.172 0.662-5.56 1.702-5.56 3.193v3.097c0 2.711 8.049 4.129 16 4.129s16-1.418 16-4.129v-3.097c0-1.070-1.231-1.907-3.097-2.54zM29.742 2.774l-0.602 2.41-1.808-1.808 2.41-0.602zM10.966 17.635c0.408 0.27 0.896 0.43 1.421 0.43v2.679c-0.682 0.038-1.374 0.089-2.065 0.152v-2.618l0.644-0.643zM12.387 21.781v1.979l-2.461-1.79c0.771-0.077 1.594-0.141 2.461-0.189zM14.452 26.839c0.619 0 1.17-0.28 1.548-0.713 0.379 0.434 0.929 0.713 1.548 0.713 0.959 0 1.761-0.66 1.991-1.548h11.152c-1.239 1.209-6.603 2.581-14.692 2.581-2.010 0-3.852-0.085-5.505-0.231l2.131-1.922c0.344 0.662 1.029 1.12 1.825 1.12zM30.66 24.258h-11.047v-2.477c6.231 0.351 10.006 1.515 11.047 2.477zM27.871 9.551v12.37c-0.643-0.174-1.336-0.33-2.064-0.467v-9.58l2.064-2.323zM23.974 13.935l0.8-0.901v8.242c-0.672-0.106-1.365-0.198-2.064-0.276v-7.065h1.264zM21.677 13.935v6.961c-0.691-0.064-1.382-0.115-2.064-0.152v-6.808h2.064zM14.968 8.258l1.003-0.001c0.010 0 0.019 0.002 0.029 0.002s0.020-0.002 0.030-0.002l0.533-0.001 0.469-0.043v0.045c0 0.569-0.463 1.032-1.032 1.032s-1.032-0.463-1.032-1.033zM13.419 4.645c0-1.423 1.158-2.581 2.581-2.581s2.581 1.158 2.581 2.581c0 1.423-1.158 2.581-2.581 2.581s-2.581-1.158-2.581-2.581zM10.839 11.871c0-1.818 1.351-3.322 3.101-3.572 0.022 1.119 0.936 2.024 2.060 2.024 1.139 0 2.064-0.926 2.064-2.064v-0.138l4.645-0.422v-5.893c0-0.206 0.081-0.4 0.226-0.545 0.147-0.147 0.344-0.227 0.587-0.227 0.406 0 0.736 0.33 0.736 0.737v6.152c0 0.806-0.605 1.469-1.409 1.542l-4.269 0.389v14.923c0 0.569-0.463 1.032-1.032 1.032s-1.032-0.463-1.032-1.032v-9.806h-1.032v9.806c0 0.569-0.463 1.032-1.032 1.032s-1.032-0.463-1.032-1.032v-14.452h-1.032v6.71c-0.854 0-1.548-0.695-1.548-1.548v-3.613zM9.29 19.31v1.691c-0.66 0.074-1.313 0.16-1.949 0.258l1.949-1.949zM8.415 22.148l3.669 2.669-2.974 2.682c-5.121-0.596-8.078-1.793-8.078-2.725 0-0.808 2.55-1.979 7.383-2.626zM1.032 27.871v-1.533c1.457 1.018 4.324 1.741 7.742 2.154v2.062c-4.912-0.608-7.742-1.772-7.742-2.683zM16 30.968c-2.295 0-4.369-0.11-6.194-0.296v-2.066c1.971 0.197 4.085 0.298 6.194 0.298 6.246 0 12.55-0.876 14.968-2.565v1.533c0 1.293-5.694 3.097-14.968 3.097z"></path>
</svg>
