<!-- Generated by IcoMoon.io -->
<svg version="1.1" xmlns="http://www.w3.org/2000/svg" width="32" height="32" viewBox="0 0 32 32">
<title>commitment</title>
<path d="M10.58 16.937h11.25c0.518 0 0.938-0.419 0.938-0.937v-11.313c0-0.518-0.419-0.938-0.938-0.938h-2.813v-0.938c0-1.551-1.262-2.813-2.813-2.813s-2.813 1.262-2.813 2.813v0.938h-2.813c-0.518 0-0.937 0.419-0.937 0.938v11.313c0 0.518 0.419 0.937 0.937 0.937zM15.268 2.813c0-0.517 0.421-0.938 0.938-0.938s0.938 0.42 0.938 0.938v0.938h-1.875v-0.938z"></path>
<path d="M29.863 15.515c-0.168-0.28-0.474-0.452-0.802-0.452-1.652 0-3.167 0.917-3.934 2.38l-2.876 5.488c-0.489 0.93-1.443 1.507-2.492 1.507h-6.367c-0.518 0-0.938-0.419-0.938-0.938s0.419-0.938 0.938-0.938h6.367c0.35 0 0.668-0.192 0.831-0.503s0.653-1.246 1.075-2.051c0.133-0.253 0.123-0.558-0.025-0.803s-0.414-0.393-0.7-0.393h-9.745c-1.252 0-2.428 0.488-3.314 1.373l-5.544 5.544c-0.366 0.366-0.366 0.959 0 1.326l4.687 4.669c0.183 0.183 0.423 0.275 0.663 0.275s0.48-0.092 0.663-0.275l3.556-3.538h7.853c2.448 0 4.677-1.348 5.814-3.517l4.318-8.235c0.154-0.29 0.143-0.64-0.027-0.921v0z"></path>
</svg>
