<!-- Generated by IcoMoon.io -->
<svg version="1.1" xmlns="http://www.w3.org/2000/svg" width="32" height="32" viewBox="0 0 32 32">
<title>dao-tao</title>
<path d="M29.137 25.597l-1.292-0.452c0.723-0.578 1.188-1.47 1.188-2.471v-0.955c0-1.738-1.402-3.151-3.124-3.151s-3.124 1.414-3.124 3.151v0.955c0 1 0.465 1.893 1.189 2.471l-1.292 0.452c-0.668 0.234-1.256 0.623-1.728 1.139-0.464-0.506-1.051-0.902-1.726-1.139l-1.292-0.452c0.723-0.578 1.188-1.47 1.188-2.471v-0.955c0-1.738-1.402-3.151-3.124-3.151s-3.124 1.414-3.124 3.151v0.955c0 1 0.465 1.893 1.188 2.471l-1.292 0.452c-0.675 0.236-1.262 0.633-1.726 1.139-0.472-0.516-1.059-0.905-1.728-1.139l-1.292-0.452c0.723-0.578 1.188-1.47 1.188-2.471v-0.955c0-1.738-1.401-3.151-3.124-3.151s-3.124 1.414-3.124 3.151v0.955c0 1 0.465 1.893 1.188 2.471l-1.292 0.452c-1.712 0.6-2.863 2.231-2.863 4.059v1.867c0 0.264 0.212 0.477 0.473 0.477h15.083c0.261 0 0.473-0.214 0.473-0.477s-0.212-0.477-0.473-0.477h-4.7v-1.389c0-1.422 0.895-2.691 2.227-3.157l1.924-0.674h1.986l1.924 0.674c1.332 0.467 2.227 1.735 2.227 3.157v1.389h-3.377c-0.261 0-0.473 0.214-0.473 0.477s0.212 0.477 0.473 0.477h13.76c0.261 0 0.473-0.214 0.473-0.477v-1.867c0-1.828-1.151-3.46-2.863-4.059zM3.913 21.719c0-1.211 0.977-2.196 2.178-2.196s2.177 0.985 2.177 2.196v0.955c0 1.211-0.977 2.196-2.177 2.196s-2.178-0.985-2.178-2.196v-0.955zM0.947 31.045v-1.389c0-1.422 0.895-2.691 2.227-3.157l1.924-0.674h1.986l1.924 0.674c0.578 0.202 1.079 0.554 1.464 1.025-0.361 0.636-0.563 1.366-0.563 2.132v1.389h-8.962zM13.822 21.719c0-1.211 0.977-2.196 2.178-2.196s2.178 0.985 2.178 2.196v0.955c0 1.211-0.977 2.196-2.178 2.196s-2.178-0.985-2.178-2.196v-0.955zM23.732 21.719c0-1.211 0.977-2.196 2.178-2.196s2.177 0.985 2.177 2.196v0.955c0 1.211-0.977 2.196-2.177 2.196s-2.178-0.985-2.178-2.196v-0.955zM31.053 31.045h-8.962v-1.389c0-0.766-0.203-1.497-0.563-2.132 0.385-0.471 0.886-0.822 1.464-1.025l1.924-0.674h1.986l1.924 0.674c1.332 0.466 2.227 1.735 2.227 3.157v1.389z"></path>
<path d="M0.476 16.593h2.432c0.263 0 0.476-0.217 0.476-0.484s-0.213-0.484-0.476-0.484h-1.956v-1.905c0-1.853 1.468-3.362 3.283-3.389 0.526 0.404 1.18 0.644 1.889 0.644s1.363-0.24 1.889-0.644c1.815 0.027 3.283 1.536 3.283 3.389v1.905h-6.15c-0.263 0-0.476 0.217-0.476 0.484s0.213 0.484 0.476 0.484h6.626c0.263 0 0.476-0.217 0.476-0.484v-2.389c0-2.111-1.483-3.877-3.444-4.275 0.293-0.486 0.462-1.056 0.462-1.667v-1.421c0-1.763-1.409-3.197-3.141-3.197s-3.141 1.434-3.141 3.197v1.421c0 0.61 0.169 1.181 0.462 1.667-1.961 0.398-3.444 2.163-3.444 4.275v2.389c0 0.268 0.213 0.484 0.476 0.484zM3.934 6.357c0-1.229 0.982-2.228 2.189-2.228s2.189 0.999 2.189 2.228v1.421c0 1.228-0.982 2.228-2.189 2.228s-2.189-0.999-2.189-2.228v-1.421z"></path>
<path d="M31.531 0h-13.046c-0.259 0-0.469 0.213-0.469 0.477s0.21 0.477 0.469 0.477h12.577v12.524h-16.692v-12.524h1.938c0.259 0 0.469-0.213 0.469-0.477s-0.21-0.477-0.469-0.477h-2.407c-0.259 0-0.469 0.213-0.469 0.477v15.639c0 0.263 0.21 0.477 0.469 0.477h17.63c0.259 0 0.469-0.213 0.469-0.477v-15.639c0-0.263-0.21-0.477-0.469-0.477v0zM14.37 15.639v-1.208h16.692v1.208h-16.692z"></path>
<path d="M23.008 3.556h6.133c0.27 0 0.489-0.177 0.489-0.395s-0.219-0.395-0.489-0.395h-6.133c-0.27 0-0.489 0.177-0.489 0.395s0.219 0.395 0.489 0.395z"></path>
<path d="M23.008 7.111h6.133c0.27 0 0.489-0.265 0.489-0.593s-0.219-0.593-0.489-0.593h-6.133c-0.27 0-0.489 0.266-0.489 0.593s0.219 0.593 0.489 0.593z"></path>
<path d="M15.802 9.679c0 0.327 0.212 0.593 0.474 0.593h12.88c0.262 0 0.474-0.266 0.474-0.593s-0.212-0.593-0.474-0.593h-12.88c-0.262 0-0.474 0.265-0.474 0.593z"></path>
<path d="M18.37 1.975c-1.634 0-2.963 1.329-2.963 2.963s1.329 2.963 2.963 2.963c1.634 0 2.963-1.329 2.963-2.963s-1.329-2.963-2.963-2.963zM18.37 6.966c-1.118 0-2.027-0.909-2.027-2.027s0.909-2.028 2.027-2.028 2.027 0.909 2.027 2.028c0 1.118-0.909 2.027-2.027 2.027z"></path>
</svg>
