<!-- Generated by IcoMoon.io -->
<svg version="1.1" xmlns="http://www.w3.org/2000/svg" width="32" height="32" viewBox="0 0 32 32">
<title>delete</title>
<path d="M22.098 11.033l-2.505-0.092-0.543 14.83 2.505 0.092 0.543-14.83z"></path>
<path d="M17.253 10.987h-2.506v14.83h2.506v-14.83z"></path>
<path d="M12.949 25.771l-0.543-14.83-2.505 0.092 0.543 14.83 2.505-0.092z"></path>
<path d="M1.086 4.804v2.506h2.612l2.072 23.546c0.057 0.647 0.599 1.143 1.248 1.143h17.921c0.65 0 1.192-0.497 1.248-1.144l2.072-23.546h2.654v-2.506h-29.828zM23.792 29.493h-15.626l-1.952-22.183h19.53l-1.952 22.183z"></path>
<path d="M20.094 0h-8.188c-1.152 0-2.089 0.937-2.089 2.089v3.969h2.506v-3.551h7.353v3.551h2.506v-3.969c0-1.152-0.937-2.089-2.089-2.089z"></path>
</svg>
