<!-- Generated by IcoMoon.io -->
<svg version="1.1" xmlns="http://www.w3.org/2000/svg" width="32" height="32" viewBox="0 0 32 32">
<title>edit</title>
<path d="M31.082 19.478c-0.463 0-0.839 0.375-0.839 0.839v7.447c-0.002 1.389-1.127 2.514-2.516 2.516h-23.534c-1.389-0.002-2.515-1.127-2.516-2.516v-21.856c0.002-1.389 1.127-2.515 2.516-2.516h7.447c0.463 0 0.839-0.375 0.839-0.839s-0.375-0.839-0.839-0.839h-7.447c-2.315 0.003-4.191 1.879-4.194 4.194v21.856c0.003 2.315 1.879 4.191 4.194 4.194h23.534c2.315-0.003 4.191-1.879 4.194-4.194v-7.447c0-0.463-0.375-0.839-0.839-0.839z"></path>
<path d="M13.115 15.064l12.246-12.247 3.95 3.95-12.246 12.247-3.95-3.95z"></path>
<path d="M11.117 21.012l4.365-1.209-3.156-3.156-1.209 4.365z"></path>
<path d="M30.402 0.742c-0.819-0.817-2.146-0.817-2.965 0l-0.889 0.889 3.95 3.95 0.889-0.889c0.818-0.819 0.818-2.146 0-2.965l-0.984-0.984z"></path>
</svg>
