<!-- Generated by IcoMoon.io -->
<svg version="1.1" xmlns="http://www.w3.org/2000/svg" width="32" height="32" viewBox="0 0 32 32">
<title>exclamation-mark</title>
<path d="M16 0c-8.836 0-16 7.164-16 16s7.164 16 16 16c8.837 0 16-7.162 16-16 0-8.836-7.163-16-16-16zM16 29c-7.18 0-13-5.82-13-13s5.82-13 13-13c7.18 0 13 5.82 13 13s-5.82 13-13 13zM16.001 7.017c-1.146 0-2.013 0.598-2.013 1.564v8.86c0 0.967 0.867 1.563 2.013 1.563 1.118 0 2.013-0.621 2.013-1.563v-8.86c0-0.943-0.895-1.564-2.013-1.564zM16.001 21c-1.101 0-1.997 0.896-1.997 1.998 0 1.1 0.896 1.996 1.997 1.996s1.996-0.896 1.996-1.996c0-1.102-0.895-1.998-1.996-1.998z"></path>
</svg>
