<!-- Generated by IcoMoon.io -->
<svg version="1.1" xmlns="http://www.w3.org/2000/svg" width="32" height="32" viewBox="0 0 32 32">
<title>fast</title>
<path d="M17.44 31.040c4.64-1.76 7.040-6.4 6.080-11.52 4.96-4.96 8.32-11.84 8.48-18.72 0-0.48-0.32-0.8-0.8-0.8-6.88 0.16-13.76 3.52-18.72 8.32-4.96-0.8-9.76 1.44-11.52 6.080 2.080-0.8 4.48-0.96 6.88-0.32-0.48 0.8-0.96 1.6-1.28 2.4-0.16 0.32-0.16 0.64 0.16 0.96l8 8c0.16 0.16 0.48 0.16 0.8 0 0.8-0.32 1.6-0.8 2.24-1.28 0.64 2.4 0.48 4.8-0.32 6.88zM18.56 13.44c-1.28-1.28-1.28-3.2 0-4.48s3.2-1.28 4.48 0c1.28 1.28 1.28 3.2 0 4.48s-3.2 1.28-4.48 0z"></path>
<path d="M8.96 31.52l3.36-3.36c0.64-0.64 0.64-1.6 0-2.24s-1.6-0.64-2.24 0l-3.36 3.36c-0.64 0.64-0.64 1.6 0 2.24s1.6 0.64 2.24 0z"></path>
<path d="M2.72 25.28l3.36-3.36c0.64-0.64 0.64-1.6 0-2.24s-1.6-0.64-2.24 0l-3.36 3.36c-0.64 0.64-0.64 1.6 0 2.24s1.6 0.64 2.24 0z"></path>
<path d="M4.48 29.6l4.64-4.64c0.64-0.64 0.64-1.6 0-2.24s-1.6-0.64-2.24 0l-4.64 4.64c-0.64 0.64-0.64 1.6 0 2.24s1.6 0.64 2.24 0z"></path>
</svg>
