<!-- Generated by IcoMoon.io -->
<svg version="1.1" xmlns="http://www.w3.org/2000/svg" width="32" height="32" viewBox="0 0 32 32">
<title>free-delivery</title>
<path d="M11.333 12h-0.667v1.333h0.667c0.367 0 0.667-0.299 0.667-0.667s-0.3-0.667-0.667-0.667z"></path>
<path d="M31.805 13.529l-6.667-6.667c-0.125-0.125-0.294-0.195-0.471-0.195h-6v-2c0-0.369-0.298-0.667-0.667-0.667h-15.333c-1.47 0-2.667 1.196-2.667 2.667v16.667c0 1.103 0.897 2 2 2h1.579c0.552 1.549 2.018 2.667 3.754 2.667s3.202-1.118 3.754-2.667h9.825c0.552 1.549 2.018 2.667 3.754 2.667s3.202-1.118 3.754-2.667h0.912c1.47 0 2.667-1.196 2.667-2.667v-8.667c0-0.177-0.070-0.346-0.195-0.471zM4 16.667v-5.333c0-0.368 0.298-0.667 0.667-0.667h2.667c0.369 0 0.667 0.298 0.667 0.667s-0.298 0.667-0.667 0.667h-2v1.333h1.333c0.369 0 0.667 0.298 0.667 0.667s-0.298 0.667-0.667 0.667h-1.333v2c0 0.369-0.298 0.667-0.667 0.667s-0.667-0.298-0.667-0.667zM7.333 26.667c-1.47 0-2.667-1.196-2.667-2.667s1.197-2.667 2.667-2.667c1.47 0 2.667 1.196 2.667 2.667s-1.197 2.667-2.667 2.667zM13.333 15.333v1.333c0 0.369-0.298 0.667-0.667 0.667s-0.667-0.298-0.667-0.667v-1.333c0-0.368-0.3-0.667-0.667-0.667h-0.667v2c0 0.369-0.298 0.667-0.667 0.667s-0.667-0.298-0.667-0.667v-5.333c0-0.368 0.298-0.667 0.667-0.667h1.333c1.103 0 2 0.897 2 2 0 0.512-0.193 0.979-0.51 1.333 0.318 0.354 0.511 0.822 0.511 1.333zM17.333 13.333c0.369 0 0.667 0.298 0.667 0.667s-0.298 0.667-0.667 0.667h-1.333v1.333h2c0.369 0 0.667 0.298 0.667 0.667s-0.298 0.667-0.667 0.667h-2.667c-0.368 0-0.667-0.298-0.667-0.667v-5.333c0-0.368 0.298-0.667 0.667-0.667h2.667c0.369 0 0.667 0.298 0.667 0.667s-0.298 0.667-0.667 0.667h-2v1.333h1.333zM20.667 17.333c-0.369 0-0.667-0.298-0.667-0.667v-5.333c0-0.368 0.298-0.667 0.667-0.667h2.667c0.369 0 0.667 0.298 0.667 0.667s-0.298 0.667-0.667 0.667h-2v1.333h1.333c0.369 0 0.667 0.298 0.667 0.667s-0.298 0.667-0.667 0.667h-1.333v1.333h2c0.369 0 0.667 0.298 0.667 0.667s-0.298 0.667-0.667 0.667h-2.667zM24.667 26.667c-1.47 0-2.667-1.196-2.667-2.667s1.197-2.667 2.667-2.667c1.47 0 2.667 1.196 2.667 2.667s-1.197 2.667-2.667 2.667z"></path>
</svg>
