<!-- Generated by IcoMoon.io -->
<svg version="1.1" xmlns="http://www.w3.org/2000/svg" width="32" height="32" viewBox="0 0 32 32">
<title>home</title>
<path d="M31.373 14.338l-13.369-13.503c-1.105-1.113-2.902-1.114-4.009 0.001l-13.368 13.501c-0.836 0.844-0.836 2.213 0 3.057s2.191 0.845 3.027 0l1.812-1.831v14.132c0 1.272 1.021 2.303 2.281 2.303h4.873v-6.421c0-0.499 0.4-0.904 0.895-0.904h4.972c0.494 0 0.895 0.405 0.895 0.904v6.421h4.872c1.26 0 2.281-1.031 2.281-2.303v-14.131l1.811 1.829c0.418 0.422 0.966 0.633 1.514 0.633s1.095-0.211 1.514-0.633c0.836-0.844 0.836-2.213 0-3.057z"></path>
</svg>
