<!-- Generated by IcoMoon.io -->
<svg version="1.1" xmlns="http://www.w3.org/2000/svg" width="28" height="32" viewBox="0 0 28 32">
<title>iman</title>
<path d="M24.332 21.727c-3.42-1.304-5.464-2.64-5.464-2.64l-2.634 8.333-0.36 1.127-1.179-3.341c2.712-3.78-0.203-3.964-0.714-3.964h-0.026c-0.504 0.007-3.42 0.183-0.707 3.964l-1.179 3.341-0.36-1.127-2.634-8.333c0 0-2.044 1.337-5.464 2.64-3.767 1.369-3.531 4.468-3.61 10.272h27.955c-0.092-5.805 0.137-8.903-3.623-10.273z"></path>
<path d="M7.305 14.953c-0.341 0.727-0.917 1.631-1.841 2.083-0.301 0.151-0.236 0.603 0.098 0.655 1.009 0.157 2.457-0.020 3.806-1.042l0.020 0.013c3.426 2.024 7.914 1.559 10.862-1.382 3.498-3.498 3.498-9.165 0-12.657-3.498-3.498-9.159-3.498-12.657 0-3.367 3.367-3.492 8.739-0.38 12.258l0.092 0.072zM14.295 3.423c0.806 0.007 1.448 0.662 1.441 1.481-0.007 0.806-0.662 1.468-1.448 1.461-0.812-0.007-1.467-0.668-1.461-1.481 0.007-0.819 0.662-1.461 1.467-1.461zM11.459 7.341c0.020-0.157 0.118-0.262 0.328-0.301 0.111-0.020 0.223-0.026 0.334-0.026 0.445 0 0.898 0 1.343 0 0.472 0 0.95 0 1.422 0 0.341 0 0.544 0.164 0.55 0.504 0.007 0.282-0.039 0.57-0.092 0.852-0.184 1.042-0.38 2.083-0.57 3.125-0.066 0.347-0.131 0.688-0.177 1.035-0.020 0.164 0.007 0.341 0.046 0.505 0.052 0.216 0.216 0.341 0.439 0.314 0.184-0.020 0.367-0.085 0.544-0.151 0.144-0.052 0.269-0.151 0.413-0.21 0.21-0.085 0.387 0.066 0.334 0.282-0.033 0.124-0.111 0.255-0.203 0.347-0.531 0.537-1.166 0.858-1.926 0.865-0.354 0.007-0.714-0.007-1.061-0.059-0.583-0.085-1.323-0.806-1.219-1.579 0.072-0.524 0.151-1.055 0.242-1.572 0.157-0.911 0.321-1.821 0.478-2.732 0.013-0.059 0.013-0.118 0.013-0.177 0-0.38-0.118-0.518-0.498-0.57-0.164-0.020-0.328-0.033-0.478-0.092-0.197-0.066-0.275-0.216-0.262-0.36z"></path>
</svg>
