<!-- Generated by IcoMoon.io -->
<svg version="1.1" xmlns="http://www.w3.org/2000/svg" width="32" height="32" viewBox="0 0 32 32">
<title>information</title>
<path d="M16 25.219c0.863 0 1.563-0.7 1.563-1.563s-0.7-1.562-1.563-1.562-1.563 0.7-1.563 1.562c0 0.863 0.7 1.563 1.563 1.563z"></path>
<path d="M16 0c-8.843 0-16 7.156-16 16 0 8.843 7.156 16 16 16 8.843 0 16-7.156 16-16 0-8.843-7.156-16-16-16zM16 29.5c-7.461 0-13.5-6.038-13.5-13.5s6.038-13.5 13.5-13.5 13.5 6.038 13.5 13.5c0 7.461-6.038 13.5-13.5 13.5z"></path>
<path d="M16 8.031c-2.757 0-5 2.243-5 5 0 0.69 0.56 1.25 1.25 1.25s1.25-0.56 1.25-1.25c0-1.378 1.121-2.5 2.5-2.5s2.5 1.122 2.5 2.5c0 1.379-1.122 2.5-2.5 2.5-0.69 0-1.25 0.56-1.25 1.25v3.125c0 0.69 0.56 1.25 1.25 1.25s1.25-0.56 1.25-1.25v-2.033c2.154-0.556 3.75-2.516 3.75-4.842 0-2.757-2.243-5-5-5z"></path>
</svg>
