<!-- Generated by IcoMoon.io -->
<svg version="1.1" xmlns="http://www.w3.org/2000/svg" width="32" height="32" viewBox="0 0 32 32">
<title>information-button</title>
<path d="M15.999 0c-8.835 0-15.999 7.164-15.999 15.999s7.164 16.001 15.999 16.001c8.835 0 16.001-7.165 16.001-16.001s-7.165-15.999-16.001-15.999zM19.33 24.797c-0.823 0.325-1.479 0.572-1.971 0.742-0.49 0.171-1.061 0.256-1.709 0.256-0.997 0-1.773-0.244-2.326-0.73s-0.828-1.103-0.828-1.852c0-0.291 0.020-0.589 0.061-0.893 0.042-0.303 0.108-0.645 0.199-1.028l1.031-3.641c0.091-0.349 0.169-0.681 0.232-0.99 0.062-0.312 0.092-0.597 0.092-0.857 0-0.463-0.096-0.788-0.287-0.971-0.194-0.183-0.558-0.272-1.101-0.272-0.265 0-0.539 0.039-0.819 0.122-0.278 0.085-0.519 0.162-0.716 0.238l0.272-1.121c0.675-0.275 1.321-0.511 1.937-0.706 0.616-0.198 1.199-0.295 1.747-0.295 0.99 0 1.754 0.241 2.292 0.718 0.535 0.478 0.805 1.1 0.805 1.864 0 0.159-0.019 0.438-0.056 0.836-0.037 0.4-0.106 0.764-0.206 1.099l-1.025 3.63c-0.084 0.291-0.159 0.624-0.226 0.997-0.066 0.372-0.099 0.657-0.099 0.848 0 0.482 0.107 0.811 0.324 0.986 0.214 0.175 0.589 0.263 1.12 0.263 0.251 0 0.531-0.045 0.848-0.131 0.314-0.087 0.542-0.164 0.685-0.23l-0.275 1.12zM19.148 10.063c-0.478 0.444-1.054 0.666-1.727 0.666-0.672 0-1.252-0.222-1.734-0.666-0.479-0.444-0.722-0.985-0.722-1.616 0-0.63 0.244-1.172 0.722-1.62 0.482-0.45 1.062-0.673 1.734-0.673 0.673 0 1.25 0.223 1.727 0.673 0.478 0.448 0.718 0.99 0.718 1.62 0 0.633-0.24 1.172-0.718 1.616z"></path>
</svg>
