<!-- Generated by IcoMoon.io -->
<svg version="1.1" xmlns="http://www.w3.org/2000/svg" width="32" height="32" viewBox="0 0 32 32">
<title>link</title>
<path d="M16.001 0c-8.836 0-15.999 7.164-15.999 16s7.163 16 15.999 16 16-7.164 16-16c0-8.836-7.164-16-16-16zM24.041 13.152l-3.913 3.913c-0.424 0.424-0.989 0.658-1.589 0.658s-1.164-0.234-1.589-0.658l-0.153-0.153-0.417 0.417 0.153 0.153c0.876 0.876 0.876 2.302 0 3.178l-3.913 3.913c-0.424 0.424-0.989 0.658-1.589 0.658s-1.165-0.234-1.589-0.659l-1.479-1.479c-0.876-0.876-0.876-2.301-0-3.178l3.913-3.913c0.424-0.424 0.989-0.658 1.589-0.658s1.164 0.234 1.589 0.658l0.153 0.153 0.417-0.417-0.153-0.153c-0.876-0.876-0.876-2.301-0.001-3.178l3.913-3.913c0.425-0.425 0.989-0.658 1.589-0.658s1.164 0.234 1.589 0.658l1.479 1.48c0.875 0.876 0.875 2.301-0.001 3.177z"></path>
<path d="M15.204 18.502l-0.757 0.757-1.174-1.173 0.757-0.757-0.153-0.153c-0.111-0.111-0.258-0.172-0.415-0.172s-0.304 0.061-0.415 0.172l-3.913 3.913c-0.229 0.229-0.229 0.601 0 0.83l1.479 1.48c0.222 0.222 0.609 0.222 0.831 0l3.913-3.913c0.229-0.229 0.229-0.602 0-0.831l-0.153-0.153z"></path>
<path d="M21.386 9.669c-0.111-0.111-0.259-0.172-0.416-0.172s-0.305 0.061-0.415 0.172l-3.913 3.913c-0.228 0.229-0.228 0.601 0 0.831l0.153 0.153 1.161-1.161 1.174 1.174-1.161 1.161 0.153 0.153c0.222 0.222 0.608 0.222 0.831-0l3.913-3.913c0.229-0.229 0.229-0.601 0-0.831l-1.479-1.48z"></path>
</svg>
