<!-- Generated by IcoMoon.io -->
<svg version="1.1" xmlns="http://www.w3.org/2000/svg" width="32" height="32" viewBox="0 0 32 32">
<title>location</title>
<path d="M16 32c-8.8 0-16-7.2-16-16s7.2-16 16-16 16 7.2 16 16-7.2 16-16 16zM16 1c-8.3 0-15 6.7-15 15s6.7 15 15 15c8.3 0 15-6.7 15-15s-6.7-15-15-15z"></path>
<path d="M16 10.8c-1.4 0-2.5 1.1-2.5 2.5s1.1 2.5 2.5 2.5 2.5-1.1 2.5-2.5c0-1.4-1.1-2.5-2.5-2.5z"></path>
<path d="M16 2.7c-7.4 0-13.3 5.9-13.3 13.3s6 13.3 13.3 13.3 13.3-6 13.3-13.3-5.9-13.3-13.3-13.3zM16 26.5c0 0-7.1-7.9-7.1-13.2 0-4 3.1-7.1 7.1-7.1s7.1 3.1 7.1 7.1c0 5.3-7.1 13.2-7.1 13.2z"></path>
</svg>
