<!-- Generated by IcoMoon.io -->
<svg version="1.1" xmlns="http://www.w3.org/2000/svg" width="21" height="32" viewBox="0 0 21 32">
<title>luong</title>
<path d="M16.785 29.025h-14.408c-0.747 0-1.351 0.611-1.351 1.369s0.603 1.369 1.351 1.369h14.408c0.747 0 1.351-0.611 1.351-1.369s-0.603-1.369-1.351-1.369z"></path>
<path d="M19.568 2.189h-1.431v-0.477c0-0.792-0.639-1.431-1.431-1.431s-1.431 0.639-1.431 1.431v0.477h-1.431c-0.792 0-1.431 0.639-1.431 1.431s0.639 1.431 1.431 1.431h1.431v5.323c-3.644-3.425-9.377-3.253-12.812 0.391s-3.253 9.377 0.391 12.812c3.492 3.282 8.929 3.282 12.411 0v1.030c0 0.792 0.639 1.431 1.431 1.431s1.431-0.639 1.431-1.431v-19.556h1.431c0.792 0 1.431-0.639 1.431-1.431s-0.63-1.431-1.421-1.431zM9.074 23.176c-3.425 0-6.201-2.776-6.201-6.201s2.776-6.201 6.201-6.201c3.425 0 6.201 2.776 6.201 6.201s-2.776 6.201-6.201 6.201z"></path>
</svg>
