<!-- Generated by IcoMoon.io -->
<svg version="1.1" xmlns="http://www.w3.org/2000/svg" width="32" height="32" viewBox="0 0 32 32">
<title>minus</title>
<path d="M16 32c-4.274 0-8.292-1.664-11.314-4.686s-4.686-7.040-4.686-11.314c0-4.274 1.664-8.292 4.686-11.314s7.040-4.686 11.314-4.686c4.274 0 8.292 1.664 11.314 4.686s4.686 7.040 4.686 11.314c0 4.274-1.664 8.292-4.686 11.314s-7.040 4.686-11.314 4.686zM16 2.5c-7.444 0-13.5 6.056-13.5 13.5s6.056 13.5 13.5 13.5c7.444 0 13.5-6.056 13.5-13.5s-6.056-13.5-13.5-13.5zM22.875 14.749h-13.75v2.5h13.75v-2.5z"></path>
</svg>
