<!-- Generated by IcoMoon.io -->
<svg version="1.1" xmlns="http://www.w3.org/2000/svg" width="31" height="32" viewBox="0 0 31 32">
<title>more2</title>
<path d="M2.718 31.095l-1.811-1.809 13.183-13.172-13.183-13.172 1.811-1.809 14.995 14.981-14.995 14.981z"></path>
<path d="M2.717 0.229l15.902 15.886-15.901 15.886-2.717-2.714 13.183-13.172-13.184-13.172 2.717-2.714zM16.806 16.114l-14.090-14.076-0.906 0.905 13.184 13.172-13.183 13.171 0.906 0.905 14.089-14.076z"></path>
<path d="M15.13 31.095l-1.811-1.809 13.183-13.172-13.183-13.172 1.811-1.809 14.995 14.981-14.995 14.981z"></path>
<path d="M15.129 0.229l15.902 15.886-15.901 15.886-2.717-2.714 13.183-13.172-13.184-13.172 2.717-2.714zM29.219 16.114l-14.090-14.076-0.905 0.905 13.184 13.172-13.183 13.171 0.905 0.905 14.089-14.076z"></path>
</svg>
