<!-- Generated by IcoMoon.io -->
<svg version="1.1" xmlns="http://www.w3.org/2000/svg" width="32" height="32" viewBox="0 0 32 32">
<title>more1</title>
<path d="M0.905 3.203l1.809-1.811 13.172 13.183 13.172-13.183 1.809 1.811-14.981 14.995-14.981-14.995z"></path>
<path d="M31.771 3.201l-15.886 15.902-15.886-15.901 2.714-2.717 13.171 13.183 13.172-13.184 2.714 2.717zM15.886 17.291l14.076-14.090-0.905-0.906-13.172 13.184-13.171-13.183-0.905 0.906 14.076 14.089z"></path>
<path d="M0.905 15.615l1.809-1.811 13.172 13.183 13.172-13.183 1.809 1.811-14.981 14.995-14.981-14.995z"></path>
<path d="M31.771 15.614l-15.886 15.902-15.886-15.901 2.714-2.717 13.171 13.183 13.172-13.184 2.714 2.717zM15.886 29.703l14.076-14.090-0.905-0.905-13.172 13.184-13.171-13.183-0.905 0.905 14.076 14.089z"></path>
</svg>
