<!-- Generated by IcoMoon.io -->
<svg version="1.1" xmlns="http://www.w3.org/2000/svg" width="32" height="32" viewBox="0 0 32 32">
<title>notice</title>
<path d="M27.808 23.141c-2.799-1.624-4.844-4.287-5.691-7.41l-1.38-5.159c-1.019-3.829-4.422-6.54-8.382-6.678l-0.516-1.927c-0.379-1.416-1.834-2.256-3.25-1.876s-2.255 1.834-1.876 3.25l0.516 1.926c-3.354 2.104-4.944 6.149-3.921 9.974l1.38 5.159c0.277 1.032 0.417 2.096 0.417 3.164-0.001 2.14-0.562 4.242-1.629 6.096-0.302 0.507-0.261 1.147 0.102 1.611 0.274 0.36 0.7 0.571 1.152 0.572 0.128 0 0.254-0.017 0.377-0.050l7.63-2.044c0.586 1.362 1.924 2.246 3.407 2.251 1.062 0.002 2.073-0.452 2.778-1.245s1.037-1.851 0.91-2.905l7.631-2.044c0.639-0.172 1.080-0.753 1.073-1.414 0.001-0.518-0.277-0.996-0.728-1.251v0zM7.896 1.858c0.285-0.493 0.811-0.796 1.38-0.796 0.721-0.002 1.354 0.483 1.539 1.18l0.448 1.675c-0.050 0.004-0.1 0.014-0.15 0.020-0.167 0.017-0.333 0.038-0.498 0.064-0.088 0.014-0.175 0.028-0.262 0.045-0.184 0.035-0.365 0.075-0.545 0.12-0.040 0.010-0.080 0.016-0.119 0.026s-0.064 0.021-0.097 0.030c-0.203 0.056-0.402 0.119-0.599 0.188-0.053 0.018-0.103 0.038-0.154 0.057-0.205 0.076-0.406 0.16-0.605 0.251-0.015 0.007-0.032 0.012-0.047 0.019l-0.448-1.672c-0.111-0.407-0.055-0.842 0.157-1.208zM18.794 28.129c0.074 1.257-0.747 2.393-1.963 2.719s-2.495-0.249-3.060-1.375l5.024-1.344zM27.183 24.782l-22.354 5.987c-0.153 0.043-0.317-0.013-0.411-0.141-0.099-0.125-0.11-0.299-0.026-0.435 1.161-2.016 1.773-4.302 1.775-6.629 0-1.161-0.152-2.317-0.454-3.439l-1.38-5.159c-0.939-3.503 0.607-7.198 3.76-8.99l0.009-0.004c0.446-0.245 0.914-0.446 1.398-0.601 0.153-0.051 0.301-0.111 0.457-0.152 0.536-0.142 1.086-0.228 1.64-0.258 0.117-0.006 0.235-0.013 0.352-0.014h0.082c3.601 0.001 6.751 2.422 7.679 5.901l1.38 5.16c0.922 3.394 3.146 6.287 6.188 8.052 0.122 0.065 0.198 0.193 0.196 0.331 0.006 0.182-0.115 0.344-0.291 0.39v0.001z"></path>
</svg>
