<!-- Generated by IcoMoon.io -->
<svg version="1.1" xmlns="http://www.w3.org/2000/svg" width="32" height="32" viewBox="0 0 32 32">
<title>order</title>
<path d="M15.708 12.294c-0.39-0.39-1.024-0.392-1.416-0.002l-3.292 3.294-1.292-1.294c-0.39-0.39-1.024-0.39-1.414 0s-0.39 1.024 0 1.414l2 2c0.194 0.196 0.45 0.294 0.706 0.294s0.512-0.098 0.708-0.292l4-4c0.39-0.39 0.39-1.024 0-1.414z"></path>
<path d="M15.708 20.294c-0.39-0.39-1.024-0.392-1.416-0.002l-3.292 3.294-1.292-1.292c-0.39-0.39-1.024-0.39-1.414 0s-0.39 1.024 0 1.414l2 2c0.194 0.194 0.45 0.292 0.706 0.292s0.512-0.098 0.708-0.292l4-4c0.39-0.39 0.39-1.024 0-1.414z"></path>
<path d="M23 14h-4c-0.552 0-1 0.448-1 1s0.448 1 1 1h4c0.552 0 1-0.448 1-1s-0.448-1-1-1z"></path>
<path d="M23 22h-4c-0.552 0-1 0.448-1 1s0.448 1 1 1h4c0.552 0 1-0.448 1-1s-0.448-1-1-1z"></path>
<path d="M26 4h-4v-1c0-0.552-0.448-1-1-1h-2.17c-0.414-1.164-1.526-2-2.83-2s-2.416 0.836-2.83 2h-2.17c-0.552 0-1 0.448-1 1v1h-4c-1.102 0-2 0.898-2 2v24c0 1.102 0.898 2 2 2h20c1.102 0 2-0.898 2-2v-24c0-1.102-0.898-2-2-2zM12 4h2c0.552 0 1-0.448 1-1s0.448-1 1-1c0.552 0 1 0.448 1 1s0.448 1 1 1h2v2h-8v-2zM26 30h-20v-24h4v1c0 0.552 0.448 1 1 1h10c0.552 0 1-0.448 1-1v-1h4v24z"></path>
</svg>
