<!-- Generated by IcoMoon.io -->
<svg version="1.1" xmlns="http://www.w3.org/2000/svg" width="32" height="32" viewBox="0 0 32 32">
<title>password</title>
<path d="M27.333 12h-2v-2.667c0-5.146-4.187-9.333-9.333-9.333s-9.333 4.187-9.333 9.333v2.667h-2c-0.369 0-0.667 0.298-0.667 0.667v16.667c0 1.471 1.196 2.667 2.667 2.667h18.667c1.471 0 2.667-1.196 2.667-2.667v-16.667c0-0.368-0.298-0.667-0.667-0.667zM17.996 25.926c0.021 0.188-0.040 0.377-0.166 0.518s-0.307 0.222-0.497 0.222h-2.667c-0.189 0-0.37-0.081-0.497-0.222s-0.187-0.33-0.166-0.518l0.421-3.782c-0.683-0.497-1.091-1.283-1.091-2.145 0-1.471 1.196-2.667 2.667-2.667s2.667 1.196 2.667 2.667c0 0.862-0.408 1.648-1.091 2.145l0.421 3.782zM21.333 12h-10.667v-2.667c0-2.941 2.393-5.333 5.333-5.333s5.333 2.393 5.333 5.333v2.667z"></path>
</svg>
