<!-- Generated by IcoMoon.io -->
<svg version="1.1" xmlns="http://www.w3.org/2000/svg" width="32" height="32" viewBox="0 0 32 32">
<title>payment</title>
<path d="M16 32c-8.8 0-16-7.2-16-16s7.2-16 16-16 16 7.2 16 16-7.2 16-16 16zM16 1c-8.3 0-15 6.7-15 15s6.7 15 15 15c8.3 0 15-6.7 15-15s-6.7-15-15-15z"></path>
<path d="M11.9 16.7c-0.3 0-0.6 0.1-0.8 0.3-0.2-0.2-0.5-0.3-0.8-0.3-0.6 0-1.2 0.5-1.2 1.2 0 0.6 0.5 1.2 1.2 1.2 0.3 0 0.6-0.1 0.8-0.3 0.2 0.2 0.5 0.3 0.8 0.3 0.6 0 1.2-0.5 1.2-1.2s-0.5-1.2-1.2-1.2z"></path>
<path d="M16 2.7c-7.4 0-13.3 5.9-13.3 13.3s6 13.3 13.3 13.3 13.3-6 13.3-13.3-5.9-13.3-13.3-13.3zM8 16.2c0-0.9 0.8-1.6 1.6-1.6h11.3c0.9 0 1.6 0.7 1.6 1.6v4.3h-14.5v-4.3zM22.5 22.4c0 0.9-0.7 1.6-1.6 1.6h-11.3c-0.8 0-1.6-0.7-1.6-1.6v-0.1l14.5 0.1zM24.6 16.7l-1.2 1.3v-1.7l0.5-0.4c0.1-0.1 0.1-0.2 0.1-0.3s0-0.2-0.1-0.3l-8-8c-0.1-0.1-0.2-0.1-0.3-0.1s-0.2 0-0.3 0.1l-2.5 2.5 4.1 4.1h-2.6l-2.7-2.8-0.6 0.6c-0.1 0.1-0.1 0.2-0.1 0.3s0 0.2 0.1 0.3l1.6 1.6h-1.7l-0.7-0.7c-0.6-0.6-0.6-1.7 0-2.3l4.4-4.4c0.1-0.3 0.5-0.5 0.9-0.5s0.8 0.2 1.1 0.5l8 8c0.7 0.6 0.7 1.6 0 2.2z"></path>
</svg>
