<!-- Generated by IcoMoon.io -->
<svg version="1.1" xmlns="http://www.w3.org/2000/svg" width="32" height="32" viewBox="0 0 32 32">
<title>percentage</title>
<path d="M13.085 13.282c0 0.739-0.599 1.338-1.338 1.338s-1.338-0.599-1.338-1.338c0-0.739 0.599-1.338 1.338-1.338s1.338 0.599 1.338 1.338z"></path>
<path d="M21.583 18.711c0 0.739-0.599 1.338-1.338 1.338s-1.338-0.599-1.338-1.338c0-0.739 0.599-1.338 1.338-1.338s1.338 0.599 1.338 1.338z"></path>
<path d="M31.275 17.767l-0.485-0.662c-0.525-0.721-0.538-1.698-0.020-2.433l0.472-0.669c0.721-1.023 0.387-2.446-0.721-3.042l-0.721-0.387c-0.787-0.42-1.22-1.298-1.069-2.184l0.138-0.806c0.21-1.233-0.715-2.374-1.967-2.426l-0.82-0.033c-0.892-0.039-1.665-0.643-1.915-1.502l-0.23-0.787c-0.348-1.206-1.672-1.829-2.826-1.331l-0.754 0.321c-0.82 0.354-1.777 0.144-2.374-0.525l-0.544-0.61c-0.833-0.931-2.295-0.925-3.121 0.026l-0.538 0.616c-0.59 0.675-1.541 0.898-2.367 0.557l-0.761-0.315c-1.161-0.479-2.472 0.17-2.806 1.377l-0.216 0.793c-0.236 0.866-0.997 1.482-1.888 1.528l-0.82 0.046c-1.252 0.072-2.157 1.226-1.928 2.459l0.151 0.806c0.164 0.879-0.256 1.764-1.036 2.197l-0.715 0.4c-1.095 0.61-1.41 2.039-0.669 3.049l0.485 0.662c0.525 0.721 0.538 1.698 0.020 2.433l-0.472 0.669c-0.721 1.023-0.387 2.446 0.721 3.042l0.721 0.387c0.787 0.42 1.22 1.298 1.069 2.183l-0.138 0.806c-0.21 1.233 0.715 2.374 1.967 2.426l0.82 0.033c0.892 0.039 1.665 0.643 1.915 1.502l0.229 0.787c0.348 1.206 1.672 1.829 2.826 1.331l0.754-0.321c0.82-0.354 1.777-0.144 2.374 0.525l0.544 0.61c0.839 0.931 2.301 0.925 3.121-0.026l0.538-0.616c0.59-0.675 1.541-0.898 2.367-0.557l0.761 0.315c1.161 0.479 2.472-0.17 2.806-1.377l0.216-0.793c0.236-0.866 0.997-1.482 1.888-1.528l0.82-0.046c1.252-0.072 2.157-1.226 1.928-2.459l-0.151-0.806c-0.164-0.879 0.256-1.764 1.036-2.197l0.715-0.4c1.095-0.603 1.41-2.033 0.669-3.049zM8.515 13.282c0-1.784 1.443-3.226 3.226-3.226s3.226 1.443 3.226 3.226-1.443 3.226-3.226 3.226-3.226-1.449-3.226-3.226zM12.364 21.603c-0.275 0.334-0.774 0.38-1.108 0.105v0c-0.334-0.275-0.38-0.774-0.105-1.108l8.465-10.196c0.275-0.334 0.774-0.38 1.108-0.105s0.38 0.774 0.105 1.108l-8.465 10.196zM20.246 21.937c-1.784 0-3.226-1.443-3.226-3.226s1.443-3.226 3.226-3.226 3.226 1.443 3.226 3.226-1.443 3.226-3.226 3.226z"></path>
</svg>
