<!-- Generated by IcoMoon.io -->
<svg version="1.1" xmlns="http://www.w3.org/2000/svg" width="32" height="32" viewBox="0 0 32 32">
<title>phuc-loi</title>
<path d="M15.824 0.108c-0.474 0-0.858 0.384-0.858 0.858s0.384 0.858 0.858 0.858c3.582 0 6.855 1.342 9.346 3.549l-2.026 2.026c-2.037-1.753-4.604-2.709-7.32-2.709-2.791 0-5.348 1.023-7.316 2.713l-2.634-2.634c-0.005-0.005-0.010-0.008-0.014-0.013s-0.008-0.010-0.013-0.014c-0.335-0.335-0.878-0.335-1.213 0-2.989 2.989-4.635 6.963-4.635 11.189 0 8.726 7.099 15.824 15.824 15.824 4.227 0 8.201-1.646 11.189-4.635s4.635-6.963 4.635-11.189c0-8.725-7.099-15.824-15.824-15.824zM22.564 9.201c0.335 0.335 0.878 0.335 1.213 0.001 0.025-0.025 0.047-0.051 0.069-0.078 0.002-0.002 0.004-0.003 0.006-0.005l2.532-2.532c2.030 2.29 3.327 5.243 3.523 8.488h-0.954c-0.474 0-0.858 0.384-0.858 0.858s0.384 0.858 0.858 0.858h0.955c-0.188 3.161-1.416 6.125-3.518 8.493l-2.035-2.035c1.69-1.968 2.713-4.524 2.713-7.316 0-0.474-0.384-0.858-0.858-0.858s-0.858 0.384-0.858 0.858c0 5.253-4.273 9.526-9.526 9.526s-9.526-4.273-9.526-9.526c0-5.253 4.273-9.526 9.526-9.526 2.547 0 4.941 0.993 6.74 2.794zM15.824 28.12c-0.474 0-0.858 0.384-0.858 0.858v1.037c-3.245-0.196-6.198-1.493-8.488-3.523l2.031-2.030c1.968 1.69 4.524 2.713 7.316 2.713s5.348-1.023 7.316-2.713l2.035 2.035c-2.369 2.102-5.332 3.33-8.493 3.518v-1.037c0-0.474-0.384-0.858-0.858-0.858zM1.742 16.79h2.872c0.186 2.456 1.165 4.694 2.681 6.458l-2.031 2.031c-2.030-2.29-3.327-5.243-3.523-8.488zM5.26 6.582l2.035 2.035c-1.515 1.764-2.495 4.002-2.681 6.458h-2.873c0.188-3.161 1.416-6.125 3.518-8.493z"></path>
<path d="M19.788 20.765h-7.928c-0.101 0-0.183 0.082-0.183 0.183v1.088c0 0.101 0.082 0.183 0.183 0.183h7.928c0.101 0 0.183-0.082 0.183-0.183v-1.088c0-0.101-0.082-0.182-0.183-0.182z"></path>
<path d="M19.818 10.413h-0.613v-0.613c0-0.084-0.068-0.152-0.152-0.152h-1.149c-0.084 0-0.152 0.068-0.152 0.152v0.613h-0.613c-0.084 0-0.152 0.068-0.152 0.152v1.149c0 0.084 0.068 0.152 0.152 0.152h0.613v2.064l-0.195-0.116c-0.502-0.3-1.115-0.465-1.725-0.465-1.875 0-3.4 1.527-3.4 3.403s1.524 3.404 3.398 3.404c1.861 0 3.375-1.529 3.375-3.409 0-0.031 0-4.398 0-4.881h0.613c0.084 0 0.152-0.068 0.152-0.152v-1.149c0-0.084-0.068-0.152-0.152-0.152zM17.759 16.629c0 0.015-0.001 0.032-0.003 0.054-0.002 0.025-0.004 0.049-0.004 0.069 0 1.076-0.866 1.95-1.931 1.95-1.070 0-1.941-0.875-1.941-1.95s0.877-1.95 1.955-1.95c1.042 0 1.869 0.786 1.924 1.827z"></path>
</svg>
