<!-- Generated by IcoMoon.io -->
<svg version="1.1" xmlns="http://www.w3.org/2000/svg" width="32" height="32" viewBox="0 0 32 32">
<title>plus</title>
<path d="M27.314 4.686c-3.022-3.022-7.040-4.686-11.314-4.686s-8.292 1.664-11.314 4.686c-3.022 3.022-4.686 7.040-4.686 11.314s1.664 8.292 4.686 11.314c3.022 3.022 7.040 4.686 11.314 4.686s8.292-1.664 11.314-4.686c3.022-3.022 4.686-7.040 4.686-11.314s-1.664-8.292-4.686-11.314v0zM16 29.5c-7.444 0-13.5-6.056-13.5-13.5s6.056-13.5 13.5-13.5c7.444 0 13.5 6.056 13.5 13.5s-6.056 13.5-13.5 13.5v0zM17.25 14.749h5.625v2.5h-5.625v5.625h-2.5v-5.625h-5.625v-2.5h5.625v-5.625h2.5v5.625z"></path>
</svg>
