<!-- Generated by IcoMoon.io -->
<svg version="1.1" xmlns="http://www.w3.org/2000/svg" width="32" height="32" viewBox="0 0 32 32">
<title>promotion-tag</title>
<path d="M8.631 27.794c0.959 0.959 2.517 0.959 3.476 0l11.9-11.9c0.342-0.342 0.605-0.749 0.775-1.183 1.196 0.335 2.359 0.513 3.384 0.506 2.536-0.013 3.378-1.124 3.654-1.787 0.276-0.657 0.473-2.037-1.308-3.851-0.020-0.020-0.039-0.039-0.059-0.059-1.104-1.104-2.707-2.122-4.527-2.878-0.335-0.138-0.67-0.263-0.999-0.381v-0.020c-0.020-1.459-1.196-2.635-2.655-2.655l-7.13-0.099c-0.946-0.013-1.853 0.355-2.517 1.025l-11.907 11.9c-0.959 0.959-0.959 2.517 0 3.476l7.912 7.905zM17.804 7.745c0.795-0.795 2.083-0.795 2.878 0 0.473 0.473 0.664 1.124 0.572 1.735 0.782 0.552 1.715 1.065 2.714 1.478 0.355 0.145 0.697 0.276 1.025 0.388l-0.039-2.865c0.059 0.026 0.112 0.046 0.171 0.072 1.557 0.651 2.957 1.531 3.857 2.431 0.013 0.013 0.026 0.026 0.040 0.040 0.854 0.874 0.946 1.432 0.874 1.603-0.223 0.532-2.622 1.005-6.262-0.512-1.064-0.447-2.063-0.999-2.872-1.597-0.026 0.033-0.059 0.066-0.085 0.098-0.795 0.795-2.083 0.795-2.878 0-0.789-0.788-0.789-2.076 0.006-2.872z"></path>
</svg>
