<!-- Generated by IcoMoon.io -->
<svg version="1.1" xmlns="http://www.w3.org/2000/svg" width="32" height="32" viewBox="0 0 32 32">
<title>search-grey</title>
<path d="M31.513 29.147l-7.888-7.921c2.028-2.328 3.14-5.257 3.14-8.306 0-7.124-6.003-12.92-13.382-12.92s-13.382 5.796-13.382 12.92c0 7.124 6.003 12.92 13.382 12.92 2.77 0 5.41-0.807 7.667-2.338l7.948 7.981c0.332 0.333 0.779 0.517 1.258 0.517 0.453 0 0.883-0.167 1.21-0.47 0.694-0.644 0.716-1.713 0.048-2.383zM13.382 3.37c5.454 0 9.891 4.284 9.891 9.55s-4.437 9.55-9.891 9.55c-5.454 0-9.891-4.284-9.891-9.55s4.437-9.55 9.891-9.55z"></path>
</svg>
