<!-- Generated by IcoMoon.io -->
<svg version="1.1" xmlns="http://www.w3.org/2000/svg" width="32" height="32" viewBox="0 0 32 32">
<title>selected</title>
<path d="M29.333 16c0 7.364-5.97 13.333-13.333 13.333s-13.333-5.97-13.333-13.333c0-7.364 5.97-13.333 13.333-13.333s13.333 5.97 13.333 13.333z"></path>
<path fill="none" stroke-linejoin="miter" stroke-linecap="butt" stroke-miterlimit="4" stroke-width="1" stroke="#000" d="M31.5 16c0 8.56-6.94 15.5-15.5 15.5s-15.5-6.94-15.5-15.5c0-8.56 6.94-15.5 15.5-15.5s15.5 6.94 15.5 15.5z"></path>
<path d="M16 6.222c-3.962 0-7.111 3.149-7.111 7.111 0 5.283 7.111 13.206 7.111 13.206s7.111-7.924 7.111-13.206c0-3.962-3.149-7.111-7.111-7.111zM16 15.873c-1.422 0-2.54-1.117-2.54-2.54s1.117-2.54 2.54-2.54 2.54 1.117 2.54 2.54c0 1.422-1.117 2.54-2.54 2.54z"></path>
</svg>
