<!-- Generated by IcoMoon.io -->
<svg version="1.1" xmlns="http://www.w3.org/2000/svg" width="32" height="32" viewBox="0 0 32 32">
<title>shopping-cart</title>
<path d="M0.030 0.771c0.133-0.535 0.676-0.862 1.212-0.727l4.001 0.999c0.39 0.098 0.683 0.418 0.745 0.812l0.507 3.205 24.628 2.954c0.019 0.002 0.034 0.016 0.055 0.020 0.023 0.004 0.044-0.003 0.068 0.003 0.057 0.014 0.1 0.049 0.15 0.071 0.057 0.024 0.11 0.043 0.16 0.076 0.070 0.048 0.127 0.11 0.182 0.173 0.029 0.031 0.065 0.049 0.090 0.083 0.006 0.008 0.006 0.018 0.010 0.026 0.054 0.084 0.085 0.178 0.113 0.274 0.010 0.035 0.030 0.065 0.036 0.101 0.020 0.132 0.020 0.271-0.014 0.409l-3.001 11.989-0.999 3.997c-0.008 0.029-0.025 0.052-0.035 0.079-0.016 0.048-0.037 0.092-0.061 0.137-0.033 0.065-0.074 0.125-0.122 0.182-0.029 0.034-0.060 0.068-0.093 0.101-0.061 0.053-0.125 0.094-0.194 0.131-0.036 0.021-0.068 0.043-0.107 0.059-0.112 0.042-0.232 0.068-0.357 0.068h-21.004c-0.553 0-0.999-0.447-0.999-0.998s0.447-1 0.999-1h20.222l0.5-1.998h-18.723c-0.123 0-0.242-0.021-0.352-0.063-0.045-0.018-0.080-0.047-0.121-0.069-0.062-0.033-0.126-0.062-0.179-0.107-0.039-0.033-0.065-0.078-0.102-0.119-0.042-0.051-0.089-0.095-0.122-0.15-0.027-0.053-0.039-0.113-0.059-0.172-0.021-0.053-0.047-0.103-0.059-0.158l-0.004-0.021v-0.011l-2.887-18.305-3.357-0.838c-0.538-0.134-0.862-0.676-0.727-1.212zM27.221 19.997l2.537-10.132-3.101-0.372-1.504 10.504h2.068zM23.135 19.997l1.536-10.742-3.116-0.374-0.505 11.115h2.085zM16.957 19.997h2.087l0.518-11.355-3.113-0.373 0.509 11.728zM12.884 19.997h2.071l-0.52-11.97-3.099-0.371 1.548 12.34zM8.874 19.997h1.992l-1.575-12.587-2.131-0.255 1.714 12.842zM23.003 27.989c1.103 0 2 0.895 2 1.999s-0.896 1.997-2 1.997c-1.105 0-2-0.894-2-1.997 0-1.102 0.895-1.999 2-1.999zM9.998 27.989c1.104 0 2 0.895 2 1.999s-0.895 1.997-2 1.997c-1.103 0-2-0.894-2-1.997 0.002-1.103 0.897-1.999 2-1.999z"></path>
</svg>
