<!-- Generated by IcoMoon.io -->
<svg version="1.1" xmlns="http://www.w3.org/2000/svg" width="32" height="32" viewBox="0 0 32 32">
<title>step2</title>
<path d="M16 0c-8.8 0-16 7.2-16 16s7.2 16 16 16c8.8 0 16-7.2 16-16s-7.2-16-16-16zM19.3 22.3h-7.8v-1.5l3.7-3.9c0.5-0.6 0.9-1 1.1-1.4s0.4-0.8 0.4-1.2c0-0.5-0.1-0.9-0.4-1.2s-0.6-0.4-1.1-0.4c-0.5 0-0.9 0.2-1.2 0.5s-0.4 0.8-0.4 1.4h-2.3c0-0.7 0.2-1.3 0.5-1.9s0.8-1 1.4-1.3c0.6-0.3 1.3-0.5 2.1-0.5 1.2 0 2.1 0.3 2.7 0.8 0.7 0.6 1 1.4 1 2.4 0 0.6-0.1 1.1-0.4 1.7s-0.8 1.3-1.5 2l-2.6 2.7h4.9v1.8z"></path>
</svg>
