<!-- Generated by IcoMoon.io -->
<svg version="1.1" xmlns="http://www.w3.org/2000/svg" width="32" height="32" viewBox="0 0 32 32">
<title>store</title>
<path d="M22.735 17.246h-4.348c-1.19 0-2.158 0.968-2.158 2.158v3.335c0 1.19 0.968 2.158 2.158 2.158h4.348c1.19 0 2.158-0.968 2.158-2.158v-3.335c0-1.19-0.968-2.158-2.158-2.158zM23.323 22.738c0 0.327-0.268 0.588-0.588 0.588h-4.348c-0.327 0-0.588-0.268-0.588-0.588v-3.335c0-0.327 0.268-0.588 0.588-0.588h4.348c0.327 0 0.588 0.268 0.588 0.588v3.335z"></path>
<path d="M32 11.184c0-0.137-0.033-0.268-0.105-0.386l-4.76-8.369c-0.137-0.242-0.399-0.399-0.68-0.399h-20.917c-0.281 0-0.543 0.15-0.68 0.399l-4.754 8.369c-0.065 0.118-0.105 0.248-0.105 0.386 0 1.877 1.131 3.485 2.746 4.198v13.803c0 0.432 0.353 0.785 0.785 0.785h4.335c0.007 0 0.013 0 0.020 0h6.081c0.007 0 0.013 0 0.020 0h14.476c0.432 0 0.785-0.353 0.785-0.785v-13.705c0-0.033 0-0.059-0.006-0.085 1.622-0.713 2.759-2.328 2.759-4.211zM5.996 3.606h20.002l3.721 6.545h-27.436l3.714-6.545zM22.774 11.714c-0.248 1.412-1.484 2.485-2.968 2.485s-2.72-1.072-2.969-2.485h5.937zM15.17 11.714c-0.248 1.412-1.484 2.485-2.969 2.485s-2.72-1.072-2.975-2.485h5.944zM1.622 11.714h5.944c-0.248 1.412-1.491 2.485-2.975 2.485-1.484 0.007-2.72-1.072-2.969-2.485zM13.182 28.401h-4.512v-8.468c0-0.615 0.497-1.118 1.118-1.118h2.282c0.615 0 1.118 0.497 1.118 1.118v8.468h-0.007zM27.678 28.401h-12.927v-8.468c0-1.478-1.203-2.687-2.687-2.687h-2.282c-1.478 0-2.687 1.203-2.687 2.687v8.474h-2.779v-12.639c0.092 0.007 0.183 0.007 0.275 0.007 1.582 0 2.982-0.804 3.805-2.027 0.824 1.223 2.223 2.027 3.806 2.027s2.975-0.804 3.805-2.027c0.824 1.223 2.223 2.027 3.799 2.027 1.582 0 2.975-0.804 3.799-2.027 0.824 1.223 2.223 2.027 3.805 2.027 0.091 0 0.177-0.007 0.268-0.007v12.633zM27.41 14.205c-1.484 0-2.72-1.072-2.968-2.485h5.944c-0.255 1.406-1.491 2.485-2.975 2.485z"></path>
</svg>
