<!-- Generated by IcoMoon.io -->
<svg version="1.1" xmlns="http://www.w3.org/2000/svg" width="32" height="32" viewBox="0 0 32 32">
<title>sure</title>
<path d="M15.987 9.904c-3.205 0-5.812 2.735-5.812 6.097s2.607 6.097 5.812 6.097c3.204 0 5.811-2.735 5.811-6.097s-2.607-6.097-5.811-6.097zM19.437 14.852l-4.163 4.368c-0.175 0.183-0.404 0.275-0.633 0.275s-0.458-0.092-0.633-0.275l-1.591-1.669c-0.35-0.366-0.35-0.961 0-1.328s0.916-0.367 1.265 0l0.958 1.005 3.531-3.704c0.349-0.367 0.916-0.367 1.265 0s0.349 0.961 0 1.328z"></path>
<path d="M28.943 8.682l-0.001-0.025c-0.013-0.307-0.022-0.633-0.027-0.994-0.025-1.764-1.362-3.224-3.044-3.322-3.507-0.205-6.22-1.405-8.538-3.775l-0.020-0.020c-0.756-0.727-1.896-0.727-2.653 0l-0.020 0.020c-2.318 2.37-5.031 3.57-8.538 3.776-1.682 0.098-3.019 1.558-3.044 3.322-0.005 0.359-0.014 0.685-0.027 0.994l-0.001 0.058c-0.068 3.752-0.153 8.421 1.336 12.659 0.819 2.331 2.059 4.356 3.685 6.022 1.852 1.896 4.279 3.402 7.211 4.475 0.095 0.035 0.194 0.063 0.296 0.084 0.142 0.030 0.286 0.045 0.429 0.045s0.287-0.015 0.429-0.045c0.101-0.021 0.201-0.050 0.297-0.085 2.929-1.075 5.353-2.581 7.203-4.477 1.626-1.666 2.866-3.692 3.685-6.023 1.494-4.251 1.41-8.929 1.342-12.687zM15.986 23.975c-4.191 0-7.601-3.577-7.601-7.975s3.41-7.975 7.601-7.975c4.191 0 7.601 3.577 7.601 7.975s-3.41 7.975-7.601 7.975z"></path>
</svg>
