<!-- Generated by IcoMoon.io -->
<svg version="1.1" xmlns="http://www.w3.org/2000/svg" width="38" height="32" viewBox="0 0 38 32">
<title>team</title>
<path d="M19.165 11.499c3.175 0 5.749-2.574 5.749-5.749s-2.574-5.749-5.749-5.749c-3.175 0-5.749 2.574-5.749 5.749 0.003 3.174 2.576 5.746 5.749 5.749zM19.165 1.278c2.47 0 4.472 2.002 4.472 4.472s-2.002 4.472-4.472 4.472c-2.47 0-4.472-2.002-4.472-4.472 0.003-2.469 2.003-4.469 4.472-4.472z"></path>
<path d="M5.749 9.582c1.764 0 3.194-1.43 3.194-3.194s-1.43-3.194-3.194-3.194c-1.764 0-3.194 1.43-3.194 3.194 0.002 1.763 1.431 3.192 3.194 3.194zM5.749 4.472c1.058 0 1.916 0.858 1.916 1.916s-0.858 1.916-1.916 1.916c-1.058 0-1.916-0.858-1.916-1.916s0.858-1.916 1.916-1.916z"></path>
<path d="M32.58 9.582c1.764 0 3.194-1.43 3.194-3.194s-1.43-3.194-3.194-3.194c-1.764 0-3.194 1.43-3.194 3.194 0.002 1.763 1.431 3.192 3.194 3.194zM32.58 4.472c1.058 0 1.916 0.858 1.916 1.916s-0.858 1.916-1.916 1.916c-1.058 0-1.916-0.858-1.916-1.916s0.858-1.916 1.916-1.916z"></path>
<path d="M35.136 9.582c-0.138 0-0.273 0.045-0.383 0.128l-2.172 1.629-2.172-1.629c-0.111-0.083-0.245-0.128-0.383-0.128-1.052-0.001-2.035 0.52-2.624 1.392-0.969-0.491-2.039-0.749-3.126-0.753-0.169 0-0.332 0.067-0.452 0.187l-4.659 4.659-4.659-4.659c-0.12-0.12-0.282-0.187-0.452-0.187-1.086 0.004-2.157 0.262-3.126 0.753-0.589-0.871-1.572-1.393-2.624-1.392-0.138 0-0.273 0.045-0.383 0.128l-2.172 1.629-2.172-1.629c-0.111-0.083-0.245-0.128-0.383-0.128-1.763 0.002-3.192 1.431-3.194 3.194v5.679c0 0.661 0.341 1.276 0.901 1.628l3.909 2.444c0.305 0.185 0.655 0.283 1.011 0.282 0.296 0.001 0.588-0.067 0.853-0.199l0.353-0.177v2.927c0 0.758 0.446 1.445 1.14 1.753l9.703 4.311c0.824 0.367 1.766 0.367 2.59 0l9.703-4.312c0.693-0.307 1.14-0.994 1.14-1.752v-3.568l0.423 0.21c0.538 0.268 1.171 0.268 1.709 0l3.833-1.916c0.652-0.322 1.064-0.987 1.062-1.715v-5.596c-0.002-1.763-1.431-3.192-3.194-3.194zM6.103 21.465c-0.198 0.097-0.433 0.087-0.622-0.027l-3.897-2.437c-0.187-0.119-0.303-0.323-0.307-0.544v-5.679c0-0.981 0.741-1.804 1.717-1.906l2.371 1.778c0.227 0.171 0.54 0.171 0.767 0l2.371-1.778c0.532 0.054 1.016 0.33 1.334 0.76-0.043 0.032-0.080 0.070-0.122 0.102-0.099 0.078-0.192 0.16-0.288 0.242-0.123 0.107-0.242 0.215-0.356 0.329-0.088 0.088-0.172 0.178-0.256 0.271-0.107 0.119-0.21 0.242-0.309 0.369-0.075 0.097-0.149 0.192-0.219 0.295-0.093 0.132-0.178 0.268-0.261 0.406-0.064 0.104-0.124 0.207-0.181 0.314-0.077 0.145-0.145 0.294-0.211 0.447-0.047 0.107-0.097 0.213-0.139 0.324-0.064 0.16-0.111 0.324-0.161 0.49-0.032 0.107-0.068 0.211-0.095 0.319-0.046 0.185-0.078 0.375-0.109 0.565-0.015 0.093-0.038 0.185-0.049 0.279-0.036 0.287-0.054 0.577-0.055 0.866v3.757l-0.924 0.459zM30.025 25.362c0 0.254-0.151 0.484-0.383 0.585l-9.703 4.313c-0.493 0.22-1.056 0.22-1.55 0l-9.701-4.313c-0.233-0.102-0.383-0.331-0.383-0.585v-8.113c0-0.491 0.062-0.981 0.185-1.456 0.644-2.435 2.794-4.17 5.309-4.287l4.919 4.919c0.25 0.25 0.654 0.25 0.903 0l4.919-4.919c3.067 0.146 5.48 2.673 5.485 5.744v8.113zM37.052 18.373c0 0.244-0.138 0.467-0.357 0.575l-3.833 1.916c-0.178 0.089-0.387 0.089-0.565 0l-0.995-0.498v-3.117c-0.001-0.291-0.019-0.581-0.055-0.869-0.012-0.095-0.034-0.186-0.049-0.279-0.031-0.192-0.064-0.379-0.109-0.564-0.027-0.109-0.064-0.214-0.096-0.319-0.049-0.164-0.099-0.328-0.16-0.487-0.043-0.111-0.093-0.219-0.141-0.327-0.064-0.149-0.133-0.296-0.21-0.441-0.057-0.108-0.12-0.213-0.182-0.319-0.082-0.137-0.167-0.271-0.255-0.401-0.072-0.102-0.146-0.202-0.223-0.3-0.097-0.128-0.198-0.245-0.304-0.363-0.084-0.094-0.171-0.187-0.26-0.276-0.112-0.113-0.231-0.22-0.351-0.325-0.095-0.083-0.192-0.166-0.291-0.245-0.041-0.033-0.079-0.070-0.121-0.102 0.318-0.43 0.802-0.705 1.333-0.76l2.369 1.778c0.227 0.171 0.54 0.171 0.767 0l2.371-1.778c0.976 0.102 1.717 0.925 1.717 1.906v5.596z"></path>
</svg>
