<!-- Generated by IcoMoon.io -->
<svg version="1.1" xmlns="http://www.w3.org/2000/svg" width="32" height="32" viewBox="0 0 32 32">
<title>time-left</title>
<path d="M19.232 29.146c-0.264 0.066-0.533 0.124-0.8 0.173-0.698 0.13-1.16 0.801-1.030 1.5 0.064 0.344 0.259 0.63 0.524 0.817 0.273 0.192 0.621 0.279 0.975 0.213 0.318-0.059 0.639-0.128 0.953-0.207 0.689-0.172 1.109-0.87 0.937-1.559s-0.869-1.109-1.559-0.938z"></path>
<path d="M28.745 11.903c0.090 0.272 0.262 0.493 0.479 0.646 0.322 0.227 0.744 0.303 1.146 0.17 0.674-0.224 1.040-0.951 0.817-1.626-0.102-0.307-0.215-0.616-0.335-0.916-0.264-0.66-1.012-0.981-1.672-0.717s-0.981 1.012-0.717 1.672c0.101 0.252 0.196 0.511 0.281 0.77z"></path>
<path d="M23.413 27.31c-0.227 0.15-0.461 0.295-0.697 0.431-0.616 0.355-0.826 1.142-0.471 1.757 0.096 0.167 0.225 0.304 0.373 0.409 0.397 0.279 0.936 0.321 1.384 0.063 0.28-0.162 0.559-0.334 0.83-0.513 0.593-0.392 0.756-1.19 0.364-1.782s-1.189-0.756-1.782-0.364z"></path>
<path d="M31.988 15.496c-0.028-0.71-0.626-1.263-1.336-1.235s-1.262 0.626-1.235 1.336c0.011 0.271 0.013 0.547 0.007 0.818-0.010 0.445 0.208 0.842 0.546 1.081 0.202 0.142 0.446 0.228 0.712 0.234 0.71 0.016 1.298-0.547 1.314-1.258 0.007-0.324 0.004-0.652-0.008-0.976z"></path>
<path d="M28.535 23.925c-0.569-0.427-1.375-0.311-1.801 0.257-0.163 0.218-0.335 0.433-0.511 0.64-0.46 0.541-0.395 1.353 0.145 1.813 0.031 0.026 0.062 0.050 0.094 0.073 0.538 0.379 1.285 0.292 1.719-0.218 0.21-0.247 0.415-0.504 0.61-0.764 0.427-0.568 0.311-1.374-0.257-1.801z"></path>
<path d="M30.427 19.275c-0.678-0.213-1.4 0.165-1.612 0.843-0.081 0.259-0.171 0.519-0.269 0.774-0.214 0.561-0.009 1.178 0.46 1.509 0.086 0.061 0.181 0.112 0.284 0.151 0.664 0.253 1.407-0.080 1.66-0.744 0.116-0.303 0.223-0.613 0.32-0.921 0.212-0.678-0.165-1.4-0.843-1.612z"></path>
<path d="M13.62 29.331c-1.15-0.206-2.253-0.558-3.3-1.049-0.012-0.006-0.024-0.014-0.037-0.020-0.246-0.116-0.493-0.24-0.731-0.37-0.001-0.001-0.002-0.002-0.004-0.002-0.438-0.241-0.865-0.508-1.28-0.8-6.051-4.263-7.506-12.654-3.243-18.705 0.927-1.315 2.049-2.413 3.299-3.282 0.015-0.011 0.031-0.021 0.046-0.032 4.407-3.037 10.391-3.241 15.071-0.121l-1.005 1.452c-0.279 0.404-0.108 0.699 0.382 0.655l4.366-0.391c0.49-0.044 0.783-0.468 0.651-0.941l-1.172-4.224c-0.131-0.474-0.467-0.53-0.747-0.126l-1.007 1.456c-3.434-2.305-7.553-3.184-11.641-2.475-0.412 0.071-0.818 0.158-1.218 0.26-0.003 0.001-0.006 0.001-0.008 0.001-0.015 0.004-0.031 0.009-0.046 0.013-3.525 0.905-6.601 2.961-8.796 5.895-0.018 0.022-0.038 0.043-0.055 0.067-0.073 0.098-0.145 0.199-0.216 0.299-0.116 0.165-0.23 0.334-0.34 0.503-0.014 0.020-0.024 0.041-0.036 0.062-1.811 2.807-2.685 6.051-2.535 9.355 0 0.011 0 0.022 0 0.033 0.014 0.323 0.040 0.65 0.075 0.972 0.002 0.021 0.006 0.040 0.010 0.061 0.036 0.324 0.081 0.648 0.137 0.973 0.574 3.311 2.136 6.291 4.477 8.61 0.005 0.005 0.011 0.011 0.017 0.017 0.002 0.002 0.004 0.003 0.006 0.005 0.629 0.62 1.313 1.194 2.049 1.713 1.927 1.358 4.074 2.256 6.379 2.669 0.699 0.126 1.367-0.34 1.493-1.039s-0.34-1.368-1.039-1.493z"></path>
<path d="M15.211 5.723c-0.575 0-1.041 0.466-1.041 1.041v10.369l9.484 4.903c0.153 0.079 0.316 0.116 0.477 0.116 0.377 0 0.741-0.205 0.925-0.563 0.264-0.511 0.064-1.138-0.447-1.402l-8.358-4.321v-9.102c0-0.574-0.466-1.041-1.040-1.041z"></path>
</svg>
