<!-- Generated by IcoMoon.io -->
<svg version="1.1" xmlns="http://www.w3.org/2000/svg" width="32" height="32" viewBox="0 0 32 32">
<title>tracking</title>
<path d="M29.949 13.855h-1.608c-0.092-0.346-0.289-0.652-0.561-0.871s-0.606-0.339-0.95-0.342h-1.717v-4.383c0.002-0.082-0.017-0.163-0.055-0.235s-0.093-0.132-0.161-0.174l-12.11-7.303c-0.068-0.041-0.146-0.063-0.225-0.063s-0.156 0.022-0.225 0.063l-12.113 7.303c-0.069 0.041-0.125 0.101-0.165 0.173s-0.060 0.153-0.060 0.236v14.605c0 0.083 0.021 0.164 0.061 0.236s0.097 0.131 0.165 0.173l12.114 7.303c0.069 0.041 0.147 0.063 0.226 0.063 0.081 0 0.161-0.022 0.232-0.063l6.375-3.839v2.775c-0.001 0.264 0.049 0.526 0.146 0.77s0.239 0.466 0.419 0.652 0.393 0.334 0.627 0.433c0.234 0.1 0.485 0.15 0.738 0.148h8.846c0.254 0.003 0.505-0.047 0.741-0.147s0.449-0.247 0.63-0.433c0.181-0.186 0.324-0.408 0.422-0.652s0.149-0.506 0.15-0.771v-13.622c0-0.538-0.205-1.055-0.569-1.436s-0.858-0.596-1.373-0.598v0zM26.846 13.586c0.174 0 0.341 0.072 0.464 0.201s0.192 0.303 0.192 0.484v0.046c0 0.182-0.069 0.356-0.192 0.484s-0.29 0.201-0.464 0.201h-2.626c-0.174 0-0.341-0.072-0.464-0.201s-0.192-0.303-0.192-0.484v-0.046c0-0.182 0.069-0.356 0.192-0.484s0.29-0.201 0.464-0.201h2.626zM12.566 1.502l5.034 3.034-11.21 6.757-5.034-3.034 11.21-6.757zM12.137 29.35l-11.233-6.758v-13.517l11.233 6.758v13.517zM12.566 15.016l-5.272-3.178 11.21-6.757 5.273 3.178-11.21 6.757zM19.174 15.89v9.757l-6.133 3.703v-13.517l11.168-6.758v3.567h0.014c-0.344 0.003-0.678 0.124-0.95 0.342s-0.47 0.524-0.561 0.871h-1.608c-0.514 0.003-1.006 0.218-1.368 0.6s-0.564 0.898-0.561 1.434v0zM30.988 29.512c-0.001 0.141-0.028 0.281-0.081 0.41s-0.13 0.248-0.226 0.346c-0.097 0.099-0.211 0.176-0.337 0.228s-0.26 0.077-0.395 0.075h-8.846c-0.134 0.002-0.268-0.023-0.393-0.076s-0.238-0.13-0.334-0.229c-0.096-0.099-0.171-0.216-0.223-0.346s-0.077-0.269-0.077-0.409v-13.622c-0.001-0.142 0.024-0.283 0.075-0.415s0.126-0.252 0.221-0.353c0.095-0.101 0.209-0.182 0.334-0.237s0.26-0.085 0.396-0.086h1.626c0.097 0.334 0.295 0.626 0.564 0.833s0.596 0.316 0.93 0.313h2.606c0.334 0.003 0.66-0.107 0.93-0.313s0.467-0.499 0.564-0.833h1.626c0.276 0.002 0.54 0.118 0.735 0.322s0.304 0.481 0.304 0.769v13.622z"></path>
<path d="M21.624 20.663h0.473c0.12 0 0.235-0.050 0.32-0.138s0.132-0.209 0.132-0.334c0-0.125-0.048-0.245-0.132-0.334s-0.2-0.138-0.32-0.138h-0.018v-1.281h1.246c0.028 0.095 0.086 0.177 0.163 0.235s0.171 0.087 0.266 0.084c0.12 0 0.235-0.049 0.32-0.137s0.133-0.208 0.134-0.333v-0.317c-0.001-0.126-0.050-0.246-0.135-0.335s-0.201-0.139-0.322-0.139h-2.129c-0.059 0-0.118 0.013-0.172 0.037s-0.104 0.059-0.146 0.103-0.075 0.096-0.097 0.154c-0.022 0.057-0.034 0.119-0.033 0.181v2.223c0 0.062 0.011 0.123 0.033 0.18s0.055 0.109 0.097 0.153c0.042 0.044 0.091 0.079 0.146 0.102s0.113 0.036 0.172 0.036z"></path>
<path d="M21.627 24.977h2.13c0.12 0 0.235-0.050 0.32-0.138s0.132-0.209 0.132-0.334v-2.224c0-0.125-0.048-0.245-0.132-0.334s-0.2-0.138-0.32-0.138h-2.13c-0.12 0-0.235 0.050-0.32 0.138s-0.132 0.209-0.132 0.334v2.224c0 0.125 0.048 0.245 0.132 0.334s0.2 0.138 0.32 0.138v0zM22.079 22.753h1.227v1.281h-1.227v-1.281z"></path>
<path d="M22.097 28.347h-0.018v-1.281h1.222c0.002 0.124 0.051 0.242 0.136 0.329s0.199 0.136 0.318 0.136c0.119 0 0.233-0.048 0.318-0.135s0.134-0.205 0.137-0.329v-0.455c0-0.128-0.048-0.25-0.134-0.341s-0.201-0.145-0.323-0.149h-2.129c-0.121 0.004-0.236 0.058-0.32 0.149s-0.13 0.214-0.129 0.34v2.223c0 0.061 0.012 0.121 0.034 0.177s0.056 0.107 0.098 0.149c0.042 0.042 0.091 0.076 0.146 0.098s0.112 0.032 0.171 0.031h0.473c0.12 0 0.235-0.050 0.32-0.138s0.132-0.209 0.132-0.334c0-0.125-0.048-0.245-0.132-0.334s-0.2-0.138-0.32-0.138z"></path>
<path d="M24.793 18.074l-1.323 1.382-0.403-0.42c-0.042-0.044-0.092-0.079-0.147-0.102s-0.114-0.036-0.173-0.036-0.118 0.012-0.173 0.036c-0.055 0.024-0.105 0.058-0.147 0.102s-0.075 0.096-0.098 0.153c-0.023 0.057-0.034 0.119-0.034 0.181s0.012 0.123 0.034 0.181c0.023 0.057 0.056 0.109 0.098 0.153l0.722 0.754c0.042 0.044 0.092 0.079 0.147 0.102s0.114 0.036 0.173 0.036 0.118-0.012 0.173-0.036c0.055-0.024 0.105-0.058 0.147-0.102l1.643-1.716c0.085-0.089 0.132-0.209 0.132-0.334s-0.048-0.245-0.132-0.334c-0.085-0.089-0.2-0.138-0.32-0.138s-0.235 0.050-0.32 0.138v0z"></path>
<path d="M24.793 26.786l-1.323 1.382-0.403-0.42c-0.042-0.044-0.092-0.079-0.147-0.102s-0.114-0.036-0.173-0.036-0.118 0.012-0.173 0.036c-0.055 0.024-0.105 0.058-0.147 0.102s-0.075 0.096-0.098 0.153c-0.023 0.057-0.034 0.119-0.034 0.181s0.012 0.123 0.034 0.181c0.023 0.057 0.056 0.109 0.098 0.153l0.722 0.754c0.042 0.044 0.092 0.079 0.147 0.102s0.114 0.036 0.173 0.036 0.118-0.012 0.173-0.036c0.055-0.024 0.105-0.058 0.147-0.102l1.643-1.716c0.085-0.088 0.132-0.209 0.132-0.334s-0.048-0.245-0.132-0.334c-0.085-0.089-0.2-0.138-0.32-0.138s-0.235 0.050-0.32 0.138v0z"></path>
<path d="M29.429 18.641h-2.838c-0.12 0-0.235 0.050-0.32 0.138s-0.132 0.209-0.132 0.334c0 0.125 0.048 0.245 0.132 0.334s0.2 0.138 0.32 0.138h2.838c0.12 0 0.235-0.050 0.32-0.138s0.132-0.209 0.132-0.334c0-0.125-0.048-0.245-0.132-0.334s-0.2-0.138-0.32-0.138v0z"></path>
<path d="M29.429 22.955h-2.838c-0.12 0-0.235 0.050-0.32 0.138s-0.132 0.209-0.132 0.334c0 0.125 0.048 0.245 0.132 0.334s0.2 0.138 0.32 0.138h2.838c0.12 0 0.235-0.050 0.32-0.138s0.132-0.209 0.132-0.334c0-0.125-0.048-0.245-0.132-0.334s-0.2-0.138-0.32-0.138v0z"></path>
<path d="M29.429 27.269h-2.838c-0.12 0-0.235 0.050-0.32 0.138s-0.132 0.209-0.132 0.334c0 0.125 0.048 0.245 0.132 0.334s0.2 0.138 0.32 0.138h2.838c0.12 0 0.235-0.050 0.32-0.138s0.132-0.209 0.132-0.334c0-0.125-0.048-0.245-0.132-0.334s-0.2-0.138-0.32-0.138v0z"></path>
</svg>
