<!-- Generated by IcoMoon.io -->
<svg version="1.1" xmlns="http://www.w3.org/2000/svg" width="32" height="32" viewBox="0 0 32 32">
<title>truck</title>
<path d="M11.666 19.568c-1.453 0-2.628 1.179-2.628 2.632 0 1.449 1.174 2.628 2.628 2.628s2.628-1.179 2.628-2.628c0-1.453-1.174-2.632-2.628-2.632zM11.666 23.514c-0.727 0-1.314-0.592-1.314-1.314 0-0.727 0.587-1.314 1.314-1.314s1.314 0.587 1.314 1.314c0 0.722-0.587 1.314-1.314 1.314zM31.485 17.624v2.806c0 0.7-0.567 1.267-1.267 1.267h-1.356c-0.245-1.681-1.694-2.974-3.443-2.974-1.745 0-3.194 1.293-3.439 2.974h-6.874c-0.245-1.681-1.694-2.974-3.439-2.974s-3.194 1.293-3.439 2.974h-1.698c-0.7 0-1.267-0.567-1.267-1.267v-2.806h26.223zM25.422 19.568c-1.453 0-2.632 1.179-2.632 2.632 0 1.449 1.179 2.628 2.632 2.628 1.449 0 2.628-1.179 2.628-2.628 0-1.453-1.179-2.632-2.628-2.632zM25.422 23.514c-0.727 0-1.314-0.592-1.314-1.314 0-0.727 0.587-1.314 1.314-1.314 0.722 0 1.314 0.587 1.314 1.314 0 0.722-0.591 1.314-1.314 1.314zM30.986 14.798l-4.981-4.926c-0.317-0.313-0.744-0.49-1.187-0.49h-2.514v-0.942c0-0.701-0.566-1.267-1.267-1.267h-14.508c-0.697 0-1.267 0.566-1.267 1.267v0.199l-5.143 0.593 9.114 1.187-9.232 0.917 9.199 1.308-9.199 0.798 5.262 0.992v2.49h26.223v-0.925c0-0.452-0.182-0.883-0.498-1.2zM28.814 14.963h-4.82c-0.11 0-0.199-0.089-0.199-0.199v-3.722c0-0.11 0.089-0.199 0.199-0.199h0.917c0.051 0 0.101 0.021 0.139 0.055l3.899 3.722c0.131 0.122 0.042 0.342-0.135 0.342z"></path>
</svg>
