<!-- Generated by IcoMoon.io -->
<svg version="1.1" xmlns="http://www.w3.org/2000/svg" width="32" height="32" viewBox="0 0 32 32">
<title>truck-time</title>
<path d="M19.654 12.816c0.186 0.242 0.303 0.53 0.339 0.833l4.197 3.342c0.112 0.089 0.186 0.216 0.209 0.356s-0.008 0.285-0.085 0.404l-0.007 0.011c-0.077 0.119-0.197 0.206-0.334 0.242s-0.284 0.020-0.41-0.046l-4.762-2.472c-0.413 0.137-0.862 0.112-1.257-0.071s-0.704-0.509-0.866-0.912c-0.162-0.403-0.163-0.853-0.005-1.257s0.466-0.733 0.859-0.919l2.279-7.517c0.041-0.135 0.132-0.249 0.254-0.32s0.266-0.092 0.404-0.061l0.014 0.003c0.137 0.032 0.257 0.114 0.336 0.231s0.11 0.258 0.088 0.397l-1.251 7.756zM17.591 13.382c-0.093 0.139-0.143 0.303-0.143 0.471l-0.001 0.001c0 0.225 0.090 0.44 0.249 0.599s0.375 0.248 0.6 0.248c0.168 0 0.332-0.050 0.471-0.143s0.248-0.225 0.313-0.38c0.064-0.155 0.081-0.325 0.049-0.49s-0.113-0.315-0.232-0.434-0.27-0.199-0.434-0.232c-0.165-0.033-0.335-0.016-0.49 0.048s-0.288 0.173-0.381 0.312zM22.252 26.141c5.197-1.672 8.969-6.547 8.97-12.289l-0.001 0.001c0-7.119-5.798-12.912-12.925-12.912s-12.925 5.792-12.925 12.912c0.001 0.607 0.044 1.214 0.13 1.815h1.757c-0.099-0.6-0.149-1.207-0.15-1.815 0-6.16 5.019-11.174 11.187-11.174s11.187 5.014 11.187 11.176c0 4.772-3.010 8.852-7.231 10.452v1.835zM16.57 19.122l3.979 3.931c0.127 0.125 0.227 0.275 0.296 0.439s0.104 0.341 0.104 0.519v0.738h-20.949v-6.769c0-0.133 0.025-0.265 0.076-0.388s0.125-0.235 0.219-0.329 0.206-0.169 0.329-0.219c0.123-0.051 0.255-0.077 0.388-0.077h11.588c0.133 0 0.265 0.026 0.389 0.076s0.235 0.125 0.33 0.219c0.094 0.094 0.169 0.206 0.22 0.329s0.077 0.255 0.077 0.388v0.751h2.006c0.355 0 0.695 0.14 0.947 0.39zM14.964 23.183l3.853 0.003c0.032 0.001 0.064-0.007 0.091-0.024s0.048-0.043 0.060-0.072c0.012-0.030 0.015-0.063 0.007-0.094s-0.024-0.060-0.048-0.081l-3.116-2.972c-0.032-0.027-0.071-0.042-0.113-0.043h-0.734c-0.021 0-0.041 0.004-0.060 0.012s-0.036 0.019-0.051 0.034c-0.015 0.015-0.026 0.032-0.034 0.051s-0.012 0.039-0.012 0.060v2.972c0 0.021 0.003 0.041 0.011 0.060s0.019 0.037 0.034 0.051c0.015 0.015 0.032 0.026 0.051 0.034s0.040 0.011 0.060 0.011zM20.948 27.548v-2.239h-20.948v2.239c0 0.268 0.107 0.526 0.297 0.715s0.447 0.296 0.716 0.296h1.356c0.096-0.66 0.426-1.263 0.931-1.699s1.149-0.676 1.817-0.676 1.312 0.24 1.817 0.676c0.505 0.436 0.835 1.039 0.931 1.699h5.491c0.096-0.66 0.427-1.263 0.932-1.699s1.15-0.676 1.817-0.676 1.312 0.24 1.817 0.676c0.505 0.436 0.836 1.039 0.932 1.699h1.081c0.269 0 0.526-0.107 0.716-0.296s0.297-0.447 0.297-0.715zM14.936 27.215c0.346-0.23 0.752-0.353 1.168-0.353h0.002c0.556 0.001 1.089 0.222 1.482 0.615s0.614 0.925 0.615 1.48c0 0.415-0.122 0.821-0.353 1.167s-0.559 0.615-0.942 0.774c-0.384 0.159-0.806 0.201-1.214 0.12s-0.782-0.281-1.076-0.574c-0.294-0.294-0.494-0.668-0.575-1.075s-0.039-0.829 0.12-1.213c0.159-0.383 0.429-0.711 0.775-0.941zM15.519 29.834c0.173 0.115 0.377 0.176 0.585 0.175h0.002c0.278-0.001 0.544-0.112 0.74-0.309s0.306-0.463 0.305-0.741c0-0.208-0.062-0.411-0.177-0.584s-0.28-0.308-0.472-0.387c-0.192-0.079-0.404-0.1-0.608-0.059s-0.392 0.141-0.538 0.289c-0.147 0.147-0.247 0.335-0.287 0.539s-0.019 0.415 0.062 0.607c0.080 0.192 0.216 0.356 0.389 0.471zM3.949 27.215c0.346-0.23 0.752-0.353 1.168-0.353 0.556 0.001 1.089 0.222 1.483 0.614s0.614 0.926 0.615 1.481c0 0.415-0.122 0.821-0.353 1.167s-0.559 0.615-0.942 0.774c-0.384 0.159-0.806 0.201-1.214 0.12s-0.782-0.281-1.076-0.574c-0.294-0.294-0.494-0.668-0.575-1.075s-0.039-0.829 0.12-1.213c0.159-0.383 0.429-0.711 0.775-0.941zM4.532 29.832c0.173 0.115 0.376 0.177 0.584 0.177 0.138 0 0.275-0.027 0.402-0.079s0.244-0.13 0.341-0.227c0.098-0.098 0.175-0.213 0.228-0.341s0.080-0.264 0.079-0.402c0-0.208-0.061-0.411-0.177-0.584s-0.28-0.307-0.472-0.387c-0.192-0.080-0.404-0.1-0.608-0.060s-0.391 0.141-0.538 0.287-0.247 0.334-0.288 0.538c-0.041 0.204-0.020 0.415 0.060 0.607s0.214 0.356 0.387 0.471z"></path>
</svg>
