<!-- Generated by IcoMoon.io -->
<svg version="1.1" xmlns="http://www.w3.org/2000/svg" width="41" height="32" viewBox="0 0 41 32">
<title>uu-dai</title>
<path d="M27.981 18.418c0 0.391-0.396 0.708-0.886 0.708s-0.886-0.317-0.886-0.708c0-0.391 0.396-0.708 0.886-0.708s0.886 0.317 0.886 0.708z"></path>
<path d="M38.679 4.682h-12.642c-0.306-1.942-1.165-3.558-2.323-4.315-0.778-0.507-1.803-0.487-2.611 0.050l-4.012 2.666h-4.329l-4.012-2.666c-0.808-0.537-1.833-0.556-2.612-0.049-1.159 0.757-2.017 2.373-2.323 4.315h-1.407c-1.328 0-2.407 1.076-2.407 2.4v22.396c0 1.323 1.080 2.4 2.407 2.4h36.272c1.328 0 2.407-1.076 2.407-2.4v-22.396c0-1.323-1.080-2.4-2.407-2.4zM1.605 22.279h37.877v3.199h-37.877v-3.199zM21.992 1.748c0.269-0.178 0.608-0.195 0.842-0.042 0.884 0.578 1.548 2.086 1.691 3.843 0.151 1.806-0.328 4.419-1.691 5.31-0.218 0.142-0.527 0.136-0.781-0.007-0.193-0.152-3.908-2.591-3.918-2.598v-1.172h2.407c0.443 0 0.802-0.358 0.802-0.8s-0.359-0.8-0.802-0.8h-2.407v-1.172l3.856-2.563zM8.922 12.033l3.84-2.552h0.896l-3.029 6.476-0.724-1.187c-0.168-0.276-0.487-0.424-0.807-0.375l-1.378 0.21 1.203-2.571zM16.531 7.882c-0.529 0-2.476 0-3.21 0v-3.199h3.21v3.199zM17.090 9.481l3.84 2.552 1.203 2.572-1.378-0.21c-0.321-0.049-0.638 0.099-0.807 0.375l-0.724 1.187-3.030-6.476h0.896zM7.017 1.706c0.235-0.153 0.574-0.137 0.843 0.042l3.857 2.563v1.172h-2.407c-0.443 0-0.803 0.358-0.803 0.8s0.359 0.8 0.803 0.8h2.407v1.172c-0.008 0.005-3.909 2.59-3.917 2.597-0.257 0.143-0.565 0.149-0.781 0.008-1.375-0.9-1.842-3.502-1.691-5.312 0.144-1.756 0.808-3.264 1.691-3.841zM2.407 6.282h1.284c0 2.621 0.96 4.943 2.448 5.915 0.242 0.158 0.509 0.264 0.786 0.32l-1.294 2.767c-0.125 0.267-0.092 0.581 0.085 0.818s0.471 0.356 0.763 0.311l2.332-0.355 1.226 2.008c0.154 0.252 0.434 0.401 0.73 0.383 0.296-0.016 0.558-0.193 0.683-0.461l3.477-7.432 3.477 7.432c0.125 0.267 0.387 0.445 0.683 0.461 0.015 0.001 0.029 0.001 0.044 0.001 0.279 0 0.539-0.145 0.686-0.384l1.226-2.008 2.331 0.355c0.293 0.045 0.586-0.075 0.763-0.311s0.21-0.55 0.085-0.818l-1.294-2.767c0.277-0.056 0.544-0.162 0.787-0.32 1.486-0.972 2.446-3.293 2.446-5.914h12.518c0.443 0 0.803 0.359 0.803 0.8v13.598h-37.877v-13.598c0-0.441 0.36-0.8 0.802-0.8zM38.679 30.278h-36.272c-0.443 0-0.802-0.359-0.802-0.8v-2.4h37.877v2.4c0 0.441-0.36 0.8-0.803 0.8z"></path>
<path d="M30.2 19.126h6.897c0.443 0 0.802-0.317 0.802-0.708s-0.359-0.708-0.802-0.708h-6.897c-0.443 0-0.802 0.317-0.802 0.708s0.359 0.708 0.802 0.708z"></path>
</svg>
