<!-- Generated by IcoMoon.io -->
<svg version="1.1" xmlns="http://www.w3.org/2000/svg" width="32" height="32" viewBox="0 0 32 32">
<title>viewed</title>
<path d="M31.302 15.387c-0.281-0.385-6.987-9.427-15.551-9.427s-15.27 9.041-15.551 9.426c-0.267 0.365-0.267 0.861 0 1.226 0.281 0.385 6.987 9.427 15.551 9.427s15.27-9.042 15.551-9.426c0.267-0.365 0.267-0.861 0-1.226zM15.751 23.962c-6.308 0-11.772-6.001-13.39-7.963 1.615-1.964 7.068-7.961 13.39-7.961 6.308 0 11.771 6 13.39 7.963-1.615 1.963-7.068 7.961-13.39 7.961z"></path>
<path d="M15.751 9.769c-3.436 0-6.231 2.795-6.231 6.231s2.795 6.231 6.231 6.231c3.436 0 6.231-2.795 6.231-6.231s-2.795-6.231-6.231-6.231zM15.751 20.154c-2.291 0-4.154-1.864-4.154-4.154s1.863-4.154 4.154-4.154c2.291 0 4.154 1.864 4.154 4.154s-1.863 4.154-4.154 4.154z"></path>
</svg>
