<!-- Generated by IcoMoon.io -->
<svg version="1.1" xmlns="http://www.w3.org/2000/svg" width="32" height="32" viewBox="0 0 32 32">
<title>vnd</title>
<path d="M16.012 0c-8.838-0.007-16.005 7.151-16.012 15.988s7.151 16.005 15.988 16.012c8.836-0.008 16-7.164 16.012-16 0-8.832-7.156-15.992-15.988-16zM20.063 24.439c0.249 0 0.487 0.099 0.663 0.274s0.275 0.414 0.275 0.663c0 0.249-0.099 0.487-0.275 0.663s-0.414 0.275-0.663 0.275h-10c-0.249 0-0.487-0.099-0.663-0.275s-0.275-0.414-0.275-0.663c0-0.249 0.099-0.487 0.275-0.663s0.414-0.274 0.663-0.274h10zM21 6.939h0.938c0.249 0 0.487 0.099 0.663 0.275s0.275 0.414 0.275 0.663c0 0.249-0.099 0.487-0.275 0.663s-0.414 0.275-0.663 0.275h-0.938v12.813c0 0.249-0.099 0.487-0.275 0.663s-0.414 0.275-0.663 0.275c-0.249 0-0.487-0.099-0.663-0.275s-0.275-0.414-0.275-0.663v-0.674c-0.844 0.794-1.902 1.323-3.044 1.523s-2.316 0.061-3.38-0.399c-1.063-0.46-1.969-1.221-2.606-2.189s-0.975-2.102-0.975-3.261c0-1.159 0.339-2.292 0.975-3.261s1.542-1.729 2.606-2.189c1.064-0.46 2.239-0.599 3.38-0.399s2.199 0.729 3.044 1.523v-3.487h-0.938c-0.249 0-0.487-0.099-0.663-0.275s-0.275-0.414-0.275-0.663c0-0.249 0.099-0.487 0.275-0.663s0.414-0.275 0.663-0.275h0.938v-0.313c0-0.249 0.099-0.487 0.275-0.663s0.414-0.275 0.663-0.275c0.249 0 0.487 0.099 0.663 0.275s0.275 0.414 0.275 0.663v0.313zM12.806 20.004c0.668 0.446 1.454 0.685 2.257 0.685 1.077-0.001 2.11-0.43 2.871-1.191s1.19-1.794 1.191-2.871c0-0.803-0.238-1.589-0.685-2.257s-1.081-1.189-1.823-1.496c-0.742-0.307-1.559-0.388-2.347-0.231s-1.512 0.544-2.080 1.112c-0.568 0.568-0.955 1.292-1.112 2.080s-0.076 1.605 0.231 2.347c0.307 0.742 0.828 1.377 1.496 1.823z"></path>
</svg>
