<svg id="Layer_1" data-name="Layer 1" xmlns="http://www.w3.org/2000/svg" viewBox="0 0 168 168"><defs><style>.cls-1{fill:#232f3e;}.cls-2{fill:#fefefd;}.cls-3{fill:#eb902d;}.cls-4{fill:#e98f2d;}</style></defs><title>amazon</title><circle class="cls-1" cx="84" cy="84" r="84"/><path class="cls-2" d="M158.3,104.37c0,3,.15,6.12,0,9.16-.36,5.87.57,11.26,4.7,15.79,1.43,1.57,1.17,3.05-.57,4.43-2.91,2.3-5.72,4.72-8.51,7.15-1.82,1.58-3.41,1.46-5.17-.14a24.91,24.91,0,0,1-4.93-5.63c-1-1.69-1.73-1.6-3.06-.26-5.53,5.55-12.3,7.89-20.12,7.74-12.46-.24-20.28-8.57-19.53-21.07.71-11.84,8.09-19.49,21.59-22,4.91-.93,9.9-1.47,14.88-2,1.82-.17,2.34-.72,2.38-2.53.15-7.09-1.61-10.41-6.45-11.68a10.55,10.55,0,0,0-13,6.86c-.73,2.15-1.82,3-4.05,2.7-3.46-.46-6.93-.8-10.4-1.13-2.52-.24-3-1.67-2.49-3.87,1.68-6.6,5.42-11.68,11.57-14.6a38.34,38.34,0,0,1,31.38-1.2c8,3.11,11.59,9.5,11.78,17.89.11,4.79,0,9.59,0,14.38Z" transform="translate(-48 -34)"/><path class="cls-3" d="M131.3,167c-18.35-.34-33-8.13-45.12-21.35-.64-.7-1.79-1.57-1-2.46,1.06-1.19,1.91.34,2.67.86,14.47,9.92,30.37,15,48,14.26a75,75,0,0,0,29.79-7.9c1.22-.59,2.74-2.37,4-.5s-.87,2.9-2,3.85A57.15,57.15,0,0,1,131.3,167Z" transform="translate(-48 -34)"/><path class="cls-4" d="M159.79,146.48c1.68-2.3,3.63-2.71,5.44-3.12a29.53,29.53,0,0,1,6.14-.74c6.91-.1,8.16,1.71,5.68,8.24-1.2,3.16-2.76,6.13-6.22,8-.24-2.75,1.34-4.69,2-6.87,1.45-5,.75-6-4.49-6-1.41,0-2.82.21-4.23.3C162.86,146.36,161.63,146.4,159.79,146.48Z" transform="translate(-48 -34)"/><path class="cls-1" d="M139.87,112.83c-.09,3.85-.48,8.15-3.09,11.9-2,2.93-4.65,4.82-8.34,4.9s-6.35-1.71-7.59-5.37a11.55,11.55,0,0,1,6.58-14.79c2.94-1.24,6.07-1.5,9.21-1.84,2.51-.27,3.72.34,3.24,3.05A16.08,16.08,0,0,0,139.87,112.83Z" transform="translate(-48 -34)"/></svg>