<svg xmlns="http://www.w3.org/2000/svg" viewBox="0 0 259.36 259.36"><defs><style>.a{fill:#123d69;}.b{fill:#fbf11e;stroke:#1c252c;stroke-width:2.5px;}.b,.c{stroke-miterlimit:10;}.c{fill:none;stroke:#000;stroke-width:0.5px;}</style></defs><title>bestbuy.2</title><circle class="a" cx="129.68" cy="129.68" r="129.68"/><path class="b" d="M76,63.37,34.74,95.15l-5.34,48,35.69,42L217.9,196.41l11-121.82ZM44.43,127.3a6,6,0,1,1,6-6A6,6,0,0,1,44.43,127.3Z" transform="translate(-0.32 -0.32)"/><polygon points="105.41 89.48 102.12 125.93 137 128.82 137.8 119.16 121.41 117.22 121.78 114.14 135.97 115.14 137.04 105.92 122.9 104.53 123.32 101.18 138.59 102.41 139.73 92.75 105.41 89.48"/><path d="M181.25,99.22l-5.62,8.28s-8.79-4.19-12.09-3.31c0,0-2.28.27-2.76,1.8,0,0-.19,1.17,2.46,1.61,0,0,11.77,2.19,15.47,6.58,0,0,8,8.38-4.89,15.51,0,0-8.51,4.63-25.45.4,0,0-6.63-1.51-9.92-3.65l6.41-9.4s8.59,5.66,14.58,4.72c0,0,4-.43,2.32-2.79,0,0-.88-1.34-4.91-1.58,0,0-8.13-.45-13.18-6,0,0-4.82-6.18,1.92-12.12,0,0,5.91-6.52,22.07-4.57A40.56,40.56,0,0,1,181.25,99.22Z" transform="translate(-0.32 -0.32)"/><polygon points="182.5 96.2 181.62 107.75 191.64 108.68 189.63 133.52 208.01 135.2 210.11 110.21 220.54 111.07 221.51 99.57 182.5 96.2"/><path d="M108.65,131.45l17.94,1.48-1.79,20.74s-.51,4.67,2.6,5.05a16.78,16.78,0,0,0,3.43.36s3.13.41,3.82-3.89l2.29-21.42,17.24,1.68L152.6,155a15.7,15.7,0,0,1-12,14.79s-23,4.53-32.09-8.61c0,0-2.6-2.34-1-14.65Z" transform="translate(-0.32 -0.32)"/><path d="M154.78,135.7l13.8,20.15a5,5,0,0,1,1,3.57l-1.23,13.25,18.08,2.12,1.24-13.86s.05-2.37,1.42-3L206.88,140l-20.68-1.89-6.44,9-5.1-10.41Z" transform="translate(-0.32 -0.32)"/><path d="M208.87,142.53h1.28a.76.76,0,0,1,.87.84c0,.42-.17.69-.54.75h0c.39,0,.51.28.51.7v.27a1.27,1.27,0,0,0,0,.44s0,.07.1.1v0h-.88a1.66,1.66,0,0,1-.08-.6v-.21c0-.36-.07-.45-.27-.45h-.21v1.26h-.82Zm.82,1.33h.16a.33.33,0,0,0,.35-.37c0-.26-.11-.37-.35-.37h-.16Z" transform="translate(-0.32 -0.32)"/><circle class="c" cx="209.45" cy="143.92" r="2.89"/><path d="M93,106.42s10.59-2,6.7-11.08c0,0-2.09-6.7-16.82-7.36L59.72,86.15l-3,36.25,30,2.51s13.77.48,14.7-8.77C101.4,116.14,102.7,109.73,93,106.42ZM76,96.59a17.25,17.25,0,0,1,5.15.57c3.2,1.2,1.67,3.57,1.67,3.57-1.06,2.06-7.21,1-7.21,1Zm6.9,18.89c-2.39,1.08-8.2-.12-8.2-.12l.51-6c8.12-.43,9.09,2.31,9.09,2.31A2.72,2.72,0,0,1,82.88,115.48Z" transform="translate(-0.32 -0.32)"/><path d="M97.09,147.82s10.59-2,6.7-11.08c0,0-2.09-6.7-16.81-7.36l-23.17-1.83-3,36.25,30,2.51s13.77.48,14.71-8.77C105.5,157.54,106.79,151.13,97.09,147.82Zm-17-9.83a17.18,17.18,0,0,1,5.15.57c3.2,1.2,1.67,3.57,1.67,3.57-1.06,2.06-7.21,1-7.21,1ZM87,156.88c-2.39,1.08-8.2-.11-8.2-.11l.51-6c8.12-.43,9.09,2.31,9.09,2.31A2.72,2.72,0,0,1,87,156.88Z" transform="translate(-0.32 -0.32)"/></svg>