<svg id="Layer_1" data-name="Layer 1" xmlns="http://www.w3.org/2000/svg" viewBox="0 0 152 152"><defs><style>.cls-1{fill:#185fab;}.cls-2{fill:#fefefe;}.cls-3{fill:#e31c39;}.cls-4{fill:#125eaa;}.cls-5{fill:#1661ac;}.cls-6{fill:#1560ab;}.cls-7{fill:#145fab;}.cls-8{fill:#135fab;}.cls-9{fill:#135eab;}.cls-10{fill:#1960ac;}.cls-11{fill:#195fac;}.cls-12{fill:#fdfdfd;}.cls-13{fill:#f1f6fa;}.cls-14{fill:#2366af;}.cls-15{fill:#296ab1;}.cls-16{fill:#2a6ab1;}.cls-17{fill:#3371b5;}.cls-18{fill:#2b6bb2;}.cls-19{fill:#1c61ad;}.cls-20{fill:#1b61ac;}.cls-21{fill:#e94b63;}.cls-22{fill:#f7c4cc;}.cls-23{fill:#f192a0;}.cls-24{fill:#f8cad1;}.cls-25{fill:#f5b2bc;}.cls-26{fill:#ed6c7f;}.cls-27{fill:#85a8d2;}.cls-28{fill:#e9475f;}.cls-29{fill:#a2c1de;}.cls-30{fill:#ea586e;}.cls-31{fill:#457dbb;}.cls-32{fill:#4d81bd;}.cls-33{fill:#b5cee5;}.cls-34{fill:#6e9ecc;}.cls-35{fill:#c8daec;}.cls-36{fill:#b0cbe3;}.cls-37{fill:#fdfcfd;}.cls-38{fill:#fafbfd;}.cls-39{fill:#6195c8;}.cls-40{fill:#e2ecf5;}.cls-41{fill:#558dc4;}.cls-42{fill:#e73d56;}.cls-43{fill:#f9d8dd;}.cls-44{fill:#1a60ac;}</style></defs><title>costco</title><circle class="cls-1" cx="76" cy="76" r="76"/><path class="cls-2" d="M72.51,124.93c-2.41-1.14-4.68-2.32-6.24-4.53a9.9,9.9,0,0,1-.41-11.32C70,102,76.56,99.56,84.38,99.74a27.81,27.81,0,0,1,5.78,1c.86.22,1,.62.88,1.42-.32,1.77-.58,3.56-.91,5.67a18.27,18.27,0,0,1,9.6-3.75c4-.34,7.74.23,11,2.81.61.48,1.15,1.49,1.71,1.49s1.15-1,1.79-1.46c4.23-3,8.9-3.58,13.85-2.29.61.16,1.19.63,1.69-.26.1-.19.75-.1,1.15-.1h16.84c2.41,0,2.1-.17,1.43,2.16,1.35-.54,2.59-1.08,3.85-1.53a17.75,17.75,0,0,1,11.54.09c.6.19.63.48.56,1a4.66,4.66,0,0,0-.14,2,18.49,18.49,0,0,1,17.31-3c7.27,2.59,8.09,10,3.94,15.16-.52.64-.79,1-.14,1.76a1.67,1.67,0,0,1,.18,1.78c-.9,2.2-.86,4.61-1.42,6.9a25.63,25.63,0,0,0-.67,4.39c-.06.88-.4,1.2-1.32,1.2-5.93,0-11.85,0-17.78,0-.52,0-1.09.14-1.25-.64a.28.28,0,0,0-.56-.06c-.37.9-1.13.7-1.81.7-8.15,0-16.3.13-24.44-.08-1.94-.06-3.84.43-5.73.17a25,25,0,0,0-6-.15,60.71,60.71,0,0,1-7.75.05c-2.34-.07-4.67,0-7,0s-5,0-7.48,0H73.51c-2.45,0-4.9-.07-7.35,0-1.2.05-1.61-.26-1.56-1.53.1-2.85.06-5.7,0-8.55,0-.87.23-1.16,1.13-1.14C68,125,70.25,124.93,72.51,124.93Z" transform="translate(-50.5 -42)"/><path class="cls-3" d="M86.8,117c-.43,1.77-.9,3.53-1.29,5.31-.12.56-.34.86-.9,1-4.15.74-8.29,1.18-12.39-.31-6-2.19-8.27-8.57-4.66-13.89,4.36-6.41,10.74-8.39,18.16-7.72,1.18.11,2.7.11,3.42.81s-.07,2.24-.22,3.39c-.19,1.58-.49,3.15-.77,4.93a8.9,8.9,0,0,0-4.73-2.15,7,7,0,0,0-6.22,2.38,3.41,3.41,0,0,0,1.58,5.75,9.14,9.14,0,0,0,8-1.36C87.85,115.74,87.19,116.37,86.8,117Z" transform="translate(-50.5 -42)"/><path class="cls-3" d="M87.31,114.86a15.18,15.18,0,0,1,20.14-8.26,7.13,7.13,0,0,1,4.5,4.77c0,.9,1.07,1.72.25,2.7-.44,4.07-2.82,6.78-6.34,8.44a16.72,16.72,0,0,1-14.07.55,7,7,0,0,1-4.49-5.52A5.08,5.08,0,0,1,87.31,114.86Z" transform="translate(-50.5 -42)"/><path class="cls-3" d="M163.25,112.18c4.11-5.89,9.93-7.48,16.65-6.37,5.11.84,7.8,4.33,7.18,8.89a9.27,9.27,0,0,1-4.08,6.47,16.86,16.86,0,0,1-15.13,2.32,7.41,7.41,0,0,1-5.68-6.22A5.37,5.37,0,0,1,163.25,112.18Z" transform="translate(-50.5 -42)"/><path class="cls-4" d="M107.88,130.36c.54-1.07,1.12-2.13,1.59-3.22a1.13,1.13,0,0,1,1.24-.74c2.35,0,1.87-.14,2,1.88.06.83.18,1.64.3,2.73.65-1.35,1.24-2.43,1.69-3.57a1.4,1.4,0,0,1,1.57-1,45.27,45.27,0,0,0,4.66,0c1.17-.07,1.23.39,1,1.32-.39,1.41.1,1.84,1.49,1.48.83-.22.42-1,.7-1.43s-.17-1.23.6-1.31a15.19,15.19,0,0,1,2.78,0c.32,0,.2.44.17.69-.06.43-.17.87-.26,1.3a.51.51,0,0,0,0,.62c.11.16.19-.08.29-.12,2.59-3.68,8.23-3.58,10.42.23a4,4,0,0,0,.21-.51c.49-2.37.49-2.33,2.88-2.32.86,0,1.11.25.93,1.08-.26,1.17-.42,2.36-.69,3.52-.18.74-.06,1.12.78,1a.64.64,0,0,1,.39,0c.49.23,1.47-.6,1.47.67,0,1.56-.32,1.93-1.59,1.93a33.08,33.08,0,0,0-3.73,0c-1.39.17-1.7-.35-1.38-1.57.14-.6.14-.6-.31-.58a7,7,0,0,1-5.77,2.21c-1.92-.08-3.58-.65-4.3-2.64-.31,0-.31.25-.35.41-.53,2.27-.53,2.24-2.91,2.16-.77,0-.94-.3-.78-1a6,6,0,0,0,.19-.92c0-.38.38-1-.38-1-.59,0-1.49-.54-1.72.61,0,0,0,.09,0,.13-.49,2.25-.49,2.22-2.92,2.13-.74,0-.9-.24-.76-.95.3-1.52.53-3.06.79-4.59a1.77,1.77,0,0,0,.09-.79c0-.08.15-.22-.06-.26s-.2.14-.29.22l-3.39,5.53a3.75,3.75,0,0,1-3.43.75c-.32-.22-.21-.56-.24-.85-.09-.74-.16-1.49-.24-2.24-.27.13.14-1-.48-.25-.43.87-.91,1.72-1.29,2.62a1.22,1.22,0,0,1-1.32.81c-2.09,0-2.09,0-2.59-2.09q-.59-2.52-1.21-5c-.18-.74-.1-1.11.85-1.12,2.63,0,2.62-.07,2.79,2.52,0,.48.06,1,.1,1.46C107.57,130.59,107.73,130.58,107.88,130.36Z" transform="translate(-50.5 -42)"/><path class="cls-3" d="M129.59,107.68a40.14,40.14,0,0,1-2.17,3.5c-.37.71-.81.34-1.21.11a6.66,6.66,0,0,0-4.1-.91c-.62.06-1.35.19-1.36,1s.73.67,1.22.77a22.93,22.93,0,0,1,4,1c2.86,1.1,3.74,3.56,2.26,6.25S124,123.34,121,124a19.79,19.79,0,0,1-10.63-1c-.63-.22-.76-.49-.35-1,.88-1.23,1.75-2.47,2.56-3.74.36-.56.62-.55,1.15-.22a7.76,7.76,0,0,0,4.49,1.46,3.25,3.25,0,0,0,1-.15c.52-.21,1.2-.42,1.12-1.13s-.74-.71-1.25-.81c-1.13-.23-2.29-.34-3.41-.62a4.36,4.36,0,0,1-3.29-2.65,3.24,3.24,0,0,1,0-1.9c.59-2.75,2.47-4.36,4.9-5.39a14.11,14.11,0,0,1,12,0C129.48,107,129.91,107.26,129.59,107.68Z" transform="translate(-50.5 -42)"/><path class="cls-3" d="M161.64,117.54c-.4,1.67-.82,3.35-1.18,5a1.44,1.44,0,0,1-1.3,1.26,18.79,18.79,0,0,1-7.65.16c-6.12-1.45-8.27-5.72-5.9-11.54.29-.58.37-1.3,1.06-1.61,4.29-4.93,9.71-6.16,15.92-4.92.83.17.95.52.8,1.28-.21,1.09-.29,2.2-.42,3.3a4.15,4.15,0,0,0-.11,1.45c-.07,1.12-.45,1.37-1.44.82a6.64,6.64,0,0,0-3.8-1,4.83,4.83,0,0,0-3.32,1.51,2.63,2.63,0,0,0-.88,2.77,2.91,2.91,0,0,0,2.54,1.9,7.38,7.38,0,0,0,4.28-.7,2,2,0,0,1,1-.35C161.64,116.9,162,117,161.64,117.54Z" transform="translate(-50.5 -42)"/><path class="cls-3" d="M130.09,107.4c.33-1.54,1.34-1.74,2.78-1.71,4.56.11,9.13.06,13.7,0,.92,0,1.28.08.87,1.13s-.72,2.46-1.06,3.69c-.21.44-.06,1.21-1,1a26.48,26.48,0,0,1-3.67-.11,90.64,90.64,0,0,0-3,9.51c-1,3-.87,3.07-4,3.07L130,124a1.53,1.53,0,0,1-.33-.12c1.11-3.69,2.19-7.39,3.35-11.06.3-1,.4-1.31-.85-1.22-3.45.24-3.46.19-2.35-3a2.46,2.46,0,0,0,.26-1.16Z" transform="translate(-50.5 -42)"/><path class="cls-4" d="M152.61,128.52a6,6,0,0,1,6.59-2c.36.12,1.15.19.74.75s-.3,1.85-1.59,1.53c-.17,0-.31-.19-.48-.22-.59-.14-1.47-.47-1.64.23s.77.47,1.22.59c1.13.29,2.13.67,2.36,2.27,1-1.55,1.88-2.81,2.57-4.18a1.94,1.94,0,0,1,2.11-1.15c2.55.06,2.54,0,3.11,2.46a23.31,23.31,0,0,0,1.35,4.34c.24-1.28.49-2.57.74-3.86.05-.26.08-.53.13-.79.39-2.06,1.47-2.69,3.49-2.13.65.18.41.62.35,1-.21,1.23-.45,2.45-.73,3.66-.18.77,0,1.09.83,1a.67.67,0,0,1,.4,0c.45.3,1.47-.68,1.47.58,0,1.74-.26,2-1.64,2-2.18,0-4.37,0-6.55,0-.89,0-1.92.49-2.65-.81-.23-.42-1.8-.57-2.62.29a3.34,3.34,0,0,1-3.8,0c-.35-.37-.55,0-.77.11a7.79,7.79,0,0,1-5.85,0,1.18,1.18,0,0,1-.26-.54,1.7,1.7,0,0,1,0-.39c.7-1.61.89-1.7,2.43-1.25.36.11.73.3,1.14.07C152.1,131.08,151.48,130.18,152.61,128.52Z" transform="translate(-50.5 -42)"/><path class="cls-5" d="M84.92,128.68c-5.7,0-11.41,0-17.11,0-.83,0-1.31-.07-1.3-1.12s.35-1.17,1.25-1.17q16.92,0,33.82,0a1.62,1.62,0,0,1,1.49,1.93c-.23.58-.78.32-1.17.32C96.24,128.69,90.58,128.68,84.92,128.68Z" transform="translate(-50.5 -42)"/><path class="cls-6" d="M85.52,134.63H67.87c-.75,0-1.36.09-1.36-1s.6-1.06,1.36-1.06l34.89,0c.48,0,1-.25,1.39.44.6,1.24.39,1.63-1,1.63Z" transform="translate(-50.5 -42)"/><path class="cls-7" d="M85.05,131.66c-5.75,0-11.49,0-17.24,0-.82,0-1.29-.06-1.3-1.11s.5-1,1.24-1q17.23,0,34.47,0c.65,0,1.19,0,1.38.83s.06,1.33-1,1.32C96.72,131.63,90.88,131.66,85.05,131.66Z" transform="translate(-50.5 -42)"/><path class="cls-8" d="M179.37,134.62h-1.74c-1.72,0-1.72,0-1.4-1.64.36-1.88.76-3.75,1.09-5.63.12-.68.36-1,1.11-1,1.55.06,3.12,0,4.67,0,.36,0,1.1-.27.88.53-.16.59.27,1.57-.82,1.71-.48.06-1,0-1.47,0s-.95-.22-1,.35.57.33.91.41c.13,0,.28,0,.4,0,.41.16,1.27-.4,1.17.55-.07.68.1,1.7-1.22,1.61-.6,0-1.76-.33-1.73.32,0,.89,1.15.24,1.77.42.39.12,1.17-.25,1,.61-.15.64.12,1.66-1.08,1.65Z" transform="translate(-50.5 -42)"/><path class="cls-9" d="M151.75,133.55v.6c-2.19,1-4.5.27-6.75.45-.54.05-.52-.36-.45-.73.41-2.27.85-4.53,1.24-6.8.12-.71.57-.66,1.07-.66,1.55,0,3.1,0,4.66,0,1,0,1.18.3.84,1.16a2.27,2.27,0,0,0-.08.65c-.25,1.22-1.27.79-2.05,1,.43.12.88,0,1.26.22.57.31.37.84.34,1.3a1.09,1.09,0,0,1-1.11,1.09,4,4,0,0,0-1.41.22c.75.32,1.51,0,2.11.42C151.77,132.72,151.26,133.27,151.75,133.55Z" transform="translate(-50.5 -42)"/><path class="cls-10" d="M143.54,130.32c-.6-.87-.12-1.76.06-2.56.62-2.84.68-2.83-2.17-2.83-2.41,0-2.39,0-1.66-2.35.83-2.71,1.62-5.44,2.44-8.16.1-.34.2-.68.32-1s.45-.39.77-.33c.54.09.28.44.2.71a9.89,9.89,0,0,0-.19,4.62,8.6,8.6,0,0,0,4.61,5.88c.24.14.62.13.69.65-1,0-1.94,0-2.9,0-.67,0-.91.23-1.05.86C144.33,127.3,143.85,128.78,143.54,130.32Z" transform="translate(-50.5 -42)"/><path class="cls-11" d="M81.49,115.37c-2.21,0-3.56-.73-3.76-1.88s.86-2.5,2.44-3.17a6.06,6.06,0,0,1,5.29.15c1.72.85,1.8,2.49.15,3.6A8,8,0,0,1,81.49,115.37Z" transform="translate(-50.5 -42)"/><path class="cls-12" d="M161.64,117.54c0-1-.56-.37-.82-.21a7.48,7.48,0,0,1-4.61,1,3.27,3.27,0,0,1-3.13-2.09c-.52-1.46.13-2.58,1.19-3.54a6,6,0,0,1,7.08-.44l1,.66c.58-.77.2-1.72.65-2.46.13.55-.2,1.19.28,1.68a13.15,13.15,0,0,0-1.06,5.09Z" transform="translate(-50.5 -42)"/><path class="cls-13" d="M151.46,132.77c-.22-.62-.75-.26-1.13-.37-.59-.15-1.68.36-1.7-.37,0-.88,1.06-.3,1.63-.47a.82.82,0,0,1,.27,0c1.28.11,1-1,1-1.57.11-.87-.66-.38-1-.51s-1.42.39-1.4-.43,1-.27,1.47-.37,1.27.26,1.67-.47l.33.32c-.45,1.93,0,2.51,1.93,3,.46.1,1.46-.16,1.29.64s-1.05.41-1.65.34a.48.48,0,0,1-.26-.09c-1.19-.9-1.77-.2-2.21.85C151.2,133.31,151.41,133,151.46,132.77Z" transform="translate(-50.5 -42)"/><path class="cls-14" d="M166.51,124.94h-2.88c-.7,0-1.33,0-1.86.68s-.92-.34-1.53-.35c2-.5,1.23-2.46,2.11-3.63A19,19,0,0,0,166.51,124.94Z" transform="translate(-50.5 -42)"/><path class="cls-15" d="M87.31,121.47A17.45,17.45,0,0,0,91.66,125h-6.4C87.05,124.56,86.79,122.9,87.31,121.47Z" transform="translate(-50.5 -42)"/><path class="cls-16" d="M124,124.86a15.85,15.85,0,0,0,4.41-3.15,3,3,0,0,1-.6,2.84C126.8,125.52,125.3,124.72,124,124.86Z" transform="translate(-50.5 -42)"/><path class="cls-17" d="M110.94,124.9c-2.15.21-4.21,0-6.34,0C106.71,123,108.76,123.45,110.94,124.9Z" transform="translate(-50.5 -42)"/><path class="cls-18" d="M130.58,116l-1.43-2.68c.65-.18,1.59-.52,1.86-.12C131.55,114,130.71,114.88,130.58,116Z" transform="translate(-50.5 -42)"/><path class="cls-19" d="M175.27,127.69a2.61,2.61,0,0,1,.66-2,5.08,5.08,0,0,1-.32,2.41C175.42,128,175.39,127.81,175.27,127.69Z" transform="translate(-50.5 -42)"/><path class="cls-20" d="M175.27,127.69l.34.36c-.39.75,0,1.79-1,2.6A11.52,11.52,0,0,1,175.27,127.69Z" transform="translate(-50.5 -42)"/><path class="cls-21" d="M183.88,124c-.74.63-1.34.42-1.77-.35-.33-.59.12-.73.59-.8a.4.4,0,0,1,.34,0,.71.71,0,0,1,.16.31C183.14,123.61,183.67,123.65,183.88,124Z" transform="translate(-50.5 -42)"/><path class="cls-3" d="M141.75,111.41H146c0,.22-.13.34-.37.27A19.85,19.85,0,0,1,141.75,111.41Z" transform="translate(-50.5 -42)"/><path class="cls-22" d="M87.31,114.86v2.68l-.5-.53c-.18-.63.68-1.27,0-1.9A.46.46,0,0,1,87.31,114.86Z" transform="translate(-50.5 -42)"/><path class="cls-23" d="M183,122.88l-.34-.08c0-.2,0-.38.24-.46a2.51,2.51,0,0,1,1.69,0v.05c.08.19,0,.31-.14.43a2.14,2.14,0,0,1-.84.48.78.78,0,0,1-.3,0C183.16,123.22,183.29,122.89,183,122.88Z" transform="translate(-50.5 -42)"/><path class="cls-24" d="M183.29,123.13l.29,0a.9.9,0,0,1,.51.41.86.86,0,0,1,0,.16l-.22.22c-1.16,0-1.16,0-.83-.83C183.13,123,183.21,123,183.29,123.13Z" transform="translate(-50.5 -42)"/><path class="cls-25" d="M145.6,111.69l.37-.27c.13-.3-.28-.84.41-.88l.29.3a5.24,5.24,0,0,1-1.06,1.61Z" transform="translate(-50.5 -42)"/><path class="cls-26" d="M112.43,112.15l0,1.9-.27,0c.16-.92-.33-1.79-.25-2.7Z" transform="translate(-50.5 -42)"/><path class="cls-27" d="M180.9,124.49c-.14.56-.16.59-.94.53-.23,0-.66.22-.64-.28,0-.2.33-.23.55-.21C180.22,124.76,180.56,124.44,180.9,124.49Z" transform="translate(-50.5 -42)"/><path class="cls-28" d="M184.39,122.62l.25-.22c.49.71.38,1.18-.54,1.33v0C184,123.27,184.19,123,184.39,122.62Z" transform="translate(-50.5 -42)"/><path class="cls-29" d="M110.08,131.2c0-.34.09-.6.48-.94v1.19Z" transform="translate(-50.5 -42)"/><path class="cls-30" d="M184.63,122.35h-1.69C183.5,122.06,184.07,121.77,184.63,122.35Z" transform="translate(-50.5 -42)"/><path class="cls-31" d="M180.9,124.49c-.33.43-.67.38-1,0C180.21,124.5,180.54,124,180.9,124.49Z" transform="translate(-50.5 -42)"/><path class="cls-32" d="M168.84,126.42c-.35-.48-.56-.72-.38-1a.35.35,0,0,1,.33,0C169.06,125.63,168.85,125.93,168.84,126.42Z" transform="translate(-50.5 -42)"/><path class="cls-33" d="M137.05,132.5c.1-.26.16-.56.52-.64a1.42,1.42,0,0,1-.21,1.22C137.28,132.88,137.3,132.61,137.05,132.5Z" transform="translate(-50.5 -42)"/><path class="cls-3" d="M129.59,107.68l-.26-.94c.36.1.76.15.76.66l0,0Z" transform="translate(-50.5 -42)"/><path class="cls-34" d="M127.67,129a.82.82,0,0,1-.43.65,1.09,1.09,0,0,1,.17-1.15Z" transform="translate(-50.5 -42)"/><path class="cls-35" d="M117.86,128.26l.23-.54c.51-.06.36.26.3.53l-.27.84C118,128.83,118.14,128.48,117.86,128.26Z" transform="translate(-50.5 -42)"/><path class="cls-36" d="M107.88,130.36c0,.31,0,.67-.37.64s-.16-.4-.1-.64Z" transform="translate(-50.5 -42)"/><path class="cls-37" d="M99.15,118.53c-1.74,0-3.11-.73-3.49-1.91a3.93,3.93,0,0,1,1.73-4.26,5.2,5.2,0,0,1,3.8-.84,2.86,2.86,0,0,1,2.62,1.94,3.55,3.55,0,0,1-.94,3.56A5.16,5.16,0,0,1,99.15,118.53Z" transform="translate(-50.5 -42)"/><path class="cls-37" d="M173.87,118.52c-1.19-.11-2.57-.26-3.19-1.82a3.54,3.54,0,0,1,1.19-3.93,5,5,0,0,1,5.22-1,3.05,3.05,0,0,1,1.07,4.88A5.24,5.24,0,0,1,173.87,118.52Z" transform="translate(-50.5 -42)"/><path class="cls-38" d="M132.09,132.21c-.74-.11-1.48-.36-1.47-1.41A1.92,1.92,0,0,1,132.7,129c.93,0,1.57.32,1.58,1.35A2.12,2.12,0,0,1,132.09,132.21Z" transform="translate(-50.5 -42)"/><path class="cls-39" d="M118.39,128.25c-.07-.19,0-.45-.3-.53,0-.22.24-.48.39-.35S118.61,128,118.39,128.25Z" transform="translate(-50.5 -42)"/><path class="cls-40" d="M164.42,129.73c.57.72.71,1.3.3,1.85-.17.22-.76.19-.84,0C163.61,130.92,164.18,130.47,164.42,129.73Z" transform="translate(-50.5 -42)"/><path class="cls-41" d="M151.46,132.77l.25.46c0,.1,0,.21,0,.32-.15,0-.35.24-.45.06A.65.65,0,0,1,151.46,132.77Z" transform="translate(-50.5 -42)"/><path class="cls-10" d="M158,112.86a5.22,5.22,0,0,1,2.19.52,1.39,1.39,0,0,1,.18,2.43,5.51,5.51,0,0,1-4.68.94,1.43,1.43,0,0,1-.85-2.45A4.09,4.09,0,0,1,158,112.86Z" transform="translate(-50.5 -42)"/><path class="cls-42" d="M183.29,123.13l-.12,0-.12,0a1.93,1.93,0,0,0,0-.24l.2-.1Z" transform="translate(-50.5 -42)"/><path class="cls-43" d="M184.39,122.62c.17.42-.11.73-.28,1.07a1,1,0,0,1-.53-.53Z" transform="translate(-50.5 -42)"/><path class="cls-44" d="M100.47,113c.82,0,1.68.08,1.91,1.05a2.16,2.16,0,0,1-1,2.3,3.7,3.7,0,0,1-2.51.66c-.72,0-1.48-.11-1.78-.9a1.93,1.93,0,0,1,.62-2A3.45,3.45,0,0,1,100.47,113Z" transform="translate(-50.5 -42)"/><path class="cls-44" d="M175.17,113c1,0,1.93.06,2.2,1.06a2.1,2.1,0,0,1-1,2.27,3.87,3.87,0,0,1-2.76.68c-1.52-.16-2-1.07-1.28-2.41A3.21,3.21,0,0,1,175.17,113Z" transform="translate(-50.5 -42)"/></svg>