<svg id="Layer_1" data-name="Layer 1" xmlns="http://www.w3.org/2000/svg" viewBox="0 0 180 180"><defs><style>.cls-1{fill:#0a0e29;}.cls-2{fill:#fff;}</style></defs><title>Hautelook</title><circle class="cls-1" cx="90" cy="90" r="90"/><path class="cls-2" d="M78.18,153.84h2.59v.48c0,2.89,0,5.78,0,8.67,0,.38.1.5.48.49,1.19,0,2.37,0,3.55,0,.37,0,.47-.11.47-.47,0-2.93,0-5.87,0-8.8v-.36h2.52v20.91H85.26v-9.24a3.37,3.37,0,0,0-.4,0c-1.22,0-2.45,0-3.67,0-.36,0-.43.14-.43.46q0,4.15,0,8.3v.53H78.18Z" transform="translate(-38.94 -36.96)"/><path class="cls-2" d="M166.78,164.13a29,29,0,0,1-.66,7,7.81,7.81,0,0,1-.63,1.69,3.87,3.87,0,0,1-4.1,2.1,4.16,4.16,0,0,1-3.82-3.24,18.35,18.35,0,0,1-.75-4.59,44.8,44.8,0,0,1,.08-7.14,12.76,12.76,0,0,1,.87-3.89,4.08,4.08,0,0,1,4.39-2.44,4,4,0,0,1,3.67,2.91,16.1,16.1,0,0,1,.78,4C166.71,161.82,166.73,163.11,166.78,164.13Zm-2.56,1c-.1-2.14-.11-3.67-.25-5.19a13.89,13.89,0,0,0-.56-2.77A1.6,1.6,0,0,0,161.8,156a1.75,1.75,0,0,0-1.72,1.06,7.29,7.29,0,0,0-.55,2.68,54.76,54.76,0,0,0,0,8.78,14.58,14.58,0,0,0,.59,2.85,1.58,1.58,0,0,0,1.56,1.09,1.66,1.66,0,0,0,1.67-1,4.41,4.41,0,0,0,.46-1.44C164,168.23,164.12,166.38,164.22,165.13Z" transform="translate(-38.94 -36.96)"/><path class="cls-2" d="M144.37,164a30.18,30.18,0,0,1,.63-6.57,9.32,9.32,0,0,1,.33-1,4.42,4.42,0,0,1,6.64-2,4.17,4.17,0,0,1,1.51,2.11,14,14,0,0,1,.81,4.24q.14,3.08.08,6.15a16.22,16.22,0,0,1-.81,5.12,4,4,0,0,1-3,2.88,4.24,4.24,0,0,1-5.08-2.58,13.51,13.51,0,0,1-.87-4C144.48,166.82,144.44,165.39,144.37,164Zm7.52,1.08c-.08-2.15-.09-3.68-.23-5.2a13.33,13.33,0,0,0-.55-2.64,1.64,1.64,0,0,0-1.64-1.16,1.58,1.58,0,0,0-1.69,1.08,11.24,11.24,0,0,0-.55,2.56,50.82,50.82,0,0,0,0,9,13.15,13.15,0,0,0,.59,2.77,1.58,1.58,0,0,0,1.57,1.07,1.64,1.64,0,0,0,1.64-1,4.9,4.9,0,0,0,.48-1.52C151.69,168.15,151.8,166.29,151.89,165Z" transform="translate(-38.94 -36.96)"/><path class="cls-2" d="M103,153.83h2.51v.53c0,4.71,0,9.41,0,14.12a21.13,21.13,0,0,0,.25,2.75,1.46,1.46,0,0,0,1.31,1.3,4.9,4.9,0,0,0,1.43,0,1.4,1.4,0,0,0,1.24-1.3,12,12,0,0,0,.17-1.68c0-5.07,0-10.14,0-15.2v-.52h2.51c0,.13,0,.26,0,.39,0,5.14,0,10.27,0,15.41a14,14,0,0,1-.34,2.65,3.24,3.24,0,0,1-2.47,2.47,6.75,6.75,0,0,1-3.54.08,3.57,3.57,0,0,1-2.94-3.48,23.78,23.78,0,0,1-.17-2.67c0-4.81,0-9.61,0-14.42C102.93,154.14,102.94,154,103,153.83Z" transform="translate(-38.94 -36.96)"/><path class="cls-2" d="M95.69,153.57l6,21.21c-.78,0-1.5,0-2.23,0-.1,0-.25-.18-.29-.3-.32-1.09-.63-2.19-.93-3.29a.42.42,0,0,0-.5-.38H93.46c-.29,0-.4.1-.47.37-.29,1.07-.61,2.14-.89,3.21-.08.3-.19.43-.53.41-.65,0-1.31,0-2,0Zm1.85,15-1.79-7.07h-.13l-1.79,7.08Z" transform="translate(-38.94 -36.96)"/><path class="cls-2" d="M133,153.82c0,.66,0,1.26,0,1.87,0,.08-.25.21-.38.21-1.27,0-2.54,0-3.8,0-.54,0-.54,0-.54.54q0,3.18,0,6.37v.47h4.19v2.16h-4.15c0,.19,0,.34,0,.49,0,2.06,0,4.13,0,6.19,0,.41.13.51.51.5,1.27,0,2.54,0,3.81,0,.34,0,.45.11.44.45,0,.56,0,1.12,0,1.7h-6.91c-.35,0-.44-.1-.44-.44q0-10,0-20.08c0-.36.1-.47.47-.46H133Z" transform="translate(-38.94 -36.96)"/><path class="cls-2" d="M114.5,153.83h9.12c0,.67,0,1.33,0,2,0,.07-.23.18-.35.18h-2.35c-.53,0-.53,0-.53.55v18.2h-2.51V156.58c0-.58,0-.58-.58-.58h-2.44c-.26,0-.36-.07-.35-.35C114.52,155.06,114.5,154.47,114.5,153.83Z" transform="translate(-38.94 -36.96)"/><path class="cls-2" d="M143.21,172.65v2.11H136a3.57,3.57,0,0,1,0-.47c0-6.66,0-13.32,0-20,0-.4.12-.51.51-.49.67,0,1.35,0,2.09,0v18.26c0,.54,0,.54.54.54h3.63Z" transform="translate(-38.94 -36.96)"/><path class="cls-2" d="M179.7,153.82c-.08.2-.13.35-.2.49-1.43,3.1-2.85,6.19-4.29,9.28a.76.76,0,0,0,0,.69q2.15,5,4.28,10c.07.14.12.3.2.49-.92,0-1.8,0-2.67,0-.11,0-.24-.19-.3-.32l-2.79-6.74c-.48-1.15-1-2.31-1.42-3.47a.91.91,0,0,1,0-.61c1.38-3.16,2.78-6.31,4.16-9.47a.49.49,0,0,1,.55-.35C178,153.83,178.84,153.82,179.7,153.82Z" transform="translate(-38.94 -36.96)"/><path class="cls-2" d="M171.81,174.77h-2.52V153.84h2.52Z" transform="translate(-38.94 -36.96)"/><path class="cls-2" d="M114.92,78.88h7.56v1.38c0,8.46,0,16.91-.1,25.36,0,1.1.28,1.46,1.4,1.43,3.46-.06,6.93-.06,10.39,0,1.07,0,1.37-.32,1.36-1.37,0-8.57,0-17.15.06-25.72,0-.32,0-.64,0-1.06H143V140h-7.35V113c-.45,0-.8-.1-1.15-.1-3.58,0-7.17,0-10.75,0-1.06,0-1.25.39-1.24,1.34,0,8.09,0,16.18,0,24.27V140h-7.56Z" transform="translate(-38.94 -36.96)"/></svg>