<svg id="Layer_1" data-name="Layer 1" xmlns="http://www.w3.org/2000/svg" viewBox="0 0 183.05 183.44"><defs><style>.cls-1{fill:#0479e7;}.cls-2{fill:#fefefe;}.cls-3{fill:#fcfdfe;}.cls-4{fill:#047ae7;}.cls-5{fill:#057ae7;}</style></defs><title>jomashop</title><path class="cls-1" d="M124.53,212.73a91.73,91.73,0,1,1,91.53-91.67A91.64,91.64,0,0,1,124.53,212.73Z" transform="translate(-33.01 -29.28)"/><path class="cls-2" d="M151.45,90.16l-8.33,19.11c-.6,1.38-1.19,2.75-1.81,4.12-.23.51-.28,1.23-1.05,1.24s-.84-.7-1.06-1.21l-6.92-15.75a62.93,62.93,0,0,0-3.7-7.51v10.3c0,4.24,0,8.49,0,12.73,0,1-.23,1.5-1.4,1.52s-1.38-.5-1.38-1.53c0-8.35,0-16.71.07-25.07,0-.76-.86-2.22.77-2.33,1.46-.09,3.08-.68,4,1.58,2.45,6.11,5.19,12.1,7.82,18.13.55,1.24,1.11,2.47,1.79,4l6-13.86c1.25-2.87,2.59-5.7,3.7-8.62.82-2.16,2.51-1.18,3.81-1.22s.75,1.28.75,2c0,8.36,0,16.71,0,25.07,0,1,.26,1.93-1.39,1.9s-1.35-1-1.35-2V90.25Z" transform="translate(-33.01 -29.28)"/><path class="cls-2" d="M142.34,124.83a16.12,16.12,0,1,1-16.3,16A16.11,16.11,0,0,1,142.34,124.83Z" transform="translate(-33.01 -29.28)"/><path class="cls-2" d="M99.89,85.27c8.9,0,15,6.11,15,15,0,8.65-6.29,14.86-15,14.86s-14.93-6.2-15-14.9S91,85.26,99.89,85.27Z" transform="translate(-33.01 -29.28)"/><path class="cls-2" d="M192.12,114.43c-2.46.9-3.69-.17-4.13-2.27-.81-3.86-3.05-5.12-6.93-4.63a56.49,56.49,0,0,1-9.38,0,2.33,2.33,0,0,0-2.68,1.85c-.46,1.35-1.23,2.6-1.65,4-.54,1.75-1.92,1.44-3,1.2s-.21-1.07,0-1.53c2.7-6.28,5.44-12.54,8.17-18.8,1.1-2.51,2.21-5,3.25-7.53.33-.79.8-1.16,1.62-1s2-.55,2.57.74Q186,100.42,192.12,114.43Z" transform="translate(-33.01 -29.28)"/><path class="cls-2" d="M90.23,142q0-6.16,0-12.34c0-.91-.37-1.93,1.31-1.95s1.42,1.06,1.42,2c0,3.13.07,6.27,0,9.4,0,1.25.37,1.52,1.55,1.51,5.42-.06,10.84-.07,16.26,0,1.24,0,1.54-.37,1.52-1.55-.08-3.26,0-6.53,0-9.8,0-1,.06-1.57,1.32-1.59s1.45.57,1.45,1.65q0,12.93,0,25.87c0,1-.14,1.52-1.35,1.5s-1.45-.36-1.43-1.46c.06-3.59,0-7.18,0-10.78,0-1.17-.28-1.56-1.52-1.55q-8.13.11-16.26,0c-1.18,0-1.58.25-1.55,1.5.09,3.46,0,6.92,0,10.39,0,.91.34,1.88-1.32,1.91s-1.41-1-1.41-2Q90.23,148.35,90.23,142Z" transform="translate(-33.01 -29.28)"/><path class="cls-2" d="M70.37,157.12a15.2,15.2,0,0,1-10.3-3.54c-.75-.64-1.11-1.1-.24-2s1.15-.83,2-.08a12.54,12.54,0,0,0,12.22,2.78,5.44,5.44,0,0,0,4.33-5c.05-2.48-1.47-3.9-3.6-4.85-2.33-1-4.86-1.46-7.27-2.26a24.63,24.63,0,0,1-3.65-1.37c-4.84-2.47-5.18-8.54-.69-11.63s12.39-2.46,16.31,1.13c.56.51,1.29.94.35,1.84-.74.71-1.11,1.06-2.12.16-3.06-2.7-6.71-3.25-10.63-2.3a6.11,6.11,0,0,0-2.41,1.25c-2.64,2.12-2.36,5.41.6,7.06,2.13,1.2,4.53,1.61,6.84,2.26a22,22,0,0,1,5.45,2.09,7.38,7.38,0,0,1,0,12.77A13.46,13.46,0,0,1,70.37,157.12Z" transform="translate(-33.01 -29.28)"/><path class="cls-2" d="M169.41,142.25c0-4.3.05-8.61,0-12.91,0-1.3.38-1.67,1.65-1.64,3.39.09,6.78,0,10.18,0,5.2.05,8.84,3.33,9,8.08s-3,8.35-8.27,8.75c-2.79.21-5.6.15-8.4.12-1.12,0-1.45.35-1.43,1.46.07,3.06,0,6.13.06,9.19,0,1.21-.47,1.36-1.49,1.37s-1.32-.33-1.31-1.34C169.44,151,169.41,146.63,169.41,142.25Z" transform="translate(-33.01 -29.28)"/><path class="cls-3" d="M73.84,97.23c0,3.13,0,6.26,0,9.39,0,4.42-2.47,7.35-6.84,8.21a10.25,10.25,0,0,1-9.32-2.22c-.8-.71-1.06-1.21-.22-2.2s1.31-.31,1.91.24c3.09,2.83,7.57,2.81,10.2,0,1.46-1.55,1.66-3.47,1.66-5.46,0-5.93,0-11.86,0-17.8,0-.79-.29-1.73,1.15-1.7,1,0,1.51.18,1.48,1.37C73.79,90.45,73.84,93.84,73.84,97.23Z" transform="translate(-33.01 -29.28)"/><path class="cls-4" d="M142.13,154a13,13,0,1,1,13.05-13.08A13,13,0,0,1,142.13,154Z" transform="translate(-33.01 -29.28)"/><path class="cls-4" d="M99.87,87.62c7.31,0,12.14,5,12.12,12.62,0,7.34-5.07,12.55-12.14,12.53S87.6,107.38,87.69,100,92.68,87.62,99.87,87.62Z" transform="translate(-33.01 -29.28)"/><path class="cls-5" d="M177.94,88.6l6.66,15.45c.12.29.18.61.35,1.2-4.55,0-8.94.06-13.33,0-1.27,0-.43-1-.24-1.41,1.66-4,3.37-7.91,5.08-11.85C176.89,90.94,177.35,89.93,177.94,88.6Z" transform="translate(-33.01 -29.28)"/><path class="cls-4" d="M172.16,136.27c0-1.63.05-3.26,0-4.88,0-1,.33-1.35,1.34-1.32,2.54.06,5.08,0,7.62,0,3.64.11,6.2,2.52,6.34,5.86s-2.2,6-5.87,6.26c-2.72.21-5.46.09-8.19.16-.91,0-1.28-.27-1.24-1.23C172.21,139.53,172.16,137.9,172.16,136.27Z" transform="translate(-33.01 -29.28)"/><path class="cls-3" d="M143.4,144.15c-3.72,0-3.72,0-3.72-3.71,0-1.56,0-3.12,0-4.68,0-.8.31-1.43,1.22-1.45s1.2.66,1.21,1.44c0,1.5.09,3,0,4.49-.07,1.23.42,1.63,1.59,1.5a15.86,15.86,0,0,1,1.95,0c.83,0,1.41.36,1.38,1.26s-.57,1.13-1.31,1.15Z" transform="translate(-33.01 -29.28)"/></svg>