<svg width="21" height="21" viewBox="0 0 21 21" fill="none" xmlns="http://www.w3.org/2000/svg">
<path d="M0.583656 2.30683L1.75096 1.13843L10.2482 9.64324L18.7454 1.13843L19.9128 2.30683L10.2482 11.9805L0.583656 2.30683Z" fill="#49B391"/>
<path d="M20.4964 2.30603L10.2482 12.5645L0 2.30645L1.75096 0.55388L10.2482 9.05849L18.7454 0.553467L20.4964 2.30603ZM10.2482 11.3957L19.3291 2.30603L18.7454 1.72184L10.2482 10.2269L1.75096 1.72226L1.16731 2.30645L10.2482 11.3957Z" fill="#49B391"/>
<path d="M0.583656 10.3142L1.75096 9.14575L10.2482 17.6506L18.7454 9.14575L19.9128 10.3142L10.2482 19.9878L0.583656 10.3142Z" fill="#49B391"/>
<path d="M20.4964 10.3134L10.2482 20.5718L0 10.3138L1.75096 8.5612L10.2482 17.0658L18.7454 8.56079L20.4964 10.3134ZM10.2482 19.403L19.3291 10.3134L18.7454 9.72917L10.2482 18.2342L1.75096 9.72958L1.16731 10.3138L10.2482 19.403Z" fill="#49B391"/>
</svg>
