<svg width="20" height="20" viewBox="0 0 20 20" fill="none" xmlns="http://www.w3.org/2000/svg">
<g clip-path="url(#clip0)">
<path d="M8.42935 10.9827C8.42935 11.5499 7.96961 12.0097 7.40245 12.0097C6.83533 12.0097 6.37559 11.5499 6.37559 10.9827C6.37559 10.4156 6.83533 9.95585 7.40245 9.95585C7.96961 9.95588 8.42935 10.4156 8.42935 10.9827ZM12.5975 9.95588C12.0304 9.95588 11.5707 10.4156 11.5707 10.9828C11.5707 11.5499 12.0304 12.0097 12.5975 12.0097C13.1647 12.0097 13.6245 11.5499 13.6245 10.9828C13.6244 10.4156 13.1647 9.95588 12.5975 9.95588ZM20 10.4104V12.362C20 13.3418 19.2057 14.136 18.2259 14.136H16.9385C15.6628 17.678 12.4054 19.8174 10 19.8174C7.59464 19.8174 4.33716 17.678 3.0615 14.136H1.77412C0.794281 14.136 0 13.3418 0 12.3619V10.4103C0 9.73611 0.376176 9.14977 0.930065 8.8496C0.94866 6.07886 1.75621 3.9149 3.33376 2.41892C4.89853 0.935068 7.14137 0.182617 10 0.182617C12.8586 0.182617 15.1015 0.935068 16.6662 2.41889C18.2438 3.91487 19.0513 6.07886 19.0699 8.84957C19.6238 9.14977 20 9.73611 20 10.4104ZM16.2451 10.9892C16.2451 10.5327 16.2217 10.1038 16.1872 9.6882C15.3998 8.96784 13.9705 8.42124 12.1665 8.21813C12.4034 8.48448 12.608 8.83483 12.7321 9.29601C11.6271 8.42552 9.45817 8.63271 7.81761 6.68474C7.72356 6.57595 7.64222 6.47199 7.5719 6.37699C7.57108 6.37585 7.57016 6.37497 7.56935 6.37386L7.56954 6.37392C7.27768 5.97922 7.17817 5.74444 7.17261 6.00431C7.12448 8.2433 5.53752 9.98879 3.77529 10.235C3.76415 10.4813 3.75503 10.7299 3.75503 10.9893C3.75503 11.9356 3.90958 12.7982 4.17232 13.5755C5.16219 14.7695 6.7969 15.1066 8.24376 15.196C8.51235 14.7687 9.115 14.4704 9.81683 14.4704C10.7684 14.4704 11.5397 15.0179 11.5397 15.6934C11.5397 16.3688 10.7683 16.9163 9.81683 16.9163C9.0849 16.9163 8.46118 16.5918 8.21154 16.1349C7.20033 16.0761 6.08869 15.9037 5.09794 15.4358C6.49121 17.4895 8.65114 18.5755 10 18.5755C12.1196 18.5755 16.2451 15.8979 16.2451 10.9892ZM18.0018 8.63624C17.8889 3.80124 15.1291 1.24713 10 1.24713C4.87088 1.24713 2.11114 3.80124 1.9982 8.63624H2.68078C2.93036 7.0066 3.45784 5.66637 4.25873 4.63585C5.53497 2.99376 7.4666 2.16111 10 2.16111C12.5334 2.16111 14.465 2.99376 15.7413 4.63585C16.5422 5.66634 17.0697 7.0066 17.3192 8.63624H18.0018Z" fill="#236852"/>
</g>
<defs>
<clipPath id="clip0">
<rect width="20" height="20" fill="white"/>
</clipPath>
</defs>
</svg>
