<svg width="20" height="20" viewBox="0 0 20 20" fill="none" xmlns="http://www.w3.org/2000/svg">
<g clip-path="url(#clip0)">
<path d="M10.0077 -0.00011839C4.48426 -0.0048059 0.00456912 4.46903 -0.00011839 9.99208C-0.0048059 15.5151 4.46903 19.9952 9.99208 19.9999C15.5147 19.9952 19.9921 15.5222 19.9999 9.9999C19.9999 4.47958 15.5276 0.00456912 10.0077 -0.00011839ZM9.99208 18.3358C5.39051 18.3358 1.65613 14.6038 1.65613 9.9999C1.65613 5.39598 5.39051 1.66395 9.99208 1.66395C14.5937 1.66395 18.3233 5.39755 18.328 9.9999C18.3327 14.6022 14.596 18.3358 9.99208 18.3358Z" fill="#226852"/>
<path d="M12.5391 15.2734H6.28906C6.13366 15.2734 5.98463 15.3352 5.87474 15.4451C5.76486 15.5549 5.70312 15.704 5.70312 15.8594C5.70312 16.0148 5.76486 16.1638 5.87474 16.2737C5.98463 16.3836 6.13366 16.4453 6.28906 16.4453H12.5391C12.6945 16.4453 12.8435 16.3836 12.9534 16.2737C13.0633 16.1638 13.125 16.0148 13.125 15.8594C13.125 15.704 13.0633 15.5549 12.9534 15.4451C12.8435 15.3352 12.6945 15.2734 12.5391 15.2734Z" fill="#DBA510"/>
<path d="M13.7109 4.33594H13.125V4.14062C13.125 3.98522 13.0632 3.83619 12.9534 3.7263C12.8435 3.61642 12.6944 3.55469 12.539 3.55469C12.3836 3.55469 12.2346 3.61642 12.1247 3.7263C12.0148 3.83619 11.9531 3.98522 11.9531 4.14062V4.33594H11.3672C11.2118 4.33594 11.0627 4.39767 10.9528 4.50755C10.843 4.61744 10.7812 4.76647 10.7812 4.92188C10.7812 5.07728 10.843 5.22631 10.9528 5.3362C11.0627 5.44608 11.2118 5.50781 11.3672 5.50781H11.9531V7.68711C11.4255 7.19105 10.7642 6.86023 10.0508 6.73541C9.33746 6.6106 8.60316 6.69724 7.93843 6.98467C7.27371 7.2721 6.70761 7.74775 6.30992 8.35299C5.91222 8.95823 5.70032 9.66661 5.70032 10.3908C5.70032 11.115 5.91222 11.8234 6.30992 12.4287C6.70761 13.0339 7.27371 13.5095 7.93843 13.797C8.60316 14.0844 9.33746 14.171 10.0508 14.0462C10.7642 13.9214 11.4255 13.5906 11.9531 13.0945V13.5156C11.9531 13.671 12.0148 13.8201 12.1247 13.9299C12.2346 14.0398 12.3836 14.1016 12.539 14.1016C12.6944 14.1016 12.8435 14.0398 12.9534 13.9299C13.0632 13.8201 13.125 13.671 13.125 13.5156V5.50781H13.7109C13.8663 5.50781 14.0154 5.44608 14.1252 5.3362C14.2351 5.22631 14.2969 5.07728 14.2969 4.92188C14.2969 4.76647 14.2351 4.61744 14.1252 4.50755C14.0154 4.39767 13.8663 4.33594 13.7109 4.33594ZM9.41404 12.9297C8.91186 12.9297 8.42096 12.7808 8.00342 12.5018C7.58587 12.2228 7.26043 11.8262 7.06826 11.3623C6.87608 10.8983 6.8258 10.3878 6.92377 9.89528C7.02174 9.40275 7.26356 8.95033 7.61865 8.59524C7.97375 8.24014 8.42617 7.99832 8.9187 7.90035C9.41123 7.80238 9.92175 7.85266 10.3857 8.04484C10.8497 8.23701 11.2462 8.56245 11.5252 8.98C11.8042 9.39754 11.9531 9.88845 11.9531 10.3906C11.9523 11.0638 11.6845 11.7091 11.2085 12.1851C10.7325 12.6611 10.0872 12.9289 9.41404 12.9297Z" fill="#DBA510"/>
</g>
<defs>
<clipPath id="clip0">
<rect width="20" height="20" fill="white"/>
</clipPath>
</defs>
</svg>
