<svg width="20" height="20" viewBox="0 0 20 20" fill="none" xmlns="http://www.w3.org/2000/svg">
<path d="M9.99975 19.6296C4.6816 19.6296 0.370117 15.3181 0.370117 9.99999C0.370117 4.68184 4.6816 0.370361 9.99975 0.370361C15.3179 0.370361 19.6294 4.68184 19.6294 9.99999C19.6294 15.3181 15.3179 19.6296 9.99975 19.6296Z" fill="white"/>
<path d="M10 20C4.48593 20 0 15.5141 0 10C0 4.48593 4.48593 0 10 0C15.5141 0 20 4.48593 20 10C20 15.5141 15.5141 20 10 20ZM10 0.740741C4.89444 0.740741 0.740741 4.89444 0.740741 10C0.740741 15.1056 4.89444 19.2593 10 19.2593C15.1056 19.2593 19.2593 15.1056 19.2593 10C19.2593 4.89444 15.1056 0.740741 10 0.740741Z" fill="white"/>
<path d="M13.3865 10.3768L7.79352 13.606C7.62167 13.7053 7.40723 13.5812 7.40723 13.383V6.92453C7.40723 6.72638 7.62167 6.60231 7.79352 6.70157L13.3865 9.93083C13.5583 10.0301 13.5583 10.2779 13.3865 10.3768Z" fill="#49B391"/>
<path d="M7.66563 14.0112C7.31896 14.0112 7.03711 13.7293 7.03711 13.3831V6.92453C7.03711 6.57824 7.31896 6.29639 7.66563 6.29639C7.77489 6.29639 7.88341 6.32528 7.97896 6.38083L13.5719 9.61009C13.7686 9.72379 13.886 9.92676 13.886 10.1542C13.886 10.3816 13.7686 10.5845 13.5719 10.6982L7.97896 13.9275C7.88341 13.9823 7.77489 14.0112 7.66563 14.0112ZM7.77785 7.12009V13.1879L13.0323 10.1542L7.77785 7.12009Z" fill="#49B391"/>
</svg>
