<svg width="40" height="28" viewBox="0 0 40 28" fill="none" xmlns="http://www.w3.org/2000/svg">
<path d="M13.838 27.9688H6.99555L7.5593 25.9801C8.11031 24.0363 8.98438 20.5244 8.98438 19.375C8.98438 19.0945 8.97602 18.8894 8.96477 18.7407C6.58422 18.6383 4.36188 17.65 2.68547 15.9429C0.95375 14.1795 0 11.847 0 9.375C0 4.20563 4.20563 0 9.375 0C14.5444 0 18.75 4.20563 18.75 9.375C18.75 19.9334 14.4781 26.9373 14.2963 27.2302L13.838 27.9688ZM11.0984 24.8438H12.046C13.0597 22.8777 15.625 17.1344 15.625 9.375C15.625 5.92875 12.8212 3.125 9.375 3.125C5.92875 3.125 3.125 5.92875 3.125 9.375C3.125 12.7548 5.87313 15.5579 9.25102 15.6234L9.31961 15.6251C10.6898 15.6328 11.3579 16.3365 11.6773 16.9273C12.0359 17.5908 12.1094 18.3856 12.1094 19.375C12.1094 20.6218 11.5473 23.0794 11.0984 24.8438ZM35.088 27.9688H28.2455L28.8093 25.9801C29.3603 24.0363 30.2344 20.5244 30.2344 19.375C30.2344 19.0945 30.226 18.8894 30.2148 18.7407C27.8342 18.6383 25.6119 17.65 23.9355 15.9429C22.2037 14.1795 21.25 11.847 21.25 9.375C21.25 4.20563 25.4556 0 30.625 0C35.7944 0 40 4.20563 40 9.375C40 19.9334 35.7281 26.9373 35.5463 27.2302L35.088 27.9688ZM32.3484 24.8438H33.296C34.3097 22.8777 36.875 17.1344 36.875 9.375C36.875 5.92875 34.0713 3.125 30.625 3.125C27.1787 3.125 24.375 5.92875 24.375 9.375C24.375 12.7548 27.1231 15.5579 30.501 15.6234L30.5696 15.6251C31.9398 15.6328 32.6079 16.3365 32.9273 16.9273C33.2859 17.5908 33.3594 18.3856 33.3594 19.375C33.3594 20.6218 32.7973 23.0794 32.3484 24.8438Z" fill="url(#paint0_linear)"/>
<defs>
<linearGradient id="paint0_linear" x1="20" y1="0" x2="20" y2="27.9688" gradientUnits="userSpaceOnUse">
<stop stop-color="#236852"/>
<stop offset="1" stop-color="#DBA510"/>
</linearGradient>
</defs>
</svg>
