<svg width="32" height="32" viewBox="0 0 32 32" fill="none" xmlns="http://www.w3.org/2000/svg">
<path d="M32 16C32 7.15698 24.844 0 16 0C7.15698 0 0 7.15601 0 16C0 24.7646 7.09619 32 16 32C24.8672 32 32 24.8049 32 16ZM16 1.875C23.7886 1.875 30.125 8.21143 30.125 16C30.125 18.8491 29.2776 21.5876 27.7061 23.9072C21.3955 17.1191 10.616 17.1069 4.29395 23.9072C2.72241 21.5876 1.875 18.8491 1.875 16C1.875 8.21143 8.21143 1.875 16 1.875ZM5.46338 25.4062C11.0742 19.1128 20.9272 19.1143 26.5364 25.4062C20.9067 31.7046 11.0955 31.7065 5.46338 25.4062Z" fill="white"/>
<path d="M16 16.9375C19.1016 16.9375 21.625 14.4141 21.625 11.3125V9.4375C21.625 6.33594 19.1016 3.8125 16 3.8125C12.8984 3.8125 10.375 6.33594 10.375 9.4375V11.3125C10.375 14.4141 12.8984 16.9375 16 16.9375ZM12.25 9.4375C12.25 7.36963 13.9321 5.6875 16 5.6875C18.0679 5.6875 19.75 7.36963 19.75 9.4375V11.3125C19.75 13.3804 18.0679 15.0625 16 15.0625C13.9321 15.0625 12.25 13.3804 12.25 11.3125V9.4375Z" fill="white"/>
</svg>
