<svg width="24" height="24" viewBox="0 0 24 24" fill="none" xmlns="http://www.w3.org/2000/svg">
<g clip-path="url(#clip0)">
<path d="M8.49997 9H7.99995V9.99998H8.49997C8.77536 9.99998 8.99999 9.77587 8.99999 9.49997C8.99999 9.22411 8.77536 9 8.49997 9Z" fill="#49B391"/>
<path d="M23.8535 10.1465L18.8535 5.1465C18.7598 5.05275 18.6328 5.00002 18.5 5.00002H14V3.50002C14 3.22364 13.7764 3 13.5 3H2.00002C0.897469 3 0 3.89695 0 5.00002V17.5C0 18.3272 0.672844 19 1.5 19H2.68434C3.09844 20.1615 4.19808 21 5.49998 21C6.80194 21 7.90158 20.1615 8.31572 19H15.6843C16.0985 20.1615 17.1981 21 18.5 21C19.802 21 20.9016 20.1615 21.3158 19H22C23.1026 19 24 18.103 24 17V10.5C24 10.3672 23.9473 10.2402 23.8535 10.1465ZM3 12.5V8.50003C3 8.22366 3.22364 8.00002 3.50002 8.00002H5.50003C5.77641 8.00002 6.00005 8.22366 6.00005 8.50003C6.00005 8.77641 5.77641 9.00005 5.50003 9.00005H4.00003V10H5.00002C5.27639 10 5.50003 10.2237 5.50003 10.5C5.50003 10.7764 5.27639 11.0001 5.00002 11.0001H3.99998V12.5001C3.99998 12.7764 3.77634 13.0001 3.49997 13.0001C3.22364 13 3 12.7764 3 12.5ZM5.49998 20C4.39744 20 3.49997 19.1031 3.49997 18C3.49997 16.8969 4.39744 16 5.49998 16C6.60253 16 7.5 16.897 7.5 18C7.5 19.103 6.60253 20 5.49998 20ZM9.99998 11.5V12.5C9.99998 12.7763 9.77634 13 9.49997 13C9.22359 13 8.99995 12.7763 8.99995 12.5V11.5C8.99995 11.2241 8.77533 11 8.49994 11H7.99992V12.5C7.99992 12.7763 7.77628 13 7.49991 13C7.22353 13 6.99989 12.7763 6.99989 12.5V8.49998C6.99989 8.22361 7.22353 7.99997 7.49991 7.99997H8.49989C9.32705 7.99997 9.99989 8.67281 9.99989 9.49997C9.99989 9.88378 9.85538 10.2344 9.61706 10.5C9.85547 10.7656 9.99998 11.1162 9.99998 11.5ZM13 9.99998C13.2764 9.99998 13.5 10.2236 13.5 10.5C13.5 10.7764 13.2764 11 13 11H12V12H13.5C13.7764 12 14 12.2236 14 12.5C14 12.7764 13.7764 13 13.5 13H11.5C11.2236 13 11 12.7764 11 12.5V8.50003C11 8.22366 11.2236 8.00002 11.5 8.00002H13.5C13.7764 8.00002 14 8.22366 14 8.50003C14 8.77641 13.7764 9.00005 13.5 9.00005H12V10H13V9.99998ZM15.5 13C15.2236 13 15 12.7763 15 12.5V8.49998C15 8.22361 15.2236 7.99997 15.5 7.99997H17.5C17.7764 7.99997 18 8.22361 18 8.49998C18 8.77636 17.7764 9 17.5 9H16V9.99998H17C17.2764 9.99998 17.5 10.2236 17.5 10.5C17.5 10.7764 17.2764 11 17 11H16V12H17.5C17.7764 12 18 12.2236 18 12.5C18 12.7764 17.7764 13 17.5 13H15.5V13ZM18.5 20C17.3975 20 16.5 19.103 16.5 18C16.5 16.897 17.3975 16 18.5 16C19.6026 16 20.5 16.8969 20.5 18C20.5 19.1031 19.6026 20 18.5 20Z" fill="#49B391"/>
</g>
<defs>
<clipPath id="clip0">
<rect width="24" height="24" fill="white"/>
</clipPath>
</defs>
</svg>
