<svg xmlns="http://www.w3.org/2000/svg" viewBox="0 0 18.74 18.74"><defs><style>.cls-1{fill:#4bc999;}</style></defs><title>Asset 4</title><g id="Layer_2" data-name="Layer 2"><g id="Layer_1-2" data-name="Layer 1"><path class="cls-1" d="M12.78,10.28c.1.42-1,.29-1.33.67s-1,.13-1.12.06-.77.17-.71-.25.42-.45.82-.62,1-.75.68-.83a2.75,2.75,0,0,1-1.77-1.6c-.08,0-.06-.88-.4-.9a5,5,0,0,1-1,0c-.51-.1-.4-.42-.48-1.12s.21-.47.37-.69l.05-.06A4.69,4.69,0,0,0,4.69,9.37h0c.34,0,1,.09,1,.33s0,.73.29.85.36-.49.61-.33.89.32.89.61-.13.73,0,.81a3.22,3.22,0,0,1,.6.73c0,.08.17.49.12.65a2.09,2.09,0,0,1-.46.72,4.67,4.67,0,0,0,6.32-4.38,4.55,4.55,0,0,0-.52-2.12,3.32,3.32,0,0,0,.12,1.05c.45.62-1.11,1-.87,2Z"/><path class="cls-1" d="M9.37,0a9.37,9.37,0,1,0,9.37,9.37A9.36,9.36,0,0,0,9.37,0Zm0,15A5.65,5.65,0,1,1,15,9.37,5.66,5.66,0,0,1,9.37,15Z"/></g></g></svg>