<svg xmlns="http://www.w3.org/2000/svg" viewBox="0 0 18.73 17.18"><defs><style>.cls-1{fill:#4bc999;}</style></defs><title>Asset 7</title><g id="Layer_2" data-name="Layer 2"><g id="Layer_1-2" data-name="Layer 1"><path class="cls-1" d="M13.17,4.53h1.64L12.37.35a.7.7,0,0,0-1-.25.71.71,0,0,0-.25,1Z"/><path class="cls-1" d="M7.59,1.07A.71.71,0,1,0,6.37.35L3.93,4.53H5.58Z"/><path class="cls-1" d="M17.53,5.81H1.2A1.2,1.2,0,0,0,0,7V8.35a1.2,1.2,0,0,0,1.2,1.2h.38l1.16,6.3a1.66,1.66,0,0,0,1.53,1.33h10a1.65,1.65,0,0,0,1.53-1.33l1.17-6.3h.61a1.2,1.2,0,0,0,1.2-1.21V7a1.2,1.2,0,0,0-1.2-1.2ZM6.65,12.1v2.72A.68.68,0,0,1,6,15.5a.69.69,0,0,1-.69-.68V11a.69.69,0,0,1,1.37,0Zm2.18,0v2.72a.68.68,0,1,1-1.36,0V11a.67.67,0,0,1,.68-.68.69.69,0,0,1,.68.68ZM11,13.68v1.14a.69.69,0,0,1-.68.68.67.67,0,0,1-.68-.68V11A.68.68,0,0,1,11,11Zm2.18,0v1.14a.68.68,0,1,1-1.36,0V11a.68.68,0,1,1,1.36,0Z"/></g></g></svg>