<svg id="Capa_1" data-name="Capa 1" xmlns="http://www.w3.org/2000/svg" viewBox="0 0 612.02 590.98"><defs><style>.cls-1{fill:#226852;}.cls-2{fill:#dba510;}.cls-3{isolation:isolate;}.cls-4{fill:#fff;}</style></defs><title>logistics-delivery-truck-and-clock</title><path class="cls-1" d="M391.9,249.35A33.16,33.16,0,0,0,385.26,233l24.53-152.2a10.91,10.91,0,0,0-8.31-12.32l-.27-.06a10.91,10.91,0,0,0-12.89,7.46L343.65,223.4a33.46,33.46,0,0,0,24.86,62l93.34,48.5a11.22,11.22,0,0,0,14.6-3.85l.14-.22a11.22,11.22,0,0,0-2.42-14.91Zm-49.88,4A16.63,16.63,0,1,1,358.65,270h0A16.64,16.64,0,0,1,342,253.36Zm270,0C612,366,538.07,461.69,436.19,494.49v-36C518.94,427.1,577.94,347,577.94,253.4c0-120.92-98.38-219.3-219.3-219.3s-219.3,98.39-219.3,219.26A220.24,220.24,0,0,0,142.28,289H107.84a255.73,255.73,0,0,1-2.55-35.62C105.29,113.66,218.94,0,358.64,0S612,113.66,612,253.36Z" transform="translate(0 0)"/><path class="cls-2" d="M402.81,433.89l-78-77.14a26.29,26.29,0,0,0-18.56-7.66H266.92V334.36a19.87,19.87,0,0,0-19.87-19.87H19.84A19.79,19.79,0,0,0,0,334.25V467.18H410.64V452.7A26.43,26.43,0,0,0,402.81,433.89Zm-34,2.55H293.32a3,3,0,0,1-3.07-2.93V375.06a3.06,3.06,0,0,1,3-3.07h14.43a3.65,3.65,0,0,1,2.21.85L371,431.16a3,3,0,0,1-2.16,5.33Zm41.81,41.71v43.94a19.85,19.85,0,0,1-19.85,19.85h-21.2a54.46,54.46,0,0,0-107.78,0H154.15a54.42,54.42,0,0,0-107.71,0H19.85A19.85,19.85,0,0,1,0,522.09V478.15Zm-94.94,30.49a41.17,41.17,0,1,0,41.12,41.22v-.1a41.16,41.16,0,0,0-41.09-41.12Zm0,61.73a20.61,20.61,0,1,1,20.52-20.7v.1a20.57,20.57,0,0,1-20.49,20.6ZM100.3,508.64a41.17,41.17,0,1,0,41.12,41.22v-.1A41.17,41.17,0,0,0,100.3,508.64Zm0,61.73a20.61,20.61,0,1,1,20.6-20.62v0a20.55,20.55,0,0,1-20.52,20.6Z" transform="translate(0 0)"/><g class="cls-3"><path class="cls-4" d="M87.56,370.25v9.26H68.11v8.1H86.17v9.27H68.11v13.95h-12V370.25Z" transform="translate(0 0)"/><path class="cls-4" d="M115.69,410.83l-5.38-10.94h-6.37v10.94h-12V370.25h18.93c10.88,0,17.14,5.21,17.14,14.41,0,6-2.44,10.42-6.84,12.91l8.22,13.26Zm-11.75-20.2h6.89c3.59,0,5.67-2,5.67-5.62s-2.08-5.5-5.67-5.5h-6.89Z" transform="translate(0 0)"/><path class="cls-4" d="M167,370.25v9.26H145.91v6.37h19.16v9.26H145.91v6.43h21.71v9.26H133.87V370.25Z" transform="translate(0 0)"/><path class="cls-4" d="M206.58,370.25v9.26H185.45v6.37h19.16v9.26H185.45v6.43h21.71v9.26H173.41V370.25Z" transform="translate(0 0)"/></g></svg>