<svg xmlns="http://www.w3.org/2000/svg" viewBox="0 0 17.65 11.32"><defs><style>.cls-1{fill:#fff;}</style></defs><title>Asset 16</title><g id="Layer_2" data-name="Layer 2"><g id="Layer_1-2" data-name="Layer 1"><path class="cls-1" d="M.67,1.33H17A.67.67,0,0,0,17,0H.67A.67.67,0,0,0,0,.67a.67.67,0,0,0,.67.66Z"/><path class="cls-1" d="M.67,6.33H17A.67.67,0,0,0,17,5H.67a.67.67,0,1,0,0,1.33Z"/><path class="cls-1" d="M.67,11.32H17a.66.66,0,0,0,.66-.66A.67.67,0,0,0,17,10H.67a.67.67,0,0,0-.67.67.66.66,0,0,0,.67.66Z"/></g></g></svg>